<svg width="36" height="36" viewBox="0 0 36 36" fill="none" xmlns="http://www.w3.org/2000/svg">
<path d="M34.8387 14.0423V4.06452C34.8387 1.82323 33.0155 0 30.7742 0H18.5806C17.179 0 16.0061 0.99929 15.7361 2.32258H15.6774C14.2757 2.32258 13.1028 3.32187 12.8328 4.64516H1.74194C0.781548 4.64516 0 5.42671 0 6.3871V7.54839C0 8.50877 0.781548 9.29032 1.74194 9.29032H2.32258V13.1928L2.71974 13.3252C2.80277 13.3525 3.61684 13.6185 5.03884 13.9355H4.06452C2.46368 13.9355 1.16129 15.2379 1.16129 16.8387C1.16129 17.7991 1.94284 18.5806 2.90323 18.5806L2.03226 19.7419C0.721742 21.4891 0 23.6543 0 25.8387C0 31.4414 4.55864 36 10.1613 36H10.1955H16.2581H18.5806H19.163H22.3548C27.9575 36 32.5161 31.4414 32.5161 25.8387C32.5161 23.6543 31.7944 21.4891 30.4839 19.7419L29.6129 18.5806C30.5733 18.5806 31.3548 17.7991 31.3548 16.8387C31.3548 15.2379 30.0525 13.9355 28.4516 13.9355H27.4773C28.8993 13.6185 29.7139 13.3525 29.797 13.3252L30.1935 13.1928V9.29032H30.7742C31.7346 9.29032 32.5161 8.50877 32.5161 7.54839V6.3871C32.5161 5.42671 31.7346 4.64516 30.7742 4.64516H19.6833C19.4203 3.35497 18.2973 2.38181 16.9426 2.33303C17.1801 1.6531 17.8206 1.16129 18.5806 1.16129H30.7742C32.375 1.16129 33.6774 2.46368 33.6774 4.06452V14.0423C33.0033 14.2827 32.5161 14.9214 32.5161 15.6774V19.1613C32.5161 20.1217 33.2977 20.9032 34.2581 20.9032C35.2185 20.9032 36 20.1217 36 19.1613V15.6774C36 14.9214 35.5128 14.2827 34.8387 14.0423ZM10.1955 34.8387H10.1613C9.76703 34.8387 9.38206 34.8045 9.00116 34.7551C8.82465 34.6517 8.70968 34.4654 8.70968 34.2581V33.0968C8.70968 32.7768 8.97039 32.5161 9.29032 32.5161H9.87097V33.6774H11.0323V32.5161H12.1935V33.6774H13.3548V32.5161H13.9355H14.5161V33.6774H15.6774V32.5161H16.2581C16.578 32.5161 16.8387 32.7768 16.8387 33.0968V34.2581C16.8387 34.578 16.578 34.8387 16.2581 34.8387H10.1955ZM9.87097 23.2258V22.0645H11.0323V23.2258H12.1935V22.0645H13.3548V23.2258H14.5161V22.0645H15.0968C15.4167 22.0645 15.6774 22.3252 15.6774 22.6452V23.8065C15.6774 24.1264 15.4167 24.3871 15.0968 24.3871H9.29032H8.12903C7.8091 24.3871 7.54839 24.1264 7.54839 23.8065V22.6452C7.54839 22.3252 7.8091 22.0645 8.12903 22.0645H8.70968V23.2258H9.87097ZM8.70968 27.2903V26.129C8.70968 25.8091 8.97039 25.5484 9.29032 25.5484H9.87097V26.7097H11.0323V25.5484H12.1935V26.7097H13.3548V25.5484H14.5161V26.7097H15.6774V25.5484H16.2581C16.578 25.5484 16.8387 25.8091 16.8387 26.129V27.2903C16.8387 27.6103 16.578 27.871 16.2581 27.871H13.9355H9.29032C8.97039 27.871 8.70968 27.6103 8.70968 27.2903ZM19.1613 23.8065V22.6452C19.1613 22.3252 19.422 22.0645 19.7419 22.0645H20.3226V23.2258H21.4839V22.0645H22.6452V23.2258H23.8065V22.0645H24.9677V23.2258H26.129V22.0645H26.7097C27.0296 22.0645 27.2903 22.3252 27.2903 22.6452V23.8065C27.2903 24.1264 27.0296 24.3871 26.7097 24.3871H25.5484H19.7419C19.422 24.3871 19.1613 24.1264 19.1613 23.8065ZM18.5806 25.5484H19.1613V26.7097H20.3226V25.5484H21.4839V26.7097H22.6452V25.5484H23.8065V26.7097H24.9677V25.5484H25.5484C25.8683 25.5484 26.129 25.8091 26.129 26.129V27.2903C26.129 27.6103 25.8683 27.871 25.5484 27.871H23.2258H18.5806C18.2607 27.871 18 27.6103 18 27.2903V26.129C18 25.8091 18.2607 25.5484 18.5806 25.5484ZM23.8065 29.6129V30.7742C23.8065 31.0941 23.5457 31.3548 23.2258 31.3548H18.5806H16.2581C15.9381 31.3548 15.6774 31.0941 15.6774 30.7742V29.6129C15.6774 29.293 15.9381 29.0323 16.2581 29.0323H16.8387V30.1935H18V29.0323H18.5806H19.1613V30.1935H20.3226V29.0323H21.4839V30.1935H22.6452V29.0323H23.2258C23.5457 29.0323 23.8065 29.293 23.8065 29.6129ZM8.70968 30.1935V29.0323H9.29032H9.87097V30.1935H11.0323V29.0323H12.1935V30.1935H13.3548V29.0323H13.9355C14.2554 29.0323 14.5161 29.293 14.5161 29.6129V30.7742C14.5161 31.0941 14.2554 31.3548 13.9355 31.3548H9.29032H6.96774C6.64781 31.3548 6.3871 31.0941 6.3871 30.7742V29.6129C6.3871 29.293 6.64781 29.0323 6.96774 29.0323H7.54839V30.1935H8.70968ZM19.163 34.8387H18.5806C18.2607 34.8387 18 34.578 18 34.2581V33.0968C18 32.7768 18.2607 32.5161 18.5806 32.5161H19.1613V33.6774H20.3226V32.5161H21.4839V33.6774H22.6452V32.5161H23.2258H23.8065V33.6774H24.9677V32.5161H25.5484C25.8683 32.5161 26.129 32.7768 26.129 33.0968V33.9979C24.9794 34.5321 23.7037 34.8387 22.3548 34.8387H19.163ZM29.5548 20.4387C30.7155 21.9861 31.3548 23.904 31.3548 25.8387C31.3548 28.9794 29.7354 31.7456 27.2903 33.3563V33.0968C27.2903 32.1364 26.5088 31.3548 25.5484 31.3548H24.8609C24.9259 31.1725 24.9677 30.9786 24.9677 30.7742V29.6129C24.9677 29.4085 24.9259 29.2146 24.8609 29.0323H25.5484C26.5088 29.0323 27.2903 28.2507 27.2903 27.2903V26.129C27.2903 25.8997 27.2433 25.6819 27.1626 25.481C27.9029 25.2801 28.4516 24.6095 28.4516 23.8065V22.6452C28.4516 21.6848 27.6701 20.9032 26.7097 20.9032H19.7419C18.7815 20.9032 18 21.6848 18 22.6452V23.8065C18 24.0358 18.047 24.2535 18.1277 24.4545C17.8601 24.527 17.6191 24.66 17.4194 24.8406C17.219 24.66 16.9781 24.527 16.711 24.4545C16.7917 24.2535 16.8387 24.0358 16.8387 23.8065V22.6452C16.8387 21.6848 16.0572 20.9032 15.0968 20.9032H8.12903C7.16864 20.9032 6.3871 21.6848 6.3871 22.6452V23.8065C6.3871 24.6095 6.93581 25.2807 7.67613 25.481C7.59542 25.6819 7.54839 25.8997 7.54839 26.129V27.2903C7.54839 27.4947 7.59019 27.6886 7.65523 27.871H6.96774C6.00735 27.871 5.22581 28.6525 5.22581 29.6129V30.7742C5.22581 31.7346 6.00735 32.5161 6.96774 32.5161H7.65523C7.59019 32.6985 7.54839 32.8924 7.54839 33.0968V34.2581C7.54839 34.3237 7.55535 34.3881 7.5629 34.4526C3.86361 33.3343 1.16129 29.898 1.16129 25.8387C1.16129 23.904 1.80058 21.9861 2.96129 20.4387L4.35484 18.5806H28.1613L29.5548 20.4387ZM28.4516 15.0968C29.412 15.0968 30.1935 15.8783 30.1935 16.8387C30.1935 17.1586 29.9328 17.4194 29.6129 17.4194H28.7419H3.77419H2.90323C2.58329 17.4194 2.32258 17.1586 2.32258 16.8387C2.32258 15.8783 3.10413 15.0968 4.06452 15.0968H28.4516ZM29.0323 12.3434C27.6776 12.7324 22.9494 13.9355 16.2581 13.9355C9.57948 13.9355 4.84084 12.7318 3.48387 12.3428V9.29032H29.0323V12.3434ZM31.3548 6.3871V7.54839C31.3548 7.86832 31.0941 8.12903 30.7742 8.12903H1.74194C1.422 8.12903 1.16129 7.86832 1.16129 7.54839V6.3871C1.16129 6.06716 1.422 5.80645 1.74194 5.80645H30.7742C31.0941 5.80645 31.3548 6.06716 31.3548 6.3871ZM18.4738 4.64516H14.0429C14.2827 3.97103 14.9214 3.48387 15.6774 3.48387H16.8387C17.5947 3.48387 18.2334 3.97103 18.4738 4.64516ZM34.8387 19.1613C34.8387 19.4812 34.578 19.7419 34.2581 19.7419C33.9381 19.7419 33.6774 19.4812 33.6774 19.1613V15.6774C33.6774 15.3575 33.9381 15.0968 34.2581 15.0968C34.578 15.0968 34.8387 15.3575 34.8387 15.6774V19.1613Z" fill="#003781"/>
</svg>
