<svg width="40" height="41" viewBox="0 0 40 41" fill="none" xmlns="http://www.w3.org/2000/svg">
<path d="M25.0903 19.4994C25.7286 19.1301 26.1225 18.452 26.1263 17.7153V12.5391L28.5411 11.8118H28.5392C28.8801 11.7133 29.1131 11.3989 29.1055 11.0448C29.1036 10.6925 28.8725 10.3819 28.5354 10.2815L17.7534 7.15089H17.7515C17.6095 7.10733 17.4561 7.10733 17.3121 7.15089L10.6853 9.02021L6.49781 10.2835L6.4997 10.2816C6.16069 10.3801 5.92773 10.6907 5.92962 11.0448V19.4879C4.95804 19.666 4.2554 20.5201 4.27242 21.5088C4.27242 22.1508 4.57924 22.755 5.09627 23.1357C4.38607 23.5599 3.95233 24.3269 3.95422 25.1546V28.0845C3.95611 28.2929 4.12467 28.4614 4.333 28.4633H8.28183C8.49205 28.4633 8.66061 28.2929 8.66061 28.0845V25.13C8.66251 24.3042 8.23069 23.5372 7.52423 23.1091C8.17766 22.6338 8.48636 21.8156 8.30643 21.0277C8.1284 20.2398 7.49582 19.6338 6.70227 19.4879V11.8725L8.95414 12.5486V17.7151C8.95603 18.4518 9.34997 19.1318 9.99011 19.4992C14.6776 22.1583 20.4182 22.1583 25.1056 19.4992L25.0903 19.4994ZM7.9181 25.1299V27.7056H4.71167V25.1299C4.71167 24.2492 5.4257 23.5333 6.30827 23.5333C7.18894 23.5333 7.90297 24.2492 7.90297 25.1299H7.9181ZM7.6056 21.4935C7.6056 22.0125 7.2931 22.4803 6.81395 22.6791C6.33478 22.878 5.78176 22.7681 5.41623 22.4007C5.04881 22.0333 4.93896 21.4822 5.13783 21.003C5.33669 20.5238 5.80449 20.2114 6.32342 20.2114C7.02606 20.2189 7.59046 20.7909 7.59046 21.4935L7.6056 21.4935ZM7.86318 11.418H17.53C17.7384 11.418 17.9088 11.2475 17.9088 11.0392C17.9088 10.8308 17.7384 10.6604 17.53 10.6604H7.84814L10.8784 9.74186L17.4995 7.87821L28.2815 11.0089L28.3875 10.6452L28.2815 11.0846L24.1205 12.3365L17.4786 14.2058L10.8629 12.3422L7.86318 11.418ZM9.71165 17.7151V12.7663L10.7211 13.0694L17.3082 14.9387C17.3783 14.9462 17.4484 14.9462 17.5203 14.9387C17.5923 14.9387 17.6662 14.9273 17.7362 14.9084L24.3781 13.0637L25.3876 12.7663V17.7151C25.3857 18.1792 25.1376 18.6053 24.736 18.8364C20.2815 21.3686 14.8234 21.3686 10.3686 18.8364C9.95764 18.6129 9.70007 18.1829 9.69628 17.7151L9.71165 17.7151ZM16.2173 40.9974L38.2778 40.9993C39.0448 40.9993 39.666 40.3762 39.666 39.6092V25.3174C39.6641 24.5503 39.0429 23.931 38.2778 23.9272H16.2023C15.4352 23.9272 14.8121 24.5503 14.8121 25.3174V39.6106V39.6087C14.8121 40.3757 15.4352 40.9989 16.2023 40.9989L16.2173 40.9974ZM15.5696 25.3175C15.5696 24.969 15.8537 24.6849 16.2022 24.6849H38.2777C38.4443 24.6849 38.6053 24.7512 38.7227 24.8705C38.8421 24.988 38.9083 25.1489 38.9083 25.3175V39.6107V39.6089C38.9083 39.7774 38.8421 39.9384 38.7227 40.0558C38.6053 40.1751 38.4443 40.2414 38.2777 40.2414H16.2022C15.8537 40.2414 15.5696 39.9573 15.5696 39.6088V25.3175ZM17.1965 38.2415V26.6906C17.1946 26.5902 17.2344 26.4917 17.3063 26.4217C17.3764 26.3497 17.4749 26.3099 17.5753 26.3118H21.348C21.5563 26.3118 21.7267 26.4823 21.7267 26.6906C21.7267 26.8989 21.5563 27.0694 21.348 27.0694H17.954V37.863H21.348C21.562 37.863 21.7362 38.0372 21.7362 38.2513C21.7362 38.4653 21.562 38.6395 21.348 38.6395H17.5753C17.4711 38.6395 17.3707 38.5978 17.3007 38.5221C17.2287 38.4463 17.1908 38.3457 17.1965 38.2415ZM25.7172 26.6906C25.7172 26.4823 25.8857 26.3118 26.096 26.3118H36.9027C37.0049 26.3099 37.1015 26.3497 37.1735 26.4217C37.2436 26.4917 37.2833 26.5902 37.2815 26.6906V38.2415C37.2815 38.4499 37.1129 38.6203 36.9027 38.6203H33.2474C33.0371 38.6203 32.8686 38.4499 32.8686 38.2415C32.8686 38.0313 33.0371 37.8628 33.2474 37.8628H36.5258L36.5239 27.0691H26.0958C25.8875 27.0672 25.7191 26.8989 25.7172 26.6906ZM24.8838 30.8212C24.9539 29.7644 25.7872 28.9197 26.8422 28.8326V28.0845C26.8422 27.8761 27.0126 27.7057 27.2209 27.7057C27.4312 27.7057 27.5997 27.8761 27.5997 28.0845V28.8269C28.3989 28.9159 29.094 29.4197 29.4292 30.1507C29.469 30.2454 29.469 30.3515 29.4292 30.4462C29.3895 30.5428 29.3118 30.6166 29.2171 30.6545C29.1224 30.6962 29.0145 30.6981 28.9198 30.6583C28.8251 30.6204 28.7493 30.5447 28.7114 30.4481C28.4274 29.8799 27.8308 29.5333 27.1963 29.5693C26.327 29.5693 25.6149 30.1356 25.6149 30.8326C25.6149 31.5295 26.3687 32.075 27.2361 32.075C28.5297 32.075 29.5789 32.9841 29.5789 34.0958L29.5808 34.0939C29.5258 35.1659 28.6849 36.0295 27.6149 36.1148V36.8667C27.6149 37.0769 27.4463 37.2455 27.2361 37.2455C27.0278 37.2455 26.8573 37.0769 26.8573 36.8667V36.1148C26.0713 36.0258 25.3876 35.539 25.0448 34.8269C24.9634 34.6337 25.0524 34.4122 25.2437 34.3288C25.4368 34.2474 25.6603 34.3364 25.7417 34.5296C26.0315 35.0902 26.6262 35.4273 27.2569 35.3875C28.13 35.3875 28.8421 34.8212 28.8421 34.1243C28.8421 33.4273 28.1299 32.8572 27.2569 32.8572C25.9482 32.8421 24.8838 31.9387 24.8838 30.8212ZM33.6775 22.8421H33.6756C33.8858 22.8421 34.0543 22.6717 34.0543 22.4633V3.68529C34.0487 2.16259 32.8157 0.931516 31.293 0.927734H6.30844C6.20428 0.927734 6.10579 0.969401 6.03572 1.04516L0.10606 7.23663C0.037881 7.30671 0 7.4014 0 7.49989V30.085C0.00189381 31.6095 1.23863 32.8425 2.76323 32.8425H12.3239C12.5322 32.8425 12.7027 32.6721 12.7027 32.4637C12.7027 32.2554 12.5322 32.0849 12.3239 32.0849H2.76323C1.6477 32.0849 0.742395 31.1796 0.742395 30.0641V8.06425H5.31812C6.18367 8.06425 6.88631 7.36539 6.8882 6.49985V1.68548H31.3084C31.8444 1.68548 32.3577 1.8995 32.7364 2.2783C33.1152 2.65711 33.3273 3.17032 33.3273 3.70631V22.479C33.333 22.6779 33.4921 22.837 33.691 22.8427L33.6775 22.8421ZM6.14551 6.49946C6.1493 6.71726 6.06597 6.92748 5.91256 7.08277C5.76105 7.23997 5.55082 7.32709 5.33302 7.32709H1.08496L6.13607 2.0447L6.14551 6.49946Z" fill="#0E2B81"/>
</svg>
