<svg width="47" height="46" viewBox="0 0 47 46" fill="none" xmlns="http://www.w3.org/2000/svg">
<path d="M3.95918 46H32.9692C33.617 46 34.1929 45.856 34.6968 45.5681C35.5606 45.856 36.4244 46 37.4322 46C42.3272 46 46.2864 42.0408 46.2864 37.1458C46.2864 32.2509 42.3272 28.2917 37.4322 28.2917C37.2883 28.2917 37.1443 28.2917 36.9283 28.2917V20.3733H42.2552C44.4148 20.3733 46.2144 18.5737 46.2144 16.4141V5.32844C46.2144 2.37706 43.8389 0.00154846 40.8875 0.00154846H5.32689C2.37551 -0.0704366 0 2.37706 0 5.32844V42.0408C0 44.2004 1.79963 46 3.95918 46ZM44.7747 37.1458C44.7747 41.249 41.4634 44.5603 37.3602 44.5603C33.2571 44.5603 29.9458 41.249 29.9458 37.1458C29.9458 33.0427 33.2571 29.7314 37.3602 29.7314C41.4634 29.8034 44.7747 33.1147 44.7747 37.1458ZM1.4397 5.32844C1.4397 3.16889 3.23933 1.36926 5.39888 1.36926H37.2883C37.2163 1.44125 37.1443 1.44125 37.1443 1.51323C36.0645 2.59301 35.5606 3.96073 35.5606 5.32844V28.5796C31.6014 29.4434 28.6501 32.9707 28.6501 37.2178C28.6501 40.3132 30.2337 43.0486 32.6812 44.6323H3.95918C2.59146 44.6323 1.4397 43.4805 1.4397 42.1128V5.32844Z" fill="#003781"/>
<path d="M5.97678 11.4474L8.20832 12.2392V18.07C8.20832 19.0778 9.00015 19.8697 10.0079 19.8697H25.2688C26.2766 19.8697 27.0684 19.0778 27.0684 18.07V12.3112L29.156 11.5914V14.3268C28.7241 14.6147 28.3641 15.0467 28.3641 15.6225C28.3641 16.4144 29.012 17.1342 29.8758 17.1342C30.6677 17.1342 31.3875 16.4864 31.3875 15.6225C31.3875 15.0467 31.0996 14.5428 30.5957 14.3268V9.93571C30.5957 9.21586 30.1638 8.63998 29.5159 8.42403L18.5742 4.82477C18.0703 4.6808 17.4944 4.6808 16.9905 4.82477L6.04877 8.42403C5.4009 8.63998 4.96899 9.21586 4.96899 9.93571C4.82502 10.6556 5.25693 11.2314 5.97678 11.4474ZM6.40869 9.79174L17.3504 6.19249C17.4944 6.19249 17.5664 6.12051 17.7103 6.12051C17.8543 6.12051 17.9263 6.12051 18.0703 6.19249L27.4283 9.21586L20.0859 9.28785C19.6539 8.78395 18.8621 8.49601 17.7823 8.49601C16.1987 8.49601 15.1909 9.14388 15.1909 10.0077C15.1909 10.8715 16.2706 11.5194 17.7823 11.5194C18.8621 11.5194 19.7259 11.2314 20.0859 10.7275L27.3563 10.6556L18.0703 13.8949C17.8543 13.9669 17.5664 13.9669 17.3504 13.8949L6.40869 10.0797C6.33671 10.0797 6.26472 10.0077 6.26472 9.93571C6.26472 9.86373 6.33671 9.79174 6.40869 9.79174Z" fill="#003781"/>
<path d="M5.04016 24.0452H31.9626C32.3225 24.0452 32.6824 23.7572 32.6824 23.3253C32.6824 22.8934 32.3945 22.6055 31.9626 22.6055H5.04016C4.68024 22.6055 4.32031 22.8934 4.32031 23.3253C4.32031 23.7572 4.60825 24.0452 5.04016 24.0452Z" fill="#003781"/>
<path d="M5.04016 28.2913H31.9626C32.3225 28.2913 32.6824 28.0033 32.6824 27.5714C32.6824 27.1395 32.3945 26.8516 31.9626 26.8516H5.04016C4.68024 26.8516 4.32031 27.1395 4.32031 27.5714C4.32031 28.0033 4.60825 28.2913 5.04016 28.2913Z" fill="#003781"/>
<path d="M5.04016 32.6116H25.7719C26.1318 32.6116 26.4917 32.3236 26.4917 31.8917C26.4917 31.4598 26.2038 31.1719 25.7719 31.1719H5.04016C4.68024 31.1719 4.32031 31.4598 4.32031 31.8917C4.32031 32.3236 4.60825 32.6116 5.04016 32.6116Z" fill="#003781"/>
<path d="M5.04016 36.9299H25.7719C26.1318 36.9299 26.4917 36.642 26.4917 36.2101C26.4917 35.7782 26.2038 35.4902 25.7719 35.4902H5.04016C4.68024 35.4902 4.32031 35.7782 4.32031 36.2101C4.32031 36.642 4.60825 36.9299 5.04016 36.9299Z" fill="#003781"/>
<path d="M5.04016 41.178H18.6453C19.0053 41.178 19.3652 40.89 19.3652 40.4581C19.3652 40.0262 19.0772 39.7383 18.6453 39.7383H5.04016C4.68024 39.7383 4.32031 40.0262 4.32031 40.4581C4.32031 40.89 4.60825 41.178 5.04016 41.178Z" fill="#003781"/>
<path d="M37.0742 34.9141C36.7863 34.986 36.5703 35.058 36.3543 35.202C36.1384 35.346 36.0664 35.5619 36.0664 35.7779C36.0664 35.9938 36.1384 36.2098 36.3543 36.2818C36.4983 36.4257 36.7863 36.4977 37.0742 36.5697V34.9141Z" fill="#003781"/>
<path d="M37.3604 43.4082C40.8156 43.4082 43.6231 40.6008 43.6231 37.1455C43.6231 33.6902 40.8156 30.8828 37.3604 30.8828C33.9051 30.8828 31.0977 33.6902 31.0977 37.1455C31.0977 40.6008 33.9051 43.4082 37.3604 43.4082ZM41.3915 36.4976C41.7514 36.4976 42.0394 36.7856 42.0394 37.1455C42.0394 37.5054 41.7514 37.7934 41.3915 37.7934C41.0316 37.7934 40.7437 37.5054 40.7437 37.1455C40.7437 36.7856 40.9596 36.4976 41.3915 36.4976ZM36.1366 37.2895C35.8487 37.1455 35.6327 37.0015 35.4168 36.7856C35.2008 36.5696 35.1288 36.2817 35.1288 35.9218C35.1288 35.6338 35.2008 35.3459 35.3448 35.0579C35.4887 34.77 35.7047 34.5541 35.9926 34.4101C36.2806 34.2661 36.6405 34.1221 37.0004 34.1221V33.6182C37.0004 33.5463 37.0004 33.4743 37.0724 33.4023C37.2164 33.2583 37.4323 33.2583 37.5763 33.4023C37.6483 33.4743 37.6483 33.5463 37.6483 33.6182V34.1221C38.1522 34.1221 38.6561 34.2661 39.088 34.4101C39.304 34.4821 39.3759 34.626 39.3759 34.842C39.3759 34.914 39.304 35.0579 39.232 35.1299C39.16 35.2019 39.088 35.2739 38.944 35.2739C38.872 35.2739 38.872 35.2739 38.8001 35.2019C38.4401 35.0579 38.0802 34.986 37.6483 34.986V36.8576C38.0082 36.9296 38.3681 37.0735 38.6561 37.1455C38.944 37.2895 39.16 37.4335 39.3759 37.6494C39.5919 37.8654 39.6639 38.2253 39.6639 38.5852C39.6639 38.8732 39.5919 39.1611 39.3759 39.449C39.232 39.737 38.944 39.8809 38.6561 40.0249C38.3681 40.1689 38.0082 40.2409 37.6483 40.3129V40.8168C37.6483 40.8887 37.6483 40.9607 37.5763 41.0327C37.5043 41.1047 37.4323 41.1047 37.3604 41.1047C37.2884 41.1047 37.2164 41.1047 37.1444 41.0327C37.0724 40.9607 37.0724 40.8887 37.0724 40.8168V40.3129C36.4965 40.2409 35.9207 40.0969 35.4168 39.8809C35.3448 39.8809 35.2728 39.809 35.2008 39.737C35.1288 39.665 35.1288 39.593 35.1288 39.521C35.1288 39.377 35.2008 39.3051 35.2728 39.2331C35.3448 39.1611 35.4887 39.0891 35.5607 39.0891C35.6327 39.0891 35.7047 39.0891 35.7767 39.1611C36.2086 39.377 36.6405 39.449 37.1444 39.521V37.7214C36.7125 37.5054 36.4246 37.3615 36.1366 37.2895ZM33.4012 36.4976C33.7611 36.4976 34.049 36.7856 34.049 37.1455C34.049 37.5054 33.7611 37.7934 33.4012 37.7934C33.0413 37.7934 32.7533 37.5054 32.7533 37.1455C32.7533 36.7856 33.0413 36.4976 33.4012 36.4976Z" fill="#003781"/>
<path d="M38.7985 38.5128C38.7985 38.2969 38.7265 38.1529 38.5106 38.0809C38.3666 37.9369 38.0787 37.865 37.7188 37.793V39.4486C38.4386 39.3766 38.7985 39.0887 38.7985 38.5128Z" fill="#003781"/>
</svg>
