<svg width="36" height="50" viewBox="0 0 36 50" fill="none" xmlns="http://www.w3.org/2000/svg">
<path fill-rule="evenodd" clip-rule="evenodd" d="M29.9892 10.7158L35.1646 8.74964C35.6723 8.5566 36 8.08129 36 7.53785C36 6.99441 35.6718 6.51911 35.1646 6.32606L19.0204 0.193043C18.3434 -0.0643475 17.6566 -0.0643475 16.9796 0.193043L0.835436 6.32606C0.327686 6.51911 0 6.99495 0 7.53785C0 8.08075 0.328226 8.5566 0.835436 8.74964L2.55606 9.40339V12.4466C1.85256 12.664 1.3394 13.3199 1.3394 14.0937V18.3207C1.3394 19.0355 1.92069 19.6168 2.63554 19.6168H3.49153C4.20584 19.6168 4.78713 19.0355 4.78713 18.3207V14.0937C4.78713 13.3199 4.27451 12.664 3.57048 12.4466V9.78893L6.01081 10.7158V18.0038C6.01081 18.3499 6.0876 18.6727 6.23468 18.9593C2.49441 22.308 0.358508 27.073 0.358508 32.104C0.358508 41.8318 8.27217 49.7455 17.9995 49.7455C27.7267 49.7455 35.6399 41.8318 35.6399 32.104C35.6399 27.0725 33.504 22.308 29.7642 18.9593C29.9113 18.6727 29.9886 18.3504 29.9886 18.0038L29.9892 10.7158ZM3.77271 14.0937V18.3207C3.77271 18.4753 3.64672 18.6013 3.49207 18.6013H2.63608C2.48089 18.6013 2.3549 18.4753 2.3549 18.3207V14.0937C2.3549 13.7033 2.67286 13.3854 3.06381 13.3854C3.45476 13.3854 3.77271 13.7033 3.77271 14.0937ZM34.6255 32.1045C34.6255 41.2722 27.1671 48.7305 18 48.7305C8.83291 48.7305 1.37401 41.2722 1.37401 32.1045C1.37401 27.3639 3.38663 22.8747 6.91006 19.7185C6.9133 19.7206 6.91655 19.7239 6.92033 19.726C8.03911 20.4901 9.44178 21.0914 11.0067 21.5315C7.47296 23.8664 5.32516 27.8116 5.32516 32.1045C5.32516 39.0941 11.011 44.7805 18.0005 44.7805C24.9901 44.7805 30.6759 39.0941 30.6759 32.1045C30.6759 27.8116 28.5281 23.867 24.9939 21.5315C26.5588 21.0908 27.962 20.4895 29.0813 19.726C29.084 19.7239 29.0872 19.7206 29.091 19.7185C32.6139 22.8747 34.6255 27.3645 34.6255 32.1045ZM12.4056 21.8733C14.1721 22.2442 16.0853 22.4302 18 22.4302C19.9147 22.4302 21.8279 22.2442 23.5944 21.8733C27.3407 23.9248 29.6604 27.8268 29.6604 32.1045C29.6604 38.5339 24.4299 43.765 18.0005 43.765C11.5712 43.765 6.34066 38.5339 6.34066 32.1045C6.34066 27.8273 8.66042 23.9248 12.4066 21.8733H12.4056ZM18.4564 13.9342C18.0124 14.1029 17.5809 14.1029 17.137 13.9342L5.04885 9.3412L17.8486 8.0429C18.1276 8.01478 18.3304 7.7655 18.3023 7.48648C18.2742 7.20746 18.0249 7.00415 17.7459 7.03226L2.92916 8.53551L0.993331 7.80011C0.830029 7.73792 0.812185 7.59571 0.812185 7.53731C0.812185 7.47891 0.830029 7.3367 0.993331 7.27451L17.137 1.14149C17.3592 1.05768 17.5782 1.01496 17.7967 1.01496C18.0151 1.01496 18.2347 1.05768 18.4564 1.14203L34.6006 7.27505C34.7639 7.33724 34.7817 7.47945 34.7817 7.53785C34.7817 7.59625 34.7639 7.73846 34.6006 7.80065L18.4564 13.9342ZM17.9995 33.6267C18.7943 33.6267 19.4405 34.2734 19.4405 35.0689C19.4405 35.8643 18.7943 36.5094 17.9995 36.5094C17.5036 36.5094 17.0634 36.272 16.7925 35.8578C16.5698 35.5171 16.228 35.2846 15.83 35.2019C15.4326 35.1186 15.026 35.1948 14.6858 35.4171C13.984 35.8767 13.7866 36.8225 14.2462 37.5243C14.7826 38.3425 15.5651 38.9589 16.4767 39.2882V39.5505C16.4767 40.3897 17.1602 41.0732 18 41.0732C18.8398 41.0732 19.5233 40.3897 19.5233 39.5505V39.2904C21.2866 38.6561 22.4865 36.9728 22.4865 35.0694C22.4865 32.5955 20.4739 30.5818 18 30.5818C17.2057 30.5818 16.5589 29.9357 16.5589 29.1408C16.5589 28.3459 17.2057 27.6997 18 27.6997C18.4959 27.6997 18.936 27.9376 19.2075 28.3513C19.4297 28.692 19.7714 28.9245 20.1689 29.0077C20.5669 29.091 20.9735 29.0142 21.3136 28.7915C22.0155 28.3324 22.2129 27.3872 21.7538 26.6848C21.2174 25.8661 20.4344 25.2502 19.5227 24.9209V24.6586C19.5227 23.8194 18.8392 23.1359 17.9995 23.1359C17.1597 23.1359 16.4762 23.8194 16.4762 24.6586V24.9187C14.7129 25.5535 13.5124 27.2368 13.5124 29.1402C13.5124 31.6146 15.5256 33.6267 17.9995 33.6267Z" fill="#003781"/>
</svg>
