<svg width="42" height="33" viewBox="0 0 42 33" fill="none" xmlns="http://www.w3.org/2000/svg">
<path d="M42 16.5C42 13.0129 39.3772 10.1327 36.0008 9.72362C33.4179 3.99414 27.6689 0 21 0C14.3311 0 8.58219 4.00051 5.99919 9.72362C2.62704 10.1281 0 13.0063 0 16.5C0 19.9937 2.62279 22.8673 5.99919 23.2764C8.58208 29.0059 14.3311 33 21 33C27.6689 33 33.4178 28.9995 36.0008 23.2764C39.373 22.8719 42 19.9937 42 16.5ZM35.1381 15.311C28.2586 14.7354 22.7646 9.22817 22.1925 2.33344C29.0719 2.90906 34.566 8.41625 35.1381 15.311ZM19.8138 2.32718C19.2396 9.22361 13.7459 14.7312 6.86814 15.3047C7.44234 8.40829 12.936 2.9007 19.8138 2.32718ZM2.27027 16.5001C2.27027 14.6065 3.43424 12.973 5.08592 12.2907C4.73341 13.6331 4.54052 15.0444 4.54052 16.5001C4.54052 17.9559 4.7334 19.3627 5.08592 20.7095C3.43418 20.0272 2.27027 18.4003 2.27027 16.5001ZM21 30.7242C13.5416 30.7242 7.41186 24.9259 6.85508 17.5937C13.3021 17.1336 18.7343 12.933 21 7.14803C23.2636 12.9355 28.6956 17.1339 35.1449 17.5937C34.5884 24.9282 28.4584 30.7242 21 30.7242ZM36.914 20.7093C37.2665 19.3669 37.4594 17.9556 37.4594 16.4999C37.4594 15.0441 37.2665 13.6373 36.914 12.2905C38.5658 12.9728 39.7297 14.5997 39.7297 16.4999C39.7297 18.4001 38.5657 20.027 36.914 20.7093Z" fill="#003781"/>
</svg>
