<svg width="44" height="45" viewBox="0 0 44 45" fill="none" xmlns="http://www.w3.org/2000/svg">
<path fill-rule="evenodd" clip-rule="evenodd" d="M43.7434 8.99669L38.7338 0.838113C38.2289 0.0190071 37.1462 -0.244026 36.3124 0.247426L34.8023 1.14728C33.9685 1.64106 33.6985 2.70474 34.201 3.52385L34.2339 3.57692L34.4289 3.89303L30.7509 5.95122C29.7598 5.72741 26.8311 5.08829 24.6001 4.78137C23.7006 4.64523 22.7964 4.57371 21.8875 4.56447C19.863 4.56447 17.8737 5.06748 16.1028 6.02967C13.4982 7.36563 8.9558 10.7321 7.01618 12.1716C6.64979 12.4439 6.37735 12.6447 6.23407 12.7485C5.74086 13.03 5.45197 13.563 5.48955 14.1214C5.58114 14.6428 5.93813 15.0812 6.43369 15.2843L6.46892 15.3005L6.50415 15.312H6.5065C6.9316 15.4551 7.37782 15.5266 7.82876 15.5266C8.33841 15.5243 8.84336 15.4366 9.32484 15.2728C9.86503 15.6973 10.5414 15.9189 11.2343 15.9004C11.5819 15.8981 11.9271 15.8542 12.2653 15.7735C12.5659 15.7135 13.6604 15.4112 16.359 13.8514C17.2914 14.5067 18.3999 14.8782 19.5484 14.9221H22.2211C23.3203 14.9313 24.4147 15.0651 25.4857 15.3143C26.7375 15.7389 28.0527 15.9488 29.3751 15.9373C30.8618 15.905 32.3132 15.4989 33.5908 14.7559L38.988 11.311L39.1313 11.5464L39.2135 11.6802L39.2158 11.6825C39.7184 12.5016 40.8011 12.7647 41.6372 12.2732L43.1474 11.378C43.5466 11.1403 43.8355 10.755 43.9482 10.3096C44.061 9.86202 43.9877 9.39127 43.7434 8.99669ZM12.0793 14.9219C11.9455 14.9542 11.8092 14.9773 11.673 14.9957C11.6331 15.0003 11.5979 15.0049 11.5603 15.0072C11.4687 15.0165 11.3794 15.0211 11.2972 15.0234C11.2761 15.0234 11.255 15.028 11.2338 15.028H11.201H11.1986C11.0741 15.028 10.9473 15.0165 10.8228 14.998C10.7993 14.9934 10.7782 14.9888 10.7571 14.9865V14.9842C10.649 14.9657 10.541 14.938 10.4353 14.9034H10.4282C10.3719 14.8827 10.3273 14.8573 10.2756 14.8342C10.3249 14.8042 10.3601 14.7811 10.3766 14.7696L14.3293 12.1807H14.3316C14.6464 11.9754 14.9869 11.8115 15.3439 11.6892C15.2828 12.2246 15.4191 12.7645 15.7314 13.2052C12.9624 14.7858 12.0793 14.9219 12.0793 14.9219ZM33.1182 14.0266C32.9115 14.1489 32.6978 14.2597 32.477 14.3566C32.3431 14.4166 32.1881 14.4835 32.019 14.5481C31.8499 14.6127 31.6644 14.6796 31.4648 14.7396C30.7907 14.9542 30.0861 15.0649 29.3745 15.0719C28.7568 15.0788 28.1367 15.0303 27.5261 14.9311C26.9249 14.8227 26.3283 14.675 25.7459 14.4881C25.5768 14.4373 25.3959 14.3912 25.208 14.352H25.2104C24.7289 14.2551 24.2427 14.1835 23.7542 14.142C23.5663 14.1235 23.3878 14.1097 23.2211 14.1005C22.6386 14.0612 22.2206 14.0566 22.2206 14.0566H19.5525C19.522 14.0566 19.4586 14.052 19.3717 14.0428C19.2449 14.0312 19.064 14.0105 18.8526 13.9713H18.8503C18.6107 13.9274 18.3735 13.8697 18.141 13.7982C17.8028 13.6944 17.481 13.549 17.1804 13.3644C17.1639 13.3552 17.1475 13.346 17.1334 13.3367H17.1311C16.969 13.2306 16.8187 13.1106 16.6825 12.9768C16.6144 12.9075 16.551 12.836 16.4922 12.7622V12.7599C16.4922 12.7599 15.6091 11.4608 16.9338 11.4608L23.1014 11.4585C23.3456 11.4585 23.5429 11.2647 23.5429 11.0271C23.5429 10.7871 23.3456 10.5933 23.1014 10.5933H16.4877C15.5435 10.6417 14.6299 10.9417 13.8431 11.4585L9.87393 14.0566L9.84575 14.075L9.82696 14.0866C9.80112 14.1027 9.7659 14.1212 9.72362 14.1466L9.70718 14.1558C9.6649 14.1789 9.61793 14.2043 9.56156 14.2319L9.54512 14.2412L9.52163 14.2527C9.45822 14.2827 9.38542 14.315 9.30791 14.3496L9.26094 14.3681C9.18813 14.3981 9.11062 14.4258 9.02608 14.4534L8.97676 14.4696C8.88986 14.4973 8.79591 14.5227 8.70197 14.5457L8.67378 14.5527L8.60098 14.5688C8.49764 14.5919 8.3896 14.6104 8.27687 14.6288L8.24634 14.6334C8.12186 14.6473 7.99973 14.6542 7.87526 14.6565H7.82828H7.74843C7.7132 14.6565 7.67797 14.6565 7.64039 14.6519C7.58403 14.6496 7.52766 14.6427 7.47129 14.638C7.43606 14.6334 7.40083 14.6311 7.36325 14.6265C7.30219 14.6173 7.23643 14.6057 7.17301 14.5919C7.14248 14.585 7.11195 14.5804 7.07907 14.5734C6.98277 14.5504 6.88648 14.525 6.79019 14.4927V14.4904C6.72208 14.4604 6.65866 14.4211 6.59995 14.3773C6.51305 14.315 6.44259 14.2342 6.39562 14.1373C6.38388 14.112 6.37448 14.0843 6.36743 14.0566C6.36274 14.0289 6.36039 13.9989 6.36039 13.9712C6.36274 13.9389 6.36978 13.9066 6.37918 13.8743C6.39092 13.842 6.40501 13.8074 6.42145 13.7774C6.47078 13.6943 6.53184 13.6228 6.6023 13.5605C6.64927 13.519 6.69859 13.4797 6.75026 13.4428C6.83481 13.3828 6.96163 13.2882 7.12604 13.1682L7.50182 12.889C8.13361 12.4206 9.06133 11.7331 10.1111 10.9739C10.3436 10.8055 10.5832 10.6347 10.8274 10.4617C11.0717 10.2886 11.3183 10.1133 11.5696 9.93791C11.8186 9.76254 12.0722 9.58719 12.3259 9.41183C12.7063 9.15109 13.0845 8.89267 13.4602 8.64346C13.8337 8.39426 14.2048 8.1543 14.5617 7.9282C14.8013 7.77822 15.0315 7.63286 15.2593 7.49672C15.4848 7.36058 15.7032 7.23368 15.9145 7.11369C16.1236 6.99602 16.3255 6.88757 16.5158 6.78836C16.7436 6.67068 16.9644 6.56685 17.1828 6.46763C17.2486 6.43763 17.3143 6.40764 17.3777 6.38226C17.5374 6.31304 17.6948 6.24843 17.8498 6.18844C17.9132 6.16306 17.9766 6.13768 18.0401 6.11461C18.242 6.03846 18.4417 5.97155 18.6366 5.90925L18.6601 5.90233C18.8644 5.84003 19.0664 5.78465 19.2637 5.73619C19.3247 5.72235 19.3811 5.70851 19.4375 5.69466C19.5831 5.66005 19.7287 5.63005 19.872 5.60468C19.933 5.59314 19.9918 5.5816 20.0481 5.57237C20.229 5.54238 20.4098 5.51238 20.5883 5.49392L20.6259 5.48931C20.8185 5.46854 21.0087 5.45239 21.199 5.44316C21.2553 5.44085 21.3093 5.43855 21.3657 5.43624C21.5066 5.42932 21.6475 5.42701 21.7861 5.4247H21.8847H21.9552C22.1361 5.4247 22.3169 5.42932 22.4954 5.43855H22.5259C22.7185 5.44778 22.9111 5.46162 23.106 5.47777L23.2751 5.49392C23.4207 5.50777 23.5664 5.52161 23.7143 5.53776L23.8834 5.55622C24.0784 5.5793 24.2733 5.60468 24.4729 5.63237C25.1376 5.72466 25.8704 5.84695 26.5961 5.98078C27.3218 6.1146 28.0381 6.25535 28.6746 6.38688C29.9452 6.64991 30.8823 6.86681 30.8823 6.86681L34.8773 4.63094L38.5341 10.5703L33.1182 14.0266ZM42.6889 10.6325L41.1787 11.5277C40.763 11.7746 40.2204 11.6431 39.9692 11.2324L39.9175 11.147L39.7296 10.8401L39.4619 10.404L38.6633 9.105L35.1944 3.46116L35.1005 3.30887L34.9572 3.07352C34.8375 2.87739 34.8022 2.64204 34.8586 2.41821C34.915 2.19438 35.0582 2.00288 35.2579 1.88521L36.768 0.989961C37.1861 0.743072 37.7263 0.874594 37.9775 1.28531L42.9895 9.44388C43.2408 9.85459 43.1069 10.3856 42.6889 10.6325ZM37.5665 29.7188L37.5313 29.7049L37.4961 29.6934H37.4937C37.0686 29.5503 36.6224 29.4788 36.1714 29.4788C35.6618 29.4834 35.1568 29.5688 34.6754 29.7349C34.1352 29.3104 33.4588 29.0865 32.7659 29.1073C32.4817 29.1119 32.1976 29.1419 31.918 29.1996V28.3459C31.918 28.309 31.9133 28.2697 31.9063 28.2328C32.1858 28.0805 32.3596 27.7944 32.3596 27.4806V25.7478C32.3596 25.434 32.1858 25.1479 31.9063 24.9956C31.9133 24.9587 31.918 24.9195 31.918 24.8826V23.1497C31.918 22.9974 31.8781 22.8475 31.7983 22.7159C31.8781 22.5844 31.918 22.4344 31.918 22.2822V20.5493C31.918 20.0717 31.5235 19.6841 31.0373 19.6841H23.1015C22.9465 19.6841 22.7938 19.7256 22.6599 19.8017L22.6482 19.7948C22.6552 19.7579 22.6599 19.7187 22.6599 19.6818V17.9512C22.6599 17.4736 22.2654 17.086 21.7792 17.086H13.8409C13.3548 17.086 12.9626 17.4736 12.9626 17.9512V19.6841V19.6818C12.9626 19.9956 13.1364 20.284 13.4135 20.4339C13.4088 20.4732 13.4041 20.5101 13.4018 20.5493V22.2821C13.4041 22.4344 13.4441 22.5821 13.5239 22.7136C13.4441 22.8451 13.4041 22.9951 13.4018 23.1474V24.8803C13.4041 25.0325 13.4441 25.1802 13.5239 25.3117C13.4441 25.4433 13.4041 25.5932 13.4018 25.7455V27.4784C13.4041 27.5153 13.4088 27.5545 13.4135 27.5914C13.1364 27.7437 12.9626 28.0321 12.9626 28.3436V29.2504C12.0631 29.4489 11.2011 29.7834 10.4096 30.2426L5.01247 33.6875L4.8692 33.4521L4.787 33.3183L4.78465 33.316C4.28205 32.4969 3.19935 32.2316 2.36325 32.7253L0.853097 33.6252C0.0193469 34.119 -0.248389 35.1826 0.251849 36.0041L5.26379 44.1609C5.7664 44.98 6.85144 45.2453 7.68519 44.7515L9.19534 43.8563C10.0291 43.3625 10.2968 42.2988 9.79659 41.4797L9.76371 41.4267L9.57113 41.1059L13.2491 39.0477C14.2402 39.2716 17.1689 39.9107 19.3998 40.2176C20.297 40.3537 21.2036 40.4253 22.1125 40.4345C24.1347 40.4345 26.1263 39.9315 27.8972 38.9693C30.5018 37.6333 35.0442 34.2669 36.9838 32.8273C37.3502 32.5551 37.6226 32.3543 37.7659 32.2505H37.7636C38.2591 31.969 38.548 31.436 38.5104 30.8776C38.4165 30.3584 38.0595 29.9223 37.5663 29.7193L37.5665 29.7188ZM31.9204 30.0787H31.9181C32.0543 30.0464 32.1882 30.021 32.3268 30.0026C32.3667 29.998 32.4019 29.9934 32.4395 29.991C32.5311 29.9818 32.6203 29.9772 32.7025 29.9749C32.7237 29.9749 32.7472 29.9703 32.7659 29.9703H32.7988C32.9257 29.9726 33.0525 29.9818 33.177 30.0003C33.2004 30.0049 33.2216 30.0095 33.2427 30.0118V30.0141C33.3508 30.0326 33.4588 30.0603 33.5621 30.0949H33.5692C33.6256 30.1156 33.6702 30.141 33.7218 30.1641C33.6725 30.1941 33.6349 30.2172 33.6209 30.2287L31.9205 31.3478V30.9463C31.9205 30.794 31.8782 30.644 31.8007 30.5125C31.8782 30.381 31.9204 30.231 31.9204 30.0787ZM31.4789 27.4806H28.8344L28.832 25.7478H31.4766V27.4806H31.4789ZM28.266 31.7977V31.7954C28.0992 31.5462 27.8878 31.3293 27.6412 31.1517C27.5473 31.0756 27.4486 31.0087 27.3476 30.944H31.035V31.9247L29.6657 32.8223H29.6681C29.351 33.0276 29.0104 33.1914 28.6535 33.3137C28.6699 33.2353 28.6793 33.1545 28.6817 33.0738C28.6699 32.6169 28.5267 32.1762 28.266 31.7977ZM20.457 28.3459H28.3928V30.0787H21.7791C21.7721 30.0787 21.1849 30.0695 20.4568 30.0072L20.457 28.3459ZM20.0154 27.4806V25.7478H27.9513V27.4806H20.0154ZM29.6257 30.0787H29.2758V28.3459H31.0396V30.0787H29.6257ZM29.2735 24.8802V23.1497H31.0373V24.8825L29.2758 24.8802L29.2735 24.8802ZM23.101 20.5493H31.0369V22.2821H23.101V20.5493ZM23.101 23.1474H28.3925V24.8802H20.4566V23.1497H23.1012L23.101 23.1474ZM22.2179 22.2821H14.2821V20.5493H22.2179V22.2821ZM14.2821 24.8802V23.1497H19.5735V24.8825H14.2821V24.8802ZM19.1343 25.7478V27.4806H14.2844V25.7478H19.1343ZM13.8429 17.9513H21.7787V19.6842H13.8429V17.9513ZM13.8429 28.3486H19.5735V29.9107V29.9084C19.2165 29.8599 18.8618 29.7861 18.5142 29.6846C17.2625 29.2623 15.9472 29.05 14.6226 29.0639C14.3619 29.0639 14.1012 29.0777 13.8428 29.1077V28.3462L13.8429 28.3486ZM9.14092 42.5783C9.08455 42.8021 8.94129 42.9936 8.74166 43.1113L7.2315 44.0065V44.0042C7.03187 44.1242 6.79231 44.1588 6.56448 44.1034C6.33665 44.048 6.14173 43.9073 6.02195 43.7089L1.01001 35.5544C0.758707 35.1437 0.892581 34.6107 1.31063 34.3638L2.82079 33.4709C3.2365 33.2263 3.77906 33.3578 4.03032 33.7662L4.08199 33.8539L4.26988 34.1608L4.53762 34.5969L5.33614 35.8959L8.80269 41.5375L8.89663 41.6897L9.0399 41.9251C9.16203 42.1212 9.19729 42.3567 9.14092 42.5783ZM37.6202 31.1242C37.6085 31.1589 37.5944 31.1912 37.5779 31.2235C37.5286 31.3042 37.4675 31.3757 37.3971 31.438C37.3501 31.4819 37.3008 31.5211 37.2491 31.558C37.1646 31.618 37.0378 31.7103 36.8734 31.8326L36.4976 32.1118C35.8658 32.5802 34.9381 33.2678 33.8883 34.0269C33.6558 34.1954 33.4162 34.3661 33.1719 34.5415C32.9324 34.7145 32.6811 34.8899 32.4298 35.0652C32.256 35.1875 32.0798 35.3075 31.906 35.4298L31.6759 35.5913C31.4011 35.7805 31.1263 35.9651 30.8538 36.1474C30.7505 36.2166 30.6448 36.2905 30.5415 36.3574C30.168 36.6066 29.7969 36.8465 29.44 37.0726C29.2004 37.2226 28.9703 37.3657 28.7424 37.5041C28.517 37.6403 28.2985 37.7672 28.0872 37.8871C27.8782 38.0048 27.6762 38.1133 27.4859 38.2125C27.2581 38.3302 27.0374 38.434 26.8189 38.5332C26.7531 38.5632 26.6874 38.5932 26.624 38.6186C26.4643 38.6878 26.3069 38.7524 26.1519 38.8124C26.0885 38.8378 26.0251 38.8632 25.9617 38.8862C25.7597 38.9624 25.56 39.0293 25.3651 39.0916L25.3416 39.0985C25.1373 39.1608 24.9353 39.2162 24.738 39.2647C24.677 39.2785 24.6206 39.2923 24.5642 39.3062C24.4186 39.3408 24.273 39.3708 24.1274 39.3962C24.0663 39.4077 24.0076 39.4192 23.9512 39.4285C23.7704 39.4585 23.5896 39.4885 23.4111 39.5069L23.3735 39.5115C23.1809 39.5323 22.9907 39.5485 22.8004 39.5577C22.7441 39.56 22.69 39.5623 22.6337 39.5646C22.4927 39.5715 22.3518 39.5738 22.2133 39.5761H22.1146H22.0442C21.8633 39.5761 21.6825 39.5715 21.504 39.5623L21.4711 39.56C21.2785 39.5508 21.0859 39.5369 20.891 39.5208L20.7219 39.5046C20.5763 39.4908 20.4307 39.4769 20.2827 39.4608L20.1136 39.4423C19.9187 39.4192 19.7237 39.3939 19.5241 39.3662C18.8594 39.2739 18.1267 39.1516 17.401 39.0178C16.6753 38.8862 15.9589 38.7432 15.3225 38.6117C14.0518 38.3486 13.1147 38.1317 13.1147 38.1317L9.11505 40.3676L5.4653 34.4306L10.8765 30.9764C11.0832 30.8542 11.2969 30.7434 11.5177 30.6442C11.6516 30.5842 11.8066 30.5173 11.9757 30.4527C12.1448 30.3881 12.3303 30.3211 12.53 30.2612C12.6685 30.2196 12.8165 30.1781 12.9668 30.1435C13.2533 30.0743 13.5446 30.0212 13.8405 29.9866C14.0988 29.952 14.3595 29.9335 14.6202 29.9312C15.2402 29.9243 15.858 29.9727 16.4709 30.0719L16.532 30.0835H16.5296C17.1121 30.1919 17.6875 30.335 18.2512 30.515C18.4203 30.5657 18.6011 30.6119 18.789 30.6511C19.2705 30.748 19.7543 30.8195 20.2428 30.8611C20.4307 30.8795 20.6092 30.8934 20.776 30.9049C21.3584 30.9441 21.7765 30.9488 21.7765 30.9488H24.4446C24.4774 30.9488 24.5385 30.9534 24.6254 30.9626C24.7522 30.9741 24.9331 30.9972 25.1444 31.0341L25.1491 31.0318C25.3887 31.0757 25.6236 31.1333 25.8561 31.2049C26.1943 31.3087 26.5184 31.4541 26.819 31.6387C26.8355 31.6479 26.8519 31.6571 26.866 31.6663V31.6687C27.0281 31.7725 27.1784 31.8925 27.317 32.0286C27.3827 32.0955 27.4485 32.167 27.5072 32.2409L27.5119 32.2455C27.5119 32.2455 28.395 33.5445 27.0704 33.5445H20.8979C20.6537 33.5445 20.4564 33.7384 20.4564 33.9783C20.4564 34.216 20.6537 34.4098 20.8979 34.4098H27.5117C28.4558 34.3614 29.3694 34.0614 30.1562 33.5446L34.1512 30.928L34.17 30.9165C34.1958 30.9003 34.231 30.8819 34.2733 30.8565L34.2897 30.8472C34.3297 30.8242 34.379 30.7988 34.4354 30.7711L34.4518 30.7619L34.4753 30.7503C34.5387 30.7203 34.6115 30.688 34.689 30.6534L34.736 30.635C34.8088 30.605 34.8863 30.5773 34.9708 30.5496L35.0202 30.5334C35.1071 30.5058 35.201 30.4804 35.295 30.4573L35.3231 30.4504L35.3959 30.4342C35.5016 30.4111 35.6073 30.3927 35.7201 30.3742L35.7506 30.3696H35.7529C35.8751 30.3558 35.9995 30.3488 36.124 30.3465H36.171H36.2508C36.2861 30.3465 36.3213 30.3465 36.3589 30.3512C36.4152 30.3535 36.4716 30.3604 36.528 30.365C36.5632 30.3696 36.5984 30.3719 36.636 30.3765C36.6971 30.3858 36.7628 30.3973 36.8263 30.4111C36.8568 30.4181 36.8873 30.4227 36.9202 30.4296C37.0165 30.4527 37.1128 30.4781 37.2091 30.5104V30.5127C37.2772 30.5427 37.3406 30.5819 37.3993 30.6257C37.4862 30.688 37.5567 30.7711 37.6037 30.8657C37.6154 30.8911 37.6248 30.9188 37.6318 30.9465C37.6365 30.9742 37.6389 31.0018 37.6389 31.0318C37.6365 31.0618 37.6296 31.0942 37.6202 31.1242Z" fill="#003781"/>
</svg>
