<svg width="302" height="213" viewBox="0 0 302 213" fill="none" xmlns="http://www.w3.org/2000/svg">
<g clip-path="url(#clip0_5953_9942)">
<path d="M140.133 121.781C104.408 121.781 77.869 111.34 61.2585 90.751C44.8403 70.4053 42.5489 45.4803 42.6433 32.4306C42.7041 24.0615 48.8664 17.2549 56.382 17.2549H63.3137C68.3286 17.2549 72.9385 20.2752 75.3447 25.1346L80.336 35.2147C80.6836 35.9166 81.6859 36.6725 83.0628 36.6725H98.0568V50.0462H83.0628C78.0513 50.0462 73.4414 47.0259 71.0318 42.1664L66.0405 32.0864C65.6929 31.3845 64.6906 30.6285 63.3137 30.6285H56.382C54.6777 30.6285 53.5371 31.786 53.5337 32.5521C53.4527 43.5163 55.356 64.4356 68.9934 81.3358C83.488 99.2989 107.422 108.404 140.137 108.404V121.777L140.133 121.781Z" fill="#FFB83A"/>
<path d="M160.753 121.781C196.479 121.781 223.018 111.34 239.628 90.751C256.046 70.4053 258.338 45.4803 258.243 32.4306C258.183 24.0615 252.02 17.2549 244.505 17.2549H237.573C232.558 17.2549 227.948 20.2752 225.542 25.1346L220.551 35.2147C220.203 35.9166 219.201 36.6725 217.824 36.6725H202.83V50.0462H217.824C222.835 50.0462 227.445 47.0259 229.855 42.1664L234.846 32.0864C235.194 31.3845 236.196 30.6285 237.573 30.6285H244.505C246.209 30.6285 247.35 31.786 247.353 32.5521C247.434 43.5163 245.531 64.4356 231.893 81.3358C217.399 99.2989 193.465 108.404 160.75 108.404V121.777L160.753 121.781Z" fill="#FFB83A"/>
<path d="M98.0565 36.6686H83.0658C81.6889 36.6686 80.6833 35.916 80.3424 35.2141L75.3512 25.1341C73.4309 21.2735 70.1203 18.5637 66.3203 17.6289C67.8693 20.8483 70.2688 23.4636 73.1947 25.1003C73.4275 32.9565 74.0924 40.3132 75.098 47.2109C77.3828 49.0231 80.1534 50.0456 83.0692 50.0456H98.0599V36.672L98.0565 36.6686Z" fill="#FFA13A"/>
<path d="M106.296 118.018L106.303 118.024C116.451 120.525 127.743 121.777 140.125 121.777V108.403C121.486 108.403 105.689 105.444 92.875 99.5752C97.1306 106.797 101.73 112.898 106.296 118.014V118.018Z" fill="#FFA13A"/>
<path d="M160.757 121.78C172.923 121.78 184.023 120.568 194.029 118.159C198.582 113.077 203.161 107.016 207.41 99.8516C194.701 105.534 179.106 108.403 160.754 108.403V121.777L160.757 121.78Z" fill="#FFA13A"/>
<path d="M225.544 25.1338L220.552 35.2138C220.205 35.9157 219.199 36.6683 217.819 36.6683H202.828V50.0419H217.819C220.529 50.0419 223.114 49.1645 225.294 47.5751C226.34 40.5795 227.018 33.0878 227.261 25.0967C230.14 23.4836 232.526 20.9087 234.072 17.7568C230.481 18.7928 227.376 21.4352 225.544 25.1304V25.1338Z" fill="#FFA13A"/>
<path d="M133.321 130.288C137.928 133.072 140.82 138.556 140.82 144.549V168.441C140.82 174.674 137.695 180.347 132.798 183.003L122.367 188.655C115.064 192.614 110.018 200.399 108.662 209.366H191.785C190.425 200.402 185.38 192.614 178.081 188.655L167.649 183.003C162.752 180.35 159.627 174.678 159.627 168.441V144.549C159.627 138.556 162.52 133.072 167.126 130.288C183.22 120.565 219.617 90.619 219.617 18.6145H220.184C224.645 18.6145 228.26 14.4468 228.26 9.30723C228.26 4.16767 224.645 0 220.184 0H80.2633C75.8019 0 72.1875 4.16767 72.1875 9.30723C72.1875 14.4468 75.8019 18.6145 80.2633 18.6145H80.8302C80.8302 90.619 117.227 120.565 133.321 130.288Z" fill="#FFC53A"/>
<path d="M189.097 198.401H111.349C108.231 198.401 105.703 200.929 105.703 204.047V205.512C105.703 208.63 108.231 211.157 111.349 211.157H189.097C192.215 211.157 194.743 208.63 194.743 205.512V204.047C194.743 200.929 192.215 198.401 189.097 198.401Z" fill="#FFA13A"/>
<path d="M75.0195 16.3809C76.4302 17.7712 78.2593 18.6149 80.2605 18.6149H80.8275C80.8275 23.0728 80.9692 27.3653 81.2325 31.506H219.209C219.476 27.3653 219.614 23.0728 219.614 18.6149H220.181C222.182 18.6149 224.012 17.7712 225.422 16.3809H75.0195Z" fill="#FFB83A"/>
<path d="M160.845 132.167H139.607C135.436 132.167 132.055 135.548 132.055 139.719V140.313C132.055 144.484 135.436 147.866 139.607 147.866H160.845C165.016 147.866 168.397 144.484 168.397 140.313V139.719C168.397 135.548 165.016 132.167 160.845 132.167Z" fill="#FFA13A"/>
<path d="M206.908 98.9072C211.784 112.551 210.228 134.28 209.105 144.573C208.872 146.695 211.113 148.079 212.689 146.78L222.516 138.664C223.468 137.877 224.828 138.039 225.594 139.035L233.264 148.97C234.57 150.661 237.118 149.746 237.22 147.546C237.817 134.331 238.07 102.68 228.29 84.7742C227.649 83.5999 226.221 83.2523 225.162 83.988L207.788 96.0016C206.891 96.6226 206.53 97.8341 206.914 98.9106L206.908 98.9072Z" fill="#FF5757"/>
<path d="M93.9517 98.9072C89.0752 112.551 90.631 134.28 91.7548 144.573C91.9876 146.695 89.7468 148.079 88.1708 146.78L78.3435 138.664C77.3918 137.877 76.0318 138.039 75.2657 139.035L67.5949 148.97C66.2889 150.661 63.7409 149.746 63.6397 147.546C63.0424 134.331 62.7892 102.68 72.5693 84.7742C73.2105 83.5999 74.638 83.2523 75.6977 83.988L93.0709 96.0016C93.9686 96.6226 94.3297 97.8341 93.945 98.9106L93.9517 98.9072Z" fill="#FF5757"/>
<path d="M250.512 206.007L249.237 204.114C246.969 200.773 243.547 198.718 240.047 197.77C236.497 196.805 232.9 196.994 229.559 198.425L227.662 199.251C226.558 199.66 226.019 200.993 226.457 202.224L227.237 204.371C227.925 206.261 228.955 207.924 230.308 209.281C230.983 209.959 231.739 210.56 232.566 211.076C233.375 211.572 234.253 211.974 235.184 212.288C236.116 212.598 237.101 212.814 238.127 212.932C239.15 213.047 240.165 213.01 241.218 212.895C242.261 212.767 243.348 212.568 244.377 212.203C245.403 211.839 246.422 211.366 247.408 210.789C248.164 210.361 248.893 209.905 249.605 209.433C250.843 208.626 251.248 207.091 250.512 206.011V206.007Z" fill="#37B780"/>
<path d="M270.801 188.064L269.084 186.556C266.053 183.91 262.196 182.726 258.602 182.732C256.803 182.743 254.977 182.986 253.337 183.583C251.693 184.184 250.087 184.987 248.744 186.215C248.217 186.661 247.674 187.086 247.141 187.524C246.223 188.267 246.125 189.711 246.922 190.747L248.319 192.553C250.769 195.742 254.258 197.615 258.146 197.851C260.056 197.945 262.017 197.608 263.934 196.879C265.81 196.12 267.595 194.925 269.141 193.359L270.832 191.53C271.804 190.477 271.783 188.922 270.798 188.064H270.801Z" fill="#37B780"/>
<path d="M285.936 166.092L283.918 165.019C280.361 163.139 276.352 162.869 272.876 163.713C271.087 164.115 269.41 164.796 267.952 165.758C266.484 166.717 265.127 167.888 264.111 169.399C263.716 169.966 263.285 170.503 262.873 171.056C262.161 171.998 262.414 173.419 263.443 174.228L265.242 175.636C268.401 178.126 272.241 179.101 276.044 178.433C277.901 178.076 279.72 177.306 281.387 176.166C283.04 175.018 284.441 173.442 285.588 171.593C286.013 170.888 286.395 170.159 286.796 169.443C287.482 168.201 287.093 166.7 285.936 166.089V166.092Z" fill="#37B780"/>
<path d="M295.682 141.397L293.479 140.8C289.587 139.757 285.7 140.405 282.403 141.974C279.17 143.587 276.541 146.121 275.157 149.483L274.34 151.386C273.888 152.476 274.445 153.795 275.619 154.345L277.691 155.307C281.356 157.022 285.305 157.099 288.815 155.584C289.689 155.206 290.553 154.74 291.336 154.173C292.108 153.6 292.837 152.938 293.506 152.192C294.174 151.45 294.785 150.623 295.318 149.729C295.824 148.828 296.232 147.846 296.56 146.813L297.295 144.468C297.717 143.118 296.938 141.728 295.686 141.394L295.682 141.397Z" fill="#37B780"/>
<path d="M299.753 115.29L297.472 115.182C295.46 115.088 293.527 115.412 291.755 116.033C289.973 116.657 288.39 117.578 286.932 118.702C285.498 119.829 284.293 121.165 283.402 122.664C282.454 124.155 281.772 125.806 281.506 127.608C281.418 128.293 281.246 128.964 281.118 129.639C280.882 130.797 281.725 131.961 283.001 132.241L285.235 132.72C289.16 133.577 293.061 132.788 296.183 130.554C297.691 129.437 298.994 127.969 300 126.234C300.516 125.37 300.907 124.435 301.194 123.45C301.488 122.465 301.694 121.429 301.798 120.359C301.869 119.549 301.977 118.739 302.001 117.926C302.072 116.529 301.063 115.348 299.757 115.29H299.753Z" fill="#37B780"/>
<path d="M280.319 94.6446L278.871 96.2678C277.585 97.6818 276.708 99.1936 276.128 100.743C275.503 102.295 275.237 103.881 275.331 105.457C275.392 108.599 276.856 111.713 279.526 114.349L281.072 115.864C281.956 116.745 283.451 116.863 284.416 116.07L286.1 114.663C289.124 112.156 290.521 108.511 290.44 104.903C290.339 103.105 289.88 101.323 289.07 99.7032C288.219 98.0901 286.957 96.6457 285.408 95.4984L283.64 94.2126C282.631 93.4871 281.146 93.7064 280.319 94.648V94.6446Z" fill="#37B780"/>
<path d="M231.667 178.052L232.942 179.945C235.197 183.259 236.192 187.018 235.622 190.464C235.058 193.855 232.926 196.977 229.554 198.421L227.658 199.248C226.537 199.663 225.275 199.002 224.836 197.77L224.057 195.624C223.368 193.734 223.031 191.814 222.93 189.991C222.879 189.08 222.892 188.196 222.953 187.349C223.014 186.475 223.125 185.631 223.287 184.842C223.449 184.049 223.662 183.306 223.922 182.621C224.182 181.936 224.482 181.244 224.843 180.654C225.201 180.046 225.619 179.55 226.082 179.058C226.544 178.562 227.064 178.14 227.654 177.799C228.103 177.556 228.545 177.276 228.98 176.979C229.726 176.486 230.931 176.972 231.667 178.052Z" fill="#37B780"/>
<path d="M245.471 165.819L247.189 167.328C250.219 169.974 252.072 173.335 252.43 176.844C252.615 178.596 252.352 180.293 251.758 181.93C251.168 183.567 250.095 184.984 248.748 186.216C248.222 186.661 247.678 187.086 247.145 187.525C246.22 188.274 244.823 188.041 244.027 187.002L242.63 185.196C240.179 182.007 238.988 178.275 238.813 175.032C238.711 173.375 238.85 171.792 239.295 170.422C239.71 169.008 240.392 167.75 241.415 166.731L242.528 165.516C243.163 164.824 244.482 164.966 245.471 165.823V165.819Z" fill="#37B780"/>
<path d="M256.169 150.265L258.187 151.338C261.744 153.218 264.325 156.076 265.5 159.42C266.043 161.057 266.222 162.798 266.026 164.526C265.821 166.247 265.132 167.891 264.116 169.403C263.721 169.969 263.289 170.506 262.878 171.059C262.159 172.008 260.745 172.122 259.716 171.309L257.917 169.902C254.758 167.411 252.703 164.081 251.785 160.939C251.289 159.333 251.069 157.75 251.188 156.282C251.292 154.804 251.64 153.376 252.426 152.135C252.716 151.659 252.966 151.159 253.239 150.673C253.698 149.836 255.011 149.658 256.169 150.265Z" fill="#37B780"/>
<path d="M263.139 132.589L265.343 133.186C269.224 134.226 272.454 136.466 274.249 139.436C276.119 142.406 276.547 146.104 275.15 149.482L274.333 151.386C273.874 152.486 272.511 152.911 271.316 152.351L269.244 151.389C265.623 149.695 262.856 146.908 261.219 144.026C260.807 143.3 260.49 142.575 260.217 141.835C259.93 141.09 259.724 140.347 259.606 139.608C259.484 138.869 259.454 138.14 259.515 137.421C259.552 136.693 259.66 135.967 259.883 135.262L260.389 133.659C260.682 132.748 261.857 132.252 263.136 132.592L263.139 132.589Z" fill="#37B780"/>
<path d="M266.081 113.681L268.362 113.789C270.374 113.883 272.27 114.298 273.985 115.01C275.692 115.722 277.248 116.738 278.426 117.987C279.627 119.239 280.552 120.734 281.129 122.381C281.649 124.017 281.774 125.799 281.504 127.605C281.416 128.29 281.244 128.961 281.116 129.636C280.876 130.804 279.648 131.519 278.368 131.239L276.134 130.76C272.199 129.903 268.919 127.8 266.722 125.343C265.575 124.098 264.697 122.755 264.168 121.361C263.918 120.666 263.705 119.954 263.57 119.225C263.445 118.5 263.415 117.764 263.489 117.022C263.536 116.458 263.628 115.898 263.634 115.328C263.675 114.356 264.772 113.617 266.078 113.674L266.081 113.681Z" fill="#37B780"/>
<path d="M206.824 203.173C206.783 204.148 207.502 204.934 208.427 204.931C213.998 204.907 219.496 203.851 224.717 202.113C229.934 200.352 234.888 197.922 239.535 195.037C248.843 189.263 256.861 181.616 263.499 172.994C270.175 164.375 275.284 154.602 278.905 144.343C280.657 139.186 282.033 133.912 283.032 128.563C283.933 123.197 284.538 117.781 284.683 112.341C284.74 111.44 283.913 110.705 282.945 110.694C281.959 110.684 281.207 111.379 281.149 112.247C281.008 117.511 280.424 122.752 279.553 127.939C278.584 133.112 277.251 138.208 275.564 143.189C272.068 153.097 267.134 162.536 260.691 170.847C254.29 179.159 246.561 186.522 237.662 192.04C233.224 194.797 228.506 197.105 223.586 198.769C218.666 200.409 213.529 201.384 208.413 201.405C207.576 201.411 206.861 202.204 206.82 203.18L206.824 203.173Z" fill="#37B780"/>
<path d="M70.3278 178.052L69.0521 179.945C66.7978 183.259 65.8022 187.018 66.3725 190.464C66.9361 193.855 69.069 196.977 72.4404 198.421L74.337 199.248C75.4574 199.663 76.7195 199.002 77.1583 197.77L77.9378 195.624C78.6263 193.734 78.9638 191.814 79.065 189.991C79.1156 189.08 79.1021 188.196 79.0414 187.349C78.9806 186.475 78.8693 185.631 78.7073 184.842C78.5453 184.049 78.3327 183.306 78.0694 182.621C77.8096 181.936 77.5092 181.244 77.1481 180.654C76.7904 180.046 76.3719 179.55 75.9096 179.058C75.4473 178.562 74.9276 178.14 74.337 177.799C73.8881 177.556 73.446 177.276 73.0107 176.979C72.2649 176.486 71.0601 176.972 70.3244 178.052H70.3278Z" fill="#37B780"/>
<path d="M56.5291 165.819L54.8114 167.328C51.7808 169.974 49.9281 173.335 49.5704 176.844C49.3848 178.596 49.648 180.293 50.242 181.93C50.8359 183.567 51.9057 184.984 53.2522 186.216C53.7787 186.661 54.322 187.086 54.8552 187.525C55.7833 188.274 57.1771 188.041 57.9735 187.002L59.3707 185.196C61.8207 182.007 63.012 178.275 63.1841 175.032C63.2854 173.375 63.147 171.792 62.7015 170.422C62.2865 169.008 61.6047 167.75 60.5822 166.731L59.4685 165.516C58.8341 164.824 57.5145 164.966 56.5257 165.823L56.5291 165.819Z" fill="#37B780"/>
<path d="M45.8316 150.265L43.8135 151.338C40.2565 153.218 37.6749 156.076 36.5004 159.42C35.9571 161.057 35.7782 162.798 35.9774 164.526C36.1832 166.247 36.8717 167.891 37.8875 169.403C38.2823 169.969 38.7143 170.506 39.126 171.059C39.8448 172.008 41.2588 172.122 42.2881 171.309L44.0869 169.902C47.2457 167.411 49.3009 164.081 50.2188 160.939C50.7149 159.333 50.9343 157.75 50.8128 156.282C50.7082 154.804 50.3606 153.376 49.5742 152.135C49.284 151.659 49.0343 151.159 48.7609 150.673C48.302 149.836 46.9892 149.658 45.8316 150.265Z" fill="#37B780"/>
<path d="M38.8629 132.589L36.6592 133.186C32.7783 134.226 29.5486 136.466 27.7532 139.436C25.8836 142.406 25.455 146.104 26.8522 149.482L27.6689 151.386C28.1278 152.486 29.4912 152.911 30.6859 152.351L32.758 151.389C36.3791 149.695 39.1464 146.908 40.7832 144.026C41.1949 143.3 41.5121 142.575 41.7889 141.835C42.0723 141.09 42.2816 140.347 42.3997 139.608C42.5178 138.869 42.5515 138.14 42.4874 137.421C42.4503 136.693 42.3423 135.967 42.1196 135.262L41.6134 133.659C41.3198 132.748 40.1453 132.252 38.8663 132.592L38.8629 132.589Z" fill="#37B780"/>
<path d="M35.9205 113.681L33.6391 113.789C31.6311 113.883 29.7312 114.298 28.0168 115.01C26.3092 115.722 24.7534 116.738 23.5756 117.987C22.3742 119.239 21.4495 120.734 20.8724 122.381C20.3527 124.017 20.2278 125.799 20.4978 127.605C20.5856 128.29 20.7611 128.961 20.8859 129.636C21.1255 130.804 22.3539 131.519 23.633 131.239L25.8671 130.76C29.802 129.903 33.0823 127.8 35.2792 125.343C36.4267 124.098 37.3041 122.755 37.8339 121.361C38.0837 120.666 38.2963 119.954 38.4313 119.225C38.5561 118.5 38.5865 117.764 38.5123 117.022C38.465 116.458 38.3739 115.898 38.3671 115.328C38.3267 114.356 37.2299 113.617 35.9238 113.674L35.9205 113.681Z" fill="#37B780"/>
<path d="M18.155 94.1858L16.3866 95.4749C14.8376 96.6257 13.5755 98.07 12.725 99.6899C11.9151 101.313 11.4561 103.098 11.3549 104.9C11.2739 108.515 12.671 112.166 15.6948 114.677L17.3788 116.087C18.3406 116.884 19.8356 116.762 20.7232 115.881L22.2688 114.363C24.9383 111.724 26.3995 108.602 26.4637 105.454C26.5582 103.878 26.2915 102.288 25.6672 100.733C25.0868 99.1803 24.2093 97.6651 22.9235 96.2511L21.4758 94.6245C20.649 93.683 19.1641 93.4636 18.155 94.1892V94.1858Z" fill="#37B780"/>
<path d="M51.488 206.007L52.7637 204.114C55.0315 200.773 58.4535 198.718 61.9565 197.77C65.5067 196.805 69.1042 196.994 72.4452 198.425L74.3418 199.251C75.4454 199.66 75.9853 200.993 75.5433 202.224L74.7637 204.371C74.0786 206.261 73.0459 207.924 71.6927 209.281C71.0177 209.959 70.2618 210.56 69.4349 211.076C68.625 211.572 67.7476 211.974 66.8161 212.288C65.8847 212.598 64.8993 212.814 63.8734 212.932C62.8508 213.047 61.835 213.01 60.7821 212.895C59.7393 212.767 58.6526 212.568 57.6233 212.203C56.5974 211.839 55.5782 211.366 54.5928 210.789C53.8368 210.361 53.1079 209.905 52.3958 209.433C51.1573 208.626 50.7523 207.091 51.488 206.011V206.007Z" fill="#37B780"/>
<path d="M31.1969 188.064L32.9146 186.556C35.9451 183.91 39.8025 182.726 43.3966 182.732C45.1953 182.743 47.0211 182.986 48.6612 183.583C50.3047 184.184 51.9111 184.987 53.2543 186.215C53.7807 186.661 54.3241 187.086 54.8573 187.524C55.7752 188.267 55.8731 189.711 55.0766 190.747L53.6795 192.553C51.2294 195.742 47.7399 197.615 43.8522 197.851C41.9421 197.945 39.9814 197.608 38.0645 196.879C36.1881 196.12 34.4029 194.925 32.8572 193.359L31.1665 191.53C30.1946 190.477 30.2148 188.922 31.2002 188.064H31.1969Z" fill="#37B780"/>
<path d="M16.0669 166.092L18.085 165.019C21.642 163.139 25.6512 162.869 29.1272 163.713C30.9158 164.115 32.5931 164.796 34.051 165.758C35.519 166.717 36.8756 167.888 37.8914 169.399C38.2863 169.966 38.7182 170.503 39.13 171.056C39.842 171.998 39.5889 173.419 38.563 174.228L36.7643 175.636C33.6055 178.126 29.765 179.101 25.9617 178.433C24.1056 178.076 22.2866 177.306 20.6194 176.166C18.9658 175.018 17.5653 173.442 16.4179 171.593C15.9926 170.888 15.6113 170.159 15.2097 169.443C14.5246 168.201 14.9127 166.7 16.0703 166.089L16.0669 166.092Z" fill="#37B780"/>
<path d="M6.3189 141.397L8.52261 140.8C12.4137 139.757 16.3014 140.405 19.5986 141.974C22.8316 143.587 25.4605 146.121 26.8441 149.483L27.6608 151.386C28.1131 152.476 27.5562 153.795 26.3818 154.345L24.3097 155.307C20.6447 157.022 16.6963 157.099 13.1865 155.584C12.3125 155.206 11.4485 154.74 10.6656 154.173C9.89276 153.6 9.16381 152.938 8.49561 152.192C7.82741 151.45 7.21658 150.623 6.68337 149.729C6.17716 148.828 5.76881 147.846 5.44146 146.813L4.70914 144.468C4.28729 143.118 5.06686 141.728 6.3189 141.394V141.397Z" fill="#37B780"/>
<path d="M2.2472 115.291L4.52853 115.183C6.53988 115.089 8.47362 115.413 10.2454 116.034C12.0272 116.658 13.61 117.579 15.0679 118.703C16.5022 119.83 17.7103 121.166 18.5979 122.665C19.5462 124.156 20.2279 125.807 20.4945 127.609C20.5822 128.294 20.7577 128.965 20.8826 129.64C21.1188 130.798 20.2751 131.962 18.9995 132.242L16.7654 132.721C12.8405 133.578 8.93933 132.789 5.81769 130.555C4.30917 129.438 3.00652 127.97 2.00084 126.235C1.4845 125.371 1.09303 124.436 0.806176 123.451C0.512573 122.466 0.306713 121.43 0.202095 120.36C0.131225 119.55 0.0232333 118.74 -0.00038996 117.927C-0.0712598 116.53 0.937792 115.349 2.24382 115.291H2.2472Z" fill="#37B780"/>
<path d="M95.183 203.382C95.1425 202.406 94.4271 201.61 93.5834 201.607C88.4369 201.586 83.2803 200.608 78.343 198.961C73.4057 197.294 68.6743 194.979 64.223 192.212C55.3002 186.681 47.5551 179.3 41.1397 170.968C34.6838 162.64 29.7432 153.181 26.2368 143.253C24.5427 138.261 23.2096 133.156 22.2377 127.972C21.367 122.775 20.7798 117.524 20.6381 112.25C20.5807 111.383 19.8248 110.684 18.8393 110.697C17.8708 110.708 17.044 111.447 17.1047 112.348C17.2498 117.798 17.8539 123.224 18.7583 128.6C19.7606 133.962 21.1409 139.247 22.8958 144.413C26.5237 154.693 31.6432 164.486 38.3319 173.121C44.9869 181.76 53.0188 189.424 62.3534 195.215C67.0106 198.107 71.9782 200.547 77.2158 202.312C82.4501 204.057 87.9712 205.12 93.5699 205.143C94.5013 205.15 95.2235 204.36 95.1797 203.385L95.183 203.382Z" fill="#37B780"/>
<path d="M156.007 40.8804L161.012 51.0211C161.741 52.4958 163.148 53.5183 164.778 53.7579L175.969 55.3845C180.069 55.9818 181.709 61.0202 178.739 63.9122L170.643 71.8055C169.465 72.9529 168.925 74.6098 169.206 76.233L171.116 87.3794C171.818 91.4627 167.528 94.5809 163.86 92.6506L153.85 87.3895C152.392 86.6235 150.654 86.6235 149.197 87.3895L139.187 92.6506C135.519 94.5775 131.229 91.4627 131.931 87.3794L133.841 76.233C134.118 74.6098 133.582 72.9562 132.404 71.8055L124.308 63.9122C121.341 61.0202 122.978 55.9785 127.078 55.3845L138.269 53.7579C139.899 53.5217 141.306 52.4992 142.035 51.0211L147.04 40.8804C148.876 37.1649 154.174 37.1649 156.007 40.8804Z" fill="#FFA13A"/>
</g>
<defs>
<clipPath id="clip0_5953_9942">
<rect width="302" height="213" fill="white"/>
</clipPath>
</defs>
</svg>
