<svg width="17" height="16" viewBox="0 0 17 16" fill="none" xmlns="http://www.w3.org/2000/svg">
<path d="M16.6502 4.04364L12.4534 0.196594C11.9871 -0.250286 11.1322 0.118876 11.1516 0.76005V2.48928C6.87715 2.64472 3.49641 6.74435 4.15701 10.9606C4.2153 11.4463 4.93419 11.5629 5.12849 11.0771C6.27483 8.78445 8.56752 7.28837 11.1516 7.19123V8.90102C11.1322 9.56163 11.9677 9.93079 12.4534 9.46448L16.6502 5.63686C17.1165 5.22884 17.1165 4.45166 16.6502 4.04364Z" fill="white"/>
<path d="M12.8041 10.4554C12.5515 10.4554 12.3378 10.6692 12.3378 10.9218V13.7973C12.3378 14.0693 12.124 14.2831 11.852 14.2831H1.41836C1.14634 14.2831 0.932618 14.0693 0.932618 13.7973V3.36367C0.932618 3.09166 1.14634 2.87793 1.41836 2.87793H6.85863C7.46094 2.87793 7.46094 1.96474 6.85863 1.94531H1.41836C0.641175 1.94531 0 2.58649 0 3.36367V13.7973C0 14.5745 0.641175 15.2157 1.41836 15.2157H11.852C12.6292 15.2157 13.2704 14.5745 13.2704 13.7973V10.9218C13.2704 10.6692 13.0566 10.4554 12.8041 10.4554Z" fill="white"/>
</svg>
