<svg width="161" height="161" viewBox="0 0 161 161" fill="none" xmlns="http://www.w3.org/2000/svg">
<path d="M160.2 80.565C160.2 95.1242 156.261 108.827 149.409 120.646C149.067 121.16 148.895 121.502 148.553 122.016C147.868 123.044 147.183 124.071 146.497 125.099C146.155 125.442 145.984 125.956 145.641 126.469C135.193 141.371 119.777 152.505 101.792 157.643C101.449 157.815 100.936 157.815 100.593 157.986C94.0842 159.699 87.2328 160.555 80.0388 160.555C52.4619 160.555 28.1394 146.51 13.7515 125.27C12.3812 123.215 11.1822 121.331 9.98318 119.104C4.15949 107.628 0.5625 94.6104 0.5625 80.565C0.5625 36.5447 36.3611 0.746094 80.3814 0.746094C124.402 0.746094 160.2 36.5447 160.2 80.565Z" fill="#D1E2F8"/>
<path d="M46.1257 69.7733C46.1257 69.7733 37.5614 24.3827 70.7907 15.9897C104.02 7.59677 106.075 54.8715 106.075 54.8715C106.075 54.8715 142.217 61.7229 142.388 96.8363C142.73 140.857 100.252 133.491 100.252 133.491L59.9998 117.048C59.9998 117.048 19.7477 95.1235 46.1257 69.7733Z" fill="black"/>
<path d="M145.813 126.298C135.365 141.2 119.949 152.334 101.964 157.472C101.622 157.644 101.108 157.644 100.765 157.815C94.2566 159.528 87.4052 160.384 80.2112 160.384C52.6343 160.384 28.3118 146.339 13.9238 125.099C24.7148 110.369 38.075 99.4066 47.3244 95.4671C60.856 89.6434 82.2666 85.7038 102.136 91.3562H102.307C108.302 93.0691 114.126 95.6383 119.435 99.2353C131.254 107.286 139.818 116.364 145.813 126.298Z" fill="#243286"/>
<path d="M64.791 77.6497V78.1636L65.1336 87.2417L65.4762 94.4356C65.4762 94.4356 64.791 96.1485 73.184 95.6346C84.3175 94.9495 87.9145 89.9822 87.9145 89.9822L88.4284 73.1963L85.0027 73.8814L64.791 77.6497Z" fill="#FFBF9D"/>
<path d="M64.791 78.1683L65.1336 87.2464C70.6147 86.5612 80.5492 84.1632 84.4888 75.599C84.8314 74.9138 85.0027 74.2287 85.0027 73.7148L64.791 78.1683Z" fill="#EBA37C"/>
<path d="M61.1989 34.3156C61.1989 34.3156 50.7505 58.1242 54.5188 71.4845C58.2871 84.8447 70.4483 82.7893 77.8136 80.22C85.1788 77.6507 88.4333 73.1973 88.4333 73.1973C88.4333 73.1973 95.2847 75.424 99.7381 69.0865C104.363 62.7489 101.451 55.5549 97.6827 53.8421C93.7431 52.1292 89.1184 55.0411 89.1184 55.0411L92.7154 48.1897C92.7154 48.0184 77.471 12.9049 61.1989 34.3156Z" fill="#FFBF9D"/>
<path d="M64.4557 30.7203C64.4557 30.7203 63.7706 43.3954 76.4457 49.2191C89.1208 55.0428 97.6851 53.8438 97.6851 53.8438L96.8286 37.4004L80.8991 20.1006L66.6824 24.7253L64.4557 30.7203Z" fill="black"/>
<path d="M88.2578 51.2754V58.4694L94.7666 52.3031L88.2578 51.2754Z" fill="black"/>
<path d="M148.725 122.016C148.04 123.044 147.355 124.072 146.67 125.099C146.327 125.442 146.156 125.956 145.814 126.47C135.365 141.371 119.95 152.505 101.965 157.643C101.622 157.815 101.108 157.815 100.766 157.986L101.793 91.5273C101.793 91.5273 101.965 91.5273 102.136 91.5273H102.307C106.247 92.2125 132.111 97.351 145.985 117.563C147.013 118.933 147.869 120.303 148.725 122.016Z" fill="#243286"/>
<path d="M70.7906 96.4938C65.8233 96.4938 62.0551 95.6374 61.7125 95.4661C61.1986 95.2948 61.0273 94.9522 61.0273 94.4384C61.1986 93.9245 61.5412 93.7532 62.0551 93.7532C62.2263 93.7532 77.2994 97.3502 87.7478 89.8137C88.0904 89.4711 88.6042 89.6424 88.9468 89.985C89.2894 90.3275 89.1181 90.8414 88.7755 91.184C82.9518 95.4661 76.1004 96.4938 70.7906 96.4938Z" fill="#A0ADFF"/>
<path d="M89.6296 66.1759C89.4583 66.1759 89.1157 66.0046 88.9444 65.8333C88.6019 65.4907 88.6019 64.9769 88.9444 64.6343L96.3097 57.9542C96.6523 57.6116 97.1661 57.6116 97.5087 57.9542C97.8513 58.2968 97.8513 58.8106 97.5087 59.1532L90.1434 65.8333C90.1434 66.0046 89.8009 66.1759 89.6296 66.1759Z" fill="#EBA37C"/>
<path d="M97.167 65.1495C96.9958 65.1495 96.9958 65.1495 96.8245 65.1495L92.3711 63.2654C91.8572 63.0941 91.6859 62.5802 91.8572 62.0664C92.0285 61.5525 92.5423 61.3812 93.0562 61.5525L97.5096 63.4366C98.0235 63.6079 98.1948 64.1218 98.0235 64.6356C97.6809 64.9782 97.3383 65.1495 97.167 65.1495Z" fill="#EBA37C"/>
<path d="M41.6732 121.503C41.502 121.674 33.4516 130.41 34.9931 146.168C34.4793 145.825 33.9654 145.483 33.6228 145.14C33.4516 144.969 33.4516 144.969 33.2803 144.798C32.2526 129.211 40.4742 120.304 40.6455 120.304C40.9881 119.961 41.502 119.961 41.8445 120.304C42.0158 120.646 42.0158 121.16 41.6732 121.503Z" fill="#A0ADFF"/>
</svg>
