<svg width="342" height="161" viewBox="0 0 342 161" fill="none" xmlns="http://www.w3.org/2000/svg">
<path d="M159.638 80.564C159.638 87.5867 158.781 94.6094 156.897 101.118C147.819 135.375 116.645 160.383 79.6476 160.383C54.8112 160.383 32.5442 148.907 17.8137 131.093C6.8514 117.39 0 99.7479 0 80.564C0 36.5437 35.7986 0.745117 79.8189 0.745117C123.839 0.745117 159.638 36.5437 159.638 80.564Z" fill="#D1E2F8"/>
<path d="M157.07 101.118C147.992 135.375 116.818 160.383 79.8203 160.383C54.9839 160.383 32.7169 148.906 17.9863 131.093C41.2811 102.488 66.6313 99.405 66.6313 99.405C66.6313 99.405 65.9462 95.1229 66.6313 93.9239C66.9739 93.0675 68.6867 92.3823 69.5432 92.0398C69.8857 91.8685 70.057 91.8685 70.057 91.8685C70.057 91.8685 71.256 91.6972 73.3114 91.3546C77.251 90.6695 84.1024 89.6418 89.5835 89.2992C91.2964 89.1279 92.6666 89.1279 93.8656 89.1279C95.2359 89.1279 96.2636 89.2992 96.7775 89.4705C97.4626 89.8131 98.1478 91.8685 98.1478 91.8685C98.1478 91.8685 108.082 90.3269 121.614 91.8685C127.438 92.5536 141.825 95.2942 157.07 101.118Z" fill="#243286"/>
<path d="M66.2871 56.2429C66.2871 56.2429 52.2417 51.7895 52.2417 62.2379C52.0704 74.3991 66.6297 73.2001 66.6297 73.2001L66.2871 56.2429Z" fill="#FFBF9D"/>
<path d="M60.6354 67.8891C60.2929 67.8891 60.1216 67.7178 59.9503 67.5465L54.8117 60.3525C54.4692 60.01 54.6404 59.4961 54.983 59.1535C55.3256 58.811 55.8394 58.9822 56.182 59.3248L61.3206 66.5188C61.6631 66.8614 61.4919 67.3752 61.1493 67.7178C60.978 67.7178 60.8067 67.8891 60.6354 67.8891Z" fill="#EBA37C"/>
<path d="M55.1513 66.0056C54.6375 66.0056 54.2949 65.663 54.2949 65.3205C54.2949 64.8066 54.6375 64.464 54.9801 64.2928L58.7483 63.9502C59.2622 63.9502 59.6048 64.2928 59.776 64.6353C59.776 65.1492 59.4335 65.4918 59.0909 65.663L55.1513 66.0056Z" fill="#EBA37C"/>
<path d="M93.1807 82.6197L94.551 96.6651C94.551 96.6651 89.4124 100.091 82.561 100.776C73.3116 101.804 69.7146 96.6651 69.7146 96.6651L68.5156 80.2217L93.1807 82.6197Z" fill="#FFBF9D"/>
<path d="M93.1805 82.6201C93.1805 82.6201 89.926 94.4388 79.3064 93.9249C70.7421 93.4111 67.3164 81.7637 67.3164 81.7637L93.1805 82.6201Z" fill="#EBA37C"/>
<path d="M60.9732 45.109C60.9732 45.109 57.5475 71.4869 65.9405 82.2779C75.0186 93.754 87.3511 88.958 91.8045 84.8472C97.7995 79.366 98.4847 72.3433 98.4847 72.3433C98.4847 72.3433 107.563 73.1998 109.789 65.8345C112.187 57.9554 106.021 52.303 101.568 52.4743C97.1144 52.4743 96.6005 53.3307 96.6005 53.3307L97.1144 45.109C97.2857 44.9377 67.6533 17.5321 60.9732 45.109Z" fill="#FFBF9D"/>
<path d="M99.347 64.806C99.1757 64.806 98.8331 64.806 98.8331 64.6347C98.4905 64.2921 98.4905 63.7783 98.8331 63.4357L105.171 56.9268C105.513 56.5843 106.027 56.5843 106.37 56.9268C106.712 57.2694 106.712 57.7833 106.37 58.1258L100.032 64.6347C99.6895 64.6347 99.5182 64.806 99.347 64.806Z" fill="#EBA37C"/>
<path d="M105.682 65.3194C105.511 65.3194 105.34 65.3194 105.168 65.1482L100.886 62.4076C100.544 62.2363 100.372 61.5512 100.544 61.2086C100.715 60.866 101.4 60.6947 101.743 60.866L106.025 63.6066C106.367 63.7779 106.539 64.463 106.367 64.8056C106.196 65.1482 106.025 65.3194 105.682 65.3194Z" fill="#EBA37C"/>
<path d="M98.8327 52.9874C98.8327 52.9874 96.7773 61.2091 95.7495 61.0378C94.7218 60.8665 95.2357 48.0201 98.1475 47.335C101.059 46.6499 98.8327 52.9874 98.8327 52.9874Z" fill="black"/>
<path d="M97.4613 51.9594C97.4613 51.9594 88.3832 51.6168 82.217 47.1634C76.9071 43.3951 74.6804 37.914 74.6804 37.914C74.6804 37.914 70.7409 37.5714 65.431 41.1684C60.1212 44.7654 60.1212 55.2138 60.1212 55.2138C60.1212 55.2138 49.3302 38.0853 53.9549 31.5764C58.5796 25.0676 66.63 30.0349 66.63 30.0349C66.63 30.0349 64.7459 18.5588 80.8467 22.327C97.1188 26.0953 101.23 39.7981 101.23 39.7981C101.23 39.7981 106.711 39.113 107.567 44.0803C108.424 49.0475 106.711 54.3574 106.711 54.3574C106.711 54.3574 104.313 52.1307 100.716 53.6722C97.1188 55.2138 97.1188 55.2138 97.1188 55.2138L97.4613 51.9594Z" fill="black"/>
<path d="M70.0548 91.8701C70.0548 91.8701 73.138 94.7819 80.3319 94.9532C87.5259 95.1245 93.8635 89.3008 93.8635 89.3008L98.4882 97.865L87.0121 104.888L67.8281 103.346V94.7819L70.0548 91.8701Z" fill="#243286"/>
<path d="M77.9359 105.915C70.228 105.915 65.9459 100.262 65.7746 100.091C65.4321 99.7482 65.6033 99.2344 65.9459 98.8918C66.2885 98.5492 66.8023 98.7205 67.1449 99.0631C67.3162 99.4057 72.626 106.428 82.5606 103.345C83.0744 103.174 83.417 103.517 83.5883 103.859C83.7596 104.373 83.417 104.716 83.0744 104.887C81.3616 105.572 79.6487 105.915 77.9359 105.915Z" fill="#A0ADFF"/>
<path d="M341.2 80.565C341.2 95.1242 337.261 108.827 330.409 120.646C330.067 121.16 329.895 121.502 329.553 122.016C328.868 123.044 328.183 124.071 327.497 125.099C327.155 125.442 326.984 125.956 326.641 126.469C316.193 141.371 300.777 152.505 282.792 157.643C282.449 157.815 281.936 157.815 281.593 157.986C275.084 159.699 268.233 160.555 261.039 160.555C233.462 160.555 209.139 146.51 194.751 125.27C193.381 123.215 192.182 121.331 190.983 119.104C185.159 107.628 181.562 94.6103 181.562 80.565C181.562 36.5447 217.361 0.746094 261.381 0.746094C305.402 0.746094 341.2 36.5447 341.2 80.565Z" fill="#D1E2F8"/>
<path d="M227.126 69.7733C227.126 69.7733 218.561 24.3827 251.791 15.9897C285.02 7.59677 287.075 54.8715 287.075 54.8715C287.075 54.8715 323.217 61.7229 323.388 96.8363C323.73 140.857 281.252 133.491 281.252 133.491L241 117.048C241 117.048 200.748 95.1235 227.126 69.7733Z" fill="black"/>
<path d="M326.813 126.298C316.365 141.2 300.949 152.334 282.964 157.472C282.622 157.644 282.108 157.644 281.765 157.815C275.257 159.528 268.405 160.384 261.211 160.384C233.634 160.384 209.312 146.339 194.924 125.099C205.715 110.369 219.075 99.4066 228.324 95.4671C241.856 89.6434 263.267 85.7038 283.136 91.3562H283.307C289.302 93.0691 295.126 95.6383 300.435 99.2353C312.254 107.286 320.818 116.364 326.813 126.298Z" fill="#243286"/>
<path d="M245.791 77.6497V78.1636L246.134 87.2417L246.476 94.4356C246.476 94.4356 245.791 96.1485 254.184 95.6346C265.318 94.9495 268.915 89.9822 268.915 89.9822L269.428 73.1963L266.003 73.8814L245.791 77.6497Z" fill="#FFBF9D"/>
<path d="M245.791 78.1683L246.134 87.2464C251.615 86.5612 261.549 84.1632 265.489 75.599C265.831 74.9138 266.003 74.2287 266.003 73.7148L245.791 78.1683Z" fill="#EBA37C"/>
<path d="M242.199 34.3156C242.199 34.3156 231.751 58.1242 235.519 71.4845C239.287 84.8447 251.448 82.7893 258.814 80.22C266.179 77.6507 269.433 73.1973 269.433 73.1973C269.433 73.1973 276.285 75.424 280.738 69.0865C285.363 62.7489 282.451 55.5549 278.683 53.8421C274.743 52.1292 270.118 55.0411 270.118 55.0411L273.715 48.1897C273.715 48.0184 258.471 12.9049 242.199 34.3156Z" fill="#FFBF9D"/>
<path d="M245.456 30.7203C245.456 30.7203 244.771 43.3954 257.446 49.2191C270.121 55.0428 278.685 53.8438 278.685 53.8438L277.829 37.4004L261.899 20.1006L247.682 24.7253L245.456 30.7203Z" fill="black"/>
<path d="M269.258 51.2754V58.4694L275.767 52.3031L269.258 51.2754Z" fill="black"/>
<path d="M329.725 122.016C329.04 123.044 328.355 124.072 327.67 125.099C327.327 125.442 327.156 125.956 326.814 126.47C316.365 141.371 300.95 152.505 282.965 157.643C282.622 157.815 282.108 157.815 281.766 157.986L282.793 91.5273C282.793 91.5273 282.965 91.5273 283.136 91.5273H283.307C287.247 92.2125 313.111 97.351 326.985 117.563C328.013 118.933 328.869 120.303 329.725 122.016Z" fill="#243286"/>
<path d="M251.791 96.4938C246.823 96.4938 243.055 95.6374 242.712 95.4661C242.199 95.2948 242.027 94.9522 242.027 94.4384C242.199 93.9245 242.541 93.7532 243.055 93.7532C243.226 93.7532 258.299 97.3502 268.748 89.8137C269.09 89.4711 269.604 89.6424 269.947 89.985C270.289 90.3275 270.118 90.8414 269.776 91.184C263.952 95.4661 257.1 96.4938 251.791 96.4938Z" fill="#A0ADFF"/>
<path d="M270.63 66.1759C270.458 66.1759 270.116 66.0046 269.944 65.8333C269.602 65.4907 269.602 64.9769 269.944 64.6343L277.31 57.9542C277.652 57.6116 278.166 57.6116 278.509 57.9542C278.851 58.2968 278.851 58.8106 278.509 59.1532L271.143 65.8333C271.143 66.0046 270.801 66.1759 270.63 66.1759Z" fill="#EBA37C"/>
<path d="M278.167 65.1495C277.996 65.1495 277.996 65.1495 277.824 65.1495L273.371 63.2654C272.857 63.0941 272.686 62.5802 272.857 62.0664C273.028 61.5525 273.542 61.3812 274.056 61.5525L278.51 63.4366C279.023 63.6079 279.195 64.1218 279.023 64.6356C278.681 64.9782 278.338 65.1495 278.167 65.1495Z" fill="#EBA37C"/>
<path d="M222.673 121.503C222.502 121.674 214.452 130.41 215.993 146.168C215.479 145.825 214.965 145.483 214.623 145.14C214.452 144.969 214.452 144.969 214.28 144.798C213.253 129.211 221.474 120.304 221.646 120.304C221.988 119.961 222.502 119.961 222.845 120.304C223.016 120.646 223.016 121.16 222.673 121.503Z" fill="#A0ADFF"/>
</svg>
