<svg width="51" height="42" viewBox="0 0 51 42" fill="none" xmlns="http://www.w3.org/2000/svg">
<path d="M31.8637 20.8802C31.7107 20.7033 31.4443 20.6804 31.263 20.8345C31.0873 20.9886 31.0647 21.2568 31.2177 21.4394C32.3 22.712 33.983 23.3739 36.2157 23.4139V25.4967C36.2157 25.7307 36.4083 25.9247 36.6407 25.9247C36.873 25.9247 37.0657 25.7307 37.0657 25.4967V23.3796C38.8903 23.1856 40.494 22.3239 41.344 21.0342C41.8993 20.1954 42.4037 18.7916 41.6047 16.8342C40.6753 15.1166 38.4767 14.4204 37.162 14.0038C37.128 13.9924 37.0997 13.981 37.06 13.9696V6.26005C38.964 6.39701 40.324 7.00761 41.4177 8.2231C41.5763 8.4 41.8427 8.41141 42.0183 8.25163C42.194 8.09185 42.2053 7.82364 42.0467 7.64674C40.8 6.26005 39.202 5.54674 37.06 5.40408V3.29837C37.06 3.0644 36.8673 2.87038 36.635 2.87038C36.4027 2.87038 36.21 3.0644 36.21 3.29837V5.38696C34.6177 5.46114 33.099 6.34565 32.249 7.7038C31.4273 9.00489 31.3537 10.5285 32.0507 11.8867C32.912 13.4389 34.935 14.1579 36.2157 14.5859V22.5522C34.2493 22.5179 32.7817 21.953 31.8637 20.8802ZM40.8397 17.1937C41.3383 18.4321 41.2703 19.5962 40.6357 20.5492C39.933 21.6106 38.6013 22.3296 37.0657 22.5122V14.8655C38.267 15.2478 40.1313 15.8755 40.8397 17.1937ZM32.7987 11.4815C32.2433 10.3973 32.3057 9.21603 32.9687 8.16033C33.6657 7.04755 34.9123 6.33424 36.2157 6.24293V13.6842C35.0993 13.2962 33.4447 12.6399 32.7987 11.4815ZM14.3593 28.7837C22.2757 28.7837 28.7187 22.3296 28.7187 14.3918C28.7187 6.45407 22.2757 0 14.3593 0C6.443 0 0 6.45407 0 14.3918C0 22.3296 6.443 28.7837 14.3593 28.7837ZM14.3593 0.855978C21.811 0.855978 27.8687 6.92772 27.8687 14.3918C27.8687 21.856 21.8053 27.9277 14.3593 27.9277C6.91333 27.9277 0.85 21.856 0.85 14.3918C0.85 6.92772 6.91333 0.855978 14.3593 0.855978ZM5.34367 17.7872H10.9763V23.431C10.9763 23.6649 11.169 23.859 11.4013 23.859H17.3173C17.5497 23.859 17.7423 23.6649 17.7423 23.431V17.7872H23.375C23.6073 17.7872 23.8 17.5932 23.8 17.3592V11.4302C23.8 11.1962 23.6073 11.0022 23.375 11.0022H17.7423V5.35842C17.7423 5.12446 17.5497 4.93043 17.3173 4.93043H11.4013C11.169 4.93043 10.9763 5.12446 10.9763 5.35842V11.0022H5.34367C5.11133 11.0022 4.91867 11.1962 4.91867 11.4302V17.3592C4.91867 17.5932 5.11133 17.7872 5.34367 17.7872ZM5.76867 11.8582H11.4013C11.6337 11.8582 11.8263 11.6641 11.8263 11.4302V5.78641H16.8923V11.4302C16.8923 11.6641 17.085 11.8582 17.3173 11.8582H22.95V16.9312H17.3173C17.085 16.9312 16.8923 17.1253 16.8923 17.3592V23.003H11.8263V17.3592C11.8263 17.1253 11.6337 16.9312 11.4013 16.9312H5.76867V11.8582ZM26.5993 4.70217C26.435 4.53098 26.4407 4.26277 26.6107 4.09728C29.308 1.45516 32.8723 0 36.6407 0C44.557 0 51 6.45407 51 14.3918C51 22.3296 44.557 28.7837 36.6407 28.7837C32.8723 28.7837 29.308 27.3285 26.6107 24.6864C26.4407 24.5209 26.4407 24.2527 26.5993 24.0815C26.7637 23.9103 27.0357 23.9103 27.2 24.0758C29.7387 26.5639 33.0933 27.9334 36.6407 27.9334C44.0923 27.9334 50.15 21.8617 50.15 14.3976C50.15 6.93342 44.0867 0.861685 36.6407 0.861685C33.0933 0.861685 29.7443 2.23125 27.2 4.71929C27.0357 4.88478 26.7637 4.87908 26.5993 4.71359V4.70217ZM49.215 36.2421H44.795V31.4201C44.795 31.1861 44.6023 30.9921 44.37 30.9921H6.62433C6.392 30.9921 6.19933 31.1861 6.19933 31.4201V36.2421H1.77933C1.547 36.2421 1.35433 36.4361 1.35433 36.6701V41.572C1.35433 41.806 1.547 42 1.77933 42C2.01167 42 2.20433 41.806 2.20433 41.572V37.0981H48.79V41.572C48.79 41.806 48.9827 42 49.215 42C49.4473 42 49.64 41.806 49.64 41.572V36.6701C49.64 36.4361 49.4473 36.2421 49.215 36.2421ZM7.04933 31.8481H43.9507V36.2421H7.04933V31.8481Z" fill="#003781"/>
</svg>
