<svg width="59" height="50" viewBox="0 0 59 50" fill="none" xmlns="http://www.w3.org/2000/svg">
<path d="M48.8873 32.5077C48.8107 32.5077 48.7348 32.4899 48.6661 32.4555C48.5439 32.3948 46.5658 30.3605 47.1959 28.8414L49.6898 22.8198C50.2783 21.4005 52.8258 21.2882 53.1144 21.2796C53.2478 21.2644 53.3826 21.3278 53.4783 21.4242C53.4981 21.444 55.4413 23.4466 54.8204 24.9452L52.3251 30.9668C51.7373 32.3862 49.1898 32.4985 48.9012 32.5071C48.8972 32.5077 48.892 32.5077 48.8873 32.5077ZM52.9182 22.2829C52.1481 22.3423 50.8516 22.6058 50.6052 23.1996L48.1113 29.2212C47.8662 29.8116 48.5954 30.916 49.098 31.5051C49.8695 31.4444 51.166 31.1788 51.4104 30.5884L53.9057 24.5668C54.1514 23.973 53.4209 22.87 52.9182 22.2829Z" fill="#003781"/>
<path d="M40.0622 32.549C39.9354 32.549 39.8093 32.5008 39.7122 32.4044C38.8034 31.4969 38.3027 30.2895 38.3027 29.0043C38.3027 27.719 38.8034 26.511 39.7122 25.6041C40.6197 24.696 41.827 24.1953 43.111 24.1953C44.397 24.1953 45.605 24.696 46.5125 25.6048C47.4206 26.5116 47.9206 27.719 47.9206 29.0043C47.9206 30.2895 47.4206 31.4969 46.5118 32.4044C46.319 32.5973 46.0046 32.5979 45.8111 32.4037C45.6182 32.2102 45.6182 31.8965 45.8117 31.703C46.533 30.983 46.9299 30.024 46.9299 29.0036C46.9299 27.9832 46.533 27.0241 45.8117 26.3042C45.0911 25.5823 44.1321 25.1854 43.111 25.1854C42.0919 25.1854 41.1335 25.583 40.413 26.3042C39.6911 27.0248 39.2941 27.9832 39.2941 29.0036C39.2941 30.024 39.6917 30.983 40.4123 31.703C40.6058 31.8958 40.6058 32.2102 40.413 32.4037C40.3159 32.5008 40.1891 32.549 40.0622 32.549Z" fill="#003781"/>
<path d="M58.5057 49.2232H54.595C54.3215 49.2232 54.0996 49.0012 54.0996 48.7278V12.2278C54.0996 11.9543 54.3215 11.7324 54.595 11.7324H58.5057C58.7791 11.7324 59.001 11.9543 59.001 12.2278V48.7278C59.001 49.0012 58.7791 49.2232 58.5057 49.2232ZM55.0903 48.2324H58.0103V12.7231H55.0903V48.2324Z" fill="#003781"/>
<path d="M54.5949 49.2229H37.6477C37.3743 49.2229 37.1523 49.001 37.1523 48.7275V32.4329C37.1523 32.1594 37.3743 31.9375 37.6477 31.9375H54.5943C54.8677 31.9375 55.0896 32.1594 55.0896 32.4329V48.7275C55.0903 49.001 54.8684 49.2229 54.5949 49.2229ZM38.1431 48.2322H54.0989V32.9282H38.1431V48.2322Z" fill="#003781"/>
<path d="M54.5949 45.311H37.6477C37.3743 45.311 37.1523 45.0891 37.1523 44.8157C37.1523 44.5422 37.3743 44.3203 37.6477 44.3203H54.5943C54.8677 44.3203 55.0896 44.5422 55.0896 44.8157C55.0896 45.0891 54.8684 45.311 54.5949 45.311Z" fill="#003781"/>
<path d="M37.6473 49.2216H0.495359C0.221921 49.2216 0 48.9997 0 48.7262V30.4759C0 30.4198 0.00924658 30.365 0.02774 30.3128C0.261549 27.7376 2.33479 25.669 4.91264 25.4437C4.96085 25.4272 5.01039 25.418 5.0586 25.418H37.6479C37.9214 25.418 38.1433 25.6399 38.1433 25.9133V48.7262C38.1426 48.9997 37.9214 49.2216 37.6473 49.2216ZM0.990718 48.2309H37.1519V26.4087H5.1623C5.13324 26.4173 5.10418 26.4226 5.07512 26.4245C2.90677 26.5758 1.15782 28.3247 1.00657 30.4931C1.00459 30.5254 0.998643 30.5578 0.990718 30.5889V48.2309Z" fill="#003781"/>
<path d="M32.4329 49.2232C32.1594 49.2232 31.9375 49.0013 31.9375 48.7279V44.1653C31.9375 43.8918 32.1594 43.6699 32.4329 43.6699C32.7063 43.6699 32.9282 43.8918 32.9282 44.1653V48.7279C32.9282 49.0013 32.7063 49.2232 32.4329 49.2232Z" fill="#003781"/>
<path d="M32.4329 39.4478C32.1594 39.4478 31.9375 39.2259 31.9375 38.9524V25.9172C31.9375 25.6438 32.1594 25.4219 32.4329 25.4219C32.7063 25.4219 32.9282 25.6438 32.9282 25.9172V38.9524C32.9282 39.2265 32.7063 39.4478 32.4329 39.4478Z" fill="#003781"/>
<path d="M11.4268 42.2627C11.3 42.2627 11.1732 42.2145 11.0768 42.1174C10.8833 41.9239 10.8833 41.6102 11.0768 41.4167L19.9648 32.528C20.1584 32.3344 20.4721 32.3344 20.6656 32.528C20.8591 32.7215 20.8591 33.0352 20.6656 33.2287L11.7769 42.1174C11.6798 42.2145 11.5536 42.2627 11.4268 42.2627Z" fill="#003781"/>
<path d="M15.8721 42.2627C15.7453 42.2627 15.6185 42.2145 15.5221 42.1174C15.3286 41.9239 15.3286 41.6102 15.5221 41.4167L24.4101 32.528C24.6037 32.3344 24.9174 32.3344 25.1109 32.528C25.3044 32.7215 25.3044 33.0352 25.1109 33.2287L16.2222 42.1174C16.1258 42.2145 15.999 42.2627 15.8721 42.2627Z" fill="#003781"/>
<path d="M36.9947 15.3297H22.0032C21.7297 15.3297 21.5078 15.1078 21.5078 14.8343V0.495359C21.5078 0.221921 21.7297 0 22.0032 0H36.994C37.2675 0 37.4894 0.221921 37.4894 0.495359V14.8343C37.4901 15.1078 37.2681 15.3297 36.9947 15.3297ZM22.4985 14.339H36.4987V0.990718H22.4985V14.339Z" fill="#003781"/>
<path d="M29.8254 12.0719C29.552 12.0719 29.3301 11.8499 29.3301 11.5765V3.75512C29.3301 3.48169 29.552 3.25977 29.8254 3.25977C30.0989 3.25977 30.3208 3.48169 30.3208 3.75512V11.5765C30.3208 11.8499 30.0989 12.0719 29.8254 12.0719Z" fill="#003781"/>
<path d="M33.7354 8.16064H25.9133C25.6399 8.16064 25.418 7.93872 25.418 7.66528C25.418 7.39184 25.6399 7.16992 25.9133 7.16992H33.7347C34.0082 7.16992 34.2301 7.39184 34.2301 7.66528C34.2301 7.93872 34.0088 8.16064 33.7354 8.16064Z" fill="#003781"/>
<path d="M32.4329 42.0533C32.3008 42.0533 32.1753 42.0005 32.0828 41.908C31.9903 41.8155 31.9375 41.69 31.9375 41.558C31.9375 41.4259 31.9903 41.3004 32.0828 41.2079C32.2677 41.023 32.598 41.023 32.7829 41.2013C32.8754 41.3004 32.9282 41.4259 32.9282 41.558C32.9282 41.69 32.8754 41.8155 32.7829 41.908C32.6904 42.0005 32.565 42.0533 32.4329 42.0533Z" fill="#003781"/>
</svg>
