<svg width="39" height="42" viewBox="0 0 39 42" fill="none" xmlns="http://www.w3.org/2000/svg">
<path d="M14.9806 4.45364C14.9806 5.29882 15.7553 5.42208 16.1544 6.09705H21.5894V18.3522C22.5116 17.9014 23.3401 17.2801 24.0311 16.521V3.60845C24.0311 3.14146 23.8456 2.6936 23.5153 2.36338C23.1851 2.03317 22.7373 1.84766 22.2703 1.84766H14.9277C15.0275 2.48741 14.9806 2.23503 14.9806 4.45364ZM22.2409 2.48154C22.5393 2.48309 22.8251 2.60231 23.0361 2.81331C23.2471 3.02432 23.3663 3.31005 23.3678 3.60845V16.2686C23.0132 16.6317 22.6195 16.9545 22.194 17.2312V5.45729H16.5242C15.3503 4.01344 15.7201 5.63337 15.6497 2.48741L22.2409 2.48154Z" fill="#003781"/>
<path d="M8.21786 5.85679C8.13379 5.92627 8.07219 6.0191 8.04085 6.12357C8.00951 6.22803 8.00983 6.33945 8.04178 6.44373C8.27069 7.07761 8.76371 6.8311 15.4019 6.8311C15.517 6.82835 15.6287 6.79182 15.7232 6.72605C15.8177 6.66028 15.8907 6.56819 15.9333 6.46122C15.9758 6.35425 15.986 6.23714 15.9624 6.12445C15.9389 6.01176 15.8828 5.90848 15.801 5.82745C14.7093 4.93531 14.8443 4.90009 14.8443 3.42689C14.8818 2.97467 14.866 2.51962 14.7974 2.07108C14.2104 -0.945758 9.17456 -0.558383 9.17456 2.52888C9.17456 5.06443 9.34477 4.92357 8.21786 5.85679ZM14.1694 2.23542C14.2246 2.64191 14.2364 3.05312 14.2046 3.46211C14.2046 4.82379 14.0696 5.2816 15.2258 6.22069L8.76958 6.26178C10.0139 5.21704 9.84367 5.08791 9.84367 2.55823C9.82019 0.251584 13.7057 -0.0360122 14.1694 2.23542Z" fill="#003781"/>
<path d="M13.5183 3.06326C13.5183 1.13225 11.8103 0.574667 10.9534 1.63702C10.6645 2.0576 10.5098 2.55591 10.5098 3.0662C10.5098 3.57649 10.6645 4.07479 10.9534 4.49538C11.8103 5.55186 13.5183 4.99427 13.5183 3.06326ZM12.5792 2.042C13.1192 2.70523 12.9314 4.38973 11.9923 4.38973C11.5814 4.38973 11.1354 3.97888 11.1354 3.08087C11.153 1.76027 12.0921 1.4492 12.5734 2.042H12.5792Z" fill="#003781"/>
<path d="M1.76115 34.7394H15.513C15.0765 33.9558 14.7017 33.1395 14.3919 32.2978H2.42439V6.10294H7.85938C7.96366 5.88009 8.12837 5.69097 8.3348 5.55709C9.50866 4.58865 8.72804 4.42431 9.09781 1.83594H1.76115C1.29416 1.83594 0.846292 2.02145 0.516078 2.35166C0.185864 2.68188 0.000352222 3.12974 0.000352222 3.59674V32.9434C-0.00433228 33.1776 0.0377518 33.4103 0.12414 33.628C0.210529 33.8457 0.339486 34.044 0.50346 34.2113C0.667434 34.3785 0.86313 34.5114 1.07909 34.6021C1.29505 34.6928 1.52693 34.7394 1.76115 34.7394ZM0.63424 3.63195C0.635782 3.33355 0.755005 3.04781 0.966008 2.83681C1.17701 2.62581 1.46275 2.50658 1.76115 2.50504H8.37588C8.30545 5.67448 8.65174 4.04281 7.50135 5.47492H1.77876V32.9434H13.9694C14.1748 33.4657 14.3333 33.8179 14.4624 34.1172H1.76115C1.46275 34.1157 1.17701 33.9965 0.966008 33.7855C0.755005 33.5745 0.635782 33.2887 0.63424 32.9903V3.63195Z" fill="#003781"/>
<path d="M4.90672 12.0605H14.82C15.0823 12.0039 15.3173 11.8592 15.4858 11.6504C15.6544 11.4416 15.7463 11.1814 15.7463 10.9131C15.7463 10.6448 15.6544 10.3845 15.4858 10.1758C15.3173 9.96697 15.0823 9.82222 14.82 9.76562H4.90672C4.64444 9.82222 4.40946 9.96697 4.24093 10.1758C4.07239 10.3845 3.98047 10.6448 3.98047 10.9131C3.98047 11.1814 4.07239 11.4416 4.24093 11.6504C4.40946 11.8592 4.64444 12.0039 4.90672 12.0605ZM14.82 10.4113C14.9438 10.4247 15.0582 10.4833 15.1413 10.5759C15.2244 10.6685 15.2704 10.7886 15.2704 10.9131C15.2704 11.0375 15.2244 11.1576 15.1413 11.2502C15.0582 11.3429 14.9438 11.4015 14.82 11.4149C4.25523 11.4149 4.4137 11.6145 4.4137 10.9101C4.4137 10.2058 4.27871 10.4113 14.82 10.4113Z" fill="#003781"/>
<path d="M4.90672 15.1465H14.82C15.0823 15.0899 15.3173 14.9451 15.4858 14.7363C15.6544 14.5276 15.7463 14.2673 15.7463 13.999C15.7463 13.7307 15.6544 13.4705 15.4858 13.2617C15.3173 13.0529 15.0823 12.9082 14.82 12.8516H4.90672C4.64444 12.9082 4.40946 13.0529 4.24093 13.2617C4.07239 13.4705 3.98047 13.7307 3.98047 13.999C3.98047 14.2673 4.07239 14.5276 4.24093 14.7363C4.40946 14.9451 4.64444 15.0899 4.90672 15.1465ZM14.82 13.4972C14.9438 13.5106 15.0582 13.5692 15.1413 13.6619C15.2244 13.7545 15.2704 13.8746 15.2704 13.999C15.2704 14.1235 15.2244 14.2436 15.1413 14.3362C15.0582 14.4288 14.9438 14.4874 14.82 14.5008C4.25523 14.5008 4.4137 14.7004 4.4137 13.9961C4.4137 13.2918 4.27871 13.4678 14.82 13.4678V13.4972Z" fill="#003781"/>
<path d="M4.90672 18.1777H14.82C15.0823 18.1211 15.3173 17.9764 15.4858 17.7676C15.6544 17.5588 15.7463 17.2986 15.7463 17.0303C15.7463 16.7619 15.6544 16.5017 15.4858 16.2929C15.3173 16.0842 15.0823 15.9394 14.82 15.8828H4.90672C4.64444 15.9394 4.40946 16.0842 4.24093 16.2929C4.07239 16.5017 3.98047 16.7619 3.98047 17.0303C3.98047 17.2986 4.07239 17.5588 4.24093 17.7676C4.40946 17.9764 4.64444 18.1211 4.90672 18.1777ZM14.82 16.5284C14.9438 16.5418 15.0582 16.6005 15.1413 16.6931C15.2244 16.7857 15.2704 16.9058 15.2704 17.0303C15.2704 17.1547 15.2244 17.2748 15.1413 17.3674C15.0582 17.46 14.9438 17.5187 14.82 17.5321C4.25523 17.5321 4.4137 17.7317 4.4137 17.0273C4.4137 16.323 4.27871 16.5284 14.82 16.5284Z" fill="#003781"/>
<path d="M14.8963 18.9277H4.91844C4.65616 18.9843 4.42118 19.1291 4.25265 19.3379C4.08411 19.5466 3.99219 19.8069 3.99219 20.0752C3.99219 20.3435 4.08411 20.6037 4.25265 20.8125C4.42118 21.0213 4.65616 21.166 4.91844 21.2226H14.057C14.2927 20.4423 14.5729 19.676 14.8963 18.9277ZM13.5816 20.5888C4.41368 20.5888 4.41368 20.7824 4.41368 20.084C4.41368 19.3855 4.21413 19.5851 13.9455 19.5734C13.8398 19.8434 13.7224 20.1486 13.5816 20.5888Z" fill="#003781"/>
<path d="M13.8457 21.9922H4.90672C4.64444 22.0488 4.40946 22.1935 4.24093 22.4023C4.07239 22.6111 3.98047 22.8713 3.98047 23.1396C3.98047 23.408 4.07239 23.6682 4.24093 23.877C4.40946 24.0858 4.64444 24.2305 4.90672 24.2871H13.4349C13.525 23.5145 13.6622 22.7481 13.8457 21.9922ZM12.8714 23.6415C4.44892 23.6415 4.4137 23.8293 4.4137 23.1367C4.4137 22.4441 4.4137 22.6319 13.0475 22.6319C12.977 22.9724 12.9184 23.3069 12.8714 23.6473V23.6415Z" fill="#003781"/>
<path d="M13.3703 25.0488H4.90672C4.64444 25.1054 4.40946 25.2502 4.24093 25.459C4.07239 25.6677 3.98047 25.928 3.98047 26.1963C3.98047 26.4646 4.07239 26.7248 4.24093 26.9336C4.40946 27.1424 4.64444 27.2871 4.90672 27.3437H13.3644C13.3201 26.5793 13.3221 25.813 13.3703 25.0488ZM12.6953 26.6981C4.31392 26.704 4.4137 26.8859 4.4137 26.1992C4.4137 25.5125 4.31392 25.7121 12.6953 25.7121C12.6895 26.0349 12.6836 26.3694 12.6953 26.704V26.6981Z" fill="#003781"/>
<path d="M15.8179 19.8419C14.9187 21.9787 14.4817 24.2815 14.5357 26.5992C14.5897 28.9169 15.1335 31.1969 16.1313 33.2895C17.1291 35.3821 18.5583 37.2399 20.3251 38.7409C22.0919 40.2419 24.1563 41.3521 26.3827 41.9986C28.6059 41.3482 30.6665 40.2352 32.4294 38.7326C34.1923 37.2299 35.6176 35.3716 36.6118 33.2794C37.6061 31.1873 38.1469 28.9086 38.1986 26.5928C38.2504 24.277 37.812 21.9764 36.9123 19.8419C32.8037 21.0157 28.8126 19.6364 26.3475 15.1992C23.9469 19.5953 19.9792 21.0157 15.8179 19.8419ZM26.3827 16.5022C27.4278 18.1697 28.9726 19.4646 30.797 20.2023C32.6214 20.9401 34.6321 21.083 36.5425 20.6107C37.3116 22.6344 37.6564 24.7945 37.5554 26.957C37.4543 29.1195 36.9096 31.2382 35.9552 33.1813C35.0007 35.1244 33.6568 36.8504 32.007 38.2521C30.3572 39.6539 28.4368 40.7013 26.3651 41.3295C24.2973 40.6978 22.3812 39.6484 20.7353 38.2464C19.0894 36.8443 17.7488 35.1194 16.7964 33.1783C15.8441 31.2373 15.3002 29.1214 15.1985 26.9617C15.0968 24.802 15.4395 22.6444 16.2053 20.6225C18.1163 21.0942 20.1274 20.9504 21.9518 20.2115C23.7763 19.4727 25.3208 18.1766 26.3651 16.5081L26.3827 16.5022Z" fill="#003781"/>
<path d="M23.7005 35.8149H29.024V31.3777H33.2558V26.0953H29.0299V21.7285H23.7005V26.1246H19.4746V31.407H23.7005V35.8149ZM20.1202 30.7321V26.7703H24.3696V22.3741H28.4077V26.7703H32.5867V30.7321H28.3842V35.1693H24.3696V30.7321H20.1202Z" fill="#003781"/>
</svg>
