<svg width="49" height="49" viewBox="0 0 49 49" fill="none" xmlns="http://www.w3.org/2000/svg">
<path d="M24.3679 0.0161569L5.7245 4.80025C5.49008 4.86184 5.32679 5.07387 5.32713 5.31622V11.2102C2.34566 11.4797 0 13.9937 0 17.0439C0 20.0941 2.34566 22.6081 5.32713 22.8776V28.2171C5.32713 31.0272 6.95891 34.0919 9.24368 36.9218C11.4522 39.6574 14.293 42.1672 17.0102 43.9309C17.5406 44.8125 18.2362 45.63 19.0054 46.3422C20.6949 47.9065 22.7407 49 24.4979 49C26.2659 49 28.3123 47.8526 29.9988 46.2673C30.7221 45.5873 31.3804 44.8205 31.8972 44.0038C34.6424 42.2371 37.5237 39.6968 39.7574 36.9301C42.0421 34.1001 43.6729 31.0397 43.6729 28.2295V22.8775C46.6546 22.6083 49 20.0943 49 17.0438C49 13.9934 46.6546 11.4794 43.6729 11.2102V5.33483C43.6742 5.0917 43.5106 4.87859 43.2755 4.81683L24.6321 0.0161569C24.589 0.00609169 24.5425 0 24.4978 0C24.4534 4.02607e-05 24.411 0.00609169 24.3679 0.0161569ZM24.4979 1.08134L42.6077 5.74785V11.2102C39.6277 11.4811 37.2837 13.9947 37.2837 17.0438C37.2837 20.093 39.6277 22.6065 42.6077 22.8775V28.2295C42.6077 30.6141 41.1284 33.5349 38.9272 36.2612C37.1712 38.4363 34.9723 40.4897 32.7887 42.0949C32.9393 41.5893 33.0217 41.0761 33.0217 40.5626V39.877C33.9366 39.6379 34.6186 38.8008 34.6185 37.8142V32.8804C34.6185 30.1399 33.5059 27.9373 31.9565 26.3207V10.559L33.9299 11.1623C34.2111 11.2481 34.5086 11.0899 34.5946 10.8086C34.6804 10.5274 34.5221 10.2299 34.2409 10.1439L24.655 7.21456C24.5539 7.18376 24.4461 7.18376 24.345 7.21456L14.756 10.1439C14.4761 10.2313 14.3194 10.5283 14.4054 10.8086C14.4914 11.0898 14.7889 11.2481 15.0701 11.1623L17.0435 10.559V26.3207C15.4941 27.9373 14.3815 30.1399 14.3815 32.8804V37.8142C14.3815 38.8023 15.0622 39.6404 15.9783 39.8781V40.5626C15.9783 41.0701 16.0546 41.5739 16.1915 42.0678C14.0146 40.4658 11.8234 38.4223 10.0728 36.2539C7.87163 33.5276 6.39233 30.6016 6.39233 28.217V22.8775C9.37233 22.6065 11.7164 20.093 11.7163 17.0438C11.7163 13.9947 9.37231 11.4811 6.39233 11.2102V5.72807L24.4979 1.08134ZM24.4979 8.27981L30.8913 10.2334V25.3491C29.8852 24.5481 28.7815 23.9438 27.6946 23.5359V17.307C27.6934 17.0145 27.4566 16.7776 27.1641 16.7765H21.8359C21.5434 16.7776 21.3066 17.0145 21.3054 17.307V23.5349C20.2185 23.9429 19.1156 24.5483 18.1087 25.3501V10.2333L24.4979 8.27981ZM22.9022 10.9179C22.6088 10.9185 22.3712 11.1561 22.3706 11.4494V13.5798C22.3695 13.8744 22.6076 14.1139 22.9022 14.1145H26.0978C26.3924 14.1139 26.6305 13.8744 26.6294 13.5798V11.4494C26.6288 11.1561 26.3912 10.9185 26.0978 10.9179H22.9022ZM23.4369 11.9841H25.5631V13.0493H23.4369V11.9841ZM5.85766 12.2514C8.51133 12.2514 10.6511 14.3902 10.6511 17.0438C10.6511 19.6975 8.51133 21.8362 5.85766 21.8362C3.20397 21.8362 1.06518 19.6975 1.0652 17.0438C1.0652 14.3902 3.20399 12.2514 5.85766 12.2514ZM43.1423 12.2514C45.796 12.2514 47.9348 14.3902 47.9348 17.0438C47.9348 19.6975 45.796 21.8362 43.1423 21.8362C40.4887 21.8362 38.3489 19.6975 38.3489 17.0438C38.3489 14.3902 40.4887 12.2514 43.1423 12.2514ZM43.1423 13.7255C42.8482 13.7243 42.6088 13.9618 42.6077 14.2559H42.0761C41.7803 14.2548 41.5403 14.4949 41.5414 14.7907V16.9221C41.5426 17.2162 41.782 17.4537 42.0761 17.4526C42.608 17.4526 43.1409 17.4526 43.6729 17.4526V18.5178H43.1423H42.0761C41.7819 18.5167 41.5425 18.7542 41.5414 19.0484C41.5403 19.3442 41.7803 19.5842 42.0761 19.583H42.6077C42.6082 19.8776 42.8478 20.1157 43.1423 20.1146C43.4353 20.1135 43.6723 19.8759 43.6729 19.583H44.2076C44.5017 19.5818 44.7392 19.3425 44.7381 19.0484V16.9221C44.7392 16.6279 44.5017 16.3886 44.2076 16.3874C43.6743 16.3874 43.1409 16.3874 42.6077 16.3874V15.3212H43.1423H44.2076C44.5001 15.3201 44.7369 15.0832 44.7381 14.7907C44.7392 14.4965 44.5017 14.2571 44.2076 14.2559H43.6729C43.6717 13.9634 43.4349 13.7266 43.1423 13.7255ZM4.52508 14.1145C3.97604 14.1145 3.5064 14.3923 3.1842 14.7636C2.862 15.1349 2.662 15.6091 2.662 16.1159C2.662 17.4183 3.45223 18.3833 4.18285 18.9974C4.91346 19.6115 5.64545 19.9294 5.64545 19.9294C5.78112 19.9886 5.93524 19.9886 6.0709 19.9294C6.0709 19.9294 6.80289 19.6115 7.53349 18.9974C8.26411 18.3833 9.05434 17.4183 9.05434 16.1159C9.05434 15.6091 8.85746 15.1349 8.53526 14.7636C8.21308 14.3923 7.74028 14.1145 7.19126 14.1145C6.53612 14.1145 6.08821 14.4681 5.85766 14.691C5.65531 14.4731 5.17798 14.1145 4.52508 14.1145ZM4.52508 15.1797C4.8683 15.1797 5.26253 15.5212 5.34273 15.8402C5.47901 16.3719 6.23306 16.375 6.37361 15.8443C6.45594 15.5281 6.85692 15.1796 7.19126 15.1796C7.37766 15.1796 7.57039 15.2754 7.7301 15.4593C7.88993 15.6433 7.98913 15.9033 7.98913 16.1158C7.98913 16.9823 7.44991 17.6786 6.849 18.1838C6.35378 18.6 6.01622 18.7418 5.85766 18.8173C5.69883 18.7416 5.36646 18.5998 4.8715 18.1838C4.2706 17.6786 3.72721 16.9823 3.72721 16.1158C3.72721 15.9033 3.82665 15.6434 3.98624 15.4593C4.14587 15.2754 4.33874 15.1797 4.52508 15.1797ZM22.3706 17.8417H26.6294V23.1968C25.8787 23.0006 25.1547 22.9014 24.4979 22.9014C23.8417 22.9014 23.1198 22.9998 22.3706 23.1958V17.8417ZM24.4979 23.9676C26.0849 23.9676 28.4079 24.718 30.2703 26.2166C32.1326 27.7153 33.5523 29.9137 33.5523 32.8804V37.8142C33.5523 38.2168 33.3416 38.5586 33.0217 38.7401V35.6641C33.0206 35.3683 32.7786 35.1301 32.4829 35.1335C30.7059 35.1497 29.2945 33.7362 29.2945 31.9567C29.2953 31.7308 29.1536 31.5291 28.9408 31.4532C28.7299 31.3775 28.4941 31.4411 28.351 31.6144C27.1354 33.0731 25.0894 33.9801 22.8741 34.4959C20.6588 35.0118 18.2951 35.1425 16.5129 35.1336C16.2188 35.1325 15.9794 35.37 15.9783 35.6641V38.7422C15.6578 38.5612 15.4477 38.2183 15.4477 37.8143V32.8804C15.4477 29.9137 16.8684 27.7152 18.7308 26.2166C20.5931 24.718 22.9109 23.9676 24.4979 23.9676ZM31.9565 36.1785V40.5626C31.9565 42.1426 30.816 44.0376 29.2675 45.4933C27.7189 46.949 25.7679 47.9348 24.4979 47.9348C23.2172 47.9348 21.275 46.9908 19.7294 45.5599C18.4751 44.3984 17.0441 42.4462 17.0441 40.5626V36.196C18.8168 36.1819 20.9653 36.0345 23.115 35.534C25.4597 35.1939 27.5756 33.8098 28.3841 33.0967C28.6257 34.1557 29.7607 35.893 31.9565 36.1785Z" fill="#003781"/>
</svg>
