<svg width="40" height="33" viewBox="0 0 40 33" fill="none" xmlns="http://www.w3.org/2000/svg">
<path d="M24.9911 16.4058C24.8711 16.2668 24.6622 16.2489 24.52 16.37C24.3822 16.491 24.3644 16.7018 24.4844 16.8452C25.3333 17.8451 26.6533 18.3652 28.4044 18.3966V20.0332C28.4044 20.217 28.5556 20.3694 28.7378 20.3694C28.92 20.3694 29.0711 20.217 29.0711 20.0332V18.3697C30.5022 18.2173 31.76 17.5402 32.4267 16.5269C32.8622 15.8678 33.2578 14.7648 32.6311 13.2269C31.9022 11.8773 30.1778 11.3303 29.1467 11.003C29.12 10.994 29.0978 10.9851 29.0667 10.9761V4.91861C30.56 5.02622 31.6267 5.50598 32.4844 6.46101C32.6089 6.6 32.8178 6.60897 32.9556 6.48342C33.0933 6.35788 33.1022 6.14715 32.9778 6.00815C32 4.91861 30.7467 4.35815 29.0667 4.24606V2.59158C29.0667 2.40774 28.9156 2.2553 28.7333 2.2553C28.5511 2.2553 28.4 2.40774 28.4 2.59158V4.23261C27.1511 4.2909 25.96 4.98587 25.2933 6.05299C24.6489 7.07527 24.5911 8.27242 25.1378 9.33954C25.8133 10.5591 27.4 11.124 28.4044 11.4603V17.7196C26.8622 17.6927 25.7111 17.2488 24.9911 16.4058ZM32.0311 13.5094C32.4222 14.4823 32.3689 15.397 31.8711 16.1458C31.32 16.9798 30.2756 17.5447 29.0711 17.6882V11.68C30.0133 11.9804 31.4756 12.4736 32.0311 13.5094ZM25.7244 9.02119C25.2889 8.16929 25.3378 7.24117 25.8578 6.41168C26.4044 5.53736 27.3822 4.9769 28.4044 4.90516V10.7519C27.5289 10.447 26.2311 9.93139 25.7244 9.02119ZM11.2622 22.6158C17.4711 22.6158 22.5244 17.5447 22.5244 11.3079C22.5244 5.07106 17.4711 0 11.2622 0C5.05333 0 0 5.07106 0 11.3079C0 17.5447 5.05333 22.6158 11.2622 22.6158ZM11.2622 0.672554C17.1067 0.672554 21.8578 5.4432 21.8578 11.3079C21.8578 17.1726 17.1022 21.9432 11.2622 21.9432C5.42222 21.9432 0.666667 17.1726 0.666667 11.3079C0.666667 5.4432 5.42222 0.672554 11.2622 0.672554ZM4.19111 13.9757H8.60889V18.4101C8.60889 18.5939 8.76 18.7463 8.94222 18.7463H13.5822C13.7644 18.7463 13.9156 18.5939 13.9156 18.4101V13.9757H18.3333C18.5156 13.9757 18.6667 13.8232 18.6667 13.6394V8.98084C18.6667 8.79701 18.5156 8.64456 18.3333 8.64456H13.9156V4.21019C13.9156 4.02636 13.7644 3.87391 13.5822 3.87391H8.94222C8.76 3.87391 8.60889 4.02636 8.60889 4.21019V8.64456H4.19111C4.00889 8.64456 3.85778 8.79701 3.85778 8.98084V13.6394C3.85778 13.8232 4.00889 13.9757 4.19111 13.9757ZM4.52444 9.31712H8.94222C9.12444 9.31712 9.27556 9.16467 9.27556 8.98084V4.54647H13.2489V8.98084C13.2489 9.16467 13.4 9.31712 13.5822 9.31712H18V13.3031H13.5822C13.4 13.3031 13.2489 13.4556 13.2489 13.6394V18.0738H9.27556V13.6394C9.27556 13.4556 9.12444 13.3031 8.94222 13.3031H4.52444V9.31712ZM20.8622 3.69457C20.7333 3.56005 20.7378 3.34932 20.8711 3.21929C22.9867 1.14334 25.7822 0 28.7378 0C34.9467 0 40 5.07106 40 11.3079C40 17.5447 34.9467 22.6158 28.7378 22.6158C25.7822 22.6158 22.9867 21.4724 20.8711 19.3965C20.7378 19.2664 20.7378 19.0557 20.8622 18.9212C20.9911 18.7867 21.2044 18.7867 21.3333 18.9167C23.3244 20.8716 25.9556 21.9477 28.7378 21.9477C34.5822 21.9477 39.3333 17.177 39.3333 11.3124C39.3333 5.44769 34.5778 0.677038 28.7378 0.677038C25.9556 0.677038 23.3289 1.75312 21.3333 3.70802C21.2044 3.83804 20.9911 3.83356 20.8622 3.70353V3.69457ZM38.6 28.4759H35.1333V24.6872C35.1333 24.5034 34.9822 24.351 34.8 24.351H5.19556C5.01333 24.351 4.86222 24.5034 4.86222 24.6872V28.4759H1.39556C1.21333 28.4759 1.06222 28.6284 1.06222 28.8122V32.6637C1.06222 32.8476 1.21333 33 1.39556 33C1.57778 33 1.72889 32.8476 1.72889 32.6637V29.1485H38.2667V32.6637C38.2667 32.8476 38.4178 33 38.6 33C38.7822 33 38.9333 32.8476 38.9333 32.6637V28.8122C38.9333 28.6284 38.7822 28.4759 38.6 28.4759ZM5.52889 25.0235H34.4711V28.4759H5.52889V25.0235Z" fill="#003781"/>
</svg>
