<svg width="49" height="48" viewBox="0 0 49 48" fill="none" xmlns="http://www.w3.org/2000/svg">
<path fill-rule="evenodd" clip-rule="evenodd" d="M34.4046 47.9855C24.5056 48.0182 14.603 47.9855 4.70191 47.9855H4.68171H4.68373C2.10343 47.9712 0.0141732 45.8599 0 43.2525V38.1356C0 37.9804 0.060619 37.8334 0.167709 37.7231C0.2748 37.6149 0.422305 37.5537 0.573849 37.5537H6.39521V4.75344C6.40127 2.13173 8.50267 0.00616801 11.0992 0H42.6387C45.2351 0.00612515 47.3365 2.13167 47.3426 4.75344V9.93154C47.3447 10.0847 47.284 10.2317 47.1749 10.342C47.0678 10.4502 46.9224 10.5114 46.7688 10.5114H39.0847V17.0594C39.1716 17.0554 39.2585 17.0533 39.3454 17.0533C42.0449 17.0533 44.4777 18.697 45.5102 21.2166C46.5448 23.7363 45.9729 26.6377 44.0635 28.567C43.7786 28.8529 43.4694 29.1142 43.138 29.345L48.2178 30.7212H48.2198C48.4885 30.7947 48.7169 30.9723 48.8563 31.2153C48.9977 31.4603 49.0361 31.7502 48.9654 32.0239L45.5607 44.8669C45.488 45.1385 45.3122 45.3713 45.0718 45.5122C45.0556 45.5203 45.0414 45.5285 45.0253 45.5367C44.7929 45.6592 44.5242 45.6878 44.2716 45.6204L38.9856 44.189C38.533 46.386 36.6256 47.9665 34.4049 47.9848L34.4046 47.9855ZM11.4104 35.1565H13.9018C14.2109 35.1463 14.4574 34.8891 14.4574 34.5746C14.4574 34.2622 14.2109 34.005 13.9018 33.9947H11.4104C11.0992 34.0049 10.8527 34.2622 10.8527 34.5746C10.8527 34.889 11.0992 35.1464 11.4104 35.1565ZM15.4859 35.1565C15.1747 35.1463 14.9282 34.8891 14.9282 34.5746C14.9282 34.2622 15.1748 34.005 15.4859 33.9947H26.0496L27.0781 30.107H15.4861C15.1688 30.107 14.9102 29.8477 14.9102 29.5271C14.9102 29.2066 15.1688 28.9472 15.4861 28.9472H27.3854L28.0683 26.3704V26.3684C28.141 26.0968 28.3168 25.864 28.5593 25.7231C28.5755 25.715 28.5896 25.7068 28.6058 25.6986C28.8361 25.5782 29.1049 25.5475 29.3574 25.6149L33.3097 26.6849V26.6869C33.0672 26.1683 32.8894 25.621 32.7843 25.0575H15.4863C15.1691 25.0575 14.9104 24.7982 14.9104 24.4776C14.9104 24.157 15.1691 23.8977 15.4863 23.8977H32.6716V23.7997C32.6716 20.6226 34.8639 17.8784 37.9353 17.2067V4.75362C37.9373 3.49378 38.4344 2.28705 39.3174 1.39885C39.3982 1.31718 39.4811 1.23959 39.568 1.16404L11.0979 1.162C9.13593 1.17017 7.54775 2.77504 7.5417 4.75565V37.5538H25.1046L25.7411 35.1546L15.4859 35.1565ZM11.4104 30.107H13.9018C14.219 30.107 14.4756 29.8477 14.4756 29.5271C14.4756 29.2066 14.219 28.9472 13.9018 28.9472H11.4104C11.0932 28.9472 10.8345 29.2066 10.8345 29.5271C10.8345 29.8477 11.0931 30.107 11.4104 30.107ZM34.2329 28.1346L29.1531 26.7584L28.7773 28.1755L47.4575 33.2331L47.8333 31.8161L41.6302 30.1377C39.1914 31.032 36.4615 30.4195 34.6269 28.5675C34.4895 28.4287 34.3602 28.2837 34.2349 28.1347L34.2329 28.1346ZM43.251 19.8507C41.388 17.966 38.4662 17.6761 36.2761 19.1565C34.0837 20.6368 33.2311 23.475 34.2393 25.9355C35.2496 28.3959 37.838 29.7946 40.4223 29.276C43.0086 28.7553 44.8696 26.4623 44.8716 23.7995C44.8736 22.3172 44.2895 20.8961 43.251 19.8507ZM38.7693 19.4321V19.6445C37.7105 19.9119 36.9689 20.8737 36.9689 21.9783C36.9689 23.8241 38.0904 24.0936 39.2138 24.3631C39.8947 24.5285 40.5756 24.6939 40.5756 25.6189H40.5736C40.5736 26.3049 40.024 26.8603 39.3451 26.8603C38.6682 26.8603 38.1186 26.3049 38.1186 25.6189C38.1085 25.3064 37.8539 25.0574 37.5447 25.0574C37.2336 25.0574 36.979 25.3065 36.9689 25.6189C36.9709 26.7215 37.7124 27.6831 38.7712 27.9506V28.163C38.7712 28.4835 39.0279 28.7429 39.3451 28.7429C39.6624 28.7429 39.921 28.4836 39.921 28.163V27.9506C40.9798 27.6831 41.7213 26.7214 41.7213 25.6189C41.7213 23.773 40.5999 23.5035 39.4765 23.234C38.7956 23.0686 38.1146 22.9073 38.1146 21.9783H38.1166C38.1166 21.2922 38.6662 20.7368 39.3452 20.7368C40.0241 20.7368 40.5737 21.2922 40.5737 21.9783C40.5676 22.1355 40.6262 22.2866 40.7353 22.3989C40.8424 22.5132 40.9919 22.5765 41.1475 22.5765C41.3031 22.5765 41.4506 22.5132 41.5597 22.3989C41.6668 22.2866 41.7254 22.1355 41.7214 21.9783C41.7214 20.8757 40.9778 19.914 39.919 19.6465V19.4321C39.919 19.1115 39.6624 18.8522 39.3451 18.8522C39.0279 18.8522 38.7713 19.1115 38.7713 19.4321L38.7693 19.4321ZM37.8762 34.2557C37.5711 34.174 37.2559 34.3578 37.175 34.6661L36.6699 36.5671C36.6315 36.7161 36.6517 36.8734 36.7285 37.0081C36.8032 37.1408 36.9285 37.2368 37.076 37.2776L44.4895 39.2847C44.7946 39.3664 45.1098 39.1827 45.1907 38.8743L45.6958 36.9734C45.7766 36.663 45.5948 36.3465 45.2897 36.2628L37.8762 34.2577V34.2557ZM44.4393 37.2327L38.1332 35.5278L37.9251 36.3098L44.2312 38.0147L44.4373 37.2327H44.4393ZM37.5591 39.6625L38.9351 40.0341V40.0362C39.2423 40.1178 39.5554 39.9341 39.6383 39.6257C39.7191 39.3154 39.5373 38.9989 39.2322 38.9152L37.8561 38.5435C37.549 38.4598 37.2358 38.6436 37.1529 38.954C37.0721 39.2623 37.254 39.5808 37.5591 39.6625ZM34.3464 38.7926L35.7224 39.1663C36.0255 39.2398 36.3326 39.056 36.4134 38.7518C36.4922 38.4476 36.3185 38.1352 36.0194 38.0453L34.6434 37.6737C34.3362 37.592 34.0231 37.7758 33.9402 38.0841C33.8594 38.3924 34.0413 38.7109 34.3464 38.7926ZM31.1337 37.9228L32.5097 38.2965H32.5117C32.8148 38.372 33.1199 38.1882 33.2007 37.884C33.2815 37.5798 33.1058 37.2653 32.8067 37.1775L31.4307 36.8059V36.8038C31.1256 36.7222 30.8104 36.9059 30.7295 37.2143C30.6467 37.5246 30.8285 37.8411 31.1356 37.9248L31.1337 37.9228ZM27.9209 37.053L29.297 37.4266L29.299 37.4287C29.6041 37.5103 29.9193 37.3266 30.0002 37.0182C30.083 36.7079 29.9011 36.3914 29.594 36.3077L28.218 35.934C27.9129 35.8523 27.5977 36.0361 27.5168 36.3444C27.434 36.6548 27.6158 36.9713 27.923 37.055L27.9209 37.053ZM46.6678 36.1831L27.9954 31.1254L25.797 39.4172L44.4772 44.4749L46.6756 36.1831H46.6678ZM28.2929 30.0067L46.973 35.0644L47.1609 34.3538L28.4808 29.2962L28.2929 30.0067ZM24.7972 38.7151H1.14609V43.2501C1.15822 45.2184 2.73629 46.8131 4.68619 46.8253H31.3054C31.2186 46.7498 31.1357 46.6722 31.0549 46.5905C30.1719 45.7003 29.6728 44.4915 29.6728 43.2317V41.6676L25.4073 40.5119C25.1386 40.4384 24.9103 40.2608 24.7728 40.0158C24.6314 39.7728 24.593 39.4829 24.6637 39.2092L24.7951 38.7131L24.7972 38.7151ZM30.8245 41.98V43.2337L30.8225 43.2317C30.8305 45.2102 32.4126 46.8131 34.3706 46.8253H34.3888C36.0962 46.8151 37.5591 45.5839 37.8763 43.8891L30.8223 41.978L30.8245 41.98ZM11.4108 25.0572H13.9022C14.2194 25.0572 14.476 24.7979 14.476 24.4773C14.476 24.1568 14.2194 23.8974 13.9022 23.8974H11.4108C11.0936 23.8974 10.8349 24.1567 10.8349 24.4773C10.8349 24.7979 11.0936 25.0572 11.4108 25.0572ZM29.0849 11.6747C29.0829 11.052 28.5838 10.5477 27.9696 10.5477H25.1993V7.75031C25.1993 7.47262 25.0983 7.20512 24.9124 6.99891C24.9003 6.98258 24.8861 6.96829 24.872 6.95399H24.874C24.6639 6.74368 24.381 6.62322 24.084 6.62525H21.3926C21.0976 6.62525 20.8147 6.74368 20.6066 6.95399C20.3964 7.1643 20.2792 7.45016 20.2792 7.74825V10.5476H17.507C17.212 10.5476 16.9311 10.6661 16.723 10.8764C16.5129 11.0867 16.3957 11.3726 16.3957 11.6706V14.3924C16.3957 14.6905 16.5129 14.9764 16.723 15.1867C16.9311 15.397 17.212 15.5154 17.507 15.5174H20.2772V18.3168V18.3148C20.2792 18.9376 20.7763 19.4398 21.3926 19.4419H24.086H24.084C24.379 19.4419 24.6619 19.3234 24.87 19.1111H24.874C25.0821 18.9008 25.1993 18.6149 25.1993 18.3168V15.5256H27.9696C28.2646 15.5256 28.5475 15.4072 28.7556 15.1949C28.9637 14.9866 29.0809 14.7007 29.0809 14.4026V11.6747L29.0849 11.6747ZM27.9352 14.3618V11.7094H24.6255C24.3082 11.7094 24.0516 11.4501 24.0516 11.1295V7.78502H21.4269V11.1295C21.4248 11.4501 21.1682 11.7094 20.853 11.7094H17.5413V14.3638H20.853C21.1682 14.3638 21.4269 14.6231 21.4269 14.9437V18.2882H24.0516V14.9437C24.0516 14.7885 24.1122 14.6415 24.2193 14.5333C24.3284 14.4251 24.4739 14.3638 24.6254 14.3638L27.9352 14.3618ZM22.7381 3.36653C19.7638 3.36449 16.9571 4.76317 15.1467 7.14804C13.3342 9.53088 12.724 12.6323 13.4939 15.536C14.2637 18.4395 16.3247 20.8165 19.0726 21.968C21.8206 23.1175 24.9426 22.9134 27.5186 21.4106C30.0949 19.9078 31.8325 17.2799 32.2226 14.2991C32.6105 11.32 31.6063 8.32655 29.5029 6.2012C27.7106 4.38598 25.2758 3.36711 22.738 3.36711L22.7381 3.36653ZM28.693 7.0194C26.8421 5.14908 24.2355 4.25472 21.6389 4.59982C19.0445 4.94489 16.7552 6.49058 15.4457 8.78152C14.1384 11.0725 13.9585 13.8494 14.9587 16.2934C15.9609 18.7355 18.03 20.5711 20.5597 21.2551C23.0875 21.9391 25.7867 21.398 27.8641 19.787C29.9412 18.176 31.1576 15.6809 31.1576 13.0367C31.1617 10.7784 30.2751 8.61425 28.693 7.0194ZM39.0849 4.75297V9.34918H46.1953V4.75297C46.1711 2.78669 44.5869 1.20423 42.6391 1.20423C40.6933 1.20423 39.1092 2.78663 39.0849 4.75297Z" fill="#003781"/>
</svg>
