<svg width="45" height="45" viewBox="0 0 45 45" fill="none" xmlns="http://www.w3.org/2000/svg">
<path d="M0.589999 44.615C0.353999 44.615 0 44.379 0 44.021V12.747C0 11.448 1.062 10.387 2.36 10.387H8.145V2.596C8.145 1.179 9.325 0 10.74 0H33.874C35.288 0 36.473 1.179 36.473 2.596V10.387H42.136C43.434 10.387 44.498 11.448 44.498 12.747V44.022C44.498 44.379 44.259 44.616 43.904 44.616C29.507 44.615 15.107 44.615 0.589999 44.615ZM16.761 43.433V36.118C16.761 35.764 16.997 35.528 17.35 35.528H27.266C27.62 35.528 27.857 35.764 27.857 36.118V43.433H35.289V2.596C35.289 1.771 34.582 1.179 33.875 1.179H10.74C9.913 1.179 9.324 1.771 9.324 2.596V43.433H16.761ZM28.564 9.559V11.094C28.564 11.919 27.857 12.629 27.03 12.629H24.551V15.108C24.551 15.933 23.842 16.641 23.017 16.641H21.481C20.654 16.641 20.065 15.933 20.065 15.108V12.629H17.468C16.641 12.629 16.051 11.92 16.051 11.094V9.559C16.051 8.734 16.642 8.144 17.468 8.144H20.065V5.545C20.065 4.72 20.654 4.012 21.481 4.012H23.017C23.842 4.012 24.551 4.72 24.551 5.545V8.144H27.03C27.857 8.144 28.564 8.734 28.564 9.559ZM27.384 11.094V9.559C27.384 9.441 27.266 9.323 27.03 9.323H23.961C23.608 9.323 23.372 8.969 23.372 8.734V5.546C23.372 5.428 23.254 5.192 23.018 5.192H21.482C21.366 5.192 21.248 5.427 21.248 5.546V8.734C21.248 8.969 21.01 9.323 20.656 9.323H17.47C17.352 9.323 17.234 9.441 17.234 9.559V11.094C17.234 11.212 17.352 11.448 17.47 11.448H20.656C21.01 11.448 21.248 11.684 21.248 12.038V15.108C21.248 15.343 21.366 15.462 21.482 15.462H23.018C23.254 15.462 23.372 15.344 23.372 15.108V12.038C23.372 11.684 23.608 11.448 23.961 11.448H27.03C27.266 11.447 27.384 11.212 27.384 11.094ZM8.145 11.565H2.36C1.771 11.565 1.179 12.155 1.179 12.746V43.433H8.145V11.565ZM42.136 11.565H36.473V43.433H43.316V12.747C43.315 12.155 42.843 11.565 42.136 11.565ZM14.281 19.592C14.281 18.883 15.462 18.883 15.462 19.592V22.899C15.462 23.724 14.281 23.724 14.281 22.899V19.592ZM17.941 19.592C17.941 18.883 19.122 18.883 19.122 19.592V22.899C19.122 23.724 17.941 23.724 17.941 22.899V19.592ZM21.717 19.592C21.717 18.883 22.898 18.883 22.898 19.592V22.899C22.898 23.724 21.717 23.724 21.717 22.899V19.592ZM25.376 19.592C25.376 18.883 26.554 18.883 26.554 19.592V22.899C26.554 23.724 25.376 23.724 25.376 22.899V19.592ZM29.152 19.592C29.152 18.883 30.332 18.883 30.332 19.592V22.899C30.332 23.724 29.152 23.724 29.152 22.899V19.592ZM14.281 26.793C14.281 25.964 15.462 25.964 15.462 26.793V30.095C15.462 30.803 14.281 30.803 14.281 30.095V26.793ZM17.941 26.793C17.941 25.964 19.122 25.964 19.122 26.793V30.095C19.122 30.803 17.941 30.803 17.941 30.095V26.793ZM21.717 26.793C21.717 25.964 22.898 25.964 22.898 26.793V30.095C22.898 30.803 21.717 30.803 21.717 30.095V26.793ZM25.376 26.793C25.376 25.964 26.554 25.964 26.554 26.793V30.095C26.554 30.803 25.376 30.803 25.376 30.095V26.793ZM29.152 26.793C29.152 25.964 30.332 25.964 30.332 26.793V30.095C30.332 30.803 29.152 30.803 29.152 30.095V26.793ZM21.717 43.433V36.707H17.941V43.433H21.717ZM22.898 43.433H26.676V36.707H22.898V43.433Z" fill="#003781"/>
</svg>
