<svg width="40" height="45" viewBox="0 0 40 45" fill="none" xmlns="http://www.w3.org/2000/svg">
<path d="M19.7572 0.0637616L12.9301 3.96348C12.6951 4.0964 12.6127 4.39482 12.7463 4.62946C12.8792 4.86449 13.1776 4.94691 13.4122 4.81328L14.6336 4.1149V10.1955C10.5896 11.7306 7.37718 14.9469 5.84865 18.9944C5.68917 18.9796 5.52772 18.9724 5.36468 18.9724C2.40712 18.9724 3.6218e-06 21.3807 3.6218e-06 24.3384C-1.48149e-05 27.2962 2.40712 29.7035 5.36468 29.7035C5.52877 29.7035 5.69118 29.6961 5.85151 29.6816C6.39698 31.1254 7.15712 32.4636 8.09227 33.6575H6.82994V32.6819C6.82887 32.4125 6.60962 32.1949 6.34025 32.1959H0.489683C0.220304 32.1949 0.00107295 32.4125 3.6218e-06 32.6819V43.4129C-0.00102883 43.6838 0.218811 43.9037 0.489683 43.9027H4.8788C5.78342 43.9027 6.55099 43.2767 6.76897 42.4373H11.1581L20.2574 44.7954C20.9286 44.9768 21.618 44.8432 22.1047 44.5506C26.0365 42.2724 29.9695 39.9871 33.9009 37.7049C35.3298 36.8799 35.3367 35.311 34.7935 34.3701C34.4578 33.7886 33.9176 33.3981 33.3139 33.2363C32.9738 33.1452 32.6136 33.1264 32.2602 33.1876C33.0353 32.116 33.6733 30.9399 34.1485 29.6814C34.3078 29.6962 34.4687 29.7034 34.6315 29.7034C37.5891 29.7034 40 27.2961 40 24.3383C40 21.3805 37.5891 18.9723 34.6315 18.9723C34.4689 18.9723 34.3084 18.9797 34.1494 18.9942C32.6208 14.9482 29.4091 11.7324 25.3665 10.1973V4.11491L26.5878 4.81329C26.8225 4.94678 27.1209 4.86436 27.2538 4.62948C27.3873 4.39485 27.3048 4.09636 27.07 3.96349L20.2429 0.0637898C20.154 0.0129044 20.0843 0 19.9983 0C19.9122 0 19.8307 0.0217259 19.7572 0.0637616ZM19.9983 1.04702L24.3912 3.55758V12.6814C24.3912 12.96 24.1801 13.1682 23.9015 13.1682H21.9504V6.34063C21.9514 6.07087 21.7333 5.85146 21.4635 5.85091H18.5368C18.2671 5.85146 18.0489 6.07087 18.05 6.34063V13.1682H16.0988C15.8202 13.1682 15.6091 12.96 15.6091 12.6814V3.55663L19.9983 1.04702ZM19.5124 3.41277C19.2445 3.41381 19.0276 3.63075 19.0265 3.89869C19.0255 4.1681 19.243 4.38735 19.5124 4.3884H20.488C20.7574 4.38735 20.9749 4.1681 20.9738 3.89869C20.9728 3.63075 20.7559 3.41381 20.488 3.41277H19.5124ZM19.0265 6.82655H20.9738V13.1682H19.0265V6.82655ZM25.3668 11.2446C28.9295 12.707 31.7648 15.5842 33.1732 19.1745C30.9221 19.812 29.2671 21.8864 29.2671 24.3385C29.2671 26.7904 30.9216 28.8638 33.1723 29.5016C32.4627 31.3111 31.3916 32.9385 30.0464 34.296L23.2594 38.2157C23.0572 37.3731 22.4108 36.6628 21.5178 36.4235L11.3458 33.6757C11.3049 33.6647 11.2626 33.6573 11.2201 33.6573H9.35657C8.28849 32.4385 7.42773 31.0351 6.82618 29.5013C9.07721 28.8632 10.7332 26.7897 10.7332 24.3382C10.7332 21.8871 9.0776 19.8135 6.82714 19.1751C8.23524 15.5845 11.0706 12.7096 14.6336 11.2471V12.681C14.6336 13.4833 15.2966 14.1435 16.0989 14.1435H23.9015C24.7038 14.1435 25.3668 13.4833 25.3668 12.681L25.3668 11.2446ZM5.36472 19.9482C7.79507 19.9482 9.75764 21.908 9.75764 24.3385C9.75766 26.769 7.79509 28.728 5.36472 28.728C2.93439 28.728 0.975601 26.769 0.975601 24.3385C0.975601 21.908 2.93439 19.9482 5.36472 19.9482ZM17.8052 19.9482C16.2648 19.9482 15.1233 21.3853 15.1233 22.8293C15.1233 24.7973 16.3356 26.2724 17.4927 27.2331C18.6497 28.1938 19.8077 28.6879 19.8077 28.6879C19.9305 28.7407 20.0698 28.7407 20.1926 28.6879C20.1926 28.6879 21.3516 28.1938 22.5086 27.2331C23.6657 26.2724 24.8771 24.7973 24.8771 22.8293C24.8771 21.3853 23.7355 19.9482 22.1952 19.9482C21.2249 19.9482 20.3578 20.5429 20.0021 21.095C19.6513 20.5475 18.7767 19.9482 17.8052 19.9482ZM34.6318 19.9482C37.0622 19.9482 39.0247 21.908 39.0247 24.3385C39.0248 26.769 37.0622 28.728 34.6318 28.728C32.2015 28.728 30.2427 26.769 30.2427 24.3385C30.2427 21.908 32.2015 19.9482 34.6318 19.9482ZM17.8052 20.9247C18.5809 20.9247 19.3499 21.5942 19.5267 22.2891C19.6508 22.7743 20.3379 22.7798 20.4699 22.2965C20.6517 21.608 21.4304 20.9245 22.1952 20.9245C23.0794 20.9245 23.9015 21.9309 23.9015 22.8291C23.9015 24.3928 22.9235 25.6221 21.8856 26.4839C20.9448 27.2651 20.1699 27.5937 20.0021 27.6692C19.8361 27.5947 19.0578 27.2661 18.1157 26.4839C17.0778 25.6221 16.0988 24.3928 16.0988 22.8291C16.0988 21.8578 16.9578 20.9247 17.8052 20.9247ZM34.6318 21.4612C34.3624 21.4622 34.1449 21.6815 34.1459 21.9509H33.6601C33.3907 21.9499 33.1714 22.1674 33.1704 22.4368V24.389C33.1693 24.6599 33.3892 24.8798 33.6601 24.8788C34.1481 24.8788 34.6334 24.8788 35.1215 24.8788V25.8506H33.6601C33.3892 25.8495 33.1693 26.0694 33.1704 26.3403C33.1714 26.6097 33.3907 26.8273 33.6601 26.8262H34.1459C34.1449 27.0956 34.3624 27.3149 34.6318 27.316C34.9027 27.317 35.1225 27.0971 35.1215 26.8262H35.6074C35.8768 26.8273 36.096 26.6097 36.0971 26.3403V24.389C36.0965 24.1192 35.8771 23.9011 35.6074 23.9022C35.1193 23.9022 34.634 23.9022 34.1459 23.9022V22.9265H35.6074C35.8783 22.9276 36.0981 22.7077 36.0971 22.4368C36.096 22.1674 35.8768 21.9498 35.6074 21.9509H35.1215C35.1225 21.68 34.9027 21.4601 34.6318 21.4612ZM5.36472 22.4368C5.09532 22.4378 4.87779 22.6571 4.87884 22.9265V23.9022H3.90326C3.63462 23.9027 3.41695 24.1204 3.41644 24.389C3.41539 24.6588 3.63349 24.8782 3.90326 24.8788H4.87884V25.8506C4.87779 26.12 5.09532 26.3393 5.36472 26.3403C5.63561 26.3414 5.85547 26.1215 5.8544 25.8506V24.8788H6.82998C7.09975 24.8782 7.31787 24.6588 7.31682 24.389C7.3163 24.1204 7.09862 23.9027 6.82998 23.9022H5.8544V22.9265C5.85547 22.6556 5.63561 22.4357 5.36472 22.4368ZM0.975601 33.1679H5.8544V41.9506C5.8544 42.4995 5.42777 42.9271 4.87884 42.9271H0.975601V33.1679ZM33.9516 34.861C34.3611 35.5704 34.0998 36.4661 33.419 36.8551C29.4883 39.1409 25.5523 41.4246 21.6189 43.7085C21.2949 43.8956 20.9018 43.9584 20.5062 43.8523C17.4547 43.0573 14.3966 42.269 11.3421 41.4789C11.3025 41.4679 11.2614 41.4623 11.2203 41.4605H6.8302V34.6329H11.1555L21.2627 37.3626C22.0889 37.584 22.4962 38.4212 22.2991 39.1567C22.0874 39.9468 21.3 40.4031 20.51 40.1934L11.3535 37.579C11.0947 37.5056 10.8253 37.6557 10.7514 37.9143C10.6786 38.1729 10.8285 38.4416 11.0868 38.5155L20.247 41.1338C21.334 41.4628 22.8894 40.8937 23.2596 39.3406L31.9531 34.3233C32.7048 33.8893 33.5674 34.2259 33.9516 34.861Z" fill="#003781"/>
</svg>
