<svg width="49" height="48" viewBox="0 0 49 48" fill="none" xmlns="http://www.w3.org/2000/svg">
<path d="M8.09494 31.4748L10.1552 30.6483C11.4804 30.0829 12.6155 30.2603 13.7924 30.4438C14.3371 30.5288 14.8942 30.6162 15.4888 30.6162H23.8958C24.6111 30.6162 25.2623 30.91 25.7344 31.3812C26.1899 31.8382 26.4786 32.4584 26.5002 33.1415H28.5893L43.6213 25.4494C44.256 25.1248 44.9669 25.0564 45.604 25.227C46.2343 25.3964 46.7994 25.7986 47.1545 26.4151L47.7344 27.4215C48.0785 28.035 48.1468 28.7328 47.9769 29.366C47.8046 30.0096 47.386 30.5904 46.7661 30.9488L28.0901 41.9139C28.0175 41.9564 27.9387 41.9792 27.8599 41.9841L11.3795 43.0231L8.09494 45.2644V46.0787C8.09494 46.3663 7.86104 46.6003 7.57358 46.6003H5.96149V47.0204C5.96149 47.308 5.72758 47.5421 5.44013 47.5421H0.521361C0.233905 47.5421 0 47.308 0 47.0204V30.3015C0 30.0139 0.233905 29.7798 0.521361 29.7798H5.44013C5.72758 29.7798 5.96149 30.0139 5.96149 30.3015V30.7216H7.57358C7.86104 30.7216 8.09494 30.9556 8.09494 31.2432V31.4748ZM34.2836 24.5458V24.8372C34.2836 25.1248 34.0497 25.3588 33.7623 25.3588C33.4748 25.3588 33.2409 25.1248 33.2409 24.8372V24.5458C33.0261 24.467 32.8328 24.3395 32.6746 24.1781C32.3982 23.8961 32.2271 23.5087 32.2271 23.0824C32.2271 22.7948 32.461 22.5608 32.7485 22.5608C33.0359 22.5608 33.2698 22.7948 33.2698 23.0824C33.2698 23.2272 33.3259 23.3571 33.4157 23.4489C33.5031 23.5382 33.6269 23.5949 33.7623 23.5949C33.8971 23.5949 34.0202 23.5388 34.1082 23.4489C34.1981 23.3571 34.2547 23.2272 34.2547 23.0824C34.2547 22.6852 33.8657 22.4283 33.4773 22.1721C32.8525 21.7601 32.2271 21.3474 32.2271 20.3952C32.2271 19.969 32.3989 19.5804 32.6746 19.2995C32.8328 19.1382 33.0261 19.0107 33.2409 18.9318V18.6405C33.2409 18.3529 33.4748 18.1188 33.7623 18.1188C34.0497 18.1188 34.2836 18.3529 34.2836 18.6405V18.9318C34.4985 19.0107 34.6917 19.1382 34.8499 19.2995C35.1263 19.5816 35.2974 19.969 35.2974 20.3952C35.2974 20.6829 35.0635 20.9169 34.7761 20.9169C34.4886 20.9169 34.2547 20.6829 34.2547 20.3952C34.2547 20.2505 34.1987 20.1205 34.1088 20.0288C34.0208 19.9388 33.8977 19.8828 33.7623 19.8828C33.6269 19.8828 33.5031 19.9395 33.4157 20.0288C33.3265 20.1199 33.2698 20.2505 33.2698 20.3952C33.2698 20.7919 33.6589 21.0493 34.0473 21.3049C34.6714 21.717 35.2974 22.1302 35.2974 23.0824C35.2974 23.508 35.1263 23.8967 34.8493 24.1781C34.6911 24.3395 34.4985 24.467 34.2836 24.5458ZM33.7623 15.88C35.3793 15.88 36.843 16.5359 37.9024 17.5959C38.9617 18.6559 39.6173 20.1205 39.6173 21.7385C39.6173 23.3565 38.9617 24.8212 37.9024 25.8811C36.843 26.9411 35.3793 27.5971 33.7623 27.5971C32.9295 27.5971 32.1373 27.4234 31.4202 27.1099V28.6392C31.4202 28.9268 31.1862 29.1609 30.8988 29.1609H15.2906C15.0031 29.1609 14.7692 28.9268 14.7692 28.6392C14.7692 24.8236 14.7692 21.0087 14.7692 17.1931C14.7692 15.9034 15.2974 14.7301 16.1462 13.8801C16.9981 13.0283 18.1707 12.4999 19.4596 12.4999H26.7297C28.0218 12.4999 29.1974 13.0308 30.0475 13.89C30.7092 14.5595 31.1758 15.4273 31.3475 16.3998C32.0837 16.066 32.9011 15.88 33.7623 15.88ZM30.3774 26.5198C30.1078 26.3283 29.8555 26.1146 29.6222 25.8811C28.5628 24.8212 27.9073 23.3565 27.9073 21.7385C27.9073 20.1205 28.5628 18.6559 29.6222 17.5959C29.8524 17.3656 30.1023 17.1537 30.3682 16.964C30.3036 16.0488 29.9096 15.2296 29.3101 14.6229C28.6496 13.9553 27.7355 13.5432 26.7297 13.5432H21.8233L21.1659 21.2169H23.7487C24.0362 21.2169 24.2701 21.4509 24.2701 21.7385V25.6563C24.2701 25.944 24.0362 26.178 23.7487 26.178H15.8119V28.1175H30.3774V26.5198ZM37.165 18.3338C36.2946 17.4629 35.0906 16.9233 33.7623 16.9233C32.4339 16.9233 31.2299 17.4629 30.3596 18.3338C29.4892 19.2047 28.95 20.4094 28.95 21.7385C28.95 23.0677 29.4892 24.2724 30.3596 25.1433C31.2299 26.0142 32.4339 26.5537 33.7623 26.5537C35.0906 26.5537 36.2946 26.0142 37.165 25.1433C38.0353 24.2724 38.5746 23.0677 38.5746 21.7385C38.5746 20.4094 38.0353 19.2047 37.165 18.3338ZM12.4948 14.7757C12.2074 14.7757 11.9735 14.5416 11.9735 14.254C11.9735 13.9664 12.2074 13.7323 12.4948 13.7323H13.8521C14.1395 13.7323 14.3734 13.9664 14.3734 14.254C14.3734 14.5416 14.1395 14.7757 13.8521 14.7757H12.4948ZM13.0685 11.9234C12.8654 11.7201 12.8654 11.3888 13.0685 11.1855C13.2716 10.9823 13.6028 10.9823 13.8059 11.1855L14.7655 12.1457C14.9687 12.349 14.9687 12.6803 14.7655 12.8836C14.5624 13.0868 14.2312 13.0868 14.0281 12.8836L13.0685 11.9234ZM15.4894 10.3122C15.4894 10.0245 15.7233 9.7905 16.0108 9.7905C16.2982 9.7905 16.5321 10.0245 16.5321 10.3122V11.6703C16.5321 11.9579 16.2982 12.1919 16.0108 12.1919C15.7233 12.1919 15.4894 11.9579 15.4894 11.6703V10.3122ZM23.095 0C24.712 0 26.1758 0.655944 27.2351 1.71592C28.2944 2.7759 28.95 4.24054 28.95 5.85853C28.95 7.47653 28.2944 8.94116 27.2351 10.0011C26.1758 11.0611 24.712 11.7171 23.095 11.7171C21.478 11.7171 20.0142 11.0611 18.9549 10.0011C17.8955 8.94116 17.24 7.47653 17.24 5.85853C17.24 4.24054 17.8955 2.7759 18.9549 1.71592C20.0142 0.655944 21.478 0 23.095 0ZM26.4977 2.45378C25.6273 1.58289 24.4233 1.04335 23.095 1.04335C21.7667 1.04335 20.5627 1.58289 19.6923 2.45378C18.8219 3.32468 18.2827 4.5294 18.2827 5.85853C18.2827 7.18766 18.8219 8.39238 19.6923 9.26328C20.5627 10.1342 21.7667 10.6737 23.095 10.6737C24.4233 10.6737 25.6273 10.1342 26.4977 9.26328C27.3681 8.39238 27.9073 7.18766 27.9073 5.85853C27.9073 4.5294 27.3681 3.32468 26.4977 2.45378ZM21.0766 22.2602L20.8304 25.1347H23.2273V22.2602H21.0766ZM19.7852 25.1347C20.1164 21.2704 20.447 17.4075 20.7781 13.5432H19.4596C18.4563 13.5432 17.5435 13.954 16.8824 14.6143C16.8288 14.6679 16.7771 14.7227 16.7273 14.78L18.5911 25.1347H19.7852ZM17.5367 25.1347L15.9363 16.2477C15.855 16.5495 15.8119 16.8667 15.8119 17.1931V25.1347H17.5367ZM8.09494 44.0049L10.911 42.0833C10.9855 42.0321 11.0748 42.0001 11.1714 41.9939L27.6728 40.9543L46.2454 30.0484C46.6166 29.834 46.8677 29.4842 46.9711 29.0974C47.0733 28.7162 47.0339 28.2967 46.8308 27.9315L46.2552 26.9356C46.0466 26.5716 45.7117 26.3344 45.3356 26.2334C44.938 26.1275 44.493 26.1706 44.0941 26.3745L28.9869 34.1048C28.9063 34.1553 28.8115 34.1848 28.7099 34.1848H26.5014V34.3493C26.5014 35.065 26.2078 35.7166 25.7369 36.189C25.2623 36.6626 24.6111 36.9564 23.8958 36.9564H15.4888C15.2013 36.9564 14.9674 36.7224 14.9674 36.4347C14.9674 36.1471 15.2013 35.9131 15.4888 35.9131H23.8958C24.3261 35.9131 24.7176 35.7369 25.0007 35.4548C25.2826 35.1715 25.4587 34.7798 25.4587 34.3493V33.2234C25.4587 32.7935 25.2826 32.4012 25.0007 32.1178C24.7176 31.8358 24.3261 31.6596 23.8958 31.6596H15.4888C14.8456 31.6596 14.2331 31.5635 13.6336 31.4699C12.6068 31.3098 11.6164 31.1546 10.562 31.6036L8.09494 32.5952V44.0049ZM5.96149 45.557H7.05222V31.7649H5.96149V45.557ZM4.91877 30.8232H1.04272V46.4987H4.91877C4.91877 41.2733 4.91877 36.0486 4.91877 30.8232Z" fill="#003781"/>
</svg>
