<svg width="42" height="41" viewBox="0 0 42 41" fill="none" xmlns="http://www.w3.org/2000/svg">
<path fill-rule="evenodd" clip-rule="evenodd" d="M29.4897 40.9876C21.0048 41.0155 12.5168 40.9876 4.03021 40.9876H4.01289H4.01462C1.80294 40.9754 0.0121485 39.172 0 36.9448V32.5741C0 32.4416 0.0519591 32.316 0.143751 32.2218C0.235543 32.1294 0.361975 32.0771 0.491871 32.0771H5.48161V4.06023C5.4868 1.82085 7.288 0.00526851 9.51357 0H36.5474C38.773 0.0052319 40.5742 1.82081 40.5794 4.06023V8.48319C40.5811 8.614 40.5292 8.73957 40.4357 8.83375C40.3439 8.92619 40.2192 8.97851 40.0875 8.97851H33.5012V14.5716C33.5757 14.5681 33.6502 14.5664 33.7246 14.5664C36.0385 14.5664 38.1237 15.9703 39.0088 18.1225C39.8955 20.2747 39.4054 22.753 37.7687 24.401C37.5245 24.6452 37.2595 24.8684 36.9754 25.0655L41.3295 26.241H41.3312C41.5616 26.3038 41.7573 26.4555 41.8768 26.6631C41.9981 26.8723 42.031 27.12 41.9703 27.3537L39.0521 38.3238C38.9897 38.5558 38.839 38.7546 38.6329 38.875C38.6191 38.8819 38.607 38.8889 38.5931 38.8959C38.3939 39.0005 38.1636 39.025 37.9471 38.9674L33.4163 37.7448C33.0283 39.6214 31.3934 40.9714 29.49 40.987L29.4897 40.9876ZM9.78034 30.0295H11.9158C12.1808 30.0208 12.3921 29.8011 12.3921 29.5325C12.3921 29.2656 12.1808 29.0459 11.9158 29.0371H9.78034C9.51362 29.0459 9.30233 29.2656 9.30233 29.5325C9.30233 29.8011 9.51363 30.0208 9.78034 30.0295ZM13.2736 30.0295C13.0069 30.0208 12.7956 29.8011 12.7956 29.5325C12.7956 29.2656 13.0069 29.0459 13.2736 29.0371H22.3282L23.2098 25.7164H13.2738C13.0019 25.7164 12.7802 25.4949 12.7802 25.2211C12.7802 24.9473 13.0019 24.7258 13.2738 24.7258H23.4732L24.0585 22.5247V22.523C24.1209 22.291 24.2716 22.0922 24.4794 21.9719C24.4933 21.9649 24.5054 21.9579 24.5192 21.9509C24.7167 21.848 24.947 21.8219 25.1635 21.8794L28.5512 22.7933V22.7951C28.3433 22.3521 28.1909 21.8846 28.1009 21.4033H13.274C13.0021 21.4033 12.7804 21.1818 12.7804 20.908C12.7804 20.6341 13.0021 20.4126 13.274 20.4126H28.0042V20.3289C28.0042 17.6151 29.8834 15.2711 32.516 14.6974V4.06039C32.5177 2.98427 32.9438 1.95352 33.7006 1.19486C33.7699 1.12509 33.8409 1.05882 33.9154 0.994286L9.51251 0.992542C7.83079 0.999518 6.4695 2.37035 6.46431 4.06212V32.0772H21.5182L22.0638 30.0279L13.2736 30.0295ZM9.78034 25.7164H11.9158C12.1877 25.7164 12.4077 25.4949 12.4077 25.2211C12.4077 24.9473 12.1877 24.7258 11.9158 24.7258H9.78034C9.50842 24.7258 9.28673 24.9473 9.28673 25.2211C9.28673 25.4949 9.50841 25.7164 9.78034 25.7164ZM29.3425 24.0317L24.9884 22.8562L24.6663 24.0665L40.6778 28.3866L41 27.1762L35.683 25.7426C33.5926 26.5065 31.2527 25.9833 29.6802 24.4014C29.5624 24.2828 29.4516 24.159 29.3442 24.0317L29.3425 24.0317ZM37.0723 16.9558C35.4754 15.346 32.971 15.0983 31.0938 16.3628C29.2146 17.6273 28.4838 20.0515 29.348 22.1533C30.214 24.2549 32.4326 25.4496 34.6477 25.0066C36.8645 24.5618 38.4597 22.6032 38.4614 20.3288C38.4631 19.0626 37.9625 17.8488 37.0723 16.9558ZM33.2308 16.5983V16.7796C32.3233 17.0081 31.6877 17.8296 31.6877 18.7731C31.6877 20.3497 32.6489 20.58 33.6118 20.8102C34.1955 20.9515 34.7791 21.0927 34.7791 21.8828H34.7774C34.7774 22.4688 34.3063 22.9432 33.7244 22.9432C33.1442 22.9432 32.6731 22.4688 32.6731 21.8828C32.6644 21.6159 32.4462 21.4032 32.1812 21.4032C31.9145 21.4032 31.6962 21.6159 31.6876 21.8828C31.6893 22.8246 32.325 23.646 33.2325 23.8745V24.0559C33.2325 24.3297 33.4525 24.5512 33.7244 24.5512C33.9963 24.5512 34.218 24.3297 34.218 24.0559V23.8745C35.1255 23.646 35.7612 22.8245 35.7612 21.8828C35.7612 20.3061 34.7999 20.0759 33.837 19.8457C33.2533 19.7044 32.6697 19.5666 32.6697 18.7731H32.6714C32.6714 18.1871 33.1425 17.7127 33.7244 17.7127C34.3064 17.7127 34.7774 18.1871 34.7774 18.7731C34.7722 18.9074 34.8225 19.0365 34.916 19.1324C35.0078 19.23 35.1359 19.2841 35.2693 19.2841C35.4027 19.2841 35.5291 19.23 35.6226 19.1324C35.7144 19.0365 35.7646 18.9074 35.7612 18.7731C35.7612 17.8313 35.1238 17.0098 34.2163 16.7814V16.5982C34.2163 16.3244 33.9963 16.1029 33.7244 16.1029C33.4525 16.1029 33.2325 16.3244 33.2325 16.5982L33.2308 16.5983ZM32.4653 29.2601C32.2038 29.1903 31.9336 29.3473 31.8643 29.6106L31.4313 31.2344C31.3984 31.3617 31.4157 31.496 31.4815 31.6111C31.5456 31.7245 31.653 31.8064 31.7794 31.8413L38.1339 33.5557C38.3954 33.6255 38.6656 33.4685 38.7349 33.2052L39.1679 31.5814C39.2371 31.3163 39.0813 31.046 38.8197 30.9745L32.4653 29.2618V29.2601ZM38.0908 31.8029L32.6856 30.3466L32.5073 31.0146L37.9124 32.4709L38.0891 31.8029H38.0908ZM32.1935 33.8784L33.373 34.1958V34.1975C33.6362 34.2673 33.9047 34.1103 33.9757 33.847C34.045 33.5819 33.8891 33.3116 33.6276 33.24L32.4481 32.9226C32.1848 32.8511 31.9164 33.0081 31.8454 33.2732C31.7761 33.5365 31.932 33.8086 32.1935 33.8784ZM29.4397 33.1354L30.6192 33.4546C30.879 33.5173 31.1423 33.3604 31.2115 33.1005C31.2791 32.8406 31.1301 32.5738 30.8738 32.497L29.6943 32.1796C29.4311 32.1099 29.1626 32.2668 29.0916 32.5302C29.0223 32.7935 29.1782 33.0656 29.4397 33.1354ZM26.686 32.3924L27.8655 32.7116H27.8672C28.127 32.7761 28.3885 32.6191 28.4578 32.3593C28.527 32.0994 28.3764 31.8308 28.12 31.7558L26.9406 31.4384V31.4366C26.679 31.3669 26.4089 31.5238 26.3396 31.7872C26.2686 32.0523 26.4244 32.3226 26.6877 32.3941L26.686 32.3924ZM23.9322 31.6494L25.1117 31.9686L25.1134 31.9703C25.3749 32.0401 25.6451 31.8831 25.7144 31.6197C25.7854 31.3546 25.6296 31.0843 25.3663 31.0128L24.1868 30.6936C23.9253 30.6239 23.6551 30.7808 23.5858 31.0442C23.5148 31.3093 23.6707 31.5796 23.934 31.6511L23.9322 31.6494ZM40.001 30.9064L23.9961 26.5863L22.1117 33.6689L38.1233 37.989L40.0077 30.9064H40.001ZM24.251 25.6308L40.2626 29.9508L40.4237 29.3439L24.4121 25.0238L24.251 25.6308ZM21.2548 33.0692H0.982366V36.9428C0.992757 38.6241 2.34539 39.9862 4.01673 39.9966H26.8332C26.7588 39.9321 26.6878 39.8658 26.6185 39.7961C25.8616 39.0357 25.4338 38.0032 25.4338 36.9271V35.5911L21.7777 34.604C21.5474 34.5412 21.3517 34.3894 21.2339 34.1801C21.1126 33.9726 21.0797 33.725 21.1403 33.4912L21.2529 33.0674L21.2548 33.0692ZM26.421 35.858V36.9288L26.4193 36.9271C26.4262 38.6171 27.7823 39.9862 29.4605 39.9966H29.4761C30.9396 39.9879 32.1935 38.9362 32.4654 37.4886L26.4191 35.8562L26.421 35.858ZM9.78069 21.403H11.9162C12.1881 21.403 12.408 21.1815 12.408 20.9077C12.408 20.6339 12.1881 20.4124 11.9162 20.4124H9.78069C9.50878 20.4124 9.28708 20.6339 9.28708 20.9077C9.28708 21.1815 9.50877 21.403 9.78069 21.403ZM24.9299 9.97217C24.9282 9.44023 24.5004 9.00946 23.9739 9.00946H21.5994V6.62006C21.5994 6.38286 21.5128 6.15438 21.3535 5.97824C21.3431 5.96428 21.331 5.95208 21.3188 5.93987H21.3206C21.1405 5.76023 20.898 5.65733 20.6434 5.65907H18.3365C18.0836 5.65907 17.8411 5.76023 17.6628 5.93987C17.4827 6.11951 17.3822 6.36368 17.3822 6.6183V9.00944H15.006C14.7531 9.00944 14.5124 9.1106 14.334 9.29024C14.1539 9.46988 14.0534 9.71405 14.0534 9.96867V12.2935C14.0534 12.5481 14.1539 12.7923 14.334 12.9719C14.5124 13.1516 14.7531 13.2527 15.006 13.2545H17.3805V15.6456V15.6439C17.3822 16.1758 17.8083 16.6049 18.3365 16.6066H20.6451H20.6434C20.8963 16.6066 21.1387 16.5054 21.3171 16.3241H21.3206C21.499 16.1444 21.5994 15.9002 21.5994 15.6456V13.2615H23.9739C24.2268 13.2615 24.4692 13.1603 24.6476 12.9789C24.826 12.8011 24.9265 12.5569 24.9265 12.3023V9.97215L24.9299 9.97217ZM23.9444 12.2674V10.0018H21.1075C20.8356 10.0018 20.6157 9.78032 20.6157 9.50649V6.6497H18.3659V9.50649C18.3642 9.7803 18.1442 10.0018 17.874 10.0018H15.0354V12.2691H17.874C18.1442 12.2691 18.3659 12.4906 18.3659 12.7644V15.6212H20.6157V12.7644C20.6157 12.6319 20.6676 12.5063 20.7594 12.4139C20.8529 12.3214 20.9776 12.2691 21.1075 12.2691L23.9444 12.2674ZM19.4898 2.87558C16.9404 2.87383 14.5347 4.06854 12.9829 6.10562C11.4293 8.14096 10.9063 10.7901 11.5662 13.2703C12.226 15.7504 13.9926 17.7807 16.348 18.7643C18.7034 19.7462 21.3794 19.5718 23.5874 18.2882C25.7956 17.0046 27.285 14.7599 27.6193 12.2138C27.9519 9.66918 27.0911 7.11226 25.2882 5.29686C23.752 3.74636 21.6649 2.87607 19.4897 2.87607L19.4898 2.87558ZM24.594 5.99574C23.0075 4.39818 20.7733 3.63424 18.5477 3.92901C16.3239 4.22376 14.3616 5.54403 13.2391 7.50088C12.1186 9.45773 11.9644 11.8297 12.8217 13.9173C13.6808 16.0032 15.4543 17.5711 17.6226 18.1554C19.7892 18.7397 22.1029 18.2775 23.8835 16.9014C25.6639 15.5254 26.7066 13.3941 26.7066 11.1355C26.71 9.20658 25.9501 7.35801 24.594 5.99574ZM33.5014 4.05983V7.98576H39.596V4.05983C39.5752 2.38029 38.2174 1.02861 36.5478 1.02861C34.8799 1.02861 33.5222 2.38025 33.5014 4.05983Z" fill="#003781"/>
</svg>
