<svg width="46" height="46" viewBox="0 0 46 46" fill="none" xmlns="http://www.w3.org/2000/svg">
<path d="M21.2097 30.8905C21.2983 31.6057 21.9092 32.145 22.6306 32.145H25.8036C26.525 32.145 27.1358 31.6057 27.2244 30.8905L27.4937 28.717C27.544 28.3108 27.4174 27.9019 27.1461 27.595C26.8745 27.2876 26.4833 27.1113 26.0728 27.1113H22.3614C21.9509 27.1113 21.5597 27.2876 21.2881 27.595C21.0168 27.9019 20.8902 28.3109 20.9405 28.717L21.2097 30.8905ZM21.8343 28.0779C21.9696 27.9248 22.1567 27.8405 22.3613 27.8405H26.0727C26.2773 27.8405 26.4644 27.9248 26.5997 28.0779C26.7345 28.2304 26.7949 28.4255 26.7699 28.6274L26.5007 30.8009C26.4572 31.1515 26.1575 31.4158 25.8035 31.4158H22.6305C22.2765 31.4158 21.9767 31.1515 21.9333 30.8009L21.6641 28.6274C21.6391 28.4255 21.6995 28.2304 21.8343 28.0779Z" fill="#003781"/>
<path d="M26.1403 33.6951C26.0919 33.5439 25.9516 33.4414 25.7929 33.4414H22.6446C22.486 33.4414 22.3455 33.5439 22.2973 33.6951L20.4528 39.4685C20.414 39.5901 20.4415 39.7231 20.5255 39.8193L23.9441 43.7339C24.0133 43.8132 24.1134 43.8587 24.2187 43.8587C24.324 43.8587 24.4241 43.8132 24.4934 43.7339L27.9119 39.8193C27.9958 39.7231 28.0234 39.5901 27.9845 39.4685L26.1403 33.6951ZM24.2187 42.9398L21.21 39.4946L22.9108 34.1706H25.5265L27.2273 39.4946L24.2187 42.9398Z" fill="#003781"/>
<path d="M12.7627 20.9505V17.7271H15.9915C16.1929 17.7271 16.3561 17.5639 16.3561 17.3625V12.9174C16.3561 12.716 16.1929 12.5528 15.9915 12.5528H12.7627V9.32944C12.7627 9.12809 12.5994 8.96484 12.3981 8.96484H7.9463C7.74495 8.96484 7.5817 9.12809 7.5817 9.32944V12.5528H4.35288C4.15153 12.5528 3.98828 12.716 3.98828 12.9174V17.3625C3.98828 17.5639 4.15153 17.7271 4.35288 17.7271H7.5817V20.9505C7.5817 21.1518 7.74495 21.3151 7.9463 21.3151H12.3981C12.5994 21.3151 12.7627 21.1518 12.7627 20.9505ZM12.0335 17.3625V20.5859H8.3109V17.3625C8.3109 17.1612 8.14765 16.9979 7.9463 16.9979H4.71748V13.282H7.9463C8.14765 13.282 8.3109 13.1187 8.3109 12.9174V9.69405H12.0335V12.9174C12.0335 13.1187 12.1967 13.282 12.3981 13.282H15.6269V16.9979H12.3981C12.1967 16.9979 12.0335 17.1612 12.0335 17.3625Z" fill="#003781"/>
<path d="M46 10.7068C46 4.80307 41.19 0 35.2776 0C31.3248 0 27.8651 2.14714 26.0057 5.33448C25.4141 5.27642 24.8141 5.24533 24.218 5.24533C21.4479 5.24533 18.7946 5.85604 16.3267 7.05731C14.6168 5.75587 12.4837 4.98182 10.1726 4.98182C4.56335 4.98191 0 9.5386 0 15.1397C0 19.3413 2.56789 22.9552 6.21873 24.4988C6.58105 29.8376 9.26597 34.6816 13.6178 37.8406C14.8831 42.5013 19.1556 45.9397 24.218 45.9397C29.2804 45.9397 33.5529 42.5012 34.8182 37.8406C37.0562 36.2151 38.9162 34.0709 40.2006 31.63C41.5485 29.0684 42.2609 26.1746 42.2609 23.2616C42.2609 21.8915 42.1044 20.5283 41.7995 19.2049C44.3747 17.2282 46 14.1227 46 10.7068ZM0.729202 15.1397C0.729202 9.94076 4.9655 5.71111 10.1726 5.71111C15.3798 5.71111 19.6161 9.94076 19.6161 15.1397C19.6161 18.297 18.0436 21.2303 15.4096 22.9864C15.3233 23.0439 15.2655 23.1356 15.2509 23.2383L14.7898 26.4733L11.9215 24.511C11.8605 24.4693 11.7887 24.4473 11.7156 24.4473C11.6967 24.4473 11.6777 24.4488 11.6588 24.4518C11.1686 24.5292 10.6686 24.5684 10.1727 24.5684C4.9655 24.5683 0.729202 20.3386 0.729202 15.1397ZM24.218 45.2105C18.5648 45.2105 13.9655 40.6186 13.9655 34.9742C13.9655 29.3298 18.5648 24.7378 24.218 24.7378C29.8712 24.7378 34.4704 29.3298 34.4704 34.9742C34.4704 40.6186 29.8712 45.2105 24.218 45.2105ZM41.5317 23.2616C41.5317 26.0568 40.8483 28.8331 39.5552 31.2903C38.4524 33.3862 36.9076 35.2546 35.0561 36.7422C35.15 36.1664 35.1996 35.576 35.1996 34.9742C35.1996 28.9277 30.2733 24.0086 24.218 24.0086C18.1627 24.0086 13.2363 28.9277 13.2363 34.9742C13.2363 35.5767 13.286 36.1678 13.3801 36.7442C9.68299 33.7839 7.38117 29.4956 6.9709 24.7817C7.97802 25.116 9.05441 25.2976 10.1726 25.2976C10.6577 25.2976 11.1466 25.2627 11.6279 25.1938L14.8619 27.4063C14.9235 27.4485 14.9954 27.4701 15.0678 27.4701C15.1176 27.4701 15.1676 27.4598 15.2146 27.4392C15.33 27.3884 15.4109 27.2816 15.4287 27.1569L15.9498 23.5009C18.7053 21.5999 20.3452 18.4867 20.3452 15.1398C20.3452 12.1345 19.0309 9.43032 16.9467 7.56885C19.2286 6.51105 21.6719 5.97472 24.218 5.97472C24.6892 5.97472 25.1629 5.99441 25.6326 6.03224C24.9427 7.44552 24.5552 9.03181 24.5552 10.707C24.5552 15.2152 27.3804 19.2328 31.6066 20.7693L32.5335 25.0108C32.5614 25.1388 32.6559 25.242 32.7809 25.281C32.8167 25.2922 32.8532 25.2976 32.8896 25.2976C32.9805 25.2976 33.0697 25.2635 33.1381 25.1998L37.4356 21.1959C38.7934 20.9188 40.0482 20.3889 41.1555 19.6619C41.4052 20.8392 41.5317 22.0476 41.5317 23.2616ZM37.1936 20.5004C37.1265 20.5135 37.0644 20.545 37.0145 20.5916L33.1093 24.2299L32.2758 20.415C32.2486 20.2904 32.1582 20.1892 32.0376 20.1479C27.9984 18.7663 25.2845 14.9722 25.2845 10.7067C25.2844 5.20514 29.7673 0.729202 35.2776 0.729202C40.7879 0.729202 45.2708 5.20514 45.2708 10.7068C45.2708 15.4743 41.8739 19.5931 37.1936 20.5004Z" fill="#003781"/>
<path d="M38.1949 8.10617C38.1949 8.30752 38.3582 8.47077 38.5595 8.47077C38.7609 8.47077 38.9241 8.30752 38.9241 8.10617C38.9241 6.57074 37.4827 5.30412 35.6431 5.15481V3.99155C35.6431 3.7902 35.4798 3.62695 35.2785 3.62695C35.0771 3.62695 34.9139 3.7902 34.9139 3.99155V5.15481C33.0742 5.30412 31.6328 6.57074 31.6328 8.10617C31.6328 9.6416 33.0743 10.9082 34.9139 11.0575V15.5284C33.4773 15.3903 32.362 14.4481 32.362 13.3094C32.362 13.108 32.1988 12.9448 31.9974 12.9448C31.7961 12.9448 31.6328 13.108 31.6328 13.3094C31.6328 14.8448 33.0743 16.1114 34.9139 16.2607V17.424C34.9139 17.6254 35.0771 17.7886 35.2785 17.7886C35.4798 17.7886 35.6431 17.6254 35.6431 17.424V16.2607C37.4827 16.1114 38.9241 14.8448 38.9241 13.3094C38.9241 11.774 37.4827 10.5073 35.6431 10.358V5.8873C37.0796 6.02539 38.1949 6.96743 38.1949 8.10617ZM32.362 8.10617C32.362 6.96743 33.4773 6.02539 34.9139 5.88721V10.3251C33.4773 10.187 32.362 9.24491 32.362 8.10617ZM38.1949 13.3095C38.1949 14.4482 37.0796 15.3903 35.6431 15.5284V11.0905C37.0796 11.2287 38.1949 12.1707 38.1949 13.3095Z" fill="#003781"/>
</svg>
