<svg width="29" height="46" viewBox="0 0 29 46" fill="none" xmlns="http://www.w3.org/2000/svg">
<path d="M24.6489 16.4517L19.6639 14.4159C20.9168 12.7369 21.7131 10.498 21.7131 8.11232C21.7131 7.01074 21.5323 5.9767 21.2088 5.03613L21.218 4.996L21.1942 4.99062C20.1497 2.00594 17.6176 0 14.5005 0C10.3884 0 7.28789 3.48727 7.28789 8.11232C7.28789 10.5176 8.09582 12.7741 9.36675 14.4575L4.35204 16.4512C1.70865 17.5313 0 20.0853 0 22.9584V32.6514C0 34.4909 1.48566 35.987 3.31188 35.987H5.60596V38.2821C5.60596 39.8187 6.84725 41.0686 8.37226 41.0686H22.4229V43.673C22.4229 44.9562 23.4591 46 24.733 46H26.6899C27.9637 46 29 44.9562 29 43.673V34.3686V22.9589C29.0005 20.0853 27.2923 17.5313 24.6489 16.4517ZM18.3269 33.7016C17.9163 34.5076 17.0953 35.0087 16.1824 35.0087H12.6869C17.0671 26.6267 18.9162 17.2998 19.2747 15.3129L20.7414 15.9119C20.8046 24.7916 19.5784 31.2405 18.3269 33.7016ZM0.97214 32.6519V28.7746L3.13553 28.7115L1.0868 33.3424C1.01878 33.1222 0.97214 32.8936 0.97214 32.6519ZM4.21358 28.6797L5.97422 28.6283L3.15885 34.993C2.59626 34.9554 2.08711 34.7234 1.70234 34.3544L4.21358 28.6797ZM7.05178 28.5969L8.81339 28.5456L5.95478 35.0087H4.21552L7.05178 28.5969ZM9.89144 28.5138L11.6531 28.4624L8.75752 35.0087H7.01875L9.89144 28.5138ZM12.7311 28.4306L14.5874 28.3762C13.7513 30.5628 12.7573 32.8237 11.5855 35.0087H9.82197L12.7311 28.4306ZM20.431 5.81668C20.534 6.18566 20.6088 6.5708 20.6603 6.96768L8.79396 5.13498C9.04853 4.46797 9.38861 3.86261 9.79962 3.33067L20.431 5.81668ZM10.5595 2.50363C11.1439 1.97413 11.8192 1.56452 12.5635 1.30467L13.8368 3.26998L10.5595 2.50363ZM20.0365 4.7195L18.7228 4.41218L16.6692 1.39765C18.1452 1.98587 19.334 3.16428 20.0365 4.7195ZM15.2394 1.02768L17.3217 4.08479L15.2035 3.58954L13.5648 1.05998C13.8699 1.01202 14.1803 0.978744 14.5005 0.978744C14.7517 0.978744 14.9975 0.99783 15.2394 1.02768ZM8.50149 6.07996L20.7356 7.96942C20.7366 8.01787 20.7414 8.06436 20.7414 8.11281C20.7414 12.5147 17.825 16.3754 14.5005 16.3754C11.176 16.3754 8.25955 12.5142 8.25955 8.11281C8.25955 7.3998 8.34651 6.72006 8.50149 6.07996ZM4.7135 17.3605L10.0333 15.2454C11.2814 16.5501 12.8462 17.3541 14.501 17.3541C15.8161 17.3541 17.0715 16.8393 18.1597 15.9765C17.7531 18.0246 16.763 22.4421 14.9581 27.3862L6.5781 27.6314V24.7701C6.5781 24.4994 6.36045 24.2807 6.09227 24.2807C5.8241 24.2807 5.60645 24.4994 5.60645 24.7701V27.6598L0.97214 27.7954V22.9594C0.97214 20.4861 2.44225 18.2878 4.7135 17.3605ZM28.0288 43.674C28.0288 44.4179 27.4288 45.0222 26.6904 45.0222H24.7335C23.995 45.0222 23.395 44.4179 23.395 43.674V24.7696C23.395 24.4989 23.1778 24.2802 22.9092 24.2802C22.6405 24.2802 22.4234 24.4989 22.4234 24.7696V40.0908H8.37275C7.38312 40.0908 6.5781 39.2799 6.5781 38.2831V35.9879H16.1829C17.4621 35.9879 18.615 35.2832 19.1916 34.1484C20.4776 31.6193 21.7364 25.1459 21.7131 16.3093L24.2836 17.359C26.5592 18.2883 28.0288 20.4866 28.0288 22.9594V34.3686V43.674Z" fill="#003781"/>
</svg>
