<svg width="34" height="54" viewBox="0 0 34 54" fill="none" xmlns="http://www.w3.org/2000/svg">
<path d="M28.8987 19.3129L23.0542 16.923C24.5232 14.952 25.4567 12.3238 25.4567 9.52316C25.4567 8.23 25.2448 7.01613 24.8655 5.91198L24.8763 5.86487L24.8484 5.85855C23.6238 2.35479 20.6551 0 17.0006 0C12.1796 0 8.54443 4.09375 8.54443 9.52316C8.54443 12.3467 9.49166 14.9957 10.9817 16.9719L5.10239 19.3123C2.00325 20.5802 0 23.5784 0 26.9512V38.3299C0 40.4894 1.74181 42.2456 3.8829 42.2456H6.57251V44.9399C6.57251 46.7437 8.02781 48.211 9.81575 48.211H26.2889V51.2683C26.2889 52.7746 27.5038 54 28.9973 54H31.2916C32.7851 54 34 52.7746 34 51.2683V40.3458V26.9517C34.0006 23.5784 31.9979 20.5802 28.8987 19.3129ZM21.4867 39.5627C21.0054 40.5089 20.0428 41.0972 18.9725 41.0972H14.8743C20.0097 31.2575 22.1776 20.3085 22.5979 17.9761L24.3175 18.6792C24.3916 29.1032 22.9539 36.6737 21.4867 39.5627ZM1.13975 38.3305V33.7789L3.67614 33.7048L1.27417 39.1411C1.19443 38.8826 1.13975 38.6143 1.13975 38.3305ZM4.94006 33.6674L7.00426 33.6071L3.70348 41.0788C3.04389 41.0345 2.44696 40.7622 1.99585 40.3291L4.94006 33.6674ZM8.26761 33.5703L10.3329 33.51L6.98147 41.0972H4.94234L8.26761 33.5703ZM11.5969 33.4727L13.6622 33.4123L10.2674 41.0972H8.22887L11.5969 33.4727ZM14.9261 33.375L17.1025 33.3112C16.1223 35.878 14.9569 38.5321 13.583 41.0972H11.5154L14.9261 33.375ZM23.9536 6.82827C24.0743 7.26143 24.162 7.71355 24.2224 8.17945L10.3102 6.02802C10.6086 5.24501 11.0073 4.53437 11.4892 3.90991L23.9536 6.82827ZM12.3801 2.93904C13.0653 2.31745 13.857 1.83661 14.7296 1.53156L16.2225 3.83868L12.3801 2.93904ZM23.4911 5.54029L21.9509 5.17951L19.5432 1.64072C21.2736 2.33124 22.6674 3.71459 23.4911 5.54029ZM17.8669 1.20641L20.3082 4.79519L17.8248 4.21381L15.9035 1.24432C16.2612 1.18803 16.6252 1.14896 17.0006 1.14896C17.295 1.14896 17.5833 1.17137 17.8669 1.20641ZM9.96727 7.13734L24.3107 9.35541C24.3118 9.41228 24.3175 9.46686 24.3175 9.52373C24.3175 14.6912 20.8983 19.2233 17.0006 19.2233C13.1029 19.2233 9.68361 14.6906 9.68361 9.52373C9.68361 8.68672 9.78557 7.88876 9.96727 7.13734ZM5.52617 20.3797L11.7632 17.8968C13.2265 19.4283 15.0611 20.3722 17.0011 20.3722C18.543 20.3722 20.0148 19.7679 21.2907 18.7551C20.814 21.1593 19.6532 26.3451 17.5371 32.1491L7.71226 32.4369V29.0779C7.71226 28.7602 7.45708 28.5034 7.14267 28.5034C6.82825 28.5034 6.57308 28.7602 6.57308 29.0779V32.4702L1.13975 32.6293V26.9523C1.13975 24.0489 2.86333 21.4683 5.52617 20.3797ZM32.8614 51.2695C32.8614 52.1427 32.1579 52.8522 31.2922 52.8522H28.9979C28.1321 52.8522 27.4286 52.1427 27.4286 51.2695V29.0773C27.4286 28.7596 27.174 28.5028 26.859 28.5028C26.5441 28.5028 26.2895 28.7596 26.2895 29.0773V47.0631H9.81632C8.65607 47.0631 7.71226 46.1112 7.71226 44.941V42.2467H18.9731C20.4728 42.2467 21.8244 41.4195 22.5005 40.0872C24.0082 37.1183 25.4841 29.5191 25.4567 19.1457L28.4704 20.378C31.1384 21.4689 32.8614 24.0495 32.8614 26.9523V40.3458V51.2695Z" fill="#003781"/>
</svg>
