<svg width="32" height="30" viewBox="0 0 32 30" fill="none" xmlns="http://www.w3.org/2000/svg">
<g id="LOGO">
<path id="Vector" d="M31.6268 25.1452L29.9707 21.9364H28.3466H26.7065H12.9489C12.4394 21.9364 11.9776 21.6538 11.7228 21.2049C11.4681 20.756 11.4521 20.1907 11.691 19.7252L14.3661 14.5713H9.38212H7.74203H6.11787L0.656234 25.1452C0.13077 26.1593 0.162616 27.3398 0.719926 28.3207C1.32501 29.3681 2.40778 29.9999 3.61794 29.9999H28.665C29.8752 29.9999 30.958 29.3681 31.5631 28.3207C32.1204 27.3398 32.1363 26.1593 31.6268 25.1452Z" fill="#243286"/>
<path id="Vector_2" d="M19.3491 1.70997C18.7799 0.649154 17.6572 0 16.4081 0C15.1589 0 14.0363 0.649154 13.467 1.70997L7.99609 11.8431H9.60892H11.2217H17.0248C17.5307 11.8431 17.9893 12.1123 18.2423 12.5398C18.4953 12.9673 18.5111 13.5056 18.2739 13.9489L15.6175 18.8571H25.3419H26.9547H28.5675L19.3491 1.70997Z" fill="#243286"/>
</g>
</svg>
