<svg width="47" height="42" viewBox="0 0 47 42" fill="none" xmlns="http://www.w3.org/2000/svg">
<path d="M23.4552 9.15516C24.6497 9.15516 25.6181 8.20872 25.6181 7.04145C25.6181 5.87417 24.6497 4.92773 23.4552 4.92773C22.4221 4.92773 21.5182 5.65334 21.3245 6.63132H10.5095C10.2835 6.63132 10.0898 6.82061 10.0898 7.04145C10.0898 7.26228 10.2835 7.45157 10.5095 7.45157H21.3566C21.5502 8.42956 22.4221 9.15516 23.4552 9.15516ZM23.4552 5.74798C24.1654 5.74798 24.7788 6.31584 24.7788 7.04145C24.7788 7.76705 24.1977 8.33491 23.4552 8.33491C22.745 8.33491 22.1639 7.76705 22.1316 7.073V7.0099C22.1639 6.31584 22.745 5.74798 23.4552 5.74798Z" fill="#003781"/>
<path d="M46.3447 28.8109V22.943C46.3447 21.7442 45.344 20.7977 44.1495 20.7977H36.757V10.0714L43.5689 7.86308C43.924 7.73688 44.1823 7.4214 44.1823 7.04283C44.1823 6.66425 43.9563 6.34877 43.5689 6.22258L25.2002 0.260271C24.1026 -0.0867569 22.8759 -0.0867569 21.7783 0.260271L3.37705 6.22258C3.02194 6.34877 2.76368 6.66425 2.76368 7.04283V11.7435C1.56921 11.9328 0.63301 12.9738 0.63301 14.2042C0.63301 14.709 0.794424 15.1507 1.05269 15.5608L0.019636 18.684C-0.0449296 18.8733 0.0519189 19.1257 0.277899 19.1888C0.310182 19.1888 0.374747 19.2203 0.40703 19.2203C0.600727 19.2203 0.762141 19.0941 0.826707 18.9364L1.73063 16.2548C2.02117 16.4757 2.40857 16.6019 2.79596 16.665V19.7567C2.79596 19.9775 2.98966 20.1668 3.21564 20.1668C3.44162 20.1668 3.63531 19.9775 3.63531 19.7567V16.665C4.02271 16.6019 4.37782 16.4441 4.66836 16.2548L5.57228 18.9364C5.63685 19.1257 5.79826 19.2203 5.99196 19.2203C6.02424 19.2203 6.08881 19.2203 6.12109 19.1888C6.34707 19.1257 6.4762 18.8733 6.37935 18.6525L5.3463 15.5292C5.60457 15.1507 5.76598 14.6774 5.76598 14.1727C5.76598 12.9423 4.82978 11.9012 3.63531 11.7119V7.92617L10.221 10.0714V20.7977H7.34784C6.12109 20.7977 5.15261 21.7757 5.15261 22.943V28.8109C5.15261 29.3157 5.31402 29.7574 5.60457 30.1359H2.18259C1.79519 30.1359 1.44008 30.3568 1.27867 30.6723C1.11725 31.0193 1.14954 31.3979 1.37551 31.7133C3.44162 34.4896 3.44162 37.2027 1.37551 39.9789C1.14954 40.2944 1.11725 40.673 1.27867 41.02C1.44008 41.367 1.79519 41.5563 2.18259 41.5563H38.953C39.8569 41.5563 40.6317 41.0831 41.0837 40.389C41.1159 40.3575 41.1159 40.3575 41.1159 40.3259C41.3096 39.9789 41.4388 39.5688 41.4388 39.1271V32.5651C41.4388 32.1235 41.3096 31.7133 41.1159 31.3663C41.1159 31.3348 41.0837 31.3348 41.0837 31.3032C41.0191 31.177 40.9222 31.0824 40.8254 30.9877H44.1505C45.345 30.9562 46.3458 29.9782 46.3458 28.8109H46.3447ZM4.89357 14.204C4.89357 15.1189 4.11878 15.876 3.18258 15.876C2.24638 15.876 1.47159 15.1189 1.47159 14.204C1.47159 13.2891 2.24638 12.5319 3.18258 12.5319C4.11878 12.5635 4.89357 13.2891 4.89357 14.204ZM3.63454 7.04232L22.0358 1.04821C22.4877 0.890473 23.0042 0.827377 23.4885 0.827377C23.9727 0.827377 24.457 0.890473 24.9412 1.04821L43.3099 7.01052C43.3099 7.01052 43.3422 7.01052 43.3422 7.04207C43.3422 7.07362 43.3422 7.07362 43.3099 7.07362L24.9087 13.0359C23.9725 13.3514 22.9394 13.3514 22.0032 13.0359L3.63454 7.04232ZM21.7449 13.8254C22.2938 14.0147 22.8748 14.1093 23.4559 14.1093C24.037 14.1093 24.6181 14.0147 25.1669 13.8254L35.8848 10.3551V20.9239L25.2961 24.9305C24.1016 25.3722 22.8103 25.3722 21.6158 24.9305L11.0591 20.9239V10.3551L21.7449 13.8254ZM6.02295 28.8109V22.943C6.02295 22.2174 6.63633 21.618 7.37883 21.618H10.5748L21.3573 25.6877C22.0352 25.9401 22.7777 26.0662 23.5202 26.0662C24.2628 26.0662 24.973 25.9401 25.6832 25.6877L36.4011 21.618H44.149C44.8915 21.618 45.5049 22.2174 45.5049 22.943V28.8109C45.5049 29.5365 44.8915 30.1359 44.149 30.1359H11.0593V24.11C11.0593 23.8892 10.8656 23.6999 10.6397 23.6999C10.4137 23.6999 10.22 23.8892 10.22 24.11V30.1359H7.34681C6.6043 30.1044 6.02295 29.5365 6.02295 28.8109ZM40.469 31.9342C40.5336 32.1235 40.5981 32.3127 40.5981 32.5336V39.0956C40.5981 39.3164 40.5658 39.5057 40.469 39.695H39.9525C38.4352 39.695 37.2084 38.4961 37.2084 37.0134V34.6473C37.2084 33.1645 38.4352 31.9657 39.9525 31.9657C39.9525 31.9342 40.469 31.9342 40.469 31.9342ZM39.6942 31.1139C37.8218 31.2401 36.3691 32.786 36.3691 34.6157V36.9818C36.3691 38.8432 37.8541 40.3575 39.6942 40.4837C39.4682 40.6099 39.21 40.673 38.9517 40.673H2.18129C2.08445 40.673 2.05216 40.6099 2.05216 40.5783C2.05216 40.5468 2.01988 40.4837 2.05216 40.389C2.66554 39.5688 3.08521 38.7801 3.37576 37.9598H11.2528C11.4788 37.9598 11.6724 37.7705 11.6724 37.5497C11.6724 37.3289 11.4788 37.1396 11.2528 37.1396H3.63402C3.82772 36.2247 3.82772 35.3413 3.63402 34.4265H17.7739C17.9999 34.4265 18.1936 34.2372 18.1936 34.0163C18.1936 33.7955 17.9999 33.6062 17.7739 33.6062H3.4083C3.11776 32.786 2.69808 31.9657 2.0847 31.1455C2.02014 31.0824 2.05242 30.9877 2.0847 30.9562C2.11699 30.9246 2.14927 30.8615 2.21384 30.8615H38.9842C39.2102 30.9562 39.4682 31.0193 39.6942 31.1139Z" fill="#003781"/>
<path d="M40.7283 28.4629C40.9543 28.4629 41.1479 28.2736 41.1479 28.0528V23.6992C41.1479 23.4784 40.9543 23.2891 40.7283 23.2891C40.5023 23.2891 40.3086 23.4784 40.3086 23.6992V28.0528C40.3086 28.2736 40.5023 28.4629 40.7283 28.4629Z" fill="#003781"/>
<path d="M15.4805 37.6132C15.4805 37.8341 15.6742 38.0234 15.9001 38.0234H25.7462C25.9721 38.0234 26.1658 37.8341 26.1658 37.6132C26.1658 37.3924 25.9721 37.2031 25.7462 37.2031H15.9001C15.6742 37.2031 15.4805 37.3609 15.4805 37.6132Z" fill="#003781"/>
</svg>
