<svg width="47" height="47" viewBox="0 0 47 47" fill="none" xmlns="http://www.w3.org/2000/svg">
<path d="M0.997033 13.3073C0.757947 13.0682 0.757947 12.68 0.997033 12.4409L8.59287 4.84507C9.15074 4.2872 10.0581 4.2872 10.6159 4.84507L14.3637 8.59282C14.4434 8.67252 14.5721 8.67252 14.6518 8.59282L22.0185 1.22611H18.2095C17.8703 1.22611 17.5964 0.952284 17.5964 0.613055C17.5964 0.273827 17.8703 0 18.2095 0H22.6806C23.4694 0 24.1111 0.641671 24.1111 1.43045V5.90158C24.1111 6.2408 23.8373 6.51464 23.498 6.51464C23.1588 6.51464 22.885 6.24081 22.885 5.90158V2.09257L15.5183 9.45928C14.9604 10.0171 14.0531 10.0171 13.4952 9.45928L9.74746 5.71153C9.64324 5.60731 9.56355 5.60731 9.45933 5.71153L1.86349 13.3074C1.74293 13.4279 1.58763 13.4872 1.43028 13.4872C1.27293 13.4872 1.11555 13.4279 0.997033 13.3073ZM47 30.0391C47 39.3921 39.3921 47 30.0391 47H3.88261C1.74103 47 0 45.259 0 43.1174V20.2305C0 18.0889 1.74103 16.3479 3.88261 16.3479H20.0688C22.8704 14.3023 26.3097 13.0783 30.0391 13.0783C39.3921 13.0783 47 20.6861 47 30.0391ZM1.22616 20.2304V24.491C4.90648 24.1927 7.8448 21.2542 8.1435 17.5737H3.88288C2.4177 17.5737 1.22616 18.7652 1.22616 20.2304ZM3.88267 45.7738H8.1433C7.84495 42.0935 4.90643 39.1552 1.22595 38.8564V43.1171C1.22595 44.5823 2.41749 45.7738 3.88267 45.7738ZM23.7412 45.7738C17.5023 43.2664 13.0782 37.1646 13.0782 30.0391C13.0782 25.1082 15.2055 20.6761 18.5774 17.574H9.36925C9.06682 21.9306 5.58268 25.4146 1.22622 25.717V37.6302C5.58289 37.9327 9.06688 41.4168 9.36925 45.7733L23.7412 45.7738ZM45.7738 30.0391C45.7738 21.3625 38.7158 14.3044 30.0391 14.3044C21.3625 14.3044 14.3045 21.3625 14.3045 30.0391C14.3045 38.7157 21.3625 45.7738 30.0391 45.7738C38.7158 45.7738 45.7738 38.7157 45.7738 30.0391ZM43.7304 30.0391C43.7304 37.5879 37.5878 43.7304 30.039 43.7304C22.4903 43.7304 16.3477 37.5879 16.3477 30.0391C16.3477 22.4903 22.4903 16.3477 30.039 16.3477C37.5878 16.3477 43.7304 22.4903 43.7304 30.0391ZM42.5043 30.0391C42.5043 23.1667 36.9115 17.574 30.0391 17.574C23.1668 17.574 17.574 23.1667 17.574 30.0391C17.574 36.9114 23.1668 42.5042 30.0391 42.5042C36.9115 42.5042 42.5043 36.9114 42.5043 30.0391ZM34.9435 26.3138C35.06 26.6326 34.8965 26.9841 34.5777 27.0985C34.261 27.213 33.9075 27.0515 33.793 26.7327C33.5355 26.0277 33.2536 25.664 32.6262 25.2328C32.1419 24.8997 31.5043 24.7077 30.7421 24.6402V29.469C32.0805 29.7408 34.6471 30.4008 34.5388 33.0594C34.4591 35.0027 33.0532 36.2349 30.7421 36.472V38.2109C30.7421 38.5502 30.4682 38.824 30.129 38.824C29.7898 38.824 29.516 38.5502 29.516 38.2109V36.4985C28.4145 36.4454 27.4827 36.1797 26.7573 35.6832C25.9174 35.1049 25.4781 34.5388 25.1327 33.5927C25.0162 33.2739 25.1797 32.9225 25.4985 32.808C25.8152 32.6936 26.1687 32.8571 26.2832 33.1738C26.5407 33.8788 26.8226 34.2425 27.45 34.6737C27.9711 35.0313 28.67 35.2275 29.5139 35.2745V30.4703C28.2572 30.223 25.4944 29.6304 25.5373 26.8595C25.568 24.8569 27.0474 23.6104 29.5139 23.4203V21.8632C29.5139 21.5239 29.7877 21.2501 30.127 21.2501C30.4662 21.2501 30.74 21.5239 30.74 21.8632V23.4162C31.7618 23.4898 32.6343 23.7514 33.3189 24.2214C34.1588 24.7997 34.5981 25.3657 34.9435 26.3118V26.3138ZM29.516 29.2197V24.6402C28.1571 24.7526 26.79 25.2676 26.7655 26.882C26.741 28.4248 28.1203 28.9213 29.516 29.2176V29.2197ZM30.7421 30.7277V35.2499C31.909 35.1089 33.2495 34.5981 33.3128 33.0124C33.3721 31.5472 32.0929 31.0322 30.7421 30.7277Z" fill="#003781"/>
</svg>
