<svg width="44" height="43" viewBox="0 0 44 43" fill="none" xmlns="http://www.w3.org/2000/svg">
<path d="M24.133 4.75117C24.7643 4.75117 24.7643 5.70907 24.133 5.70907H22C21.3878 5.70907 20.833 5.85275 20.4504 6.09223C20.1348 6.2838 19.9339 6.52328 19.9339 6.77233C19.9339 7.52907 21.0052 7.69191 22.067 7.84518C23.5496 8.05591 25.0322 8.27623 25.0322 9.85676C25.0322 11.0733 23.6452 11.7342 22.4687 11.8588V12.4239H21.5122V11.8779H19.6565C19.0252 11.8779 19.0252 10.92 19.6565 10.92H22C22.6122 10.92 23.167 10.7763 23.5591 10.5369C23.8748 10.3453 24.0757 10.1058 24.0757 9.85676C24.0757 9.10002 23.0043 8.94676 21.9426 8.7935C20.46 8.58276 18.9774 8.36244 18.9774 6.78191C18.9774 5.57496 20.3452 4.91401 21.5217 4.78949L21.5504 4.19559L22.4974 4.2339L22.4783 4.76075H24.133V4.75117ZM22 0C24.2957 0 26.3713 0.92916 27.8635 2.43306C29.1739 3.74538 30.0443 5.48875 30.2452 7.43328L39.2748 14.924H43.5217C43.78 14.924 44 15.1348 44 15.403V18.0947C44 18.3533 43.7896 18.5736 43.5217 18.5736H41.9913V19.7518C41.9913 20.02 41.7904 20.2116 41.5035 20.2308C40.6617 20.2978 40.0304 21.0163 40.0687 21.8592C40.0878 22.1849 39.8774 22.4052 39.5904 22.4052H37.6678V35.5188H39.5904C39.8678 35.5188 40.0974 35.7583 40.0687 36.0552C39.9922 36.8407 40.6522 37.6549 41.5322 37.6932C41.7904 37.7028 41.9913 37.9231 41.9913 38.1722V39.3504H43.5217C43.78 39.3504 44 39.5611 44 39.8294V42.521C44 42.7797 43.7896 43 43.5217 43H0.478261C0.210435 43 0 42.7893 0 42.521V39.8294C0 39.5707 0.210435 39.3504 0.478261 39.3504H2.0087V38.1722C2.0087 37.904 2.20956 37.7028 2.49652 37.6932C3.28087 37.6645 3.99826 36.9174 3.9313 36.0361C3.91217 35.7583 4.13217 35.5188 4.40956 35.5188H6.33217V22.4148H4.40956C4.13217 22.4148 3.91217 22.1753 3.9313 21.8975C3.99826 21.0163 3.3 20.2691 2.48696 20.2404C2.21913 20.2404 2.0087 20.0296 2.0087 19.7614V18.5832H0.478261C0.210435 18.5832 0 18.3725 0 18.1043V15.4126C0 15.1444 0.210435 14.9336 0.478261 14.9336H4.72522L13.7452 7.44286C13.9461 5.49833 14.8261 3.74538 16.127 2.44264C17.6383 0.92916 19.7043 0 22 0ZM30.293 8.70728C30.1783 11.2266 28.9348 13.468 27.0217 14.924H37.7826L30.293 8.70728ZM25.4052 15.8915C24.3626 16.3609 23.2148 16.6195 22 16.6195C20.7852 16.6195 19.6374 16.3609 18.5948 15.8915H0.956522V17.6253H43.0435V15.8915H25.4052ZM16.9878 14.9336C15.0748 13.4776 13.8313 11.2266 13.707 8.71686L6.21739 14.9336H16.9878ZM27.1939 3.10359C24.3243 0.229895 19.6757 0.229895 16.8157 3.10359C13.9461 5.97728 13.9461 10.6327 16.8157 13.5063C18.1835 14.8761 20.0391 15.6616 22.0096 15.6616C26.027 15.6616 29.3556 12.4048 29.3556 8.30497C29.3461 6.27423 28.5235 4.43506 27.1939 3.10359ZM2.96522 39.36H41.0348V38.5937C40.0304 38.3542 39.2652 37.5112 39.1313 36.4863H4.8687C4.73478 37.5112 3.96957 38.3542 2.96522 38.5937V39.36ZM43.0435 40.3179C29.0113 40.3179 14.9887 40.3179 0.956522 40.3179V42.0613H43.0435V40.3179ZM7.2887 35.5284H9.36435V28.3825C9.36435 26.4859 10.9139 24.9245 12.8174 24.9245C14.7113 24.9245 16.2704 26.4763 16.2704 28.3825V35.5284H18.547V28.3825C18.547 26.4859 20.0965 24.9245 22 24.9245C23.9035 24.9245 25.453 26.4763 25.453 28.3825V35.5284H27.7296V28.3825C27.7296 26.4859 29.2791 24.9245 31.1826 24.9245C33.0765 24.9245 34.6357 26.4763 34.6357 28.3825V35.5284H36.7113V22.4148H7.2887V35.5284ZM10.3209 35.5284H15.3139V28.3825C15.3139 26.1889 12.6452 25.0299 11.0574 26.62C10.6078 27.0702 10.3209 27.7024 10.3209 28.3825V35.5284ZM19.5035 35.5284H24.4965V28.3825C24.4965 26.1889 21.8278 25.0299 20.24 26.62C19.7904 27.0702 19.5035 27.7024 19.5035 28.3825V35.5284ZM28.6861 35.5284H33.6791V28.3825C33.6791 26.1889 31.0104 25.0299 29.4226 26.62C28.973 27.0702 28.6861 27.7024 28.6861 28.3825V35.5284ZM41.0348 18.5832H2.96522V19.3495C3.96957 19.589 4.73478 20.4319 4.8687 21.4569H39.1313C39.2652 20.4319 40.0304 19.589 41.0348 19.3495V18.5832Z" fill="#003781"/>
</svg>
