<svg width="50" height="44" viewBox="0 0 50 44" fill="none" xmlns="http://www.w3.org/2000/svg">
<path fill-rule="evenodd" clip-rule="evenodd" d="M25.4006 27.6634C25.4197 27.6782 25.4366 27.695 25.4536 27.7119L32.7464 34.1496L47.1558 36.9122L36.1872 27.2297L21.7779 24.4671L25.4006 27.6634ZM15.4751 23.2909C15.473 22.9348 15.7592 22.6461 16.1174 22.6419C16.4757 22.6398 16.7661 22.9243 16.7704 23.2804L16.7831 24.6395C17.5357 24.7554 18.2098 25.082 18.7292 25.5541C19.3991 26.1609 19.8146 27.0038 19.8146 27.9373C19.8146 28.2935 19.5241 28.5842 19.1638 28.5842C18.8055 28.5842 18.513 28.2955 18.513 27.9373C18.513 27.3811 18.2607 26.8753 17.8537 26.5087C17.4297 26.1251 16.8425 25.8871 16.1874 25.8871C16.1026 25.8871 16.1662 25.8849 16.1217 25.8849C15.4899 25.8997 14.9154 26.1378 14.4999 26.5129C14.1056 26.869 13.8597 27.3516 13.8597 27.8784C13.8597 27.9563 13.8555 27.8699 13.8576 27.9205C13.8936 29.3893 15.1783 29.7348 16.4397 30.0741C18.1547 30.5356 19.84 30.9886 19.8103 33.3361C19.7976 34.2696 19.3842 35.1104 18.7165 35.7152C18.2246 36.1619 17.5929 36.478 16.887 36.6065L16.8997 37.9719C16.9018 38.3281 16.6156 38.6167 16.2573 38.621C15.8991 38.6231 15.6086 38.3386 15.6044 37.9825L15.5917 36.6233C14.8391 36.5074 14.165 36.1808 13.6456 35.7088C12.9757 35.1019 12.5602 34.259 12.5602 33.3255C12.5602 32.9694 12.8506 32.6786 13.211 32.6786C13.5693 32.6786 13.8618 32.9673 13.8618 33.3255C13.8618 33.8818 14.1141 34.3876 14.5211 34.7542C14.9451 35.1377 15.5323 35.3758 16.1874 35.3758C16.8424 35.3758 17.4233 35.1398 17.843 34.7584C18.2543 34.3875 18.5087 33.8755 18.5151 33.317C18.532 31.9684 17.33 31.646 16.1047 31.3173C14.3812 30.8537 12.6238 30.3817 12.5644 27.9479C12.5623 27.8594 12.5602 27.9141 12.5602 27.8741C12.5602 26.9638 12.9694 26.1483 13.6265 25.554C14.1247 25.1031 14.7713 24.7828 15.4857 24.6542L15.473 23.2866L15.4751 23.2909ZM35.3391 11.0249C35.3391 10.6688 35.6296 10.378 35.9899 10.378C36.3482 10.378 36.6407 10.6667 36.6407 11.0249C36.6407 11.3663 36.7807 11.6739 37.0054 11.8973C37.2301 12.1207 37.5396 12.2577 37.8809 12.2598H37.883H37.8852C38.2243 12.2598 38.5317 12.1228 38.7544 11.9015C38.9833 11.674 39.1253 11.3642 39.1275 11.0207C39.1359 10.2158 38.4533 10.0135 37.7538 9.80907C36.5793 9.46349 35.3837 9.10946 35.3434 7.2783C35.3413 7.18769 35.3392 7.28463 35.3392 7.22562C35.3392 6.545 35.6232 5.92971 36.0769 5.48083C36.3907 5.17107 36.7892 4.94138 37.2323 4.82551V4.02265C37.2323 3.66653 37.5227 3.37574 37.8831 3.37574C38.2414 3.37574 38.5339 3.66443 38.5339 4.02265V4.8234C38.9748 4.9393 39.3692 5.16899 39.6808 5.48088C40.1408 5.93815 40.4249 6.5703 40.4249 7.26781C40.4249 7.62393 40.1345 7.91471 39.7741 7.91471C39.4158 7.91471 39.1233 7.62602 39.1233 7.26781C39.1233 6.92644 38.9834 6.6188 38.7586 6.39541C38.5339 6.17205 38.2244 6.03297 37.881 6.03297H37.8492L37.8344 6.03086C37.5079 6.0414 37.209 6.17837 36.9906 6.39541C36.7744 6.61035 36.6387 6.90325 36.6387 7.22778C36.6387 7.31418 36.6345 7.19195 36.6366 7.25517C36.6557 8.1444 37.3955 8.36147 38.1184 8.57639C39.2908 8.92197 40.4418 9.26122 40.4207 11.0355C40.4122 11.7351 40.1281 12.3652 39.6702 12.8203C39.3586 13.1301 38.9685 13.3577 38.5297 13.4736V14.2743C38.5297 14.6304 38.2393 14.9212 37.8789 14.9212C37.5206 14.9212 37.2281 14.6325 37.2281 14.2743V13.4736C36.7871 13.3577 36.3928 13.128 36.0812 12.8161C35.6211 12.3588 35.3371 11.7267 35.3371 11.0292L35.3391 11.0249ZM43.4672 3.59294C42.0384 2.17268 40.0626 1.29397 37.8811 1.29397C35.6997 1.29397 33.7261 2.17268 32.2951 3.59294C30.8663 5.0132 29.9823 6.97712 29.9823 9.14548C29.9823 11.3138 30.8663 13.2778 32.2951 14.698C33.7239 16.1183 35.6997 16.997 37.8811 16.997C42.244 16.997 45.7802 13.4822 45.7802 9.14532C45.7802 6.97701 44.896 5.01536 43.4672 3.59294ZM37.8811 0.000107522C35.3415 0.000107522 33.0413 1.0242 31.3774 2.67836C29.7135 4.33253 28.683 6.61887 28.683 9.14311C28.683 11.6676 29.7132 13.9539 31.3774 15.6079C33.0415 17.2618 35.3417 18.2861 37.8811 18.2861C42.9626 18.2861 47.0794 14.1918 47.0794 9.143C47.0794 6.61855 46.0492 4.3322 44.385 2.67825C42.7209 1.0243 40.4206 0.000107522 37.8811 0.000107522ZM19.9866 13.3601C20.5759 12.5151 21.125 11.6659 21.6359 10.8167C22.1998 9.87897 22.7277 8.92232 23.2174 7.94456C23.3149 7.75281 23.3573 7.56105 23.3467 7.37982C23.3361 7.19438 23.2747 7.00684 23.1581 6.82354C23.0351 6.62967 22.8761 6.47374 22.6853 6.35784C22.4839 6.23562 22.2465 6.15555 21.9815 6.12183C20.0248 5.86897 18.0681 5.74254 16.1138 5.74254C14.1594 5.74254 12.2025 5.86686 10.2461 6.11762C9.97895 6.15134 9.74152 6.23352 9.538 6.35574C9.3472 6.47163 9.18821 6.62967 9.06525 6.82354C8.94866 7.00898 8.88718 7.19863 8.87658 7.38198C8.8681 7.56531 8.91262 7.75706 9.01225 7.94883C9.5062 8.91606 10.0404 9.87272 10.6128 10.8168C11.1385 11.6828 11.6876 12.532 12.2621 13.3601L19.9866 13.3601ZM20.2728 14.6518L20.2622 14.6497C20.2516 14.6497 20.2622 14.6497 20.2728 14.6518ZM20.3258 14.6539C20.6268 14.6729 20.9003 14.8077 21.1017 15.0142C21.3052 15.225 21.4303 15.5115 21.4303 15.8255C21.4303 16.1479 21.2967 16.4408 21.0826 16.6515C20.8685 16.8643 20.5738 16.9971 20.2516 16.9971H11.9732C11.6489 16.9971 11.3542 16.8643 11.1422 16.6515C10.9281 16.4387 10.7946 16.1458 10.7946 15.8255C10.7946 15.5073 10.9218 15.2186 11.1295 15.0079C11.3373 14.7951 11.6256 14.6602 11.9415 14.6518H11.9733V14.6539H20.2517C20.2813 14.6539 20.2856 14.6539 20.2813 14.6518C20.2962 14.6539 20.3109 14.6539 20.3258 14.6539ZM28.7143 38.9776C27.7074 38.4298 26.7449 37.8418 25.8312 37.2202C24.6377 36.4089 23.529 35.5408 22.5135 34.6283L25.2016 29.2128L31.9897 35.2055C32.0788 35.294 32.1954 35.3594 32.3289 35.3847L41.2835 37.102L38.5955 42.5176C37.2514 42.271 35.8819 41.9254 34.5061 41.4766C33.0094 40.9898 31.5064 40.383 30.0182 39.6517C29.59 39.441 29.1681 39.224 28.7547 38.9985C28.742 38.9901 28.7271 38.984 28.7143 38.9776ZM27.1265 24.1806L19.7045 22.7582V22.7603C19.4883 22.7203 19.2551 22.7898 19.0982 22.9668C18.8608 23.2323 18.8862 23.639 19.1533 23.875L24.1966 28.3276L21.1439 34.4784C21.0104 34.7291 21.057 35.0494 21.2754 35.2517C22.4329 36.3243 23.7112 37.3442 25.0998 38.2882C25.7824 38.7518 26.4925 39.1985 27.2282 39.6263C22.6004 42.7134 14.9772 43.5352 9.14096 41.8874C6.9956 41.2805 5.10461 40.3407 3.71605 39.0553C2.36564 37.8036 1.4901 36.2169 1.32902 34.2845C0.998315 30.3503 3.55497 24.9725 10.8665 18.0293C11.1993 18.1958 11.5767 18.2906 11.9752 18.2906H20.2536C20.6564 18.2906 21.0359 18.1937 21.373 18.023C22.7573 19.3147 23.9932 20.5601 25.0828 21.7612C25.8375 22.5915 26.5201 23.3985 27.1285 24.1824L27.1265 24.1806ZM22.3355 17.1553C23.7177 18.4491 24.9536 19.6966 26.0453 20.8977C27.1859 22.1557 28.1738 23.3695 29.009 24.5432L36.6047 25.9993C36.7382 26.0246 36.8548 26.0899 36.9438 26.1784L49.782 37.5112C50.0491 37.7472 50.0746 38.1539 49.8372 38.4194C49.6803 38.5964 49.4471 38.6659 49.2308 38.6259V38.628L46.3244 38.0717L43.9204 42.9141C43.7614 43.2344 43.3734 43.3651 43.0512 43.207C42.729 43.049 42.5975 42.6634 42.7565 42.343L45.0036 37.8189L42.6039 37.3595L39.5427 43.5254C39.4134 43.7867 39.1293 43.9215 38.8537 43.8752C37.2913 43.616 35.7014 43.2262 34.1029 42.7057C32.5511 42.1999 30.9888 41.5698 29.4434 40.8113C29.119 40.6511 28.7989 40.4889 28.483 40.3224C23.6072 43.9089 15.1678 44.9309 8.78888 43.1292C6.45059 42.4696 4.37518 41.4308 2.83 40C1.24851 38.5355 0.222472 36.6684 0.0317117 34.3908C-0.326559 30.111 2.31275 24.3878 9.89589 17.1684C9.64149 16.7827 9.49522 16.3213 9.49522 15.8281C9.49522 15.1623 9.76445 14.5575 10.2012 14.1129C10.3962 13.9148 10.623 13.7483 10.8732 13.624C10.3877 12.9075 9.92982 12.1953 9.50162 11.4873C8.91018 10.5116 8.36108 9.52758 7.85441 8.53715C7.65513 8.14521 7.56398 7.7385 7.58306 7.3276C7.60214 6.9188 7.72933 6.51843 7.96253 6.14335C8.19148 5.77669 8.49675 5.47956 8.86135 5.25622C9.21538 5.04129 9.62667 4.9001 10.0824 4.8411C12.0921 4.58402 14.1018 4.45337 16.1135 4.45548C18.1253 4.45548 20.135 4.58613 22.1446 4.84532C22.5982 4.90433 23.0073 5.0434 23.3614 5.25833C23.7239 5.47959 24.0271 5.7746 24.256 6.13914C24.4913 6.51423 24.6206 6.9104 24.6418 7.31709C24.663 7.72588 24.5761 8.13257 24.379 8.52243C23.885 9.50649 23.3402 10.4927 22.7466 11.481C22.3099 12.2059 21.852 12.9244 21.3708 13.6325C21.6188 13.7589 21.8435 13.9233 22.0343 14.1213C22.4647 14.566 22.7296 15.1665 22.7296 15.8261C22.7296 16.315 22.5856 16.7718 22.3355 17.1553Z" fill="#003781"/>
</svg>
