<svg width="47" height="47" viewBox="0 0 47 47" fill="none" xmlns="http://www.w3.org/2000/svg">
<path d="M46.6407 46.2811H46.2493C46.1137 45.4169 45.5053 44.7097 44.6566 44.4482C44.6256 43.7719 44.1761 43.2081 43.56 43.0124C43.7169 42.5319 43.8235 41.877 43.3197 41.629C42.9438 41.441 42.3877 41.4178 41.727 42.1773C41.1399 40.9005 39.8476 40.0499 38.3828 40.0499C38.2917 40.0499 38.2026 40.0576 38.1115 40.0654L38.1096 6.97536C38.1096 5.68298 37.0575 4.63866 35.7729 4.63866H31.8958L10.9429 4.63672C9.65052 4.63672 8.6062 5.68883 8.6062 6.97342V33.3225L2.02054 33.3244C1.8171 33.3244 1.66016 33.4891 1.66016 33.6848V37.9979C1.66016 38.2013 1.82485 38.3583 2.02054 38.3583H2.92925V41.9505H2.02054C1.8171 41.9505 1.66016 42.1152 1.66016 42.3109V46.624C1.66016 46.8274 1.82485 46.9844 2.02054 46.9844H46.639C46.8425 46.9844 46.9994 46.8197 46.9994 46.624C47.0014 46.4302 46.8441 46.2811 46.6407 46.2811ZM35.7729 5.35945C36.6681 5.35945 37.3888 6.08021 37.3888 6.97538V40.1854C35.8407 40.6214 34.6975 42.0416 34.6975 43.7254V43.8377C34.5406 43.8145 34.3894 43.8222 34.2325 43.8455V6.97533C34.2325 6.38243 33.9922 5.78761 33.5853 5.35939L35.7729 5.35945ZM28.8053 43.3109H12.9193C12.5744 43.3109 12.2954 43.0261 12.2954 42.6793V31.2341L13.8668 32.5653C13.9346 32.6253 14.0179 32.6486 14.0993 32.6486C14.1516 32.6486 14.2039 32.6408 14.2504 32.6176C14.3783 32.5575 14.4616 32.4296 14.4616 32.2862V30.8059H21.4213C25.6374 30.8059 29.0729 27.3706 29.0729 23.1543C29.0729 21.5093 28.5458 19.9903 27.6603 18.7347H30.5454V42.6791C30.5454 42.7391 30.5299 42.7992 30.5144 42.8592C29.904 42.8767 29.3246 43.0339 28.8053 43.3109ZM27.0847 18.0218C26.4085 17.2778 25.5889 16.6617 24.6647 16.2334H28.7452C28.9487 16.2334 29.1056 16.0688 29.1056 15.8731V14.8132L32.8936 18.0296H27.0847L27.0847 18.0218ZM21.4251 30.0851C17.6003 30.0851 14.4888 26.9733 14.4888 23.1562C14.4888 19.3314 17.6005 16.2198 21.4251 16.2198C25.2421 16.2198 28.354 19.3315 28.354 23.1562C28.356 26.9809 25.2442 30.0851 21.4251 30.0851ZM30.5494 15.0844L28.978 13.7533C28.8734 13.6622 28.7222 13.6409 28.5944 13.701C28.4665 13.761 28.3832 13.8889 28.3832 14.0323V15.5126H21.5302C21.4933 15.5126 21.4623 15.5049 21.4255 15.5049C17.2016 15.5049 13.768 18.9402 13.768 23.1624C13.768 24.8074 14.295 26.3265 15.1805 27.5821H12.2954V8.95206C12.2954 8.60717 12.5744 8.32817 12.9193 8.32817H16.5271C16.7441 8.32817 16.9553 8.4483 17.0676 8.63624L17.4881 9.35701C17.7284 9.76971 18.1798 10.0255 18.6526 10.0255H24.1922C24.6649 10.0255 25.1164 9.76973 25.3567 9.35701L25.7771 8.63624C25.8895 8.44829 26.1007 8.32817 26.3177 8.32817H29.9254C30.2703 8.32817 30.5493 8.60718 30.5493 8.95206L30.5494 15.0844ZM15.7675 28.2969C16.4515 29.0409 17.271 29.6571 18.1953 30.0853H14.0992C13.8958 30.0853 13.7389 30.25 13.7389 30.4457V31.5055L9.9509 28.2891H15.7677L15.7675 28.2969ZM31.2721 42.6894V18.745H33.5119V44.1467C33.4964 44.1622 33.4751 44.17 33.4596 44.1777C32.888 43.517 32.1072 43.0733 31.243 42.9222C31.2643 42.8466 31.2721 42.7708 31.2721 42.6894ZM10.9432 5.35994H31.904C32.7915 5.35994 33.52 6.08071 33.52 6.97588V17.6036L31.2801 15.7029V8.96194C31.2801 8.21791 30.6717 7.61728 29.9355 7.61728H26.3277C25.855 7.61728 25.4035 7.87304 25.1632 8.28577L24.7428 9.00653C24.6304 9.19448 24.4192 9.31461 24.2022 9.31461H18.6626C18.4456 9.31461 18.2344 9.19448 18.1221 9.00653L17.7016 8.28577C17.4614 7.87306 17.0099 7.61728 16.5371 7.61728H12.9294C12.1853 7.61728 11.5847 8.2257 11.5847 8.96194V27.586H9.34488L9.341 6.97588C9.32744 6.08845 10.0558 5.35994 10.9432 5.35994ZM8.60458 41.9588H7.13199V38.3665H8.60458V41.9588ZM8.60458 34.0532V37.6455H5.86099V34.0532H8.60458ZM2.383 34.0532H5.13437V37.6455H2.383V34.0532ZM3.65212 38.3663H6.40156V41.9585H3.65212V38.3663ZM2.383 42.689H5.13437V46.2813H2.383V42.689ZM5.86094 42.689H8.60453V44.6653C8.60453 45.2892 8.85254 45.8608 9.25749 46.2813H5.86089L5.86094 42.689ZM10.9432 46.2813C10.0557 46.2813 9.32723 45.5605 9.32723 44.6653V28.7173L11.5671 30.618V42.6793C11.5671 43.4233 12.1677 44.0317 12.9117 44.0317L27.8603 44.0336C27.5367 44.3727 27.2732 44.7777 27.093 45.2369C26.9574 45.576 26.876 45.9208 26.845 46.2735H10.9431L10.9432 46.2813ZM27.5658 46.2813C27.5968 46.0177 27.6627 45.7542 27.7615 45.5062C28.2265 44.3417 29.3406 43.5822 30.602 43.5822C31.6095 43.5822 32.5493 44.0782 33.1131 44.9056C33.1809 45.0025 33.2933 45.0625 33.4134 45.0625H33.458C33.5781 45.0625 33.6827 45.0025 33.7506 44.9114C34.0063 44.551 34.5624 44.4522 34.9228 44.6944C35.0429 44.7777 35.2076 44.7777 35.3278 44.6944C35.4479 44.6111 35.5079 44.4619 35.4789 44.3185C35.4421 44.1383 35.4188 43.9426 35.4188 43.7314C35.4188 42.1 36.7499 40.7708 38.3795 40.7708C39.7106 40.7708 40.8596 41.6349 41.22 42.8905C41.1599 42.9873 41.1076 43.0784 41.063 43.1695C40.972 43.3419 41.032 43.5686 41.2142 43.6577C41.2665 43.6888 41.3265 43.7023 41.3866 43.7023C41.5145 43.7023 41.6424 43.6345 41.7102 43.5144C41.7702 43.402 41.8458 43.2741 41.9272 43.1385C42.0783 42.8982 42.5879 42.1387 42.9716 42.2588C42.9793 42.3344 42.9793 42.5747 42.7391 43.154C42.7313 43.1695 42.7313 43.1773 42.7313 43.1908C42.7313 43.1908 42.7313 43.1986 42.7236 43.1986C42.6926 43.3187 42.648 43.4098 42.4833 43.6345C42.3632 43.7915 42.4 44.0259 42.5589 44.1383C42.6267 44.1828 42.6945 44.2061 42.7701 44.2061C42.8824 44.2061 42.9871 44.1538 43.0626 44.055C43.1673 43.9116 43.2428 43.7915 43.2951 43.6868C43.6555 43.7915 43.9268 44.1228 43.9268 44.5219V44.7331C43.9268 44.9133 44.0546 45.0644 44.2348 45.0935C44.3027 45.1013 44.3705 45.1245 44.4383 45.1458C44.9866 45.3105 45.3858 45.7465 45.5137 46.289L27.5657 46.2871L27.5658 46.2813Z" fill="#003781"/>
<path d="M0.93974 46.2812H0.360388C0.156941 46.2812 0 46.4459 0 46.6416C0 46.8373 0.164693 47.002 0.360388 47.002H0.93974C1.14319 47.002 1.30013 46.8373 1.30013 46.6416C1.30013 46.4459 1.13543 46.2812 0.93974 46.2812Z" fill="#003781"/>
<path d="M13.8877 11.5527C13.6843 11.5527 13.5273 11.7174 13.5273 11.9131V12.4324C13.5273 12.6359 13.692 12.7928 13.8877 12.7928C14.0834 12.7928 14.2481 12.6281 14.2481 12.4324V11.9131C14.2481 11.7174 14.0834 11.5527 13.8877 11.5527Z" fill="#003781"/>
<path d="M15.1123 10.7402C14.9089 10.7402 14.752 10.9049 14.752 11.1006V12.4375C14.752 12.641 14.9166 12.7979 15.1123 12.7979C15.308 12.7979 15.4727 12.6332 15.4727 12.4375V11.1006C15.4727 10.8972 15.308 10.7402 15.1123 10.7402Z" fill="#003781"/>
<path d="M16.3389 9.92773C16.1355 9.92773 15.9785 10.0924 15.9785 10.2881V12.4369C15.9785 12.6403 16.1432 12.7973 16.3389 12.7973C16.5346 12.7973 16.6993 12.6326 16.6993 12.4369V10.2881C16.6993 10.0847 16.5404 9.92773 16.3389 9.92773Z" fill="#003781"/>
<path d="M21.4267 18.1562C18.6676 18.1562 16.4219 20.4038 16.4219 23.1611C16.4219 25.9202 18.6694 28.158 21.4267 28.158C24.1858 28.158 26.4236 25.9182 26.4236 23.1611C26.4256 20.3962 24.178 18.1562 21.4267 18.1562ZM21.4267 27.4313C19.0668 27.4313 17.1505 25.5151 17.1505 23.1551C17.1505 20.7951 19.0668 18.8789 21.4267 18.8789C23.7867 18.8789 25.703 20.7951 25.703 23.1551C25.6971 25.5151 23.7809 27.4313 21.4267 27.4313Z" fill="#003781"/>
<path d="M22.6896 21.5536C22.8931 21.5536 23.05 21.3889 23.05 21.1932C23.05 20.9975 22.8853 20.8328 22.6896 20.8328H21.7809V20.3213C21.7809 20.1179 21.6162 19.9609 21.4205 19.9609C21.2171 19.9609 21.0601 20.1256 21.0601 20.3213V20.8328H20.8955C20.287 20.8328 19.791 21.3288 19.791 21.9373V22.41C19.791 23.0184 20.287 23.5145 20.8955 23.5145H21.0601V24.7545H20.1514C19.948 24.7545 19.7911 24.9192 19.7911 25.1149C19.7911 25.3106 19.9557 25.4753 20.1514 25.4753H21.0601V25.9868C21.0601 26.1902 21.2248 26.3472 21.4205 26.3472C21.6162 26.3472 21.7809 26.1825 21.7809 25.9868V25.4753H21.9456C22.554 25.4753 23.0501 24.9793 23.0501 24.3709V23.8981C23.0501 23.2897 22.554 22.7936 21.9456 22.7936H21.7809V21.5536H22.6896ZM21.9456 23.5163C22.1568 23.5163 22.3292 23.6888 22.3292 23.9V24.3728C22.3292 24.584 22.1568 24.7564 21.9456 24.7564H21.7809V23.5163H21.9456ZM21.0582 22.7936H20.8935C20.6823 22.7936 20.5098 22.6212 20.5098 22.41V21.9372C20.5098 21.726 20.6823 21.5536 20.8935 21.5536H21.0582V22.7936Z" fill="#003781"/>
<path d="M28.7176 35.916H27.9659C27.7624 35.916 27.6055 36.0807 27.6055 36.2764C27.6055 36.4799 27.7702 36.6368 27.9659 36.6368H28.7176C28.9211 36.6368 29.078 36.4721 29.078 36.2764C29.078 36.073 28.9133 35.916 28.7176 35.916Z" fill="#003781"/>
<path d="M26.9422 36.2764C26.9422 36.073 26.7775 35.916 26.5818 35.916H23.0186C22.8151 35.916 22.6582 36.0807 22.6582 36.2764C22.6582 36.4799 22.8229 36.6368 23.0186 36.6368H26.5818C26.7775 36.6368 26.9422 36.4721 26.9422 36.2764Z" fill="#003781"/>
<path d="M28.7173 38.2461H25.4932C25.2898 38.2461 25.1328 38.4108 25.1328 38.6065C25.1328 38.8099 25.2975 38.9669 25.4932 38.9669H28.7173C28.9208 38.9669 29.0777 38.8022 29.0777 38.6065C29.0777 38.4127 28.913 38.2461 28.7173 38.2461Z" fill="#003781"/>
<path d="M39.2539 4.11968C39.345 4.11968 39.4418 4.08286 39.5097 4.01505L41.0287 2.49598C41.1721 2.3526 41.1721 2.12784 41.0287 1.98449C40.8853 1.84111 40.6606 1.84111 40.5172 1.98449L38.9982 3.50355C38.8548 3.64693 38.8548 3.87169 38.9982 4.01505C39.0737 4.08092 39.1628 4.11968 39.2539 4.11968Z" fill="#003781"/>
<path d="M40.1406 4.99711C40.1406 5.20055 40.3053 5.3575 40.501 5.3575H42.6498C42.8532 5.3575 43.0102 5.1928 43.0102 4.99711C43.0102 4.80335 42.8532 4.63672 42.6498 4.63672H40.501C40.2976 4.63672 40.1406 4.7956 40.1406 4.99711Z" fill="#003781"/>
<path d="M38.0127 2.87147C38.2162 2.87147 38.3731 2.70678 38.3731 2.51108V0.360388C38.3731 0.156941 38.2084 0 38.0127 0C37.817 0 37.6523 0.164693 37.6523 0.360388V2.50915C37.6523 2.71259 37.8093 2.87147 38.0127 2.87147Z" fill="#003781"/>
<path d="M41.8223 1.54896C41.9133 1.54896 42.0102 1.51214 42.078 1.44433L42.4307 1.09169C42.574 0.948307 42.574 0.723546 42.4307 0.580191C42.2873 0.436811 42.0625 0.436811 41.9192 0.580191L41.5665 0.932831C41.4231 1.07621 41.4231 1.30097 41.5665 1.44433C41.6363 1.51989 41.7254 1.54896 41.8223 1.54896Z" fill="#003781"/>
</svg>
