<svg width="46" height="46" viewBox="0 0 46 46" fill="none" xmlns="http://www.w3.org/2000/svg">
<path d="M45.2578 26.7108H37.0966V4.30646C37.0966 4.1094 37.0212 3.91813 36.8821 3.77902L33.3202 0.217352C33.1811 0.0782477 32.9898 0 32.7927 0C32.5956 0 32.4073 0.0782477 32.2653 0.217352L29.2309 3.26029L26.1965 0.217352C26.0574 0.0782477 25.869 0 25.672 0C25.472 0 25.2836 0.0782477 25.1445 0.217352L22.1101 3.26029L19.0757 0.217352C18.9366 0.0782477 18.7454 0 18.5483 0C18.3512 0 18.1599 0.0782477 18.0208 0.217352L14.9864 3.26029L11.9521 0.217352C11.813 0.0782477 11.6246 0 11.4246 0C11.2275 0 11.0391 0.0782477 10.9 0.217352L7.86566 3.26029L4.83129 0.217352C4.68928 0.0782477 4.5009 0 4.30382 0C4.10674 0 3.91546 0.0782477 3.77635 0.217352L0.214464 3.77902C0.0753514 3.91813 0 4.10939 0 4.30646V40.8068C0 43.6758 2.32434 46 5.19355 46H40.8065C43.6757 46 46 43.6758 46 40.8068V27.4527C46 27.2557 45.9217 27.0673 45.7826 26.9282C45.6435 26.7891 45.4549 26.7108 45.2578 26.7108ZM37.1774 44.5162H5.19333C3.14432 44.5162 1.48365 42.8556 1.48365 40.8068V4.61064L4.3036 1.79086L7.33797 4.8338C7.47708 4.9729 7.66546 5.05115 7.86544 5.05115C8.06252 5.05115 8.25089 4.9729 8.39001 4.8338L11.4244 1.79086L14.4587 4.8338C14.6008 4.9729 14.7891 5.05115 14.9862 5.05115C15.1833 5.05115 15.3746 4.9729 15.5137 4.8338L18.5481 1.79086L21.5824 4.8338C21.7215 4.9729 21.9128 5.05115 22.1099 5.05115C22.307 5.05115 22.4954 4.9729 22.6374 4.8338L25.6717 1.79086L28.7061 4.8338C28.8452 4.9729 29.0336 5.05115 29.2307 5.05115C29.4306 5.05115 29.619 4.9729 29.7581 4.8338L32.7925 1.79086L35.6125 4.61064V40.8068C35.6009 40.9835 35.6009 41.1632 35.6125 41.34V41.54L35.6559 41.8587L35.7226 42.0964C35.7226 42.1775 35.7226 42.2674 35.7893 42.3572L35.8791 42.6006C35.8791 42.6818 35.9313 42.7571 35.9689 42.8383C36.0066 42.9194 36.0443 43.0005 36.0878 43.0817C36.1312 43.1628 36.1544 43.2237 36.1921 43.2903L36.3341 43.528L36.3312 43.5309C36.366 43.5975 36.4066 43.6613 36.45 43.7221L36.6123 43.9366H36.6152C36.6558 44.0033 36.7051 44.0641 36.7543 44.1221L36.9311 44.322H36.934C36.9833 44.3829 37.0384 44.4409 37.0963 44.493L37.1774 44.5162ZM18.5482 9.64734C14.9457 9.64734 11.6997 11.8151 10.3231 15.1419C8.94351 18.4689 9.70575 22.3 12.2533 24.8444C14.7979 27.3917 18.6293 28.1539 21.9563 26.7745C25.2835 25.3979 27.4512 22.1521 27.4512 18.5499C27.4512 13.632 23.4664 9.64734 18.5482 9.64734ZM18.5482 23.0014L16.4499 20.9032C17.0063 20.3439 17.7599 20.0309 18.5482 20.0309C19.3365 20.0309 20.09 20.3439 20.6464 20.9032L18.5482 23.0014ZM21.6927 19.8483C19.9567 18.1125 17.1397 18.1125 15.4036 19.8483L14.3487 18.8021C15.4616 17.6864 16.9716 17.0604 18.5482 17.0604C20.1248 17.0604 21.6348 17.6864 22.7477 18.8021L21.6927 19.8483ZM23.791 17.756H23.7939C20.8957 14.8609 16.2009 14.8609 13.3022 17.756L12.2472 16.7011L12.2501 16.704C13.9195 15.0261 16.1887 14.0842 18.5566 14.0842C20.9215 14.0842 23.1908 15.0261 24.863 16.704L23.791 17.756ZM31.1611 34.1295V35.6133H14.8385V34.1295H31.1611ZM14.8385 37.0971H31.1611V38.5809H14.8385V37.0971ZM10.3869 35.6133V33.7586H12.0562V32.2748H10.3869V31.162H8.903V32.2748C7.56982 32.2748 6.49171 33.3528 6.49171 34.6859C6.49171 36.019 7.56982 37.0971 8.903 37.0971V38.9518H7.23365V40.4356H8.903V41.5484H10.3869V40.4356C11.7201 40.4356 12.7982 39.3576 12.7982 38.0244C12.7982 36.6913 11.7201 35.6133 10.3869 35.6133ZM7.97558 34.6859C7.97558 34.173 8.39002 33.7586 8.903 33.7586V35.6133C8.39002 35.6133 7.97558 35.1989 7.97558 34.6859ZM10.3869 38.9518V37.0971C10.8999 37.0971 11.3143 37.5115 11.3143 38.0244C11.3143 38.5374 10.8999 38.9518 10.3869 38.9518Z" fill="#003781"/>
</svg>
