<svg width="42" height="42" viewBox="0 0 42 42" fill="none" xmlns="http://www.w3.org/2000/svg">
<path d="M41.3224 24.3881H33.8708V3.93199C33.8708 3.75206 33.802 3.57742 33.6749 3.45041L30.4228 0.198452C30.2958 0.0714436 30.1211 0 29.9412 0C29.7612 0 29.5893 0.0714436 29.4596 0.198452L26.6891 2.97679L23.9186 0.198452C23.7915 0.0714436 23.6195 0 23.4396 0C23.257 0 23.085 0.0714436 22.958 0.198452L20.1875 2.97679L17.417 0.198452C17.29 0.0714436 17.1153 0 16.9354 0C16.7554 0 16.5808 0.0714436 16.4538 0.198452L13.6833 2.97679L10.9128 0.198452C10.7857 0.0714436 10.6137 0 10.4312 0C10.2512 0 10.0792 0.0714436 9.9522 0.198452L7.18169 2.97679L4.41118 0.198452C4.28151 0.0714436 4.10952 0 3.92957 0C3.74963 0 3.57499 0.0714436 3.44797 0.198452L0.195815 3.45041C0.0687991 3.57742 0 3.75206 0 3.93199V37.2583C0 39.8779 2.12222 42 4.74194 42H37.2581C39.8778 42 42 39.8779 42 37.2583V25.0655C42 24.8856 41.9286 24.7136 41.8015 24.5866C41.6745 24.4596 41.5023 24.3881 41.3224 24.3881ZM33.9446 40.6452H4.74173C2.8709 40.6452 1.35464 39.1291 1.35464 37.2583V4.20971L3.92937 1.63513L6.69988 4.41347C6.8269 4.54048 6.9989 4.61192 7.18149 4.61192C7.36143 4.61192 7.53343 4.54048 7.66044 4.41347L10.431 1.63513L13.2015 4.41347C13.3311 4.54048 13.5031 4.61192 13.6831 4.61192C13.863 4.61192 14.0377 4.54048 14.1647 4.41347L16.9352 1.63513L19.7057 4.41347C19.8327 4.54048 20.0074 4.61192 20.1873 4.61192C20.3672 4.61192 20.5392 4.54048 20.6689 4.41347L23.4394 1.63513L26.2099 4.41347C26.3369 4.54048 26.5089 4.61192 26.6889 4.61192C26.8715 4.61192 27.0435 4.54048 27.1705 4.41347L29.941 1.63513L32.5157 4.20971V37.2583C32.5051 37.4198 32.5051 37.5838 32.5157 37.7452V37.9278L32.5554 38.2188L32.6163 38.4358C32.6163 38.5099 32.6163 38.5919 32.6771 38.674L32.7592 38.8962C32.7592 38.9703 32.8068 39.0391 32.8412 39.1132C32.8756 39.1873 32.91 39.2614 32.9497 39.3355C32.9894 39.4095 33.0106 39.4651 33.0449 39.526L33.1746 39.7429L33.172 39.7456C33.2037 39.8064 33.2408 39.8647 33.2805 39.9202L33.4287 40.116H33.4313C33.4683 40.1769 33.5133 40.2325 33.5583 40.2854L33.7197 40.4679H33.7224C33.7674 40.5235 33.8176 40.5764 33.8706 40.6241L33.9446 40.6452ZM16.9353 8.80844C13.6461 8.80844 10.6824 10.7877 9.42541 13.8252C8.16582 16.8629 8.86178 20.3609 11.1878 22.684C13.5111 25.0098 17.0094 25.7057 20.0471 24.4463C23.0849 23.1894 25.0642 20.2259 25.0642 16.9368C25.0642 12.4466 21.4258 8.80844 16.9353 8.80844ZM16.2579 13.8888C16.2579 14.8546 15.5778 15.688 14.6331 15.8812V22.0173H13.8181V15.8812C12.8735 15.6881 12.1934 14.8546 12.1934 13.8888V11.8566H13.0058V13.8888C13.0084 14.4021 13.3339 14.8599 13.8181 15.0266V11.8566H14.6305V15.0266H14.6331C15.1174 14.8599 15.4429 14.4021 15.4455 13.8888V11.8566H16.2579L16.2579 13.8888ZM20.0525 16.6856V22.0173H19.2375V16.6856C18.2187 16.3496 17.5519 15.3679 17.6128 14.2963C17.6128 12.9415 18.5284 11.8566 19.645 11.8566C20.7617 11.8566 21.6773 12.9468 21.6773 14.2963C21.7381 15.3679 21.0712 16.3496 20.0525 16.6856ZM28.4511 31.1619V32.5166H13.5479V31.1619H28.4511ZM13.5479 33.8714H28.4511V35.2261H13.5479V33.8714ZM9.4834 32.5166V30.8232H11.0076V29.4684H9.4834V28.4524H8.12856V29.4684C6.9113 29.4684 5.92695 30.4527 5.92695 31.6699C5.92695 32.8871 6.9113 33.8714 8.12856 33.8714V35.5648H6.60436V36.9196H8.12856V37.9357H9.4834V36.9196C10.7007 36.9196 11.685 35.9353 11.685 34.7181C11.685 33.5009 10.7007 32.5166 9.4834 32.5166ZM7.28178 31.6699C7.28178 31.2016 7.66018 30.8232 8.12856 30.8232V32.5166C7.66018 32.5166 7.28178 32.1383 7.28178 31.6699ZM9.4834 35.5648V33.8714C9.95177 33.8714 10.3302 34.2498 10.3302 34.7181C10.3302 35.1865 9.95177 35.5648 9.4834 35.5648Z" fill="#003781"/>
</svg>
