<svg width="44" height="44" viewBox="0 0 44 44" fill="none" xmlns="http://www.w3.org/2000/svg">
<path d="M43.2901 25.5495H35.4837V4.11923C35.4837 3.93073 35.4116 3.74777 35.2785 3.61472L31.8715 0.207902C31.7384 0.0748457 31.5555 0 31.367 0C31.1784 0 30.9983 0.0748457 30.8624 0.207902L27.96 3.11854L25.0575 0.207902C24.9245 0.0748457 24.7443 0 24.5558 0C24.3645 0 24.1843 0.0748457 24.0512 0.207902L21.1488 3.11854L18.2464 0.207902C18.1133 0.0748457 17.9303 0 17.7418 0C17.5533 0 17.3704 0.0748457 17.2373 0.207902L14.3349 3.11854L11.4324 0.207902C11.2993 0.0748457 11.1192 0 10.9279 0C10.7394 0 10.5592 0.0748457 10.4261 0.207902L7.52367 3.11854L4.62123 0.207902C4.48539 0.0748457 4.30521 0 4.1167 0C3.92819 0 3.74522 0.0748457 3.61216 0.207902L0.20514 3.61472C0.0720753 3.74777 0 3.93073 0 4.11923V39.0326C0 41.7769 2.22328 44 4.96774 44H39.0323C41.7767 44 44 41.7769 44 39.0326V26.2591C44 26.0706 43.9251 25.8904 43.7921 25.7574C43.659 25.6243 43.4786 25.5495 43.2901 25.5495ZM35.561 42.5807H4.96753C3.00761 42.5807 1.41914 40.9924 1.41914 39.0326V4.41018L4.11648 1.71299L7.01892 4.62363C7.15199 4.75669 7.33218 4.83153 7.52346 4.83153C7.71197 4.83153 7.89216 4.75669 8.02522 4.62363L10.9277 1.71299L13.8301 4.62363C13.9659 4.75669 14.1461 4.83153 14.3346 4.83153C14.5231 4.83153 14.7061 4.75669 14.8392 4.62363L17.7416 1.71299L20.6441 4.62363C20.7771 4.75669 20.9601 4.83153 21.1486 4.83153C21.3371 4.83153 21.5173 4.75669 21.6531 4.62363L24.5556 1.71299L27.458 4.62363C27.5911 4.75669 27.7713 4.83153 27.9598 4.83153C28.151 4.83153 28.3312 4.75669 28.4643 4.62363L31.3667 1.71299L34.0641 4.41018V39.0326C34.053 39.2016 34.053 39.3735 34.0641 39.5426V39.7339L34.1057 40.0388L34.1694 40.2661C34.1694 40.3437 34.1694 40.4296 34.2332 40.5156L34.3191 40.7484C34.3191 40.826 34.369 40.8981 34.4051 40.9757C34.4411 41.0533 34.4771 41.131 34.5187 41.2086C34.5603 41.2862 34.5825 41.3444 34.6185 41.4082L34.7544 41.6355L34.7516 41.6382C34.7849 41.702 34.8237 41.763 34.8653 41.8212L35.0205 42.0263H35.0233C35.0621 42.0901 35.1092 42.1483 35.1563 42.2037L35.3254 42.395H35.3282C35.3753 42.4532 35.428 42.5086 35.4834 42.5585L35.561 42.5807ZM17.7417 9.22789C14.2959 9.22789 11.191 11.3014 9.87424 14.4836C8.55467 17.6659 9.28376 21.3304 11.7205 23.7642C14.1545 26.2008 17.8194 26.9298 21.0017 25.6104C24.1842 24.2936 26.2577 21.189 26.2577 17.7434C26.2577 13.0393 22.4461 9.22789 17.7417 9.22789ZM17.7417 23.0658V18.808H13.4837L17.7417 12.4212V16.6791H21.9998L17.7417 23.0658ZM29.8062 32.6458V34.0651H14.1933V32.6458H29.8062ZM14.1933 35.4844H29.8062V36.9036H14.1933V35.4844ZM9.93527 34.0651V32.291H11.532V30.8718H9.93527V29.8073H8.51592V30.8718C7.2407 30.8718 6.20946 31.9029 6.20946 33.1781C6.20946 34.4532 7.2407 35.4844 8.51592 35.4844V37.2585H6.91914V38.6777H8.51592V39.7422H9.93527V38.6777C11.2105 38.6777 12.2417 37.6466 12.2417 36.3714C12.2417 35.0963 11.2105 34.0651 9.93527 34.0651ZM7.62882 33.1781C7.62882 32.6874 8.02524 32.291 8.51592 32.291V34.0651C8.02524 34.0651 7.62882 33.6687 7.62882 33.1781ZM9.93527 37.2585V35.4844C10.4259 35.4844 10.8224 35.8808 10.8224 36.3714C10.8224 36.8621 10.4259 37.2585 9.93527 37.2585Z" fill="#003781"/>
</svg>
