<svg width="42" height="37" viewBox="0 0 42 37" fill="none" xmlns="http://www.w3.org/2000/svg">
<path d="M8.88446 14.4779C11.8245 14.4779 14.4755 12.7144 15.6004 10.0099C16.7251 7.30329 16.1031 4.19037 14.0253 2.11944C11.9455 0.0503219 8.81989 -0.569051 6.1019 0.550988C3.38602 1.67103 1.61514 4.31124 1.61514 7.2389C1.61917 11.2344 4.87249 14.4743 8.88446 14.4779ZM8.88446 1.60864C11.1703 1.60864 13.2319 2.98004 14.108 5.08334C14.9823 7.18865 14.4997 9.60973 12.8823 11.2204C11.2649 12.8312 8.83375 13.3117 6.71952 12.441C4.60741 11.5683 3.23027 9.51527 3.23027 7.23926C3.23431 4.1305 5.76243 1.61276 8.88446 1.60864ZM8.07676 7.2392V4.02188C8.07676 3.57749 8.4382 3.21755 8.88446 3.21755C9.33071 3.21755 9.69215 3.57749 9.69215 4.02188V6.43487H11.3075C11.7538 6.43487 12.1152 6.79481 12.1152 7.2392C12.1152 7.6836 11.7538 8.04353 11.3075 8.04353H8.88446C8.4382 8.04353 8.07676 7.6836 8.07676 7.2392ZM4.84597 21.7171C4.84597 23.3439 5.82932 24.8098 7.33973 25.4332C8.84812 26.0545 10.5846 25.7107 11.7396 24.5605C12.8947 23.4103 13.2399 21.681 12.616 20.1789C11.99 18.6748 10.518 17.6955 8.88441 17.6955C6.65516 17.6976 4.84799 19.4972 4.84597 21.7171ZM11.3075 21.7171C11.3075 22.6924 10.7179 23.5732 9.8113 23.9471C8.90668 24.3191 7.86477 24.114 7.17012 23.4243C6.47755 22.7326 6.27155 21.695 6.64513 20.7942C7.02071 19.8913 7.90514 19.3042 8.88446 19.3042C10.2212 19.3062 11.3055 20.386 11.3075 21.7171ZM8.88446 27.3477C6.528 27.3497 4.27048 28.2827 2.60484 29.9417C0.938944 31.6007 0.00201601 33.8487 0 36.1951C0 36.4083 0.084807 36.6134 0.236251 36.7642C0.387695 36.915 0.593659 36.9995 0.807712 36.9995H16.9616C17.1757 36.9995 17.3816 36.915 17.5331 36.7642C17.6846 36.6134 17.7694 36.4083 17.7694 36.1951C17.7673 33.8485 16.8304 31.6004 15.1645 29.9417C13.4986 28.2827 11.2407 27.3497 8.88446 27.3477ZM1.65938 35.391C2.07131 31.7273 5.18296 28.9564 8.88446 28.9564C12.586 28.9564 15.6975 31.7273 16.1095 35.391H1.65938ZM29.0766 21.7177C29.0766 23.3444 30.06 24.8103 31.5704 25.4337C33.0788 26.055 34.8153 25.7112 35.9703 24.561C37.1253 23.4108 37.4706 21.6815 36.8466 20.1794C36.2207 18.6753 34.7486 17.6961 33.115 17.6961C30.8858 17.6981 29.0786 19.4977 29.0766 21.7177ZM35.5382 21.7177C35.5382 22.6929 34.9486 23.5737 34.0419 23.9476C33.1373 24.3197 32.0954 24.1145 31.4008 23.4248C30.7082 22.7331 30.5022 21.6955 30.8758 20.7947C31.2514 19.8918 32.1358 19.3047 33.1151 19.3047C34.4518 19.3067 35.5362 20.3865 35.5382 21.7177ZM33.1151 27.3482C30.7586 27.3502 28.5011 28.2833 26.8355 29.9422C25.1696 31.6012 24.2327 33.8492 24.2306 36.1957C24.2306 36.4088 24.3154 36.6139 24.4669 36.7647C24.6183 36.9156 24.8243 37 25.0384 37H41.1923C41.4063 37 41.6123 36.9155 41.7637 36.7647C41.9152 36.6139 42 36.4088 42 36.1957C41.998 33.849 41.0611 31.6009 39.3952 29.9422C37.7293 28.2833 35.4713 27.3502 33.1151 27.3482ZM25.89 35.3915C26.3019 31.7278 29.4136 28.9569 33.1151 28.9569C36.8166 28.9569 39.9282 31.7278 40.3402 35.3915H25.89ZM32.3071 12.8703C32.2991 13.188 32.4869 13.4796 32.7817 13.6022C33.0684 13.737 33.4096 13.6867 33.6459 13.4756L40.1075 7.84499C40.2832 7.69217 40.3841 7.47098 40.3841 7.23973C40.3841 7.00847 40.2832 6.78729 40.1075 6.63446L33.6459 1.00389C33.4076 0.796776 33.0704 0.746504 32.7817 0.877209C32.4929 1.00791 32.3071 1.29345 32.3071 1.60916V4.02215H18.5766C18.1303 4.02215 17.7689 4.38209 17.7689 4.82648V9.65246C17.7689 9.86561 17.8537 10.0707 18.0051 10.2215C18.1566 10.3724 18.3625 10.4568 18.5766 10.4568H32.3072L32.3071 12.8703ZM19.384 8.84864V5.63132H33.1146C33.3286 5.63132 33.5346 5.54686 33.686 5.39605C33.8375 5.24524 33.9223 5.04013 33.9223 4.82697V3.38119L38.3505 7.23996L33.9223 11.0987V9.65295C33.9223 9.43981 33.8375 9.2347 33.686 9.08387C33.5346 8.93305 33.3286 8.84861 33.1146 8.84861L19.384 8.84864Z" fill="#003781"/>
</svg>
