<svg width="50" height="46" viewBox="0 0 50 46" fill="none" xmlns="http://www.w3.org/2000/svg">
<path d="M42.6274 13.4613L41.3244 13.0703L39.7467 13.1533C39.1897 9.26621 37.8827 2.91578 35.136 1.03636C34.3924 0.527433 33.5863 0.369431 32.7425 0.561208C32.2674 0.214291 31.7212 0.02423 31.107 0.00190358C26.4425 -0.156671 24.4348 9.63316 23.7719 13.9914L18.3592 14.2753L17.3505 22.4903H2.35629C1.05678 22.4903 0 23.5471 0 24.8466V43.6328C0 44.9323 1.05736 45.9891 2.35629 45.9891H32.221C33.0608 45.9891 33.7941 45.5443 34.2115 44.8808L40.1068 46L49.5503 43.4496L46.7177 13.0314L42.6274 13.4613ZM34.6506 1.74508C37.1849 3.47852 38.422 10.0081 38.8851 13.1985L34.6019 13.4235C35.0192 9.91253 35.3782 3.9657 33.5085 1.35294C33.9035 1.36954 34.2819 1.49262 34.6506 1.74508ZM32.5399 1.53269C32.5965 1.59166 32.6561 1.64146 32.7099 1.70901C34.5492 3.99718 34.1428 10.0207 33.7266 13.4693L30.0181 13.6639C29.4771 6.8229 30.3879 2.46181 32.5399 1.53269ZM31.0755 0.860039C31.3045 0.868053 31.5134 0.919003 31.7138 0.988845C28.9579 2.74748 28.7575 8.65023 29.1571 13.7092L24.6426 13.9462C25.4217 8.91529 27.4443 0.720928 31.0755 0.860039ZM33.7186 43.6323C33.7186 43.7267 33.7071 43.8177 33.6911 43.907C33.6333 44.215 33.4827 44.4904 33.2675 44.7011C32.9973 44.9655 32.6286 45.1298 32.2216 45.1298H2.35629C1.53079 45.1298 0.858707 44.4583 0.858707 43.6323V24.846C0.858707 24.0205 1.53079 23.3484 2.35629 23.3484H17.2451H18.1101H32.2216C33.0471 23.3484 33.7192 24.02 33.7192 24.846L33.7186 43.6323ZM39.6797 45.044L34.5338 44.0673C34.5601 43.9259 34.5779 43.7811 34.5779 43.6323V24.846C34.5779 23.5465 33.5211 22.4897 32.2216 22.4897H18.2155L19.1234 15.0951L23.6465 14.8575C23.5881 15.2857 23.5492 15.6103 23.5269 15.8107H22.6395V16.6694H25.3113V15.8107H24.3913C24.4262 15.5039 24.4674 15.1707 24.5167 14.8117L33.6161 14.3343C33.5205 15.0356 33.4364 15.5565 33.3928 15.8107H32.3069V16.6694H34.978V15.8107H34.2647C34.3185 15.4913 34.4021 14.964 34.4931 14.2885L40.8264 13.9559L39.6797 45.044ZM41.6817 14.0738L42.158 14.2169V39.2362L40.6111 43.1027L41.6817 14.0738ZM40.8081 44.9203L42.7997 39.9415L47.988 42.9814L40.8081 44.9203ZM43.0161 39.0725V14.2839L45.9431 13.9754L48.5839 42.3356L43.0161 39.0725Z" fill="#003781"/>
<path d="M28.1673 37.2207C27.5422 37.2207 26.9623 37.4136 26.4814 37.7422C26.0005 37.4136 25.4206 37.2207 24.7955 37.2207C23.1422 37.2207 21.7969 38.566 21.7969 40.2193C21.7969 40.7717 21.9577 41.2835 22.2194 41.7283C22.4844 42.1789 22.8605 42.5504 23.3145 42.8109C23.753 43.0622 24.2545 43.2179 24.7955 43.2179C24.9438 43.2179 25.0857 43.195 25.2283 43.1738C25.6868 43.1069 26.1145 42.9466 26.4808 42.6964C26.9617 43.025 27.5422 43.2179 28.1668 43.2179C28.5085 43.2179 28.832 43.1481 29.1382 43.0422C30.3135 42.6363 31.1654 41.5308 31.1654 40.2193C31.1659 38.566 29.8206 37.2207 28.1673 37.2207ZM25.8334 42.0787C25.6542 42.1789 25.4636 42.2596 25.258 42.3054C25.1086 42.3386 24.9546 42.3592 24.7949 42.3592C24.3507 42.3592 23.9379 42.223 23.5956 41.99C23.0288 41.6047 22.655 40.9549 22.655 40.2193C22.655 39.0394 23.615 38.0794 24.7949 38.0794C25.1733 38.0794 25.5242 38.187 25.8328 38.3599C25.4235 38.8729 25.1682 39.5135 25.1682 40.2193C25.1682 40.9252 25.4241 41.5658 25.8334 42.0787ZM28.1673 42.3592C27.7889 42.3592 27.438 42.2516 27.1294 42.0787C27.0041 42.0083 26.8873 41.927 26.7791 41.8337C26.6698 41.7392 26.5701 41.6356 26.4814 41.5211C26.2015 41.1593 26.028 40.7111 26.028 40.2193C26.028 39.7276 26.2015 39.2793 26.4814 38.9175C26.5701 38.803 26.6698 38.6994 26.7791 38.6049C26.8873 38.5116 27.0041 38.4303 27.1294 38.3599C27.4386 38.187 27.7889 38.0794 28.1673 38.0794C29.3472 38.0794 30.3072 39.0394 30.3072 40.2193C30.3072 41.3992 29.3472 42.3592 28.1673 42.3592Z" fill="#003781"/>
<path d="M9.40979 27.8457H3.81445V32.0396H9.40979V27.8457ZM8.55108 31.1809H4.67316V28.7044H8.55108V31.1809Z" fill="#003781"/>
<path d="M27.7947 33.3281H16.8851H16.0201H3.81445V36.234H15.6635H16.5285H27.7947V33.3281ZM26.936 35.3753H16.6338H15.7688H4.67316V34.1868H15.9148H16.7798H26.936V35.3753Z" fill="#003781"/>
<path d="M4.24414 40.7008V41.1302H8.33789V40.7008V40.2715H4.24414V40.7008Z" fill="#003781"/>
<path d="M11.1465 40.2715V40.7008V41.1302H15.0605H15.2414V40.7008V40.2715H15.1658H11.1465Z" fill="#003781"/>
</svg>
