<svg width="42" height="53" viewBox="0 0 42 53" fill="none" xmlns="http://www.w3.org/2000/svg">
<path d="M26.9069 19.9211C22.8346 19.926 19.3324 22.8124 18.5382 26.8178C17.7461 30.8234 19.8859 34.8337 23.6486 36.396C27.4113 37.9582 31.7515 36.6355 34.0131 33.2383C36.2747 29.8436 35.8287 25.3175 32.9481 22.4288C31.347 20.8207 29.1733 19.9187 26.9069 19.9211ZM37.4835 6.95811L41.7532 10.7634C41.9798 10.9638 42.0603 11.2839 41.953 11.5675C41.8458 11.851 41.5728 12.0367 41.2706 12.0343H39.6719V19.7399C39.6719 20.1407 39.3478 20.4658 38.9481 20.4682H35.0513C34.8588 20.4682 34.6736 20.39 34.5395 20.2531C34.4031 20.1163 34.3275 19.933 34.3275 19.7399V12.0343H32.7288C32.4193 12.0367 32.1415 11.8437 32.0391 11.5504C31.9368 11.2595 32.0294 10.9321 32.2731 10.7414L36.5184 6.95567C36.7913 6.70883 37.2105 6.70883 37.4835 6.95567L37.4835 6.95811ZM38.6533 9.94463L36.9985 8.46845L34.6346 10.5752L35.0513 10.5776C35.451 10.5776 35.7752 10.9027 35.7776 11.3059V19.0115H38.222L38.2195 11.3059C38.222 10.9051 38.5461 10.5801 38.9458 10.5776H39.3625L38.6533 9.94463ZM27.6306 34.5017C27.6306 34.9025 27.304 35.2276 26.9043 35.2276C26.5022 35.2276 26.1781 34.9026 26.1781 34.5017V33.8149C24.8085 33.4777 23.8434 32.2459 23.8434 30.8309C23.8434 30.43 24.1675 30.105 24.5672 30.105C24.9669 30.105 25.291 30.43 25.291 30.8309C25.291 31.4834 25.6834 32.0724 26.2854 32.3241C26.8873 32.5758 27.5794 32.439 28.04 31.9771C28.5031 31.5152 28.642 30.821 28.3934 30.2174C28.1448 29.6137 27.56 29.2178 26.9068 29.2153C25.3593 29.2129 24.0579 28.052 23.8727 26.5099C23.6899 24.9678 24.6818 23.5307 26.1854 23.1616V22.4773C26.1854 22.074 26.5095 21.7489 26.9117 21.7489C27.3113 21.7489 27.6355 22.074 27.6355 22.4773V23.164V23.1616C29.0075 23.4989 29.9702 24.7306 29.9726 26.1457C29.9726 26.5489 29.6461 26.874 29.2464 26.874C28.8443 26.874 28.5201 26.549 28.5201 26.1457C28.5201 25.4931 28.1277 24.9066 27.5283 24.6549C26.9263 24.4056 26.2342 24.5424 25.7736 25.0043C25.313 25.4638 25.1741 26.1579 25.4227 26.7616C25.6712 27.3652 26.2561 27.7587 26.9068 27.7612C28.4543 27.7636 29.7581 28.9245 29.9409 30.4667C30.1261 32.0088 29.1342 33.4459 27.6306 33.8149L27.6306 34.5017ZM3.35295 3.00608V2.9792C3.35782 1.33684 4.68356 0.00488013 6.32367 0H27.1799C28.8176 0.00488827 30.1458 1.33684 30.1507 2.9792V19.0067C33.0312 19.9965 35.305 22.2523 36.3261 25.1338C37.3447 28.0128 36.9987 31.2021 35.3854 33.7929C33.7745 36.3859 31.0694 38.0991 28.0423 38.4462C25.0131 38.7932 21.9936 37.735 19.8396 35.5746C19.63 35.3668 19.435 35.1469 19.2474 34.9244H3.32598C1.6883 34.9195 0.360127 33.59 0.357694 31.9477V5.98286C0.360131 4.3405 1.6883 3.01098 3.32598 3.0061L3.35295 3.00608ZM28.703 18.6306V2.97918C28.6981 2.13842 28.0206 1.45902 27.1823 1.45658H6.32355C5.48518 1.45902 4.80771 2.13842 4.80284 2.97918V3.00606H20.3561C20.5462 3.00606 20.729 3.07938 20.8655 3.2138L26.8971 8.37792H26.8947C27.058 8.51478 27.1506 8.71763 27.1506 8.92782V18.4691C27.6697 18.4813 28.1888 18.5351 28.6981 18.6304L28.703 18.6306ZM25.703 18.5402V9.6565H20.3562C20.1637 9.6565 19.9809 9.58073 19.8444 9.44387C19.7104 9.30701 19.6324 9.12127 19.6348 8.92819V4.46062H3.32603C2.49016 4.46306 1.81019 5.14496 1.80776 5.98322V31.948C1.81019 32.7863 2.49016 33.4682 3.32603 33.4706H18.2311C17.3636 31.9529 16.9078 30.2372 16.9127 28.4898C16.9127 27.9815 16.9492 27.4756 17.0223 26.9746H15.1458V25.518H17.1223V26.4442C17.3489 25.3445 17.7583 24.2935 18.3359 23.333H6.66003V21.8764H19.3934C19.5372 21.7151 19.6834 21.5538 19.8369 21.4023C21.4161 19.8137 23.4803 18.8068 25.7004 18.538L25.703 18.5402ZM1.20144 35.9973H6.02434C6.61166 35.9973 7.11369 36.425 7.21114 37.0067H9.06082C10.0819 37.0116 10.9081 37.8401 10.913 38.8642V39.8271C11.1299 39.612 11.3614 39.4141 11.6076 39.2332C13.0795 38.2019 14.8366 37.6618 16.6303 37.6911C17.7538 37.6862 18.8699 37.8891 19.9202 38.2899C20.8025 38.6247 21.6115 39.1306 22.2988 39.7783H25.5376C26.1859 39.7758 26.8097 40.0324 27.2678 40.4943C27.7284 40.9538 27.9867 41.5795 27.9892 42.2295C27.9892 42.3542 27.9794 42.4788 27.9599 42.601L27.9697 42.5912L31.457 39.0865H31.4546C32.2028 38.2238 33.4237 37.9525 34.4643 38.4169C34.8396 38.588 35.1783 38.8299 35.4611 39.133C35.7413 39.4311 35.9655 39.7757 36.124 40.1521C36.6187 41.1908 36.3896 42.4299 35.5586 43.2217L30.5261 47.9703C30.3872 48.1023 30.2629 48.2392 30.1386 48.3809C29.5952 48.9821 29.0371 49.6029 28.0647 49.6053L10.9131 49.708V50.1357H10.9155C10.9082 51.1572 10.082 51.9833 9.06332 51.9882H7.21364C7.17221 52.2375 7.0528 52.4672 6.8749 52.6456C6.65069 52.8729 6.34606 53 6.02679 53H1.20146C0.538594 52.9976 0 52.4599 0 51.7951V37.2023C0 36.5375 0.538556 35.9973 1.20144 35.9973ZM5.77815 37.4515H1.44999V51.5457H5.77572V37.4515H5.77815ZM10.9154 42.6645V45.6534L10.9715 48.2538L28.0601 48.1511C28.394 48.1511 28.7352 47.7723 29.0691 47.4033C29.225 47.2298 29.381 47.0562 29.537 46.9121L34.5719 42.1609C34.9472 41.7772 35.0373 41.1931 34.7936 40.7141C34.701 40.4966 34.5719 40.2986 34.4086 40.1275C34.2624 39.9638 34.0845 39.8367 33.8846 39.7463C33.3875 39.5434 32.8197 39.6901 32.4809 40.1055L28.996 43.6102C28.2307 44.3996 27.1585 44.8127 26.0618 44.7418L24.8628 44.6807L17.7736 44.6758C17.374 44.6758 17.0498 44.3532 17.0498 43.9524C17.0498 43.5516 17.3739 43.229 17.7736 43.229L24.9021 43.2388H25.5454V43.2364C26.0962 43.2315 26.5422 42.7842 26.5471 42.2294C26.5446 41.963 26.4374 41.7113 26.2498 41.5231C26.0621 41.3325 25.8062 41.2274 25.5382 41.2274L22.0434 41.2323V41.2347C21.8265 41.247 21.617 41.1614 21.4683 41.0026C20.8883 40.4013 20.1815 39.937 19.3993 39.6461C18.517 39.3113 17.5788 39.1427 16.6332 39.1476C15.1467 39.1182 13.6893 39.5581 12.4683 40.4062C11.6836 40.9365 11.128 41.743 10.9159 42.6693L10.9154 42.6645ZM9.06575 38.4608L7.22823 38.4632V50.5316H9.06331C9.28264 50.5291 9.45811 50.3532 9.46298 50.1356V45.4187L9.41668 43.3683V43.2827C9.41668 43.1825 9.4118 43.2558 9.4118 43.1996L9.40937 43.2021C9.40937 42.9797 9.42886 42.7573 9.46298 42.5349V38.864C9.46298 38.6416 9.28508 38.4632 9.06331 38.4632L9.06575 38.4608ZM6.66038 10.9562H20.8461V12.4128H6.66038V10.9562ZM6.66038 14.5953H20.8461V16.0495H6.66038V14.5953ZM6.66526 25.5149H13.3963V26.9715L6.66775 26.9691L6.66526 25.5149ZM6.66038 18.2366H20.8461V19.6932H6.66038V18.2366ZM24.4628 8.20172L21.0826 5.30805V8.20172H24.4628Z" fill="#003781"/>
</svg>
