<svg width="46" height="44" viewBox="0 0 46 44" fill="none" xmlns="http://www.w3.org/2000/svg">
<path d="M42.3899 4.26771H34.814V3.0015C34.814 1.35965 33.424 0 31.7454 0H27.3337C25.6552 0 24.2652 1.35965 24.2652 3.0015V4.26771H16.6854C14.9114 4.26771 13.4727 5.67501 13.4727 7.36453V10.4137C13.4727 11.493 14.0478 12.477 14.9601 13.0414V21.1574C14.9601 21.6265 15.391 22.0479 15.8705 22.0479C16.3501 22.0479 16.781 21.6723 16.781 21.1574V13.791C18.555 14.3536 21.2882 14.9638 25.1736 15.246V15.3395C25.1736 16.7468 26.3238 17.8719 27.7626 17.8719H31.1683C32.6071 17.8719 33.7573 16.7468 33.7573 15.3395V15.246C37.6426 14.9638 40.3759 14.3555 42.1499 13.791V22.7518C42.1499 23.2209 42.5339 23.6424 43.0603 23.6424C43.5399 23.6424 43.9708 23.2209 43.9708 22.7518L43.9726 13.0874C44.8831 12.5248 45.4601 11.5866 45.4601 10.4597V7.4105C45.5556 5.6752 44.1171 4.26771 42.3899 4.26771ZM26.0842 3.0015C26.0842 2.34551 26.6593 1.78109 27.3319 1.78109H31.7436C32.4143 1.78109 32.9913 2.34364 32.9913 3.0015V4.26771H26.0844L26.0842 3.0015ZM32.0319 15.3849C32.0319 15.8063 31.6966 16.182 31.217 16.182H27.8113C27.3804 16.182 26.9964 15.854 26.9964 15.3849V14.1187C26.9964 13.6972 27.3317 13.3216 27.8113 13.3216H31.217C31.6479 13.3216 32.0319 13.6496 32.0319 14.1187V15.3849ZM43.7327 10.4593C43.7327 11.0218 43.3974 11.4909 42.8691 11.7255C41.3816 12.288 38.4573 13.1805 33.7571 13.5085C33.4686 12.3834 32.4626 11.5386 31.2149 11.5386H27.8092C26.5615 11.5386 25.5555 12.3834 25.267 13.5085C20.5668 13.1805 17.5938 12.288 16.155 11.7255C15.6267 11.5386 15.2914 11.0218 15.2914 10.4593V7.41013C15.2914 6.65881 15.9152 6.05048 16.6814 6.05048H42.3389C43.1069 6.05048 43.7289 6.66069 43.7289 7.41013L43.7327 10.4593Z" fill="#003781"/>
<path d="M41.3809 25.6595L31.9336 28.333V28.2395C31.9336 27.4882 31.6939 26.7388 31.263 26.1762C30.7347 25.4726 29.873 25.0035 28.9606 24.91L19.418 23.8307C17.4042 23.5962 15.3416 24.0176 13.6141 25.0511L11.0252 26.5519C10.5943 26.7864 10.4501 27.349 10.7367 27.7723C10.9765 28.1938 11.5516 28.3349 11.9844 28.0545L14.5733 26.5538C15.9633 25.709 17.595 25.381 19.2248 25.5679L28.7675 26.6472C29.1984 26.6948 29.5824 26.8818 29.8222 27.2574C30.062 27.5396 30.1575 27.8676 30.1575 28.2433C30.1575 28.5713 30.062 28.8993 29.8222 29.1338C29.8222 29.1815 29.7735 29.1815 29.7735 29.2273C29.4381 29.6029 28.9586 29.7898 28.479 29.744L20.2307 29.2273C19.7512 29.2273 19.3203 29.5553 19.2716 30.072C19.2229 30.5411 19.6069 30.9626 20.1352 31.0102L28.3835 31.527H28.6233C29.5337 31.527 30.3973 31.1514 31.0699 30.4953L41.9558 27.3985C42.4354 27.2574 43.0105 27.4462 43.3458 27.8676C43.5856 28.1498 43.6343 28.5236 43.5856 28.8535C43.5369 29.1815 43.2971 29.5095 43.0105 29.6506L26.7048 38.7943C25.4572 39.498 23.9716 39.6391 22.6284 39.17L16.8246 37.1525C16.345 36.9656 15.8167 37.2459 15.6744 37.6692C15.5301 38.1383 15.7699 38.6551 16.2027 38.7943L22.0065 40.8118C22.7259 41.094 23.494 41.1875 24.2601 41.1875C25.4104 41.1875 26.5625 40.9053 27.6172 40.2969L43.8274 31.0561C44.5955 30.6346 45.1219 29.8833 45.2662 29.0386C45.4572 28.1938 45.2174 27.3491 44.6423 26.5996C43.8742 25.7054 42.5798 25.3315 41.3809 25.6595Z" fill="#003781"/>
<path d="M8.72124 28.1887C8.14613 26.9225 6.61186 26.4058 5.31547 26.9683L1.47884 28.7036C0.184365 29.2662 -0.343939 30.7669 0.231172 32.035L5.21782 42.5419C5.50632 43.1522 6.03272 43.6213 6.65656 43.8558C6.94505 43.9493 7.23167 43.9969 7.52018 43.9969C7.90422 43.9969 8.23955 43.9035 8.57487 43.7624L12.4115 42.0271C13.0353 41.7449 13.5149 41.2299 13.7547 40.6197C13.9945 40.0095 13.9458 39.3059 13.6592 38.6957L8.72124 28.1887ZM12.0783 40.0096C12.0296 40.1965 11.8872 40.3376 11.6942 40.4311L7.85762 42.1664C7.66654 42.2599 7.47359 42.2599 7.28251 42.1664C7.09143 42.1188 6.94718 41.9795 6.85164 41.7908L1.86307 31.2852C1.67199 30.9096 1.86307 30.4881 2.24711 30.2993L6.08373 28.564C6.17927 28.5164 6.27482 28.5164 6.41906 28.5164C6.70756 28.5164 6.99417 28.6575 7.0897 28.9379L12.0764 39.4448C12.1269 39.6354 12.127 39.8227 12.0783 40.0096Z" fill="#003781"/>
<path d="M7.95552 37.5278C7.28488 37.81 6.99637 38.5594 7.33169 39.2173C7.62018 39.8733 8.38638 40.1555 9.05894 39.8275C9.72958 39.5453 10.0181 38.7959 9.68277 38.138C9.39428 37.5278 8.62621 37.2456 7.95552 37.5278Z" fill="#003781"/>
</svg>
