<svg width="40" height="42" viewBox="0 0 40 42" fill="none" xmlns="http://www.w3.org/2000/svg">
<path d="M28.3043 14.8267H24.8568V14.7841C24.8568 13.3796 23.7077 12.2305 22.3032 12.2305H18.1321C16.7276 12.2305 15.5785 13.3796 15.5785 14.7841V14.8267H12.1736C11.2798 14.8267 10.5137 15.5503 10.5137 16.4866V27.9356C10.5137 28.8294 11.2372 29.5955 12.1736 29.5955H28.3043C29.1981 29.5955 29.9642 28.8719 29.9642 27.9356V16.4866C29.9642 15.5928 29.1981 14.8267 28.3043 14.8267ZM16.8127 14.8267C16.8127 14.1032 17.4086 13.5073 18.1321 13.5073H22.3032C23.0267 13.5073 23.6226 14.1032 23.6226 14.8267V14.8693L16.8127 14.8267ZM22.1329 23.8923V22.0196L25.9634 22.0621L28.7725 20.1894V27.9356C28.7725 28.191 28.5597 28.3612 28.3469 28.3612H12.1736C11.9182 28.3612 11.748 28.1484 11.748 27.9356V20.1469L14.1314 21.9345L18.1321 21.977V23.8923H22.1329ZM14.5144 20.7427L11.7054 18.6572V16.4866C11.7054 16.2312 11.9182 16.061 12.131 16.061H28.2617C28.5171 16.061 28.6874 16.2738 28.6874 16.4866V18.6998L25.4953 20.8279L14.5144 20.7427ZM20.8986 22.0621V22.7006H19.3239V22.0621H20.8986Z" fill="#003781"/>
<path d="M38.5606 20.7008C38.0924 20.7008 37.7093 21.0838 37.7093 21.552C37.7093 31.4688 29.6652 39.5129 19.7485 39.5129C9.83167 39.5129 1.74501 31.5113 1.74501 21.5946C1.74501 12.1034 9.10812 4.31465 18.4291 3.67623L17.663 4.27209C17.2799 4.57002 17.1948 5.12332 17.4927 5.50637C17.663 5.71918 17.9183 5.84686 18.1737 5.84686C18.3439 5.84686 18.5567 5.8043 18.6844 5.67662L21.5786 3.46343C21.7914 3.29318 21.9191 3.03781 21.9191 2.73989C21.9191 2.44196 21.7488 2.18659 21.536 2.0589L18.6419 0.143644C18.2588 -0.111723 17.7055 -0.0266009 17.4501 0.399012C17.1948 0.782064 17.2799 1.33536 17.7055 1.59073L18.3014 1.97378C8.08665 2.69732 0 11.2522 0 21.6371C0 32.4903 8.85276 41.343 19.7059 41.343C30.559 41.343 39.4118 32.4903 39.4118 21.6371C39.4118 21.0838 39.0287 20.7008 38.5606 20.7008Z" fill="#003781"/>
<path d="M37.8804 18.0617C38.4681 18.0617 38.9445 17.5853 38.9445 16.9976C38.9445 16.41 38.4681 15.9336 37.8804 15.9336C37.2928 15.9336 36.8164 16.41 36.8164 16.9976C36.8164 17.5853 37.2928 18.0617 37.8804 18.0617Z" fill="#003781"/>
<path d="M36.4761 14.1027C37.0638 14.1027 37.5402 13.6263 37.5402 13.0386C37.5402 12.451 37.0638 11.9746 36.4761 11.9746C35.8885 11.9746 35.4121 12.451 35.4121 13.0386C35.4121 13.6263 35.8885 14.1027 36.4761 14.1027Z" fill="#003781"/>
<path d="M33.9644 10.3996C34.5521 10.3996 35.0285 9.92317 35.0285 9.33552C35.0285 8.74787 34.5521 8.27148 33.9644 8.27148C33.3768 8.27148 32.9004 8.74787 32.9004 9.33552C32.9004 9.92317 33.3768 10.3996 33.9644 10.3996Z" fill="#003781"/>
<path d="M30.3902 7.25111C30.9779 7.25111 31.4542 6.77473 31.4542 6.18708C31.4542 5.59943 30.9779 5.12305 30.3902 5.12305C29.8026 5.12305 29.3262 5.59943 29.3262 6.18708C29.3262 6.77473 29.8026 7.25111 30.3902 7.25111Z" fill="#003781"/>
<path d="M26.2203 4.99525C26.8079 4.99525 27.2843 4.51887 27.2843 3.93122C27.2843 3.34357 26.8079 2.86719 26.2203 2.86719C25.6326 2.86719 25.1562 3.34357 25.1562 3.93122C25.1562 4.51887 25.6326 4.99525 26.2203 4.99525Z" fill="#003781"/>
</svg>
