<svg width="43" height="43" viewBox="0 0 43 43" fill="none" xmlns="http://www.w3.org/2000/svg">
<path d="M42.2953 5.547C39.5912 5.547 37.4417 3.39754 37.4417 0.693375C37.4417 0.27735 37.1644 0 36.7483 0H34.0442C33.6281 0 33.3508 0.27735 33.3508 0.693375C33.3508 1.1094 33.6281 1.38675 34.0442 1.38675H36.055C36.4016 4.29893 38.6898 6.58707 41.5326 6.86442V19.8999C41.5326 27.319 37.1644 34.1834 30.4386 37.3036L21.4247 41.5332L12.4109 37.3036C12.2722 37.2343 11.5095 36.8876 11.1628 37.4423C10.8161 38.0663 11.7175 38.4823 11.8562 38.5517L21.1474 42.9199C21.2167 42.9893 21.4941 43.0586 21.7714 42.9199L31.0627 38.5517C38.3431 35.2235 42.9887 27.8737 42.9887 19.8999V6.24038C42.9887 5.82435 42.7114 5.547 42.2953 5.547Z" fill="#003781"/>
<path d="M1.38675 19.8999V6.86442C4.29893 6.51773 6.58707 4.22959 6.86442 1.38675H31.3406C31.7566 1.38675 32.0339 1.1094 32.0339 0.693375C32.0339 0.27735 31.7566 0 31.3406 0H6.24038C5.82435 0 5.547 0.27735 5.547 0.693375C5.547 3.39754 3.39754 5.547 0.693375 5.547C0.27735 5.547 0 5.82435 0 6.24038V19.8999C0 24.4762 1.52543 28.9831 4.36827 32.5886C4.50694 32.7967 4.85363 33.0047 5.33899 32.7273C5.68568 32.5193 5.68568 32.0339 5.47767 31.7566C2.84284 28.3591 1.38675 24.1988 1.38675 19.8999Z" fill="#003781"/>
<path d="M7.6964 34.1141C7.41898 33.8367 7.00285 33.906 6.72543 34.1835C6.44801 34.4609 6.51737 34.877 6.79479 35.1544C7.14156 35.4318 7.48834 35.7786 7.83511 36.056C7.97382 36.1254 8.4593 36.3335 8.80608 35.9173C9.01414 35.6399 9.01414 35.1544 8.66737 34.9464C8.3206 34.6689 7.97382 34.3915 7.6964 34.1141Z" fill="#003781"/>
<path d="M21.4943 27.7348C19.5528 27.7348 18.0274 26.2094 18.0274 24.2679C18.0274 23.8519 17.75 23.5746 17.334 23.5746C16.918 23.5746 16.6406 23.8519 16.6406 24.2679C16.6406 26.6948 18.4434 28.7055 20.8009 29.0522V31.2017C20.8009 31.6177 21.0782 31.8951 21.4943 31.8951C21.9103 31.8951 22.1876 31.6177 22.1876 31.2017V29.0522C24.5451 28.7055 26.3479 26.6948 26.3479 24.2679C26.3479 21.5638 24.1984 19.4143 21.4943 19.4143C19.5528 19.4143 18.0274 17.8889 18.0274 15.9474C18.0274 14.006 19.5528 12.4806 21.4943 12.4806C23.4357 12.4806 24.9611 14.006 24.9611 15.9474C24.9611 16.3635 25.2385 16.6408 25.6545 16.6408C26.0705 16.6408 26.3479 16.3635 26.3479 15.9474C26.3479 13.5206 24.5451 11.5098 22.1876 11.1632V9.01369C22.1876 8.59766 21.9103 8.32031 21.4943 8.32031C21.0782 8.32031 20.8009 8.59766 20.8009 9.01369V11.1632C18.4434 11.5098 16.6406 13.5206 16.6406 15.9474C16.6406 18.6516 18.7901 20.8011 21.4943 20.8011C23.4357 20.8011 24.9611 22.3265 24.9611 24.2679C24.9611 26.2094 23.4357 27.7348 21.4943 27.7348Z" fill="#003781"/>
<path d="M40.2155 9.01382C40.2155 8.59779 39.9381 8.32044 39.5221 8.32044C37.2339 8.32044 34.6684 5.75495 34.6684 3.46681C34.6684 3.05079 34.3911 2.77344 33.9751 2.77344H14.5606C14.1445 2.77344 13.8672 3.05079 13.8672 3.46681C13.8672 3.88284 14.1445 4.16019 14.5606 4.16019H33.351C33.7671 6.79501 36.1939 9.29117 38.8287 9.63785V11.7873C38.8287 12.2033 39.1061 12.4807 39.5221 12.4807C39.9381 12.4807 40.2155 12.2033 40.2155 11.7873V9.01382Z" fill="#003781"/>
<path d="M12.55 3.46681C12.55 3.05079 12.2727 2.77344 11.8567 2.77344H9.01382C8.59779 2.77344 8.32044 3.05079 8.32044 3.46681C8.32044 5.75495 5.75495 8.32044 3.46681 8.32044C3.05079 8.32044 2.77344 8.59779 2.77344 9.01381V18.5131C2.77344 25.7242 6.72568 32.3112 13.0354 35.7781L21.1479 40.1464C21.2172 40.2157 21.4946 40.285 21.7719 40.1464L29.8844 35.7781C36.2635 32.3806 40.2157 25.7935 40.2157 18.5131V14.4915C40.2157 14.0755 39.9384 13.7981 39.5223 13.7981C39.1063 13.7981 38.829 14.0755 38.829 14.4915V18.5131C38.829 25.2388 35.1541 31.4098 29.2604 34.53L21.4946 38.6903L13.7288 34.53C7.83508 31.3405 4.16019 25.1695 4.16019 18.5131V9.63785C6.79501 9.22183 9.29117 6.79501 9.63785 4.16019H11.8567C12.2727 4.16019 12.55 3.88284 12.55 3.46681Z" fill="#003781"/>
<path d="M35.6395 24.8918C36.0555 24.9611 36.4022 24.7531 36.5409 24.4757C37.1649 22.6036 37.5116 20.7315 37.5116 18.9981C37.5116 18.582 37.2343 18.3047 36.8183 18.3047C36.4022 18.3047 36.1249 18.582 36.1249 18.9981C36.1249 20.5928 35.8475 22.3263 35.2928 24.0597C35.0848 24.4064 35.2235 24.8224 35.6395 24.8918Z" fill="#003781"/>
<path d="M34.9466 26.4181C34.5999 26.21 34.1837 26.3487 33.9757 26.6955C33.6982 27.181 33.4208 27.5971 33.1434 28.0132C32.866 28.2907 32.9353 28.7761 33.2128 28.9842C33.6289 29.331 34.045 29.0536 34.1837 28.9148C34.5999 28.4294 34.8773 27.9439 35.1547 27.4584C35.3628 27.0423 35.2934 26.6261 34.9466 26.4181Z" fill="#003781"/>
<path d="M8.59773 9.2904C7.83501 9.91444 7.00296 10.2611 6.24025 10.2611C5.82423 10.2611 5.54688 10.5385 5.54688 10.9545V13.1733C5.54688 13.5893 5.82423 13.8667 6.24025 13.8667C6.65628 13.8667 6.93363 13.5893 6.93363 13.1733V11.5785C7.83501 11.4399 8.66706 11.0238 9.42978 10.3998C9.70713 10.1224 9.77646 9.70642 9.49911 9.42907C9.2911 9.08239 8.87508 9.08238 8.59773 9.2904Z" fill="#003781"/>
</svg>
