<svg width="42" height="43" viewBox="0 0 42 43" fill="none" xmlns="http://www.w3.org/2000/svg">
<path d="M7.45161 24.2216C8.05991 24.2216 8.05991 25.1564 7.45161 25.1564H2.85253C2.24424 25.1564 2.24424 24.2216 2.85253 24.2216H7.45161ZM5.04608 28.5686C5.65438 28.5686 5.65438 29.5034 5.04608 29.5034H0.456221C-0.152074 29.5034 -0.152074 28.5686 0.456221 28.5686H5.04608ZM38.318 7.86196C38.9263 7.86196 38.9263 8.7968 38.318 8.7968H33.7189C33.1106 8.7968 33.1106 7.86196 33.7189 7.86196H38.318ZM41.5438 25.1284C42.1521 25.1284 42.1521 26.0632 41.5438 26.0632H34.8894C34.2811 26.0632 34.2811 25.1284 34.8894 25.1284H41.5438ZM7.45161 11.6948C8.05991 11.6948 8.05991 12.6296 7.45161 12.6296H2.85253C2.24424 12.6296 2.24424 11.6948 2.85253 11.6948H7.45161ZM3.10138 20.8094C2.49309 20.8094 2.49309 19.8746 3.10138 19.8746H4.52074C5.12903 19.8746 5.12903 20.8094 4.52074 20.8094H3.10138ZM5.04608 15.5276C5.65438 15.5276 5.65438 16.4624 5.04608 16.4624H0.456221C-0.152074 16.4624 -0.152074 15.5276 0.456221 15.5276H5.04608ZM35.212 17.7245C34.6037 17.7245 34.6037 16.7896 35.212 16.7896H37.9677C38.576 16.7896 38.576 17.7245 37.9677 17.7245H35.212ZM41.5438 21.2862C42.1521 21.2862 42.1521 22.221 41.5438 22.221H37.5806C36.9724 22.221 36.9724 21.2862 37.5806 21.2862H41.5438ZM7.48848 7.83392C6.88018 7.83392 6.88018 6.89908 7.48848 6.89908H8.90784C9.51613 6.89908 9.51613 7.83392 8.90784 7.83392H7.48848ZM34.8433 38.4311C35.4516 38.4311 35.4516 39.3659 34.8433 39.3659H31.9493C31.341 39.3659 31.341 38.4311 31.9493 38.4311H34.8433ZM22.7604 13.4616C23.3687 13.4616 23.3687 14.3965 22.7604 14.3965H21.4332C21.0737 14.3965 20.7696 14.4806 20.5484 14.6115C20.4009 14.705 20.3088 14.8078 20.3088 14.9013C20.3088 15.2378 20.9078 15.3219 21.4977 15.4061C22.4931 15.5557 23.4793 15.6959 23.4793 16.8457C23.4793 17.659 22.6406 18.1358 21.8848 18.248V18.463H20.9631V18.2854H19.9677C19.3594 18.2854 19.3594 17.3505 19.9677 17.3505H21.4332C21.7834 17.3505 22.0968 17.2664 22.318 17.1355C22.4654 17.042 22.5576 16.9392 22.5576 16.8457C22.5576 16.5092 21.9585 16.4251 21.3687 16.3316C20.3733 16.182 19.3871 16.0418 19.3871 14.9013C19.3871 14.088 20.2166 13.6112 20.9816 13.4897L20.9908 13.256L21.9124 13.284L21.9032 13.4523H22.7604V13.4616ZM3.72811 31.5787L5.92166 30.2793C6.73272 29.8025 7.73733 29.9147 8.42857 30.513L10.1982 29.494V13.6579C10.1982 9.49792 11.8571 9.03051 13.2212 8.65657C13.894 8.46961 14.4562 8.31068 14.4562 7.35715V6.07643H13.2673C13.0092 6.07643 12.8065 5.87076 12.8065 5.60901V0.467418C12.8065 0.205664 13.0092 0 13.2673 0H30.1521C30.4009 0 30.6129 0.205664 30.6129 0.467418V5.60901C30.6129 5.87076 30.4101 6.07643 30.1521 6.07643H28.9631V7.35715C28.9631 8.31068 29.5346 8.46961 30.1982 8.65657C31.5622 9.03985 33.2212 9.49792 33.2212 13.6579V29.9241C36.8157 28.8771 38.3733 32.4855 34.5945 34.4861L22.9908 40.6279C22.3825 40.9551 21.7465 41.0299 21.083 40.871L13.341 39.0387C13.5346 39.9548 13.129 40.9177 12.3088 41.4038L10.1152 42.7033C9.08295 43.3109 7.74654 42.9557 7.14747 41.9087L2.9447 34.5889C2.34562 33.5419 2.69585 32.1864 3.72811 31.5787ZM8.99078 31.2609L12.8433 37.973L21.2857 39.9642C21.7465 40.0764 22.1521 40.0203 22.5668 39.8053L34.1705 33.6634C37.083 32.1209 35.9217 29.8586 33.083 30.9617L23.6083 34.645C23.5069 34.6824 23.3963 34.6917 23.2857 34.645L16.3641 32.0555C15.7926 31.8405 16.1152 30.9617 16.6774 31.1767L23.4055 33.6915C23.9585 33.3643 24.4654 32.8688 24.3917 32.2425C24.2811 31.317 23.1014 30.5785 22.2811 30.2139L16.7143 27.7179C16.1521 27.4655 15.5806 27.4935 15.0461 27.802L13.7926 28.5218C13.7742 28.5312 13.7558 28.5405 13.7373 28.5499L10.9355 30.1578C10.9078 30.1765 10.8894 30.1858 10.8525 30.2045L8.99078 31.2609ZM6.38249 31.0926L4.18894 32.3827C3.59908 32.7286 3.39631 33.5138 3.73733 34.1121L7.92166 41.4038C8.30876 42.0582 9.01843 42.2452 9.67281 41.8713L11.8387 40.5905C12.4286 40.2446 12.6313 39.4594 12.2903 38.8611L8.08756 31.5413C7.74654 30.943 6.97235 30.7374 6.38249 31.0926ZM11.1198 28.9705L12.8157 27.9983C11.6267 26.3997 11.7742 24.1468 13.1751 22.7258C14.5484 21.3329 16.6959 21.1553 18.2719 22.2865C19.083 21.9032 19.9954 21.8097 20.871 22.0247C21.212 21.5293 21.6636 21.1179 22.1797 20.8188C19.1843 21.2768 16.4931 18.9304 16.4931 15.8642C16.4931 13.0877 18.7051 10.8441 21.4424 10.8441C24.1705 10.8441 26.3825 13.0877 26.3825 15.8642C26.3825 17.7806 25.3134 19.482 23.7005 20.3233C25.1659 20.155 26.5576 20.8281 27.3779 21.9967C29.6728 21.8471 31.5991 23.6887 31.5991 26.0165C31.5991 29.1014 28.3088 31.0365 25.6728 29.5221C25.1659 29.2323 24.7235 28.821 24.3825 28.3442C23.977 28.3722 23.5806 28.3349 23.1935 28.2414C22.9447 28.606 22.6313 28.9238 22.2811 29.1949C23.3594 29.681 24.2995 30.1858 24.8986 31.0926H30.1429L32.2719 30.27L32.2995 30.0082V13.6579C32.2995 10.2084 31.0184 9.84381 29.9585 9.55401C28.9263 9.26421 28.0415 9.02116 28.0415 7.35715V6.07643H15.3871V7.35715C15.3871 9.02116 14.5023 9.26421 13.47 9.55401C12.4101 9.84381 11.1198 10.2084 11.1198 13.6579V28.9705ZM13.6267 27.5402L14.5853 26.9887C15.0461 26.7269 15.5253 26.6054 16.023 26.6148C15.7834 25.1658 16.3364 23.7448 17.4055 22.8474C15.3963 21.7723 12.9263 23.2306 12.9263 25.5864C12.9355 26.3063 13.1751 26.9887 13.6267 27.5402ZM17.0277 26.8391C17.0461 26.8485 17.0553 26.8485 17.0737 26.8578L21.2581 28.7368C21.6636 28.5405 22.0138 28.2601 22.2995 27.9048C20.5207 26.9606 19.6912 24.8105 20.4194 22.8848C18.1797 22.5389 16.3825 24.689 17.0277 26.8391ZM25.2765 32.0368C25.3318 32.364 25.3041 32.7005 25.1936 33.0184L27.7281 32.0368H25.2765ZM28.1429 2.5708C28.7512 2.5708 28.7512 3.50563 28.1429 3.50563H25.682C25.0737 3.50563 25.0737 2.5708 25.682 2.5708H28.1429ZM15.7742 3.50563C15.1659 3.50563 15.1659 2.5708 15.7742 2.5708H22.8341C23.4424 2.5708 23.4424 3.50563 22.8341 3.50563H15.7742ZM27.8571 22.9502C28.6313 25.0816 27.5069 27.4281 25.4055 28.1479C26.5853 29.4099 28.5668 29.4473 29.7834 28.2133C31.6267 26.3436 30.4378 23.1465 27.8571 22.9502ZM26.2811 22.1462C25.0922 20.9403 23.1659 20.9403 21.9677 22.1462C20.7788 23.3522 20.7788 25.306 21.9677 26.5213C23.1567 27.7272 25.0922 27.7272 26.2811 26.5213C27.4793 25.3153 27.4793 23.3615 26.2811 22.1462ZM23.0369 7.82457C23.1014 7.57216 23.3502 7.42259 23.5991 7.48803C23.8479 7.55347 23.9954 7.80587 23.9309 8.05828L23.5899 9.3764C23.5253 9.6288 23.2765 9.77837 23.0277 9.71294C22.7788 9.6475 22.6313 9.39509 22.6959 9.14269L23.0369 7.82457ZM13.8571 14.0412C13.6083 13.9758 13.4608 13.7234 13.5253 13.471C13.5899 13.2186 13.8387 13.069 14.0876 13.1344L15.3963 13.4803C15.6452 13.5458 15.7926 13.7982 15.7281 14.0506C15.6636 14.303 15.4147 14.4525 15.1659 14.3871L13.8571 14.0412ZM15.6452 10.358C15.4608 10.1804 15.4608 9.88121 15.6359 9.69424C15.8111 9.50727 16.106 9.50727 16.2903 9.68489L17.2488 10.6478C17.4332 10.8347 17.4332 11.1245 17.2581 11.3115C17.083 11.4985 16.788 11.4985 16.6129 11.3209L15.6452 10.358ZM19.0092 8.08632C18.8525 7.49738 19.7373 7.24497 19.894 7.84327L20.2535 9.16138C20.4101 9.75033 19.5253 9.99339 19.3687 9.40444L19.0092 8.08632ZM28.9078 13.0503C29.4885 12.8914 29.7373 13.7888 29.1475 13.9477L27.8479 14.3123C27.2673 14.4712 27.0277 13.5738 27.6083 13.4149L28.9078 13.0503ZM26.6682 9.63815C26.8433 9.45118 27.1383 9.45118 27.3226 9.6288C27.5069 9.81577 27.5069 10.1056 27.3318 10.2925L26.3825 11.2648C26.2074 11.4517 25.9124 11.4517 25.7281 11.2741C25.5438 11.0965 25.5438 10.7973 25.7189 10.6104L26.6682 9.63815ZM24.2719 12.9849C22.7051 11.3956 20.1521 11.3956 18.5853 12.9849C17.0184 14.5741 17.0184 17.1636 18.5853 18.7528C20.1521 20.3514 22.7051 20.3514 24.2719 18.7528C25.8479 17.1636 25.8479 14.5741 24.2719 12.9849ZM29.6912 0.934835H13.7281V5.14159H29.6912V0.934835Z" fill="#003781"/>
</svg>
