<svg width="10" height="10" viewBox="0 0 10 10" fill="none" xmlns="http://www.w3.org/2000/svg">
<path d="M5 0C4.01109 0 3.0444 0.293245 2.22215 0.842652C1.39991 1.39206 0.759043 2.17295 0.380604 3.08658C0.00216643 4.00021 -0.0968502 5.00555 0.0960758 5.97545C0.289002 6.94535 0.765206 7.83627 1.46447 8.53553C2.16373 9.23479 3.05464 9.711 4.02455 9.90392C4.99445 10.0968 5.99979 9.99783 6.91342 9.6194C7.82705 9.24096 8.60794 8.60009 9.15735 7.77785C9.70675 6.9556 10 5.9889 10 5C9.99852 3.67437 9.47126 2.40347 8.5339 1.4661C7.59654 0.528745 6.32563 0.00148397 5 0ZM5 9.33333C4.14295 9.33333 3.30514 9.07919 2.59253 8.60303C1.87992 8.12688 1.3245 7.45011 0.996524 6.65829C0.668544 5.86648 0.58273 4.99519 0.749933 4.15461C0.917135 3.31402 1.32985 2.5419 1.93587 1.93587C2.5419 1.32984 3.31403 0.917133 4.15461 0.74993C4.99519 0.582728 5.86648 0.668542 6.6583 0.996522C7.45011 1.3245 8.12688 1.87992 8.60303 2.59253C9.07919 3.30514 9.33333 4.14295 9.33333 5C9.33204 6.14887 8.87508 7.25032 8.0627 8.0627C7.25033 8.87508 6.14888 9.33204 5 9.33333Z" fill="#0E2B81"/>
<path d="M4.99718 4.03906C4.93881 4.03906 4.88102 4.05056 4.8271 4.07289C4.77317 4.09523 4.72418 4.12796 4.68291 4.16924C4.64164 4.21051 4.6089 4.2595 4.58656 4.31342C4.56423 4.36735 4.55273 4.42514 4.55273 4.48351V7.2731C4.55273 7.39098 4.59956 7.50403 4.68291 7.58737C4.76626 7.67072 4.8793 7.71755 4.99718 7.71755C5.11505 7.71755 5.2281 7.67072 5.31145 7.58737C5.3948 7.50403 5.44162 7.39098 5.44162 7.2731V4.48351C5.44162 4.42514 5.43013 4.36735 5.40779 4.31342C5.38546 4.2595 5.35272 4.21051 5.31145 4.16924C5.27018 4.12796 5.22118 4.09523 5.16726 4.07289C5.11334 4.05056 5.05554 4.03906 4.99718 4.03906Z" fill="#0E2B81"/>
<path d="M4.99718 3.17404C5.24264 3.17404 5.44162 2.97506 5.44162 2.7296C5.44162 2.48414 5.24264 2.28516 4.99718 2.28516C4.75172 2.28516 4.55273 2.48414 4.55273 2.7296C4.55273 2.97506 4.75172 3.17404 4.99718 3.17404Z" fill="#0E2B81"/>
</svg>
