<svg width="344" height="99" viewBox="0 0 344 99" fill="none" xmlns="http://www.w3.org/2000/svg">
<rect width="344" height="99" rx="10" fill="#D5D7F8"/>
<path d="M44.224 24.656V46H39.872V37.104H30.72V46H26.368V24.656H30.72V33.008H39.872V24.656H44.224ZM62.3058 38.032C62.3058 38.672 62.2631 39.1947 62.1778 39.6H51.7138C51.9698 40.6027 52.4818 41.36 53.2498 41.872C54.0178 42.384 54.9778 42.64 56.1298 42.64C56.8978 42.64 57.6764 42.5333 58.4658 42.32C59.2764 42.0853 60.0231 41.776 60.7058 41.392L61.8258 44.784C61.0578 45.296 60.1618 45.6907 59.1378 45.968C58.1351 46.224 57.0684 46.352 55.9378 46.352C54.2951 46.352 52.8444 46.032 51.5858 45.392C50.3271 44.7307 49.3458 43.8027 48.6418 42.608C47.9378 41.392 47.5858 39.9627 47.5858 38.32C47.5858 36.7413 47.8951 35.344 48.5138 34.128C49.1538 32.912 50.0284 31.9733 51.1378 31.312C52.2684 30.6293 53.5484 30.288 54.9778 30.288C56.4071 30.288 57.6764 30.6187 58.7858 31.28C59.8951 31.92 60.7591 32.8267 61.3778 34C61.9964 35.1733 62.3058 36.5173 62.3058 38.032ZM55.0417 33.776C54.1884 33.776 53.4631 34.032 52.8658 34.544C52.2684 35.056 51.8738 35.76 51.6818 36.656H58.2738C58.1458 35.76 57.7938 35.056 57.2178 34.544C56.6631 34.032 55.9378 33.776 55.0417 33.776ZM71.2783 46.352C69.9343 46.352 68.7396 46.0107 67.6943 45.328C66.6489 44.6453 65.8383 43.696 65.2623 42.48C64.6863 41.264 64.3983 39.8773 64.3983 38.32C64.3983 36.7413 64.6863 35.344 65.2623 34.128C65.8383 32.912 66.6489 31.9733 67.6943 31.312C68.7396 30.6293 69.9343 30.288 71.2783 30.288C73.3049 30.288 74.9156 31.12 76.1103 32.784V30.608H79.9183V46H76.1103V43.856C74.9156 45.52 73.3049 46.352 71.2783 46.352ZM72.2703 42.512C73.3796 42.512 74.2543 42.1387 74.8943 41.392C75.5343 40.6453 75.8543 39.6213 75.8543 38.32C75.8543 37.0187 75.5343 35.9947 74.8943 35.248C74.2543 34.5013 73.3796 34.128 72.2703 34.128C71.1396 34.128 70.2223 34.512 69.5183 35.28C68.8143 36.048 68.4623 37.0613 68.4623 38.32C68.4623 39.5573 68.8143 40.5707 69.5183 41.36C70.2223 42.128 71.1396 42.512 72.2703 42.512ZM88.0175 23.536V40.752C88.0175 41.3493 88.1348 41.7867 88.3695 42.064C88.6255 42.32 88.9988 42.448 89.4895 42.448C89.8522 42.448 90.2042 42.3733 90.5455 42.224L90.9615 45.744C90.3002 46.0213 89.3935 46.16 88.2415 46.16C86.7695 46.16 85.6815 45.7973 84.9775 45.072C84.2948 44.3253 83.9535 43.1307 83.9535 41.488V23.536H88.0175ZM101.684 45.616C101.214 45.808 100.681 45.9467 100.084 46.032C99.4862 46.1387 98.9208 46.192 98.3875 46.192C96.7875 46.192 95.5608 45.7547 94.7075 44.88C93.8542 43.984 93.4275 42.7147 93.4275 41.072V34.352H91.5395V30.608H93.4275V27.12L97.4915 26.288V30.608H101.492V34.352H97.4915V40.4C97.4915 41.7653 98.1315 42.448 99.4115 42.448C99.9662 42.448 100.532 42.3413 101.108 42.128L101.684 45.616ZM112.843 30.288C114.656 30.288 116.053 30.8747 117.035 32.048C118.037 33.2213 118.539 34.864 118.539 36.976V46H114.475V37.84C114.475 36.5813 114.229 35.6533 113.739 35.056C113.248 34.4373 112.501 34.128 111.499 34.128C110.496 34.128 109.707 34.448 109.131 35.088C108.576 35.7067 108.299 36.592 108.299 37.744V46H104.235V23.536H108.299V32.592C108.789 31.824 109.429 31.248 110.219 30.864C111.008 30.48 111.883 30.288 112.843 30.288ZM138.797 24.656C140.375 24.656 141.741 24.9547 142.893 25.552C144.045 26.128 144.93 26.96 145.549 28.048C146.167 29.1147 146.477 30.3413 146.477 31.728C146.477 33.0933 146.167 34.3093 145.549 35.376C144.93 36.4427 144.045 37.2747 142.893 37.872C141.741 38.448 140.375 38.736 138.797 38.736H134.189V46H129.837V24.656H138.797ZM138.797 34.672C139.842 34.672 140.653 34.4053 141.229 33.872C141.826 33.3387 142.125 32.624 142.125 31.728C142.125 30.8107 141.826 30.0853 141.229 29.552C140.653 28.9973 139.842 28.72 138.797 28.72H134.189V34.672H138.797ZM153.518 23.536V40.752C153.518 41.3493 153.635 41.7867 153.87 42.064C154.126 42.32 154.499 42.448 154.99 42.448C155.352 42.448 155.704 42.3733 156.046 42.224L156.462 45.744C155.8 46.0213 154.894 46.16 153.742 46.16C152.27 46.16 151.182 45.7973 150.478 45.072C149.795 44.3253 149.454 43.1307 149.454 41.488V23.536H153.518ZM164.56 46.352C163.216 46.352 162.021 46.0107 160.976 45.328C159.93 44.6453 159.12 43.696 158.544 42.48C157.968 41.264 157.68 39.8773 157.68 38.32C157.68 36.7413 157.968 35.344 158.544 34.128C159.12 32.912 159.93 31.9733 160.976 31.312C162.021 30.6293 163.216 30.288 164.56 30.288C166.586 30.288 168.197 31.12 169.392 32.784V30.608H173.2V46H169.392V43.856C168.197 45.52 166.586 46.352 164.56 46.352ZM165.552 42.512C166.661 42.512 167.536 42.1387 168.176 41.392C168.816 40.6453 169.136 39.6213 169.136 38.32C169.136 37.0187 168.816 35.9947 168.176 35.248C167.536 34.5013 166.661 34.128 165.552 34.128C164.421 34.128 163.504 34.512 162.8 35.28C162.096 36.048 161.744 37.0613 161.744 38.32C161.744 39.5573 162.096 40.5707 162.8 41.36C163.504 42.128 164.421 42.512 165.552 42.512ZM185.843 30.288C187.656 30.288 189.053 30.8747 190.035 32.048C191.037 33.2213 191.539 34.864 191.539 36.976V46H187.475V37.84C187.475 36.5813 187.229 35.6533 186.739 35.056C186.248 34.4373 185.501 34.128 184.499 34.128C183.496 34.128 182.707 34.448 182.131 35.088C181.576 35.7067 181.299 36.592 181.299 37.744V46H177.235V30.608H181.043V33.008C181.533 32.112 182.195 31.44 183.027 30.992C183.859 30.5227 184.797 30.288 185.843 30.288Z" fill="#0E2B81"/>
<path d="M32.22 76C31.4867 76 30.9533 75.82 30.62 75.46C30.2867 75.1 30.12 74.5867 30.12 73.92V65.2H32.28V73.38C32.28 73.98 32.5733 74.28 33.16 74.28H33.98V76H32.22ZM27.36 76C26.64 76 26.1067 75.82 25.76 75.46C25.4267 75.1 25.26 74.5867 25.26 73.92V65.2H27.44V73.38C27.44 73.98 27.7333 74.28 28.32 74.28H29.12V76H27.36ZM36.0998 76V67.22C36.0998 66.6333 36.2598 66.1533 36.5798 65.78C36.9132 65.3933 37.3865 65.2 37.9998 65.2H40.0598L40.1598 66.88H39.1198C38.7865 66.88 38.5465 66.96 38.3998 67.12C38.2665 67.2667 38.1998 67.5133 38.1998 67.86V73.08L40.8398 68.5H41.7198L44.3598 73.08V65.2H46.4398V76H44.2998L41.2798 70.66L38.2398 76H36.0998ZM52.6509 76.2C51.4909 76.2 50.5843 75.86 49.9309 75.18C49.2909 74.5 48.9709 73.5333 48.9709 72.28V65.2H51.1509V72.18C51.1509 72.9933 51.3309 73.58 51.6909 73.94C52.0509 74.2867 52.6109 74.46 53.3709 74.46C53.9576 74.46 54.5176 74.34 55.0509 74.1C55.5843 73.8467 56.0243 73.5333 56.3709 73.16V65.2H58.5309V76H56.5509L56.4509 74.82C55.9576 75.2333 55.3976 75.5667 54.7709 75.82C54.1576 76.0733 53.4509 76.2 52.6509 76.2ZM61.2603 76V72.1C61.2603 71.5133 61.3736 71 61.6003 70.56C61.827 70.1067 62.2403 69.7933 62.8403 69.62L60.6803 69.08V66.84C61.2136 66.3733 61.9136 65.9533 62.7803 65.58C63.6603 65.1933 64.687 65 65.8603 65C67.447 65 68.667 65.3333 69.5203 66C70.3736 66.6533 70.8003 67.7533 70.8003 69.3V76H68.6203V69.24C68.6203 68.32 68.4003 67.68 67.9603 67.32C67.5336 66.9467 66.807 66.76 65.7803 66.76C65.1136 66.76 64.4936 66.8533 63.9203 67.04C63.347 67.2267 62.8936 67.4733 62.5603 67.78V68.14L64.8403 68.72V70.16C64.3203 70.2933 63.9536 70.5067 63.7403 70.8C63.527 71.0933 63.4203 71.5333 63.4203 72.12V76H61.2603ZM77.4259 76V69.2C77.4259 68.6533 77.3659 68.2 77.2459 67.84C77.1259 67.48 76.8993 67.2133 76.5659 67.04C76.2326 66.8533 75.7393 66.76 75.0859 66.76C74.6593 66.76 74.1926 66.8067 73.6859 66.9C73.1926 66.9933 72.7459 67.12 72.3459 67.28V65.6C72.7459 65.4267 73.2259 65.2867 73.7859 65.18C74.3593 65.06 74.9326 65 75.5059 65C76.9459 65 77.9859 65.3133 78.6259 65.94C79.2793 66.5667 79.6059 67.56 79.6059 68.92V76H77.4259ZM85.6945 76.2C84.9879 76.2 84.3012 76.1533 83.6345 76.06C82.9812 75.9667 82.4412 75.8333 82.0145 75.66V73.84C82.5212 74.04 83.0679 74.1933 83.6545 74.3C84.2545 74.4067 84.8012 74.46 85.2945 74.46C86.2145 74.46 86.8945 74.38 87.3345 74.22C87.7745 74.0467 87.9945 73.6933 87.9945 73.16C87.9945 72.7733 87.8812 72.48 87.6545 72.28C87.4279 72.08 87.0945 71.9067 86.6545 71.76C86.2145 71.6 85.6679 71.4133 85.0145 71.2C84.4012 70.9867 83.8479 70.7533 83.3545 70.5C82.8612 70.2467 82.4679 69.9267 82.1745 69.54C81.8945 69.1533 81.7545 68.6667 81.7545 68.08C81.7545 67.1333 82.1145 66.3867 82.8345 65.84C83.5545 65.28 84.6412 65 86.0945 65C86.7079 65 87.3145 65.0467 87.9145 65.14C88.5145 65.2333 89.0079 65.3467 89.3945 65.48V67.28C88.9545 67.1067 88.4612 66.98 87.9145 66.9C87.3812 66.8067 86.8812 66.76 86.4145 66.76C85.6412 66.76 85.0212 66.8467 84.5545 67.02C84.0879 67.18 83.8545 67.5133 83.8545 68.02C83.8545 68.3533 83.9745 68.62 84.2145 68.82C84.4545 69.0067 84.7945 69.18 85.2345 69.34C85.6879 69.4867 86.2279 69.6667 86.8545 69.88C87.5612 70.1067 88.1545 70.36 88.6345 70.64C89.1145 70.9067 89.4745 71.24 89.7145 71.64C89.9679 72.0267 90.0945 72.5333 90.0945 73.16C90.0945 74.2133 89.6945 74.9867 88.8945 75.48C88.1079 75.96 87.0412 76.2 85.6945 76.2ZM92.2327 76V69.16C92.2327 67.8533 92.626 66.8333 93.4127 66.1C94.1993 65.3667 95.4393 65 97.1327 65C98.8393 65 100.073 65.3667 100.833 66.1C101.606 66.8333 101.993 67.8533 101.993 69.16V76H99.8127V68.96C99.8127 68.2 99.5793 67.6467 99.1127 67.3C98.646 66.94 97.986 66.76 97.1327 66.76C96.2393 66.76 95.5593 66.94 95.0927 67.3C94.6393 67.6467 94.4127 68.2 94.4127 68.96V71.18C94.9993 70.7 95.6993 70.46 96.5127 70.46H97.8127L97.8927 72.2H96.4527C95.6393 72.2 94.9593 72.4267 94.4127 72.88V76H92.2327ZM100.137 81.04V78.56H98.8773L98.9773 77.14H101.997V81.04H100.137ZM97.4173 63.56V61.72H95.8373V60.22H98.9173V62.04H103.237L103.157 63.56H97.4173ZM110.417 76.2C109.604 76.2 108.891 76.0733 108.277 75.82C107.677 75.5667 107.131 75.2333 106.637 74.82L106.517 76H104.537V65.2H106.717V73.16C107.064 73.5333 107.497 73.8467 108.017 74.1C108.537 74.34 109.097 74.46 109.697 74.46C110.444 74.46 111.004 74.2867 111.377 73.94C111.751 73.58 111.937 72.9933 111.937 72.18V65.2H114.097V72.28C114.097 73.5333 113.771 74.5 113.117 75.18C112.464 75.86 111.564 76.2 110.417 76.2ZM116.647 76V69.16C116.647 67.8533 117.04 66.8333 117.827 66.1C118.613 65.3667 119.853 65 121.547 65C123.253 65 124.487 65.3667 125.247 66.1C126.02 66.8333 126.407 67.8533 126.407 69.16V76H124.227V68.96C124.227 68.2 123.993 67.6467 123.527 67.3C123.06 66.94 122.4 66.76 121.547 66.76C120.653 66.76 119.973 66.94 119.507 67.3C119.053 67.6467 118.827 68.2 118.827 68.96V71.18C119.413 70.7 120.113 70.46 120.927 70.46H122.227L122.307 72.2H120.867C120.053 72.2 119.373 72.4267 118.827 72.88V76H116.647ZM132.491 76.2C131.785 76.2 131.098 76.1533 130.431 76.06C129.778 75.9667 129.238 75.8333 128.811 75.66V73.84C129.318 74.04 129.865 74.1933 130.451 74.3C131.051 74.4067 131.598 74.46 132.091 74.46C133.011 74.46 133.691 74.38 134.131 74.22C134.571 74.0467 134.791 73.6933 134.791 73.16C134.791 72.7733 134.678 72.48 134.451 72.28C134.225 72.08 133.891 71.9067 133.451 71.76C133.011 71.6 132.465 71.4133 131.811 71.2C131.198 70.9867 130.645 70.7533 130.151 70.5C129.658 70.2467 129.265 69.9267 128.971 69.54C128.691 69.1533 128.551 68.6667 128.551 68.08C128.551 67.1333 128.911 66.3867 129.631 65.84C130.351 65.28 131.438 65 132.891 65C133.505 65 134.111 65.0467 134.711 65.14C135.311 65.2333 135.805 65.3467 136.191 65.48V67.28C135.751 67.1067 135.258 66.98 134.711 66.9C134.178 66.8067 133.678 66.76 133.211 66.76C132.438 66.76 131.818 66.8467 131.351 67.02C130.885 67.18 130.651 67.5133 130.651 68.02C130.651 68.3533 130.771 68.62 131.011 68.82C131.251 69.0067 131.591 69.18 132.031 69.34C132.485 69.4867 133.025 69.6667 133.651 69.88C134.358 70.1067 134.951 70.36 135.431 70.64C135.911 70.9067 136.271 71.24 136.511 71.64C136.765 72.0267 136.891 72.5333 136.891 73.16C136.891 74.2133 136.491 74.9867 135.691 75.48C134.905 75.96 133.838 76.2 132.491 76.2ZM143.07 76.2C142.216 76.2 141.41 76.12 140.65 75.96C139.903 75.8 139.276 75.6133 138.77 75.4V69.84H143.05L143.15 71.5H140.87V74.12C141.176 74.2267 141.523 74.3133 141.91 74.38C142.31 74.4333 142.696 74.46 143.07 74.46C144.256 74.46 145.09 74.18 145.57 73.62C146.063 73.0467 146.31 72.0533 146.31 70.64C146.31 69.6533 146.19 68.88 145.95 68.32C145.71 67.7467 145.31 67.3467 144.75 67.12C144.203 66.88 143.456 66.76 142.51 66.76C141.936 66.76 141.336 66.8 140.71 66.88C140.083 66.96 139.49 67.0933 138.93 67.28V65.6C139.49 65.4133 140.13 65.2667 140.85 65.16C141.583 65.0533 142.316 65 143.05 65C144.943 65 146.31 65.48 147.15 66.44C147.99 67.3867 148.41 68.7867 148.41 70.64C148.41 72.4533 147.99 73.8333 147.15 74.78C146.31 75.7267 144.95 76.2 143.07 76.2ZM154.773 76.2C154.467 76.2 154.127 76.18 153.753 76.14C153.38 76.1 153.053 76.0333 152.773 75.94L149.733 68.54H151.853L154.313 74.54C155.46 74.5933 156.293 74.2667 156.813 73.56C157.333 72.84 157.593 71.74 157.593 70.26C157.593 69.3933 157.513 68.7133 157.353 68.22C157.193 67.7133 156.92 67.36 156.533 67.16C156.16 66.9467 155.64 66.84 154.973 66.84H154.213V65.2H155.253C156.8 65.2 157.927 65.6133 158.633 66.44C159.34 67.2667 159.693 68.5333 159.693 70.24C159.693 71.6533 159.48 72.8 159.053 73.68C158.627 74.5467 158.04 75.1867 157.293 75.6C156.56 76 155.72 76.2 154.773 76.2ZM163.963 76C163.229 76 162.696 75.82 162.363 75.46C162.029 75.1 161.863 74.5867 161.863 73.92V65.2H164.023V73.38C164.023 73.98 164.316 74.28 164.903 74.28H165.823V76H163.963ZM171.495 76.2C170.789 76.2 170.102 76.1533 169.435 76.06C168.782 75.9667 168.242 75.8333 167.815 75.66V73.84C168.322 74.04 168.869 74.1933 169.455 74.3C170.055 74.4067 170.602 74.46 171.095 74.46C172.015 74.46 172.695 74.38 173.135 74.22C173.575 74.0467 173.795 73.6933 173.795 73.16C173.795 72.7733 173.682 72.48 173.455 72.28C173.229 72.08 172.895 71.9067 172.455 71.76C172.015 71.6 171.469 71.4133 170.815 71.2C170.202 70.9867 169.649 70.7533 169.155 70.5C168.662 70.2467 168.269 69.9267 167.975 69.54C167.695 69.1533 167.555 68.6667 167.555 68.08C167.555 67.1333 167.915 66.3867 168.635 65.84C169.355 65.28 170.442 65 171.895 65C172.509 65 173.115 65.0467 173.715 65.14C174.315 65.2333 174.809 65.3467 175.195 65.48V67.28C174.755 67.1067 174.262 66.98 173.715 66.9C173.182 66.8067 172.682 66.76 172.215 66.76C171.442 66.76 170.822 66.8467 170.355 67.02C169.889 67.18 169.655 67.5133 169.655 68.02C169.655 68.3533 169.775 68.62 170.015 68.82C170.255 69.0067 170.595 69.18 171.035 69.34C171.489 69.4867 172.029 69.6667 172.655 69.88C173.362 70.1067 173.955 70.36 174.435 70.64C174.915 70.9067 175.275 71.24 175.515 71.64C175.769 72.0267 175.895 72.5333 175.895 73.16C175.895 74.2133 175.495 74.9867 174.695 75.48C173.909 75.96 172.842 76.2 171.495 76.2ZM167.153 63.56L167.253 62.04H171.133V60.38H172.713V62.04H173.913V60.38H175.493V63.56H167.153ZM173.693 59.46V56.68H175.493V59.46H173.693ZM182.073 76.2C181.22 76.2 180.413 76.12 179.653 75.96C178.907 75.8 178.28 75.6133 177.773 75.4V69.84H182.053L182.153 71.5H179.873V74.12C180.18 74.2267 180.527 74.3133 180.913 74.38C181.313 74.4333 181.7 74.46 182.073 74.46C183.26 74.46 184.093 74.18 184.573 73.62C185.067 73.0467 185.313 72.0533 185.313 70.64C185.313 69.6533 185.193 68.88 184.953 68.32C184.713 67.7467 184.313 67.3467 183.753 67.12C183.207 66.88 182.46 66.76 181.513 66.76C180.94 66.76 180.34 66.8 179.713 66.88C179.087 66.96 178.493 67.0933 177.933 67.28V65.6C178.493 65.4133 179.133 65.2667 179.853 65.16C180.587 65.0533 181.32 65 182.053 65C183.947 65 185.313 65.48 186.153 66.44C186.993 67.3867 187.413 68.7867 187.413 70.64C187.413 72.4533 186.993 73.8333 186.153 74.78C185.313 75.7267 183.953 76.2 182.073 76.2ZM193.777 76.2C193.471 76.2 193.131 76.18 192.757 76.14C192.384 76.1 192.057 76.0333 191.777 75.94L188.737 68.54H190.857L193.317 74.54C194.464 74.5933 195.297 74.2667 195.817 73.56C196.337 72.84 196.597 71.74 196.597 70.26C196.597 69.3933 196.517 68.7133 196.357 68.22C196.197 67.7133 195.924 67.36 195.537 67.16C195.164 66.9467 194.644 66.84 193.977 66.84H193.217V65.2H194.257C195.804 65.2 196.931 65.6133 197.637 66.44C198.344 67.2667 198.697 68.5333 198.697 70.24C198.697 71.6533 198.484 72.8 198.057 73.68C197.631 74.5467 197.044 75.1867 196.297 75.6C195.564 76 194.724 76.2 193.777 76.2ZM204.166 76.2C203.486 76.2 202.866 76.0933 202.306 75.88C201.746 75.6533 201.3 75.3 200.966 74.82C200.646 74.3267 200.486 73.6867 200.486 72.9C200.486 71.8467 200.84 71.0267 201.546 70.44C202.253 69.8533 203.3 69.56 204.686 69.56H207.986V68.88C207.986 68.0933 207.786 67.5467 207.386 67.24C206.986 66.92 206.253 66.76 205.186 66.76C204.573 66.76 203.973 66.8 203.386 66.88C202.8 66.96 202.226 67.0933 201.666 67.28V65.6C202.186 65.4267 202.793 65.2867 203.486 65.18C204.18 65.06 204.873 65 205.566 65C205.913 65 206.24 65.02 206.546 65.06C206.866 65.0867 207.16 65.1333 207.426 65.2H211.046L210.926 66.9H209.666C209.853 67.1933 209.98 67.5267 210.046 67.9C210.113 68.26 210.146 68.6533 210.146 69.08V76H207.986V71.24H204.806C204.073 71.24 203.513 71.3667 203.126 71.62C202.753 71.86 202.566 72.2867 202.566 72.9C202.566 73.4867 202.733 73.8933 203.066 74.12C203.413 74.3467 203.973 74.46 204.746 74.46C204.986 74.46 205.226 74.4467 205.466 74.42C205.72 74.3933 205.933 74.3533 206.106 74.3V75.96C205.866 76.0267 205.58 76.08 205.246 76.12C204.913 76.1733 204.553 76.2 204.166 76.2ZM208.262 81.04V78.56H207.002L207.102 77.14H210.122V81.04H208.262ZM217.454 76.2C215.934 76.2 214.781 75.8467 213.994 75.14C213.207 74.4333 212.814 73.44 212.814 72.16V71.1C212.814 70.6733 212.901 70.28 213.074 69.92C213.261 69.56 213.467 69.2333 213.694 68.94C213.934 68.6333 214.141 68.3533 214.314 68.1C214.501 67.8333 214.594 67.5867 214.594 67.36C214.594 67.1467 214.547 67.0067 214.454 66.94C214.361 66.8733 214.194 66.84 213.954 66.84H212.574L212.754 65.2H215.274C216.287 65.2 216.794 65.6867 216.794 66.66C216.794 67.1133 216.701 67.52 216.514 67.88C216.341 68.24 216.127 68.5867 215.874 68.92C215.634 69.2533 215.421 69.6 215.234 69.96C215.061 70.3067 214.974 70.6933 214.974 71.12V72.34C214.974 73.0733 215.194 73.6133 215.634 73.96C216.074 74.2933 216.681 74.46 217.454 74.46C218.241 74.46 218.847 74.2867 219.274 73.94C219.701 73.5933 219.914 73.04 219.914 72.28V65.2H222.094V72.14C222.094 73.42 221.681 74.42 220.854 75.14C220.041 75.8467 218.907 76.2 217.454 76.2ZM224.335 76V74.28H225.075C225.355 74.28 225.548 74.22 225.655 74.1C225.775 73.9667 225.835 73.7467 225.835 73.44V72.1C225.835 71.5133 225.928 71.0067 226.115 70.58C226.302 70.1533 226.682 69.8333 227.255 69.62L225.055 69.08V66.84C225.575 66.3733 226.275 65.9533 227.155 65.58C228.035 65.1933 229.055 65 230.215 65C231.762 65 232.948 65.34 233.775 66.02C234.615 66.6867 235.035 67.78 235.035 69.3V76H232.875V69.24C232.875 68.32 232.668 67.68 232.255 67.32C231.842 66.9467 231.142 66.76 230.155 66.76C229.475 66.76 228.848 66.8533 228.275 67.04C227.702 67.2267 227.255 67.4733 226.935 67.78V68.14L229.275 68.72V70.16C228.768 70.3067 228.435 70.52 228.275 70.8C228.115 71.08 228.035 71.52 228.035 72.12V73.56C228.035 74.4133 227.828 75.0333 227.415 75.42C227.015 75.8067 226.435 76 225.675 76H224.335ZM241.664 76V69.2C241.664 68.6533 241.604 68.2 241.484 67.84C241.364 67.48 241.138 67.2133 240.804 67.04C240.471 66.8533 239.978 66.76 239.324 66.76C238.898 66.76 238.431 66.8067 237.924 66.9C237.431 66.9933 236.984 67.12 236.584 67.28V65.6C236.984 65.4267 237.464 65.2867 238.024 65.18C238.598 65.06 239.171 65 239.744 65C241.184 65 242.224 65.3133 242.864 65.94C243.518 66.5667 243.844 67.56 243.844 68.92V76H241.664ZM248.333 76L245.833 65.2H247.973L249.573 72.92L251.533 66.74V65.2H253.093L255.273 72.92L256.833 65.2H258.953L256.473 76H254.473L252.473 69.12L250.313 76H248.333Z" fill="#0E2B81"/>
<path d="M280.051 42.1373V31.2512C280.051 29.7776 281.251 28.583 282.731 28.583H299.541C301.021 28.583 302.221 29.7776 302.221 31.2512V42.1731L280.051 42.1373H280.051Z" fill="#A4C8F5"/>
<path d="M302.221 42.19V31.2502C302.221 29.7766 303.421 28.582 304.901 28.582H321.711C323.191 28.582 324.391 29.7766 324.391 31.2502V42.1721L302.221 42.19H302.221Z" fill="#A4C8F5"/>
<path d="M283.269 47.687L282.111 47.6758L282.574 51.7587H283.192H283.346H283.963L284.426 47.6758L283.269 47.687Z" fill="#5986C1"/>
<path d="M321.165 47.687L320.008 47.6758L320.471 51.7587H321.088H321.242H321.86L322.322 47.6758L321.165 47.687Z" fill="#5986C1"/>
<path d="M321.147 46.459H284.111V49.0714H321.147V46.459Z" fill="#5986C1"/>
<path d="M280.049 45.2807H324.42L322.32 42.0547H282.05L280.049 45.2807Z" fill="#7EABE7"/>
<path d="M301.214 44.4316H281.075C280.508 44.4316 280.049 44.8892 280.049 45.4535V47.5188C280.049 48.0831 280.508 48.5407 281.075 48.5407H301.214C301.781 48.5407 302.241 48.0831 302.241 47.5188V45.4535C302.241 44.8892 301.781 44.4316 301.214 44.4316Z" fill="#A4C8F5"/>
<path d="M323.353 44.4316H303.214C302.647 44.4316 302.188 44.8892 302.188 45.4535V47.5188C302.188 48.0831 302.647 48.5407 303.214 48.5407H323.353C323.92 48.5407 324.38 48.0831 324.38 47.5188V45.4535C324.38 44.8892 323.92 44.4316 323.353 44.4316Z" fill="#A4C8F5"/>
<path d="M325.481 35.6963H323.413C322.846 35.6963 322.387 36.1538 322.387 36.7182V47.5941C322.387 48.1585 322.846 48.616 323.413 48.616H325.481C326.048 48.616 326.508 48.1585 326.508 47.5941V36.7182C326.508 36.1538 326.048 35.6963 325.481 35.6963Z" fill="#72A4E7"/>
<path d="M281.094 35.6963H279.026C278.46 35.6963 278 36.1538 278 36.7182V47.5941C278 48.1585 278.46 48.616 279.026 48.616H281.094C281.661 48.616 282.121 48.1585 282.121 47.5941V36.7182C282.121 36.1538 281.661 35.6963 281.094 35.6963Z" fill="#72A4E7"/>
<path d="M313.124 42.5643C313.139 42.573 313.152 42.5817 313.167 42.5904C313.503 42.6175 313.795 42.3538 313.795 42.0141C313.795 41.9553 313.787 41.8976 313.769 41.8414C313.659 41.4903 313.232 40.0755 313.036 38.626L312.642 41.497C312.642 41.497 312.589 42.244 313.125 42.5643H313.124Z" fill="#95AFAF"/>
<path d="M304.246 34.8081C304.119 34.8873 304.024 35.0145 303.988 35.1678L303.972 35.2378C303.946 35.3497 303.954 35.4662 303.995 35.5735C304.203 36.1156 304.852 37.9443 304.896 39.7352C304.93 41.0876 304.921 41.9476 304.91 42.3962C304.905 42.6108 305.019 42.809 305.204 42.9132L305.887 37.9739L304.246 34.8076V34.8081Z" fill="#95AFAF"/>
<path d="M314.532 34.1067L319.207 34.8655C319.262 34.8747 319.318 34.8752 319.373 34.8686L322.012 34.5349C322.359 34.491 322.667 34.7608 322.667 35.1092C322.667 35.168 322.658 35.2257 322.641 35.2814C322.491 35.7566 321.761 38.1805 321.809 40.0015C321.834 40.9478 321.824 41.6151 321.807 42.0576C321.792 42.429 321.435 42.6901 321.074 42.5935L320.437 42.4224C320.387 42.4091 320.337 42.4024 320.285 42.4024H313.428C313.157 42.4024 312.922 42.2165 312.861 41.9533L312.845 41.8833C312.819 41.7714 312.827 41.6549 312.868 41.5476C313.076 41.0055 313.725 39.1768 313.769 37.386C313.803 36.0335 313.794 35.1736 313.783 34.725C313.777 34.4925 313.911 34.28 314.124 34.1834L314.199 34.1497C314.304 34.1021 314.42 34.0868 314.533 34.1052L314.532 34.1067Z" fill="#72A4E7"/>
<path d="M322.665 35.1093C322.665 35.048 322.655 34.9898 322.638 34.9346L321.164 36.4797L321.759 42.2605C321.785 42.1982 321.802 42.1302 321.805 42.0577C321.823 41.6152 321.832 40.9474 321.807 40.0016C321.759 38.1806 322.489 35.7567 322.639 35.2815C322.656 35.2258 322.665 35.1676 322.665 35.1088V35.1093Z" fill="#72A4E7"/>
<path d="M317.575 36.2654C317.816 36.2174 321.75 35.7371 322.532 35.6415C322.579 35.4796 322.617 35.3559 322.641 35.2808C322.654 35.2399 322.662 35.1985 322.665 35.1561L317.521 35.5184C317.521 35.5184 314.553 35.1137 313.787 34.9385C313.79 35.1296 313.793 35.3687 313.793 35.6594C314.543 35.7984 317.343 36.3114 317.575 36.2654Z" fill="#3C79CA"/>
<path d="M313.494 39.458C313.416 39.8065 313.329 40.1325 313.244 40.4216C314.389 40.4278 316.448 40.4278 316.448 40.4278L321.821 40.6802C321.819 40.4717 321.815 40.2459 321.809 40.0011C321.807 39.9311 321.807 39.8596 321.807 39.7876H315.269L313.493 39.4585L313.494 39.458Z" fill="#3C79CA"/>
<path d="M312.954 41.3101C312.92 41.4051 312.89 41.4854 312.866 41.5482C312.825 41.6555 312.817 41.772 312.843 41.8839L312.859 41.9539C312.906 42.1526 313.051 42.307 313.236 42.3708L316.255 41.9948L319.886 42.4025H320.284C320.335 42.4025 320.386 42.4091 320.435 42.4224L321.073 42.5936C321.433 42.6902 321.79 42.4291 321.805 42.0576C321.81 41.9329 321.814 41.7899 321.817 41.6284L316.072 41.1221L312.954 41.3106L312.954 41.3101Z" fill="#C7D5D6"/>
<path d="M313.783 36.6523C313.779 36.8787 313.774 37.1224 313.768 37.3855C313.768 37.4034 313.766 37.4213 313.766 37.4387H318.216L322.045 37.6477C322.097 37.3733 322.154 37.1086 322.212 36.8608C321.705 36.895 319.909 37.0197 319.771 37.0652C319.627 37.1132 314.773 36.731 313.783 36.6523H313.783Z" fill="#3C79CA"/>
<path d="M313.724 38.0605C313.698 38.3135 313.663 38.5638 313.621 38.8075L318.217 39.0937L321.867 38.8106C321.891 38.5884 321.922 38.3656 321.957 38.1454L315.965 38.293L313.724 38.0605Z" fill="#3C79CA"/>
<path d="M322.562 35.5343C322.568 35.5123 322.574 35.4914 322.581 35.4715C322.583 35.4643 322.585 35.4582 322.587 35.4515C322.592 35.4342 322.597 35.4183 322.602 35.4025C322.603 35.3979 322.604 35.3938 322.606 35.3892C322.611 35.3703 322.616 35.3534 322.622 35.3376C322.623 35.333 322.624 35.3289 322.626 35.3248C322.63 35.3095 322.635 35.2947 322.639 35.2819C322.645 35.2635 322.649 35.2446 322.653 35.2262C322.654 35.2221 322.655 35.218 322.656 35.2139C322.66 35.195 322.662 35.1766 322.664 35.1572L322.409 35.1751L321.889 35.7208C322.172 35.6861 322.397 35.6585 322.531 35.6426C322.533 35.6339 322.536 35.6258 322.538 35.6176C322.543 35.5992 322.549 35.5813 322.554 35.5639C322.557 35.5542 322.559 35.544 322.563 35.5348L322.562 35.5343Z" fill="#3C79CA"/>
<path d="M321.506 39.7881L321.597 40.6705L321.822 40.6812C321.821 40.6291 321.82 40.5765 321.819 40.5223C321.819 40.4733 321.818 40.4232 321.817 40.3721C321.817 40.366 321.817 40.3603 321.817 40.3542C321.816 40.3062 321.815 40.2566 321.814 40.2065C321.814 40.1979 321.814 40.1897 321.813 40.181C321.812 40.1228 321.811 40.063 321.809 40.0027C321.807 39.9327 321.807 39.8612 321.807 39.7891H321.506V39.7881Z" fill="#3C79CA"/>
<path d="M321.76 42.2609C321.764 42.2512 321.768 42.241 321.771 42.2313C321.774 42.2226 321.778 42.2139 321.78 42.2052C321.783 42.196 321.785 42.1868 321.788 42.1776C321.791 42.1664 321.793 42.1547 321.795 42.1429C321.797 42.1352 321.799 42.1276 321.8 42.1199C321.803 42.1 321.805 42.0795 321.806 42.0586C321.807 42.0285 321.808 41.9968 321.809 41.9646C321.809 41.96 321.809 41.9549 321.809 41.9498C321.81 41.9206 321.811 41.8915 321.812 41.8609C321.812 41.8573 321.812 41.8542 321.812 41.8506C321.813 41.8174 321.814 41.7832 321.815 41.7485C321.815 41.7474 321.815 41.7464 321.815 41.7449C321.816 41.7081 321.817 41.6703 321.818 41.6309C321.818 41.6304 321.818 41.6299 321.818 41.6289L321.693 41.6182L321.76 42.2609H321.76Z" fill="#95AFAF"/>
<path d="M321.28 37.6082L322.044 37.6501C322.056 37.5847 322.069 37.5198 322.082 37.456C322.084 37.4427 322.088 37.4299 322.09 37.4166C322.101 37.3645 322.112 37.3129 322.122 37.2613C322.125 37.2485 322.128 37.2363 322.131 37.224C322.142 37.1704 322.154 37.1167 322.166 37.0641C322.167 37.0564 322.169 37.0493 322.171 37.0416C322.184 36.9813 322.198 36.922 322.211 36.8633C322.015 36.8766 321.624 36.9036 321.211 36.9343L321.28 37.6087V37.6082Z" fill="#3C79CA"/>
<path d="M321.408 38.847L321.867 38.8113C321.879 38.7014 321.892 38.5911 321.908 38.4807C321.908 38.4786 321.908 38.4766 321.909 38.474C321.923 38.3642 321.94 38.2548 321.957 38.1455L321.338 38.1608L321.408 38.8465V38.847Z" fill="#3C79CA"/>
<path d="M287.562 25.7154C287.543 25.72 287.524 25.7241 287.505 25.7287C286.607 25.9489 285.765 27.2845 285.281 28.0708C284.029 30.0998 283.33 32.2805 282.973 34.6349C282.781 35.9026 282.647 37.1789 282.54 38.4568C282.511 38.8099 282.466 41.9946 282.291 42.0518C284.087 41.4663 285.907 40.9272 287.774 40.6845C289.641 40.4418 291.568 40.5062 293.354 41.1071C293.267 37.0486 292.937 32.8931 292.225 28.9032C292.14 28.4259 292.104 27.9232 291.949 27.4628C291.771 26.9324 291.431 26.7449 291.015 26.3975C290.872 26.2784 290.728 26.1589 290.567 26.069C289.715 25.5958 288.506 25.4987 287.562 25.7149L287.562 25.7154Z" fill="#4B5EA7"/>
<path d="M292.197 54.0153L292.164 54.5839L293.213 55.9967L293.881 56.0473L294.212 55.4061L293.539 54.191L292.529 53.374L292.197 54.0153Z" fill="#4E4E4E"/>
<path d="M287.594 54.4371L287.561 55.0058L288.61 56.4186L289.278 56.4692L289.609 55.8279L288.935 54.6129L287.925 53.7959L287.594 54.4371Z" fill="#4E4E4E"/>
<path d="M283.65 40.7385C283.65 40.7385 283.152 43.3959 284.673 44.5916C286.194 45.7872 287.567 46.1402 287.567 46.1402L287.656 54.4783L288.904 54.462L291.128 45.3115L288.241 39.7314L283.65 40.7385Z" fill="#243286"/>
<path d="M291.741 39.4727L294.444 45.0021L293.415 54.1455L292.259 54.1245L290.855 45.0021L287.578 39.9095L291.741 39.4727Z" fill="#243286"/>
<path d="M291.984 39.7705C289.808 39.8548 286.165 39.9498 283.461 40.9467C283.784 37.0824 285.445 31.0042 286.802 27.3826C287.049 26.7255 287.382 26.024 288.014 25.7466C288.691 25.4492 289.825 25.7011 290.132 26.4614C290.58 27.5737 290.711 29.2052 290.831 30.4008C291.104 33.1052 291.433 36.9787 291.984 39.77L291.984 39.7705Z" fill="#FFFFF3"/>
<path d="M287.577 25.8643C287.577 25.8643 286.421 27.3598 285.958 32.1944C285.496 37.0294 285.403 40.9172 285.403 40.9172C285.403 40.9172 283.045 41.1665 282.721 41.3658C282.721 41.3658 284.339 25.8643 287.578 25.8643H287.577Z" fill="#4B5EA7"/>
<path d="M317.432 26.6914H314.108C314.108 26.6914 312.579 28.4184 311.088 33.3858C309.598 38.3532 310.703 42.7504 310.703 42.7504C310.703 42.7504 315.335 41.9334 321.875 42.6686L319.806 29.5282L317.432 26.6919V26.6914Z" fill="#4B5EA7"/>
<path d="M313.529 55.1066L313.037 57.0037L313.574 57.7727L314.443 57.2602L314.939 55.6195L314.567 54.3887L313.529 55.1066Z" fill="#363636"/>
<path d="M317.423 54.7472L316.932 56.6443L317.469 57.4133L318.337 56.9003L318.833 55.2596L318.461 54.0293L317.423 54.7472Z" fill="#363636"/>
<path d="M316.649 42.4826C316.496 41.9972 316.269 41.2656 315.796 41.0714C314.802 40.6632 313.722 40.3126 312.699 40.6172C312.004 40.8241 311.384 41.3381 310.999 42.0263C310.711 42.5424 310.557 43.1525 310.555 43.7625C310.552 44.346 310.837 44.835 310.972 45.3909C311.797 48.7662 312.621 52.141 313.445 55.5163L314.848 55.3114L314.938 44.9551C315.515 44.3747 316.952 43.4463 316.648 42.4831L316.649 42.4826Z" fill="#243286"/>
<path d="M320.924 44.0602C320.972 43.6944 321.006 43.3265 321.015 42.9694C321.022 42.6837 321.01 42.39 320.914 42.1258C320.807 41.834 320.607 41.5985 320.393 41.3972C319.635 40.6849 318.645 40.3324 317.665 40.5838C317.231 40.6951 316.823 40.9164 316.445 41.1795C316.008 41.484 315.597 41.8468 315.273 42.297C315.242 42.3404 315.209 42.393 315.221 42.4472C315.229 42.487 315.259 42.5156 315.287 42.5422C315.828 43.0532 316.252 43.721 316.514 44.4613C316.832 45.3621 316.826 46.2374 316.861 47.1893C316.903 48.3026 316.944 49.416 316.986 50.5293C317.043 52.0718 317.101 53.6149 317.158 55.1574L318.743 55.3623C319.021 53.9424 319.298 52.5225 319.577 51.1026C319.967 49.1063 320.358 47.1101 320.749 45.1138C320.816 44.7735 320.877 44.4179 320.924 44.0597L320.924 44.0602Z" fill="#243286"/>
<path d="M301.619 55.2099L301.312 55.6795L301.64 57.4489L302.258 57.8479L302.886 57.4749L302.823 56.0749L302.246 54.8369L301.619 55.2099Z" fill="#363636"/>
<path d="M304.378 55.2011L304.072 55.6707L304.4 57.4401L305.018 57.8396L305.646 57.4666L305.583 56.0667L305.006 54.8281L304.378 55.2011Z" fill="#363636"/>
<path d="M296.729 41.5239C297.118 42.0359 297.808 42.1958 298.445 42.2862C299.158 42.3874 299.877 42.4462 300.597 42.461C301.107 42.4717 301.622 42.46 302.121 42.3547C302.914 42.1871 303.637 41.7901 304.397 41.5096C305.07 41.2613 305.775 41.1029 306.49 41.0405C306.692 41.0232 306.903 41.0099 307.074 40.9026C307.45 40.667 307.446 40.1285 307.397 39.6881C307.327 39.0617 307.231 38.3811 306.774 37.9463C306.451 37.6382 306 37.5089 305.563 37.4154C303.494 36.9745 301.306 37.14 299.315 37.8497C298.515 38.1348 297.255 38.5492 296.694 39.2308C296.234 39.7908 296.311 40.9746 296.729 41.5244L296.729 41.5239Z" fill="#404F5A"/>
<path d="M296.731 41.3317C296.653 41.5381 296.638 41.7936 296.633 42.1758L299.042 43.9559L301.215 55.9105L302.883 55.8993L303.818 44.4561C303.652 43.4991 303.624 42.3751 303.299 41.4661C302.914 40.388 301.141 39.9184 300.082 39.8965C299.163 39.8776 298.249 40.1376 297.469 40.6184C297.039 40.8836 296.832 41.0665 296.731 41.3312V41.3317Z" fill="#243286"/>
<path d="M306.932 39.9227C307.037 40.1209 307.126 40.3304 307.252 40.5271C307.536 40.9696 307.815 41.4044 308.081 41.8678C308.453 42.5172 308.819 43.1707 309.178 43.8273L305.794 56.1109L304.18 56.0072C304.18 56.0072 304.544 44.0363 304.544 44.0342C304.553 43.7266 303.864 43.3148 303.66 43.1554C303.137 42.7451 302.889 42.5356 302.597 41.9281C302.369 41.4545 302.331 40.8909 302.506 40.3953C302.681 39.8997 303.069 39.4802 303.556 39.2773C303.933 39.1205 304.351 39.0939 304.759 39.0694C305.35 39.0341 305.995 39.0127 306.474 39.3586C306.688 39.5134 306.819 39.7111 306.932 39.9222V39.9227Z" fill="#243286"/>
<path d="M307.777 22.8541L307.857 22.1198L307.439 21.6186L307.502 21.4761L307.68 21.545L307.453 21.03L307.579 20.5911L308.154 20.3867L308.752 20.5839L308.895 21.1736L308.69 21.8654L308.624 22.8755L307.777 22.8541Z" fill="#FFBF9D"/>
<path d="M307.388 22.1396L307.414 26.8076L301.63 27.1321L299.844 31.3816L309.631 29.0205L308.829 22.2827L307.388 22.1396Z" fill="#4B5EA7"/>
<path d="M295.785 22.6992L295.802 21.9563L296.286 21.5113L296.242 21.3616L296.055 21.4065L296.35 20.9227L296.282 20.4684L295.736 20.1895L295.113 20.3075L294.893 20.8767L295.006 21.5935L294.938 22.6093L295.785 22.6992Z" fill="#FFBF9D"/>
<path d="M296.13 22.29L295.611 26.5763L300.131 27.2191L297.658 30.8964L292.918 28.2318L294.698 21.7402L296.13 22.29Z" fill="#4B5EA7"/>
<path d="M296.297 40.1452C296.279 40.9903 296.306 42.1297 296.632 42.1711C296.693 42.1787 296.751 42.1486 296.804 42.12C297.369 41.8134 297.768 41.3816 298.324 41.0858C298.906 40.7752 299.573 40.6101 300.227 40.4946C301.204 40.3168 302.204 40.2065 303.2 40.1891C304.06 40.1743 305.104 40.1395 305.936 40.3674C306.573 40.6055 307.204 40.8513 307.834 41.1149C307.476 37.9108 306.888 34.7322 306.075 31.6119C305.764 30.4173 305.713 29.2406 304.834 28.3674C304.056 27.5938 304.262 26.5668 302.104 26.667C298.328 26.8417 299.444 26.5172 297.883 29.7066C297.529 30.4306 297.094 32.4069 296.966 33.1943C296.811 34.1482 296.667 35.1042 296.555 36.0637C296.43 37.1347 296.345 38.2102 296.327 39.2873C296.325 39.4068 296.306 39.742 296.297 40.1436L296.297 40.1452Z" fill="#4B5EA7"/>
<path d="M299.834 22.0145C299.623 22.3936 299.525 22.8284 299.511 23.2612C299.508 23.3761 299.502 23.5095 299.409 23.5785C299.31 23.6526 299.4 23.811 299.323 23.7144C299.246 23.6183 298.983 23.2837 298.969 23.161C298.939 22.8739 298.935 22.5837 298.959 22.2955C298.98 22.0451 299.028 21.783 299.19 21.5904C299.286 21.4759 299.415 21.3952 299.542 21.3165C299.726 21.2026 299.916 21.0871 300.129 21.0447C300.496 20.9716 300.723 21.1004 300.402 21.3594C300.172 21.5454 299.978 21.7544 299.834 22.014L299.834 22.0145Z" fill="#A2A2A2"/>
<path d="M302.182 26.8961C301.677 26.9498 301.171 27.0034 300.666 27.0571C300.583 26.6233 300.533 26.1818 300.514 25.7388C300.073 25.6693 299.553 25.5339 299.396 25.0767C299.347 24.9326 299.343 24.7752 299.34 24.6214C299.327 23.9848 299.314 23.3486 299.301 22.712C299.296 22.4918 299.293 22.2649 299.366 22.06C299.494 21.6998 299.829 21.4816 300.158 21.3432C300.999 20.9891 301.984 20.9901 302.77 21.4679C302.979 21.5951 303.177 21.7596 303.3 21.9849C303.488 22.3324 303.471 22.7641 303.447 23.1678C303.426 23.5408 303.404 23.9132 303.383 24.2862C303.358 24.7149 303.3 25.209 302.968 25.4394C302.792 25.5621 302.564 25.5866 302.413 25.7445C302.147 26.0219 302.276 26.5083 302.181 26.8966L302.182 26.8961Z" fill="#FFBF9D"/>
<path d="M299.23 24.9934C299.314 25.3884 299.512 25.7644 299.838 25.9826C300.209 26.2299 300.67 26.2422 301.106 26.2468C301.344 26.2493 301.582 26.2519 301.821 26.2544C302.424 26.2606 303.024 26.1752 303.326 25.5391C303.465 25.2458 303.506 24.9061 303.481 24.5775C303.474 24.4871 303.461 24.3946 303.417 24.3169C303.373 24.2398 303.291 24.181 303.208 24.1938C303.101 24.2101 303.039 24.3256 302.971 24.4155C302.823 24.6117 302.559 24.7236 302.344 24.6225C302.279 24.5923 302.224 24.5469 302.169 24.5004C302.147 24.4815 302.124 24.4625 302.101 24.4442C301.872 24.2653 301.593 24.1856 301.315 24.1529C301.074 24.1248 300.718 24.041 300.542 24.2474C300.439 24.3675 300.337 24.4876 300.235 24.6077C300.193 24.6572 300.15 24.7073 300.095 24.7395C300.038 24.7727 299.972 24.7839 299.908 24.786C299.746 24.7911 299.563 24.719 299.506 24.5561C299.482 24.485 299.484 24.4074 299.48 24.3317C299.476 24.2561 299.464 24.1759 299.417 24.1197C299.235 23.9046 299.188 24.251 299.183 24.369C299.173 24.578 299.188 24.7885 299.231 24.9929L299.23 24.9934ZM300.875 25.0818C301.068 25.207 301.268 25.2065 301.479 25.1401C301.587 25.1058 301.636 25.2872 301.528 25.3209C301.272 25.4012 301.019 25.396 300.788 25.2453C300.691 25.1825 300.778 25.0185 300.875 25.0818Z" fill="#A2A2A2"/>
<path d="M299.045 20.9218C299.001 20.768 298.968 20.6111 298.946 20.4527C299.095 20.5023 299.255 20.5141 299.409 20.486C299.408 20.3945 299.408 20.303 299.407 20.2116C299.407 20.1354 300.44 20.0685 300.524 20.0608C301.31 19.9862 302.029 19.9163 302.746 20.327C303.358 20.6781 303.755 21.2095 303.858 21.9064C303.956 22.5721 303.748 23.4459 303.367 24.0043C303.367 23.8265 303.464 23.4065 303.42 23.2384C303.392 23.0698 303.331 22.9073 303.248 22.7581C303.083 22.4597 302.829 22.2099 302.538 22.0331C302.073 21.7516 301.534 21.6059 300.998 21.539C300.506 21.4772 299.908 21.422 299.424 21.5579C299.192 21.6233 299.154 21.6816 299.01 21.4496C298.984 21.4087 298.781 20.9289 298.8 20.9284C298.882 20.9264 298.963 20.9238 299.045 20.9218Z" fill="#A2A2A2"/>
<path d="M284.654 20.262C284.602 19.8492 284.737 19.4225 284.953 19.117C285.17 18.8114 285.459 18.6132 285.756 18.465C286.281 18.2014 286.913 18.0961 287.375 18.5202C287.7 18.8191 287.885 19.3643 287.836 19.8834C287.83 19.9554 287.818 20.028 287.791 20.0908C287.747 20.192 287.668 20.2564 287.591 20.3131C286.964 20.776 284.86 21.9037 284.653 20.2615L284.654 20.262Z" fill="#A2A2A2"/>
<path d="M288.011 26.5437C288.505 26.5912 288.998 26.6393 289.492 26.6868C289.568 26.2535 289.613 25.8136 289.626 25.3721C290.056 25.298 290.562 25.1575 290.71 24.7002C290.756 24.5562 290.758 24.3993 290.759 24.246C290.765 23.6119 290.771 22.9778 290.776 22.3438C290.778 22.1246 290.779 21.8982 290.705 21.6949C290.577 21.3377 290.247 21.1241 289.924 20.9898C289.101 20.6464 288.139 20.6587 287.378 21.1436C287.175 21.2728 286.983 21.4389 286.866 21.6642C286.686 22.0122 286.708 22.4424 286.735 22.8445C286.76 23.2154 286.785 23.5864 286.81 23.9578C286.839 24.3845 286.902 24.876 287.227 25.1018C287.4 25.2219 287.624 25.2444 287.773 25.3992C288.036 25.6726 287.914 26.1585 288.011 26.5447L288.011 26.5437Z" fill="#FFBF9D"/>
<path d="M288.55 22.15C288.247 22.5613 287.907 22.9302 287.465 23.1908C287.193 23.3507 286.909 23.4217 286.899 23.7947C286.888 24.1498 287.123 24.5382 287.415 24.7175C287.465 24.7482 287.52 24.7768 287.553 24.8253C287.619 24.9219 287.571 25.0649 287.477 25.1329C287.382 25.2003 287.258 25.208 287.143 25.1957C286.795 25.1579 286.478 24.9592 286.234 24.7037C285.72 24.1647 285.503 23.3706 285.588 22.6247C285.672 21.8894 286.026 21.1654 286.546 20.6529C287.026 20.1798 287.5 19.6883 288.216 19.6535C288.62 19.6336 289.328 19.8651 289.348 20.3724C289.369 20.9053 288.837 21.7341 288.55 22.1515L288.55 22.15Z" fill="#A2A2A2"/>
<path d="M289.759 21.9971C290.041 22.2091 290.372 22.4073 290.49 22.7313C290.541 22.8733 290.546 23.0266 290.546 23.1768C290.546 23.4461 290.531 23.7149 290.504 23.9826C290.476 24.2616 290.421 24.5783 290.228 24.8016C290.15 24.8921 289.594 25.2763 290.071 25.3443C290.21 25.3642 290.34 25.2778 290.447 25.191C291.298 24.5017 291.821 23.4216 291.703 22.3608C291.633 21.7217 291.314 21.1101 290.833 20.6635C290.393 20.2552 289.544 19.7678 288.931 20.1296C288.115 20.6114 289.335 21.6792 289.759 21.9971H289.759Z" fill="#A2A2A2"/>
<path d="M312.709 22.2982C312.727 22.9512 312.913 23.5985 313.243 24.1631C313.183 23.5556 313.166 22.9384 313.279 22.3385C313.391 21.7387 313.641 21.1537 314.06 20.7081C314.011 20.7602 313.511 20.6386 313.387 20.681C313.216 20.7398 313.105 20.8813 313.008 21.031C312.769 21.4004 312.696 21.8659 312.708 22.2982H312.709Z" fill="#D7D8DD"/>
<path d="M316.483 26.9998C315.912 27.1005 315.406 27.1705 314.826 27.1521C314.825 26.7796 314.784 26.4066 314.705 26.0428C314.651 25.7991 314.394 25.7858 314.194 25.7312C314.011 25.6811 313.844 25.5922 313.711 25.4548C313.611 25.3505 313.535 25.2264 313.468 25.0991C313.257 24.7047 313.182 24.2499 313.093 23.8151C312.916 22.9435 312.635 21.9221 313.378 21.2313C313.825 20.8179 314.451 20.6013 315.051 20.5425C315.499 20.4986 315.959 20.5252 316.382 20.6784C316.804 20.8317 317.187 21.1209 317.399 21.5159C317.645 21.9768 317.612 22.4703 317.567 22.971C317.509 23.6138 317.711 24.1886 317.316 24.7604C317.174 24.9658 317.001 25.1472 316.84 25.3372C316.664 25.5437 316.532 25.8558 316.5 26.1266C316.491 26.2115 316.541 26.9891 316.483 26.9993L316.483 26.9998Z" fill="#A08A78"/>
<path d="M314.608 20.7933C314.315 20.7913 314.023 20.8311 313.731 20.7989C313.44 20.7672 313.139 20.6513 312.947 20.3973C313.818 20.1904 314.715 19.5532 315.595 19.6023C316.296 19.6416 317.164 20.5956 317.544 21.2685C317.915 21.9235 317.781 22.833 317.5 23.5391C317.434 23.2397 317.5 22.9245 317.434 22.6276C317.349 22.249 317.058 21.9276 316.8 21.688C316.186 21.1188 315.394 20.7979 314.608 20.7923L314.608 20.7933Z" fill="#D7D8DD"/>
<path d="M314.789 24.1151C314.415 24.0395 313.968 24.0553 313.734 24.3318C313.572 24.5239 313.557 24.788 313.515 25.0318C313.472 25.2755 313.369 25.5432 313.125 25.6331C313.305 25.7256 313.526 25.7287 313.717 25.6674C313.908 25.6061 314.071 25.4855 314.204 25.344C314.321 25.2188 314.422 25.0721 314.582 24.998C314.699 24.9434 314.834 24.9347 314.965 24.9209C315.096 24.9071 315.232 24.8851 315.335 24.81C315.747 24.5106 315.053 24.1678 314.789 24.1146L314.789 24.1151Z" fill="#D7D8DD"/>
<path d="M316.003 24.023C316.361 23.8917 316.805 23.8401 317.079 24.0787C317.269 24.2442 317.324 24.5033 317.402 24.7378C317.481 24.9723 317.623 25.2212 317.879 25.2738C317.714 25.3923 317.496 25.4286 317.298 25.3969C317.1 25.3652 316.92 25.2702 316.768 25.1501C316.633 25.0444 316.51 24.9141 316.341 24.865C316.217 24.8287 316.082 24.8405 315.951 24.8466C315.82 24.8528 315.682 24.8512 315.569 24.793C315.116 24.559 315.75 24.116 316.003 24.0235V24.023Z" fill="#D7D8DD"/>
<path d="M325.938 33.4792C326.98 33.0045 327.438 31.7786 326.961 30.7412C326.485 29.7038 325.253 29.2477 324.211 29.7224C323.169 30.1972 322.711 31.423 323.188 32.4604C323.665 33.4978 324.896 33.954 325.938 33.4792Z" fill="#35383F"/>
<path d="M325.878 32.7743C326.529 32.3322 326.696 31.4487 326.252 30.8011C325.808 30.1534 324.92 29.9868 324.27 30.4289C323.619 30.8711 323.452 31.7545 323.896 32.4022C324.34 33.0499 325.228 33.2165 325.878 32.7743Z" fill="#C9C9C9"/>
<path d="M325.309 32.4743L324.754 32.4463L324.37 39.9971L324.925 40.0251L325.309 32.4743Z" fill="#C9C9C9"/>
<path d="M325.248 32.0975C325.497 31.9951 325.615 31.711 325.512 31.4629C325.41 31.2149 325.124 31.0968 324.875 31.1993C324.626 31.3017 324.507 31.5858 324.61 31.8339C324.713 32.0819 324.998 32.2 325.248 32.0975Z" fill="#35383F"/>
<g opacity="0.13">
<path d="M325.332 32.057L325.25 33.6598C325.25 33.6598 325.568 33.6256 325.74 33.5592L325.409 31.9941L325.332 32.057H325.332Z" fill="black"/>
</g>
<path d="M313.252 38.3791C313.211 39.1184 313.267 39.8674 313.376 40.6001C313.603 42.1202 314.113 43.7844 315.54 44.9386C317.051 46.1602 319.662 46.4796 321.512 45.5655C323.278 44.6928 324.137 43.0655 324.626 41.5633C324.85 40.875 325.004 40.1715 325.109 39.4658C325.164 39.0959 325.216 38.7209 325.222 38.3479C325.222 38.3305 325.224 38.3137 325.224 38.2963C325.237 37.8078 324.24 37.7823 324.227 38.2713C324.221 38.5196 324.196 38.7679 324.168 39.0152C324.137 39.284 324.098 39.5522 324.05 39.8194C324.036 39.8966 324.022 39.9742 324.007 40.0514C324.006 40.0601 324.004 40.0667 324.003 40.0718C324.003 40.0749 324.002 40.0785 324.001 40.0826C323.991 40.1275 323.982 40.172 323.972 40.2169C323.935 40.3871 323.894 40.5567 323.85 40.7253C323.656 41.4611 323.392 42.1892 323.01 42.88C322.988 42.9193 322.966 42.9587 322.943 42.998C322.975 42.9428 322.919 43.0394 322.903 43.0649C322.848 43.1549 322.79 43.2443 322.73 43.3322C322.617 43.4977 322.495 43.6602 322.363 43.8171C322.301 43.8906 322.237 43.9627 322.17 44.0337C322.138 44.0669 322.107 44.1001 322.074 44.1328C322.053 44.1548 322.031 44.1757 322.009 44.1977C322.002 44.2043 321.988 44.2181 321.976 44.2284C321.833 44.3576 321.683 44.4818 321.52 44.5973C321.439 44.654 321.357 44.7092 321.271 44.7613C321.231 44.7858 321.19 44.8098 321.148 44.8338C321.259 44.7684 321.082 44.8681 321.053 44.8829C320.861 44.98 320.658 45.0643 320.446 45.1338C320.425 45.1409 320.403 45.147 320.382 45.1542C320.379 45.1552 320.377 45.1562 320.374 45.1567C320.373 45.1567 320.372 45.1573 320.37 45.1578C320.32 45.1705 320.27 45.1849 320.22 45.1971C320.1 45.2262 319.978 45.2513 319.855 45.2712C319.74 45.2901 319.624 45.3034 319.508 45.3157C319.5 45.3167 319.489 45.3172 319.478 45.3182C319.486 45.3177 319.496 45.3172 319.509 45.3162C319.492 45.3172 319.474 45.3187 319.457 45.3197C319.451 45.3197 319.447 45.3203 319.448 45.3203C319.442 45.3203 319.437 45.3208 319.433 45.3213C319.355 45.3248 319.277 45.3284 319.199 45.3294C318.925 45.3335 318.656 45.3131 318.384 45.2891C318.382 45.2891 318.381 45.2891 318.378 45.2891C318.353 45.2855 318.328 45.2819 318.302 45.2784C318.245 45.2697 318.189 45.2605 318.132 45.2503C317.998 45.2257 317.866 45.1966 317.735 45.1624C317.632 45.1353 317.531 45.1026 317.429 45.0714C317.427 45.0709 317.425 45.0699 317.423 45.0694C317.421 45.0684 317.419 45.0678 317.417 45.0668C317.396 45.0586 317.374 45.051 317.353 45.0428C317.289 45.0188 317.227 44.9932 317.165 44.9662C317.073 44.9263 316.983 44.8839 316.896 44.8389C316.848 44.8139 316.801 44.7884 316.754 44.7623C316.73 44.7485 316.6 44.6678 316.631 44.6892C316.466 44.5804 316.309 44.4654 316.164 44.3408C316.094 44.281 316.027 44.2197 315.962 44.1568C315.944 44.1395 315.855 44.047 315.891 44.0853C315.857 44.0485 315.823 44.0122 315.79 43.9749C315.522 43.6699 315.307 43.3424 315.121 43.0046C315.117 42.9975 315.113 42.9898 315.109 42.9827C315.104 42.9735 315.098 42.9612 315.094 42.9541C315.075 42.9147 315.055 42.8754 315.036 42.836C314.992 42.7436 314.951 42.6506 314.911 42.5571C314.836 42.3787 314.768 42.1979 314.708 42.0165C314.59 41.6588 314.498 41.296 314.428 40.9317C314.412 40.848 314.397 40.7642 314.383 40.6804C314.376 40.6369 314.369 40.593 314.362 40.5496C314.381 40.6666 314.357 40.5118 314.353 40.4831C314.33 40.3176 314.311 40.1515 314.295 39.985C314.268 39.6917 314.251 39.3979 314.246 39.1041C314.242 38.8844 314.247 38.6652 314.256 38.4465C314.106 38.4782 313.945 38.4792 313.804 38.471C313.622 38.4603 313.432 38.4322 313.251 38.3791H313.252ZM318.377 45.2891C318.351 45.286 318.307 45.2794 318.377 45.2891ZM315.115 42.9939C315.117 42.998 315.117 42.9975 315.115 42.9939Z" fill="#FFE98D"/>
<path d="M312.322 27.0319C311.765 27.0038 311.208 26.9756 310.652 26.9475C310.534 26.9414 310.427 27.0365 310.421 27.155C310.357 28.416 310.293 29.6775 310.229 30.9385C310.219 31.1163 310.211 31.2942 310.202 31.4725C310.187 31.754 310.626 31.7765 310.641 31.4944C310.705 30.2334 310.769 28.9719 310.833 27.7109C310.838 27.6056 310.844 27.5009 310.849 27.3956C311.333 27.4202 311.816 27.4442 312.299 27.4687C312.582 27.483 312.605 27.0456 312.321 27.0313L312.322 27.0319Z" fill="#C9C9C9"/>
<path d="M312.457 26.8066L313.023 26.8352C313.196 26.8439 313.329 26.9903 313.32 27.1622L313.307 27.4143C313.298 27.5863 313.151 27.7185 312.978 27.7098L312.413 27.6813L312.457 26.8066Z" fill="#35383F"/>
<path d="M312.031 26.7155L312.529 26.7406L312.478 27.7515L311.98 27.7264C311.78 27.7163 311.627 27.5469 311.637 27.3484L311.652 27.057C311.662 26.8585 311.832 26.7054 312.031 26.7155Z" fill="#C9C9C9"/>
<path d="M316.677 27.2236C317.233 27.2517 317.79 27.2798 318.347 27.3079C318.465 27.3141 318.561 27.4193 318.555 27.5379C318.491 28.7989 318.427 30.0604 318.363 31.3214C318.353 31.4992 318.345 31.677 318.335 31.8553C318.321 32.1369 317.882 32.1149 317.896 31.8334C317.96 30.5724 318.024 29.3108 318.089 28.0498C318.094 27.9446 318.099 27.8398 318.104 27.7346L316.655 27.6615C316.372 27.6472 316.394 27.2098 316.677 27.2241L316.677 27.2236Z" fill="#C9C9C9"/>
<path d="M316.52 27.8604L315.954 27.8318C315.781 27.8231 315.648 27.6767 315.657 27.5048L315.67 27.2527C315.678 27.0807 315.825 26.9485 315.998 26.9572L316.564 26.9857L316.52 27.8604Z" fill="#35383F"/>
<path d="M316.945 27.9505L316.448 27.9254L316.499 26.9145L316.997 26.9396C317.196 26.9497 317.35 27.1191 317.34 27.3176L317.325 27.609C317.315 27.8075 317.145 27.9606 316.945 27.9505Z" fill="#C9C9C9"/>
<g opacity="0.13">
<path d="M314.243 38.9044C314.243 38.9044 314.244 39.2284 314.265 39.6019L313.246 39.1385L313.261 38.7471L314.243 38.9044Z" fill="black"/>
</g>
<path d="M310.048 31.4995C309.96 32.2915 309.974 33.1039 310.039 33.8964C310.155 35.3015 310.467 36.843 311.441 37.9257C312.472 39.0717 314.307 39.3987 315.639 38.5787C316.911 37.7954 317.565 36.305 317.954 34.9254C318.132 34.2934 318.262 33.6465 318.356 32.9966C318.405 32.6563 318.453 32.3109 318.469 31.9665C318.469 31.9507 318.471 31.9349 318.472 31.919C318.495 31.4689 317.792 31.4326 317.769 31.8838C317.757 32.1127 317.732 32.3416 317.705 32.5695C317.675 32.8173 317.64 33.0641 317.599 33.3098C317.587 33.3808 317.574 33.4519 317.561 33.5234C317.545 33.6174 317.572 33.4718 317.556 33.552C317.548 33.5934 317.54 33.6343 317.532 33.6757C317.501 33.832 317.468 33.9878 317.431 34.1432C317.273 34.8191 317.065 35.488 316.776 36.1205C316.757 36.1609 316.738 36.2007 316.719 36.2406C316.755 36.1655 316.707 36.2646 316.695 36.2896C316.653 36.3719 316.61 36.4537 316.565 36.5344C316.48 36.6861 316.389 36.8338 316.291 36.9774C316.246 37.0443 316.198 37.1102 316.149 37.1751C316.125 37.2053 316.102 37.2354 316.078 37.2656C316.062 37.2855 316.046 37.3049 316.03 37.3243C316.017 37.3401 315.964 37.3999 316.023 37.333C315.913 37.4577 315.798 37.5767 315.673 37.6866C315.615 37.7382 315.555 37.7877 315.493 37.8347C315.463 37.8572 315.434 37.8782 315.404 37.9001C315.484 37.8409 315.356 37.9308 315.336 37.9441C315.197 38.0309 315.051 38.1061 314.899 38.1679C314.884 38.174 314.869 38.1796 314.853 38.1863C314.775 38.22 314.927 38.1638 314.845 38.1893C314.809 38.2006 314.774 38.2128 314.738 38.2236C314.652 38.2491 314.566 38.2706 314.478 38.2874C314.397 38.3033 314.315 38.314 314.232 38.3242C314.211 38.3268 314.147 38.3304 314.233 38.3247C314.215 38.3258 314.197 38.3273 314.179 38.3283C314.124 38.3304 314.068 38.3329 314.013 38.3329C313.82 38.3329 313.631 38.3109 313.439 38.2854C313.422 38.2828 313.37 38.2716 313.449 38.288C313.427 38.2834 313.404 38.2788 313.382 38.2742C313.342 38.2655 313.302 38.2563 313.263 38.2461C313.169 38.222 313.076 38.1934 312.985 38.1602C312.913 38.1336 312.843 38.1025 312.771 38.0723C312.691 38.0386 312.838 38.1091 312.763 38.0682C312.748 38.0601 312.733 38.0529 312.718 38.0453C312.674 38.0223 312.631 37.9977 312.588 37.9722C312.524 37.9344 312.462 37.894 312.402 37.8516C312.368 37.8281 312.336 37.8041 312.304 37.7791C312.284 37.7642 312.165 37.6626 312.24 37.7295C312.119 37.6212 312.004 37.5072 311.899 37.3831C311.851 37.3269 311.805 37.2696 311.762 37.2109C311.748 37.1925 311.673 37.0842 311.727 37.1644C311.7 37.1235 311.672 37.0826 311.646 37.0407C311.465 36.7561 311.323 36.4511 311.201 36.1374C311.195 36.1215 311.19 36.1052 311.183 36.0894C311.213 36.168 311.191 36.1098 311.184 36.0904C311.172 36.0541 311.159 36.0173 311.146 35.981C311.118 35.8952 311.091 35.8088 311.066 35.722C311.018 35.5564 310.976 35.3889 310.939 35.2208C310.865 34.8891 310.811 34.5535 310.772 34.2167C310.763 34.1391 310.755 34.0619 310.748 33.9843C310.744 33.9439 310.74 33.9035 310.736 33.8637C310.746 33.972 310.734 33.8284 310.732 33.8024C310.72 33.6491 310.712 33.4958 310.706 33.342C310.695 33.0712 310.692 32.7999 310.696 32.5286C310.701 32.2123 310.724 31.8981 310.745 31.5823C310.746 31.567 310.748 31.5517 310.75 31.5363C310.771 31.3483 310.598 31.1776 310.416 31.1685C310.216 31.1582 310.068 31.312 310.047 31.5006L310.048 31.4995Z" fill="#FFE98D"/>
<path d="M297.483 20.7591L290.297 20.7345C287.64 20.7253 285.493 18.5738 285.502 15.9281C285.511 13.2824 287.672 11.1451 290.33 11.1543L297.498 11.1789L297.483 20.7596V20.7591Z" fill="#DBE1FF"/>
<path d="M310.825 20.8028L297.737 20.7574L297.77 11.1767L310.859 11.2222C313.478 11.2313 315.596 13.355 315.587 15.9623L315.587 16.0957C315.578 18.7025 313.444 20.8119 310.825 20.8028Z" fill="#243286"/>
<path d="M300.666 14.3397L301.046 14.3407L301.035 17.4804L300.655 17.4794L300.66 16.06L299.199 16.0549L299.195 17.4743L298.814 17.4728L298.825 14.333L299.206 14.3345L299.201 15.7539L300.661 15.7591L300.666 14.3397Z" fill="#DBE1FF"/>
<path d="M301.962 14.3448L303.638 14.3504L303.637 14.6513L302.341 14.6467L302.338 15.7391L303.543 15.7432L303.542 16.0442L302.337 16.0401L302.333 17.1841L303.715 17.1887L303.714 17.4896L301.951 17.4835L301.962 14.3438V14.3448Z" fill="#DBE1FF"/>
<path d="M305.025 14.3545L305.53 14.356L306.552 17.4994L306.176 17.4978L305.873 16.5505L304.672 16.5464L304.362 17.4917L303.986 17.4907L305.025 14.3545H305.025ZM305.278 14.6907L304.767 16.246L305.774 16.2496L305.278 14.6912V14.6907Z" fill="#DBE1FF"/>
<path d="M307.082 17.5011L307.093 14.3613L307.473 14.3629L307.463 17.2017L308.639 17.2058L308.638 17.5067L307.083 17.5016L307.082 17.5011Z" fill="#DBE1FF"/>
<path d="M308.51 14.6672L308.511 14.3662L310.585 14.3734L310.584 14.6743L309.737 14.6712L309.727 17.5101L309.347 17.5085L309.357 14.6697L308.51 14.6666L308.51 14.6672Z" fill="#DBE1FF"/>
<path d="M312.914 14.3816L313.294 14.3832L313.283 17.5229L312.903 17.5214L312.908 16.102L311.447 16.0969L311.443 17.5163L311.062 17.5148L311.073 14.375L311.454 14.3765L311.449 15.7959L312.909 15.801L312.914 14.3816Z" fill="#DBE1FF"/>
<path d="M294.86 15.1777C294.252 15.1757 293.643 15.1737 293.035 15.1716C292.978 15.1716 292.921 15.1716 292.864 15.1711C292.865 14.7296 292.867 14.2887 292.869 13.8472C292.869 13.626 292.87 13.4043 292.871 13.183C292.871 13.1094 292.809 13.0466 292.734 13.0461C292.356 13.0445 291.978 13.0435 291.599 13.042C291.525 13.042 291.462 13.1038 291.462 13.1779C291.46 13.7839 291.458 14.3899 291.456 14.9953C291.456 15.052 291.456 15.1088 291.455 15.1655C291.012 15.1639 290.569 15.1624 290.125 15.1609L289.458 15.1588C289.384 15.1588 289.321 15.2207 289.321 15.2947C289.319 15.6713 289.318 16.0479 289.316 16.4244C289.316 16.4663 289.332 16.498 289.355 16.52C289.377 16.5445 289.41 16.5614 289.453 16.5614C290.062 16.5634 290.67 16.5655 291.279 16.5675H291.449C291.448 17.0095 291.446 17.4504 291.445 17.8919C291.444 18.1131 291.443 18.3349 291.443 18.5561C291.443 18.6297 291.505 18.693 291.579 18.693C291.958 18.6946 292.336 18.6956 292.714 18.6971C292.756 18.6971 292.788 18.6818 292.81 18.6583C292.835 18.6363 292.852 18.6041 292.852 18.5612C292.854 17.9552 292.856 17.3493 292.858 16.7438C292.858 16.6871 292.858 16.6304 292.858 16.5736C293.302 16.5752 293.745 16.5767 294.188 16.5782L294.855 16.5803C294.929 16.5803 294.992 16.5185 294.993 16.4444C294.994 16.0678 294.995 15.6912 294.997 15.3147C294.997 15.2411 294.935 15.1777 294.86 15.1777Z" fill="#243286"/>
<path d="M318.565 30.9443L318.5 35.4059L315.23 38.048L315.788 39.0734L320.294 36.4446L320.846 35.4989L319.433 29.3379L318.565 30.9443Z" fill="#4B5EA7"/>
<path d="M315.561 38.1694L315.823 38.8975L314.683 39.4574L314.043 38.9669L314.105 38.2777L314.706 38.3717L314.656 38.2348L314.471 38.1474L314.558 37.9619L315.561 38.1694Z" fill="#A08A78"/>
<path d="M311.04 36.4853C311.055 36.4843 311.068 36.4966 311.078 36.5078C311.245 36.6943 311.462 36.9181 311.393 37.1746C311.332 37.3999 311.044 37.6513 310.802 37.5982C310.45 37.5205 310.201 36.8363 310.258 36.5165C310.281 36.3903 310.444 36.2161 310.577 36.1951C310.64 36.1854 310.711 36.2166 310.732 36.2763C310.759 36.355 310.693 36.4465 310.728 36.5221C310.751 36.5722 310.813 36.5957 310.868 36.5865C310.922 36.5778 310.969 36.5431 311.009 36.5042C311.017 36.4955 311.027 36.4858 311.04 36.4848V36.4853Z" fill="#A08A78"/>
<path d="M311.151 37.6684C310.76 37.9336 310.187 37.8917 309.839 37.5729C309.648 37.3971 309.524 37.1427 309.529 36.8831C309.531 36.8065 309.544 36.7288 309.58 36.6608C309.619 36.5857 309.683 36.527 309.746 36.4697C309.843 36.3808 310.029 36.1315 310.187 36.1775C310.312 36.2138 310.418 36.5735 310.477 36.6813C310.526 36.7697 311.101 37.7037 311.151 37.6694V37.6684Z" fill="#C2969C"/>
<path d="M296.612 28.7256H287.33V41.0567H296.612V28.7256Z" fill="#243286"/>
<g opacity="0.26">
<path d="M288.023 40.5265H288.163L296.36 40.7795L296.145 29.1182L295.764 29.227L288.023 40.5265Z" fill="black"/>
</g>
<path d="M296.145 29.1182H287.799V40.5265H296.145V29.1182Z" fill="#F1F1F1"/>
<g opacity="0.05">
<path d="M287.752 29.0742H293.755L287.742 34.105L287.752 29.0742Z" fill="black"/>
</g>
<g opacity="0.12">
<path d="M293.783 29.0576H290.158V29.3964H293.783V29.0576Z" fill="#C4D3D3"/>
</g>
<path d="M293.041 28.0332H292.984V27.9954C292.984 27.6397 292.652 27.3516 292.241 27.3516H291.701C291.291 27.3516 290.958 27.6397 290.958 27.9954V28.0332H290.901C290.491 28.0332 290.158 28.3213 290.158 28.677V29.3964H293.783V28.677C293.783 28.3213 293.45 28.0332 293.04 28.0332H293.041ZM292.449 28.048H291.494C291.396 28.048 291.316 27.9683 291.316 27.8712C291.316 27.7741 291.396 27.6944 291.494 27.6944H292.449C292.546 27.6944 292.626 27.7741 292.626 27.8712C292.626 27.9683 292.546 28.048 292.449 28.048Z" fill="#8692DA"/>
<g opacity="0.47">
<path d="M290.129 32.3066H288.903C288.869 32.3066 288.84 32.3358 288.84 32.37V33.5896C288.84 33.6239 288.869 33.653 288.903 33.653H290.129C290.147 33.653 290.161 33.6463 290.172 33.6361C290.172 33.6356 290.173 33.6346 290.174 33.6341L290.175 33.6331C290.185 33.6228 290.192 33.6085 290.192 33.5896V32.37C290.192 32.3358 290.163 32.3066 290.129 32.3066ZM290.065 33.5263H288.967V32.4334H290.065V33.5263Z" fill="#8C9498"/>
<path d="M290.129 34.5615H288.903C288.869 34.5615 288.84 34.5906 288.84 34.6249V35.8445C288.84 35.8787 288.869 35.9079 288.903 35.9079H290.129C290.147 35.9079 290.161 35.9012 290.172 35.891C290.172 35.8905 290.173 35.8895 290.174 35.889L290.175 35.8879C290.185 35.8777 290.192 35.8634 290.192 35.8445V34.6249C290.192 34.5906 290.163 34.5615 290.129 34.5615ZM290.065 35.7811H288.967V34.6882H290.065V35.7811Z" fill="#8C9498"/>
<path d="M290.129 36.8174H288.903C288.869 36.8174 288.84 36.8465 288.84 36.8807V38.1004C288.84 38.1346 288.869 38.1637 288.903 38.1637H290.129C290.147 38.1637 290.161 38.1571 290.172 38.1469C290.172 38.1463 290.173 38.1453 290.174 38.1448L290.175 38.1438C290.185 38.1336 290.192 38.1193 290.192 38.1004V36.8807C290.192 36.8465 290.163 36.8174 290.129 36.8174ZM290.065 38.037H288.967V36.9441H290.065V38.037Z" fill="#8C9498"/>
</g>
<path d="M289.316 32.7679L289.598 32.6744L289.755 32.9549L291.1 31.9893L291.256 32.0204L289.692 33.2978L289.316 32.7679Z" fill="#243286"/>
<path d="M289.213 35.0804L289.495 34.9869L289.651 35.2674L290.996 34.3018L291.153 34.3329L289.589 35.6103L289.213 35.0804Z" fill="#243286"/>
<path d="M289.188 37.2152L289.469 37.1217L289.626 37.4022L290.972 36.4365L291.128 36.4677L289.563 37.7451L289.188 37.2152Z" fill="#243286"/>
<g opacity="0.32">
<path d="M295.239 37.3125H290.916V37.9226H295.239V37.3125Z" fill="#243286"/>
</g>
<g opacity="0.32">
<path d="M295.239 34.9238H290.916V35.5339H295.239V34.9238Z" fill="#243286"/>
</g>
<g opacity="0.32">
<path d="M295.239 32.5352H290.916V33.1452H295.239V32.5352Z" fill="#243286"/>
</g>
<path d="M286.722 37.2549C286.825 37.3719 286.939 37.4859 287.076 37.607C287.19 37.7087 287.318 37.816 287.472 37.8216C287.665 37.8287 287.835 37.6535 287.855 37.4624C287.875 37.2713 287.766 37.0817 287.61 36.9683C287.969 36.6566 287.554 36.5703 287.291 36.4287C287.25 36.4068 286.76 36.112 286.738 36.1329L286.266 36.5968C286.416 36.8569 286.552 37.0603 286.721 37.2549H286.722Z" fill="#FFBF9D"/>
<path d="M284.389 33.342C284.615 33.2649 284.847 33.2424 285.035 33.3482C285.315 33.5055 285.602 34.1672 285.79 34.4252C286.216 35.0087 286.642 35.5927 287.068 36.1762L286.273 36.8813C285.539 36.4751 284.805 36.0674 284.071 35.6627C283.752 35.487 283.056 35.299 282.948 34.9157C282.818 34.4584 283.421 33.9266 283.735 33.6992C283.901 33.5781 284.142 33.4269 284.39 33.3415L284.389 33.342Z" fill="#4B5EA7"/>
</svg>
