<svg width="50" height="49" viewBox="0 0 50 49" fill="none" xmlns="http://www.w3.org/2000/svg">
<path d="M27.4239 5.41412C28.1413 5.41412 28.1413 6.50568 27.4239 6.50568H25C24.3043 6.50568 23.6739 6.66941 23.2391 6.9423C22.8804 7.16061 22.6522 7.4335 22.6522 7.71731C22.6522 8.57964 23.8696 8.7652 25.0761 8.93985C26.7609 9.18 28.4457 9.43105 28.4457 11.2321C28.4457 12.6184 26.8696 13.3716 25.5326 13.5135V14.1575H24.4457V13.5353H22.337C21.6196 13.5353 21.6196 12.4438 22.337 12.4438H25C25.6957 12.4438 26.3261 12.28 26.7717 12.0071C27.1304 11.7888 27.3587 11.5159 27.3587 11.2321C27.3587 10.3698 26.1413 10.1951 24.9348 10.0205C23.25 9.78035 21.5652 9.52929 21.5652 7.72822C21.5652 6.35286 23.1196 5.59969 24.4565 5.45779L24.4891 4.78102L25.5652 4.82468L25.5435 5.42504H27.4239V5.41412ZM25 0C27.6087 0 29.9674 1.05881 31.663 2.77256C33.1522 4.26799 34.1413 6.25462 34.3696 8.47048L44.6304 17.0065H49.4565C49.75 17.0065 50 17.2466 50 17.5522V20.6195C50 20.9142 49.7609 21.1653 49.4565 21.1653H47.7174V22.5079C47.7174 22.8135 47.4891 23.0319 47.163 23.0537C46.2065 23.1301 45.4891 23.9488 45.5326 24.9093C45.5543 25.2805 45.3152 25.5315 44.9891 25.5315H42.8043V40.4749H44.9891C45.3043 40.4749 45.5652 40.7478 45.5326 41.0862C45.4456 41.9813 46.1957 42.9091 47.1957 42.9528C47.4891 42.9637 47.7174 43.2147 47.7174 43.4986V44.8412H49.4565C49.75 44.8412 50 45.0813 50 45.3869V48.4542C50 48.7489 49.7609 49 49.4565 49H0.543478C0.23913 49 0 48.7599 0 48.4542V45.3869C0 45.0922 0.23913 44.8412 0.543478 44.8412H2.28261V43.4986C2.28261 43.1929 2.51087 42.9637 2.83696 42.9528C3.72826 42.92 4.54348 42.0686 4.46739 41.0644C4.44565 40.7478 4.69565 40.4749 5.01087 40.4749H7.19565V25.5424H5.01087C4.69565 25.5424 4.44565 25.2695 4.46739 24.953C4.54348 23.9488 3.75 23.0973 2.82609 23.0646C2.52174 23.0646 2.28261 22.8245 2.28261 22.5188V21.1762H0.543478C0.23913 21.1762 0 20.9361 0 20.6304V17.5632C0 17.2575 0.23913 17.0174 0.543478 17.0174H5.36957L15.6196 8.4814C15.8478 6.26554 16.8478 4.26799 18.3261 2.78347C20.0435 1.05881 22.3913 0 25 0ZM34.4239 9.92225C34.2935 12.793 32.8804 15.3473 30.7065 17.0065H42.9348L34.4239 9.92225ZM28.8696 18.1089C27.6848 18.6438 26.3804 18.9385 25 18.9385C23.6196 18.9385 22.3152 18.6438 21.1304 18.1089H1.08696V20.0847H48.913V18.1089H28.8696ZM19.3043 17.0174C17.1304 15.3582 15.7174 12.793 15.5761 9.93317L7.06522 17.0174H19.3043ZM30.9022 3.53665C27.6413 0.261974 22.3587 0.261974 19.1087 3.53665C15.8478 6.81132 15.8478 12.1163 19.1087 15.391C20.663 16.9519 22.7717 17.847 25.0109 17.847C29.5761 17.847 33.3587 14.1357 33.3587 9.4638C33.3478 7.1497 32.413 5.05391 30.9022 3.53665ZM3.36957 44.8521H46.6304V43.9788C45.4891 43.7059 44.6196 42.7454 44.4674 41.5774H5.53261C5.38043 42.7454 4.51087 43.7059 3.36957 43.9788V44.8521ZM48.913 45.9436C32.9674 45.9436 17.0326 45.9436 1.08696 45.9436V47.9303H48.913V45.9436ZM8.28261 40.4859H10.6413V32.3428C10.6413 30.1816 12.4022 28.4023 14.5652 28.4023C16.7174 28.4023 18.4891 30.1706 18.4891 32.3428V40.4859H21.0761V32.3428C21.0761 30.1816 22.837 28.4023 25 28.4023C27.163 28.4023 28.9239 30.1706 28.9239 32.3428V40.4859H31.5109V32.3428C31.5109 30.1816 33.2717 28.4023 35.4348 28.4023C37.587 28.4023 39.3587 30.1706 39.3587 32.3428V40.4859H41.7174V25.5424H8.28261V40.4859ZM11.7283 40.4859H17.4022V32.3428C17.4022 29.8432 14.3696 28.5224 12.5652 30.3344C12.0543 30.8474 11.7283 31.5678 11.7283 32.3428V40.4859ZM22.163 40.4859H27.837V32.3428C27.837 29.8432 24.8043 28.5224 23 30.3344C22.4891 30.8474 22.163 31.5678 22.163 32.3428V40.4859ZM32.5978 40.4859H38.2717V32.3428C38.2717 29.8432 35.2391 28.5224 33.4348 30.3344C32.9239 30.8474 32.5978 31.5678 32.5978 32.3428V40.4859ZM46.6304 21.1762H3.36957V22.0495C4.51087 22.3223 5.38043 23.2829 5.53261 24.4509H44.4674C44.6196 23.2829 45.4891 22.3223 46.6304 22.0495V21.1762Z" fill="#003781"/>
</svg>
