<svg width="46" height="46" viewBox="0 0 46 46" fill="none" xmlns="http://www.w3.org/2000/svg">
<path d="M32.5661 18.3262L30.9065 17.9513C30.6525 18.2299 30.718 18.5332 30.886 18.8425C30.927 18.9204 30.9229 19.0105 30.8819 19.0863C30.716 19.3936 30.6525 19.6969 30.9065 19.9755L32.5538 19.6026C32.4349 19.1887 32.4391 18.738 32.5661 18.3262ZM19.7181 29.9186C19.3821 29.9186 19.3821 29.4043 19.7181 29.4043H20.931C21.267 29.4043 21.267 29.9186 20.931 29.9186H19.7181ZM31.0293 31.8117C29.337 31.8076 29.3657 31.2278 29.3452 29.853C29.3411 29.7096 29.4558 29.5949 29.6013 29.5949V29.5908H30.2856C29.966 29.0704 29.5317 28.5111 28.9436 27.6834C28.6199 27.2306 28.6609 26.8966 29.0461 26.5135C29.3247 26.2307 29.0912 26.034 28.79 25.9193C26.6531 25.0875 19.7996 24.5097 17.4641 25.0261C16.2717 25.2862 14.6285 26.8516 13.7209 27.6711C13.2087 28.13 12.8133 28.4537 12.1126 28.593C10.8812 28.8491 8.95335 29.1872 7.56422 29.8141C7.53964 31.2257 7.49456 31.8117 5.67929 31.8137C5.59734 32.2071 5.60349 32.621 5.60349 33.0717H7.65641C8.87749 31.0802 11.7745 31.0802 12.9916 33.0717H24.2682C25.4893 31.0802 28.3863 31.0802 29.6055 33.0717H31.1257C31.1031 32.5841 31.0744 32.1723 31.0293 31.8117ZM30.5663 30.103H29.8574C29.8738 30.9143 29.9475 31.2708 30.9494 31.2995C30.8633 30.8324 30.7384 30.4594 30.5663 30.103ZM5.84529 31.2974C6.88814 31.2524 7.02131 30.8836 7.05 30.0681C6.50914 30.3795 6.09117 30.7688 5.84529 31.2974ZM26.9357 33.045C28.4047 33.045 29.1443 34.8275 28.1056 35.8683C27.0648 36.9112 25.2803 36.1674 25.2803 34.7005C25.2803 33.7867 26.022 33.045 26.9357 33.045ZM27.743 33.8912C27.0259 33.1741 25.7946 33.6863 25.7946 34.7026C25.7946 35.7147 27.0259 36.2268 27.743 35.5098C28.1917 35.0611 28.1917 34.3378 27.743 33.8912ZM29.8573 33.5818C30.013 33.9916 30.0827 34.4342 30.0581 34.891H31.4759C31.5804 34.891 31.6644 34.805 31.6644 34.6985V33.7683C31.6644 33.6638 31.5804 33.5798 31.4759 33.5798L29.8573 33.5818ZM29.9844 35.4033C29.4394 37.7758 26.4707 38.6527 24.7273 36.9112C24.3176 36.5055 24.0246 35.9851 23.8914 35.4033H13.3727C12.8277 37.7758 9.85693 38.6527 8.11356 36.9112C7.7079 36.5055 7.41084 35.9851 7.27762 35.4033H5.03006C4.64489 35.4033 4.32734 35.0877 4.32734 34.7005V34.0449C3.82539 34.4219 3.55287 34.8173 3.55287 35.2209C3.55287 36.354 5.68363 37.4173 9.12563 38.2204C16.7801 40.007 29.2201 40.007 36.8745 38.2204C40.3165 37.4173 42.4473 36.3519 42.4473 35.2209C42.4473 34.7764 42.1195 34.344 41.5151 33.9302C38.782 36.5322 33.7216 37.0239 30.1094 35.4013L29.9844 35.4033ZM23.8152 34.8931C23.7886 34.4383 23.8603 33.9937 24.016 33.5839L13.2455 33.5819C13.4012 33.9916 13.475 34.4342 13.4463 34.8911L23.8152 34.8931ZM28.7877 32.8525C27.1446 31.2094 24.3254 32.3792 24.3254 34.7026C24.3254 37.0218 27.1446 38.1937 28.7877 36.5506C29.1688 36.1695 29.4311 35.6696 29.5191 35.1164C29.4085 35.0549 29.302 34.9935 29.1954 34.932H29.5437C29.6113 34.1309 29.3163 33.3811 28.7877 32.8525ZM10.3281 33.0451C11.7951 33.0451 12.5367 34.8275 11.496 35.8683C10.4552 36.9112 8.67273 36.1675 8.67273 34.7005C8.67273 33.7867 9.41237 33.0451 10.3281 33.0451ZM11.1354 33.8913C10.4183 33.1742 9.18489 33.6864 9.18489 34.7026C9.18489 35.7147 10.4183 36.2269 11.1354 35.5099C11.58 35.0612 11.58 34.3379 11.1354 33.8913ZM7.20577 34.8932C7.17708 34.4383 7.25084 33.9938 7.40655 33.584L5.02996 33.5819C4.92752 33.5819 4.84147 33.6659 4.84147 33.7704V34.7005C4.84147 34.805 4.92548 34.8931 5.02996 34.8931L7.20577 34.8932ZM12.1741 32.8526C10.531 31.2094 7.71185 32.3793 7.71185 34.7026C7.71185 37.0219 10.531 38.1937 12.1741 36.5506C13.1965 35.5283 13.1965 33.8729 12.1741 32.8526ZM4.44834 33.3852C4.602 33.1517 4.82123 33.0697 5.09578 33.0697L5.11627 31.697C2.23155 32.7726 0.516713 34.0941 0.516713 35.5078C0.516713 37.2062 2.9917 38.7736 6.99107 39.9373C15.8215 42.5044 30.1795 42.5044 39.012 39.9373C43.0113 38.7756 45.4863 37.2083 45.4863 35.5078C45.4863 34.4158 44.462 33.3791 42.6631 32.4673C42.4377 32.871 42.1632 33.2418 41.8558 33.586C42.5688 34.09 42.9561 34.6432 42.9561 35.2209C42.9561 36.6223 40.6778 37.8577 36.99 38.7203C29.2537 40.5233 16.7434 40.5233 9.00922 38.7203C5.32549 37.8578 3.0431 36.6223 3.0431 35.2209C3.0431 34.5653 3.54072 33.9466 4.44834 33.3852ZM31.6381 33.0902C31.9455 33.166 32.1749 33.4446 32.1749 33.7725V34.7026C32.1749 35.0386 31.9372 35.3214 31.6217 35.391C35.5697 36.4974 40.6241 35.3746 42.3308 32.0105C43.4024 29.9023 43.2303 27.3187 42.337 25.1265C41.583 23.2744 40.2738 21.5984 38.5529 20.5126C38.1779 20.4982 37.0736 20.1848 36.6352 20.0864C35.787 21.5964 33.6009 21.5964 32.7507 20.0864C32.3102 20.1848 31.2141 20.5003 30.8371 20.5126C29.1694 21.5656 27.8909 23.1719 27.1227 24.9585C27.8807 25.104 28.522 25.2658 28.9748 25.4441C29.6488 25.7043 29.95 26.3291 29.4071 26.8741C29.2042 27.077 29.1858 27.1466 29.3579 27.3904C29.7881 27.9948 30.1364 28.464 30.4232 28.882C29.9848 27.1815 30.3536 25.2638 31.5337 23.9219C33.2711 21.9509 36.1189 21.9509 37.8523 23.9219C39.5712 25.8764 39.5712 29.052 37.8523 31.0067C36.0452 33.0637 33.0642 32.9613 31.3659 30.8039C31.5175 31.3858 31.5992 32.0904 31.6381 33.0902ZM28.4441 28.2386L28.4502 28.2468C28.5752 28.4148 28.4564 28.6525 28.2453 28.6525L22.81 28.6259C22.642 28.632 22.5252 28.5029 22.5375 28.3534L22.7403 25.7022C22.7526 25.5588 22.8756 25.4563 23.0149 25.4666C24.1786 25.5711 25.0821 25.6612 25.7521 25.8067C26.4774 25.9624 26.9609 26.1898 27.2313 26.5709C27.6124 27.1159 28.0302 27.6773 28.4441 28.2386ZM27.7393 28.1444C27.434 27.7305 27.1266 27.3105 26.8132 26.87C26.6288 26.6057 26.2477 26.4398 25.6454 26.3087C25.041 26.1775 24.244 26.0935 23.2298 26.0013L23.0659 28.1198L27.7393 28.1444ZM21.4862 25.9173C20.5192 25.8477 17.9664 25.6961 17.2268 26.3005C16.5261 26.87 15.8356 27.4724 15.1411 28.0829L21.1481 28.1116L21.4862 25.9173ZM19.3145 25.3457C20.0316 25.3211 21.5067 25.3826 21.8181 25.4297C21.9615 25.4502 22.0558 25.5813 22.0353 25.7207L21.6214 28.4067C21.601 28.5296 21.4965 28.6238 21.3674 28.6238L14.4855 28.591C14.2212 28.5992 14.1249 28.296 14.297 28.1444C15.1575 27.3904 15.9955 26.6426 16.9031 25.903C17.3846 25.5138 18.3331 25.3744 19.3145 25.3457ZM5.62835 30.6562C5.7226 30.5251 5.82913 30.3919 5.96026 30.2588C7.20593 28.968 10.1931 28.4701 12.0082 28.0911C12.4917 27.9928 12.7949 27.792 13.1187 27.5175C13.0859 27.4724 13.0654 27.4191 13.0654 27.3617V23.8992C13.0654 23.7558 13.1801 23.6431 13.3215 23.6431H15.8497C15.989 23.6431 16.1058 23.7579 16.1058 23.8992V25.0793C16.9581 24.5569 17.4621 24.4565 18.4292 24.3766V11.6681H5.62836L5.62835 30.6562ZM13.5818 27.1057C14.1452 26.5914 14.8541 25.944 15.5937 25.4174V24.1554H13.5756V27.1057H13.5818ZM18.9395 24.3419C21.0949 24.2374 24.2663 24.4648 26.606 24.8622C26.7453 24.5283 26.9011 24.2005 27.0732 23.8809H26.4954C26.3561 23.8809 26.2393 23.7661 26.2393 23.6248V20.1623C26.2393 20.0229 26.354 19.9062 26.4954 19.9062H29.0236C29.167 19.9062 29.2797 20.0209 29.2797 20.1623V21.0473C29.6341 20.7277 30.0131 20.4347 30.4127 20.1704C30.1566 19.7894 30.1873 19.3673 30.3758 18.9616C30.1197 18.4085 30.1873 17.8921 30.6545 17.4804C30.7118 17.425 30.7979 17.3984 30.8839 17.4189L31.3183 17.5172C30.7753 16.2859 29.2592 14.694 28.9314 13.436H26.4954C26.3561 13.436 26.2393 13.3213 26.2393 13.1799V9.71745C26.2393 9.57403 26.354 9.46135 26.4954 9.46135H29.0236C29.167 9.46135 29.2797 9.57608 29.2797 9.71745V12.3973C29.5174 12.2744 29.8288 12.2518 30.1238 12.3317C30.6196 12.4649 31.2384 12.7989 31.7424 13.057V2.98514H18.9395L18.9395 24.3419ZM42.8921 32.0246C44.8712 33.0409 45.9878 34.221 45.9961 35.5097V39.1115C45.9961 41.0619 43.3797 42.7993 39.1488 44.0306C30.2203 46.6244 15.7763 46.6244 6.84728 44.0306C2.61649 42.7993 0 41.064 0 39.1115V35.5035C0.00819523 33.8358 1.91975 32.3299 5.11382 31.1601V11.6678H4.05256C3.90914 11.6678 3.79646 11.553 3.79646 11.4117V8.93667C3.79646 8.79736 3.91119 8.68057 4.05256 8.68057H18.429V2.98509H17.3677C17.2243 2.98509 17.1116 2.87035 17.1116 2.72899L17.1095 0.2561C17.1095 0.112683 17.2243 0 17.3656 0H33.3176C33.461 0 33.5737 0.114733 33.5737 0.2561V2.73108C33.5737 2.8745 33.459 2.98718 33.3176 2.98718H32.2564V13.2987C32.6743 13.434 32.8382 13.225 33.3873 12.4464C34.4055 10.9959 34.9935 10.9959 36.0097 12.4464C36.8026 13.5692 36.7924 13.5077 37.909 12.932C38.3536 12.7025 38.8412 12.4526 39.2694 12.3399C39.9128 12.1678 40.6216 12.4854 40.5069 13.2332C40.3102 14.5157 38.6486 16.2203 38.077 17.5234L38.5114 17.425C38.5954 17.4046 38.6794 17.4312 38.7408 17.4865C39.2059 17.9004 39.2756 18.4125 39.0195 18.9678C39.208 19.3714 39.2367 19.7955 38.9785 20.1766C41.7608 22.0082 43.5637 25.3847 43.5883 28.6792C43.5904 29.849 43.3715 30.9921 42.8921 32.0246ZM27.366 23.3705C27.7635 22.7169 28.2347 22.1002 28.7674 21.547V20.4202H26.7514V23.3705H27.366ZM31.9083 17.6524L32.7811 17.8491C33.6415 16.4088 35.7436 16.4088 36.6042 17.8491L37.477 17.6524C37.8601 16.2593 39.7921 14.4604 39.9929 13.1574C40.0482 12.7886 39.6569 12.764 39.3885 12.8337C39.0157 12.932 38.5567 13.1697 38.1367 13.3868C36.7558 14.0998 36.5161 14.0691 35.5839 12.7435C34.791 11.6126 34.5923 11.6126 33.7974 12.7435C32.8652 14.0711 32.6275 14.0998 31.2446 13.3868C30.8225 13.1717 30.3636 12.9341 29.9907 12.8337C29.7264 12.764 29.331 12.7886 29.3884 13.1574C29.5953 14.4625 31.5251 16.2593 31.9083 17.6524ZM34.4098 24.9849V24.4973C34.4098 24.1572 34.9241 24.1572 34.9241 24.4973V24.9746C36.182 25.1426 36.6492 26.4907 36.0878 26.5338C35.9485 26.5461 35.8235 26.4375 35.8133 26.2982C35.7764 25.8147 35.1823 25.4725 34.7213 25.4725C33.4818 25.4725 32.9388 27.0747 34.7131 27.2099C37.0159 27.3861 36.6205 29.7279 34.9241 29.9553V30.4389C34.9241 30.7749 34.4099 30.7749 34.4099 30.4389V29.9533C33.7706 29.8468 33.115 29.3612 33.0618 28.6748C33.0351 28.3409 33.5453 28.2999 33.5699 28.6339C33.6067 29.1194 34.2029 29.4595 34.6639 29.4595C35.9034 29.4595 36.4463 27.8594 34.6721 27.7221C32.3959 27.5459 32.7565 25.2513 34.4098 24.9849ZM37.4687 24.2617C35.9382 22.5181 33.4509 22.5181 31.9206 24.2617C30.3696 26.0236 30.3696 28.9043 31.9206 30.6705C33.4511 32.4099 35.9383 32.4099 37.4687 30.6705C39.0196 28.9044 39.0196 26.0237 37.4687 24.2617ZM36.8356 19.6047L38.4828 19.9776C38.7328 19.699 38.6713 19.3957 38.5033 19.0884C38.4664 19.0126 38.4583 18.9225 38.5033 18.8446C38.6713 18.5332 38.7328 18.232 38.4828 17.9534L36.8233 18.3283C36.9503 18.7381 36.9544 19.1888 36.8356 19.6047ZM35.9055 17.7813C35.2417 17.1134 34.1455 17.1134 33.4797 17.7813C32.8118 18.4451 32.8118 19.5412 33.4797 20.2071C34.1435 20.8749 35.2396 20.8749 35.9055 20.2071C36.5734 19.5392 36.5734 18.4451 35.9055 17.7813ZM35.4465 18.2422C35.8604 18.6561 35.8604 19.3322 35.4465 19.744C35.0327 20.1559 34.3566 20.1558 33.9448 19.744C33.5309 19.3302 33.5309 18.6541 33.9448 18.2422C34.3566 17.8263 35.0327 17.8263 35.4465 18.2422ZM35.0819 18.6008C34.8708 18.3898 34.5184 18.3898 34.3033 18.6008C34.0923 18.8159 34.0923 19.1662 34.3033 19.3834C34.5184 19.5945 34.8688 19.5945 35.0819 19.3834C35.297 19.1683 35.297 18.818 35.0819 18.6008ZM21.3815 19.9079H23.9098C24.0491 19.9079 24.1659 20.0227 24.1659 20.164V23.6265C24.1659 23.77 24.0511 23.8826 23.9098 23.8826H21.3815C21.2381 23.8826 21.1254 23.7679 21.1254 23.6265V20.164C21.1254 20.0247 21.2402 19.9079 21.3815 19.9079ZM23.6557 20.4201H21.6376V23.3704H23.6557V20.4201ZM26.4954 14.6874H29.0236C29.167 14.6874 29.2797 14.8021 29.2797 14.9456V18.4081C29.2797 18.5474 29.1649 18.6642 29.0236 18.6642H26.4954C26.356 18.6642 26.2393 18.5494 26.2393 18.4081V14.9456C26.2393 14.8021 26.356 14.6874 26.4954 14.6874ZM28.7695 15.2017H26.7535V18.1479H28.7695V15.2017ZM21.3815 14.6874H23.9097C24.049 14.6874 24.1658 14.8021 24.1658 14.9456V18.4081C24.1658 18.5474 24.0511 18.6642 23.9097 18.6642H21.3815C21.2381 18.6642 21.1254 18.5494 21.1254 18.4081V14.9456C21.1254 14.8021 21.2401 14.6874 21.3815 14.6874ZM23.6556 15.2017H21.6375V18.1479H23.6556V15.2017ZM28.7695 9.97927H26.7534V12.9295H28.7695V9.97927ZM21.3814 9.46911H23.9097C24.049 9.46911 24.1658 9.58385 24.1658 9.72521V13.1877C24.1658 13.3311 24.051 13.4438 23.9097 13.4438H21.3814C21.238 13.4438 21.1253 13.3291 21.1253 13.1877V9.72521C21.1253 9.5818 21.2401 9.46911 21.3814 9.46911ZM23.6556 9.97927H21.6375V12.9295H23.6556V9.97927ZM26.4953 4.24654H29.0235C29.1669 4.24654 29.2796 4.36128 29.2796 4.50264V7.96515C29.2796 8.10856 29.1648 8.22125 29.0235 8.22125H26.4953C26.3559 8.22125 26.2392 8.10651 26.2392 7.96515V4.50264C26.2392 4.36333 26.3559 4.24654 26.4953 4.24654ZM28.7694 4.76285H26.7534V7.70904H28.7694V4.76285ZM21.3814 4.24654H23.9096C24.0489 4.24654 24.1657 4.36128 24.1657 4.50264V7.96515C24.1657 8.10856 24.051 8.22125 23.9096 8.22125H21.3814C21.238 8.22125 21.1253 8.10651 21.1253 7.96515L21.1273 4.50264C21.1253 4.36333 21.24 4.24654 21.3814 4.24654ZM23.6555 4.76285H21.6374V7.70904H23.6555V4.76285ZM8.2076 23.6425H10.7338C10.8772 23.6425 10.9919 23.7573 10.9919 23.8986V27.3612C10.9919 27.5046 10.8772 27.6173 10.7338 27.6173H8.2076C8.06418 27.6173 7.94945 27.5025 7.94945 27.3612V23.8986C7.9474 23.7573 8.06623 23.6425 8.2076 23.6425ZM10.4777 24.1527H8.46161V27.103H10.4777V24.1527ZM13.3214 18.42H15.8496C15.989 18.42 16.1057 18.5347 16.1057 18.6761V22.1386C16.1057 22.282 15.991 22.3947 15.8496 22.3947H13.3214C13.178 22.3947 13.0653 22.2799 13.0653 22.1386V18.6761C13.0653 18.5388 13.178 18.42 13.3214 18.42ZM15.5935 18.9363H13.5754L13.5775 21.8825H15.5956L15.5935 18.9363ZM8.2076 18.42H10.7338C10.8772 18.42 10.9919 18.5347 10.9919 18.6761V22.1386C10.9919 22.282 10.8772 22.3947 10.7338 22.3947H8.2076C8.06418 22.3947 7.94945 22.2799 7.94945 22.1386V18.6761C7.9474 18.5388 8.06623 18.42 8.2076 18.42ZM10.4777 18.9363H8.46161L8.46366 21.8825H10.4797L10.4777 18.9363ZM13.3214 13.2036H15.8496C15.989 13.2036 16.1057 13.3183 16.1057 13.4597V16.9222C16.1057 17.0615 15.991 17.1783 15.8496 17.1783H13.3214C13.178 17.1783 13.0653 17.0635 13.0653 16.9222V13.4597C13.0653 13.3162 13.178 13.2036 13.3214 13.2036ZM15.5935 13.7137H13.5754V16.6599H15.5935V13.7137ZM8.2076 13.2036H10.7338C10.8772 13.2036 10.9919 13.3183 10.9919 13.4597V16.9222C10.9919 17.0615 10.8772 17.1783 10.7338 17.1783H8.2076C8.06418 17.1783 7.94945 17.0635 7.94945 16.9222V13.4597C7.9474 13.3162 8.06623 13.2036 8.2076 13.2036ZM10.4777 13.7137H8.46161V16.6599H10.4777V13.7137ZM18.429 11.1547V9.19199H4.30856V11.1547H18.429ZM33.0613 0.509085H17.6213V2.47185H33.0613V0.509085ZM37.6466 40.8254L37.6507 43.8986C38.7325 43.6323 39.8224 43.3127 40.8263 42.9398V39.883C39.8122 40.2518 38.7324 40.5632 37.6466 40.8254ZM37.1385 44.0216V40.9463C35.692 41.2803 34.1063 41.561 32.4098 41.7863V44.8698C34.1104 44.6424 35.6941 44.3576 37.1385 44.0216ZM41.3365 39.6904V42.7431C42.1888 42.403 42.9263 42.0424 43.5328 41.6613V38.6455C42.9038 39.0143 42.1703 39.3626 41.3365 39.6904ZM44.0471 38.3177V41.313C44.9772 40.6205 45.4874 39.8788 45.4874 39.1085V36.9798C45.1555 37.4469 44.6658 37.8956 44.0471 38.3177ZM23.2556 42.3723V45.4578C26.3206 45.4496 29.2422 45.2632 31.9014 44.9333V41.8498C29.2359 42.1777 26.3165 42.362 23.2556 42.3723ZM22.7434 45.4598V42.3743C16.5397 42.3579 10.9302 41.6163 6.84858 40.43C3.71797 39.5224 1.47041 38.3321 0.51583 36.984V39.1127C0.51583 40.8091 2.99081 42.3764 6.99019 43.5422C11.0263 44.71 16.5869 45.4414 22.7434 45.4598Z" fill="#003781"/>
</svg>
