<svg width="45" height="43" viewBox="0 0 45 43" fill="none" xmlns="http://www.w3.org/2000/svg">
<path d="M7.48418 13.7977H33.8789C34.5236 13.7977 35.1075 13.4926 35.4807 12.9608C35.8553 12.4269 35.9462 11.7412 35.7239 11.1265L33.3617 4.59578C32.8653 3.06995 31.7313 2.08398 30.4726 2.08398H10.8905C9.6318 2.08398 8.49767 3.07009 8.00528 4.58453L5.63923 11.1265C5.41693 11.7412 5.5078 12.4269 5.88243 12.9608C6.25562 13.4926 6.83946 13.7977 7.48418 13.7977ZM6.34276 11.381L8.71274 4.8275C9.10703 3.61539 9.96186 2.83207 10.8905 2.83207H30.4726C31.4012 2.83207 32.2561 3.61525 32.6542 4.83878L35.0204 11.381C35.162 11.7725 35.1065 12.1917 34.8683 12.5311C34.6371 12.8607 34.2765 13.0496 33.8789 13.0496H7.48418C7.08662 13.0496 6.72601 12.8607 6.4948 12.5311C6.25654 12.1917 6.20118 11.7725 6.34276 11.381Z" fill="#003781"/>
<path d="M7.27624 18.2129H4.79593C4.58933 18.2129 4.42188 18.3803 4.42188 18.5869V20.9143C4.42188 22.3855 5.61866 23.5823 7.08979 23.5823H10.3258C10.9654 23.5823 11.4857 23.062 11.4857 22.4223C11.4857 20.1012 9.59736 18.2129 7.27624 18.2129ZM10.3258 22.8342H7.08979C6.03123 22.8342 5.16996 21.9729 5.16996 20.9143V18.961H7.27624C9.18479 18.961 10.7376 20.5137 10.7376 22.4223C10.7376 22.6494 10.5528 22.8342 10.3258 22.8342Z" fill="#003781"/>
<path d="M36.4752 32.8367C36.4752 33.0433 36.6426 33.2107 36.8492 33.2107C37.0558 33.2107 37.2233 33.0433 37.2233 32.8367C37.2233 31.645 36.0439 30.6607 34.5271 30.5195V29.5908C34.5271 29.3842 34.3596 29.2168 34.153 29.2168C33.9464 29.2168 33.7789 29.3842 33.7789 29.5908V30.5194C32.2617 30.6604 31.082 31.6449 31.082 32.8367V32.8853C31.082 33.3824 31.2886 33.8516 31.6796 34.2421C32.1893 34.7514 32.9454 35.0582 33.7789 35.1065V38.1646C32.6758 38.0417 31.8301 37.3875 31.8301 36.5989C31.8301 36.3923 31.6627 36.2249 31.4561 36.2249C31.2495 36.2249 31.082 36.3923 31.082 36.5989C31.082 37.7907 32.2617 38.7752 33.7789 38.9161V39.8458C33.7789 40.0524 33.9464 40.2198 34.153 40.2198C34.3596 40.2198 34.5271 40.0524 34.5271 39.8458V38.9161C36.0439 38.7748 37.2233 37.7906 37.2233 36.5989C37.2233 36.1018 37.0167 35.6327 36.6258 35.2421C36.1161 34.733 35.3603 34.4262 34.5271 34.3779V31.271C35.6299 31.3941 36.4752 32.0483 36.4752 32.8367ZM33.7789 34.3585C33.1504 34.3123 32.5749 34.0792 32.2083 33.7129C32.0358 33.5405 31.8301 33.257 31.8301 32.8853V32.8367C31.8301 32.0481 32.6758 31.3939 33.7789 31.271V34.3585ZM36.0971 35.7713C36.2696 35.9437 36.4752 36.2272 36.4752 36.5989C36.4752 37.3873 35.6299 38.0415 34.5271 38.1646V35.1258C35.1553 35.1721 35.7305 35.4052 36.0971 35.7713Z" fill="#003781"/>
<path d="M45 31.3075C45 31.3055 44.9995 31.3037 44.9994 31.3017V29.1747V27.0489C44.9995 27.045 45 27.0413 45 27.0374C44.9974 25.6243 42.7002 24.5557 39.6412 24.5338V18.3536C39.6412 18.3412 39.6406 18.3288 39.6393 18.3165C39.6326 17.1225 39.4608 15.3095 39.0961 14.1097C39.0924 14.0974 39.0881 14.0855 39.0832 14.0738L38.749 13.2769L38.346 12.2127H40.2554C40.867 12.2127 41.3646 11.707 41.3646 11.0854V10.0022C41.3646 9.38163 40.867 8.87684 40.2554 8.87684H37.872C37.6141 8.87684 37.3676 8.95556 37.1599 9.09483L34.9829 3.36508C34.2062 1.32085 32.3936 0 30.3652 0H10.9994C8.971 0 7.15843 1.32085 6.3817 3.36494L4.20383 9.0944C3.9968 8.95527 3.75067 8.87684 3.49264 8.87684H1.10751C0.496842 8.87684 0 9.38163 0 10.0022V11.0854C0 11.707 0.496842 12.2127 1.10751 12.2127H3.01849L2.6183 13.2656L2.28117 14.0744C2.2764 14.0858 2.27223 14.0974 2.26868 14.109C1.89404 15.3362 1.72338 17.1927 1.72338 18.3983L1.72156 29.6246C1.72156 30.3262 2.29241 30.8971 2.99412 30.8971H7.17427C7.8759 30.8971 8.44675 30.3262 8.44675 29.6246V27.9148H21.1604V28.9785C21.1604 28.9797 21.1601 28.9809 21.1601 28.9821C21.1601 28.9847 21.1604 28.9873 21.1604 28.9899V31.6938C21.1604 31.6951 21.1601 31.6962 21.1601 31.6975C21.1601 31.7002 21.1604 31.703 21.1604 31.7056V34.4093C21.1604 34.4105 21.1601 34.4117 21.1601 34.4129C21.1601 34.4156 21.1604 34.4181 21.1604 34.4207V37.1266C21.1604 37.128 21.1608 37.1292 21.1608 37.1305C21.1645 38.8613 24.1665 40.2168 27.9985 40.2168C28.0257 40.2168 28.0529 40.2161 28.0801 40.2161C29.6178 41.922 31.7969 42.9065 34.1515 42.9065C36.5162 42.9065 38.703 41.9143 40.2402 40.1965C43.0079 40.0444 44.9994 39.0105 44.9994 37.7089V35.5821C44.9994 35.5796 45 35.5771 45 35.5745C45 35.5725 44.9995 35.5707 44.9994 35.5688V33.4493C44.9994 33.4465 45 33.4438 45 33.441C45 33.439 44.9995 33.4372 44.9994 33.4352V31.3157C44.9994 31.3129 45 31.3103 45 31.3075ZM21.1604 26.2643V27.1667H8.0727C7.8661 27.1667 7.69867 27.3342 7.69867 27.5408V29.6246C7.69867 29.9137 7.46342 30.149 7.17427 30.149H2.99412C2.70489 30.149 2.46964 29.9137 2.46964 29.6246L2.47146 18.3984C2.47146 17.2161 2.64571 15.4486 2.97891 14.3449L3.31322 13.5424L3.76872 12.3445C3.84446 12.1452 3.81729 11.9214 3.69609 11.7456C3.57484 11.5696 3.37465 11.4646 3.16082 11.4646H1.10751C0.909321 11.4646 0.748082 11.2945 0.748082 11.0854V10.0022C0.748082 9.79411 0.909321 9.62492 1.10751 9.62492H3.49264C3.70575 9.62492 3.90049 9.75626 3.9889 9.95951C4.04947 10.099 4.18747 10.1909 4.34067 10.1842C4.49277 10.1807 4.62747 10.0854 4.68153 9.94329L7.08098 3.63072C7.74637 1.87956 9.28449 0.748082 10.9994 0.748082H30.3652C32.0801 0.748082 33.6183 1.87956 34.2836 3.63072L36.6813 9.94138C36.7352 10.0833 36.8693 10.1784 37.021 10.1825C37.1734 10.189 37.3116 10.0986 37.373 9.95994C37.4631 9.75641 37.6589 9.62492 37.872 9.62492H40.2554C40.4545 9.62492 40.6165 9.79411 40.6165 10.0022V11.0854C40.6165 11.2945 40.4545 11.4646 40.2554 11.4646H38.2038C37.9884 11.4646 37.7874 11.5707 37.666 11.7483C37.5453 11.9248 37.5196 12.1488 37.5958 12.344L38.0542 13.554L38.3857 14.345C38.7131 15.4349 38.8879 17.1828 38.8914 18.353C38.8915 18.3645 38.892 18.3759 38.8931 18.3873V24.5496C37.134 24.6379 35.6712 25.0804 34.839 25.7351V23.5487C34.839 23.5198 34.836 23.4914 34.8344 23.4628C36.0448 23.2054 36.9423 22.1343 36.9423 20.8571V18.5294C36.9423 18.3228 36.7749 18.1553 36.5683 18.1553H33.5825C32.0088 18.1553 30.6218 19.146 30.0978 20.6021C29.439 20.5093 28.7348 20.4591 27.9997 20.4591C27.9008 20.4591 27.8028 20.4605 27.705 20.4623V20.0429C27.705 19.002 26.9323 18.1553 25.9824 18.1553H15.5454C14.5955 18.1553 13.8228 19.002 13.8228 20.0429V22.4692C13.8228 23.5101 14.5955 24.3568 15.5454 24.3568H21.1604V26.2643ZM26.0214 35.6594C26.0591 35.9931 26.1187 36.3206 26.1955 36.6428C23.5063 36.3089 21.9159 35.2837 21.9085 34.4189V34.411V33.1348C22.722 33.8579 24.1521 34.4094 25.9665 34.6531C25.9664 34.6755 25.9653 34.6979 25.9653 34.7204C25.9653 35.0381 25.9843 35.3552 26.0214 35.6594ZM26.0066 33.903C23.6499 33.5719 21.916 32.6543 21.9085 31.7036V31.6954V30.4235C22.7935 31.2103 24.4062 31.7886 26.4331 31.9928C26.3937 32.1037 26.3534 32.2144 26.3188 32.3271C26.163 32.8398 26.0594 33.3674 26.0066 33.903ZM21.9085 28.9881V28.9798V27.6885C23.0267 28.6822 25.2952 29.3493 27.9739 29.3537C27.4722 29.931 27.0524 30.5766 26.7289 31.2695C23.712 31.0123 21.9161 29.9249 21.9085 28.9881ZM21.9104 26.2645C21.9104 26.2582 21.9088 26.2525 21.9085 26.2464V24.9742C23.0312 25.9703 25.3103 26.6382 27.9997 26.6382C30.6891 26.6382 32.9682 25.9703 34.0909 24.9742V26.2543C34.0908 26.2578 34.0899 26.261 34.0899 26.2645V26.5311C34.0537 26.5317 34.0188 26.5326 33.9886 26.5342C32.0354 26.5706 30.1835 27.297 28.7289 28.5878C28.4803 28.599 28.235 28.6059 28.0001 28.6059C24.4114 28.6059 21.9104 27.372 21.9104 26.2645ZM27.9997 25.8901C24.4101 25.8901 21.9085 24.6562 21.9085 23.5487C21.9085 22.5117 24.102 21.3638 27.3281 21.2219C27.329 21.2219 27.33 21.2222 27.3309 21.2222C27.3341 21.2222 27.3371 21.2213 27.3403 21.2212C27.5556 21.2119 27.7755 21.2071 27.9997 21.2071C28.8155 21.2071 29.5743 21.2714 30.2611 21.3829C30.2622 21.3832 30.2632 21.3838 30.2643 21.3841C30.2792 21.388 30.294 21.389 30.3088 21.3909C32.6166 21.7749 34.0909 22.6988 34.0909 23.5487C34.0909 24.6562 31.5893 25.8901 27.9997 25.8901ZM30.851 20.7313C31.3016 19.6383 32.3721 18.9034 33.5825 18.9034H36.1943V20.8571C36.1943 21.7988 35.5165 22.585 34.6131 22.7448C34.0917 21.8377 32.7021 21.1057 30.851 20.7313ZM21.1604 23.5487V23.6088H15.5454C15.008 23.6088 14.5708 23.0975 14.5708 22.4692V20.0429C14.5708 19.4146 15.008 18.9034 15.5454 18.9034H25.9824C26.5197 18.9034 26.9569 19.4146 26.9569 20.0429V20.4934C23.6338 20.7139 21.1604 21.9766 21.1604 23.5487ZM21.9088 37.1274C21.9088 37.1266 21.9085 37.1259 21.9085 37.1252V35.8451C22.7942 36.6312 24.4066 37.2155 26.4216 37.4208C26.6102 37.9631 26.8562 38.4855 27.1601 38.9839C27.2597 39.1467 27.3646 39.3049 27.4738 39.4589C24.1687 39.3458 21.9088 38.1798 21.9088 37.1274ZM39.7862 39.5747C39.7824 39.5788 39.7791 39.5831 39.7754 39.5873C38.3744 41.2137 36.3484 42.1584 34.1515 42.1584C31.9942 42.1584 30.0003 41.2474 28.6013 39.6735C28.5728 39.6148 28.5302 39.5647 28.477 39.5285C28.2309 39.237 28.0022 38.9268 27.7985 38.5939C27.2344 37.6689 26.8866 36.6533 26.7643 35.572C26.7306 35.2946 26.7134 35.008 26.7134 34.7204C26.7134 33.9778 26.8214 33.2458 27.0343 32.5456C27.3986 31.3594 28.0599 30.2739 28.9473 29.4061C30.3068 28.0719 32.1021 27.3176 34.0137 27.2819C34.0535 27.2799 34.095 27.2798 34.1351 27.2798C34.1406 27.2798 34.1461 27.2798 34.1515 27.2798C34.1816 27.2798 34.2097 27.2795 34.2396 27.2815C34.2478 27.282 34.2558 27.2823 34.2639 27.2823C34.3194 27.2817 34.3758 27.2821 34.4337 27.2846C36.0938 27.3479 37.7017 27.9734 38.9626 29.047C39.7467 29.7082 40.3744 30.5109 40.8285 31.4337C41.1184 32.0198 41.3264 32.6402 41.4519 33.2829C41.4525 33.2865 41.4523 33.29 41.453 33.2936C41.4536 33.2964 41.4549 33.299 41.4555 33.3018C41.4839 33.449 41.5093 33.5969 41.5288 33.7462C41.5708 34.0703 41.5921 34.398 41.5921 34.7204C41.5921 35.1997 41.5463 35.6768 41.4557 36.1397C41.373 36.5699 41.2525 36.9891 41.0961 37.3948C41.0914 37.4046 41.0882 37.4149 41.0844 37.425C40.9262 37.83 40.732 38.2213 40.5022 38.5961C40.2883 38.9459 40.0468 39.2708 39.7862 39.5747ZM44.2513 37.7089C44.2513 38.3815 42.9258 39.151 40.8755 39.3917C40.967 39.2597 41.0556 39.1251 41.1402 38.9868C41.3573 38.6326 41.544 38.2643 41.7033 37.8854C42.8063 37.6773 43.6815 37.3263 44.2513 36.8803V37.7089ZM44.2513 35.5754V35.5799C44.2458 36.0742 43.475 36.7002 41.9997 37.058C42.0753 36.8032 42.1397 36.5447 42.1901 36.2821C42.2326 36.0649 42.2643 35.8443 42.2888 35.6222C43.1217 35.4083 43.7878 35.1065 44.2513 34.7438V35.5754ZM44.2513 33.4417V33.4468C44.2458 33.962 43.4957 34.495 42.3375 34.8335C42.338 34.7958 42.3402 34.7581 42.3402 34.7204C42.3402 34.3659 42.3168 34.0059 42.2706 33.6498C42.2641 33.6 42.2556 33.5508 42.2482 33.5013C43.1019 33.287 43.7803 32.9812 44.2513 32.6128V33.4417ZM44.2513 31.3082V31.313C44.2456 31.8581 43.3805 32.4329 42.1037 32.7644C41.9971 32.3289 41.855 31.9041 41.6781 31.4929C42.7876 31.2867 43.6744 30.9294 44.2513 30.476V31.3082ZM44.2513 29.1601C44.2511 29.1655 44.2497 29.1706 44.2497 29.176C44.2497 29.7423 43.2294 30.4814 41.3365 30.7921C41.0879 30.3367 40.7983 29.9105 40.4712 29.5146C42.1095 29.3943 43.4629 28.9591 44.2513 28.3394V29.1601ZM44.2513 27.039V27.0485C44.239 27.8442 42.4234 28.7408 39.8028 28.7969C39.687 28.6872 39.5688 28.5797 39.4461 28.4763C38.203 27.4178 36.6518 26.7564 35.0289 26.5801C35.581 25.8993 37.2965 25.2808 39.546 25.2808C42.3128 25.2808 44.2438 26.2043 44.2516 27.0362C44.2516 27.0372 44.2513 27.038 44.2513 27.039Z" fill="#003781"/>
</svg>
