<svg width="48" height="48" viewBox="0 0 48 48" fill="none" xmlns="http://www.w3.org/2000/svg">
<path d="M44.6666 2.66667H38.6666V0H37.3333V2.66667H20V0H18.6666V2.66667H12.6667C10.8292 2.66667 9.33332 4.16251 9.33332 6V18.6667C4.1 18.6667 0 20.7167 0 23.3333V39.3333C0 41.95 4.1 44 9.33332 44C10.7375 44 12.1062 43.8417 13.3542 43.5521C13.5792 46.0625 17.5813 48 22.6667 48C27.9 48 32 45.95 32 43.3333V37.3333H44.6667C46.5042 37.3333 48 35.8375 48 34V5.99998C48 4.16249 46.5041 2.66667 44.6666 2.66667ZM12.6667 4H18.6666V6.66667H20V4H37.3333V6.66667H38.6666V4H44.6666C45.7687 4 46.6666 4.89792 46.6666 6V10.6667H10.6667V6C10.6667 4.89792 11.5646 4 12.6667 4ZM9.33332 20C14.0479 20 17.3333 21.7563 17.3333 23.3333C17.3333 24.9104 14.0479 26.6667 9.33332 26.6667C4.61877 26.6667 1.33333 24.9083 1.33333 23.3333C1.33333 21.7563 4.61877 20 9.33332 20ZM1.33333 25.7605C2.94997 27.1105 5.89375 28.0001 9.33332 28.0001C12.775 28.0001 15.7189 27.1105 17.3354 25.7585V27.3335H17.3334C17.3334 28.9105 14.0479 30.6668 9.33337 30.6668C4.61882 30.6668 1.33338 28.9105 1.33338 27.3335L1.33333 25.7605ZM22.6666 32C27.3812 32 30.6666 33.7563 30.6666 35.3333C30.6666 36.9104 27.3812 38.6667 22.6666 38.6667C17.9521 38.6667 14.6667 36.9104 14.6667 35.3333C14.6667 33.7563 17.9521 32 22.6666 32ZM1.33333 29.7604C2.94997 31.1125 5.89375 32 9.33332 32C12.775 32 15.7168 31.1104 17.3354 29.7604V31.4834C15.5479 32.0959 14.2355 33.0146 13.6625 34.1021C12.3625 34.4688 10.875 34.6667 9.33338 34.6667C4.61882 34.6667 1.33339 32.9105 1.33339 31.3334L1.33333 29.7604ZM1.33333 33.7604C2.94997 35.1104 5.89375 36 9.33332 36C10.7312 36 12.0917 35.8438 13.3333 35.5583V38.1854C12.1125 38.4959 10.7437 38.6667 9.33332 38.6667C4.61877 38.6667 1.33333 36.9104 1.33333 35.3334V33.7604ZM1.33333 39.3332V37.7603C2.94997 39.1124 5.89375 39.9999 9.33332 39.9999C10.7292 39.9999 12.0896 39.8416 13.3333 39.5582V42.1853C12.1125 42.4958 10.7437 42.6666 9.33332 42.6666C4.61877 42.6666 1.33333 40.9103 1.33333 39.3332ZM22.6666 46.6666C17.9521 46.6666 14.6667 44.9103 14.6667 43.3332V41.7603C16.2833 43.1103 19.2271 43.9999 22.6666 43.9999C26.1062 43.9999 29.048 43.1103 30.6666 41.7603V43.3332C30.6666 44.9103 27.3812 46.6666 22.6666 46.6666ZM22.6666 42.6666C17.9521 42.6666 14.6667 40.9103 14.6667 39.3332V37.7603C16.2833 39.1124 19.2271 39.9999 22.6666 39.9999C26.1062 39.9999 29.048 39.1103 30.6666 37.7603V39.3332C30.6666 40.9103 27.3812 42.6666 22.6666 42.6666ZM44.6666 35.9999H32V35.3332C32 32.7166 27.9 30.6666 22.6666 30.6666C21.225 30.6666 19.875 30.827 18.6666 31.1062L18.6687 23.1248H18.6458C18.4521 20.8352 15.1104 19.0227 10.6666 18.7165V11.9997H46.6666V33.9997C46.6666 35.1018 45.7687 35.9999 44.6666 35.9999Z" fill="#003781"/>
</svg>
