<svg width="45" height="43" viewBox="0 0 45 43" fill="none" xmlns="http://www.w3.org/2000/svg">
<path d="M44.1189 28.1749C43.5787 27.3347 42.7485 26.7546 41.7782 26.5445C40.808 26.3344 39.8077 26.5145 38.9674 27.0446L34.0261 30.2155C33.686 30.4356 33.586 30.8857 33.8061 31.2258C34.0261 31.5659 34.4762 31.6659 34.8164 31.4459L39.7577 28.285C40.2678 27.9549 40.868 27.8448 41.4581 27.9849C42.0483 28.1149 42.5484 28.465 42.8785 28.9752C43.2086 29.4853 43.3086 30.0855 43.1886 30.6756C43.0586 31.2658 42.7085 31.7659 42.1983 32.096L28.3347 40.9883C28.1146 41.1283 27.8445 41.1583 27.6045 41.0783L13.8407 36.257C13.6306 36.187 13.3906 36.207 13.2005 36.337L10.9199 37.7874L5.87849 29.925L12.7402 25.5238C13.0102 25.3537 13.3403 25.3037 13.6404 25.3937L29.3949 29.975C29.975 30.145 30.4551 30.5251 30.7452 31.0553C31.0353 31.5855 31.1053 32.1956 30.9353 32.7758C30.7652 33.3559 30.3851 33.8361 29.855 34.1261C29.3248 34.4162 28.7146 34.4862 28.1345 34.3162L20.6326 32.1356C20.2325 32.0156 19.8324 32.2456 19.7224 32.6357C19.6124 33.0258 19.8324 33.4359 20.2226 33.546L27.7244 35.7265C28.0745 35.8266 28.4246 35.8766 28.7747 35.8766C29.3948 35.8766 30.005 35.7165 30.5652 35.4165C31.4354 34.9363 32.0756 34.1461 32.3457 33.1959C32.9159 31.2253 31.7855 29.1548 29.805 28.5746L14.0505 23.9834C13.3404 23.7733 12.5701 23.8834 11.94 24.2835L5.0783 28.6847L4.61817 27.9645C4.51814 27.8045 4.3481 27.6844 4.15804 27.6444C3.96799 27.6044 3.76793 27.6344 3.6079 27.7445L0.33701 29.8451C-0.00308181 30.0651 -0.103113 30.5152 0.116948 30.8554C0.33701 31.1955 0.787136 31.2955 1.12725 31.0754L3.77799 29.375L10.5598 39.9481L7.90902 41.6486C7.56892 41.8686 7.46889 42.3188 7.68895 42.6589C7.82899 42.8789 8.06906 42.999 8.3091 42.999C8.43914 42.999 8.57918 42.959 8.70922 42.8789L11.9801 40.7783C12.3202 40.5583 12.4202 40.1081 12.2002 39.768L11.72 39.0178L13.7006 37.7475L27.1243 42.4488C27.3744 42.5388 27.6344 42.5788 27.8945 42.5788C28.3246 42.5788 28.7548 42.4588 29.1349 42.2087L42.9985 33.3164C43.8387 32.7763 44.4189 31.946 44.629 30.9758C44.839 30.0055 44.659 29.0052 44.1189 28.1749Z" fill="#003781"/>
<path d="M40.5684 4.37692C40.5684 4.77703 40.8984 5.10713 41.2986 5.10713H42.2789C42.679 5.10713 43.0091 4.77704 43.0091 4.37692C43.0091 3.9668 42.679 3.64671 42.2789 3.64671H41.2986C40.8985 3.6367 40.5684 3.96679 40.5684 4.37692Z" fill="#003781"/>
<path d="M40.6088 3.49816C40.7988 3.49816 40.9889 3.42814 41.1289 3.2881L41.8291 2.5879C42.1192 2.29782 42.1192 1.83771 41.8291 1.54764C41.539 1.25756 41.0789 1.25756 40.7889 1.54764L40.0887 2.24784C39.7986 2.53792 39.7986 2.99802 40.0887 3.2881C40.2287 3.42814 40.4187 3.49816 40.6088 3.49816Z" fill="#003781"/>
<path d="M40.7771 7.20021C40.9172 7.34025 41.1072 7.42027 41.2973 7.42027C41.4873 7.42027 41.6774 7.35025 41.8174 7.20021C42.1075 6.91013 42.1075 6.45002 41.8174 6.15995L41.1172 5.45975C40.8271 5.16967 40.367 5.16967 40.0769 5.45975C39.7869 5.74983 39.7869 6.20993 40.0769 6.50001L40.7771 7.20021Z" fill="#003781"/>
<path d="M31.4146 17.2021C31.0245 17.5922 30.8145 18.1123 30.8145 18.6625C30.8145 19.2127 31.0245 19.7327 31.4146 20.1229C31.8047 20.513 32.3249 20.7331 32.8751 20.7331C33.1851 20.7331 33.4852 20.663 33.7553 20.533C33.8453 20.493 33.9354 20.443 34.0154 20.383C34.0754 20.343 34.1254 20.3029 34.1754 20.2629C34.2254 20.2229 34.2755 20.1729 34.3255 20.1229C34.7156 19.7328 34.9257 19.2127 34.9257 18.6625C34.9257 18.1123 34.7156 17.5922 34.3255 17.202C33.5553 16.4118 32.1948 16.4118 31.4146 17.2021ZM33.3051 18.2323C33.4152 18.3424 33.4852 18.5024 33.4852 18.6524C33.4852 18.8125 33.4252 18.9625 33.3051 19.0726C33.2351 19.1426 33.1451 19.1926 33.0551 19.2226C32.945 19.2526 32.825 19.2526 32.715 19.2226C32.625 19.1926 32.5349 19.1426 32.4649 19.0726C32.3549 18.9625 32.2849 18.8125 32.2849 18.6524C32.2849 18.4924 32.3449 18.3424 32.4649 18.2323C32.4749 18.2223 32.4949 18.2023 32.5049 18.1923C32.5649 18.1423 32.635 18.1023 32.705 18.0823C32.745 18.0723 32.785 18.0623 32.815 18.0623H32.875C32.935 18.0623 32.9951 18.0723 33.0551 18.0923C33.1451 18.1123 33.2351 18.1623 33.3051 18.2323Z" fill="#003781"/>
<path d="M27.1949 19.6226C27.2249 19.6926 27.2749 19.7426 27.3249 19.8026C27.4649 19.9426 27.655 20.0127 27.845 20.0127C28.0351 20.0127 28.2251 19.9426 28.3652 19.8026L34.0269 14.1409C34.0469 14.1209 34.0669 14.1009 34.0769 14.0809C34.1069 14.0409 34.1369 14.0009 34.1569 13.9608C34.1769 13.9208 34.1969 13.8708 34.2069 13.8308C34.2569 13.6708 34.2469 13.5007 34.1869 13.3407C34.1569 13.2707 34.1269 13.2106 34.0769 13.1506C34.0669 13.1306 34.0469 13.1106 34.0269 13.0906C33.7368 12.8005 33.2767 12.8005 32.9866 13.0906L27.3249 18.7523C27.0948 19.0024 27.0448 19.3525 27.1949 19.6226Z" fill="#003781"/>
<path d="M29.4153 27.3053C29.8354 27.3553 30.2455 27.3753 30.6557 27.3753C33.2864 27.3753 35.7771 26.425 37.7678 24.6545C40.0384 22.624 41.3287 19.7232 41.3287 16.6825C41.3287 11.9812 38.2679 7.8599 33.8064 6.47968V5.57944C33.8064 4.86925 33.2263 4.29909 32.5261 4.29909H31.4057V3.48888C31.4057 2.45861 32.236 1.62837 33.2663 1.62837C34.2865 1.62837 35.1168 2.45861 35.1268 3.47889C35.1368 4.44914 35.927 5.24936 36.9073 5.24936H39.0179C39.418 5.24936 39.7481 4.91927 39.7481 4.51915C39.7481 4.11903 39.418 3.78894 39.0179 3.78894H36.9073C36.7372 3.78894 36.5972 3.6489 36.5972 3.47886C36.5872 1.65835 35.0968 0.167969 33.2663 0.167969C31.4358 0.167969 29.9354 1.6584 29.9354 3.49888V4.30909H28.735C28.0248 4.30909 27.4546 4.88924 27.4546 5.58944V6.48968C22.5533 8.00009 19.4422 12.7014 20.0025 17.873C20.5327 22.7944 24.4839 26.7649 29.4153 27.3053ZM21.9032 13.6516C22.0033 13.3515 22.1233 13.0614 22.2533 12.7814C22.3333 12.6113 22.4134 12.4413 22.5034 12.2812C22.5334 12.2212 22.5634 12.1712 22.5934 12.1212C22.6534 12.0111 22.7135 11.9011 22.7835 11.8011C22.8435 11.6911 22.9135 11.591 22.9835 11.491C23.0235 11.441 23.0535 11.391 23.0936 11.341C23.2036 11.1909 23.3136 11.0409 23.4336 10.9008C23.4737 10.8508 23.5137 10.8008 23.5537 10.7508C23.6337 10.6508 23.7137 10.5607 23.8037 10.4707C23.8838 10.3807 23.9738 10.2907 24.0638 10.2006C24.2439 10.0206 24.4239 9.85055 24.614 9.6905C24.714 9.61048 24.804 9.53046 24.904 9.45044C25.2041 9.22037 25.5142 9.00031 25.8443 8.81026C25.9543 8.74024 26.0643 8.68022 26.1744 8.62021C26.4044 8.50018 26.6345 8.38015 26.8746 8.28012C26.9946 8.23011 27.1146 8.18009 27.2347 8.13008C27.2947 8.11007 27.3547 8.08006 27.4247 8.06006C27.4847 8.04005 27.5447 8.01004 27.6148 7.99004C27.8648 7.90001 28.1149 7.82999 28.375 7.75997C28.455 7.73997 28.535 7.70996 28.595 7.65995C28.6251 7.63994 28.6551 7.60993 28.6851 7.58993C28.8351 7.45989 28.9251 7.25984 28.9251 7.04977V5.76942H32.3461V7.03979C32.3461 7.11981 32.3561 7.19983 32.3861 7.27985C32.4261 7.38988 32.4961 7.49991 32.5761 7.57994C32.5962 7.59994 32.6262 7.61995 32.6462 7.63995C32.7062 7.67996 32.7662 7.70997 32.8262 7.73998C32.8462 7.74998 32.8662 7.74998 32.8862 7.75999C33.0763 7.81 33.2663 7.86001 33.4564 7.92003C34.2166 8.1601 34.9268 8.50018 35.577 8.92029C35.727 9.01031 35.8671 9.11034 36.0171 9.21037C36.1171 9.28039 36.2171 9.36042 36.3172 9.44044C36.4172 9.52046 36.5172 9.59048 36.6073 9.6805C36.7973 9.84055 36.9774 10.0106 37.1574 10.1906C37.9576 10.9909 38.5978 11.9311 39.0579 12.9614C39.1079 13.0715 39.1579 13.1915 39.2079 13.3115C39.6281 14.3618 39.8481 15.5121 39.8481 16.7025C39.8481 19.1631 38.8578 21.5138 37.1274 23.244C37.0073 23.3641 36.8973 23.4741 36.7673 23.5841C34.7867 25.3546 32.216 26.1748 29.5553 25.8748C29.1552 25.8348 28.7651 25.7647 28.385 25.6647C28.3149 25.6447 28.2549 25.6347 28.1949 25.6147C28.0049 25.5647 27.8148 25.5047 27.6347 25.4447C27.5747 25.4246 27.5147 25.4046 27.4547 25.3746C27.3347 25.3346 27.2146 25.2846 27.0946 25.2346C27.0346 25.2146 26.9746 25.1846 26.9145 25.1546C26.7945 25.1046 26.6845 25.0545 26.5644 24.9945C26.3344 24.8845 26.1043 24.7545 25.8843 24.6244C25.7742 24.5544 25.6642 24.4944 25.5642 24.4244C25.4942 24.3844 25.4341 24.3343 25.3641 24.2943C25.2741 24.2343 25.1841 24.1643 25.0941 24.0943C24.994 24.0143 24.894 23.9442 24.794 23.8542C24.6939 23.7742 24.5939 23.6942 24.5039 23.6041C24.4139 23.5241 24.3138 23.4341 24.2238 23.3441C24.0838 23.214 23.9537 23.074 23.8237 22.934C23.6036 22.7039 23.4036 22.4538 23.2135 22.2038C23.0935 22.0537 22.9935 21.8937 22.8834 21.7336C22.7834 21.5836 22.6834 21.4235 22.5934 21.2635C22.5934 21.2535 22.5834 21.2435 22.5734 21.2335C21.9732 20.1732 21.5831 18.9929 21.4531 17.7325C21.313 16.2921 21.4731 14.912 21.9032 13.6516Z" fill="#003781"/>
<path d="M25.3637 21.4626C26.1739 22.3228 27.1742 22.963 28.2645 23.3431C28.4346 23.4031 28.6146 23.4531 28.7846 23.5032C28.9047 23.5332 29.0247 23.5632 29.1447 23.5832C29.6249 23.6832 30.115 23.7332 30.6152 23.7332H30.6552C34.4362 23.7332 37.587 20.7824 37.8369 16.9914C37.9069 15.9011 37.7469 14.8308 37.3568 13.8505C37.2367 13.5405 37.0867 13.2404 36.9267 12.9403C36.8766 12.8403 36.8166 12.7503 36.7566 12.6502C36.6666 12.5102 36.5666 12.3702 36.4665 12.2301C36.2965 12.0001 36.1164 11.78 35.9164 11.5699C35.5363 11.1598 35.1062 10.7997 34.646 10.4896C34.516 10.3996 34.376 10.3096 34.2359 10.2395C34.1459 10.1895 34.0559 10.1395 33.9558 10.0895C33.8858 10.0495 33.8058 10.0095 33.7358 9.97947C33.0456 9.64938 32.3054 9.42933 31.5452 9.32931C31.4352 9.31931 31.3251 9.3093 31.2151 9.2993H31.1851C31.005 9.2893 30.825 9.2793 30.6449 9.2793H30.6349C26.8439 9.2793 23.6729 12.2401 23.423 16.0314C23.323 17.5318 23.673 18.9822 24.4333 20.2325C24.6933 20.6726 25.0036 21.0825 25.3637 21.4626ZM24.8836 16.1312C24.9336 15.421 25.1036 14.7508 25.3837 14.1407L25.5037 13.9006C25.6038 13.7005 25.7138 13.5105 25.8438 13.3204C25.8938 13.2404 25.9439 13.1704 25.9939 13.1004C26.0739 12.9904 26.1539 12.8903 26.2439 12.7903C26.9641 11.9501 27.9144 11.3099 28.9947 10.9898C29.0847 10.9598 29.1647 10.9398 29.2548 10.9198C29.6949 10.8098 30.155 10.7497 30.6252 10.7497H30.6352C32.1956 10.7497 33.646 11.3599 34.7363 12.4702C34.7663 12.5102 34.8063 12.5403 34.8363 12.5803C35.2464 13.0204 35.5765 13.5005 35.8266 14.0306C35.8466 14.0707 35.8666 14.1107 35.8866 14.1507C35.9566 14.3107 36.0266 14.4808 36.0867 14.6508C36.0967 14.6908 36.1167 14.7308 36.1267 14.7809C36.1467 14.8509 36.1767 14.9309 36.1867 15.0009C36.1967 15.0209 36.1967 15.0409 36.2067 15.0609C36.2267 15.131 36.2467 15.201 36.2567 15.271C36.2567 15.291 36.2667 15.301 36.2667 15.321C36.2867 15.391 36.2967 15.461 36.3067 15.5311C36.3567 15.8512 36.3867 16.1712 36.3867 16.5013C36.3867 16.6314 36.3867 16.7714 36.3767 16.9014C36.3367 17.5116 36.1967 18.1018 35.9866 18.6419C35.8666 18.932 35.7266 19.2121 35.5665 19.4821C35.5465 19.5221 35.5165 19.5621 35.4965 19.5921C35.4465 19.6722 35.3965 19.7422 35.3465 19.8122C35.2964 19.8822 35.2464 19.9522 35.1864 20.0223C35.1364 20.0923 35.0764 20.1623 35.0164 20.2323C34.9263 20.3323 34.8363 20.4324 34.7463 20.5224C33.696 21.6027 32.2456 22.2629 30.6452 22.2629H30.6152C29.995 22.2629 29.3648 22.1528 28.7547 21.9428C28.2445 21.7727 27.7544 21.5227 27.3143 21.2126C27.2342 21.1525 27.1542 21.1025 27.0742 21.0325C27.0342 21.0025 26.9942 20.9725 26.9542 20.9425C26.8741 20.8825 26.8041 20.8124 26.7341 20.7524C26.6241 20.6524 26.514 20.5524 26.414 20.4423C25.3237 19.282 24.7736 17.7517 24.8836 16.1312Z" fill="#003781"/>
<path d="M27.1547 15.8528C27.2047 15.8928 27.2647 15.9329 27.3147 15.9729C27.6548 16.1929 28.045 16.323 28.4651 16.323C29.0152 16.323 29.5353 16.1029 29.9255 15.7228C30.3156 15.3327 30.5356 14.8126 30.5356 14.2624C30.5356 13.7122 30.3156 13.1921 29.9255 12.8019C29.1453 12.0217 27.7849 12.0217 27.0047 12.8019C26.6146 13.1921 26.3945 13.7122 26.3945 14.2624C26.3945 14.8126 26.6146 15.3326 27.0047 15.7228C27.0547 15.7628 27.1047 15.8028 27.1547 15.8528ZM28.045 13.8223C28.075 13.7923 28.105 13.7723 28.135 13.7423C28.165 13.7223 28.205 13.7023 28.235 13.6923C28.305 13.6623 28.385 13.6522 28.4651 13.6522C28.6251 13.6522 28.7752 13.7123 28.8852 13.8323C28.9952 13.9423 29.0652 14.0924 29.0652 14.2524C29.0652 14.4125 29.0052 14.5625 28.8852 14.6725C28.8152 14.7425 28.7251 14.7926 28.6351 14.8126C28.5251 14.8426 28.4051 14.8426 28.285 14.8126C28.195 14.7826 28.105 14.7325 28.035 14.6625C27.9249 14.5525 27.8549 14.4025 27.8549 14.2424C27.8649 14.0824 27.9249 13.9323 28.045 13.8223Z" fill="#003781"/>
</svg>
