<svg width="43" height="43" viewBox="0 0 43 43" fill="none" xmlns="http://www.w3.org/2000/svg">
<path fill-rule="evenodd" clip-rule="evenodd" d="M29.0109 3.8398V0.61807H0.61807V36.6593H5.854V27.5113L2.11812 21.0406C2.03027 20.8887 2.08289 20.6981 2.24783 20.61L2.72542 20.3342L2.00431 19.0852C1.91902 18.9379 1.96926 18.7492 2.11653 18.6639L3.50251 17.8637C3.65438 17.7759 3.84475 17.8284 3.93313 17.9934L4.64479 19.2261L5.14022 18.9401C5.2875 18.8554 5.47565 18.9063 5.56033 19.0536L5.854 19.5623V15.7066H3.68069C3.27383 15.7066 3.27383 15.0885 3.68069 15.0885H5.85409V13.6923H3.68069C3.27383 13.6923 3.27383 13.0742 3.68069 13.0742H5.85409V11.7959H3.68069C3.27383 11.7959 3.27383 11.1779 3.68069 11.1779H5.85409V4.14884C5.85409 3.97816 5.99245 3.8398 6.16312 3.8398H29.0109ZM10.8942 22.3383C10.4873 22.3383 10.4873 21.7202 10.8942 21.7202H26.5755C26.9824 21.7202 26.9824 22.3383 26.5755 22.3383H10.8942ZM10.8942 20.3781C10.4873 20.3781 10.4873 19.76 10.8942 19.76H26.5755C26.9824 19.76 26.9824 20.3781 26.5755 20.3781H10.8942ZM10.8942 18.4179C10.4873 18.4179 10.4873 17.7999 10.8942 17.7999H26.5755C26.9824 17.7999 26.9824 18.4179 26.5755 18.4179H10.8942ZM10.8942 16.4578C10.4873 16.4578 10.4873 15.8397 10.8942 15.8397H26.5755C26.9824 15.8397 26.9824 16.4578 26.5755 16.4578H10.8942ZM10.8942 14.4977C10.4873 14.4977 10.4873 13.8796 10.8942 13.8796H26.5755C26.9824 13.8796 26.9824 14.4977 26.5755 14.4977H10.8942ZM10.8942 12.5375C10.4873 12.5375 10.4873 11.9195 10.8942 11.9195H26.5755C26.9824 11.9195 26.9824 12.5375 26.5755 12.5375H10.8942ZM18.0717 25.3217C18.0717 24.9148 18.6898 24.9148 18.6898 25.3217V26.1121C19.5635 26.2602 20.2172 27.0205 20.2172 27.9227C20.2172 28.3296 19.5992 28.3296 19.5992 27.9227C19.5992 27.3624 19.2188 26.8821 18.6898 26.7439V29.1671C20.1473 29.414 20.7364 31.219 19.6793 32.2761C19.416 32.5394 19.0731 32.7232 18.6898 32.7881V33.5785C18.6898 33.9853 18.0717 33.9853 18.0717 33.5785V32.7881C17.198 32.64 16.5443 31.8798 16.5443 30.9776C16.5443 30.5707 17.1624 30.5707 17.1624 30.9776C17.1624 31.5379 17.5428 32.0181 18.0717 32.1564V29.7332C16.6143 29.4862 16.025 27.6812 17.0822 26.6241C17.3455 26.3608 17.6884 26.1771 18.0717 26.1121V25.3217ZM18.6898 29.7987C18.9021 29.8543 19.0918 29.9655 19.2424 30.1161C19.9099 30.7836 19.5932 31.9203 18.6898 32.1565V29.7987ZM18.0717 29.1015C17.8594 29.046 17.6697 28.9347 17.5192 28.7843C16.8515 28.1166 17.1686 26.9799 18.0717 26.7439V29.1015ZM13.1998 32.3902C13.2042 32.3306 13.1913 32.2691 13.1591 32.2136L6.47207 20.6327V4.45787H29.5012V9.51262C29.5012 9.6833 29.6395 9.82165 29.8102 9.82165H34.8649V18.8819H33.6179C33.4084 18.8819 33.2106 18.9414 33.0432 19.0596C32.7222 18.8783 32.3534 18.8764 32.0336 19.0611L29.8773 20.306C29.3337 20.5966 29.1724 21.3369 29.5895 21.8372L31.3849 23.99C30.205 24.5739 30.2278 26.2619 31.4227 26.8137L29.1181 29.1183C25.9979 32.2385 25.9507 37.3208 28.994 40.499H6.47207V28.5818L9.71685 34.2019L9.71711 34.2018L9.83163 34.3153L12.6842 35.8947L12.6843 35.8947C12.8845 36.0063 13.1378 35.8656 13.1417 35.6304L13.1998 32.3902ZM10.0965 33.6263L2.80577 20.9984L5.18092 19.6271L12.4717 32.255L10.0965 33.6263ZM12.5352 35.1082L10.6097 34.042L12.5747 32.9075L12.5352 35.1082ZM3.25943 20.0259L2.69222 19.0435L3.54472 18.5513L4.11193 19.5336L3.25943 20.0259ZM40.3138 32.6116C40.1707 32.2318 40.7477 32.0145 40.8908 32.3943C41.1014 32.9537 41.2382 33.5646 41.2853 34.1576C41.3174 34.5624 40.7018 34.6116 40.6696 34.2059C40.626 33.6565 40.5079 33.1271 40.3138 32.6116ZM40.3955 36.5167C40.5212 36.1301 41.1082 36.3219 40.9822 36.7074C40.416 38.4392 39.1223 39.8564 37.4482 40.5807C37.0782 40.7408 36.8339 40.1761 37.2043 40.0158C38.7126 39.3633 39.8823 38.0778 40.3955 36.5167ZM34.8723 30.3065C32.3253 30.3065 30.2606 32.3712 30.2606 34.9181C30.2606 37.4651 32.3253 39.5298 34.8723 39.5298C37.4192 39.5298 39.4839 37.4651 39.4839 34.9181C39.4839 32.3712 37.4192 30.3065 34.8723 30.3065ZM38.8658 34.9182C38.8658 32.7127 37.0778 30.9246 34.8722 30.9246C32.6666 30.9246 30.8786 32.7126 30.8786 34.9182C30.8786 37.1237 32.6666 38.9118 34.8722 38.9118C37.0778 38.9118 38.8658 37.1237 38.8658 34.9182ZM34.5632 32.0202V32.4995C34.306 32.5583 34.0759 32.6891 33.8956 32.8694C33.1251 33.6399 33.5138 34.9526 34.5632 35.1925V36.6883C34.2916 36.568 34.1091 36.2975 34.1091 35.9904C34.1091 35.5835 33.4911 35.5835 33.4911 35.9904C33.4911 36.6408 33.9432 37.1952 34.5632 37.3369V37.8161C34.5632 38.223 35.1813 38.223 35.1813 37.8161V37.3369C35.4386 37.2781 35.6686 37.1473 35.8489 36.967C36.6195 36.1964 36.2307 34.8838 35.1813 34.6439V33.148C35.4529 33.2684 35.6354 33.5387 35.6354 33.846C35.6354 34.2529 36.2535 34.2529 36.2535 33.846C36.2535 33.1956 35.8013 32.6412 35.1813 32.4995V32.0202C35.1812 31.6134 34.5632 31.6134 34.5632 32.0202ZM35.1812 35.2924C35.7848 35.5598 35.7848 36.4209 35.1812 36.6883V35.2924ZM34.5632 34.544V33.148C33.9597 33.4155 33.9597 34.2765 34.5632 34.544ZM32.1539 26.9567H37.5905L40.189 29.5553C43.1127 32.479 43.1128 37.2653 40.189 40.1891C37.2653 43.1128 32.479 43.1128 29.5552 40.1891C26.6314 37.2654 26.6315 32.479 29.5552 29.5553L32.1539 26.9567ZM38.3215 26.8137L40.6262 29.1183C43.7913 32.2835 43.7913 37.4609 40.6262 40.6261C39.0436 42.2086 36.9578 42.9999 34.8723 42.9999C33.0149 42.9999 31.1573 42.3723 29.6552 41.117H6.16312C5.99245 41.117 5.85409 40.9786 5.85409 40.808V37.2772H0.309035C0.138359 37.2772 0 37.1388 0 36.9682V0.309035C0 0.138359 0.138359 0 0.309035 0H29.32C29.4907 0 29.629 0.138359 29.629 0.309035V3.8398C29.7843 3.8398 29.9156 3.81755 30.0309 3.93242L35.3905 9.29197C35.4503 9.35113 35.4825 9.42777 35.4831 9.51253V18.8818H36.1265C36.2728 18.8818 36.4288 18.9137 36.554 18.9748L36.5543 18.9744C36.6053 18.9981 36.6543 19.0266 36.7011 19.0596C37.0221 18.8783 37.391 18.8764 37.7108 19.0611L39.8833 20.3153C40.4293 20.6305 40.5592 21.3523 40.1549 21.8372L38.3595 23.9901C39.5393 24.5739 39.5165 26.2619 38.3215 26.8137ZM37.6923 23.8291L39.6816 21.4437C39.8388 21.2551 39.7896 20.9719 39.5766 20.8489L37.4042 19.5947C37.3033 19.5365 37.1937 19.525 37.0837 19.5614C37.1401 19.721 37.1529 19.892 37.1228 20.0653L36.471 23.829L37.6923 23.8291ZM35.8446 23.8289L36.5145 19.9614C36.546 19.7793 36.4522 19.6083 36.2935 19.5345L36.2937 19.5341C36.2448 19.5116 36.1887 19.5 36.1264 19.5H33.618C33.3698 19.5 33.1876 19.7168 33.23 19.9614L33.8999 23.8289H35.8446ZM33.2735 23.8289L32.6216 20.0652C32.5916 19.8917 32.6044 19.721 32.6607 19.5614C32.5506 19.5249 32.4411 19.5365 32.3403 19.5946L30.169 20.8488C29.9511 20.9745 29.9075 21.2573 30.0629 21.4436L32.0522 23.829L33.2735 23.8289ZM37.6696 24.4469H32.0748C31.2456 24.4469 30.8063 25.4598 31.407 26.0606C31.5786 26.2322 31.815 26.3388 32.0748 26.3388H37.6696C38.4988 26.3388 38.9381 25.3259 38.3373 24.7251C38.1659 24.5535 37.9294 24.4469 37.6696 24.4469ZM15.0903 35.9346C14.6834 35.9346 14.6834 35.3165 15.0903 35.3165H21.6714C22.0782 35.3165 22.0782 35.9346 21.6714 35.9346H15.0903ZM34.4281 9.20358L30.1193 4.89485V9.20358H34.4281Z" fill="#003781"/>
</svg>
