<svg width="38" height="38" viewBox="0 0 38 38" fill="none" xmlns="http://www.w3.org/2000/svg">
<path fill-rule="evenodd" clip-rule="evenodd" d="M25.6376 3.39331V0.546201H0.546201V32.3966H5.1733V24.3123L1.87183 18.594C1.79419 18.4598 1.8407 18.2913 1.98645 18.2135L2.40851 17.9698L1.77125 16.866C1.69588 16.7358 1.74027 16.5691 1.87043 16.4937L3.09524 15.7865C3.22945 15.7089 3.39768 15.7553 3.47579 15.9012L4.1047 16.9905L4.54252 16.7378C4.67267 16.663 4.83895 16.7079 4.91378 16.8381L5.1733 17.2877V13.8802H3.2527C2.89315 13.8802 2.89315 13.334 3.2527 13.334H5.17338V12.1001H3.2527C2.89315 12.1001 2.89315 11.5539 3.2527 11.5539H5.17338V10.4243H3.2527C2.89315 10.4243 2.89315 9.87812 3.2527 9.87812H5.17338V3.66641C5.17338 3.51558 5.29565 3.39331 5.44648 3.39331H25.6376ZM9.62742 19.7408C9.26786 19.7408 9.26786 19.1946 9.62742 19.1946H23.4853C23.8449 19.1946 23.8449 19.7408 23.4853 19.7408H9.62742ZM9.62742 18.0086C9.26786 18.0086 9.26786 17.4624 9.62742 17.4624H23.4853C23.8449 17.4624 23.8449 18.0086 23.4853 18.0086H9.62742ZM9.62742 16.2763C9.26786 16.2763 9.26786 15.7301 9.62742 15.7301H23.4853C23.8449 15.7301 23.8449 16.2763 23.4853 16.2763H9.62742ZM9.62742 14.5441C9.26786 14.5441 9.26786 13.9979 9.62742 13.9979H23.4853C23.8449 13.9979 23.8449 14.5441 23.4853 14.5441H9.62742ZM9.62742 12.8119C9.26786 12.8119 9.26786 12.2657 9.62742 12.2657H23.4853C23.8449 12.2657 23.8449 12.8119 23.4853 12.8119H9.62742ZM9.62742 11.0797C9.26786 11.0797 9.26786 10.5335 9.62742 10.5335H23.4853C23.8449 10.5335 23.8449 11.0797 23.4853 11.0797H9.62742ZM15.9704 22.3773C15.9704 22.0178 16.5166 22.0178 16.5166 22.3773V23.0758C17.2887 23.2067 17.8664 23.8786 17.8664 24.6759C17.8664 25.0354 17.3202 25.0354 17.3202 24.6759C17.3202 24.1807 16.984 23.7563 16.5166 23.6341V25.7755C17.8046 25.9938 18.3252 27.5889 17.391 28.5231C17.1584 28.7558 16.8553 28.9181 16.5166 28.9755V29.674C16.5166 30.0336 15.9704 30.0336 15.9704 29.674V28.9755C15.1983 28.8446 14.6206 28.1728 14.6206 27.3755C14.6206 27.016 15.1668 27.016 15.1668 27.3755C15.1668 27.8707 15.5029 28.2951 15.9704 28.4173V26.2759C14.6824 26.0576 14.1617 24.4625 15.0959 23.5283C15.3286 23.2956 15.6316 23.1333 15.9704 23.0758V22.3773ZM16.5166 26.3338C16.7042 26.3828 16.8718 26.4812 17.0049 26.6142C17.5948 27.2041 17.3149 28.2086 16.5166 28.4174V26.3338ZM15.9704 25.7176C15.7827 25.6686 15.6151 25.5702 15.4821 25.4373C14.892 24.8472 15.1723 23.8427 15.9704 23.6341V25.7176ZM11.665 28.6239C11.6688 28.5712 11.6574 28.5169 11.6289 28.4678L5.7195 18.2335V3.93951H26.0708V8.4065C26.0708 8.55733 26.1931 8.6796 26.3439 8.6796H30.8109V16.6864H29.7088C29.5237 16.6864 29.3489 16.739 29.201 16.8434C28.9173 16.6832 28.5914 16.6814 28.3087 16.8447L26.4032 17.9448C25.9228 18.2017 25.7803 18.8559 26.1489 19.298L27.7355 21.2005C26.6928 21.7165 26.7129 23.2082 27.7689 23.6958L25.7323 25.7325C22.9749 28.4898 22.9332 32.9812 25.6226 35.7898H5.7195V25.2584L8.58698 30.225L8.58722 30.2249L8.68842 30.3252L11.2093 31.7209L11.2094 31.7209C11.3863 31.8195 11.6101 31.6952 11.6136 31.4873L11.665 28.6239ZM8.9225 29.7163L2.47952 18.5567L4.57849 17.3448L11.0215 28.5044L8.9225 29.7163ZM11.0777 31.0259L9.37601 30.0837L11.1125 29.0811L11.0777 31.0259ZM2.88043 17.6973L2.37917 16.8292L3.13254 16.3941L3.6338 17.2623L2.88043 17.6973ZM35.6261 28.8196C35.4997 28.4839 36.0096 28.2919 36.136 28.6276C36.3222 29.1219 36.4431 29.6618 36.4847 30.1858C36.5131 30.5435 35.9691 30.587 35.9406 30.2285C35.902 29.743 35.7977 29.2751 35.6261 28.8196ZM35.6984 32.2706C35.8094 31.929 36.3282 32.0984 36.2168 32.4391C35.7165 33.9696 34.5732 35.2219 33.0938 35.862C32.7668 36.0035 32.5508 35.5045 32.8783 35.3628C34.2111 34.7861 35.2448 33.6501 35.6984 32.2706ZM30.8174 26.7825C28.5665 26.7825 26.7419 28.6071 26.7419 30.8579C26.7419 33.1087 28.5665 34.9333 30.8174 34.9333C33.0681 34.9333 34.8927 33.1087 34.8927 30.8579C34.8927 28.6071 33.0681 26.7825 30.8174 26.7825ZM34.3465 30.8579C34.3465 28.9089 32.7664 27.3287 30.8173 27.3287C28.8681 27.3287 27.288 28.9088 27.288 30.8579C27.288 32.807 28.8681 34.3872 30.8173 34.3872C32.7664 34.3872 34.3465 32.807 34.3465 30.8579ZM30.5443 28.297V28.7205C30.3169 28.7725 30.1136 28.888 29.9543 29.0474C29.2733 29.7283 29.6169 30.8884 30.5443 31.1004V32.4223C30.3042 32.3159 30.143 32.0769 30.143 31.8054C30.143 31.4459 29.5968 31.4459 29.5968 31.8054C29.5968 32.3802 29.9963 32.8701 30.5443 32.9954V33.4189C30.5443 33.7785 31.0905 33.7785 31.0905 33.4189V32.9954C31.3178 32.9434 31.5211 32.8279 31.6804 32.6685C32.3614 31.9876 32.0178 30.8275 31.0905 30.6155V29.2936C31.3305 29.4 31.4918 29.6389 31.4918 29.9104C31.4918 30.27 32.038 30.27 32.038 29.9104C32.038 29.3357 31.6384 28.8457 31.0905 28.7205V28.297C31.0904 27.9374 30.5443 27.9374 30.5443 28.297ZM31.0904 31.1886C31.6238 31.425 31.6238 32.1859 31.0904 32.4223V31.1886ZM30.5443 30.5273V29.2936C30.0109 29.53 30.0109 30.2908 30.5443 30.5273ZM28.4151 23.8222H33.2195L35.5159 26.1186C38.0996 28.7024 38.0997 32.9321 35.5159 35.5159C32.9321 38.0997 28.7024 38.0997 26.1186 35.5159C23.5347 32.9322 23.5348 28.7024 26.1186 26.1186L28.4151 23.8222ZM33.8656 23.6958L35.9022 25.7325C38.6993 28.5296 38.6993 33.105 35.9022 35.9021C34.5037 37.3006 32.6604 37.9999 30.8174 37.9999C29.1759 37.9999 27.5344 37.4453 26.207 36.3359H5.44648C5.29565 36.3359 5.17338 36.2137 5.17338 36.0628V32.9426H0.2731C0.122271 32.9426 0 32.8204 0 32.6695V0.2731C0 0.122271 0.122271 0 0.2731 0H25.9107C26.0615 0 26.1838 0.122271 26.1838 0.2731V3.39331C26.321 3.39331 26.4371 3.37365 26.5389 3.47516L31.2753 8.21151C31.3281 8.26379 31.3566 8.33152 31.3572 8.40642V16.6863H31.9258C32.055 16.6863 32.1929 16.7145 32.3036 16.7684L32.3038 16.7681C32.3489 16.789 32.3922 16.8142 32.4336 16.8434C32.7172 16.6832 33.0432 16.6814 33.3258 16.8447L35.2457 17.9531C35.7283 18.2316 35.843 18.8694 35.4857 19.298L33.8991 21.2006C34.9417 21.7165 34.9216 23.2082 33.8656 23.6958ZM33.3094 21.0582L35.0674 18.9502C35.2064 18.7835 35.1629 18.5333 34.9747 18.4246L33.0548 17.3162C32.9657 17.2648 32.8689 17.2546 32.7717 17.2868C32.8214 17.4279 32.8328 17.5789 32.8062 17.7321L32.2301 21.0582L33.3094 21.0582ZM31.6766 21.0581L32.2686 17.6403C32.2965 17.4794 32.2136 17.3283 32.0733 17.2631L32.0735 17.2627C32.0303 17.2428 31.9807 17.2326 31.9257 17.2326H29.7089C29.4895 17.2326 29.3286 17.4241 29.366 17.6403L29.958 21.0581H31.6766ZM29.4045 21.0581L28.8284 17.732C28.8019 17.5787 28.8132 17.4279 28.863 17.2868C28.7657 17.2546 28.6688 17.2648 28.5798 17.3161L26.661 18.4245C26.4684 18.5356 26.4299 18.7855 26.5672 18.9501L28.3252 21.0582L29.4045 21.0581ZM33.2894 21.6043H28.3452C27.6124 21.6043 27.2241 22.4993 27.755 23.0303C27.9067 23.1819 28.1156 23.2761 28.3452 23.2761H33.2894C34.0222 23.2761 34.4104 22.3811 33.8795 21.8501C33.728 21.6985 33.519 21.6043 33.2894 21.6043ZM13.3356 31.7561C12.976 31.7561 12.976 31.2099 13.3356 31.2099H19.1514C19.511 31.2099 19.511 31.7561 19.1514 31.7561H13.3356ZM30.4248 8.1334L26.6171 4.32568V8.1334H30.4248Z" fill="#003781"/>
</svg>
