<svg width="41" height="41" viewBox="0 0 41 41" fill="none" xmlns="http://www.w3.org/2000/svg">
<path d="M14.0849 35.584C14.0505 35.2128 14.3255 34.8922 14.7036 34.8584C15.0817 34.8247 15.4083 35.0947 15.4427 35.4658C15.5028 36.1239 16.7317 36.4866 17.4364 35.9298C17.6083 35.7864 17.72 35.6093 17.72 35.4152C17.72 34.8584 17.084 34.7319 16.4567 34.6138C15.2622 34.386 14.0763 34.1582 14.0763 32.4879C14.0763 31.4586 14.8927 30.6741 15.8895 30.4379V30.0582C15.8895 29.6786 16.1903 29.3833 16.5942 29.3833C16.9809 29.3833 17.2903 29.6955 17.2817 30.0667L17.2731 30.4294C18.27 30.6656 19.0949 31.4502 19.0949 32.4879C19.0949 32.8591 18.7856 33.1628 18.4075 33.1628C18.0293 33.1628 17.72 32.8591 17.72 32.4879C17.72 31.7961 16.4481 31.3996 15.7263 31.9733C15.5544 32.1082 15.4427 32.2938 15.4427 32.4879C15.4427 33.0447 16.0786 33.1712 16.7059 33.2893C17.9004 33.5171 19.0864 33.7449 19.0864 35.4152C19.0864 36.4444 18.2614 37.229 17.2559 37.4737L17.2473 37.8533C17.2473 38.2245 16.938 38.5282 16.5598 38.5282C16.1817 38.5282 15.8724 38.2245 15.8724 37.8533V37.4568C14.9614 37.2375 14.1794 36.5372 14.0849 35.584ZM16.5856 26.8862C18.4848 26.8862 20.2035 27.6033 21.4926 28.7844H34.9759V26.8947H33.7212C33.3431 26.8947 33.0337 26.5909 33.0337 26.2198V20.8965C33.0337 20.5253 33.3431 20.2216 33.7212 20.2216H34.9759V14.2488H33.7212C33.3431 14.2488 33.0337 13.9451 33.0337 13.5739V8.25905C33.0337 7.88786 33.3431 7.58416 33.7212 7.58416H34.9759V5.69444H11.4467V24.3047C12.5466 24.8278 13.2169 25.5617 13.2169 26.4138V27.713C14.2224 27.1815 15.3653 26.8862 16.5856 26.8862ZM22.6355 30.1342C23.2113 31.02 23.598 32.0323 23.7269 33.129H39.625V1.34979H7.25299V23.4105C8.28422 23.4527 9.2467 23.5961 10.0717 23.8154V5.01955C10.0717 4.64835 10.3811 4.34465 10.7592 4.34465H35.6548C36.0329 4.34465 36.3423 4.64835 36.3423 5.01955V7.58416H37.5969C37.9751 7.58416 38.2844 7.88786 38.2844 8.25905V13.5739C38.2844 13.9451 37.9751 14.2488 37.5969 14.2488H36.3423V20.2216H37.5969C37.9751 20.2216 38.2844 20.5253 38.2844 20.8965V26.2198C38.2844 26.5909 37.9751 26.8947 37.5969 26.8947H36.3423V29.4593C36.3423 29.8305 36.0329 30.1342 35.6548 30.1342H22.6355ZM23.7527 34.4788C23.4777 38.1401 20.3582 41 16.5856 41C14.8239 41 13.2083 40.3757 11.9623 39.3465C10.5701 40.207 8.40453 40.536 6.60847 40.536C4.88975 40.536 3.31712 40.2576 2.16558 39.8021C0.824984 39.2706 0 38.4691 0 37.5243V26.4138C0 25.4605 0.833578 24.6591 2.16558 24.136C3.15385 23.7479 4.44288 23.4864 5.87801 23.4189V0.674897C5.87801 0.303704 6.18738 0 6.5655 0H40.3125C40.6906 0 41 0.303704 41 0.674897V33.8039C41 34.1751 40.6906 34.4788 40.3125 34.4788H37.5969V36.6469C37.5969 37.0181 37.2876 37.3218 36.9095 37.3218H31.633C31.2549 37.3218 30.9455 37.0181 30.9455 36.6469V34.4788H23.7527ZM10.974 38.351C10.51 37.7858 10.1404 37.1447 9.86544 36.4613C7.27017 37.094 3.4804 36.9422 1.36638 35.7105V37.5074C1.36638 37.8533 1.86481 38.216 2.67261 38.5366C4.57179 39.2874 7.53657 39.3634 9.642 38.8235C10.1662 38.6969 10.6131 38.5366 10.974 38.351ZM9.50451 35.1706C9.36701 34.4113 9.35842 33.6183 9.47873 32.8506C6.9608 33.3737 3.39447 33.1965 1.36638 32.0154V33.8123C1.36638 34.1582 1.86481 34.5294 2.67261 34.8416C4.51163 35.5755 7.39048 35.6683 9.50451 35.1706ZM9.89122 31.3658C10.3123 30.3113 10.9826 29.3833 11.842 28.6409V28.3119C9.28107 29.7967 3.92727 29.7967 1.37497 28.3119V30.1173C1.37497 30.4632 1.8734 30.8259 2.6812 31.1465C4.60616 31.9142 7.71704 31.9901 9.89122 31.3658ZM20.6934 29.9064C18.4246 27.6792 14.738 27.6792 12.4693 29.9064C10.2006 32.1335 10.2006 35.7527 12.4693 37.9798C14.738 40.207 18.4246 40.207 20.6934 37.9798C22.9621 35.7527 22.9621 32.1335 20.6934 29.9064ZM10.4584 25.3508C8.31 24.5325 4.79522 24.5409 2.67261 25.3846C1.86481 25.7051 1.36638 26.0679 1.36638 26.4138C1.36638 26.7597 1.86481 27.1224 2.67261 27.443C4.81241 28.2951 8.39594 28.2951 10.5357 27.443C11.3435 27.1224 11.842 26.7597 11.842 26.4138C11.842 26.0679 11.3521 25.7051 10.5529 25.3846C10.5185 25.3761 10.4928 25.3677 10.4584 25.3508ZM32.3119 34.4788V35.972H36.2134V34.4788H32.3119ZM36.9095 8.93395H34.3915V12.9074H36.9095V8.93395ZM36.9095 21.5714H34.3915V25.5449H36.9095V21.5714ZM16.1388 25.5702C15.7606 25.5702 15.4513 25.2665 15.4513 24.8953C15.4513 24.5241 15.7606 24.2204 16.1388 24.2204H17.9778C18.3559 24.2204 18.6653 24.5241 18.6653 24.8953C18.6653 25.2665 18.3559 25.5702 17.9778 25.5702H16.1388ZM27.0956 25.5702C26.7175 25.5702 26.4081 25.2665 26.4081 24.8953C26.4081 24.5241 26.7175 24.2204 27.0956 24.2204H28.9346C29.3127 24.2204 29.6221 24.5241 29.6221 24.8953C29.6221 25.2665 29.3127 25.5702 28.9346 25.5702H27.0956ZM21.6215 25.5702C21.2433 25.5702 20.934 25.2665 20.934 24.8953C20.934 24.5241 21.2433 24.2204 21.6215 24.2204H23.4605C23.8386 24.2204 24.148 24.5241 24.148 24.8953C24.148 25.2665 23.8386 25.5702 23.4605 25.5702H21.6215ZM16.1388 21.8245C15.7606 21.8245 15.4513 21.5208 15.4513 21.1496C15.4513 20.7784 15.7606 20.4747 16.1388 20.4747H17.9778C18.3559 20.4747 18.6653 20.7784 18.6653 21.1496C18.6653 21.5208 18.3559 21.8245 17.9778 21.8245H16.1388ZM27.0956 21.8245C26.7175 21.8245 26.4081 21.5208 26.4081 21.1496C26.4081 20.7784 26.7175 20.4747 27.0956 20.4747H28.9346C29.3127 20.4747 29.6221 20.7784 29.6221 21.1496C29.6221 21.5208 29.3127 21.8245 28.9346 21.8245H27.0956ZM21.6215 21.8245C21.2433 21.8245 20.934 21.5208 20.934 21.1496C20.934 20.7784 21.2433 20.4747 21.6215 20.4747H23.4605C23.8386 20.4747 24.148 20.7784 24.148 21.1496C24.148 21.5208 23.8386 21.8245 23.4605 21.8245H21.6215ZM16.1388 18.0872C15.7606 18.0872 15.4513 17.7835 15.4513 17.4123C15.4513 17.0412 15.7606 16.7374 16.1388 16.7374H17.9778C18.3559 16.7374 18.6653 17.0412 18.6653 17.4123C18.6653 17.7835 18.3559 18.0872 17.9778 18.0872H16.1388ZM27.0956 18.0872C26.7175 18.0872 26.4081 17.7835 26.4081 17.4123C26.4081 17.0412 26.7175 16.7374 27.0956 16.7374H28.9346C29.3127 16.7374 29.6221 17.0412 29.6221 17.4123C29.6221 17.7835 29.3127 18.0872 28.9346 18.0872H27.0956ZM21.6215 18.0872C21.2433 18.0872 20.934 17.7835 20.934 17.4123C20.934 17.0412 21.2433 16.7374 21.6215 16.7374H23.4605C23.8386 16.7374 24.148 17.0412 24.148 17.4123C24.148 17.7835 23.8386 18.0872 23.4605 18.0872H21.6215ZM15.7864 8.52058H29.2869C29.6651 8.52058 29.9744 8.82428 29.9744 9.19547V13.1521C29.9744 13.5233 29.6651 13.827 29.2869 13.827H15.7864C15.4083 13.827 15.0989 13.5233 15.0989 13.1521V9.19547C15.0989 8.81584 15.4083 8.52058 15.7864 8.52058ZM28.5995 9.87037H16.4739V12.4772H28.5995V9.87037Z" fill="#003781"/>
</svg>
