<svg width="45" height="46" viewBox="0 0 45 46" fill="none" xmlns="http://www.w3.org/2000/svg">
<path d="M18.9952 12.4932C19.7582 12.4932 20.504 12.2669 21.1384 11.843C21.7728 11.4191 22.2673 10.8166 22.5592 10.1117C22.8512 9.40674 22.9276 8.63107 22.7787 7.88275C22.6298 7.13442 22.2623 6.44705 21.7228 5.90757C21.1832 5.36809 20.4958 5.00072 19.7475 4.85192C18.9991 4.70313 18.2235 4.77959 17.5186 5.07164C16.8137 5.3637 16.2113 5.85822 15.7874 6.49267C15.3636 7.12712 15.1374 7.87301 15.1375 8.636C15.1387 9.65872 15.5455 10.6392 16.2687 11.3623C16.9919 12.0855 17.9725 12.4922 18.9952 12.4932ZM18.9952 6.00576C19.5154 6.00576 20.0239 6.16002 20.4565 6.44903C20.889 6.73805 21.2261 7.14884 21.4252 7.62945C21.6243 8.11007 21.6764 8.63892 21.5749 9.14914C21.4734 9.65936 21.2229 10.128 20.8551 10.4959C20.4872 10.8637 20.0185 11.1142 19.5083 11.2157C18.9981 11.3172 18.4692 11.2651 17.9886 11.066C17.508 10.867 17.0972 10.5298 16.8082 10.0973C16.5192 9.66475 16.3649 9.15622 16.3649 8.636C16.3657 7.93865 16.6431 7.27009 17.1362 6.77699C17.6293 6.28389 18.2978 6.00653 18.9952 6.00576ZM12.6318 20.5395H19.7351C22.0461 22.5424 25.0018 23.6451 28.06 23.6451C31.1182 23.6451 34.0739 22.5424 36.3849 20.5395H43.4882C43.5688 20.5395 43.6487 20.5237 43.7232 20.4929C43.7976 20.4621 43.8653 20.4169 43.9223 20.36C43.9794 20.303 44.0246 20.2353 44.0555 20.1609C44.0863 20.0864 44.1022 20.0066 44.1022 19.926C44.1017 18.788 43.8229 17.6673 43.2902 16.6617C42.7575 15.6561 41.987 14.7959 41.0458 14.1562C40.1046 13.5165 39.0213 13.1166 37.8902 12.9913C36.7591 12.8661 35.6145 13.0193 34.5562 13.4376C33.9355 12.6994 33.1413 12.1268 32.2448 11.7712C32.1308 11.7273 32.0063 11.7185 31.8873 11.7458C31.7683 11.7731 31.6601 11.8352 31.5766 11.9243C31.1394 12.438 30.602 12.857 29.9973 13.1558C29.3925 13.4545 28.7332 13.6266 28.0595 13.6615C27.386 13.6265 26.7267 13.4545 26.122 13.1557C25.5174 12.857 24.98 12.438 24.543 11.9243C24.4594 11.8352 24.3511 11.7731 24.232 11.7458C24.1129 11.7185 23.9884 11.7274 23.8743 11.7712C22.9789 12.1271 22.1859 12.6997 21.5663 13.4376C20.508 13.0193 19.3634 12.8661 18.2323 12.9913C17.1012 13.1166 16.0179 13.5165 15.0767 14.1562C14.1355 14.7959 13.365 15.6561 12.8323 16.6617C12.2996 17.6673 12.0208 18.788 12.0203 19.926C12.0203 20.0884 12.0847 20.2441 12.1993 20.3591C12.3139 20.4741 12.4695 20.5389 12.6318 20.5395ZM37.1254 14.1766C38.5438 14.1781 39.9117 14.7031 40.9669 15.651C42.0221 16.5989 42.6902 17.9029 42.8433 19.313H37.3313C37.3279 19.2744 37.3206 19.2363 37.3095 19.1991C36.8554 17.542 36.1862 15.9515 35.3189 14.4683C35.9015 14.2747 36.5114 14.1762 37.1254 14.1766ZM23.9552 13.0761C25.0315 14.1969 26.5062 14.8482 28.0595 14.8889C29.6131 14.8484 31.0879 14.197 32.1643 13.0761C34.1283 14.0603 35.1939 16.565 36.0259 19.205C35.1439 20.058 34.1307 20.7639 33.0249 21.2959V17.6873C33.0272 17.6052 33.0131 17.5236 32.9833 17.4471C32.9535 17.3706 32.9086 17.3009 32.8514 17.242C32.7942 17.1832 32.7258 17.1364 32.6502 17.1045C32.5745 17.0725 32.4933 17.0561 32.4112 17.0561C32.3291 17.0561 32.2479 17.0725 32.1723 17.1045C32.0967 17.1364 32.0283 17.1832 31.971 17.242C31.9138 17.3009 31.869 17.3706 31.8392 17.4471C31.8094 17.5236 31.7952 17.6052 31.7975 17.6873V21.7989C29.3737 22.6233 26.7454 22.6233 24.3216 21.7989V17.6873C24.3239 17.6052 24.3097 17.5236 24.2799 17.4471C24.2501 17.3706 24.2053 17.3009 24.1481 17.242C24.0908 17.1832 24.0224 17.1364 23.9468 17.1045C23.8712 17.0725 23.7899 17.0561 23.7079 17.0561C23.6258 17.0561 23.5445 17.0725 23.4689 17.1045C23.3933 17.1364 23.3249 17.1832 23.2677 17.242C23.2105 17.3009 23.1656 17.3706 23.1358 17.4471C23.106 17.5236 23.0919 17.6052 23.0942 17.6873V21.2954C21.9885 20.7633 20.9753 20.0574 20.0932 19.2045C20.9257 16.5626 21.9918 14.0603 23.9552 13.0761ZM18.9952 14.1766C19.609 14.1759 20.219 14.2741 20.8017 14.4673C19.934 15.9504 19.2646 17.541 18.8106 19.1982C18.7997 19.2354 18.7924 19.2735 18.7888 19.312H13.2802C13.4334 17.9026 14.1012 16.5992 15.1558 15.6516C16.2103 14.704 17.5774 14.1788 18.9952 14.1766ZM37.1254 12.4932C37.8884 12.4932 38.6342 12.2669 39.2686 11.843C39.903 11.4191 40.3975 10.8166 40.6894 10.1117C40.9814 9.40674 41.0578 8.63107 40.9089 7.88275C40.76 7.13442 40.3925 6.44705 39.853 5.90757C39.3134 5.36809 38.626 5.00072 37.8777 4.85192C37.1293 4.70313 36.3537 4.77959 35.6488 5.07164C34.9439 5.3637 34.3414 5.85822 33.9176 6.49267C33.4938 7.12712 33.2676 7.87301 33.2677 8.636C33.2689 9.65872 33.6757 10.6392 34.3989 11.3623C35.1221 12.0855 36.1026 12.4922 37.1254 12.4932ZM37.1254 6.00576C37.6456 6.00566 38.1542 6.15984 38.5868 6.4488C39.0194 6.73776 39.3566 7.14851 39.5557 7.62912C39.7549 8.10972 39.807 8.63859 39.7056 9.14884C39.6042 9.65909 39.3537 10.1278 38.9859 10.4957C38.6181 10.8636 38.1494 11.1141 37.6392 11.2157C37.1289 11.3172 36.6001 11.2651 36.1194 11.0661C35.6388 10.867 35.228 10.5299 34.9389 10.0973C34.6499 9.66479 34.4956 9.15624 34.4956 8.636C34.4964 7.93874 34.7737 7.27025 35.2667 6.77716C35.7597 6.28407 36.4281 6.00666 37.1254 6.00576ZM28.0595 11.1267C30.7135 11.1267 32.7114 7.19877 32.7114 4.65187C32.7114 3.41812 32.2213 2.2349 31.3489 1.3625C30.4765 0.490106 29.2933 0 28.0595 0C26.8258 0 25.6426 0.490106 24.7702 1.3625C23.8978 2.2349 23.4077 3.41812 23.4077 4.65187C23.4077 7.19877 25.406 11.1267 28.0595 11.1267ZM28.0595 1.2279C28.9675 1.2288 29.838 1.58988 30.48 2.23189C31.122 2.87391 31.4831 3.74441 31.484 4.65235C31.484 6.62601 29.8258 9.89976 28.06 9.89976C26.2943 9.89976 24.6361 6.62552 24.6361 4.65235C24.637 3.74458 24.9979 2.87422 25.6397 2.23223C26.2815 1.59025 27.1518 1.22905 28.0595 1.2279ZM39.3156 27.7339C39.304 27.7397 39.2924 27.7455 39.2812 27.7518C35.3397 29.9634 33.3273 31.3144 31.8581 32.3009C30.5845 33.2589 29.1648 34.005 27.6535 34.5106C26.9706 34.5772 26.2822 34.5609 25.6033 34.4621C24.9665 34.4069 24.2814 34.3478 23.6078 34.3337L30.5454 32.0494C32.7744 31.3153 33.4688 29.6339 33.1669 28.2926C32.8694 26.9697 31.4884 25.6783 29.1581 25.97C27.9187 26.1104 26.6926 26.3495 25.4913 26.6853C24.1907 27.04 23.65 27.1868 19.3736 26.5399C15.2499 25.9153 11.9646 26.6853 8.75284 29.0398C8.61146 28.8274 8.42119 28.6521 8.198 28.5286C8.01593 28.4264 7.81529 28.3616 7.60786 28.338C7.40042 28.3144 7.19036 28.3324 6.98997 28.3909L6.40849 28.5605C6.33998 28.4987 6.26639 28.4428 6.18849 28.3934C5.97748 28.2625 5.74169 28.1768 5.49595 28.1414C5.2502 28.1061 4.9998 28.1219 4.76046 28.1879L1.25751 29.175C0.816719 29.2997 0.443492 29.5944 0.219872 29.9942C-0.00374814 30.394 -0.0594597 30.8662 0.064984 31.3071L3.59168 43.8056C3.65232 44.0249 3.75592 44.2299 3.89645 44.4088C4.03698 44.5877 4.21166 44.737 4.41033 44.8478C4.609 44.9587 4.82772 45.029 5.05377 45.0546C5.27983 45.0802 5.50873 45.0607 5.72718 44.9972L7.94021 44.3546C8.25221 44.2625 8.53143 44.0832 8.74508 43.8379C8.95872 43.5926 9.09792 43.2914 9.14631 42.9697L10.9634 42.457C11.3459 42.3484 11.674 42.1009 11.8835 41.763C12.093 41.425 12.1687 41.0211 12.0959 40.6302C12.2306 40.6462 12.3643 40.6641 12.4971 40.685L12.5136 40.6874C13.0393 40.7567 13.6102 41.1889 14.3331 41.736C15.8148 42.9787 17.5759 43.8434 19.4652 44.2558C20.3092 44.4215 21.1676 44.5026 22.0276 44.498C24.7438 44.4163 27.4275 43.8841 29.9692 42.9232C30.0039 42.9115 30.0373 42.8966 30.0691 42.8786C31.6323 41.9972 34.7694 39.1852 37.8028 36.4663C39.7009 34.765 41.4933 33.1581 42.5957 32.3082C43.9292 31.2804 44.3648 29.581 43.6089 28.3561C43.0187 27.401 41.5403 26.6635 39.3161 27.7344L39.3156 27.7339ZM7.59811 43.1757L5.38459 43.8187C5.32298 43.8364 5.25845 43.8416 5.19479 43.834C5.13113 43.8265 5.06963 43.8063 5.01389 43.7746C4.95543 43.7428 4.90388 43.6997 4.86228 43.6478C4.82067 43.5959 4.78985 43.5362 4.77161 43.4722L1.24443 30.9703C1.20861 30.8428 1.22482 30.7063 1.2895 30.5908C1.35417 30.4752 1.46204 30.3901 1.58944 30.3539L5.09094 29.3683C5.16491 29.3485 5.24214 29.3439 5.31794 29.3548C5.39374 29.3657 5.46654 29.3919 5.5319 29.4318C5.57277 29.4552 5.60825 29.4869 5.63605 29.5249C5.66386 29.5628 5.68335 29.6063 5.69326 29.6523L7.93343 42.4973C7.97123 42.6318 7.95789 42.7755 7.89597 42.9008C7.83405 43.0261 7.72794 43.124 7.59811 43.1757ZM10.6301 41.2757L9.04455 41.7229L6.94442 29.6818L7.33208 29.5689C7.37707 29.5563 7.42411 29.5527 7.47051 29.5582C7.51691 29.5638 7.56175 29.5785 7.60247 29.6014C7.64519 29.6248 7.68284 29.6565 7.7132 29.6946C7.74357 29.7327 7.76605 29.7765 7.77934 29.8233L10.883 40.8231C10.9084 40.9166 10.8961 41.0163 10.8488 41.1009C10.8015 41.1855 10.723 41.2482 10.6301 41.2757ZM41.8465 31.3376C40.7078 32.2157 38.8989 33.837 36.9839 35.5534C34.168 38.078 30.981 40.935 29.5133 41.7845C20.5356 44.893 17.2502 42.4047 15.0731 40.7576C14.2425 40.1277 13.5254 39.586 12.6817 39.4716C12.3735 39.4231 12.0595 39.3868 11.7446 39.3616L9.17393 30.2488C9.22238 30.2153 9.27084 30.1819 9.31591 30.1485C12.3387 27.8792 15.2916 27.1626 19.1895 27.7528C23.7241 28.4394 24.3361 28.2727 25.8141 27.8695C26.9593 27.5482 28.1287 27.32 29.3107 27.1873C30.8894 26.9896 31.782 27.7353 31.97 28.5615C32.1367 29.3029 31.7636 30.3544 30.1621 30.8831L21.2916 33.8036C21.074 33.8753 20.8036 34.0459 20.3021 34.796C19.7812 35.5766 19.7812 35.737 19.7807 35.8543C19.7807 35.9838 19.8213 36.11 19.8969 36.2152C19.9724 36.3204 20.079 36.3992 20.2018 36.4406C20.3339 36.4836 20.4765 36.4818 20.6074 36.4353C20.7383 36.3889 20.8503 36.3004 20.9257 36.1838C21.5557 35.344 23.93 35.549 25.4986 35.6842C26.618 35.7811 27.5023 35.8572 28.045 35.675C29.6603 35.1352 31.1788 34.3403 32.5428 33.3205C33.9926 32.347 35.9774 31.013 39.8656 28.8324C41.1017 28.2422 42.1353 28.3066 42.5642 29.0025C42.9257 29.5878 42.7968 30.6054 41.8465 31.3376ZM6.59844 41.4482C6.61922 41.5261 6.62442 41.6075 6.61374 41.6875C6.60306 41.7675 6.57671 41.8446 6.53621 41.9144C6.4957 41.9842 6.44183 42.0453 6.37768 42.0943C6.31352 42.1432 6.24034 42.1791 6.16233 42.1997C6.11031 42.2135 6.05672 42.2205 6.0029 42.2206C5.86784 42.2204 5.73661 42.1757 5.62948 42.0935C5.52236 42.0112 5.44532 41.896 5.41027 41.7656L4.94315 40.0211C4.92028 39.9426 4.91331 39.8604 4.92265 39.7792C4.93199 39.698 4.95746 39.6194 4.99755 39.5482C5.03764 39.477 5.09156 39.4144 5.15613 39.3643C5.22071 39.3142 5.29464 39.2775 5.3736 39.2563C5.45256 39.2351 5.53494 39.23 5.61593 39.2411C5.69692 39.2522 5.77487 39.2793 5.84522 39.3209C5.91558 39.3626 5.9769 39.4178 6.02562 39.4835C6.07433 39.5491 6.10944 39.6238 6.12889 39.7032L6.59844 41.4482ZM4.99403 38.454C4.8591 38.4538 4.72798 38.4092 4.62094 38.3271C4.51391 38.2449 4.43692 38.1298 4.40188 37.9995L4.35343 37.8245C4.31523 37.6686 4.33961 37.504 4.42136 37.3658C4.50311 37.2276 4.63571 37.127 4.79076 37.0854C4.94582 37.0439 5.11098 37.0647 5.25087 37.1434C5.39076 37.2222 5.49425 37.3526 5.53917 37.5067L5.58763 37.6811C5.60854 37.7591 5.61385 37.8405 5.60323 37.9206C5.59262 38.0007 5.5663 38.0779 5.52578 38.1477C5.48526 38.2176 5.43134 38.2788 5.36711 38.3278C5.30288 38.3768 5.22962 38.4126 5.15151 38.4332C5.10012 38.4468 5.0472 38.4538 4.99403 38.454Z" fill="#003781"/>
</svg>
