<svg width="44" height="44" viewBox="0 0 44 44" fill="none" xmlns="http://www.w3.org/2000/svg">
<path d="M8.72285 9.8926C7.26367 11.8407 6.0031 13.5217 6.01032 16.5785C6.01393 18.6675 6.79048 20.5398 8.25332 21.9934C9.82628 23.5569 12.2047 24.5626 14.3107 24.5626H14.3739C16.1762 24.5626 18.1645 23.8458 19.6998 22.6434C20.8755 21.7226 22.2589 20.1482 22.6002 17.7106V22.385C22.6002 22.5999 22.7121 22.7985 22.8963 22.9086C25.0418 24.196 27.5736 24.8766 30.2177 24.8766C32.8617 24.8766 35.3934 24.1959 37.539 22.9086C37.7232 22.7985 37.8352 22.5999 37.8352 22.385V17.4957L40.6723 16.7356V18.821L39.381 20.1119C39.2673 20.2257 39.2022 20.3828 39.2022 20.5434V24.9742C39.2022 25.2847 39.3882 25.5628 39.6754 25.6819C39.7711 25.7216 39.8704 25.7415 39.9697 25.7415C40.1684 25.7415 40.3634 25.6639 40.5115 25.5176L41.2845 24.7449L42.0575 25.5176C42.2778 25.7379 42.6047 25.8029 42.8918 25.6837C43.179 25.5646 43.3649 25.2865 43.3649 24.976V20.5453C43.3649 20.3828 43.2999 20.2275 43.1862 20.1137L41.8949 18.8228V16.286C42.1152 16.0874 42.2471 15.8003 42.2471 15.4843C42.2471 14.986 41.9238 14.5653 41.4434 14.4353L30.9598 11.6278C30.4541 11.4923 29.9828 11.4923 29.4771 11.6278L22.1881 13.5795C21.6933 12.2001 20.8861 11.1204 19.9668 9.89445C19.779 9.64168 19.584 9.38167 19.3871 9.11447C19.1289 8.76058 18.811 8.3146 18.4769 7.79642C18.811 7.52739 19.0259 7.11571 19.0259 6.6535C19.0259 6.09921 18.7171 5.61712 18.262 5.36799C19.5912 3.19235 19.956 1.60168 19.3149 0.738451C18.9284 0.220263 18.262 0.0613995 17.4873 0.303318C16.9238 0.478455 16.568 0.772743 16.308 0.985823L16.2863 1.00388C16.1743 1.09596 16.1021 1.14651 16.0569 1.17179C16.0461 1.15915 16.0335 1.1411 16.019 1.12124C15.4881 0.366536 14.9409 0 14.3467 0C13.7525 0 13.2053 0.366522 12.6744 1.12124C12.6599 1.14291 12.6473 1.15916 12.6365 1.17179C12.5913 1.14471 12.5191 1.09596 12.4071 1.00388L12.3854 0.985823C12.1254 0.770968 11.7696 0.478451 11.2062 0.303318C10.4314 0.0613764 9.765 0.220263 9.37855 0.738451C8.73564 1.59969 9.10043 3.19216 10.4314 5.36799C9.9763 5.61715 9.6675 6.10101 9.6675 6.6535C9.6675 7.11571 9.88241 7.52736 10.2165 7.79642C9.95103 8.20807 9.65848 8.63238 9.30629 9.11447C9.10944 9.38168 8.9144 9.64347 8.72658 9.89445L8.72285 9.8926ZM36.6138 22.0331C34.723 23.0948 32.5179 23.6563 30.2171 23.6563C27.9163 23.6563 25.7131 23.0966 23.8204 22.0331V17.8226L29.4746 19.3374C29.7275 19.406 29.9713 19.4385 30.2169 19.4385C30.4607 19.4385 30.7045 19.4042 30.9574 19.3374L36.6116 17.8226V22.0331H36.6138ZM42.1437 23.8748L41.7175 23.4487C41.5983 23.3295 41.4411 23.2699 41.2858 23.2699C41.1287 23.2699 40.9734 23.3295 40.8542 23.4487L40.428 23.8748V20.7982L41.2876 19.9387L42.1473 20.7982V23.8748H42.1437ZM29.7927 12.8052C30.0907 12.7257 30.3453 12.7257 30.6433 12.8052L40.6336 15.481L30.6433 18.1568C30.3453 18.2363 30.0907 18.2363 29.7927 18.1568L19.8024 15.481L29.7927 12.8052ZM11.1302 6.89394C10.9983 6.89394 10.8864 6.78199 10.8864 6.65019C10.8864 6.51839 10.9983 6.40645 11.1302 6.40645H17.5592C17.691 6.40645 17.803 6.51839 17.803 6.65019C17.803 6.78199 17.691 6.89394 17.5592 6.89394H11.1302ZM10.3554 1.46477C10.4078 1.39255 10.6082 1.39436 10.8394 1.46658C11.1735 1.57129 11.383 1.74282 11.6051 1.92518L11.6286 1.94323C11.8399 2.11656 12.2787 2.4795 12.8097 2.40725C13.1402 2.36211 13.4291 2.16531 13.6729 1.82047C13.9872 1.37631 14.2255 1.21742 14.3465 1.21742C14.4675 1.21742 14.7059 1.37631 15.0201 1.82047C15.2621 2.16532 15.5529 2.36214 15.8834 2.40725C16.4143 2.47947 16.8532 2.11656 17.0645 1.94323L17.088 1.92518C17.3101 1.74282 17.5196 1.56949 17.8536 1.46658C18.0866 1.39435 18.2853 1.39435 18.3377 1.46477C18.493 1.67241 18.5255 2.73946 16.9344 5.18416H11.762C10.1709 2.73946 10.2034 1.6724 10.3587 1.46477H10.3554ZM10.2904 9.83177C10.7527 9.19803 11.1211 8.65636 11.4552 8.11654H17.2361C17.5702 8.65641 17.9386 9.19803 18.4009 9.83177C18.6014 10.1062 18.7982 10.3698 18.9896 10.6244C19.824 11.7384 20.559 12.7206 21.0033 13.896L18.995 14.434C18.5146 14.5622 18.1914 14.9847 18.1914 15.483C18.1914 15.9813 18.5146 16.4021 18.995 16.532L21.4312 17.1838C21.0701 21.2138 17.1891 23.3424 14.3702 23.3424H14.3178C12.5119 23.3424 10.473 22.4739 9.1167 21.1288C7.88868 19.9083 7.23852 18.3356 7.23491 16.5789C7.2295 13.9301 8.26793 12.5453 9.70362 10.6278C9.89505 10.3733 10.0919 10.1097 10.2923 9.83524L10.2904 9.83177ZM15.768 17.3825C15.7915 17.1893 15.759 16.9781 15.3689 16.7488C15.0257 16.5465 14.6086 16.4472 14.1679 16.3425C13.9909 16.301 13.8085 16.2577 13.6225 16.2053C13.0789 16.0536 12.4035 15.7972 12.0044 15.1599C11.5727 14.4702 11.6703 13.6306 12.2536 13.024C12.6003 12.6629 13.1313 12.4173 13.7326 12.3198V11.6825C13.7326 11.3448 14.0072 11.0722 14.3431 11.0722C14.6808 11.0722 14.9535 11.3467 14.9535 11.6825V12.3252C15.8059 12.4661 16.4723 12.8831 16.7937 13.4754C16.9545 13.7733 16.8425 14.1434 16.5463 14.3023C16.2501 14.463 15.8781 14.3511 15.7192 14.055C15.5783 13.7913 15.1792 13.5855 14.6807 13.5187C14.0613 13.4338 13.413 13.5819 13.1348 13.8708C12.9434 14.0694 12.9091 14.3041 13.0391 14.5135C13.1782 14.7374 13.4509 14.8909 13.9493 15.0299C14.1119 15.0751 14.2762 15.1148 14.4496 15.1563C14.9589 15.2773 15.4844 15.4019 15.9864 15.698C16.7178 16.1277 17.0718 16.7795 16.9797 17.5324C16.902 18.1643 16.5065 18.7168 15.9178 19.0093C15.6324 19.152 15.302 19.2458 14.9552 19.2928V19.9157C14.9552 20.2533 14.6807 20.526 14.3448 20.526C14.0071 20.526 13.7344 20.2515 13.7344 19.9157V19.2693C12.9037 19.1267 12.138 18.7223 11.7713 18.0542C11.6088 17.7581 11.7172 17.3862 12.0133 17.2255C12.3095 17.063 12.6815 17.1713 12.8423 17.4674C13.1655 18.056 14.5832 18.307 15.3724 17.9152C15.591 17.8069 15.7372 17.6083 15.7661 17.3844L15.768 17.3825ZM43.5216 27.4033C42.8968 26.6956 41.6308 26.3471 40.2095 27.1686C38.3963 28.214 33.878 30.4167 30.5151 31.6878C30.6686 31.0523 30.5711 30.3806 30.2207 29.7902C29.7349 28.9741 28.8807 28.5065 27.9362 28.5372C23.7825 28.5354 20.9778 27.3726 18.724 26.4373C16.5785 25.5472 14.7256 24.7781 12.5386 25.3089C10.3227 25.8451 7.96051 27.6885 4.90655 31.2691C4.12818 30.8809 3.15842 31.0091 2.51006 31.6573L0.586705 33.5802C-0.19166 34.3584 -0.19166 35.6241 0.586705 36.4023L7.6029 43.4168C7.97854 43.7924 8.48058 44 9.01336 44C9.54614 44 10.0482 43.7924 10.4238 43.4168L12.3472 41.4939C12.954 40.8873 13.1056 39.9953 12.8023 39.246C14.6714 38.4534 16.7519 38.3848 19.4139 38.5437C20.0081 38.5798 20.6311 38.6286 21.2903 38.6827C22.8543 38.8091 24.4724 38.9391 26.0328 38.9048C29.3088 38.8326 31.2811 37.9118 33.9177 36.5161C36.6068 35.0915 42.3408 31.6933 43.4078 30.2887C44.1537 29.3083 44.1988 28.178 43.5216 27.4088L43.5216 27.4033ZM11.4841 40.6268L9.56076 42.5497C9.41628 42.6941 9.22124 42.7754 9.01355 42.7754C8.80587 42.7754 8.61263 42.6959 8.46635 42.5497L1.45015 35.5351C1.14856 35.2336 1.14856 34.7425 1.45015 34.441L3.3735 32.5181C3.70579 32.1841 4.24937 32.1841 4.58169 32.5181L11.4842 39.4189C11.8164 39.7512 11.8164 40.2946 11.4841 40.6268ZM42.4361 29.5443C41.6776 30.5391 36.8429 33.5796 33.3469 35.432C30.8655 36.7464 29.0144 37.6131 26.0075 37.678C24.5086 37.7105 22.9229 37.5842 21.3897 37.4596C20.7233 37.4054 20.0948 37.3549 19.488 37.3188C17.1421 37.1779 14.4584 37.1292 12.0386 38.245L5.84258 32.0504C11.9106 24.9346 14.1787 25.8738 18.255 27.5655C20.61 28.5423 23.543 29.7574 27.9457 29.7574H27.9692C28.464 29.7393 28.9155 29.9831 29.1702 30.4128C29.4248 30.8425 29.4266 31.3535 29.172 31.7814C28.7151 32.5487 27.0771 32.9477 24.7907 32.8484C22.6561 32.7546 20.5053 32.2436 19.658 31.8049C19.3583 31.6496 18.9899 31.7651 18.8346 32.0649C18.6792 32.3646 18.7948 32.7329 19.0946 32.8881C20.2305 33.4785 22.6035 33.9769 24.7382 34.069C24.9766 34.0798 25.224 34.0852 25.475 34.0852C26.6128 34.0852 27.839 33.9606 28.8034 33.5526C32.1859 32.5993 38.496 29.5678 40.8201 28.2265C41.6435 27.7517 42.31 27.8762 42.6043 28.2103C42.8879 28.5335 42.8244 29.0315 42.4361 29.5443ZM25.3626 11.8553C28.5121 11.8553 31.0732 9.29509 31.0732 6.14607C31.0732 2.99706 28.5123 0.436805 25.3626 0.436805C22.2128 0.436805 19.652 2.99706 19.652 6.14607C19.652 9.29509 22.2128 11.8553 25.3626 11.8553ZM25.3626 1.65798C27.8385 1.65798 29.8521 3.67115 29.8521 6.14649C29.8521 8.62183 27.8385 10.635 25.3626 10.635C22.8866 10.635 20.873 8.62183 20.873 6.14649C20.873 3.67115 22.8866 1.65798 25.3626 1.65798ZM26.2493 7.29283C26.2583 7.217 26.271 7.12311 26.0344 6.98589C25.8014 6.85048 25.5215 6.78186 25.1946 6.70423C25.0628 6.67353 24.9273 6.64103 24.7865 6.60131C24.3585 6.48215 23.8257 6.27812 23.5025 5.76174C23.1503 5.1984 23.2316 4.48705 23.7065 3.99234C23.9883 3.69804 24.3639 3.53193 24.7504 3.45067V3.11665C24.7504 2.77902 25.0249 2.50639 25.3608 2.50639C25.6985 2.50639 25.9712 2.78083 25.9712 3.11665V3.45609C26.5834 3.58789 27.0638 3.91108 27.3058 4.36064C27.4665 4.65855 27.3545 5.02868 27.0583 5.18759C26.7604 5.34828 26.3902 5.23634 26.2312 4.94023C26.1536 4.79579 25.8953 4.6694 25.5865 4.62788C25.1278 4.56468 24.7305 4.68926 24.5878 4.83732C24.4542 4.97815 24.5174 5.07926 24.539 5.11356C24.6185 5.23995 24.7919 5.33384 25.1151 5.42411C25.2325 5.45661 25.3517 5.4855 25.4763 5.51439C25.8628 5.60647 26.2619 5.70216 26.652 5.92966C27.2498 6.28174 27.5369 6.81619 27.4611 7.43907C27.3979 7.95726 27.0728 8.41046 26.5906 8.65058C26.4046 8.74266 26.1933 8.80946 25.9712 8.85099V9.17418C25.9712 9.51181 25.6967 9.78444 25.3608 9.78444C25.0231 9.78444 24.7504 9.51 24.7504 9.17418V8.82571C24.1436 8.6921 23.5964 8.37794 23.3255 7.88141C23.163 7.5853 23.2713 7.21337 23.5675 7.05266C23.8637 6.89016 24.2339 6.99849 24.3964 7.2946C24.5933 7.65209 25.5486 7.80377 26.0471 7.5564C26.2096 7.47515 26.2421 7.34335 26.2475 7.29099L26.2493 7.29283ZM35.5318 7.23144V6.26551C35.5318 5.92787 35.8063 5.65525 36.1422 5.65525C36.4799 5.65525 36.7526 5.92968 36.7526 6.26551V7.23144C36.7526 7.56908 36.4781 7.8417 36.1422 7.8417C35.8045 7.8417 35.5318 7.56726 35.5318 7.23144ZM36.7544 9.35291V10.3188C36.7544 10.6565 36.4799 10.9291 36.144 10.9291C35.8063 10.9291 35.5336 10.6547 35.5336 10.3188V9.35291C35.5336 9.01528 35.8081 8.74265 36.144 8.74265C36.4817 8.74265 36.7544 9.01709 36.7544 9.35291ZM36.5937 8.29125C36.5937 7.95362 36.8682 7.68099 37.2041 7.68099H38.1702C38.5079 7.68099 38.7806 7.95543 38.7806 8.29125C38.7806 8.62889 38.5061 8.90151 38.1702 8.90151H37.2041C36.8664 8.90151 36.5937 8.62707 36.5937 8.29125ZM33.5055 8.29125C33.5055 7.95362 33.78 7.68099 34.1159 7.68099H35.0821C35.4198 7.68099 35.6925 7.95543 35.6925 8.29125C35.6925 8.62889 35.418 8.90151 35.0821 8.90151H34.1159C33.7782 8.90151 33.5055 8.62707 33.5055 8.29125ZM2.13463 6.80893C2.13463 6.4713 2.40914 6.19867 2.74504 6.19867H3.7112C4.04891 6.19867 4.3216 6.47311 4.3216 6.80893C4.3216 7.14657 4.0471 7.41919 3.7112 7.41919H2.74504C2.40732 7.41919 2.13463 7.14475 2.13463 6.80893ZM5.22281 6.80893C5.22281 6.4713 5.49731 6.19867 5.83321 6.19867H6.79937C7.13708 6.19867 7.40977 6.47311 7.40977 6.80893C7.40977 7.14657 7.13527 7.41919 6.79937 7.41919H5.83321C5.4955 7.41919 5.22281 7.14475 5.22281 6.80893ZM4.1609 5.74727V4.78134C4.1609 4.4437 4.4354 4.17108 4.7713 4.17108C5.10901 4.17108 5.38171 4.44551 5.38171 4.78134V5.74727C5.38171 6.08491 5.1072 6.35753 4.7713 6.35753C4.43359 6.35753 4.1609 6.08309 4.1609 5.74727ZM5.38351 8.83472C5.38351 9.17236 5.10901 9.44499 4.77311 9.44499C4.43539 9.44499 4.1627 9.17055 4.1627 8.83472V7.86879C4.1627 7.53116 4.43721 7.25853 4.77311 7.25853C5.11082 7.25853 5.38351 7.53297 5.38351 7.86879V8.83472ZM3.08817 22.4303C3.08817 22.0927 3.36268 21.82 3.69858 21.82H4.66474C5.00245 21.82 5.27514 22.0945 5.27514 22.4303C5.27514 22.7679 5.00064 23.0406 4.66474 23.0406H3.69858C3.36086 23.0406 3.08817 22.7661 3.08817 22.4303ZM0 22.4303C0 22.0927 0.274504 21.82 0.610404 21.82H1.57656C1.91428 21.82 2.18697 22.0945 2.18697 22.4303C2.18697 22.7679 1.91246 23.0406 1.57656 23.0406H0.610404C0.272691 23.0406 0 22.7661 0 22.4303ZM2.02627 21.3686V20.4027C2.02627 20.0651 2.30077 19.7924 2.63667 19.7924C2.97438 19.7924 3.24707 20.0669 3.24707 20.4027V21.3686C3.24707 21.7063 2.97257 21.9789 2.63667 21.9789C2.29896 21.9789 2.02627 21.7045 2.02627 21.3686ZM3.24888 23.4901V24.456C3.24888 24.7937 2.97437 25.0663 2.63847 25.0663C2.30076 25.0663 2.02807 24.7919 2.02807 24.456V23.4901C2.02807 23.1525 2.30257 22.8798 2.63847 22.8798C2.97618 22.8798 3.24888 23.1543 3.24888 23.4901Z" fill="#003781"/>
</svg>
