<svg width="43" height="42" viewBox="0 0 43 42" fill="none" xmlns="http://www.w3.org/2000/svg">
<path fill-rule="evenodd" clip-rule="evenodd" d="M3.05459 17.041C2.8268 16.814 2.48698 16.7471 2.19011 16.8699C1.89324 16.9927 1.70094 17.2811 1.70094 17.5992C1.70094 17.9193 1.89325 18.2076 2.19011 18.3305C2.48698 18.4533 2.82678 18.3863 3.05459 18.1593C3.36266 17.8504 3.36266 17.3499 3.05459 17.041ZM3.25997 19.3743C2.76894 19.5864 2.21252 19.5864 1.72144 19.3743C1.8204 20.1 2.08366 20.794 2.49071 21.4043C2.89213 20.7921 3.15539 20.0981 3.25997 19.3743ZM2.66249 9.43277L2.05942 9.1853L21.4999 1.19386L40.9405 9.1853L21.4999 17.1882L2.75393 9.47205L2.66244 9.43484L2.66249 9.43277ZM11.4249 24.8093L33.7032 18.8699V13.3773L21.7144 18.3173C21.5781 18.3769 21.4213 18.3769 21.285 18.3173L9.29238 13.3773V22.6562C9.29238 23.527 10.5732 24.3755 11.419 24.8184L11.4249 24.8093ZM35.324 19.603C38.6083 18.7173 40.9308 22.2563 40.72 25.2056V25.2037C40.6677 26.9211 39.4783 28.3948 37.8091 28.8153C36.1007 29.2023 34.3102 28.7483 32.9959 27.5965L37.3313 26.4392C37.4881 26.4094 37.6263 26.3164 37.7122 26.1824C37.7981 26.0466 37.8242 25.8828 37.7832 25.7284C37.7402 25.574 37.6357 25.4437 37.4937 25.3693C37.3518 25.2949 37.1857 25.2837 37.0344 25.3377C34.6445 25.9703 32.7812 23.7412 33.0425 21.8229C33.1676 20.9874 33.7072 20.2692 34.4765 19.9175H34.5194C34.7715 19.7984 35.031 19.7017 35.2999 19.6273L35.324 19.603ZM15.5346 27.1909L7.38066 29.3623C7.24249 28.3278 7.61405 27.0142 8.72872 26.7183L16.1317 24.7423C15.8068 25.5219 15.6055 26.3481 15.5346 27.1909ZM18.3409 34.0273C16.6772 32.5964 15.6615 30.5608 15.5197 28.3765L5.24876 31.1154C5.79954 32.617 6.69953 33.966 7.87767 35.0508C8.77388 35.8862 10.0323 36.2137 11.2235 35.9215L18.3316 34.0162L18.3409 34.0273ZM24.8457 22.4276L32.3496 20.4218C31.2162 22.409 32.2824 25.0289 34.2615 26.1045L32.0733 26.6906C31.3507 25.8477 30.8148 24.8653 30.4955 23.8047C30.4638 23.6502 30.3667 23.5144 30.2304 23.4344C30.0941 23.3544 29.9298 23.3339 29.7786 23.3805L23.6656 25.0141C23.8542 24.0726 24.2576 23.1886 24.8457 22.4276ZM28.7181 32.4306L30.5815 39.386C30.6133 39.507 30.6021 39.6372 30.5535 39.7526C30.4956 39.8921 30.3836 40.0019 30.2436 40.0596C30.1035 40.1154 29.9467 40.1154 29.8067 40.0577L25.9455 38.4277L23.4211 41.7621C23.2923 41.9407 23.072 42.03 22.8554 41.9909C22.6388 41.95 22.4633 41.79 22.4073 41.576L20.5439 34.6173L11.533 36.9989C9.98701 37.4046 8.34021 36.9989 7.16022 35.9216C5.67398 34.5559 4.57423 32.8254 3.96744 30.9015C3.91516 30.7508 3.93196 30.5834 4.01038 30.4438C4.0888 30.3043 4.22137 30.2038 4.3782 30.1684L6.29013 29.6642C6.01753 28.0249 6.69156 26.0917 8.45597 25.6209L9.91793 25.2302C9.01052 24.5976 8.17405 23.7156 8.17405 22.6588V12.9016L3.06394 10.8287V15.7597C3.87613 16.0128 4.42882 16.7608 4.43068 17.6074C4.42882 17.8456 4.38214 18.0819 4.29252 18.3033C4.46243 18.9545 4.44562 19.6392 4.24024 20.2793C3.95643 21.1724 3.52326 22.0097 2.95939 22.7577C2.85296 22.9158 2.67371 23.0126 2.4814 23.0126C2.28909 23.0126 2.10985 22.9158 2.00342 22.7577C0.758036 21.0142 0.309927 19.5257 0.660958 18.2939H0.659091C0.573202 18.0706 0.528391 17.8325 0.53026 17.5943C0.539596 16.7496 1.09414 16.009 1.9026 15.7596V10.358L0.349152 9.7105C0.136302 9.62119 0 9.41279 0 9.18392C0 8.95505 0.136302 8.74666 0.349152 8.65733L21.2853 0.0404692C21.4234 -0.0134897 21.5766 -0.0134897 21.7147 0.0404692L42.6508 8.6478C42.8637 8.73711 43 8.94365 43 9.17439C43 9.40325 42.8637 9.61165 42.6508 9.70097L34.8502 12.9014V18.5654L35.0369 18.5133C37.3932 17.8807 39.363 18.9897 40.5824 20.7145V20.7127C41.5104 22.0523 41.9622 23.6618 41.867 25.2862C41.7998 27.4855 40.2744 29.3704 38.1346 29.9063H38.0917L28.7132 32.4312L28.7181 32.4306ZM27.8668 31.4779L26.9108 31.7254C24.8514 30.6648 23.5556 28.5492 23.55 26.238L29.553 24.6323H29.5549C30.1692 26.3683 31.3137 27.8661 32.8279 28.9193C33.3283 29.2598 33.8679 29.537 34.4337 29.7491L27.8614 31.4777L27.8668 31.4779ZM21.653 34.3359L23.2102 40.1467L25.3238 37.3892C25.4899 37.1678 25.7924 37.097 26.0407 37.2217L29.1999 38.5558L27.6091 32.7265L21.6439 34.3359L21.653 34.3359ZM20.8016 33.3833L19.7411 33.6642C18.6413 32.9255 17.7731 31.8928 17.2391 30.6834C16.7051 29.4758 16.524 28.1399 16.7201 26.8337C16.8545 25.9536 17.1532 25.1051 17.5995 24.333L23.2215 22.8463C22.4223 24.4036 22.2058 26.1917 22.6072 27.8925C23.0086 29.5932 24.0038 31.0966 25.4153 32.1349L20.8016 33.3833Z" fill="#003781"/>
</svg>
