<svg width="43" height="44" viewBox="0 0 43 44" fill="none" xmlns="http://www.w3.org/2000/svg">
<path d="M30.4151 2.34159H24.0145C23.7485 0.983612 22.578 0.00415251 21.2153 0H13.4784C12.1156 0.00415943 10.9473 0.983665 10.6833 2.34159H4.28268C1.91935 2.34367 0.00204292 4.29018 0 6.69416V39.6454C0.00204606 42.0493 1.91935 43.9958 4.28268 44H30.4147C32.7801 43.9958 34.6954 42.0493 34.6974 39.6454V38.6763C37.8117 38.1668 40.4982 36.1745 41.9288 33.3174C43.3571 30.4601 43.3571 27.0828 41.9288 24.2256C40.4985 21.3682 37.8119 19.376 34.6974 18.8667V6.66578V6.66786C34.681 4.27426 32.7678 2.34441 30.4147 2.34234L30.4151 2.34159ZM13.4992 0.833908L21.2152 0.831828C21.7717 0.802715 22.3181 1.00859 22.7212 1.39747C23.1263 1.78844 23.3555 2.3312 23.3555 2.89892C23.3555 3.46457 23.1263 4.00732 22.7212 4.3983C22.3181 4.78926 21.7717 4.99306 21.2152 4.96394H13.4783C12.3958 4.90779 11.5467 3.99902 11.5467 2.89892C11.5467 1.79675 12.3958 0.89007 13.4783 0.831828L13.4992 0.833908ZM33.9017 39.6534V39.6514C33.8996 41.5958 32.3486 43.17 30.4375 43.1721H4.28289C2.36973 43.1721 0.818686 41.5958 0.818686 39.6514V6.69431C0.818686 4.74993 2.36968 3.17358 4.28289 3.17358H10.6568C10.7898 4.65634 12.0113 5.79386 13.4785 5.79594H21.2154C22.6805 5.79178 23.9041 4.65634 24.0411 3.17358H30.415C32.3282 3.17566 33.8772 4.74988 33.8792 6.69431V18.7621C33.6235 18.7621 33.3657 18.7226 33.1037 18.7226C32.8418 18.7226 32.4387 18.7226 32.1113 18.7725V6.69406C32.1113 5.7416 31.3522 4.96593 30.415 4.96385C30.19 4.96385 30.0058 5.15101 30.0058 5.37977C30.0058 5.60852 30.19 5.79569 30.415 5.79569C30.6524 5.79153 30.8816 5.88303 31.0514 6.05356C31.2192 6.222 31.3153 6.45284 31.3153 6.69405V18.895C28.2645 19.4668 25.6533 21.4612 24.2683 24.2831C22.8831 27.1051 22.8831 30.424 24.2683 33.2461C25.6536 36.0682 28.2645 38.0645 31.3153 38.6364V39.6408C31.3153 40.1337 30.9225 40.5351 30.4375 40.5392H4.28295C3.79596 40.5392 3.399 40.1358 3.399 39.6408V6.69389C3.399 6.19688 3.79596 5.79552 4.28295 5.79552C4.51008 5.79552 4.69219 5.60836 4.69219 5.3796C4.69219 5.15085 4.51008 4.96368 4.28295 4.96368C3.34373 4.96368 2.58052 5.73727 2.58052 6.69389V39.6451C2.58052 40.6017 3.34373 41.3753 4.28295 41.3753H30.415C31.3522 41.3732 32.1113 40.5996 32.1113 39.6451V38.7634C32.4387 38.7966 32.7722 38.8133 33.1037 38.8133C33.4372 38.8133 33.65 38.8133 33.8792 38.7738L33.9017 39.6534ZM42.1681 28.7712C42.1681 31.2168 41.2126 33.5605 39.5122 35.2885C37.8098 37.0167 35.5037 37.9878 33.0974 37.9878C30.6932 37.9878 28.3851 37.0146 26.6848 35.2864C24.9844 33.5562 24.0309 31.2126 24.0309 28.767C24.0309 26.3235 24.9885 23.9777 26.6909 22.2518C28.3913 20.5237 30.6994 19.5526 33.1057 19.5546C35.5079 19.5567 37.814 20.5299 39.512 22.2581C41.2104 23.9862 42.1661 26.3279 42.1681 28.7712ZM13.8549 21.1077L17.0899 23.9131C17.2434 24.0565 17.4808 24.0565 17.6363 23.9131L20.8713 21.1077C22.2586 19.8933 23.0567 18.1256 23.0546 16.2664V12.2341C23.0546 12.1177 23.0035 12.0054 22.9175 11.9284C22.8357 11.8473 22.7211 11.8099 22.6065 11.8245C19.0379 12.1572 17.7837 9.53898 17.7284 9.42878C17.6609 9.28113 17.5156 9.18755 17.358 9.18963C17.1984 9.18963 17.0531 9.28321 16.9856 9.42878C16.9365 9.539 15.6863 12.1676 12.1136 11.8245C11.999 11.8099 11.8824 11.8494 11.7965 11.9284C11.7146 12.0075 11.6676 12.1177 11.6655 12.2341V16.2664C11.6635 18.1277 12.4635 19.8974 13.8549 21.1077ZM12.4799 12.6792V12.6771C14.3828 12.8081 16.2203 11.943 17.3518 10.3813C18.4875 11.941 20.325 12.8061 22.23 12.6771V16.2665C22.2279 17.8844 21.5302 19.4233 20.3209 20.4755L17.3457 23.0479L14.3992 20.4755C13.1919 19.4212 12.4963 17.8844 12.4963 16.2665L12.4799 12.6792ZM25.7614 28.7606H25.7594C25.7553 31.7822 27.5436 34.5107 30.2917 35.6692C33.0377 36.8296 36.2009 36.1911 38.3046 34.0554C40.4101 31.9176 41.0383 28.7046 39.9007 25.9117C38.7609 23.1189 36.0784 21.2992 33.1051 21.3013C29.0475 21.3075 25.7611 24.6474 25.7553 28.771L25.7614 28.7606ZM39.6428 28.7606H39.6407C39.6407 31.4516 38.0467 33.8784 35.5995 34.9079C33.1523 35.9373 30.3367 35.3695 28.4645 33.4647C26.5902 31.5619 26.0316 28.7004 27.0445 26.2132C28.0574 23.726 30.4453 22.1061 33.0931 22.1061C34.8303 22.1061 36.4979 22.811 37.7236 24.0609C38.9513 25.3107 39.6388 27.0056 39.6368 28.7712L39.6428 28.7606ZM31.9368 30.8277L35.8225 25.9635V25.9656C35.9719 25.7868 36.2359 25.7681 36.4118 25.9199C36.5858 26.0738 36.6062 26.342 36.4548 26.5188L32.2744 31.7489C32.2008 31.8425 32.0882 31.8987 31.9695 31.9049C31.855 31.9028 31.7465 31.855 31.6687 31.7718L29.7801 29.7192H29.7821C29.6225 29.557 29.6225 29.2929 29.7821 29.1307C29.9417 28.9685 30.1996 28.9685 30.3592 29.1307L31.9368 30.8277ZM6.21439 27.0241C6.21439 26.7954 6.39855 26.6082 6.62363 26.6082H12.0808C12.3059 26.6082 12.4901 26.7954 12.4901 27.0241C12.4901 27.2529 12.3059 27.4401 12.0808 27.4401H6.62363C6.39855 27.4401 6.21439 27.2529 6.21439 27.0241ZM6.21439 29.6465C6.21439 29.4177 6.39855 29.2306 6.62363 29.2306H19.0378C19.2628 29.2306 19.447 29.4177 19.447 29.6465C19.447 29.8773 19.2628 30.0624 19.0378 30.0624H6.6032C6.38426 30.0541 6.21235 29.869 6.21439 29.6465ZM6.21439 32.2751C6.21439 32.1649 6.25532 32.0588 6.33307 31.9798C6.41083 31.9008 6.51518 31.8592 6.62363 31.8592H15.7314C15.9565 31.8592 16.1406 32.0463 16.1406 32.2751C16.1406 32.5059 15.9565 32.691 15.7314 32.691H6.6032C6.38426 32.6806 6.21439 32.4976 6.21439 32.2751ZM6.21439 34.8995C6.21439 34.6687 6.39855 34.4836 6.62363 34.4836H21.4934C21.7001 34.5065 21.8556 34.6853 21.8556 34.8954C21.8556 35.1075 21.7001 35.2842 21.4934 35.3092H6.6032C6.38631 35.2967 6.21848 35.1179 6.21439 34.8995ZM6.21439 37.5281C6.21439 37.2973 6.39855 37.1122 6.62363 37.1122H21.4934C21.7185 37.1122 21.9027 37.2973 21.9027 37.5281C21.9027 37.7569 21.7185 37.944 21.4934 37.944H6.6032C6.38426 37.9336 6.21235 37.7506 6.21439 37.5281Z" fill="#003781"/>
</svg>
