<svg width="42" height="45" viewBox="0 0 42 45" fill="none" xmlns="http://www.w3.org/2000/svg">
<path d="M41.4474 26.7277C41.594 26.7277 41.7345 26.6703 41.8381 26.568C41.9418 26.4657 42 26.3269 42 26.1823V24.0004C42 23.8558 41.9418 23.717 41.8381 23.6147C41.7345 23.5124 41.594 23.455 41.4474 23.455H38.6844V4.36371C38.6844 3.20638 38.2186 2.09646 37.3896 1.2781C36.5605 0.459747 35.436 0 34.2636 0H11.6068C10.4344 0 9.30991 0.459747 8.48085 1.2781C7.65178 2.09646 7.18602 3.20638 7.18602 4.36371V23.455C6.37602 23.5065 5.5993 23.7922 4.95276 24.2766C4.30621 24.761 3.81844 25.4225 3.55031 26.1787C3.28217 26.9349 3.24552 27.7524 3.44494 28.529C3.64435 29.3056 4.07101 30.0071 4.67168 30.546C3.38179 30.6234 2.17307 31.1933 1.30148 32.1351C0.429903 33.0769 -0.0360926 34.3165 0.0021845 35.5915V35.6624C0.0021845 38.5916 2.18497 40.8825 4.97561 40.9098V44.4553C4.97577 44.566 5.01007 44.6741 5.07394 44.7651C5.13782 44.8562 5.22825 44.9258 5.33321 44.9649C5.43817 45.004 5.55269 45.0106 5.66156 44.9839C5.77042 44.9572 5.86847 44.8984 5.94266 44.8153L7.46232 43.0917L8.98198 44.8044C9.05555 44.8868 9.1526 44.9454 9.26043 44.9724C9.36827 44.9995 9.48186 44.9938 9.58636 44.956C9.69085 44.9183 9.78138 44.8503 9.84609 44.761C9.9108 44.6717 9.94668 44.5651 9.94904 44.4553V40.9098H35.3688C35.5153 40.9098 35.6559 40.8523 35.7595 40.75C35.8631 40.6477 35.9214 40.509 35.9214 40.3643V38.1825C35.9214 38.0378 35.8631 37.8991 35.7595 37.7968C35.6559 37.6945 35.5153 37.637 35.3688 37.637H34.2636V33.8188H35.3688C35.5153 33.8188 35.6559 33.7613 35.7595 33.659C35.8631 33.5567 35.9214 33.418 35.9214 33.2733V31.6369H41.4474C41.594 31.6369 41.7345 31.5794 41.8381 31.4772C41.9418 31.3749 42 31.2361 42 31.0915V28.9096C42 28.7649 41.9418 28.6262 41.8381 28.5239C41.7345 28.4216 41.594 28.3641 41.4474 28.3641H40.8948V26.7277H41.4474ZM32.4289 14.0784C32.8191 14.0784 33.2005 14.1926 33.5249 14.4066C33.8494 14.6206 34.1022 14.9247 34.2515 15.2805C34.4009 15.6364 34.4399 16.0279 34.3638 16.4056C34.2877 16.7834 34.0998 17.1304 33.8239 17.4027C33.548 17.675 33.1965 17.8605 32.8138 17.9356C32.4311 18.0108 32.0344 17.9722 31.674 17.8248C31.3135 17.6774 31.0054 17.4278 30.7886 17.1076C30.5718 16.7874 30.4561 16.4109 30.4561 16.0257C30.4561 15.5093 30.664 15.014 31.0339 14.6488C31.4039 14.2836 31.9057 14.0784 32.4289 14.0784ZM32.0531 1.09093V13.0093C31.3988 13.0896 30.788 13.3752 30.3104 13.8239C29.8329 14.2727 29.514 14.861 29.4007 15.5021C29.2931 14.921 29.0163 14.3835 28.6041 13.9553C28.1919 13.5271 27.6621 13.2268 27.0797 13.0911V1.09093H32.0531ZM26.3724 14.0784C26.7626 14.0784 27.144 14.1926 27.4684 14.4066C27.7928 14.6206 28.0457 14.9247 28.195 15.2805C28.3443 15.6364 28.3834 16.0279 28.3073 16.4056C28.2312 16.7834 28.0433 17.1304 27.7674 17.4027C27.4915 17.675 27.1399 17.8605 26.7573 17.9356C26.3746 18.0108 25.9779 17.9722 25.6174 17.8248C25.257 17.6774 24.9488 17.4278 24.7321 17.1076C24.5153 16.7874 24.3996 16.4109 24.3996 16.0257C24.3996 15.5093 24.6074 15.014 24.9774 14.6488C25.3474 14.2836 25.8492 14.0784 26.3724 14.0784ZM25.9745 1.09093V13.0148C25.3242 13.0994 24.7183 13.3869 24.2451 13.8353C23.7719 14.2837 23.4563 14.8696 23.3441 15.5075C23.2402 14.918 22.9625 14.3717 22.5458 13.9371C22.129 13.5024 21.5918 13.1987 21.0011 13.0639V1.09093H25.9745ZM20.3159 14.0784C20.706 14.0784 21.0875 14.1926 21.4119 14.4066C21.7363 14.6206 21.9892 14.9247 22.1385 15.2805C22.2878 15.6364 22.3269 16.0279 22.2507 16.4056C22.1746 16.7834 21.9867 17.1304 21.7108 17.4027C21.4349 17.675 21.0834 17.8605 20.7007 17.9356C20.3181 18.0108 19.9214 17.9722 19.5609 17.8248C19.2004 17.6774 18.8923 17.4278 18.6755 17.1076C18.4588 16.7874 18.3431 16.4109 18.3431 16.0257C18.3431 15.77 18.3941 15.5168 18.4932 15.2805C18.5924 15.0443 18.7377 14.8296 18.9209 14.6488C19.1041 14.468 19.3216 14.3245 19.5609 14.2267C19.8003 14.1288 20.0568 14.0784 20.3159 14.0784ZM11.6068 1.09093H13.6238L11.7616 13.0257C11.0087 13.1618 10.3346 13.5709 9.87174 14.1725C9.40884 14.7742 9.19057 15.5249 9.2598 16.2773C9.32904 17.0297 9.68078 17.7294 10.2459 18.2388C10.8111 18.7483 11.5488 19.0308 12.3142 19.0308C13.0796 19.0308 13.8173 18.7483 14.3824 18.2388C14.9476 17.7294 15.2993 17.0297 15.3685 16.2773C15.4378 15.5249 15.2195 14.7742 14.7566 14.1725C14.2937 13.5709 13.6196 13.1618 12.8668 13.0257L14.7401 1.09093H19.8959V13.0202C19.3337 13.0968 18.804 13.3256 18.3656 13.6813C17.9271 14.0369 17.597 14.5054 17.4118 15.0349C17.2266 15.5645 17.1936 16.1343 17.3165 16.6811C17.4394 17.228 17.7133 17.7306 18.1079 18.1332C18.5025 18.5358 19.0023 18.8227 19.552 18.962C20.1017 19.1013 20.6797 19.0876 21.222 18.9225C21.7642 18.7573 22.2496 18.4471 22.6242 18.0263C22.9988 17.6055 23.248 17.0905 23.3441 16.5385C23.4521 17.258 23.8184 17.9152 24.3763 18.3904C24.9342 18.8655 25.6466 19.1269 26.3834 19.1269C27.1203 19.1269 27.8326 18.8655 28.3906 18.3904C28.9485 17.9152 29.3148 17.258 29.4228 16.5385C29.5136 17.08 29.7516 17.587 30.1113 18.0055C30.4711 18.4239 30.9392 18.7382 31.4657 18.9147C31.9922 19.0913 32.5573 19.1235 33.1009 19.0079C33.6445 18.8924 34.1461 18.6334 34.5523 18.2585C34.9584 17.8837 35.254 17.4071 35.4073 16.8795C35.5606 16.3519 35.5661 15.7932 35.423 15.2628C35.2799 14.7324 34.9937 14.2503 34.5949 13.8679C34.1961 13.4854 33.6996 13.217 33.1584 13.0911V1.09093H34.2636C35.1429 1.09093 35.9863 1.43574 36.6081 2.0495C37.2299 2.66327 37.5792 3.49572 37.5792 4.36371V23.455H8.29123V4.36371C8.29123 3.49572 8.64055 2.66327 9.26235 2.0495C9.88415 1.43574 10.7275 1.09093 11.6068 1.09093ZM12.2423 14.0784C12.6325 14.0784 13.0139 14.1926 13.3384 14.4066C13.6628 14.6206 13.9156 14.9247 14.065 15.2805C14.2143 15.6364 14.2533 16.0279 14.1772 16.4056C14.1011 16.7834 13.9132 17.1304 13.6373 17.4027C13.3614 17.675 13.0099 17.8605 12.6272 17.9356C12.2445 18.0108 11.8479 17.9722 11.4874 17.8248C11.1269 17.6774 10.8188 17.4278 10.602 17.1076C10.3852 16.7874 10.2695 16.4109 10.2695 16.0257C10.2695 15.5093 10.4774 15.014 10.8474 14.6488C11.2173 14.2836 11.7191 14.0784 12.2423 14.0784ZM8.84383 43.0044L7.87677 41.9135C7.82492 41.8554 7.76114 41.8089 7.68968 41.7771C7.61823 41.7452 7.54072 41.7288 7.46232 41.7288C7.38392 41.7288 7.30642 41.7452 7.23496 41.7771C7.1635 41.8089 7.09973 41.8554 7.04787 41.9135L6.08082 43.0044V37.0916H8.84383V43.0044ZM34.8162 39.8189H9.94904V38.7279H34.8162V39.8189ZM33.1584 37.637H9.94904V36.5461C9.94904 36.4014 9.89082 36.2627 9.78718 36.1604C9.68355 36.0581 9.54299 36.0006 9.39643 36.0006H5.52821C5.38165 36.0006 5.2411 36.0581 5.13746 36.1604C5.03383 36.2627 4.97561 36.4014 4.97561 36.5461V37.637C3.91461 37.6097 3.3178 36.5952 3.3178 35.6297C3.2969 35.3978 3.32554 35.1641 3.40189 34.9438C3.47823 34.7235 3.60057 34.5215 3.761 34.3508C3.92143 34.1801 4.11636 34.0446 4.3332 33.9529C4.55004 33.8613 4.78396 33.8156 5.01982 33.8188H33.1584V37.637ZM34.8162 32.7278H5.01982C4.64523 32.7217 4.27329 32.7908 3.92661 32.931C3.57993 33.0712 3.26575 33.2795 3.00317 33.5433C2.7406 33.8071 2.53511 34.1208 2.3992 34.4654C2.2633 34.81 2.19981 35.1783 2.2126 35.5479C2.2126 35.5479 2.2126 35.5752 2.2126 35.5915V35.6624C2.2126 35.6624 2.2126 35.6897 2.2126 35.7061C2.26233 37.397 3.45595 38.7007 4.97561 38.7279V39.8189C2.80388 39.8189 1.10739 37.9752 1.10739 35.6624V35.597C1.08222 35.0787 1.16543 34.5608 1.35183 34.0756C1.53824 33.5904 1.82385 33.1483 2.19087 32.7768C2.55789 32.4054 2.99847 32.1124 3.48517 31.9163C3.97187 31.7202 4.49426 31.6251 5.01982 31.6369H34.8162V32.7278ZM40.8948 30.546H7.46232C6.65625 30.546 5.88318 30.2299 5.3132 29.6673C4.74322 29.1047 4.42301 28.3416 4.42301 27.5459C4.42301 26.7503 4.74322 25.9872 5.3132 25.4246C5.88318 24.862 6.65625 24.5459 7.46232 24.5459H40.8948V25.6368H8.01493C7.50197 25.6368 7.01002 25.8379 6.6473 26.196C6.28459 26.554 6.08082 27.0396 6.08082 27.5459C6.08082 28.0523 6.28459 28.5379 6.6473 28.8959C7.01002 29.2539 7.50197 29.4551 8.01493 29.4551H40.8948V30.546ZM39.7896 28.3641H8.01493C7.79509 28.3641 7.58425 28.2779 7.4288 28.1245C7.27335 27.971 7.18602 27.7629 7.18602 27.5459C7.18602 27.3289 7.27335 27.1208 7.4288 26.9674C7.58425 26.8139 7.79509 26.7277 8.01493 26.7277H39.7896V28.3641Z" fill="#003781"/>
</svg>
