<svg width="41" height="42" viewBox="0 0 41 42" fill="none" xmlns="http://www.w3.org/2000/svg">
<path fill-rule="evenodd" clip-rule="evenodd" d="M8.32595 26.065L13.8467 35.2364L16.2504 33.8619C17.9442 32.8939 18.9972 33.2111 20.6946 33.7215L21.0522 33.8291L24.6559 34.8974C24.9845 34.9958 25.3094 35.0232 25.6253 34.9867C25.9394 34.9503 26.2444 34.8445 26.5312 34.6768L39.0688 27.2788C39.0852 27.2696 39.0652 27.2788 39.1124 27.2496H39.1142C39.4065 27.0636 39.6062 26.7993 39.6897 26.5149C39.7678 26.2488 39.7424 25.9589 39.5899 25.6982L39.5681 25.6654C39.3847 25.3755 39.0852 25.1805 38.7475 25.0985C38.4008 25.0128 38.0195 25.0492 37.691 25.2261L36.2894 25.9772C36.264 25.9936 36.2368 26.0082 36.2096 26.0191L30.119 29.2841L30.0899 29.2987C26.873 30.8118 25.092 30.1391 23.2111 29.43C23.124 29.3972 23.035 29.3644 22.8426 29.2914L18.531 28.1539C18.1933 28.0645 17.9917 27.7182 18.0807 27.3791C18.1697 27.0399 18.5146 26.8376 18.8523 26.9269L23.1731 28.0663C23.1894 28.07 23.2039 28.0736 23.2203 28.0791C23.6505 28.1866 24.0935 28.1283 24.4602 27.9442C24.8142 27.7655 25.0938 27.472 25.2136 27.1019C25.2155 27.0965 25.2173 27.0874 25.2282 27.0436C25.3207 26.7009 25.2627 26.349 25.0902 26.0555C24.9105 25.7474 24.6054 25.4977 24.217 25.3719L15.6734 23.0439C15.3739 22.9619 15.0834 22.9345 14.8074 22.96C14.5333 22.9856 14.2628 23.0658 13.9977 23.2007L8.32823 26.0665L8.32595 26.065ZM1.64885 27.8223L6.23103 25.0404L13.8558 37.7088L9.27358 40.4908L1.64885 27.8223ZM31.8796 23.3523L26.2989 25.642C26.2626 25.5654 26.2226 25.4889 26.179 25.4141C25.8468 24.8453 25.2968 24.3878 24.6033 24.1635C24.5343 24.1416 24.4907 24.1271 24.4707 24.1216L21.6078 23.3413C20.936 22.6796 20.3914 21.8884 20.012 21.006C20.0047 20.9896 19.9975 20.9732 19.9884 20.9586C19.618 20.0799 19.4129 19.1101 19.4129 18.0856C19.4129 16.0511 20.2334 14.2098 21.5605 12.8773C22.8876 11.5446 24.7212 10.7206 26.7472 10.7206C28.7732 10.7206 30.6068 11.5446 31.9338 12.8773C33.2609 14.2099 34.0815 16.0512 34.0815 18.0856C34.0815 19.1192 33.8709 20.1 33.4897 20.9915C33.1084 21.883 32.5565 22.6851 31.8775 23.3523L31.8796 23.3523ZM32.5132 24.4589L33.2013 24.1763C33.6007 24.0122 34.0291 23.9648 34.4031 24.0487C34.7117 24.118 34.984 24.2802 35.1601 24.5482C35.24 24.6685 35.2926 24.7961 35.3199 24.9256C35.3289 24.9657 35.3344 25.0058 35.338 25.0459L29.5379 28.1542C27.8096 28.9654 26.5588 29.0274 25.4605 28.8086C25.898 28.4805 26.2393 28.0302 26.4136 27.4869C26.4335 27.4249 26.4444 27.3867 26.4481 27.3739C26.4898 27.2208 26.5152 27.0658 26.5279 26.9127L32.4298 24.4917C32.4571 24.4826 32.4843 24.4716 32.5115 24.4589L32.5132 24.4589ZM19.522 22.7726C19.2642 22.3715 19.0372 21.9486 18.8485 21.5074C18.8412 21.491 18.8358 21.4728 18.8285 21.4564C18.3892 20.4154 18.1459 19.276 18.1459 18.0856C18.1459 15.701 19.108 13.5408 20.6657 11.9765C22.2234 10.4124 24.3728 9.44618 26.7493 9.44618C29.1258 9.44618 31.2752 10.4124 32.8329 11.9765C34.3906 13.5407 35.3528 15.6992 35.3528 18.0856C35.3528 19.2942 35.1041 20.4464 34.6575 21.4928C34.4705 21.9285 34.249 22.346 33.9966 22.7416C34.229 22.738 34.4577 22.7616 34.6792 22.8109C35.2983 22.9494 35.8484 23.2867 36.2187 23.8464C36.3404 24.0305 36.433 24.2256 36.4983 24.4243L37.0974 24.1034C37.711 23.7753 38.4118 23.706 39.0454 23.861C39.6899 24.0177 40.2726 24.4061 40.6394 24.9858C40.6466 24.9986 40.6611 25.0204 40.6811 25.0532C41.0206 25.633 41.0787 26.2765 40.9044 26.869C40.7356 27.4432 40.3489 27.9628 39.7897 28.3201L39.7916 28.3219L39.7081 28.3712L27.1704 35.7692C26.7275 36.0299 26.2573 36.1903 25.7744 36.2486C25.2932 36.307 24.7976 36.2614 24.3002 36.1155L20.6966 35.0472C20.4115 34.9634 20.3698 34.9488 20.3335 34.9397C18.9537 34.524 18.0968 34.267 16.8732 34.9652L14.5005 36.3234L15.2665 37.5977C15.4463 37.8985 15.3501 38.2886 15.0505 38.4709L9.38471 41.9091C9.08517 42.0896 8.69665 41.993 8.51511 41.6922L0.236941 27.9355C0.0572121 27.6347 0.15343 27.2445 0.452977 27.0622L6.11878 23.624C6.41832 23.4435 6.80684 23.5401 6.98838 23.8409L7.671 24.9767L13.4279 22.0671C13.8346 21.8611 14.2557 21.739 14.6896 21.697C15.1253 21.6551 15.5665 21.6952 16.0076 21.8155L19.5259 22.7745L19.522 22.7726ZM26.7493 15.1795H26.7475H26.7457C26.7167 15.1795 26.7112 15.1795 26.7149 15.1776L26.704 15.1758C26.408 15.1868 26.1357 15.3125 25.9379 15.5113C25.74 15.7081 25.6183 15.9761 25.6183 16.2751C25.6183 16.3608 25.6147 16.2405 25.6165 16.3006C25.6347 17.1173 26.3118 17.3197 26.9781 17.5184C28.0819 17.8465 29.1639 18.1692 29.144 19.861C29.1367 20.5264 28.868 21.128 28.4378 21.5618C28.1491 21.8517 27.7879 22.0686 27.383 22.1798V22.9127C27.383 23.2645 27.0998 23.5489 26.7494 23.5489C26.399 23.5489 26.1158 23.2645 26.1158 22.9127V22.1798C25.7092 22.0686 25.3442 21.8517 25.0538 21.56C24.6199 21.1243 24.3512 20.5227 24.3512 19.8573C24.3512 19.5055 24.6344 19.2211 24.9848 19.2211C25.3352 19.2211 25.6184 19.5055 25.6184 19.8573C25.6184 20.1709 25.7455 20.4534 25.9488 20.6595C26.1521 20.8637 26.4353 20.9913 26.7458 20.9913H26.7476H26.7494C27.058 20.9913 27.3376 20.8655 27.5391 20.6613C27.7461 20.4535 27.8768 20.1655 27.8786 19.8519C27.8877 19.1154 27.2595 18.9276 26.6187 18.738C25.5149 18.4099 24.3893 18.0744 24.3512 16.328C24.3494 16.2423 24.3476 16.3389 24.3476 16.2769C24.3476 15.6279 24.6144 15.0409 25.0447 14.6125C25.337 14.3226 25.7037 14.1057 26.1122 13.9945V13.2598C26.1122 12.908 26.3954 12.6236 26.7458 12.6236C27.0962 12.6236 27.3794 12.908 27.3794 13.2598V13.9927C27.786 14.1039 28.151 14.3208 28.4414 14.6125C28.8753 15.0482 29.144 15.6498 29.144 16.3152C29.144 16.667 28.8608 16.9514 28.5104 16.9514C28.16 16.9514 27.8768 16.667 27.8768 16.3152C27.8768 16.0016 27.7497 15.7191 27.5464 15.513C27.3431 15.3089 27.0599 15.1812 26.7476 15.1812L26.7493 15.1795ZM5.90287 9.66127L7.18275 13.0229C7.24447 13.1852 8.01242 13.1596 9.20335 12.9865C10.6593 12.7768 12.5928 12.25 14.6586 11.457C16.7246 10.6639 18.5146 9.76155 19.7402 8.94301C20.7405 8.27396 21.3287 7.7781 21.267 7.61583L19.989 4.256L13.8273 8.80263C13.7238 8.8792 13.604 8.9193 13.4842 8.92477L5.9045 9.66126L5.90287 9.66127ZM4.90983 8.48361L2.85655 8.68232L11.2477 2.49302L21.6065 1.48673L19.9345 2.71909C19.9163 2.73185 19.8982 2.74461 19.88 2.75919L13.2155 7.67582L4.99865 8.47428C4.9696 8.47611 4.93888 8.47814 4.90983 8.48361ZM2.67683 9.97484L4.59575 9.78889L5.99907 13.4768C6.30225 14.2717 7.57305 14.5087 9.38121 14.2461C10.9261 14.0237 12.9576 13.4732 15.1088 12.6473C17.26 11.8215 19.1391 10.8717 20.4372 10.0039C21.9603 8.98487 22.7519 7.95851 22.4487 7.16551L21.0454 3.47755L24.2043 1.14772C24.3767 1.0201 24.482 0.806811 24.4602 0.575269C24.4276 0.227074 24.1189 -0.0299864 23.7722 0.00282218L10.9808 1.24614C10.861 1.25161 10.7412 1.29172 10.6377 1.36829L0.258817 9.02301C0.0863517 9.15062 -0.0189472 9.36391 0.00284037 9.59545C0.0355181 9.94365 0.344141 10.2007 0.690907 10.1679L1.36805 10.1023L2.37926 12.7584C2.50453 13.0866 2.86943 13.2506 3.1962 13.1267C3.52298 13.0009 3.68638 12.6344 3.56292 12.3063L2.67701 9.97648L2.67683 9.97484Z" fill="#003781"/>
</svg>
