<svg width="344" height="99" viewBox="0 0 344 99" fill="none" xmlns="http://www.w3.org/2000/svg">
<rect width="344" height="99" rx="10" fill="#E8E9FA"/>
<path d="M31.168 61.32C30.208 61.32 29.3973 61.1707 28.736 60.872C28.0747 60.5733 27.5733 60.1253 27.232 59.528C26.8907 58.9093 26.72 58.1413 26.72 57.224V43.464H31.52V56.648C31.52 57.0533 31.6053 57.352 31.776 57.544C31.968 57.736 32.256 57.832 32.64 57.832C32.8107 57.832 32.992 57.8107 33.184 57.768C33.376 57.7253 33.5573 57.672 33.728 57.608L34.176 60.68C33.7707 60.8933 33.312 61.0533 32.8 61.16C32.288 61.2667 31.744 61.32 31.168 61.32ZM47.0053 61V49.608C47.0053 48.584 46.7279 47.848 46.1733 47.4C45.6186 46.952 44.7653 46.728 43.6133 46.728C42.5039 46.728 41.4159 46.8987 40.3493 47.24C39.3039 47.56 38.3973 47.944 37.6293 48.392V44.424C38.2479 44.1253 39.1226 43.8267 40.2533 43.528C41.3839 43.208 42.6959 43.048 44.1892 43.048C45.2773 43.048 46.2693 43.1653 47.1653 43.4C48.0826 43.6133 48.8826 43.9867 49.5653 44.52C50.2479 45.032 50.7706 45.7253 51.1333 46.6C51.5173 47.4533 51.7093 48.52 51.7093 49.8V61H47.0053ZM41.7573 61.32C39.9226 61.32 38.5039 60.8827 37.5013 60.008C36.5199 59.1333 36.0293 57.9067 36.0293 56.328C36.0293 54.6213 36.6373 53.256 37.8533 52.232C39.0906 51.208 41.0319 50.5893 43.6773 50.376L47.7733 50.056V53.512L44.2213 53.864C42.9413 53.992 42.0453 54.248 41.5333 54.632C41.0426 55.016 40.7973 55.528 40.7973 56.168C40.7973 56.808 40.9999 57.288 41.4053 57.608C41.8319 57.928 42.3759 58.088 43.0373 58.088C43.2933 58.088 43.5493 58.0667 43.8053 58.024C44.0613 57.96 44.2959 57.896 44.5093 57.832L44.9253 60.84C44.5199 60.9893 44.0399 61.1067 43.4853 61.192C42.9306 61.2773 42.3546 61.32 41.7573 61.32ZM36.7855 41.032V39.016L40.0175 37.672H51.4415V41.032H36.7855ZM43.5055 39.08V35.464H46.5455V39.08H43.5055ZM48.4335 39.08V35.464H51.4415V39.08H48.4335ZM63.1535 61.416C60.5508 61.416 58.6202 60.7867 57.3615 59.528C56.1028 58.248 55.4735 56.36 55.4735 53.864C55.4735 53.4373 55.4842 52.9253 55.5055 52.328C55.5482 51.7093 55.6015 51.1653 55.6655 50.696H63.3455V53.736H60.1775V54.184C60.1775 55.0373 60.2842 55.7413 60.4975 56.296C60.7108 56.8293 61.0308 57.224 61.4575 57.48C61.9055 57.736 62.4602 57.864 63.1215 57.864C63.8468 57.864 64.4548 57.704 64.9455 57.384C65.4575 57.064 65.8415 56.52 66.0975 55.752C66.3748 54.984 66.5135 53.928 66.5135 52.584C66.5135 51.3253 66.3642 50.28 66.0655 49.448C65.7882 48.5947 65.3082 47.9547 64.6255 47.528C63.9642 47.1013 63.0468 46.888 61.8735 46.888C61.2335 46.888 60.5722 46.9627 59.8895 47.112C59.2068 47.24 58.5562 47.4107 57.9375 47.624C57.3402 47.8373 56.8175 48.072 56.3695 48.328V44.328C56.8388 44.072 57.4148 43.848 58.0975 43.656C58.8015 43.464 59.5588 43.3147 60.3695 43.208C61.1802 43.1013 61.9802 43.048 62.7695 43.048C64.8388 43.048 66.5028 43.432 67.7615 44.2C69.0415 44.9467 69.9695 46.0133 70.5455 47.4C71.1428 48.7867 71.4415 50.4293 71.4415 52.328C71.4415 54.2693 71.1535 55.9227 70.5775 57.288C70.0228 58.632 69.1375 59.656 67.9215 60.36C66.7055 61.064 65.1162 61.416 63.1535 61.416ZM74.9863 61V55.656C74.9863 54.312 75.2529 53.2773 75.7863 52.552C76.3196 51.8267 77.0769 51.3147 78.0583 51.016L78.0903 50.888L74.6663 49.64V48.808C74.6663 47.7627 74.9756 46.8027 75.5943 45.928C76.2129 45.0533 77.1196 44.36 78.3143 43.848C79.5303 43.3147 81.0023 43.048 82.7303 43.048C84.3516 43.048 85.7489 43.304 86.9223 43.816C88.0956 44.3067 89.0023 45.0533 89.6423 46.056C90.3036 47.0373 90.6343 48.2853 90.6343 49.8V61H85.8343V50.088C85.8343 49.0213 85.5463 48.2213 84.9703 47.688C84.4156 47.1547 83.6263 46.888 82.6023 46.888C81.6209 46.888 80.8849 47.1013 80.3943 47.528C79.9036 47.9333 79.6369 48.4347 79.5943 49.032L82.4423 50.344L82.0903 52.424C81.3223 52.4667 80.7463 52.744 80.3623 53.256C79.9783 53.768 79.7863 54.4613 79.7863 55.336V61H74.9863ZM95.339 61V43.464H98.859L99.499 46.216H99.755C100.118 45.3413 100.747 44.616 101.643 44.04C102.539 43.4427 103.702 43.144 105.131 43.144C106.496 43.144 107.627 43.3893 108.523 43.88C109.419 44.3493 110.091 45.0747 110.539 46.056C111.008 47.016 111.243 48.232 111.243 49.704V61H106.443V50.664C106.443 49.4693 106.198 48.616 105.707 48.104C105.238 47.5707 104.544 47.304 103.627 47.304C102.88 47.304 102.24 47.5067 101.707 47.912C101.195 48.3173 100.8 48.9147 100.523 49.704C100.267 50.472 100.139 51.4427 100.139 52.616V61H95.339ZM107.27 41.736C106.054 41.736 105.084 41.4587 104.358 40.904C103.633 40.3493 103.27 39.5707 103.27 38.568C103.27 37.5653 103.633 36.7867 104.358 36.232C105.084 35.6773 106.054 35.4 107.27 35.4C108.486 35.4 109.468 35.6773 110.214 36.232C110.94 36.7867 111.302 37.5653 111.302 38.568C111.302 39.5707 110.94 40.3493 110.214 40.904C109.468 41.4587 108.486 41.736 107.27 41.736ZM107.27 39.88C107.74 39.88 108.102 39.7627 108.359 39.528C108.614 39.2933 108.742 38.9733 108.742 38.568C108.742 38.1627 108.614 37.8427 108.359 37.608C108.102 37.3733 107.74 37.256 107.27 37.256C106.822 37.256 106.47 37.3733 106.214 37.608C105.958 37.8427 105.83 38.1627 105.83 38.568C105.83 38.9733 105.958 39.2933 106.214 39.528C106.47 39.7627 106.822 39.88 107.27 39.88ZM120.349 61V49.416C120.349 48.52 120.135 47.8693 119.709 47.464C119.303 47.0587 118.631 46.856 117.693 46.856C116.989 46.856 116.338 46.952 115.741 47.144C115.165 47.336 114.621 47.5707 114.109 47.848V44.008C114.578 43.7947 115.239 43.5813 116.093 43.368C116.946 43.1547 117.949 43.048 119.101 43.048C120.274 43.048 121.309 43.2187 122.205 43.56C123.122 43.9013 123.837 44.4773 124.349 45.288C124.882 46.0773 125.149 47.1653 125.149 48.552V61H120.349ZM129.839 61V43.464H133.359L133.999 46.216H134.255C134.618 45.3413 135.247 44.616 136.143 44.04C137.039 43.4427 138.202 43.144 139.631 43.144C140.996 43.144 142.127 43.3893 143.023 43.88C143.919 44.3493 144.591 45.0747 145.039 46.056C145.508 47.016 145.743 48.232 145.743 49.704V61H140.943V50.664C140.943 49.4693 140.698 48.616 140.207 48.104C139.738 47.5707 139.044 47.304 138.127 47.304C137.38 47.304 136.74 47.5067 136.207 47.912C135.695 48.3173 135.3 48.9147 135.023 49.704C134.767 50.472 134.639 51.4427 134.639 52.616V61H129.839ZM140.362 41.032C139.36 41.032 138.57 40.8827 137.994 40.584C137.418 40.2853 137.013 39.912 136.778 39.464C136.522 38.9947 136.394 38.504 136.394 37.992C136.394 37.6293 136.448 37.2453 136.554 36.84C136.661 36.4133 136.821 36.0187 137.034 35.656L140.522 36.104C140.48 36.2533 140.448 36.4133 140.426 36.584C140.384 36.7333 140.362 36.872 140.362 37C140.362 37.2987 140.458 37.5333 140.65 37.704C140.821 37.8533 141.12 37.928 141.546 37.928H148.427V41.032H140.362ZM139.425 34.768V33.456C139.638 33.392 139.905 33.296 140.225 33.168C140.523 33.04 140.79 32.8693 141.025 32.656C141.259 32.4427 141.377 32.176 141.377 31.856C141.377 31.6213 141.313 31.44 141.185 31.312C141.035 31.1627 140.854 31.088 140.641 31.088C140.491 31.088 140.331 31.12 140.161 31.184C139.969 31.2267 139.819 31.3013 139.713 31.408L139.137 29.552C139.521 29.2533 140.001 29.0613 140.577 28.976C141.131 28.8693 141.611 28.816 142.017 28.816C142.827 28.816 143.489 28.9867 144.001 29.328C144.491 29.648 144.737 30.1813 144.737 30.928C144.737 31.248 144.673 31.5787 144.545 31.92C144.395 32.2613 144.107 32.5387 143.681 32.752L143.457 32.08H148.225V34.768H139.425ZM153.217 61L148.129 43.464H152.961L156.833 57.128H157.025C157.366 57.128 157.686 57.032 157.985 56.84C158.283 56.648 158.539 56.392 158.753 56.072C159.179 55.4747 159.499 54.7707 159.713 53.96C159.926 53.128 160.033 52.3067 160.033 51.496C160.033 50.0667 159.755 48.968 159.201 48.2C158.667 47.432 157.921 47.048 156.961 47.048C156.769 47.048 156.587 47.0587 156.417 47.08C156.267 47.1013 156.129 47.144 156.001 47.208L155.105 43.528C155.595 43.3787 156.054 43.2933 156.481 43.272C156.929 43.2293 157.291 43.208 157.569 43.208C158.699 43.208 159.681 43.3573 160.513 43.656C161.345 43.9547 162.059 44.4027 162.657 45C163.403 45.7253 163.958 46.632 164.321 47.72C164.705 48.808 164.897 50.0347 164.897 51.4C164.897 53.128 164.619 54.6427 164.065 55.944C163.531 57.224 162.881 58.2373 162.113 58.984C161.473 59.6027 160.662 60.0933 159.681 60.456C158.721 60.8187 157.398 61 155.713 61H153.217ZM168.778 61V43.464H173.514V50.024H173.642L179.082 43.464H184.362V43.624L173.514 55.656V61H168.778ZM179.498 61V55.208C179.498 54.0773 179.167 53.2667 178.506 52.776C177.866 52.264 176.927 52.008 175.69 52.008L178.506 48.68C179.786 48.68 180.853 48.936 181.706 49.448C182.559 49.96 183.199 50.6533 183.626 51.528C184.074 52.3813 184.298 53.3627 184.298 54.472V61H179.498ZM198.732 61.32C197.218 61.32 195.991 61.032 195.052 60.456C194.135 59.88 193.484 59.144 193.1 58.248H192.844L192.332 61H188.684V43.464H193.484V51.848C193.484 53.064 193.623 54.0667 193.9 54.856C194.178 55.624 194.583 56.2 195.116 56.584C195.65 56.968 196.29 57.16 197.036 57.16C197.932 57.16 198.615 56.8933 199.084 56.36C199.554 55.8267 199.788 54.9733 199.788 53.8V43.464H204.588V54.856C204.588 56.2427 204.364 57.416 203.916 58.376C203.49 59.336 202.839 60.072 201.964 60.584C201.09 61.0747 200.012 61.32 198.732 61.32ZM215.388 61.32C213.66 61.32 212.284 60.9467 211.26 60.2C210.236 59.432 209.5 58.3867 209.052 57.064C208.604 55.72 208.38 54.184 208.38 52.456C208.38 50.6 208.582 49.064 208.988 47.848C209.414 46.6107 210.012 45.6507 210.78 44.968C211.548 44.264 212.454 43.7733 213.5 43.496C214.566 43.1973 215.729 43.048 216.988 43.048C218.908 43.048 220.444 43.3147 221.596 43.848C222.748 44.3813 223.58 45.1387 224.092 46.12C224.625 47.1013 224.892 48.2533 224.892 49.576V61H220.092V49.96C220.092 48.9573 219.846 48.2 219.356 47.688C218.886 47.1547 218.097 46.888 216.988 46.888C216.241 46.888 215.58 47.048 215.004 47.368C214.449 47.6667 214.012 48.2107 213.692 49C213.393 49.7893 213.244 50.92 213.244 52.392C213.244 53.3947 213.34 54.28 213.532 55.048C213.724 55.816 214.033 56.4133 214.46 56.84C214.908 57.2667 215.505 57.48 216.252 57.48C216.486 57.48 216.71 57.4693 216.924 57.448C217.158 57.4053 217.361 57.3627 217.532 57.32L217.98 60.904C217.638 61.0533 217.222 61.16 216.732 61.224C216.262 61.288 215.814 61.32 215.388 61.32Z" fill="#0E2B81"/>
<path d="M324.516 67.9893H276.053C274.76 67.9893 273.702 68.6306 273.702 69.4145C273.702 69.9576 274.21 70.4312 274.95 70.6719H271.351C270.058 70.6719 269 71.3133 269 72.0972C269 72.881 270.058 73.5224 271.351 73.5224H272.605C272.255 73.7718 272.043 74.0933 272.043 74.4444V75.0145C272.043 75.7983 273.101 76.4397 274.394 76.4397H322.248C323.541 76.4397 324.599 75.7983 324.599 75.0145V74.4444C324.599 73.6605 323.541 73.0192 322.248 73.0192L319.51 73.0505C319.718 73.0505 320.057 72.9505 320.284 72.7507C320.683 72.3987 320.7 71.8643 320.506 71.4211C320.38 71.1343 320.178 70.9066 319.676 70.8205L324.516 70.8397C325.808 70.8397 326.867 70.1983 326.867 69.4145C326.867 68.6306 325.808 67.9893 324.516 67.9893Z" fill="#D1E2F8"/>
<path d="M282.168 42.1776L287.863 45.8953L292.273 41.9082L293.032 42.8103L289.427 48.0314L287.578 48.7431L282.931 46.7974L282.168 42.1776Z" fill="#1D203D"/>
<path d="M292.394 42.2141L292.27 40.7863L292.982 40.1406L294.646 40.5821L294.465 41.5684L292.757 42.7468L292.394 42.2141Z" fill="#DD8B7C"/>
<path d="M287.785 56.9375V62.8669L286.17 72.434H284.599L284.958 63.9897L283.926 57.0722L287.785 56.9375Z" fill="#1D203D"/>
<path d="M284.764 43.2769L281.417 42.1523C281.417 42.1523 280.408 45.1114 279.333 49.8215C278.258 54.5317 280.515 60.3324 280.515 60.3324C280.515 60.3324 287.927 58.1416 289.41 57.7662L287.074 49.3879L284.764 43.2769Z" fill="#252549"/>
<path d="M284.886 57.8687L279.98 72.4058L278.332 72.1042L279.85 63.9632L279.98 55.5684L284.886 57.8687Z" fill="#1D203D"/>
<path d="M282.025 37.4541C281.266 38.0311 280.096 37.8608 279.417 38.5334C278.976 38.9706 278.867 39.6849 279.043 40.2967C279.124 40.5817 279.267 40.8572 279.492 41.0475C279.637 41.1709 279.812 41.2544 279.992 41.3117C280.232 41.3891 280.484 41.4195 280.734 41.4056C280.738 41.6315 280.723 41.8575 280.687 42.0808C281.146 41.9826 281.806 42.7178 282.265 42.6196C282.209 42.3554 281.952 41.2578 281.895 40.9937C282.002 40.9154 282.102 40.8285 282.191 40.7303C282.734 40.1368 282.903 39.213 282.612 38.4439C282.474 38.0833 282.25 37.7652 282.025 37.4541Z" fill="#DD8B7C"/>
<path d="M281.981 37.8263L279.327 39.1351L280.071 41.3302L279.017 41.2303L277.375 37.9141L280.803 35.5781L282.882 35.4834L283.394 36.4107L282.637 38.193L281.981 37.8263Z" fill="#252549"/>
<path d="M283.534 42.5474L280.186 41.4229C280.186 41.4229 279.177 44.3819 278.103 49.092C277.028 53.8022 279.284 59.6029 279.284 59.6029C279.284 59.6029 285.822 55.9191 287.306 55.5437L285.844 48.6584L283.534 42.5474Z" fill="white"/>
<path d="M285.324 48.9369C285.506 49.5539 285.703 50.2491 285.609 50.8627C285.609 50.8627 285.246 51.7395 285.209 51.7065C285.206 51.6795 284.721 51.3206 284.575 51.0408C284.327 50.5646 284.247 49.9571 284.212 49.407C284.09 47.4535 284.1 45.4764 283.667 43.568C283.276 43.4716 282.932 43.2065 283.146 42.792C283.909 43.0353 284.078 44.716 284.279 45.3956C284.627 46.5757 284.975 47.7559 285.323 48.936L285.324 48.9369Z" fill="#81A7D8"/>
<path d="M286.168 72.4346L287.559 73.0542V73.4409L285.989 73.5574L284.553 73.3636L284.598 72.4346H286.168Z" fill="#252549"/>
<path d="M279.759 72.3459L280.352 73.2975L280.753 73.831L280.227 74.1952L279.013 73.705L278.107 72.5805L278.388 72.0947L279.759 72.3459Z" fill="#252549"/>
<path d="M278.04 49.1748C279.111 44.3952 280.118 41.3936 280.118 41.3936L283.466 42.5381L283.472 42.5546C283.41 42.751 283.344 42.9465 283.289 43.1446C283.071 43.9285 282.922 44.7306 282.847 45.5423C282.716 46.9684 282.772 48.424 282.894 49.8492C283.01 51.2171 283.223 52.5762 283.535 53.9119C283.947 55.6778 284.545 57.388 285.286 59.0348C282.272 59.8283 278.724 60.7659 278.724 60.7659C278.724 60.7659 276.969 53.9545 278.039 49.1748H278.04Z" fill="#252549"/>
<path d="M293.861 46.7925L293.17 45.8331V45.1301L293.605 44.9736L293.95 45.5315L294.095 45.5428L294.307 46.5136L293.861 46.7925Z" fill="#F6C6B0"/>
<path d="M296.523 49.3052L294.338 46.3027L293.74 46.7451L295.606 51.6038L297.023 51.0763L296.523 49.3052Z" fill="#A1C2E7"/>
<path d="M297.427 44.582L295.988 50.9946L298.35 51.6038L298.083 44.7306L297.427 44.582Z" fill="#A1C2E7"/>
<path d="M298.501 43.0569C298.637 43.4471 298.717 43.8998 298.509 44.2561C298.401 44.4404 298.229 44.5759 298.083 44.7306C297.936 44.8853 297.808 45.0826 297.826 45.2955C297.862 45.7317 298.432 45.8899 298.671 46.2566C298.988 46.7415 298.641 47.4246 298.871 47.9564C299.025 48.3119 299.416 48.5204 299.803 48.55C300.188 48.5795 300.569 48.4596 300.928 48.3127C301.285 48.1659 301.634 47.9895 302.01 47.8982C302.714 47.727 303.45 47.8652 304.174 47.9017C304.897 47.9382 305.694 47.8391 306.195 47.3142C306.451 47.044 306.602 46.6181 306.416 46.294C306.263 46.0272 305.931 45.9029 305.781 45.6344C305.597 45.3016 305.759 44.8931 305.905 44.5429C306.052 44.1927 306.172 43.7547 305.931 43.461C305.686 43.1611 305.223 43.202 304.844 43.2811C304.464 43.3602 304.015 43.4314 303.736 43.162C303.443 42.8787 303.524 42.4016 303.459 41.9993C303.345 41.2953 302.724 40.7548 302.041 40.5488C301.359 40.3429 300.626 40.4133 299.924 40.5332C299.542 40.5984 299.154 40.6809 298.826 40.8869C298.481 41.1033 298.308 41.4187 298.223 41.8072C298.131 42.2287 298.367 42.6675 298.502 43.0577L298.501 43.0569Z" fill="#252549"/>
<path d="M298.344 64.7278L298.431 65.9844L299.204 72.1293L298.431 72.8141C298.431 72.8141 298.344 73.3833 299 73.3398C299.195 73.3268 299.886 72.4473 299.886 72.4473L299.787 72.0441L300.273 67.4504L300.268 66.1165L300.501 64.6348L298.344 64.7286V64.7278Z" fill="#F6C6B0"/>
<path d="M300.969 63.9943L301.402 65.755L304.664 72.1997C304.664 72.1997 304.154 73.0913 304.478 73.1695C304.802 73.2469 305.355 73.1374 305.357 72.1302C304.984 70.9101 303.913 66.6075 303.913 66.6075L303.226 65.5386L303.236 63.5303L300.97 63.9952L300.969 63.9943Z" fill="#F6C6B0"/>
<path d="M304.782 57.9378C304.809 57.4042 304.639 56.0129 304.464 55.514C303.826 53.6952 303.703 52.7992 303.703 51.3192C303.703 49.8393 303.827 45.1457 303.827 45.1457L302.343 43.876L299.347 43.8525L297.83 44.3531C297.83 44.3531 297.508 50.2573 297.417 52.1605C297.352 53.5187 297.258 54.6945 297.134 56.2684C297.134 56.2684 296.786 59.8574 297.324 63.7046C297.324 63.7046 297.443 64.9821 297.497 65.0942C297.504 65.1324 297.508 65.1524 297.508 65.1524H297.53H303.605V62.9599C303.808 62.256 303.999 61.5494 304.183 60.8403C304.417 59.9391 304.729 58.9267 304.781 57.936L304.782 57.9378Z" fill="#A1C2E7"/>
<path d="M304.213 44.1383L304.429 45.1021C304.429 45.1021 303.745 50.3745 303.704 51.3182C303.662 52.2611 304.876 56.031 304.876 56.031L299.846 56.6879C299.846 56.6879 299.106 52.6626 298.893 50.663C298.681 48.6633 301.724 43.7881 301.724 43.7881L304.213 44.1392V44.1383Z" fill="#81A7D8"/>
<path d="M298.455 44.094L297.429 44.5815C297.429 44.5815 297.573 50.59 297.31 52.116C297.15 53.0459 296.525 56.0588 296.525 56.0588L298.15 56.615C298.15 56.615 299.15 52.8469 299.349 50.8472C299.547 48.8476 299.331 43.875 299.331 43.875L298.456 44.094H298.455Z" fill="#81A7D8"/>
<path d="M298.657 41.8927C298.523 42.4089 298.83 42.9191 299.097 43.3544C299.206 43.5326 299.376 43.7803 299.235 43.9827C299.077 44.2104 298.685 44.1644 298.512 43.9949C298.39 43.875 298.33 43.7125 298.278 43.5534C298.046 42.8426 297.72 41.8467 297.783 41.0993C297.835 40.4997 298.568 39.436 299.325 39.8166C299.462 39.8861 299.551 40.0156 299.626 40.1434C299.671 40.2199 299.714 40.2998 299.723 40.3867C299.758 40.7334 299.424 40.823 299.205 41.0098C298.934 41.2401 298.742 41.5642 298.657 41.8936V41.8927Z" fill="#252549"/>
<path d="M299.919 43.7462C299.413 43.6819 298.992 43.3282 298.766 42.9033C298.54 42.4774 298.486 41.9882 298.495 41.5111C298.525 39.9225 300.629 39.8338 301.448 40.9757C302.16 41.9708 301.388 43.9339 299.92 43.7471L299.919 43.7462Z" fill="#F6C6B0"/>
<path d="M301.356 41.7259C301.373 41.9179 301.471 42.1221 301.498 42.3203C301.548 42.6844 301.466 43.1563 301.6 43.4891C301.969 43.4387 302.418 43.2076 302.691 42.9538C302.971 42.6948 302.92 42.3099 302.983 41.9283C303.041 41.5755 303.114 41.221 303.094 40.8638C302.984 38.9093 301.036 37.8413 299.319 38.7225C298.67 39.0562 298.386 39.9035 298.864 40.4606C299.378 41.0593 300.421 40.7995 301.036 41.2444C301.173 41.3426 301.278 41.5199 301.357 41.7259H301.356Z" fill="#252549"/>
<path d="M299.873 43.582C299.899 43.7002 299.924 43.8184 299.951 43.9366C299.963 43.9904 299.957 44.146 300.004 44.1834C300.029 44.2025 300.065 44.1999 300.096 44.1955C300.188 44.1842 301.004 44.0799 300.996 44.0278C300.972 43.8888 300.945 43.7515 300.902 43.6185C300.867 43.5107 300.853 43.3083 300.788 43.2266C300.649 43.3213 300.506 43.3804 300.343 43.4264C300.185 43.4708 300.027 43.5133 299.867 43.5524C299.869 43.562 299.872 43.5707 299.873 43.5803V43.582Z" fill="#F6C6B0"/>
<path d="M299.833 72.1602C299.852 72.2384 299.977 72.8519 299.977 72.8519L299.059 73.7105H298.438L298.068 73.3724V73.0978L299.128 72.2123L299.833 72.1602Z" fill="#252549"/>
<path d="M304.406 72.5887L304.02 73.7549L304.406 73.9235L304.766 73.7827L305.481 72.812L305.593 72.48L305.38 72.1924L304.406 72.5887Z" fill="#252549"/>
<path d="M305.645 50.2371L302.976 47.345L302.17 43.9063L301.721 43.7881L304.21 44.1392L304.783 45.4601L308.092 49.495L308.085 49.5193C307.063 49.6019 306.667 50.0885 305.645 50.238L305.645 50.2371Z" fill="#A1C2E7"/>
<path d="M313.95 72.1688L314.976 72.8962L315.318 73.4524C315.318 73.4524 314.934 73.6236 314.719 73.6662C314.505 73.7088 312.838 73.4524 312.838 73.4524V72.4678L313.95 72.168V72.1688Z" fill="#252549"/>
<path d="M308.601 72.6604L309.087 73.2792C309.087 73.2792 309.463 74.1004 309.251 74.0743C309.038 74.0491 307.876 74.0396 307.807 73.9014C307.738 73.7641 307.152 73.2627 307.076 73.1671C307.001 73.0723 307.13 72.3311 307.13 72.3311L308.601 72.6596V72.6604Z" fill="#252549"/>
<path d="M312.335 57.9766L310.745 65.1582L308.6 72.6614L307.113 72.4833L307.898 64.4726C307.898 64.4726 307.28 57.0267 307.412 54.8438L312.335 57.9766Z" fill="#1D203D"/>
<path d="M315.616 57.7423L314.333 72.468H312.794L312.323 64.9335L311.439 58.2638L314.803 54.3184L315.616 57.7423Z" fill="#1D203D"/>
<path d="M314.681 49.1182C313.624 45.2501 314.524 43.2948 312.693 42.3189C312.693 42.3189 310.547 41.3577 308.803 42.7882C308.779 42.8082 308.756 42.8281 308.731 42.8481L307.383 44.6296L306.447 54.4392C306.563 58.5063 306.391 59.0929 307.144 59.1103C307.996 59.1303 309.994 57.9249 310.737 57.9206C311.479 57.9162 316.449 57.9866 317.63 56.4502C318.811 54.9137 315.738 52.9862 314.681 49.1182H314.681Z" fill="#252549"/>
<path d="M310.665 42.3281L310.108 42.3855L310.088 42.9512L312.506 48.5591L312.806 46.0424L312.072 42.462L310.665 42.3281Z" fill="white"/>
<path d="M312.75 46.502C312.731 46.2752 312.707 46.0727 312.678 45.9093C312.476 44.7787 311.568 43.344 311.568 43.344C311.568 43.344 311.492 43.0224 311.462 42.7409L310.779 42.6748L310.868 43.3778L311.179 43.6638C311.179 43.6638 312.061 46.3299 312.144 47.4171C312.153 47.5309 312.159 47.6483 312.162 47.7673L312.503 48.5581L312.748 46.502H312.75Z" fill="#EE7389"/>
<path d="M312.926 50.5293L312.508 57.0479L314.181 57.0418L315.332 56.9488L313.559 51.4661L312.926 50.5293Z" fill="white"/>
<path d="M311.584 42.442C311.21 42.5254 310.835 42.6097 310.46 42.6932C310.361 42.4038 310.285 42.1057 310.233 41.8041C309.896 41.7981 309.494 41.7537 309.337 41.4548C309.288 41.3609 309.271 41.2532 309.255 41.148C309.191 40.7135 308.991 40.2973 309.062 39.8436C309.085 39.6933 309.018 39.5377 309.054 39.3909C309.119 39.1319 309.352 38.952 309.586 38.826C310.186 38.5053 310.925 38.4141 311.556 38.6678C311.723 38.7356 311.887 38.8295 311.998 38.9729C312.17 39.1927 312.193 39.4908 312.21 39.7697C312.226 40.027 312.243 40.2842 312.258 40.5414C312.276 40.8378 312.276 41.1811 312.047 41.3696C311.926 41.4696 311.756 41.5087 311.657 41.6303C311.481 41.845 311.62 42.1665 311.583 42.4411L311.584 42.442Z" fill="#F2CDAC"/>
<path d="M312.189 36.5308C312.103 36.5386 312.015 36.5438 311.92 36.5299C311.62 36.4856 311.37 36.3022 311.055 36.2692C310.42 36.2031 309.706 36.4299 309.205 36.821C308.725 37.1947 308.011 37.4823 307.609 37.9186C307.441 38.1011 307.336 38.334 307.274 38.5738C307.057 39.4055 307.366 40.3501 308.032 40.8924C308.181 41.0141 308.346 41.1157 308.513 41.2096C308.862 41.4034 309.283 41.6459 309.669 41.6328C309.573 41.3139 308.957 40.4127 309.114 40.0729C309.323 39.6228 309.928 39.4698 310.37 39.3933C310.898 39.303 311.278 39.0231 311.798 38.9102C312.062 38.8528 312.372 38.8259 312.528 38.6025C312.707 38.3453 313.03 37.5944 313.073 37.2912C313.11 37.0261 312.963 36.7515 312.736 36.6107C312.54 36.489 312.37 36.5151 312.189 36.5308Z" fill="#252549"/>
<path d="M313.33 42.8049L315.909 45.2764L318.565 42.333L319.514 43.4723L316.716 47.887H315.625L313.729 46.7955L313.33 42.8049Z" fill="#1F2241"/>
<path d="M326.215 33.9561C322.602 35.4265 320.392 34.0134 320.09 33.8005C320.09 33.8005 320.08 33.7753 320.071 33.7875C320.059 33.7788 320.059 33.8057 320.059 33.8057C319.847 34.1082 318.246 36.1878 314.35 36.0313C314.35 36.0313 314.954 42.894 317.624 45.27C320.476 47.8075 322.605 48.3533 322.613 48.3437C322.625 48.3498 324.462 47.128 326.265 43.7587C327.953 40.6068 326.216 33.9561 326.216 33.9561H326.215Z" fill="#44529F"/>
<path d="M325.788 34.7472C322.507 36.0673 320.506 34.815 320.233 34.6264C320.233 34.6264 320.224 34.6047 320.216 34.6151C320.206 34.6073 320.205 34.6316 320.205 34.6316C320.012 34.9019 318.554 36.759 315.02 36.6304C315.02 36.6304 315.547 42.7423 317.962 44.8506C320.542 47.1022 322.497 47.7436 322.505 47.7357C322.515 47.7409 324.158 46.4861 325.803 43.4792C327.343 40.6662 325.787 34.7472 325.787 34.7472H325.788Z" fill="#4B5EA7"/>
<path d="M320.307 35.2257C320.307 35.2257 320.307 35.2005 320.319 35.2091C320.327 35.1978 320.337 35.2213 320.337 35.2213C320.617 35.4151 322.638 36.6795 325.956 35.4247C325.832 34.8137 325.733 34.4357 325.733 34.4357C322.452 35.7558 320.451 34.5035 320.178 34.3149C320.178 34.3149 320.169 34.2932 320.161 34.3036C320.151 34.2958 320.15 34.3201 320.15 34.3201C319.957 34.5904 318.499 36.4475 314.965 36.3189C314.965 36.3189 314.999 36.7082 315.088 37.3252C318.636 37.38 320.109 35.5037 320.308 35.2265L320.307 35.2257Z" fill="#5364AC"/>
<g opacity="0.34">
<path d="M325.066 36.5965C322.59 37.6046 320.756 36.6278 320.55 36.4818C320.55 36.4818 320.543 36.4644 320.537 36.4731C320.53 36.4671 320.529 36.4853 320.529 36.4853C320.384 36.693 319.006 38.2277 316.334 38.1199C316.334 38.1199 317.028 42.7162 318.858 44.3448C320.814 46.0846 322.273 46.4583 322.279 46.4522C322.287 46.4565 323.546 45.6188 324.783 43.3089C325.94 41.1476 325.066 36.5965 325.066 36.5965H325.066Z" fill="white"/>
</g>
<path d="M308.513 43.1396L307.375 44.6109L307.232 46.1778L311.134 50.7532C311.22 50.589 318.558 47.8611 318.558 47.8611L317.964 46.4333L311.705 48.0792L308.512 43.1405L308.513 43.1396Z" fill="#1F2241"/>
<path d="M318.054 46.6435C318.037 46.5566 318.228 45.7936 318.228 45.7936L319.359 45.2695L319.93 45.7762L319.154 46.4323L319.124 46.7895L318.345 47.3448L318.054 46.6443V46.6435Z" fill="#F2CDAC"/>
<path d="M298.536 49.7504C297.404 49.6583 295.979 50.2632 295.64 51.2304C295.299 50.2632 293.563 49.667 292.431 49.76C289.444 50.0033 288.432 53.3387 289.699 55.5808C290.38 56.7878 291.361 57.8428 292.429 58.7909C293.324 59.5844 295.633 61.2677 295.64 61.2616C295.646 61.2677 297.955 59.5844 298.85 58.7909C299.918 57.8437 300.899 56.7878 301.58 55.5808C302.847 53.3378 301.523 49.9938 298.536 49.7504Z" fill="#243286"/>
<g style="mix-blend-mode:multiply" opacity="0.12">
<path d="M300.999 55.8643C300.254 56.7646 299.392 57.6102 298.456 58.3358C297.55 59.038 296.49 59.6489 295.323 59.8531C294.762 59.9513 294.213 59.9374 293.693 59.8184C294.647 60.5544 295.681 61.307 295.687 61.3036C295.694 61.3096 298.002 59.6263 298.897 58.8329C299.966 57.8857 300.946 56.8298 301.627 55.6227C301.848 55.2325 301.989 54.8084 302.058 54.373C301.748 54.8953 301.388 55.3924 300.998 55.8652L300.999 55.8643Z" fill="#010101"/>
</g>
<path d="M300.948 54.9166C300.166 54.9366 299.384 54.9566 298.601 54.9766C298.318 53.9485 298.035 52.9205 297.752 51.8924C297.712 51.7438 297.491 51.7551 297.444 51.8924C296.838 53.6817 296.233 55.4711 295.627 57.2604C295.592 57.3638 295.557 57.4681 295.522 57.5715C295.111 56.3931 294.698 55.2156 294.287 54.0372C294.221 53.8486 294.155 53.6591 294.089 53.4706C294.049 53.3567 293.861 53.3115 293.797 53.4349C293.498 54.0076 293.198 54.5795 292.9 55.1521H290.273C290.068 55.1521 290.068 55.4528 290.273 55.4528H292.998C293.051 55.4528 293.112 55.425 293.137 55.3781C293.393 54.888 293.65 54.397 293.906 53.9068C294.328 55.1156 294.75 56.3236 295.173 57.5324C295.239 57.721 295.305 57.9104 295.371 58.099C295.421 58.2407 295.631 58.2433 295.679 58.099C296.285 56.3097 296.89 54.5204 297.496 52.731C297.525 52.6459 297.554 52.5598 297.583 52.4747C297.83 53.3732 298.078 54.2718 298.325 55.1704C298.343 55.233 298.41 55.2825 298.479 55.2808C299.302 55.2599 300.125 55.239 300.949 55.2182C301.154 55.213 301.155 54.9123 300.949 54.9175L300.948 54.9166Z" fill="white"/>
<path d="M291.97 24.4521V24.0297L292.165 23.6317C292.213 23.5769 292.315 23.5787 292.359 23.636L292.521 24.0306V24.4529C292.675 24.4529 292.924 24.5729 292.924 24.7215C292.924 24.8701 292.8 24.99 292.646 24.99H292.521V39.3151C292.521 40.1232 292.948 40.7959 293.561 40.7811C294.036 40.7698 294.451 40.3657 294.521 39.7052C294.536 39.5592 294.66 39.4463 294.812 39.4463H294.824C294.999 39.4463 295.137 39.5949 295.115 39.7635C294.994 40.702 294.25 41.3738 293.543 41.3738C292.991 41.3738 292.539 41.1174 292.275 40.656C291.948 40.0841 291.969 39.4558 291.969 38.8293V24.9891H291.883C291.73 24.9891 291.605 24.8692 291.605 24.7206C291.605 24.572 291.816 24.4521 291.969 24.4521H291.97Z" fill="#252549"/>
<path opacity="0.26" d="M291.971 32.4814L292.529 31.9009V30.9424H291.971V32.4814Z" fill="#010101"/>
<path d="M295.833 32.3242L295.747 31.7967C295.45 29.9691 294.748 28.2311 293.693 26.7094L292.359 24.7871C295.606 24.9244 298.39 26.8519 299.753 29.6093C300.169 30.4506 300.452 31.3691 300.575 32.3381C299.873 32.1278 299.059 32.007 298.188 32.007C297.317 32.007 296.533 32.1226 295.832 32.3242H295.833Z" fill="#81A7D8"/>
<path d="M288.855 31.2641L288.627 32.3973H288.541C287.798 32.1514 286.918 32.008 285.97 32.008C285.023 32.008 284.14 32.1496 283.389 32.3947C283.539 31.1581 283.949 30.0014 284.562 28.982C286.078 26.4645 288.834 24.7803 291.985 24.7803C292.078 24.7803 292.17 24.782 292.262 24.7855L291.197 26.3445C289.891 27.9531 289.291 29.5817 288.855 31.2641Z" fill="#81A7D8"/>
<path d="M295.744 31.7972L295.83 32.3247C295.822 32.3273 295.814 32.3291 295.807 32.3317C294.908 31.9319 293.676 31.7016 292.316 31.7016C290.882 31.7016 289.59 31.9563 288.678 32.396H288.627L288.855 31.2628C289.291 29.5803 289.891 27.9509 291.197 26.3432L292.262 24.7842C292.294 24.785 292.325 24.7868 292.357 24.7877L293.691 26.7099C294.746 28.2307 295.448 29.9688 295.745 31.7972H295.744Z" fill="#A1C2E7"/>
<path d="M295.832 32.3252L295.834 32.344C295.825 32.3404 295.816 32.3359 295.807 32.3324C295.815 32.3297 295.823 32.3279 295.831 32.3252H295.832Z" fill="white"/>
<path d="M295.951 32.3967H295.845L295.836 32.3428C295.875 32.3602 295.912 32.3784 295.951 32.3967Z" fill="white"/>
<path d="M295.835 32.3433L295.843 32.3972H295.598C295.667 32.3746 295.737 32.3529 295.809 32.332C295.817 32.3355 295.826 32.3399 295.835 32.3433Z" fill="white"/>
<path d="M293.811 28.5463H292.712V27.4253C292.712 27.3584 292.656 27.3027 292.59 27.3027H291.941C291.875 27.3027 291.819 27.3592 291.819 27.4253V28.5463H290.719C290.653 28.5463 290.598 28.6028 290.598 28.6688V29.3302C290.598 29.3641 290.61 29.3936 290.632 29.4162C290.654 29.4405 290.684 29.4536 290.719 29.4536H291.819V30.5746C291.819 30.6415 291.875 30.6972 291.941 30.6972H292.59C292.623 30.6972 292.653 30.685 292.675 30.6615C292.699 30.6398 292.712 30.6085 292.712 30.5738V29.4527H293.811C293.877 29.4527 293.933 29.3962 293.933 29.3302V28.6688C293.933 28.6019 293.877 28.5463 293.811 28.5463Z" fill="white"/>
<path d="M280.805 43.5762L282.541 43.8682L283.488 49.7393L288.733 50.8021L288.479 52.1969L281.902 51.8945L279.375 46.7612L279.576 44.7589L280.805 43.5762Z" fill="#1D203D"/>
<path d="M288.688 51.0533C288.765 51.0446 289.804 50.2764 289.804 50.2764L291.201 50.6674L290.888 51.5391L289.952 51.5816L289.691 51.8754L288.559 51.7676L288.689 51.0541L288.688 51.0533Z" fill="#DD8B7C"/>
<path d="M306.672 49.4193C306.672 49.4193 307.003 49.3246 308.098 49.521L307.875 51.0635L302.2 52.3045L301.662 51.4676L306.672 49.4193Z" fill="#A1C2E7"/>
<path d="M302.049 51.4531L301.435 51.4375L301.449 51.8051L300.803 52.2822L301.44 52.6976L302.258 52.2744L302.049 51.4531Z" fill="#F6C6B0"/>
</svg>
