<svg width="42" height="42" viewBox="0 0 42 42" fill="none" xmlns="http://www.w3.org/2000/svg">
<path d="M7.07333 27.9596L8.87353 27.2374C10.0315 26.7433 11.0233 26.8983 12.0517 27.0587C12.5277 27.133 13.0145 27.2094 13.534 27.2094H20.8801C21.5051 27.2094 22.0741 27.4661 22.4866 27.8778C22.8847 28.2771 23.1369 28.8191 23.1557 29.4159H24.9812L38.1162 22.6946C38.6707 22.411 39.2919 22.3512 39.8486 22.5003C40.3994 22.6483 40.8931 22.9998 41.2034 23.5385L41.7101 24.4179C42.0108 24.9539 42.0705 25.5636 41.922 26.1169C41.7714 26.6793 41.4057 27.1868 40.8641 27.5L24.545 37.0812C24.4815 37.1183 24.4127 37.1383 24.3438 37.1426L9.94332 38.0505L7.07333 40.0089V40.7204C7.07333 40.9717 6.86894 41.1762 6.61777 41.1762H5.20913V41.5433C5.20913 41.7946 5.00474 41.9991 4.75356 41.9991H0.455563C0.204385 41.9991 0 41.7946 0 41.5433V26.9344C0 26.683 0.204385 26.4785 0.455563 26.4785H4.75356C5.00474 26.4785 5.20913 26.683 5.20913 26.9344V27.3014H6.61777C6.86894 27.3014 7.07333 27.5059 7.07333 27.7573V27.9596ZM29.9569 21.9051V22.1597C29.9569 22.411 29.7525 22.6155 29.5013 22.6155C29.2502 22.6155 29.0458 22.411 29.0458 22.1597V21.9051C28.8581 21.8362 28.6892 21.7248 28.5509 21.5838C28.3095 21.3373 28.1599 20.9988 28.1599 20.6264C28.1599 20.375 28.3643 20.1705 28.6155 20.1705C28.8667 20.1705 29.0711 20.375 29.0711 20.6264C29.0711 20.7528 29.12 20.8664 29.1985 20.9466C29.2749 21.0246 29.383 21.0741 29.5013 21.0741C29.6191 21.0741 29.7267 21.0252 29.8036 20.9466C29.8821 20.8664 29.9316 20.7528 29.9316 20.6264C29.9316 20.2793 29.5917 20.0548 29.2523 19.8309C28.7064 19.4709 28.1599 19.1103 28.1599 18.2783C28.1599 17.9059 28.31 17.5663 28.5509 17.3209C28.6892 17.1799 28.8581 17.0685 29.0458 16.9996V16.745C29.0458 16.4937 29.2502 16.2892 29.5013 16.2892C29.7525 16.2892 29.9569 16.4937 29.9569 16.745V16.9996C30.1446 17.0685 30.3135 17.1799 30.4517 17.3209C30.6932 17.5674 30.8428 17.9059 30.8428 18.2783C30.8428 18.5296 30.6384 18.7341 30.3872 18.7341C30.136 18.7341 29.9316 18.5296 29.9316 18.2783C29.9316 18.1518 29.8827 18.0383 29.8042 17.9581C29.7272 17.8795 29.6197 17.8305 29.5013 17.8305C29.383 17.8305 29.2749 17.8801 29.1985 17.9581C29.1205 18.0377 29.0711 18.1518 29.0711 18.2783C29.0711 18.6249 29.411 18.8498 29.7504 19.0732C30.2958 19.4332 30.8428 19.7944 30.8428 20.6264C30.8428 20.9983 30.6932 21.3379 30.4512 21.5838C30.313 21.7248 30.1446 21.8362 29.9569 21.9051ZM29.5013 14.3329C30.9143 14.3329 32.1933 14.9061 33.119 15.8323C34.0446 16.7585 34.6174 18.0383 34.6174 19.4521C34.6174 20.8659 34.0446 22.1457 33.119 23.0719C32.1933 23.9981 30.9143 24.5712 29.5013 24.5712C28.7736 24.5712 28.0814 24.4195 27.4548 24.1455V25.4818C27.4548 25.7332 27.2504 25.9377 26.9992 25.9377H13.3609C13.1097 25.9377 12.9053 25.7332 12.9053 25.4818C12.9053 22.1478 12.9053 18.8143 12.9053 15.4803C12.9053 14.3534 13.3668 13.3281 14.1085 12.5854C14.8529 11.8411 15.8775 11.3794 17.0037 11.3794H23.3563C24.4853 11.3794 25.5126 11.8433 26.2554 12.5941C26.8336 13.1791 27.2413 13.9373 27.3913 14.7871C28.0346 14.4954 28.7489 14.3329 29.5013 14.3329ZM26.5437 23.63C26.3081 23.4626 26.0876 23.2758 25.8837 23.0719C24.9581 22.1457 24.3853 20.8659 24.3853 19.4521C24.3853 18.0383 24.9581 16.7585 25.8837 15.8323C26.0849 15.631 26.3033 15.4459 26.5356 15.2801C26.4791 14.4804 26.1349 13.7646 25.611 13.2345C25.0339 12.6511 24.2352 12.2911 23.3563 12.2911H19.0691L18.4947 18.9962H20.7515C21.0027 18.9962 21.2071 19.2007 21.2071 19.4521V22.8754C21.2071 23.1268 21.0027 23.3313 20.7515 23.3313H13.8164V25.026H26.5437V23.63ZM32.4746 16.477C31.7141 15.716 30.662 15.2446 29.5013 15.2446C28.3406 15.2446 27.2886 15.716 26.5281 16.477C25.7675 17.238 25.2964 18.2907 25.2964 19.4521C25.2964 20.6135 25.7675 21.6661 26.5281 22.4271C27.2886 23.1881 28.3406 23.6596 29.5013 23.6596C30.662 23.6596 31.7141 23.1881 32.4746 22.4271C33.2351 21.6661 33.7063 20.6135 33.7063 19.4521C33.7063 18.2907 33.2351 17.238 32.4746 16.477ZM10.9179 13.368C10.6667 13.368 10.4624 13.1634 10.4624 12.9121C10.4624 12.6608 10.6667 12.4563 10.9179 12.4563H12.1039C12.3551 12.4563 12.5594 12.6608 12.5594 12.9121C12.5594 13.1634 12.3551 13.368 12.1039 13.368H10.9179ZM11.4192 10.8756C11.2417 10.698 11.2417 10.4085 11.4192 10.2309C11.5967 10.0533 11.8861 10.0533 12.0635 10.2309L12.9021 11.0699C13.0796 11.2475 13.0796 11.5371 12.9021 11.7147C12.7246 11.8923 12.4352 11.8923 12.2577 11.7147L11.4192 10.8756ZM13.5346 9.46777C13.5346 9.21644 13.739 9.01193 13.9901 9.01193C14.2413 9.01193 14.4457 9.21644 14.4457 9.46777V10.6545C14.4457 10.9058 14.2413 11.1103 13.9901 11.1103C13.739 11.1103 13.5346 10.9058 13.5346 10.6545V9.46777ZM20.1803 0.457031C21.5933 0.457031 22.8723 1.03019 23.7979 1.9564C24.7236 2.88261 25.2964 4.1624 25.2964 5.57619C25.2964 6.98999 24.7236 8.26978 23.7979 9.19599C22.8723 10.1222 21.5933 10.6954 20.1803 10.6954C18.7674 10.6954 17.4884 10.1222 16.5627 9.19599C15.6371 8.26978 15.0642 6.98999 15.0642 5.57619C15.0642 4.1624 15.6371 2.88261 16.5627 1.9564C17.4884 1.03019 18.7674 0.457031 20.1803 0.457031ZM23.1536 2.60114C22.393 1.84015 21.341 1.36871 20.1803 1.36871C19.0196 1.36871 17.9676 1.84015 17.2071 2.60114C16.4465 3.36212 15.9754 4.4148 15.9754 5.57619C15.9754 6.73758 16.4465 7.79026 17.2071 8.55125C17.9676 9.31223 19.0196 9.78368 20.1803 9.78368C21.341 9.78368 22.393 9.31223 23.1536 8.55125C23.9141 7.79026 24.3853 6.73758 24.3853 5.57619C24.3853 4.4148 23.9141 3.36212 23.1536 2.60114ZM18.4167 19.9079L18.2015 22.4196H20.296V19.9079H18.4167ZM17.2883 22.4196C17.5776 19.0431 17.8665 15.6676 18.1558 12.2911H17.0037C16.127 12.2911 15.3294 12.65 14.7517 13.227C14.705 13.2738 14.6598 13.3217 14.6162 13.3717L16.2448 22.4196H17.2883ZM15.3235 22.4196L13.9251 14.6542C13.8541 14.9179 13.8164 15.1951 13.8164 15.4803V22.4196H15.3235ZM7.07333 38.9083L9.53402 37.2292C9.5991 37.1845 9.67708 37.1566 9.76153 37.1512L24.1803 36.2427L40.409 26.7132C40.7334 26.5259 40.9528 26.2202 41.0432 25.8822C41.1325 25.5491 41.098 25.1826 40.9205 24.8635L40.4176 23.9932C40.2353 23.6752 39.9427 23.468 39.6141 23.3797C39.2666 23.2871 38.8778 23.3248 38.5292 23.5029L25.3287 30.2576C25.2582 30.3018 25.1754 30.3276 25.0866 30.3276H23.1568V30.4713C23.1568 31.0967 22.9002 31.6661 22.4888 32.0788C22.0741 32.4927 21.5051 32.7494 20.8801 32.7494H13.534C13.2829 32.7494 13.0785 32.5449 13.0785 32.2936C13.0785 32.0422 13.2829 31.8377 13.534 31.8377H20.8801C21.256 31.8377 21.5981 31.6838 21.8455 31.4373C22.0919 31.1898 22.2457 30.8475 22.2457 30.4713V29.4875C22.2457 29.1119 22.0919 28.769 21.8455 28.5215C21.5981 28.275 21.256 28.1211 20.8801 28.1211H13.534C12.972 28.1211 12.4368 28.0371 11.9129 27.9553C11.0158 27.8154 10.1504 27.6798 9.22905 28.0721L7.07333 28.9386V38.9083ZM5.20913 40.2645H6.1622V28.2131H5.20913V40.2645ZM4.298 27.3902H0.911126V41.0874H4.298C4.298 36.5215 4.298 31.9561 4.298 27.3902Z" fill="#003781"/>
</svg>
