<svg width="160" height="161" viewBox="0 0 160 161" fill="none" xmlns="http://www.w3.org/2000/svg">
<path d="M159.638 80.564C159.638 87.5867 158.781 94.6094 156.897 101.118C147.819 135.375 116.645 160.383 79.6476 160.383C54.8112 160.383 32.5442 148.907 17.8137 131.093C6.85141 117.39 0 99.7479 0 80.564C0 36.5437 35.7986 0.745117 79.8189 0.745117C123.839 0.745117 159.638 36.5437 159.638 80.564Z" fill="#D1E2F8"/>
<path d="M157.07 101.118C147.992 135.375 116.818 160.383 79.8203 160.383C54.9839 160.383 32.7169 148.906 17.9863 131.093C41.2811 102.488 66.6313 99.405 66.6313 99.405C66.6313 99.405 65.9462 95.1229 66.6313 93.9239C66.9739 93.0675 68.6867 92.3823 69.5432 92.0398C69.8857 91.8685 70.057 91.8685 70.057 91.8685C70.057 91.8685 71.256 91.6972 73.3114 91.3546C77.251 90.6695 84.1024 89.6418 89.5835 89.2992C91.2964 89.1279 92.6666 89.1279 93.8656 89.1279C95.2359 89.1279 96.2636 89.2992 96.7775 89.4705C97.4626 89.8131 98.1478 91.8685 98.1478 91.8685C98.1478 91.8685 108.082 90.3269 121.614 91.8685C127.438 92.5536 141.825 95.2942 157.07 101.118Z" fill="#243286"/>
<path d="M66.2871 56.2429C66.2871 56.2429 52.2417 51.7895 52.2417 62.2379C52.0704 74.3991 66.6297 73.2001 66.6297 73.2001L66.2871 56.2429Z" fill="#FFBF9D"/>
<path d="M60.6354 67.8891C60.2929 67.8891 60.1216 67.7178 59.9503 67.5465L54.8117 60.3525C54.4692 60.01 54.6404 59.4961 54.983 59.1535C55.3256 58.811 55.8394 58.9822 56.182 59.3248L61.3206 66.5188C61.6631 66.8614 61.4919 67.3752 61.1493 67.7178C60.978 67.7178 60.8067 67.8891 60.6354 67.8891Z" fill="#EBA37C"/>
<path d="M55.1513 66.0056C54.6375 66.0056 54.2949 65.663 54.2949 65.3205C54.2949 64.8066 54.6375 64.464 54.9801 64.2928L58.7483 63.9502C59.2622 63.9502 59.6048 64.2928 59.776 64.6353C59.776 65.1492 59.4335 65.4918 59.0909 65.663L55.1513 66.0056Z" fill="#EBA37C"/>
<path d="M93.1807 82.6197L94.551 96.6651C94.551 96.6651 89.4124 100.091 82.561 100.776C73.3116 101.804 69.7146 96.6651 69.7146 96.6651L68.5156 80.2217L93.1807 82.6197Z" fill="#FFBF9D"/>
<path d="M93.1805 82.6201C93.1805 82.6201 89.926 94.4388 79.3064 93.9249C70.7421 93.4111 67.3164 81.7637 67.3164 81.7637L93.1805 82.6201Z" fill="#EBA37C"/>
<path d="M60.9732 45.109C60.9732 45.109 57.5475 71.4869 65.9405 82.2779C75.0186 93.754 87.3511 88.958 91.8045 84.8472C97.7995 79.366 98.4847 72.3433 98.4847 72.3433C98.4847 72.3433 107.563 73.1998 109.789 65.8345C112.187 57.9554 106.021 52.303 101.568 52.4743C97.1144 52.4743 96.6005 53.3307 96.6005 53.3307L97.1144 45.109C97.2857 44.9377 67.6533 17.5321 60.9732 45.109Z" fill="#FFBF9D"/>
<path d="M99.347 64.806C99.1757 64.806 98.8331 64.806 98.8331 64.6347C98.4905 64.2921 98.4905 63.7783 98.8331 63.4357L105.171 56.9268C105.513 56.5843 106.027 56.5843 106.37 56.9268C106.712 57.2694 106.712 57.7833 106.37 58.1258L100.032 64.6347C99.6895 64.6347 99.5182 64.806 99.347 64.806Z" fill="#EBA37C"/>
<path d="M105.682 65.3194C105.511 65.3194 105.34 65.3194 105.168 65.1482L100.886 62.4076C100.544 62.2363 100.372 61.5512 100.544 61.2086C100.715 60.866 101.4 60.6947 101.743 60.866L106.025 63.6066C106.367 63.7779 106.539 64.463 106.367 64.8056C106.196 65.1482 106.025 65.3194 105.682 65.3194Z" fill="#EBA37C"/>
<path d="M98.8327 52.9874C98.8327 52.9874 96.7773 61.2091 95.7495 61.0378C94.7218 60.8665 95.2357 48.0201 98.1475 47.335C101.059 46.6499 98.8327 52.9874 98.8327 52.9874Z" fill="black"/>
<path d="M97.4613 51.9594C97.4613 51.9594 88.3832 51.6168 82.217 47.1634C76.9071 43.3951 74.6804 37.914 74.6804 37.914C74.6804 37.914 70.7409 37.5714 65.431 41.1684C60.1212 44.7654 60.1212 55.2138 60.1212 55.2138C60.1212 55.2138 49.3302 38.0853 53.9549 31.5764C58.5796 25.0676 66.63 30.0349 66.63 30.0349C66.63 30.0349 64.7459 18.5588 80.8467 22.327C97.1188 26.0953 101.23 39.7981 101.23 39.7981C101.23 39.7981 106.711 39.113 107.567 44.0803C108.424 49.0475 106.711 54.3574 106.711 54.3574C106.711 54.3574 104.313 52.1307 100.716 53.6722C97.1188 55.2138 97.1188 55.2138 97.1188 55.2138L97.4613 51.9594Z" fill="black"/>
<path d="M70.0548 91.8701C70.0548 91.8701 73.138 94.7819 80.3319 94.9532C87.5259 95.1245 93.8635 89.3008 93.8635 89.3008L98.4882 97.865L87.0121 104.888L67.8281 103.346V94.7819L70.0548 91.8701Z" fill="#243286"/>
<path d="M77.9359 105.915C70.228 105.915 65.9459 100.262 65.7746 100.091C65.4321 99.7482 65.6033 99.2344 65.9459 98.8918C66.2885 98.5492 66.8023 98.7205 67.1449 99.0631C67.3162 99.4057 72.626 106.428 82.5606 103.345C83.0744 103.174 83.417 103.517 83.5883 103.859C83.7596 104.373 83.417 104.716 83.0744 104.887C81.3616 105.572 79.6487 105.915 77.9359 105.915Z" fill="#A0ADFF"/>
</svg>
