<svg width="39" height="46" viewBox="0 0 39 46" fill="none" xmlns="http://www.w3.org/2000/svg">
<path fill-rule="evenodd" clip-rule="evenodd" d="M18.8869 40.1247C18.8389 40.1247 18.791 40.1199 18.7455 40.1032C17.5214 39.7247 16.3692 39.1569 15.32 38.4143C14.2875 37.6813 13.3772 36.7926 12.6154 35.7769C11.0368 33.6616 10.2031 31.1392 10.2031 28.4804C10.2031 26.7054 10.572 25.0045 11.2954 23.4283C11.3721 23.2582 11.5446 23.1504 11.729 23.1504H26.0711C26.2556 23.1504 26.4281 23.2582 26.5047 23.4283C27.2282 25.0045 27.597 26.7029 27.597 28.4804C27.597 31.1418 26.761 33.6667 25.18 35.7769C24.4206 36.795 23.5055 37.6813 22.4658 38.4191C21.4118 39.1617 20.2524 39.7318 19.0235 40.108C18.978 40.1199 18.9301 40.1247 18.8821 40.1247L18.8869 40.1247ZM12.0405 24.106C11.456 25.4739 11.159 26.9447 11.159 28.4778C11.159 33.3862 14.2588 37.6526 18.8847 39.1428C23.5296 37.6552 26.6393 33.3888 26.6393 28.4778C26.6393 26.9447 26.3422 25.4739 25.7577 24.106H12.0387H12.0405Z" fill="#003781"/>
<path fill-rule="evenodd" clip-rule="evenodd" d="M18.8854 38.2401C18.6913 38.2401 18.5069 38.1204 18.435 37.9287C18.3416 37.6796 18.4685 37.4041 18.7177 37.3131C22.3996 35.9428 24.8741 32.3927 24.8741 28.4811C24.8741 28.2175 25.0897 28.002 25.3532 28.002C25.6167 28.002 25.8323 28.2175 25.8323 28.4811C25.8323 30.6155 25.1855 32.6708 23.9614 34.4195C22.7421 36.1586 21.0485 37.4714 19.053 38.214C18.9955 38.2356 18.9428 38.2428 18.8853 38.2428L18.8854 38.2401Z" fill="#003781"/>
<path fill-rule="evenodd" clip-rule="evenodd" d="M19.8152 45.9947H17.9898C13.5366 45.9947 9.90226 45.4557 7.18127 44.3945C4.63487 43.4028 2.80947 41.9248 1.75302 39.9987C0.787643 38.2404 0.449864 36.0701 0.746923 33.5522C1.00324 31.3747 1.7123 28.9576 2.90765 26.1595C5.07561 21.0954 8.45567 15.7986 11.1724 11.5445C11.8695 10.4522 12.5283 9.41971 13.1224 8.4639C13.2086 8.32256 13.3643 8.23633 13.5296 8.23633H24.2492C24.4145 8.23633 24.5702 8.32256 24.6565 8.46151C25.2434 9.40052 25.8902 10.4162 26.5801 11.4894C29.3085 15.751 32.7006 21.0549 34.8804 26.1259C36.0878 28.931 36.7992 31.3553 37.0603 33.5376C37.3622 36.0625 37.0268 38.2353 36.059 40.0007C35.005 41.9267 33.1796 43.4047 30.6332 44.3989C27.9071 45.4601 24.2707 45.9991 19.8173 45.9991L19.8152 45.9947ZM13.7929 9.19477C13.2324 10.0907 12.6215 11.0489 11.9771 12.0598C9.27982 16.2879 5.92129 21.5486 3.78717 26.5381C1.32939 32.2777 0.938931 36.5297 2.58943 39.5433C3.53329 41.2656 5.19575 42.5999 7.5242 43.5078C10.1329 44.5259 13.6543 45.0409 17.9875 45.0409H19.8129C24.1464 45.0409 27.668 44.5259 30.2786 43.5078C32.6119 42.5999 34.2695 41.2656 35.2134 39.5408C36.8663 36.5224 36.4663 32.2585 33.9941 26.5068C31.8429 21.5074 28.4748 16.2397 25.7679 12.0065C25.1331 11.0147 24.5318 10.0757 23.9808 9.19416H13.7905L13.7929 9.19477Z" fill="#003781"/>
<path fill-rule="evenodd" clip-rule="evenodd" d="M13.5275 9.19331C13.3334 9.19331 13.149 9.07354 13.0771 8.8819C12.7202 7.9213 12.3632 6.41454 12.0207 4.95568C11.6877 3.5495 11.3427 2.09303 11.0122 1.18278C10.9427 0.998326 10.9978 0.787521 11.1463 0.658162C11.2949 0.526412 11.5081 0.502452 11.6829 0.591091C13.6976 1.63791 15.1373 2.12422 16.2248 2.11226C17.1447 2.10268 17.7196 1.74335 18.443 1.28817C19.8372 0.411409 21.574 -0.678522 26.4294 0.550371C26.5564 0.583909 26.6594 0.660566 26.7264 0.770761C26.7935 0.880956 26.8103 1.01271 26.7768 1.13488L24.7094 8.82934C24.64 9.08326 24.3765 9.23657 24.1225 9.1671C23.8686 9.09763 23.7153 8.83412 23.7848 8.5802L25.7228 1.35795C21.6312 0.411703 20.2107 1.30285 18.9531 2.09097C18.2009 2.56048 17.4247 3.04917 16.2342 3.06113H16.1934C15.1562 3.06113 13.889 2.69941 12.2552 1.93526C12.4924 2.77131 12.7247 3.75827 12.9523 4.72365C13.2901 6.15136 13.6374 7.62942 13.9776 8.53488C14.071 8.78402 13.9417 9.0595 13.6949 9.15053C13.6374 9.17448 13.5847 9.18406 13.5272 9.18406L13.5275 9.19331Z" fill="#003781"/>
<path fill-rule="evenodd" clip-rule="evenodd" d="M24.6074 18.2355H13.1979C12.9343 18.2355 12.7188 18.02 12.7188 17.7564C12.7188 17.4929 12.9343 17.2773 13.1979 17.2773H24.6074C24.8709 17.2773 25.0865 17.4929 25.0865 17.7564C25.0865 18.02 24.8709 18.2355 24.6074 18.2355Z" fill="#003781"/>
<path fill-rule="evenodd" clip-rule="evenodd" d="M21.3126 15.4816H16.4928C16.2293 15.4816 16.0137 15.266 16.0137 15.0025C16.0137 14.739 16.2293 14.5234 16.4928 14.5234H21.3126C21.5761 14.5234 21.7917 14.739 21.7917 15.0025C21.7917 15.266 21.5761 15.4816 21.3126 15.4816Z" fill="#003781"/>
<path fill-rule="evenodd" clip-rule="evenodd" d="M22.6003 12.759H15.1744C14.9109 12.759 14.6953 12.5434 14.6953 12.2799C14.6953 12.0164 14.9109 11.8008 15.1744 11.8008H22.6003C22.8638 11.8008 23.0794 12.0164 23.0794 12.2799C23.0794 12.5434 22.8638 12.759 22.6003 12.759Z" fill="#003781"/>
<path fill-rule="evenodd" clip-rule="evenodd" d="M33.6798 11.013C33.4689 11.013 33.2725 11.001 33.0857 10.9746C32.0316 10.8261 31.5501 10.268 31.3274 9.82718C30.9824 9.13966 29.6769 8.79949 27.6526 8.87854C25.9805 8.94082 24.4139 9.2714 24.3971 9.2738C24.1408 9.32889 23.8845 9.1636 23.827 8.90249C23.7719 8.64617 23.9372 8.38985 24.1959 8.33236C24.263 8.31799 25.8488 7.98501 27.5999 7.91794C30.1008 7.82212 31.6387 8.31559 32.1777 9.39354C32.8868 10.8093 36.3938 9.57081 37.5653 9.02463C37.8048 8.91444 38.0899 9.01505 38.2025 9.2546C38.3127 9.49415 38.2121 9.77922 37.9725 9.89183C37.9222 9.91579 36.6741 10.4931 35.268 10.8093C34.6835 10.9435 34.1493 11.0105 33.6749 11.0105L33.6798 11.013Z" fill="#003781"/>
<path fill-rule="evenodd" clip-rule="evenodd" d="M35.6261 16.5914C35.6141 16.5914 35.5998 16.5914 35.5878 16.589C35.5303 16.5842 34.1553 16.4668 32.7803 16.0404C31.9442 15.7841 31.2759 15.4607 30.7991 15.0846C29.9607 14.4282 29.8194 13.7048 29.8505 13.2113C29.8864 12.4424 28.9187 11.4961 27.1244 10.5475C25.6512 9.76656 24.1444 9.2659 24.13 9.26345C23.8785 9.17961 23.7444 8.90892 23.8234 8.65739C23.9073 8.40586 24.1779 8.27171 24.4295 8.35076C24.4966 8.37232 26.0297 8.88017 27.5748 9.70181C29.7811 10.8708 30.8686 12.0686 30.8087 13.2616V13.2663C30.7105 14.8594 34.378 15.5277 35.6716 15.6355C35.9351 15.6571 36.1339 15.8894 36.1076 16.1529C36.086 16.4021 35.8776 16.5913 35.6285 16.5913L35.6261 16.5914Z" fill="#003781"/>
<path fill-rule="evenodd" clip-rule="evenodd" d="M17.4785 34.1961C17.3587 34.1961 17.2365 34.1506 17.1431 34.0572L15.7945 32.7396C15.6052 32.5552 15.6028 32.251 15.7849 32.0617C15.9693 31.8725 16.2736 31.8701 16.4628 32.0521L17.4713 33.0367L21.297 29.2087C21.4814 29.0242 21.788 29.0242 21.9749 29.2087C22.1618 29.3931 22.1594 29.6997 21.9749 29.8866L17.8139 34.05C17.7228 34.1458 17.6007 34.1938 17.4785 34.1938L17.4785 34.1961Z" fill="#003781"/>
</svg>
