<svg width="46" height="46" viewBox="0 0 46 46" fill="none" xmlns="http://www.w3.org/2000/svg">
<path d="M16.4679 35.4023H25.6068C26.1957 35.4023 26.4186 34.7684 26.2407 34.2633L24.5618 30.2C24.4268 29.9975 24.2489 29.8728 23.9913 29.8728H18.0814C17.7828 29.8728 17.5538 30.0568 17.4413 30.3349L15.8258 34.2797C15.6336 34.7071 15.8953 35.4023 16.4679 35.4023ZM22.605 5.31485V4.45598C22.605 4.05108 23.2185 4.05108 23.2185 4.45598V5.29851C24.2389 5.39667 25.3493 6.15942 25.4352 7.25349C25.4679 7.6543 24.8544 7.70134 24.8237 7.29848C24.7604 6.47846 23.7747 5.90177 22.9956 5.90177C20.9015 5.90177 20.0365 8.62562 22.9751 8.85262C26.5456 9.12459 25.8564 12.736 23.2185 13.0079V13.8586C23.2185 14.2615 22.605 14.2615 22.605 13.8586V13.0039C21.6111 12.873 20.5498 12.1245 20.466 11.0591C20.4373 10.6583 21.0467 10.6113 21.0774 11.0142C21.1429 11.8342 22.1285 12.4109 22.9097 12.4109C25.0037 12.4109 25.8667 9.68701 22.9301 9.46206C19.3965 9.19622 20.0283 5.65434 22.605 5.31485ZM22.9547 2.57256C26.5885 2.57256 29.5393 5.52137 29.5393 9.15723C29.5393 12.7931 26.5905 15.7419 22.9547 15.7419C19.3187 15.7419 16.37 12.7931 16.37 9.15723C16.3679 5.52132 19.3147 2.57256 22.9547 2.57256ZM27.249 4.8629C24.8748 2.49079 21.0282 2.49079 18.6583 4.8629C16.2841 7.23711 16.2841 11.0837 18.6583 13.4536C21.0304 15.8258 24.8749 15.8258 27.249 13.4536C29.6191 11.0815 29.6191 7.23701 27.249 4.8629ZM22.9547 0C28.0466 0 32.1631 4.15329 32.1118 9.24722C32.2959 9.28812 32.4799 9.33106 32.664 9.37809C32.803 9.41081 32.9237 9.40672 33.0648 9.36582C35.8664 8.53968 38.6558 8.88935 41.1875 10.3474C41.7703 10.6828 41.9891 11.4107 41.6947 12.0161C41.1936 13.0385 40.4452 14.059 39.6456 14.8647C39.4125 15.0978 39.3552 15.425 39.4902 15.7195C39.8215 16.4495 40.1016 17.2164 40.2673 17.9976C40.3491 18.3779 40.5822 18.5088 40.9278 18.6111C41.4308 18.7665 41.938 18.9219 42.4165 19.11C42.9196 19.3104 43.2079 19.9689 43.3122 20.8441C43.4921 22.3513 43.167 24.3369 42.6128 25.7438C42.1486 26.9136 41.4799 27.7929 40.6477 27.8951L37.7724 28.2366C37.5373 28.2632 37.3512 28.3798 37.2203 28.5781C36.8849 29.0976 36.5005 29.5209 36.067 29.9074C39.9851 30.709 45.8785 32.5249 45.9094 35.5534V39.1484C45.9094 41.0952 43.298 42.8293 39.075 44.0583C30.1592 46.6472 15.7465 46.6472 6.83019 44.0583C2.60942 42.8293 0 41.0973 0 39.1484V35.5473C0.00613497 33.8111 2.08586 32.2467 5.52927 31.0607C5.62743 30.8173 5.9035 30.1016 6.02415 29.9114L7.90139 26.9504C8.17542 26.5168 8.61305 26.2101 9.10383 26.2019H9.92794C8.44741 23.1795 8.49238 19.7601 9.99337 16.7338C8.72549 16.3452 7.69487 15.4045 7.16728 14.243C6.06708 14.0263 5.17958 13.3596 4.66429 12.2369C4.33301 11.5253 4.21031 10.6685 4.43526 9.77892C4.5191 9.45582 5.01195 9.58261 4.93013 9.90571C4.51705 11.5089 5.44955 13.2226 6.95055 13.6664C6.56201 12.3269 6.89534 10.9507 8.05484 10.0468C9.80534 8.68076 11.7071 9.83617 11.8584 11.4558C11.9341 12.2533 11.564 13.1204 10.519 13.7093C9.73372 14.1531 8.72351 14.38 7.7767 14.3228C8.28998 15.243 9.17137 15.9751 10.2306 16.2737C11.1406 14.6173 12.476 13.1061 14.1978 11.8648C12.3881 5.99993 16.7705 0 22.9547 0ZM32.0914 9.76654C31.8808 12.9853 29.9974 15.7989 27.2244 17.2611C28.3226 17.4451 29.3471 17.713 30.2468 18.0606C31.9625 18.7211 30.9953 20.9358 29.5638 20.492C24.7377 19.0054 21.3699 19.1751 16.5536 20.4184C16.9095 20.4348 17.3062 20.4961 17.6088 20.9603L19.4206 23.8192L19.576 24.1116L20.4308 26.2015H21.9032C22.3899 26.2097 22.8316 26.5144 23.1056 26.95L24.9829 29.911C25.1096 30.1115 25.5248 31.1748 25.6413 31.4591H26.8315C27.4347 31.4591 27.9439 31.868 28.0789 32.4529L28.5697 34.6001C28.6515 34.9539 28.9541 35.1931 29.3181 35.1931H34.4652C34.9581 35.1931 35.32 34.7494 35.2157 34.2647L34.59 31.3466C34.4857 30.8476 34.6718 30.3569 35.0808 30.0542C35.7638 29.5429 36.3241 29.0194 36.7944 28.3016C37.005 27.9744 37.3261 27.7781 37.7146 27.7311L40.5858 27.3896C41.2033 27.3139 41.735 26.5635 42.1358 25.5573C42.6593 24.224 42.9743 22.3304 42.8024 20.9051C42.7206 20.2139 42.5325 19.7067 42.2257 19.5861C41.7431 19.398 41.2605 19.2507 40.7779 19.0994C40.2463 18.9399 39.8864 18.67 39.7677 18.1015C39.6082 17.351 39.3424 16.6291 39.0254 15.9298C38.8045 15.439 38.9027 14.8869 39.2831 14.5024C40.0458 13.7335 40.7615 12.7601 41.238 11.7908C41.418 11.4288 41.283 10.9912 40.9333 10.7888C38.5306 9.40026 35.8762 9.06689 33.2095 9.85215C32.7985 9.97894 32.4836 9.85624 32.091 9.76626L32.0914 9.76654ZM26.3862 17.6516C25.327 18.081 24.1695 18.3141 22.9548 18.3141C21.7769 18.3141 20.6563 18.0933 19.6256 17.6925C18.3087 17.8683 17.0326 18.1444 15.8609 18.5166C14.7852 18.8581 15.3087 20.2323 16.1594 19.9971C18.6624 19.3366 20.7913 18.9501 22.9284 18.9255C25.0633 18.899 27.2003 19.2323 29.7198 20.0053C30.5317 20.2589 31.1779 18.9623 30.0716 18.537C28.9939 18.1219 27.74 17.8295 26.3862 17.6516ZM18.7666 17.3039C16.7503 16.2651 15.1716 14.5044 14.3741 12.3674C11.0551 14.8132 8.90186 18.6411 9.43348 22.8051C9.57867 23.9544 9.93245 25.0995 10.503 26.2018H10.5807L11.4416 24.0975L11.5889 23.8194L13.4027 20.9606C13.8158 20.3103 14.6706 20.4085 14.6706 20.4085H15.4824C14.4109 19.9218 14.5458 18.3942 15.7074 18.0261C16.6664 17.7255 17.6991 17.4818 18.7666 17.3039ZM29.0692 3.04259C25.691 -0.33361 20.2146 -0.33361 16.8385 3.04259C13.4603 6.41879 13.4603 11.8972 16.8385 15.2733C20.2147 18.6495 25.6889 18.6495 29.0692 15.2733C32.4454 11.8971 32.4454 6.41868 29.0692 3.04259ZM7.41751 13.4431C7.45023 13.5576 7.48704 13.6762 7.52794 13.7866C8.45632 13.9052 9.49313 13.7048 10.2702 13.2652C12.7201 11.8787 10.5545 8.74381 8.36843 10.4513C7.40732 11.2018 7.12304 12.3204 7.41751 13.4431ZM18.4991 23.3222L17.1801 21.2384C16.9797 20.9357 16.6321 20.9255 16.3396 20.9255L14.6669 20.9214C14.3806 20.9337 14.035 20.9255 13.8284 21.2363L12.5074 23.3201H12.5483H18.4624C18.4726 23.3222 18.4868 23.3222 18.4991 23.3222ZM17.1167 29.8723H13.8939C13.9512 29.9541 13.9982 30.0441 14.0391 30.1422L15.5053 33.7209L16.9716 30.1422C17.0084 30.0441 17.0574 29.9541 17.1167 29.8723ZM9.96981 29.3611C9.69579 28.9684 9.64262 28.4858 9.82462 28.0421L10.297 26.8928C10.2622 26.8356 10.2275 26.7742 10.1948 26.717H9.10482V26.7129C8.78171 26.7292 8.52404 26.9337 8.33181 27.2262L6.97807 29.3611H7.01488L9.96981 29.3611ZM20.6404 26.7169L21.1844 28.0441C21.3685 28.4879 21.3112 28.9725 21.0372 29.3631H23.9901H24.031L22.6772 27.2282C22.483 26.9358 22.2253 26.7333 21.9042 26.7149L20.6404 26.7169ZM12.9292 29.3611H20.0761C20.6078 29.3611 20.9268 28.7476 20.7142 28.2323L19.0987 24.2917C18.9841 24.0177 18.7592 23.8295 18.4606 23.8295L12.5487 23.8316C12.2501 23.8316 12.0211 24.0156 11.9086 24.2937L10.2972 28.2343C10.0865 28.7496 10.4076 29.3631 10.9352 29.3631L12.9292 29.3611ZM6.45708 30.1852C6.22805 30.5471 4.76385 34.2791 4.76385 34.2791C4.56345 34.7699 4.8477 35.4038 5.40191 35.4038L14.5428 35.4018C15.0459 35.4018 15.3935 34.8415 15.1768 34.2627L13.5694 30.3324C13.4549 30.0583 13.2259 29.8702 12.9294 29.8702H7.0153C6.78422 29.8723 6.57978 29.9909 6.45708 30.1852ZM14.5426 35.9128H5.4017C4.5142 35.9128 3.96614 34.9558 4.27291 34.1297C3.79644 34.4978 3.54288 34.8802 3.54288 35.2708C3.54288 36.3995 5.66758 37.4629 9.10514 38.2646C16.7452 40.0478 29.158 40.0478 36.7997 38.2646C44.2104 36.5386 44.2104 34.0029 36.7997 32.2767C36.3068 32.1622 35.7895 32.0538 35.2434 31.9495L35.7158 34.1642C35.8876 34.9617 35.2843 35.7102 34.4664 35.7102H29.3193C28.716 35.7102 28.2068 35.3012 28.0718 34.7123L27.5851 32.5671C27.5033 32.2133 27.2007 31.97 26.8346 31.97H25.8531C26.1394 32.6735 26.4257 33.379 26.716 34.0825C27.0514 34.9004 26.532 35.9106 25.6056 35.9106H16.4668C16.066 35.9106 15.7224 35.7082 15.5057 35.4035C15.2787 35.7246 14.9373 35.9128 14.5426 35.9128ZM4.59602 33.3403L5.27087 31.6921C2.29139 32.7759 0.510209 34.1215 0.510209 35.557C0.510209 37.2523 2.98053 38.8167 6.97237 39.9782C15.7861 42.5405 30.1171 42.5405 38.933 39.9782C47.5462 37.4772 47.5462 33.6427 38.933 31.1377C37.9044 30.8392 36.7735 30.5693 35.5588 30.332C35.5015 30.377 35.4443 30.422 35.385 30.4649C35.1355 30.649 35.0251 30.9414 35.0926 31.242L35.1273 31.4097C38.342 31.9946 42.8736 33.2501 42.8736 35.2706C42.8736 36.6693 40.5956 37.9024 36.9146 38.7613C29.197 40.5649 16.7062 40.5649 8.98865 38.7613C5.30777 37.9024 3.03377 36.6714 3.03377 35.2706C3.03377 34.5794 3.58989 33.9272 4.59602 33.3403ZM37.3497 16.7231C37.9714 17.3448 37.9714 18.3713 37.3497 18.9951C36.7281 19.6167 35.7036 19.6167 35.0798 18.9951C34.4561 18.3713 34.4582 17.3468 35.0798 16.7231C35.7036 16.1015 36.726 16.0994 37.3497 16.7231ZM36.9878 17.0851C36.5645 16.6618 35.8671 16.6618 35.4418 17.0851C35.0164 17.5104 35.0164 18.2057 35.4418 18.6331C35.8651 19.0585 36.5624 19.0585 36.9878 18.6331C37.4131 18.2078 37.4131 17.5125 36.9878 17.0851ZM37.5767 40.8701V43.9375C38.6564 43.6717 39.7443 43.3527 40.7443 42.9805L40.7423 39.9274C39.7362 40.2955 38.6564 40.6043 37.5767 40.8701ZM37.0634 44.0561V40.9866C35.6238 41.32 34.041 41.6001 32.3478 41.8251V44.9027C34.0431 44.6778 35.6258 44.3935 37.0634 44.0561ZM41.2576 39.7331V42.7821C42.1083 42.4426 42.8445 42.0807 43.4498 41.7024V38.6922C42.822 39.0603 42.0858 39.4079 41.2576 39.7331ZM43.9569 38.365V41.3547C44.8873 40.6635 45.3945 39.9232 45.3945 39.1544V37.0296C45.0653 37.4959 44.5826 37.9417 43.9569 38.365ZM23.2088 42.412V45.4917C26.268 45.4835 29.182 45.2974 31.8346 44.9682V41.8905C29.1782 42.2157 26.264 42.4038 23.2088 42.412ZM22.6955 45.4917V42.412C16.5076 42.3915 10.9046 41.6553 6.83063 40.4713C3.70593 39.5654 1.4626 38.3773 0.509817 37.0317V39.1564C0.509817 40.8497 2.98014 42.4141 6.97198 43.5776C11.0005 44.7432 16.5506 45.4753 22.6955 45.4917Z" fill="#003781"/>
</svg>
