<svg width="32" height="40" viewBox="0 0 32 40" fill="none" xmlns="http://www.w3.org/2000/svg">
<path fill-rule="evenodd" clip-rule="evenodd" d="M31.831 9.93355C31.9392 10.0352 32 10.1735 32 10.3202V39.4667C32.0017 39.7617 31.76 39.9983 31.4626 40H0.540714C0.243321 40 0 39.7617 0 39.4667V0.533333C0 0.238332 0.243321 0 0.540714 0H21.6472C21.7959 0 21.9361 0.0599979 22.0375 0.166665L31.831 9.93355ZM24.5703 28.977C24.5703 28.5453 24.3963 28.1319 24.087 27.827L24.0499 27.7936L24.0516 27.7953C23.7998 27.5603 23.4787 27.4103 23.1357 27.3636V27.087V27.0886C23.1374 26.7953 22.8992 26.557 22.6018 26.5553C22.306 26.5536 22.0627 26.7886 22.061 27.0803V27.3636C21.2365 27.4653 20.6163 28.157 20.6146 28.977V29.6269C20.618 30.5236 21.3547 31.247 22.2621 31.2503H22.9228C23.2354 31.2503 23.4905 31.5019 23.4905 31.8103V32.4619C23.4905 32.6103 23.4314 32.7536 23.3249 32.8586C23.2168 32.9636 23.0731 33.0236 22.9228 33.0236H22.2621C21.9478 33.0219 21.6943 32.7719 21.6927 32.4619C21.6808 32.1769 21.4426 31.9503 21.1536 31.9503C20.863 31.9503 20.6247 32.1769 20.6146 32.4619C20.6112 33.2836 21.2297 33.9803 22.0576 34.0836V34.3569C22.0661 34.6436 22.3026 34.8703 22.5916 34.8719C22.8805 34.8736 23.1205 34.6503 23.1323 34.3669V34.0836C23.9535 33.9753 24.5669 33.2853 24.5686 32.4703V31.8186C24.5669 30.922 23.8302 30.1953 22.9211 30.1936H22.2621C21.9478 30.1936 21.6927 29.942 21.6927 29.632V28.982C21.6927 28.832 21.7518 28.6887 21.8582 28.582C21.9664 28.477 22.11 28.417 22.2621 28.417H22.9228C23.063 28.417 23.1982 28.4687 23.3046 28.5603L23.3249 28.5803L23.3232 28.582C23.4314 28.687 23.4922 28.8287 23.4922 28.9787C23.4922 29.272 23.7338 29.5103 24.0312 29.5103C24.3303 29.5103 24.5719 29.272 24.5719 28.9787L24.5703 28.977ZM22.5916 23.8621C20.7465 23.8621 18.979 24.5837 17.6746 25.8704C16.3701 27.1571 15.6368 28.9021 15.6368 30.7203C15.6368 32.5403 16.3685 34.2853 17.6729 35.5702C18.9774 36.8569 20.7466 37.5802 22.59 37.5802C24.4351 37.5802 26.2043 36.8569 27.5087 35.5719C28.8115 34.2852 29.5448 32.5402 29.5448 30.7203C29.5499 28.9003 28.8199 27.1519 27.5138 25.8652C26.2093 24.5769 24.4369 23.8571 22.5916 23.8621ZM22.5916 24.9271C20.2159 24.9271 18.0734 26.3388 17.1642 28.5037C16.2551 30.6687 16.7569 33.1604 18.4382 34.8188C20.1178 36.4755 22.644 36.9705 24.839 36.0738C27.0339 35.1772 28.4651 33.0655 28.4651 30.7204C28.4651 27.5204 25.8359 24.9271 22.5916 24.9271ZM11.0948 5.69722C10.4121 5.69722 9.79536 6.10388 9.53512 6.72723C9.27321 7.34889 9.41684 8.06722 9.9001 8.54389C10.3834 9.02057 11.1116 9.16222 11.7419 8.90389C12.3738 8.64723 12.7845 8.03891 12.7845 7.36388C12.7811 6.44557 12.0275 5.70221 11.0948 5.69722ZM11.0948 6.76389C10.8464 6.76389 10.6233 6.91055 10.5287 7.13722C10.4324 7.36389 10.4865 7.62387 10.6605 7.79723C10.8362 7.97056 11.1015 8.02223 11.3313 7.92889C11.5594 7.83556 11.7098 7.61389 11.7098 7.36889C11.7098 7.20889 11.6456 7.05389 11.5307 6.94056C11.4158 6.82556 11.2587 6.76222 11.0948 6.76389ZM8.87108 10.3056C9.10595 10.4789 9.3611 10.6239 9.63145 10.7389L9.86801 11.4589V11.4605C9.93053 11.6955 10.1451 11.8605 10.3918 11.8605H11.8044C12.0376 11.8605 12.2437 11.7122 12.3164 11.4939L12.5631 10.7439H12.5648C12.8335 10.6289 13.0886 10.4839 13.3252 10.3106L14.1126 10.4772H14.1109C14.339 10.5239 14.5722 10.4222 14.6888 10.2239L15.3816 9.04058V9.03891C15.5134 8.83724 15.4914 8.57393 15.3292 8.39558L14.7919 7.80559C14.8256 7.51892 14.8256 7.23057 14.7919 6.94227L15.3258 6.34729C15.4813 6.17728 15.5083 5.92562 15.39 5.7273L14.6955 4.54231H14.6972C14.5857 4.32898 14.3441 4.21565 14.1058 4.26732L13.3184 4.43398C13.0835 4.26065 12.8284 4.11565 12.558 4.00066L12.3215 3.28066C12.2606 3.04399 12.046 2.87899 11.7977 2.88066H10.3884C10.1569 2.88066 9.94912 3.02732 9.87814 3.24733L9.62806 4.00065C9.35939 4.11398 9.10426 4.25898 8.86768 4.43231L8.08027 4.26564C7.85385 4.21731 7.62067 4.31731 7.50409 4.51564L6.80959 5.69896V5.70063C6.67949 5.9023 6.70145 6.16561 6.86367 6.34396L7.40101 6.93395V6.93228C7.36721 7.21895 7.36721 7.50897 7.40101 7.7956L6.86367 8.3856C6.70821 8.55726 6.68117 8.80726 6.79777 9.00725L7.49226 10.1922H7.49057C7.60378 10.4039 7.84542 10.5156 8.08198 10.4672L8.86939 10.3006L8.87108 10.3056ZM8.24251 9.35055L8.87277 9.21888C9.04512 9.17388 9.2293 9.21722 9.36447 9.33222C9.61962 9.55388 9.91531 9.72388 10.2364 9.83223C10.3969 9.88556 10.5236 10.0122 10.5743 10.1706L10.7805 10.7972H11.409L11.6084 10.1939C11.6574 10.0239 11.7858 9.8889 11.9548 9.83223C12.2759 9.7239 12.5733 9.5539 12.8284 9.33222C12.9568 9.22222 13.1292 9.17888 13.2947 9.21389L13.9503 9.35055L14.2646 8.81389L13.8186 8.32391H13.8152C13.7037 8.20058 13.6547 8.03224 13.6868 7.86891C13.7493 7.54225 13.7493 7.20724 13.6868 6.88058C13.6496 6.71392 13.6969 6.54058 13.8135 6.41389L14.2596 5.92391L13.9453 5.38725L13.3167 5.52058V5.51891C13.1444 5.56391 12.9602 5.52058 12.825 5.40558C12.5699 5.18392 12.2742 5.01392 11.9531 4.90557C11.7926 4.85057 11.6676 4.72557 11.6152 4.56557L11.409 3.93888L10.7805 3.94055L10.5811 4.5439C10.5354 4.7139 10.4053 4.8489 10.2364 4.90557C9.91531 5.0139 9.6196 5.1839 9.36447 5.40558H9.36278C9.23605 5.51391 9.06369 5.55891 8.89811 5.52391L8.2425 5.38724L7.92821 5.9239L8.37601 6.41389C8.48922 6.53722 8.53654 6.70555 8.50443 6.86889C8.44191 7.19555 8.44191 7.53056 8.50443 7.85722C8.53992 8.02388 8.4926 8.19722 8.3777 8.3239L7.9299 8.81389L8.24419 9.35055H8.24251ZM4.61972 26.392H14.4979C14.7953 26.392 15.037 26.1537 15.037 25.8604C15.037 25.5654 14.7953 25.327 14.4979 25.327H4.61972C4.32233 25.327 4.07901 25.5654 4.07901 25.8604C4.07901 26.1537 4.32233 26.392 4.61972 26.392ZM4.61972 22.507H19.033C19.3304 22.507 19.572 22.2687 19.572 21.9737C19.572 21.6804 19.3304 21.442 19.033 21.442H4.61972C4.32233 21.442 4.07901 21.6804 4.07901 21.9737C4.07901 22.2687 4.32233 22.507 4.61972 22.507ZM4.61972 18.622H22.3755C22.6729 18.622 22.9145 18.3837 22.9145 18.0887C22.9145 17.7954 22.6729 17.557 22.3755 17.557H4.61972C4.32233 17.557 4.07901 17.7953 4.07901 18.0887C4.07901 18.3837 4.32233 18.622 4.61972 18.622ZM4.61972 14.737H23.5919C23.891 14.737 24.1326 14.4987 24.1326 14.2037C24.1326 13.9103 23.891 13.672 23.5919 13.672H4.61972C4.32233 13.672 4.07901 13.9103 4.07901 14.2037C4.07901 14.4987 4.32233 14.737 4.61972 14.737ZM30.9205 10.852H21.647C21.3496 10.852 21.108 10.6137 21.108 10.3187V1.06852H1.08471V38.9352H30.9205L30.9205 10.852ZM22.1865 9.78699H30.1652L22.1865 1.82709V9.78699Z" fill="#003781"/>
</svg>
