<svg width="45" height="46" viewBox="0 0 45 46" fill="none" xmlns="http://www.w3.org/2000/svg">
<path d="M10.0359 35.2792L6.86041 27.4708C6.39732 27.6873 5.78385 27.976 5.30477 28.1283C4.81362 28.3087 4.70535 28.5573 4.79558 28.836C5.07022 29.6839 9.56875 34.7219 10.0359 35.2792ZM10.9881 36.2896C11.9223 35.7644 13.1572 35.199 14.1636 34.8542C14.3761 34.78 14.34 34.4874 14.2638 34.331C13.2615 32.5348 12.2551 30.7366 11.2487 28.9423L9.7532 26.2661C9.66499 26.1097 9.41641 25.9213 9.25202 26.0616C8.87113 26.3864 8.26569 26.7552 7.60012 27.1C7.50389 27.1521 7.40366 27.2022 7.30743 27.2504L10.9881 36.2896ZM24.5198 27.9382L31.7448 22.8422C32.6749 22.1526 34.0602 21.7737 34.9724 22.6778C35.0967 22.8021 35.1969 22.9384 35.2651 23.0828L35.7903 22.7099C36.8207 21.9441 37.7549 21.9 38.4104 22.1566C38.8334 22.321 39.2243 22.6538 39.3687 23.0908C39.481 23.4256 39.4248 23.8486 39.1322 24.0791L38.2661 24.7567C39.1001 24.6485 39.6955 24.8129 40.0944 25.1055C40.9725 25.7511 40.9204 27.441 39.9661 27.7137C39.0479 27.9743 37.4241 28.6238 35.5678 29.3776C36.542 29.5821 37.4582 29.8086 38.3042 30.0552C42.4359 31.258 44.9918 32.954 45 34.8585V38.3888C45 40.2973 42.44 41.9972 38.3042 43.2021C34.2547 44.3789 28.6657 45.1045 22.501 45.1045C16.3323 45.1045 10.7455 44.3768 6.69581 43.2021C2.55808 41.9972 0 40.2993 0 38.3888V34.8585C0.00601375 33.1665 2.01875 31.6409 5.35839 30.4802C5.00155 30.0512 4.49636 29.5199 4.32397 28.9827C4.09143 28.269 4.50439 27.8841 5.14592 27.6475C5.79544 27.4089 6.6294 27.0421 7.37919 26.6532C8.00869 26.3244 8.58405 25.9756 8.93482 25.6789C9.33977 25.3301 9.94923 25.5706 10.1898 26.0057L10.3501 26.2863C11.5449 25.3261 12.5413 24.5463 13.3973 23.9168C11.9659 20.18 10.729 15.8255 9.46204 11.9729C9.06511 10.726 9.76275 9.41487 10.9335 9.05204L38.0611 0.115058C39.2719 -0.281877 40.583 0.381684 40.982 1.59053L44.8751 13.4025C45.272 14.6093 44.6085 15.9244 43.3996 16.3233L27.5523 21.5437C27.5924 21.5397 28.0535 21.4896 28.0535 21.4896C28.707 21.3973 28.9556 22.2373 28.9396 22.7405C28.8915 24.5147 27.1474 25.485 25.5797 25.7315L21.6484 26.353C22.2939 27.1568 23.2903 27.7021 24.5192 27.9387L24.5198 27.9382ZM5.69748 30.8931C2.45586 31.9877 0.495106 33.375 0.495106 34.8705C0.495106 36.5324 2.91683 38.066 6.83013 39.2047C10.8335 40.3694 16.3727 41.0891 22.4968 41.0891C28.6193 41.0891 34.1563 40.3714 38.1614 39.2047C42.0766 38.068 44.4964 36.5344 44.4964 34.8705C44.4964 33.2106 42.0747 31.677 38.1614 30.5363C37.1149 30.2316 35.9642 29.9589 34.7293 29.7204L34.4607 29.8327C33.9014 30.0632 33.33 30.2958 32.7547 30.5303C33.9996 30.7108 35.1503 30.9253 36.1827 31.1678C39.7912 32.0098 42.0246 33.2167 42.0246 34.5919C42.0246 35.9631 39.7913 37.1719 36.1827 38.014C32.6765 38.8319 27.839 39.3371 22.4966 39.3371C17.1561 39.3371 12.3125 38.8319 8.80831 38.014C5.19985 37.172 2.96648 35.9651 2.96648 34.5919C2.96648 33.5434 4.26551 32.5952 6.48077 31.8274L5.69748 30.8931ZM6.82212 32.2323C4.70915 32.9199 3.46821 33.7358 3.46821 34.5899C3.46821 35.6964 5.55111 36.7389 8.92103 37.5248C12.3892 38.3347 17.1883 38.8359 22.4969 38.8359C27.8014 38.8359 32.6009 38.3347 36.0686 37.5248C39.4385 36.739 41.5214 35.6965 41.5214 34.5899C41.5214 33.4812 39.4385 32.4388 36.0686 31.6549C34.8137 31.3623 33.3823 31.1097 31.8207 30.9072C29.2346 31.9456 26.7568 32.8738 25.4277 33.0923C23.884 33.3449 21.6688 33.0382 20.1273 32.8678C18.4032 32.6754 15.777 32.2303 14.3496 33.4692L14.6964 34.0867C14.955 34.4916 14.8087 35.1612 14.3215 35.3256C13.3592 35.6544 11.8437 36.3159 10.9937 36.8632C10.9175 36.8592 10.8052 36.9755 10.6669 36.8111L6.82212 32.2323ZM14.105 33.0262C15.5083 31.8494 17.6393 32.088 20.1855 32.3727C21.683 32.5411 23.9143 32.8498 25.4099 32.5932C27.1199 32.3005 30.9151 30.7488 34.271 29.3716C36.5804 28.4294 38.6894 27.5634 39.8039 27.2406C40.4093 26.9139 40.3451 25.9175 39.7958 25.5126C39.1543 25.0375 38.2763 25.252 37.5706 25.4163C36.8229 25.6148 35.5639 25.9897 34.0583 26.4708C32.8034 26.8758 31.364 27.3509 29.8905 27.8701C27.956 28.5517 26.1257 28.7242 24.5999 28.4635C23.0001 28.1909 21.7251 27.4431 20.9974 26.3065C20.8952 26.1461 21.0014 25.9396 21.1819 25.9215L25.5 25.236C26.8071 25.0315 28.3988 24.2396 28.439 22.7261C28.445 22.5296 28.3828 21.9883 28.1102 21.9803C26.4263 22.2129 24.0767 22.0685 22.1601 21.9483C19.8346 21.8059 18.1186 21.5794 15.9657 22.7982C14.7027 23.5159 13.0709 24.7268 10.5888 26.7295L11.6854 28.6941L14.105 33.0262ZM37.1213 25.0212L38.8133 23.6941C38.9256 23.5778 38.9456 23.4154 38.8935 23.251C38.7933 22.9543 38.5066 22.7338 38.2259 22.6235C37.5103 22.3429 36.6462 22.6676 36.0769 23.1207L30.2992 27.1983C31.5621 26.7593 32.7991 26.3483 33.9036 25.9954C35.2388 25.5724 36.3676 25.2317 37.1213 25.0212ZM28.7058 27.7095L34.8463 23.3753C34.4413 22.1985 32.7293 22.7298 32.0356 23.245L25.2398 28.0403C26.2862 28.1426 27.4628 28.0363 28.7058 27.7095ZM13.8987 23.5537C14.5924 23.0606 15.1857 22.6737 15.721 22.3709C16.3305 22.0261 16.8557 21.7916 17.3549 21.6332C16.5971 20.9275 15.9035 20.7692 14.4941 20.7471C14.3638 20.7471 14.2556 20.6589 14.2155 20.5426L12.0845 14.0752C12.0404 13.9449 12.0925 13.8066 12.2008 13.7304C12.9566 13.151 13.4076 12.716 13.6702 12.2128C13.9369 11.7036 14.0311 11.0942 14.0752 10.16C14.0812 10.0317 14.1674 9.92745 14.2797 9.89136L35.8564 2.78653C35.9787 2.74243 36.109 2.79054 36.1852 2.88677C37.36 4.34417 37.9894 4.60883 39.8278 4.63891C39.9581 4.64292 40.0683 4.72712 40.1064 4.84339L42.2374 11.3108C42.2815 11.4411 42.2294 11.5794 42.1211 11.6556C40.6417 12.7923 40.3409 13.3576 40.2448 15.224C40.2387 15.3523 40.1525 15.4565 40.0403 15.4926L29.2588 19.045L21.9816 21.4427C23.1363 21.5148 24.295 21.587 25.4497 21.605L43.2056 15.757C44.0997 15.4604 44.5889 14.49 44.2962 13.596L40.4071 1.78197C40.1104 0.887864 39.1361 0.398727 38.2419 0.691409L11.1262 9.62428C10.196 9.95105 9.73892 10.8572 10.0276 11.8014L13.8987 23.5537ZM18.0244 21.4628C18.7421 21.3265 19.5801 21.3325 20.3179 21.3546L26.7309 19.2416C26.0052 19.1293 25.2995 18.8667 24.646 18.4838C21.657 16.7276 20.3359 12.7164 21.6971 9.52474C21.9937 8.82909 22.4067 8.20164 22.9219 7.67637L14.6624 10.3948C14.5501 12.2251 14.1772 12.9407 12.7178 14.0834L14.7145 20.1496C16.3262 20.1997 17.0822 20.4725 18.0244 21.4628ZM25.8149 9.67498L25.5984 9.01746C25.4741 8.64257 26.0435 8.45611 26.1698 8.82901L26.3823 9.47052C27.2403 9.2941 28.3309 9.62288 28.6897 10.4849C28.84 10.8498 28.2847 11.0783 28.1364 10.7155C27.8778 10.096 26.9536 9.90157 26.3462 10.102C24.7183 10.6393 24.7223 12.9828 27.0879 12.3974C30.0589 11.6637 30.5039 14.775 28.4471 15.7373L28.6596 16.3848C28.7819 16.7597 28.2105 16.9462 28.0882 16.5732L27.8717 15.9197C27.0278 16.0681 25.9813 15.7353 25.6305 14.8933C25.4801 14.5285 26.0354 14.3 26.1837 14.6628C26.4424 15.2822 27.3665 15.4767 27.974 15.2762C29.6058 14.7389 29.6018 12.3954 27.2322 12.9808C24.2953 13.7085 23.8262 10.6693 25.8149 9.67498ZM27.5871 6.14068C29.9967 6.52558 31.9854 8.41803 32.7833 10.8397C33.5812 13.2614 33.104 15.9678 31.396 17.7079L39.6597 14.9855C39.772 13.1532 40.1629 12.4275 41.6002 11.2969L39.6035 5.23076C37.7752 5.17663 37.0295 4.82581 35.8487 3.41853L27.5871 6.14068ZM29.3673 7.41769C26.6609 5.82593 23.4813 6.87241 22.2465 9.7632C21.0036 12.6761 22.2185 16.3666 24.9489 17.9683C27.6552 19.5601 30.839 18.5136 32.0696 15.6228C33.3166 12.71 32.0977 9.01735 29.3673 7.41769ZM17.0303 14.6626C15.9317 15.0235 15.8255 16.535 16.8499 17.0522C17.8723 17.5694 19.029 16.5851 18.6662 15.4885C18.4437 14.8069 17.7139 14.4381 17.0303 14.6626ZM15.7413 15.0395C16.5031 13.532 18.7123 13.7044 19.2375 15.3001C19.7667 16.9059 18.0788 18.3433 16.5813 17.5875C15.6471 17.1164 15.2742 15.9737 15.7413 15.0395ZM36.2916 7.68629C37.8974 7.15707 39.3348 8.84901 38.579 10.3425C37.8172 11.8501 35.608 11.6817 35.0828 10.0819C34.752 9.08559 35.2953 8.0131 36.2916 7.68629ZM37.4664 8.3318C36.444 7.81459 35.2893 8.7989 35.6501 9.89549C36.011 10.9941 37.5225 11.1003 38.0397 10.0759C38.3605 9.43641 38.1059 8.65255 37.4664 8.3318ZM36.8289 40.0782V43.0853C37.29 42.9731 37.735 42.8528 38.16 42.7305C38.7895 42.546 39.3849 42.3536 39.9362 42.1491L39.9382 39.1541C39.425 39.3425 38.8797 39.519 38.3024 39.6854C37.8313 39.8217 37.3421 39.9519 36.8289 40.0782ZM36.3297 43.2016V40.1925C34.9144 40.5192 33.3628 40.7939 31.7069 41.0144V44.0315C33.3688 43.811 34.9204 43.5323 36.3297 43.2016ZM40.4374 38.9636V41.9526C41.2713 41.6198 41.993 41.265 42.5884 40.8941V37.9432C41.977 38.304 41.2553 38.6449 40.4374 38.9636ZM43.0896 37.6224V40.5533C43.9997 39.8757 44.4989 39.15 44.4989 38.3963V36.3134C44.1742 36.7704 43.7011 37.2075 43.0896 37.6224ZM22.7456 41.5898V44.6089C25.7487 44.6009 28.6033 44.4184 31.2053 44.0957V41.0786C28.5972 41.3973 25.7422 41.5818 22.7456 41.5898ZM22.2464 44.6089V41.5898C16.1803 41.5697 10.6875 40.848 6.69371 39.6873C3.63048 38.7992 1.43129 37.6345 0.497251 36.3154V38.3983C0.497251 40.0582 2.91897 41.5918 6.83227 42.7325C10.7795 43.8752 16.2204 44.5929 22.2464 44.6089Z" fill="#003781"/>
</svg>
