<svg width="344" height="99" viewBox="0 0 344 99" fill="none" xmlns="http://www.w3.org/2000/svg">
<rect width="344" height="98.8959" rx="10" fill="#F2F3FF"/>
<path d="M35.328 24.656C36.9067 24.656 38.272 24.9547 39.424 25.552C40.576 26.128 41.4613 26.96 42.08 28.048C42.6987 29.1147 43.008 30.3413 43.008 31.728C43.008 33.0933 42.6987 34.3093 42.08 35.376C41.4613 36.4427 40.576 37.2747 39.424 37.872C38.272 38.448 36.9067 38.736 35.328 38.736H30.72V46H26.368V24.656H35.328ZM35.328 34.672C36.3733 34.672 37.184 34.4053 37.76 33.872C38.3573 33.3387 38.656 32.624 38.656 31.728C38.656 30.8107 38.3573 30.0853 37.76 29.552C37.184 28.9973 36.3733 28.72 35.328 28.72H30.72V34.672H35.328ZM53.7608 30.384C54.4434 30.384 55.1048 30.512 55.7448 30.768L55.1688 34.768C54.6568 34.576 54.1128 34.48 53.5368 34.48C52.4488 34.48 51.5954 34.8427 50.9768 35.568C50.3581 36.2933 50.0488 37.3707 50.0488 38.8V46H45.9848V30.608H49.7928V33.36C50.5821 31.376 51.9048 30.384 53.7608 30.384ZM64.2375 46.352C62.7228 46.352 61.3682 46.0107 60.1735 45.328C59.0002 44.6453 58.0828 43.696 57.4215 42.48C56.7602 41.264 56.4295 39.8773 56.4295 38.32C56.4295 36.7413 56.7602 35.344 57.4215 34.128C58.0828 32.912 59.0002 31.9733 60.1735 31.312C61.3682 30.6293 62.7228 30.288 64.2375 30.288C65.7735 30.288 67.1282 30.6293 68.3015 31.312C69.4748 31.9733 70.3815 32.912 71.0215 34.128C71.6828 35.344 72.0135 36.7413 72.0135 38.32C72.0135 39.8773 71.6828 41.264 71.0215 42.48C70.3815 43.696 69.4748 44.6453 68.3015 45.328C67.1282 46.0107 65.7735 46.352 64.2375 46.352ZM64.2375 42.512C65.3255 42.512 66.2108 42.128 66.8935 41.36C67.5975 40.5707 67.9495 39.5573 67.9495 38.32C67.9495 37.0827 67.5975 36.08 66.8935 35.312C66.2108 34.5227 65.3255 34.128 64.2375 34.128C63.1282 34.128 62.2215 34.5227 61.5175 35.312C60.8348 36.08 60.4935 37.0827 60.4935 38.32C60.4935 39.5573 60.8348 40.5707 61.5175 41.36C62.2215 42.128 63.1282 42.512 64.2375 42.512ZM83.5273 45.616C83.0579 45.808 82.5246 45.9467 81.9273 46.032C81.3299 46.1387 80.7646 46.192 80.2313 46.192C78.6313 46.192 77.4046 45.7547 76.5513 44.88C75.6979 43.984 75.2713 42.7147 75.2713 41.072V34.352H73.3833V30.608H75.2713V27.12L79.3353 26.288V30.608H83.3353V34.352H79.3353V40.4C79.3353 41.7653 79.9753 42.448 81.2552 42.448C81.8099 42.448 82.3753 42.3413 82.9513 42.128L83.5273 45.616ZM99.7745 38.032C99.7745 38.672 99.7318 39.1947 99.6465 39.6H89.1825C89.4385 40.6027 89.9505 41.36 90.7185 41.872C91.4865 42.384 92.4465 42.64 93.5985 42.64C94.3665 42.64 95.1452 42.5333 95.9345 42.32C96.7452 42.0853 97.4918 41.776 98.1745 41.392L99.2945 44.784C98.5265 45.296 97.6305 45.6907 96.6065 45.968C95.6038 46.224 94.5372 46.352 93.4065 46.352C91.7638 46.352 90.3132 46.032 89.0545 45.392C87.7958 44.7307 86.8145 43.8027 86.1105 42.608C85.4065 41.392 85.0545 39.9627 85.0545 38.32C85.0545 36.7413 85.3638 35.344 85.9825 34.128C86.6225 32.912 87.4972 31.9733 88.6065 31.312C89.7372 30.6293 91.0172 30.288 92.4465 30.288C93.8758 30.288 95.1452 30.6187 96.2545 31.28C97.3638 31.92 98.2278 32.8267 98.8465 34C99.4652 35.1733 99.7745 36.5173 99.7745 38.032ZM92.5105 33.776C91.6572 33.776 90.9318 34.032 90.3345 34.544C89.7372 35.056 89.3425 35.76 89.1505 36.656H95.7425C95.6145 35.76 95.2625 35.056 94.6865 34.544C94.1318 34.032 93.4065 33.776 92.5105 33.776ZM109.611 46.352C108.118 46.352 106.784 46.0213 105.611 45.36C104.438 44.6773 103.52 43.728 102.859 42.512C102.198 41.296 101.867 39.8987 101.867 38.32C101.867 36.72 102.187 35.312 102.827 34.096C103.488 32.88 104.406 31.9413 105.579 31.28C106.752 30.6187 108.096 30.288 109.611 30.288C110.486 30.288 111.35 30.4053 112.203 30.64C113.056 30.8747 113.835 31.216 114.539 31.664L113.387 35.344C112.342 34.5333 111.168 34.128 109.867 34.128C108.672 34.128 107.712 34.5013 106.987 35.248C106.283 35.9733 105.931 36.9973 105.931 38.32C105.931 39.6427 106.283 40.6773 106.987 41.424C107.712 42.1493 108.672 42.512 109.867 42.512C110.486 42.512 111.104 42.416 111.723 42.224C112.342 42.0107 112.907 41.712 113.419 41.328L114.539 44.944C113.835 45.4133 113.056 45.7653 112.203 46C111.371 46.2347 110.507 46.352 109.611 46.352ZM125.684 45.616C125.214 45.808 124.681 45.9467 124.084 46.032C123.486 46.1387 122.921 46.192 122.388 46.192C120.788 46.192 119.561 45.7547 118.708 44.88C117.854 43.984 117.428 42.7147 117.428 41.072V34.352H115.54V30.608H117.428V27.12L121.492 26.288V30.608H125.492V34.352H121.492V40.4C121.492 41.7653 122.132 42.448 123.411 42.448C123.966 42.448 124.532 42.3413 125.108 42.128L125.684 45.616ZM130.251 28.08C129.525 28.08 128.928 27.8667 128.459 27.44C128.011 26.992 127.787 26.4267 127.787 25.744C127.787 25.04 128.011 24.4747 128.459 24.048C128.928 23.6 129.525 23.376 130.251 23.376C130.997 23.376 131.595 23.6 132.043 24.048C132.512 24.4747 132.747 25.04 132.747 25.744C132.747 26.4267 132.512 26.992 132.043 27.44C131.595 27.8667 130.997 28.08 130.251 28.08ZM132.299 30.608V46H128.235V30.608H132.299ZM143.113 46.352C141.598 46.352 140.243 46.0107 139.049 45.328C137.875 44.6453 136.958 43.696 136.297 42.48C135.635 41.264 135.305 39.8773 135.305 38.32C135.305 36.7413 135.635 35.344 136.297 34.128C136.958 32.912 137.875 31.9733 139.049 31.312C140.243 30.6293 141.598 30.288 143.113 30.288C144.649 30.288 146.003 30.6293 147.177 31.312C148.35 31.9733 149.257 32.912 149.897 34.128C150.558 35.344 150.889 36.7413 150.889 38.32C150.889 39.8773 150.558 41.264 149.897 42.48C149.257 43.696 148.35 44.6453 147.177 45.328C146.003 46.0107 144.649 46.352 143.113 46.352ZM143.113 42.512C144.201 42.512 145.086 42.128 145.769 41.36C146.473 40.5707 146.825 39.5573 146.825 38.32C146.825 37.0827 146.473 36.08 145.769 35.312C145.086 34.5227 144.201 34.128 143.113 34.128C142.003 34.128 141.097 34.5227 140.393 35.312C139.71 36.08 139.369 37.0827 139.369 38.32C139.369 39.5573 139.71 40.5707 140.393 41.36C141.097 42.128 142.003 42.512 143.113 42.512ZM162.53 30.288C164.344 30.288 165.741 30.8747 166.722 32.048C167.725 33.2213 168.226 34.864 168.226 36.976V46H164.162V37.84C164.162 36.5813 163.917 35.6533 163.426 35.056C162.936 34.4373 162.189 34.128 161.186 34.128C160.184 34.128 159.394 34.448 158.818 35.088C158.264 35.7067 157.986 36.592 157.986 37.744V46H153.922V30.608H157.73V33.008C158.221 32.112 158.882 31.44 159.714 30.992C160.546 30.5227 161.485 30.288 162.53 30.288ZM188.484 24.656C190.063 24.656 191.428 24.9547 192.58 25.552C193.732 26.128 194.618 26.96 195.236 28.048C195.855 29.1147 196.164 30.3413 196.164 31.728C196.164 33.0933 195.855 34.3093 195.236 35.376C194.618 36.4427 193.732 37.2747 192.58 37.872C191.428 38.448 190.063 38.736 188.484 38.736H183.876V46H179.524V24.656H188.484ZM188.484 34.672C189.53 34.672 190.34 34.4053 190.916 33.872C191.514 33.3387 191.812 32.624 191.812 31.728C191.812 30.8107 191.514 30.0853 190.916 29.552C190.34 28.9973 189.53 28.72 188.484 28.72H183.876V34.672H188.484ZM203.205 23.536V40.752C203.205 41.3493 203.322 41.7867 203.557 42.064C203.813 42.32 204.186 42.448 204.677 42.448C205.04 42.448 205.392 42.3733 205.733 42.224L206.149 45.744C205.488 46.0213 204.581 46.16 203.429 46.16C201.957 46.16 200.869 45.7973 200.165 45.072C199.482 44.3253 199.141 43.1307 199.141 41.488V23.536H203.205ZM214.247 46.352C212.903 46.352 211.708 46.0107 210.663 45.328C209.618 44.6453 208.807 43.696 208.231 42.48C207.655 41.264 207.367 39.8773 207.367 38.32C207.367 36.7413 207.655 35.344 208.231 34.128C208.807 32.912 209.618 31.9733 210.663 31.312C211.708 30.6293 212.903 30.288 214.247 30.288C216.274 30.288 217.884 31.12 219.079 32.784V30.608H222.887V46H219.079V43.856C217.884 45.52 216.274 46.352 214.247 46.352ZM215.239 42.512C216.348 42.512 217.223 42.1387 217.863 41.392C218.503 40.6453 218.823 39.6213 218.823 38.32C218.823 37.0187 218.503 35.9947 217.863 35.248C217.223 34.5013 216.348 34.128 215.239 34.128C214.108 34.128 213.191 34.512 212.487 35.28C211.783 36.048 211.431 37.0613 211.431 38.32C211.431 39.5573 211.783 40.5707 212.487 41.36C213.191 42.128 214.108 42.512 215.239 42.512ZM235.53 30.288C237.344 30.288 238.741 30.8747 239.722 32.048C240.725 33.2213 241.226 34.864 241.226 36.976V46H237.162V37.84C237.162 36.5813 236.917 35.6533 236.426 35.056C235.936 34.4373 235.189 34.128 234.186 34.128C233.184 34.128 232.394 34.448 231.818 35.088C231.264 35.7067 230.986 36.592 230.986 37.744V46H226.922V30.608H230.73V33.008C231.221 32.112 231.882 31.44 232.714 30.992C233.546 30.5227 234.485 30.288 235.53 30.288Z" fill="#0E2B81"/>
<path d="M32.22 78C31.4867 78 30.9533 77.82 30.62 77.46C30.2867 77.1 30.12 76.5867 30.12 75.92V67.2H32.28V75.38C32.28 75.98 32.5733 76.28 33.16 76.28H33.98V78H32.22ZM27.36 78C26.64 78 26.1067 77.82 25.76 77.46C25.4267 77.1 25.26 76.5867 25.26 75.92V67.2H27.44V75.38C27.44 75.98 27.7333 76.28 28.32 76.28H29.12V78H27.36ZM36.0998 78V69.22C36.0998 68.6333 36.2598 68.1533 36.5798 67.78C36.9132 67.3933 37.3865 67.2 37.9998 67.2H40.0598L40.1598 68.88H39.1198C38.7865 68.88 38.5465 68.96 38.3998 69.12C38.2665 69.2667 38.1998 69.5133 38.1998 69.86V75.08L40.8398 70.5H41.7198L44.3598 75.08V67.2H46.4398V78H44.2998L41.2798 72.66L38.2398 78H36.0998ZM52.6509 78.2C51.4909 78.2 50.5843 77.86 49.9309 77.18C49.2909 76.5 48.9709 75.5333 48.9709 74.28V67.2H51.1509V74.18C51.1509 74.9933 51.3309 75.58 51.6909 75.94C52.0509 76.2867 52.6109 76.46 53.3709 76.46C53.9576 76.46 54.5176 76.34 55.0509 76.1C55.5843 75.8467 56.0243 75.5333 56.3709 75.16V67.2H58.5309V78H56.5509L56.4509 76.82C55.9576 77.2333 55.3976 77.5667 54.7709 77.82C54.1576 78.0733 53.4509 78.2 52.6509 78.2ZM61.0803 78V71.16C61.0803 69.8533 61.4736 68.8333 62.2603 68.1C63.047 67.3667 64.287 67 65.9803 67C67.687 67 68.9203 67.3667 69.6803 68.1C70.4536 68.8333 70.8403 69.8533 70.8403 71.16V78H68.6603V70.96C68.6603 70.2 68.427 69.6467 67.9603 69.3C67.4936 68.94 66.8336 68.76 65.9803 68.76C65.087 68.76 64.407 68.94 63.9403 69.3C63.487 69.6467 63.2603 70.2 63.2603 70.96V73.18C63.847 72.7 64.547 72.46 65.3603 72.46H66.6603L66.7403 74.2H65.3003C64.487 74.2 63.807 74.4267 63.2603 74.88V78H61.0803ZM68.985 83.04V80.56H67.725L67.825 79.14H70.845V83.04H68.985ZM66.265 65.56V63.72H64.685V62.22H67.765V64.04H72.085L72.005 65.56H66.265ZM79.265 78.2C78.4517 78.2 77.7383 78.0733 77.125 77.82C76.525 77.5667 75.9783 77.2333 75.485 76.82L75.365 78H73.385V67.2H75.565V75.16C75.9117 75.5333 76.345 75.8467 76.865 76.1C77.385 76.34 77.945 76.46 78.545 76.46C79.2917 76.46 79.8517 76.2867 80.225 75.94C80.5983 75.58 80.785 74.9933 80.785 74.18V67.2H82.945V74.28C82.945 75.5333 82.6183 76.5 81.965 77.18C81.3117 77.86 80.4117 78.2 79.265 78.2ZM85.4944 78V71.16C85.4944 69.8533 85.8877 68.8333 86.6744 68.1C87.461 67.3667 88.701 67 90.3944 67C92.101 67 93.3344 67.3667 94.0944 68.1C94.8677 68.8333 95.2544 69.8533 95.2544 71.16V78H93.0744V70.96C93.0744 70.2 92.841 69.6467 92.3744 69.3C91.9077 68.94 91.2477 68.76 90.3944 68.76C89.501 68.76 88.821 68.94 88.3544 69.3C87.901 69.6467 87.6744 70.2 87.6744 70.96V73.18C88.261 72.7 88.961 72.46 89.7744 72.46H91.0744L91.1544 74.2H89.7144C88.901 74.2 88.221 74.4267 87.6744 74.88V78H85.4944ZM101.339 78.2C100.632 78.2 99.9457 78.1533 99.2791 78.06C98.6257 77.9667 98.0857 77.8333 97.6591 77.66V75.84C98.1657 76.04 98.7124 76.1933 99.2991 76.3C99.8991 76.4067 100.446 76.46 100.939 76.46C101.859 76.46 102.539 76.38 102.979 76.22C103.419 76.0467 103.639 75.6933 103.639 75.16C103.639 74.7733 103.526 74.48 103.299 74.28C103.072 74.08 102.739 73.9067 102.299 73.76C101.859 73.6 101.312 73.4133 100.659 73.2C100.046 72.9867 99.4924 72.7533 98.9991 72.5C98.5057 72.2467 98.1124 71.9267 97.8191 71.54C97.5391 71.1533 97.3991 70.6667 97.3991 70.08C97.3991 69.1333 97.7591 68.3867 98.4791 67.84C99.1991 67.28 100.286 67 101.739 67C102.352 67 102.959 67.0467 103.559 67.14C104.159 67.2333 104.652 67.3467 105.039 67.48V69.28C104.599 69.1067 104.106 68.98 103.559 68.9C103.026 68.8067 102.526 68.76 102.059 68.76C101.286 68.76 100.666 68.8467 100.199 69.02C99.7324 69.18 99.4991 69.5133 99.4991 70.02C99.4991 70.3533 99.6191 70.62 99.8591 70.82C100.099 71.0067 100.439 71.18 100.879 71.34C101.332 71.4867 101.872 71.6667 102.499 71.88C103.206 72.1067 103.799 72.36 104.279 72.64C104.759 72.9067 105.119 73.24 105.359 73.64C105.612 74.0267 105.739 74.5333 105.739 75.16C105.739 76.2133 105.339 76.9867 104.539 77.48C103.752 77.96 102.686 78.2 101.339 78.2ZM111.917 78.2C111.064 78.2 110.257 78.12 109.497 77.96C108.751 77.8 108.124 77.6133 107.617 77.4V71.84H111.897L111.997 73.5H109.717V76.12C110.024 76.2267 110.371 76.3133 110.757 76.38C111.157 76.4333 111.544 76.46 111.917 76.46C113.104 76.46 113.937 76.18 114.417 75.62C114.911 75.0467 115.157 74.0533 115.157 72.64C115.157 71.6533 115.037 70.88 114.797 70.32C114.557 69.7467 114.157 69.3467 113.597 69.12C113.051 68.88 112.304 68.76 111.357 68.76C110.784 68.76 110.184 68.8 109.557 68.88C108.931 68.96 108.337 69.0933 107.777 69.28V67.6C108.337 67.4133 108.977 67.2667 109.697 67.16C110.431 67.0533 111.164 67 111.897 67C113.791 67 115.157 67.48 115.997 68.44C116.837 69.3867 117.257 70.7867 117.257 72.64C117.257 74.4533 116.837 75.8333 115.997 76.78C115.157 77.7267 113.797 78.2 111.917 78.2ZM123.621 78.2C123.314 78.2 122.974 78.18 122.601 78.14C122.228 78.1 121.901 78.0333 121.621 77.94L118.581 70.54H120.701L123.161 76.54C124.308 76.5933 125.141 76.2667 125.661 75.56C126.181 74.84 126.441 73.74 126.441 72.26C126.441 71.3933 126.361 70.7133 126.201 70.22C126.041 69.7133 125.768 69.36 125.381 69.16C125.008 68.9467 124.488 68.84 123.821 68.84H123.061V67.2H124.101C125.648 67.2 126.774 67.6133 127.481 68.44C128.188 69.2667 128.541 70.5333 128.541 72.24C128.541 73.6533 128.328 74.8 127.901 75.68C127.474 76.5467 126.888 77.1867 126.141 77.6C125.408 78 124.568 78.2 123.621 78.2ZM134.21 78.2C133.503 78.2 132.817 78.1533 132.15 78.06C131.497 77.9667 130.957 77.8333 130.53 77.66V75.84C131.037 76.04 131.583 76.1933 132.17 76.3C132.77 76.4067 133.317 76.46 133.81 76.46C134.73 76.46 135.41 76.38 135.85 76.22C136.29 76.0467 136.51 75.6933 136.51 75.16C136.51 74.7733 136.397 74.48 136.17 74.28C135.943 74.08 135.61 73.9067 135.17 73.76C134.73 73.6 134.183 73.4133 133.53 73.2C132.917 72.9867 132.363 72.7533 131.87 72.5C131.377 72.2467 130.983 71.9267 130.69 71.54C130.41 71.1533 130.27 70.6667 130.27 70.08C130.27 69.1333 130.63 68.3867 131.35 67.84C132.07 67.28 133.157 67 134.61 67C135.223 67 135.83 67.0467 136.43 67.14C137.03 67.2333 137.523 67.3467 137.91 67.48V69.28C137.47 69.1067 136.977 68.98 136.43 68.9C135.897 68.8067 135.397 68.76 134.93 68.76C134.157 68.76 133.537 68.8467 133.07 69.02C132.603 69.18 132.37 69.5133 132.37 70.02C132.37 70.3533 132.49 70.62 132.73 70.82C132.97 71.0067 133.31 71.18 133.75 71.34C134.203 71.4867 134.743 71.6667 135.37 71.88C136.077 72.1067 136.67 72.36 137.15 72.64C137.63 72.9067 137.99 73.24 138.23 73.64C138.483 74.0267 138.61 74.5333 138.61 75.16C138.61 76.2133 138.21 76.9867 137.41 77.48C136.623 77.96 135.557 78.2 134.21 78.2ZM144.828 78V71.2C144.828 70.6533 144.768 70.2 144.648 69.84C144.528 69.48 144.302 69.2133 143.968 69.04C143.635 68.8533 143.142 68.76 142.488 68.76C142.062 68.76 141.595 68.8067 141.088 68.9C140.595 68.9933 140.148 69.12 139.748 69.28V67.6C140.148 67.4267 140.628 67.2867 141.188 67.18C141.762 67.06 142.335 67 142.908 67C144.348 67 145.388 67.3133 146.028 67.94C146.682 68.5667 147.008 69.56 147.008 70.92V78H144.828ZM154.077 78.2C153.117 78.2 152.264 78.0867 151.517 77.86C150.77 77.6333 150.177 77.2733 149.737 76.78C149.31 76.2867 149.097 75.6333 149.097 74.82C149.097 74.2733 149.224 73.7933 149.477 73.38C149.73 72.9533 150.104 72.62 150.597 72.38C150.184 72.22 149.837 71.9467 149.557 71.56C149.29 71.1733 149.157 70.6933 149.157 70.12C149.157 69.0933 149.47 68.32 150.097 67.8C150.737 67.2667 151.55 67 152.537 67C152.924 67 153.257 67.0267 153.537 67.08C153.817 67.12 154.07 67.18 154.297 67.26V68.92C153.91 68.8133 153.457 68.76 152.937 68.76C152.404 68.76 151.99 68.8667 151.697 69.08C151.404 69.2933 151.257 69.64 151.257 70.12C151.257 70.6267 151.424 70.9933 151.757 71.22C152.09 71.4333 152.55 71.54 153.137 71.54H154.277L154.377 73.16H153.097C151.83 73.16 151.197 73.7133 151.197 74.82C151.197 75.3667 151.424 75.78 151.877 76.06C152.33 76.3267 153.03 76.46 153.977 76.46C155.857 76.46 156.797 75.6933 156.797 74.16V67.2H158.957V73.9C158.957 75.3533 158.55 76.4333 157.737 77.14C156.924 77.8467 155.704 78.2 154.077 78.2ZM163.91 78C163.177 78 162.644 77.82 162.31 77.46C161.977 77.1 161.81 76.5867 161.81 75.92V67.02C161.81 66.2333 161.95 65.58 162.23 65.06C162.51 64.54 162.877 64.1333 163.33 63.84H159.99V62.12H165.97V63.76C165.237 64.0533 164.717 64.4867 164.41 65.06C164.117 65.62 163.97 66.38 163.97 67.34V75.38C163.97 75.7267 164.024 75.9667 164.13 76.1C164.25 76.22 164.49 76.28 164.85 76.28H165.77V78H163.91ZM171.526 78.2C170.686 78.2 169.933 78.0133 169.266 77.64C168.599 77.2667 168.073 76.68 167.686 75.88C167.299 75.0667 167.106 74.0267 167.106 72.76C167.106 70.96 167.566 69.5533 168.486 68.54C169.406 67.5133 170.786 67 172.626 67C173.866 67 174.866 67.2133 175.626 67.64C176.386 68.0533 176.939 68.5933 177.286 69.26C177.646 69.9267 177.826 70.64 177.826 71.4V78H175.646V71.5C175.646 70.9667 175.553 70.4933 175.366 70.08C175.179 69.6667 174.859 69.3467 174.406 69.12C173.966 68.88 173.359 68.76 172.586 68.76C171.413 68.76 170.553 69.1 170.006 69.78C169.473 70.46 169.206 71.4533 169.206 72.76C169.206 74.1333 169.439 75.0933 169.906 75.64C170.373 76.1867 171.039 76.46 171.906 76.46C172.159 76.46 172.406 76.4467 172.646 76.42C172.899 76.3933 173.113 76.3533 173.286 76.3V77.96C173.059 78.04 172.806 78.1 172.526 78.14C172.246 78.18 171.913 78.2 171.526 78.2ZM173.238 65.56V63.72H171.658V62.22H174.738V64.04H179.058L178.978 65.56H173.238ZM182.198 78C181.464 78 180.931 77.82 180.598 77.46C180.264 77.1 180.098 76.5867 180.098 75.92V69.3C180.098 68.6333 180.218 68.0733 180.458 67.62C180.698 67.1667 180.971 66.7867 181.278 66.48C181.584 66.16 181.858 65.8733 182.098 65.62C182.338 65.3533 182.458 65.0733 182.458 64.78C182.458 64.3933 182.344 64.1333 182.118 64C181.904 63.8667 181.578 63.8 181.138 63.8C180.418 63.8 179.691 64 178.958 64.4V62.8C179.358 62.56 179.818 62.38 180.338 62.26C180.871 62.1267 181.384 62.06 181.878 62.06C182.824 62.06 183.531 62.26 183.998 62.66C184.464 63.06 184.698 63.6267 184.698 64.36C184.698 64.7867 184.611 65.16 184.438 65.48C184.278 65.7867 184.078 66.0733 183.838 66.34C183.598 66.6067 183.358 66.88 183.118 67.16C182.878 67.44 182.671 67.7533 182.498 68.1C182.338 68.4467 182.258 68.8667 182.258 69.36V75.38C182.258 75.7267 182.311 75.9667 182.418 76.1C182.538 76.22 182.778 76.28 183.138 76.28H184.058V78H182.198ZM186.237 78V67.2H188.417V70.6H191.537C192.323 70.6 192.863 70.4333 193.157 70.1C193.463 69.7533 193.617 69.2533 193.617 68.6V67.2H195.777V68.54C195.777 69.2067 195.657 69.7933 195.417 70.3C195.19 70.8067 194.77 71.1733 194.157 71.4C194.77 71.6133 195.177 71.9533 195.377 72.42C195.577 72.8733 195.677 73.4067 195.677 74.02V78H193.517V74.28C193.517 73.5067 193.37 72.98 193.077 72.7C192.783 72.4067 192.243 72.26 191.457 72.26H188.417V78H186.237ZM191.187 65.56V63.72H189.607V62.22H192.687V64.04H197.007L196.927 65.56H191.187ZM198.307 78V71.16C198.307 69.8533 198.7 68.8333 199.487 68.1C200.274 67.3667 201.514 67 203.207 67C204.914 67 206.147 67.3667 206.907 68.1C207.68 68.8333 208.067 69.8533 208.067 71.16V78H205.887V70.96C205.887 70.2 205.654 69.6467 205.187 69.3C204.72 68.94 204.06 68.76 203.207 68.76C202.314 68.76 201.634 68.94 201.167 69.3C200.714 69.6467 200.487 70.2 200.487 70.96V73.18C201.074 72.7 201.774 72.46 202.587 72.46H203.887L203.967 74.2H202.527C201.714 74.2 201.034 74.4267 200.487 74.88V78H198.307ZM214.152 78.2C213.445 78.2 212.758 78.1533 212.092 78.06C211.438 77.9667 210.898 77.8333 210.472 77.66V75.84C210.978 76.04 211.525 76.1933 212.112 76.3C212.712 76.4067 213.258 76.46 213.752 76.46C214.672 76.46 215.352 76.38 215.792 76.22C216.232 76.0467 216.452 75.6933 216.452 75.16C216.452 74.7733 216.338 74.48 216.112 74.28C215.885 74.08 215.552 73.9067 215.112 73.76C214.672 73.6 214.125 73.4133 213.472 73.2C212.858 72.9867 212.305 72.7533 211.812 72.5C211.318 72.2467 210.925 71.9267 210.632 71.54C210.352 71.1533 210.212 70.6667 210.212 70.08C210.212 69.1333 210.572 68.3867 211.292 67.84C212.012 67.28 213.098 67 214.552 67C215.165 67 215.772 67.0467 216.372 67.14C216.972 67.2333 217.465 67.3467 217.852 67.48V69.28C217.412 69.1067 216.918 68.98 216.372 68.9C215.838 68.8067 215.338 68.76 214.872 68.76C214.098 68.76 213.478 68.8467 213.012 69.02C212.545 69.18 212.312 69.5133 212.312 70.02C212.312 70.3533 212.432 70.62 212.672 70.82C212.912 71.0067 213.252 71.18 213.692 71.34C214.145 71.4867 214.685 71.6667 215.312 71.88C216.018 72.1067 216.612 72.36 217.092 72.64C217.572 72.9067 217.932 73.24 218.172 73.64C218.425 74.0267 218.552 74.5333 218.552 75.16C218.552 76.2133 218.152 76.9867 217.352 77.48C216.565 77.96 215.498 78.2 214.152 78.2ZM224.73 78.2C223.876 78.2 223.07 78.12 222.31 77.96C221.563 77.8 220.936 77.6133 220.43 77.4V71.84H224.71L224.81 73.5H222.53V76.12C222.836 76.2267 223.183 76.3133 223.57 76.38C223.97 76.4333 224.356 76.46 224.73 76.46C225.916 76.46 226.75 76.18 227.23 75.62C227.723 75.0467 227.97 74.0533 227.97 72.64C227.97 71.6533 227.85 70.88 227.61 70.32C227.37 69.7467 226.97 69.3467 226.41 69.12C225.863 68.88 225.116 68.76 224.17 68.76C223.596 68.76 222.996 68.8 222.37 68.88C221.743 68.96 221.15 69.0933 220.59 69.28V67.6C221.15 67.4133 221.79 67.2667 222.51 67.16C223.243 67.0533 223.976 67 224.71 67C226.603 67 227.97 67.48 228.81 68.44C229.65 69.3867 230.07 70.7867 230.07 72.64C230.07 74.4533 229.65 75.8333 228.81 76.78C227.97 77.7267 226.61 78.2 224.73 78.2ZM237.134 78.2C235.587 78.2 234.374 77.8333 233.494 77.1C232.627 76.3667 232.194 75.2667 232.194 73.8V67.2H234.374V73.88C234.374 74.7733 234.607 75.4267 235.074 75.84C235.554 76.2533 236.24 76.46 237.134 76.46C238.04 76.46 238.727 76.2533 239.194 75.84C239.674 75.4267 239.914 74.7733 239.914 73.88V67.2H242.074V73.8C242.074 75.2667 241.64 76.3667 240.774 77.1C239.907 77.8333 238.694 78.2 237.134 78.2ZM244.615 78V71.16C244.615 69.8533 245.009 68.8333 245.795 68.1C246.582 67.3667 247.822 67 249.515 67C251.222 67 252.455 67.3667 253.215 68.1C253.989 68.8333 254.375 69.8533 254.375 71.16V78H252.195V70.96C252.195 70.2 251.962 69.6467 251.495 69.3C251.029 68.94 250.369 68.76 249.515 68.76C248.622 68.76 247.942 68.94 247.475 69.3C247.022 69.6467 246.795 70.2 246.795 70.96V73.18C247.382 72.7 248.082 72.46 248.895 72.46H250.195L250.275 74.2H248.835C248.022 74.2 247.342 74.4267 246.795 74.88V78H244.615ZM260.46 78.2C259.753 78.2 259.067 78.1533 258.4 78.06C257.747 77.9667 257.207 77.8333 256.78 77.66V75.84C257.287 76.04 257.833 76.1933 258.42 76.3C259.02 76.4067 259.567 76.46 260.06 76.46C260.98 76.46 261.66 76.38 262.1 76.22C262.54 76.0467 262.76 75.6933 262.76 75.16C262.76 74.7733 262.647 74.48 262.42 74.28C262.193 74.08 261.86 73.9067 261.42 73.76C260.98 73.6 260.433 73.4133 259.78 73.2C259.167 72.9867 258.613 72.7533 258.12 72.5C257.627 72.2467 257.233 71.9267 256.94 71.54C256.66 71.1533 256.52 70.6667 256.52 70.08C256.52 69.1333 256.88 68.3867 257.6 67.84C258.32 67.28 259.407 67 260.86 67C261.473 67 262.08 67.0467 262.68 67.14C263.28 67.2333 263.773 67.3467 264.16 67.48V69.28C263.72 69.1067 263.227 68.98 262.68 68.9C262.147 68.8067 261.647 68.76 261.18 68.76C260.407 68.76 259.787 68.8467 259.32 69.02C258.853 69.18 258.62 69.5133 258.62 70.02C258.62 70.3533 258.74 70.62 258.98 70.82C259.22 71.0067 259.56 71.18 260 71.34C260.453 71.4867 260.993 71.6667 261.62 71.88C262.327 72.1067 262.92 72.36 263.4 72.64C263.88 72.9067 264.24 73.24 264.48 73.64C264.733 74.0267 264.86 74.5333 264.86 75.16C264.86 76.2133 264.46 76.9867 263.66 77.48C262.873 77.96 261.807 78.2 260.46 78.2ZM259.718 65.56V62.64H261.518V64.04H266.698L266.598 65.56H259.718ZM269.678 78.2C268.438 78.2 267.358 78 266.438 77.6V75.88C266.838 76.0533 267.272 76.1933 267.738 76.3C268.218 76.4067 268.692 76.46 269.158 76.46C270.065 76.46 270.785 76.3333 271.318 76.08C271.852 75.8267 272.232 75.42 272.458 74.86C272.698 74.2867 272.818 73.5333 272.818 72.6C272.818 71.2133 272.532 70.2267 271.958 69.64C271.398 69.0533 270.458 68.76 269.138 68.76C268.658 68.76 268.192 68.8133 267.738 68.92C267.285 69.0133 266.852 69.1533 266.438 69.34V67.6C266.892 67.4133 267.378 67.2667 267.898 67.16C268.432 67.0533 269.005 67 269.618 67C271.405 67 272.732 67.48 273.598 68.44C274.478 69.3867 274.918 70.7733 274.918 72.6C274.918 74.4133 274.498 75.8 273.658 76.76C272.832 77.72 271.505 78.2 269.678 78.2Z" fill="#0E2B81"/>
<path d="M317.852 16.6238H315.263C315.172 16.6238 315.098 16.551 315.098 16.4616V13.9161C315.098 13.8266 315.172 13.7539 315.263 13.7539H317.852C317.943 13.7539 318.017 13.8266 318.017 13.9161V16.4616C318.017 16.551 317.943 16.6238 317.852 16.6238ZM315.428 16.2994H317.687V14.0785H315.428V16.2994Z" fill="#5464C4"/>
<path d="M316.505 16.0002C316.458 16.0002 316.413 15.9806 316.382 15.9461L315.722 15.2189C315.661 15.1519 315.667 15.0496 315.735 14.9897C315.803 14.9301 315.907 14.9358 315.968 15.0028L316.489 15.5762L317.717 13.8241C317.769 13.7503 317.871 13.7318 317.946 13.7825C318.021 13.8333 318.04 13.9342 317.989 14.008L316.641 15.9299C316.612 15.9709 316.566 15.9966 316.516 15.9997C316.512 15.9997 316.509 16 316.505 16V16.0002Z" fill="#5464C4"/>
<path d="M284.232 52.5708H282.38C282.289 52.5708 282.215 52.4981 282.215 52.4086V50.588C282.215 50.4985 282.289 50.4258 282.38 50.4258H284.232C284.323 50.4258 284.397 50.4985 284.397 50.588V52.4086C284.397 52.4981 284.323 52.5708 284.232 52.5708ZM282.545 52.2464H284.067V50.7501H282.545V52.2464Z" fill="#5464C4"/>
<path d="M283.268 52.1251C283.221 52.1251 283.176 52.1055 283.145 52.071L282.673 51.5507C282.612 51.4837 282.618 51.3814 282.686 51.3215C282.754 51.2619 282.858 51.2677 282.919 51.3346L283.252 51.7008L284.097 50.496C284.148 50.4222 284.251 50.4036 284.326 50.4544C284.401 50.5051 284.42 50.6061 284.368 50.6799L283.405 52.0548C283.376 52.0958 283.329 52.1215 283.279 52.1246C283.275 52.1246 283.272 52.1249 283.269 52.1249L283.268 52.1251Z" fill="#5464C4"/>
<path d="M327.837 37.0279H325.231C325.14 37.0279 325.066 36.9551 325.066 36.8657V34.3048C325.066 34.2153 325.14 34.1426 325.231 34.1426H327.837C327.928 34.1426 328.002 34.2153 328.002 34.3048V36.8657C328.002 36.9551 327.928 37.0279 327.837 37.0279ZM325.396 36.7035H327.672V34.4669H325.396V36.7035Z" fill="#5464C4"/>
<path d="M326.48 36.4C326.433 36.4 326.388 36.3803 326.357 36.3458L325.692 35.6139C325.632 35.5469 325.637 35.4446 325.706 35.3847C325.774 35.3251 325.878 35.3309 325.939 35.3978L326.463 35.9757L327.7 34.2118C327.752 34.138 327.855 34.1195 327.93 34.1702C328.005 34.2209 328.024 34.3219 327.972 34.3957L326.616 36.3296C326.587 36.3707 326.541 36.3963 326.491 36.3994C326.487 36.3994 326.484 36.3997 326.48 36.3997L326.48 36.4Z" fill="#5464C4"/>
<path d="M306.98 27.0988C306.98 27.0988 307.831 26.1291 308.594 26.3679C309.356 26.6065 309.532 28.2477 308.74 28.6058C307.948 28.9639 306.951 28.3672 306.951 28.3672L306.98 27.0991V27.0988Z" fill="#FFBF9D"/>
<path d="M306.889 28.4601C306.855 28.44 306.835 28.4034 306.836 28.3644L306.865 27.0962C306.866 27.0709 306.875 27.0465 306.892 27.0274C306.921 26.9945 307.608 26.2207 308.337 26.2207C308.436 26.2207 308.532 26.2351 308.623 26.2636C309.088 26.4093 309.328 26.9756 309.359 27.4724C309.388 27.9291 309.251 28.4928 308.782 28.7047C308.6 28.7874 308.394 28.8292 308.17 28.8292C307.513 28.8292 306.914 28.4753 306.889 28.4604L306.889 28.4601ZM307.086 27.1417L307.059 28.3037C307.216 28.3866 307.683 28.6105 308.17 28.6105C308.362 28.6105 308.537 28.5755 308.69 28.5062C309.057 28.3401 309.161 27.8527 309.138 27.4857C309.107 26.9861 308.867 26.5691 308.556 26.4718C308.487 26.4501 308.413 26.4391 308.337 26.4391C307.782 26.4391 307.213 27.0073 307.086 27.1417Z" fill="#EBA37C"/>
<path d="M308.009 21.9584C308.485 22.65 308.366 24.1719 308.06 25.5209C307.754 26.8699 307.635 22.9268 307.635 22.9268L306.717 21.8027L308.009 21.9584H308.009Z" fill="#553306"/>
<path d="M300.485 31.8155C300.459 31.4263 301.505 32.1268 303.494 32.075C305.483 32.0232 306.886 31.8935 306.937 32.0232C306.988 32.153 306.784 33.0869 306.784 33.0869L301.53 33.5279L300.485 31.8158V31.8155Z" fill="#333333"/>
<path d="M308.161 25.9525C307.957 24.4478 308.263 23.3583 308.008 22.6319C308.008 22.6319 307.116 19.4236 302.832 20.2018C302.78 20.2112 302.729 20.2214 302.678 20.2324C300.492 20.7074 299.107 22.4734 299.649 24.6793L300.116 26.5774C299.801 26.4035 299.434 26.292 299.082 26.4022C298.198 26.6789 297.994 28.5812 298.912 28.9963C299.539 29.2793 300.274 29.0478 300.68 28.8718L300.751 29.1635L300.868 33.3891C304.506 34.5997 306.512 33.4236 306.512 33.4236L306.357 31.1845C308.942 30.4416 308.359 27.4142 308.161 25.9527L308.161 25.9525Z" fill="#FFBF9D"/>
<path d="M300.831 33.4926C300.787 33.4779 300.757 33.4377 300.756 33.3921L300.64 29.178L300.602 29.0221C300.327 29.1301 299.955 29.2382 299.569 29.2382C299.312 29.2382 299.075 29.19 298.866 29.0953C298.33 28.8534 298.175 28.2075 298.207 27.6838C298.243 27.1141 298.517 26.4646 299.048 26.2979C299.32 26.2129 299.626 26.2393 299.952 26.3759L299.541 24.7049C299.29 23.6818 299.431 22.7095 299.949 21.8931C300.51 21.0105 301.47 20.383 302.654 20.1256C302.706 20.1143 302.758 20.1039 302.811 20.0942C303.262 20.0123 303.698 19.9707 304.106 19.9707C307.345 19.9707 308.108 22.5766 308.113 22.5962C308.25 22.9865 308.233 23.4752 308.213 24.041C308.194 24.5895 308.172 25.2116 308.271 25.938C308.281 26.0167 308.293 26.1002 308.306 26.1875C308.52 27.6982 308.915 30.4951 306.473 31.2631L306.622 33.4157C306.625 33.4568 306.604 33.496 306.568 33.5169C306.532 33.5386 305.649 34.0451 303.996 34.0451C302.999 34.0451 301.934 33.8591 300.831 33.4921V33.4926ZM306.246 31.1919C306.242 31.1407 306.275 31.0941 306.325 31.0797C308.678 30.4035 308.307 27.7835 308.086 26.2179C308.073 26.1303 308.061 26.0463 308.05 25.967C307.949 25.2223 307.971 24.5908 307.991 24.0339C308.011 23.4676 308.026 23.02 307.9 22.6614C307.872 22.5604 307.171 20.1897 304.105 20.1897C303.711 20.1897 303.289 20.2299 302.851 20.3095C302.801 20.3186 302.751 20.3288 302.702 20.3393C301.576 20.5836 300.666 21.1769 300.137 22.009C299.651 22.7744 299.52 23.6891 299.757 24.6541L300.223 26.5519C300.234 26.5941 300.218 26.6383 300.182 26.6644C300.147 26.6906 300.099 26.6937 300.061 26.6725C299.708 26.4776 299.388 26.4206 299.115 26.5062C298.748 26.6213 298.465 27.1109 298.429 27.6972C298.4 28.1487 298.525 28.7009 298.958 28.8971C299.138 28.9784 299.343 29.0197 299.568 29.0197C299.978 29.0197 300.374 28.885 300.634 28.7718C300.664 28.7589 300.699 28.7595 300.728 28.7738C300.758 28.7882 300.78 28.8147 300.787 28.846L300.859 29.1377C300.861 29.1453 300.862 29.1529 300.862 29.1605L300.976 33.3097C302.029 33.6532 303.045 33.8269 303.996 33.8269C305.349 33.8269 306.176 33.469 306.396 33.3605L306.246 31.1919H306.246Z" fill="#EBA37C"/>
<path d="M298.953 23.9767C298.368 23.3207 297.357 22.3675 298.655 21.5205C299.952 20.6734 300.198 21.6539 301.078 20.3765C301.959 19.0992 303.827 17.9972 305.042 19.0445C306.256 20.0922 308.867 18.9075 309.525 19.997C310.184 21.0865 309.648 22.334 308.927 22.8462C308.206 23.3584 306.224 23.4889 304.196 23.1347C302.169 22.7805 300.381 24.6106 300.381 24.6106L298.953 23.9765V23.9767Z" fill="#553306"/>
<path d="M306.449 31.0273C305.719 31.2887 303.997 31.3054 303.289 31.0791C303.289 31.0791 304.023 32.5139 306.351 32.2785L306.449 31.0273Z" fill="#EBA37C"/>
<path d="M316.683 37.1424L316.679 37.1097C316.679 37.1097 312.142 33.3042 306.781 33.0868L305.761 33.424L304.792 32.9053L303.619 33.3549L299.998 32.9571C296.785 33.7008 291.922 35.6375 290.086 37.1249C287.805 38.6277 286.587 51.4789 286.021 57.3826L293.475 57.3342L316.204 57.6107L320.846 57.4912C321.273 56.7901 319.838 41.3995 316.683 37.1419L316.683 37.1424Z" fill="#243286"/>
<path d="M304.796 32.9049C303.3 33.0721 300.971 32.3601 300.487 31.8154L300.002 32.9567C300.002 32.9567 301.864 36.4847 302.246 36.4329C302.629 36.3811 304.082 33.2162 304.771 33.0606C305.459 32.9049 307.015 35.5768 307.194 35.6288C307.372 35.6806 307.092 32.1008 306.939 32.0231C306.786 31.9452 307.117 32.6457 304.796 32.9052V32.9049Z" fill="#A0ADFF"/>
<path d="M304.781 34.383C304.941 34.383 305.07 34.2513 305.07 34.0889C305.07 33.9266 304.941 33.7949 304.781 33.7949C304.622 33.7949 304.492 33.9266 304.492 34.0889C304.492 34.2513 304.622 34.383 304.781 34.383Z" fill="#818FE6"/>
<path d="M304.682 34.2356C304.675 34.2356 304.669 34.2329 304.664 34.228C304.654 34.2178 304.654 34.2016 304.664 34.1914L304.874 33.9774C304.884 33.9672 304.9 33.9672 304.91 33.9774C304.92 33.9876 304.92 34.0038 304.91 34.014L304.7 34.228C304.695 34.2329 304.688 34.2356 304.682 34.2356Z" fill="#333333"/>
<path d="M304.892 34.2356C304.899 34.2356 304.905 34.2329 304.91 34.228C304.92 34.2178 304.92 34.2016 304.91 34.1914L304.7 33.9774C304.69 33.9672 304.674 33.9672 304.664 33.9774C304.654 33.9876 304.654 34.0038 304.664 34.014L304.874 34.228C304.879 34.2329 304.886 34.2356 304.892 34.2356Z" fill="#333333"/>
<path d="M305.084 36.5871C305.243 36.5871 305.373 36.4554 305.373 36.293C305.373 36.1307 305.243 35.999 305.084 35.999C304.924 35.999 304.795 36.1307 304.795 36.293C304.795 36.4554 304.924 36.5871 305.084 36.5871Z" fill="#818FE6"/>
<path d="M304.983 36.4406C304.976 36.4406 304.969 36.438 304.964 36.4331C304.955 36.4229 304.955 36.4066 304.964 36.3964L305.175 36.1825C305.185 36.1723 305.201 36.1723 305.211 36.1825C305.221 36.1927 305.221 36.2089 305.211 36.2191L305.001 36.4331C304.996 36.438 304.989 36.4406 304.983 36.4406Z" fill="#333333"/>
<path d="M305.193 36.4406C305.2 36.4406 305.206 36.438 305.211 36.4331C305.221 36.4229 305.221 36.4066 305.211 36.3964L305.001 36.1825C304.991 36.1723 304.975 36.1723 304.964 36.1825C304.955 36.1927 304.955 36.2089 304.964 36.2191L305.175 36.4331C305.18 36.438 305.186 36.4406 305.193 36.4406Z" fill="#333333"/>
<path d="M305.256 38.925C305.415 38.925 305.545 38.7933 305.545 38.6309C305.545 38.4686 305.415 38.3369 305.256 38.3369C305.096 38.3369 304.967 38.4686 304.967 38.6309C304.967 38.7933 305.096 38.925 305.256 38.925Z" fill="#818FE6"/>
<path d="M305.156 38.7776C305.15 38.7776 305.143 38.7749 305.138 38.77C305.128 38.7598 305.128 38.7436 305.138 38.7333L305.349 38.5194C305.359 38.5092 305.375 38.5092 305.385 38.5194C305.395 38.5296 305.395 38.5458 305.385 38.556L305.174 38.77C305.169 38.7749 305.163 38.7776 305.156 38.7776Z" fill="#333333"/>
<path d="M305.367 38.7776C305.373 38.7776 305.38 38.7749 305.385 38.77C305.395 38.7598 305.395 38.7436 305.385 38.7333L305.174 38.5194C305.165 38.5092 305.148 38.5092 305.138 38.5194C305.128 38.5296 305.128 38.5458 305.138 38.556L305.349 38.77C305.354 38.7749 305.36 38.7776 305.367 38.7776Z" fill="#333333"/>
<path d="M305.389 41.841C305.548 41.841 305.678 41.7093 305.678 41.547C305.678 41.3846 305.548 41.2529 305.389 41.2529C305.229 41.2529 305.1 41.3846 305.1 41.547C305.1 41.7093 305.229 41.841 305.389 41.841Z" fill="#818FE6"/>
<path d="M305.285 41.6936C305.279 41.6936 305.272 41.691 305.267 41.686C305.257 41.6758 305.257 41.6596 305.267 41.6494L305.478 41.4354C305.487 41.4252 305.504 41.4252 305.514 41.4354C305.524 41.4456 305.524 41.4618 305.514 41.472L305.303 41.686C305.298 41.691 305.292 41.6936 305.285 41.6936Z" fill="#333333"/>
<path d="M305.496 41.6936C305.502 41.6936 305.509 41.691 305.514 41.686C305.524 41.6758 305.524 41.6596 305.514 41.6494L305.303 41.4354C305.293 41.4252 305.277 41.4252 305.267 41.4354C305.257 41.4456 305.257 41.4618 305.267 41.472L305.478 41.686C305.483 41.691 305.489 41.6936 305.496 41.6936Z" fill="#333333"/>
<path d="M305.523 44.5783C305.683 44.5783 305.812 44.4466 305.812 44.2843C305.812 44.1219 305.683 43.9902 305.523 43.9902C305.364 43.9902 305.234 44.1219 305.234 44.2843C305.234 44.4466 305.364 44.5783 305.523 44.5783Z" fill="#818FE6"/>
<path d="M305.422 44.4309C305.415 44.4309 305.409 44.4283 305.404 44.4233C305.394 44.4131 305.394 44.3969 305.404 44.3867L305.614 44.1727C305.624 44.1625 305.64 44.1625 305.651 44.1727C305.66 44.1829 305.66 44.1991 305.651 44.2093L305.44 44.4233C305.435 44.4283 305.429 44.4309 305.422 44.4309Z" fill="#333333"/>
<path d="M305.632 44.4309C305.639 44.4309 305.645 44.4283 305.651 44.4233C305.66 44.4131 305.66 44.3969 305.651 44.3867L305.44 44.1727C305.43 44.1625 305.414 44.1625 305.404 44.1727C305.394 44.1829 305.394 44.1991 305.404 44.2093L305.614 44.4233C305.619 44.4283 305.626 44.4309 305.632 44.4309Z" fill="#333333"/>
<path d="M305.6 47.1212C305.759 47.1212 305.888 46.9896 305.888 46.8272C305.888 46.6648 305.759 46.5332 305.6 46.5332C305.44 46.5332 305.311 46.6648 305.311 46.8272C305.311 46.9896 305.44 47.1212 305.6 47.1212Z" fill="#333333"/>
<path d="M305.498 46.9748C305.491 46.9748 305.485 46.9722 305.48 46.9672C305.47 46.957 305.47 46.9408 305.48 46.9306L305.691 46.7166C305.7 46.7064 305.717 46.7064 305.727 46.7166C305.737 46.7268 305.737 46.7431 305.727 46.7533L305.516 46.9672C305.511 46.9722 305.505 46.9748 305.498 46.9748Z" fill="#333333"/>
<path d="M305.709 46.9748C305.715 46.9748 305.722 46.9722 305.727 46.9672C305.737 46.957 305.737 46.9408 305.727 46.9306L305.516 46.7166C305.506 46.7064 305.49 46.7064 305.48 46.7166C305.47 46.7268 305.47 46.7431 305.48 46.7533L305.691 46.9672C305.696 46.9722 305.702 46.9748 305.709 46.9748Z" fill="#333333"/>
<path d="M305.734 50.0041C305.894 50.0041 306.023 49.8724 306.023 49.71C306.023 49.5477 305.894 49.416 305.734 49.416C305.575 49.416 305.445 49.5477 305.445 49.71C305.445 49.8724 305.575 50.0041 305.734 50.0041Z" fill="#333333"/>
<path d="M305.631 49.8576C305.624 49.8576 305.618 49.855 305.613 49.85C305.603 49.8398 305.603 49.8236 305.613 49.8134L305.823 49.5994C305.833 49.5892 305.849 49.5892 305.86 49.5994C305.869 49.6097 305.869 49.6259 305.86 49.6361L305.649 49.85C305.644 49.855 305.638 49.8576 305.631 49.8576Z" fill="#333333"/>
<path d="M305.842 49.8576C305.848 49.8576 305.855 49.855 305.86 49.85C305.869 49.8398 305.869 49.8236 305.86 49.8134L305.649 49.5994C305.639 49.5892 305.623 49.5892 305.613 49.5994C305.603 49.6097 305.603 49.6259 305.613 49.6361L305.823 49.85C305.828 49.855 305.835 49.8576 305.842 49.8576Z" fill="#333333"/>
<path d="M305.742 52.9523C305.902 52.9523 306.031 52.8207 306.031 52.6583C306.031 52.4959 305.902 52.3643 305.742 52.3643C305.583 52.3643 305.453 52.4959 305.453 52.6583C305.453 52.8207 305.583 52.9523 305.742 52.9523Z" fill="#818FE6"/>
<path d="M305.643 52.8049C305.636 52.8049 305.63 52.8023 305.625 52.7973C305.615 52.7871 305.615 52.7709 305.625 52.7607L305.835 52.5467C305.845 52.5365 305.861 52.5365 305.871 52.5467C305.881 52.5569 305.881 52.5731 305.871 52.5833L305.661 52.7973C305.656 52.8023 305.649 52.8049 305.643 52.8049Z" fill="#333333"/>
<path d="M305.853 52.8049C305.86 52.8049 305.866 52.8023 305.871 52.7973C305.881 52.7871 305.881 52.7709 305.871 52.7607L305.661 52.5467C305.651 52.5365 305.635 52.5365 305.625 52.5467C305.615 52.5569 305.615 52.5731 305.625 52.5833L305.835 52.7973C305.84 52.8023 305.846 52.8049 305.853 52.8049Z" fill="#333333"/>
<path d="M305.889 55.7873C306.048 55.7873 306.178 55.6556 306.178 55.4932C306.178 55.3309 306.048 55.1992 305.889 55.1992C305.729 55.1992 305.6 55.3309 305.6 55.4932C305.6 55.6556 305.729 55.7873 305.889 55.7873Z" fill="#818FE6"/>
<path d="M305.787 55.6399C305.781 55.6399 305.774 55.6372 305.769 55.6323C305.759 55.6221 305.759 55.6059 305.769 55.5957L305.98 55.3817C305.989 55.3715 306.006 55.3715 306.016 55.3817C306.026 55.3919 306.026 55.4084 306.016 55.4183L305.805 55.6323C305.8 55.6372 305.794 55.6399 305.787 55.6399Z" fill="#333333"/>
<path d="M305.998 55.6399C306.004 55.6399 306.011 55.6372 306.016 55.6323C306.026 55.6221 306.026 55.6059 306.016 55.5957L305.805 55.3817C305.795 55.3715 305.779 55.3715 305.769 55.3817C305.759 55.3919 305.759 55.4084 305.769 55.4183L305.98 55.6323C305.985 55.6372 305.991 55.6399 305.998 55.6399Z" fill="#333333"/>
<path d="M293.764 39.9173C293.782 39.9173 293.801 39.9131 293.817 39.9039C293.871 39.8751 293.891 39.8087 293.862 39.7559C293.099 38.3757 291.129 37.4039 291.045 37.3631C290.99 37.3359 290.923 37.3584 290.896 37.4123C290.869 37.4665 290.892 37.5319 290.947 37.5585C290.967 37.5682 292.938 38.5411 293.667 39.86C293.687 39.8963 293.725 39.917 293.765 39.917L293.764 39.9173Z" fill="#333333"/>
<path d="M314.956 57.3998H314.958C315.019 57.399 315.068 57.3493 315.067 57.2889L314.877 44.3529L315.133 42.4614C315.142 42.4018 315.099 42.3468 315.038 42.3387C314.977 42.3314 314.921 42.3727 314.913 42.4326L314.655 44.3323C314.655 44.3375 314.654 44.343 314.654 44.3482L314.845 57.2923C314.846 57.3519 314.895 57.3998 314.956 57.3998H314.956Z" fill="#333333"/>
<path d="M299.433 26.4058L298.775 23.0738L302.334 22.7109C302.334 22.7109 301.071 23.6184 301.071 25.1403C301.071 25.8217 301.122 26.3227 301.178 26.6685C301.219 26.9201 300.955 27.1129 300.721 27.0041L299.433 26.4058Z" fill="#553306"/>
<path d="M295.584 55.8257C295.646 55.8257 295.717 55.7768 295.717 55.7166V45.3435C295.717 45.283 295.646 45.2344 295.584 45.2344C295.523 45.2344 295.451 45.2833 295.451 45.3435V55.7166C295.451 55.7771 295.523 55.8257 295.584 55.8257Z" fill="#182360"/>
<path d="M295.678 46.8612C295.695 46.8612 295.713 46.8573 295.73 46.8487C296.199 46.6054 296.545 45.891 296.56 45.8607C296.586 45.8063 296.562 45.7411 296.506 45.7155C296.451 45.6899 296.385 45.7131 296.359 45.7676C296.355 45.7744 296.029 46.4464 295.626 46.6554C295.571 46.6836 295.551 46.7495 295.579 46.8029C295.599 46.8398 295.638 46.8612 295.678 46.8612H295.678Z" fill="#182360"/>
<path d="M300.858 28.2991C300.799 28.2991 300.742 28.2677 300.712 28.2127C300.459 27.7419 300.179 27.4824 299.88 27.4416C299.519 27.3921 299.229 27.6862 299.226 27.689C299.163 27.7536 299.059 27.7565 298.993 27.6951C298.927 27.6336 298.924 27.5316 298.986 27.4664C299.002 27.4494 299.391 27.0495 299.921 27.1196C300.333 27.174 300.697 27.4908 301.004 28.061C301.046 28.14 301.016 28.2384 300.935 28.2802C300.911 28.293 300.884 28.2991 300.858 28.2991Z" fill="#EBA37C"/>
<path d="M299.899 28.0934C299.876 28.0934 299.852 28.0884 299.829 28.078C299.747 28.0398 299.711 27.9433 299.75 27.8622L299.99 27.3618C300.028 27.2807 300.127 27.2459 300.209 27.2841C300.292 27.3223 300.327 27.4188 300.288 27.4999L300.049 28.0003C300.02 28.0591 299.961 28.0934 299.899 28.0934Z" fill="#EBA37C"/>
<path d="M303.108 45.9195C303.351 45.795 303.6 45.6844 303.851 45.5768L292.147 12.1342C292.024 11.7828 291.656 11.589 291.315 11.7041C290.975 11.8192 290.806 12.1951 290.929 12.5464L302.661 46.0707L303.108 45.9198L303.108 45.9195Z" fill="#0C123A"/>
<path d="M288.883 26.1013C288.883 26.1013 291.38 21.2186 301.98 21.6714C301.98 21.6714 299.812 11.6142 291.482 12.7105C291.482 12.7105 283.786 17.763 288.883 26.1013Z" fill="#A0ADFF"/>
<path d="M291.551 12.6869C291.551 12.6869 305.429 8.98599 312.324 17.3117C312.324 17.3117 305.243 16.3967 301.981 21.6705C301.981 21.6705 297.366 13.6331 291.551 12.6869Z" fill="#5464C4"/>
<path d="M291.481 12.71C291.481 12.71 278.225 18.1868 278 28.9207C278 28.9207 283.009 23.9166 288.881 26.1008C288.881 26.1008 287.49 16.9728 291.481 12.71Z" fill="#5464C4"/>
<path d="M296.401 47.8111C296.383 47.7127 298.534 44.6043 298.534 44.6043C298.687 44.3173 298.964 44.0076 299.28 43.7285C299.294 43.7102 299.311 43.6921 299.326 43.6746C299.447 43.5619 299.573 43.4515 299.705 43.3479L299.71 43.3529C299.857 43.2532 300.007 43.1669 300.16 43.0915C300.406 42.9516 300.628 42.8603 300.786 42.8425C301.67 42.5718 302.559 42.6005 303.253 42.6204C303.835 42.6374 304.507 43.2843 304.53 43.8619C304.603 43.8737 304.662 43.8844 304.706 43.8943C305.334 44.0264 305.833 44.649 305.828 45.2742C305.828 45.2951 305.828 45.3161 305.826 45.3365C305.837 45.3433 305.846 45.3509 305.855 45.3587C306.362 45.7325 306.657 46.5275 306.571 46.9463C306.568 46.9659 306.563 46.985 306.557 47.0028C306.571 47.0098 306.585 47.0172 306.599 47.0253C306.624 47.0386 306.648 47.0525 306.672 47.0679C307.076 47.3156 307.337 47.7276 307.388 48.1998C307.427 48.5574 307.53 49.5077 305.025 51.8955C304.54 52.3569 303.788 52.3773 303.281 51.965C303.244 51.9352 303.208 51.9028 303.174 51.868C303.147 51.8403 303.121 51.811 303.097 51.7806C303.082 51.7642 303.069 51.7461 303.055 51.7281C303.04 51.7482 303.024 51.7689 303.008 51.789C302.422 52.5544 301.739 53.312 301.053 53.7658C300.728 54.0059 300.235 54.3573 299.614 54.763C298.119 52.7302 296.623 50.6974 295.127 48.6646C295.703 48.3 296.151 47.9892 296.4 47.8113L296.401 47.8111Z" fill="#FFBF9D"/>
<path d="M303.012 51.7947C303.01 51.7931 303.008 51.7913 303.006 51.7894C302.986 51.7677 302.988 51.7337 303.01 51.7138C303.021 51.7036 304.152 50.6845 304.286 50.148C304.289 50.136 304.296 50.1255 304.306 50.1182C304.689 49.8328 305.59 49.1663 305.679 49.1451C305.709 49.138 305.738 49.1563 305.745 49.1846C305.752 49.2133 305.734 49.2424 305.705 49.2492C305.629 49.2782 304.862 49.8385 304.387 50.1927C304.226 50.764 303.13 51.7513 303.083 51.7936C303.063 51.8119 303.033 51.8122 303.012 51.7955V51.7947Z" fill="#333333"/>
<path d="M303.047 51.9285C303.006 51.9285 302.966 51.9141 302.934 51.8885L302.914 51.8696C302.884 51.8375 302.867 51.7927 302.869 51.7459C302.871 51.6988 302.892 51.6557 302.927 51.6237C303.313 51.2748 304.069 50.5115 304.167 50.1186C304.177 50.0796 304.2 50.0448 304.233 50.0205C305.526 49.056 305.611 49.0361 305.651 49.0265C305.665 49.0233 305.679 49.0215 305.693 49.0215C305.775 49.0215 305.846 49.0759 305.866 49.1541C305.888 49.2449 305.836 49.3351 305.749 49.3631C305.673 49.4029 305.115 49.8034 304.495 50.2653C304.292 50.8633 303.284 51.7783 303.168 51.8827C303.135 51.9123 303.092 51.9285 303.048 51.9285H303.047Z" fill="#EBA37C"/>
<path d="M304.094 47.4549C304.087 47.4492 304.081 47.4416 304.078 47.4327C304.067 47.405 304.081 47.3741 304.109 47.3634C304.183 47.3356 305.931 46.6838 306.576 46.9474C306.603 46.9592 306.616 46.9903 306.605 47.0175C306.593 47.0448 306.561 47.0578 306.534 47.0466C305.929 46.7991 304.166 47.4567 304.148 47.4635C304.129 47.4706 304.109 47.4667 304.094 47.4547V47.4549Z" fill="#333333"/>
<path d="M304.129 47.5883C304.088 47.5883 304.047 47.5739 304.015 47.548C303.993 47.5297 303.974 47.5048 303.963 47.4768C303.928 47.3853 303.974 47.2838 304.066 47.2492C304.198 47.1995 305.385 46.7627 306.172 46.7627C306.357 46.7627 306.505 46.7862 306.623 46.8349C306.714 46.8733 306.757 46.9759 306.72 47.0638C306.683 47.1509 306.575 47.1948 306.486 47.1585C306.412 47.1279 306.305 47.1122 306.172 47.1122C305.44 47.1122 304.206 47.572 304.194 47.5765C304.173 47.5843 304.151 47.5883 304.129 47.5883Z" fill="#EBA37C"/>
<path d="M303.719 45.459C303.711 45.4522 303.704 45.4431 303.701 45.4321C303.693 45.4036 303.71 45.374 303.739 45.3659C303.803 45.3484 305.303 44.9411 305.841 45.2822C305.866 45.2976 305.873 45.3314 305.857 45.3562C305.841 45.3811 305.807 45.3884 305.782 45.3722C305.285 45.0572 303.784 45.465 303.769 45.469C303.751 45.4739 303.732 45.4695 303.719 45.4585V45.459Z" fill="#333333"/>
<path d="M303.754 45.5923C303.713 45.5923 303.673 45.5782 303.641 45.5523C303.613 45.5293 303.592 45.4987 303.583 45.4639C303.57 45.4199 303.576 45.3726 303.599 45.3318C303.623 45.2907 303.661 45.2612 303.707 45.2483C303.74 45.2392 304.528 45.0244 305.181 45.0244C305.506 45.0244 305.744 45.0752 305.909 45.1795C305.947 45.2028 305.976 45.2428 305.986 45.2884C305.996 45.3341 305.987 45.383 305.961 45.4223C305.911 45.5 305.795 45.5251 305.715 45.4736C305.643 45.4283 305.494 45.3739 305.188 45.3739C304.595 45.3739 303.835 45.5769 303.803 45.5858C303.787 45.59 303.771 45.5923 303.755 45.5923H303.754Z" fill="#EBA37C"/>
<path d="M302.229 44.0355C302.22 44.0284 302.213 44.0185 302.211 44.0067C302.203 43.9779 302.221 43.9489 302.251 43.9421C302.304 43.9293 303.572 43.6295 304.464 43.7752C304.494 43.7796 304.514 43.8076 304.509 43.8367C304.504 43.866 304.476 43.8856 304.447 43.8806C303.576 43.7388 302.29 44.0431 302.277 44.0459C302.259 44.0501 302.242 44.0457 302.229 44.0352L302.229 44.0355Z" fill="#333333"/>
<path d="M302.264 44.1689C302.223 44.1689 302.183 44.1548 302.151 44.1289C302.121 44.1051 302.101 44.0729 302.091 44.036C302.08 43.99 302.087 43.9429 302.112 43.9026C302.137 43.8626 302.176 43.8343 302.222 43.8233C302.312 43.8019 303.125 43.6133 303.913 43.6133C304.124 43.6133 304.317 43.6271 304.485 43.6546C304.531 43.6617 304.572 43.6865 304.6 43.7245C304.629 43.7626 304.64 43.8092 304.632 43.8558C304.616 43.9505 304.525 44.0169 304.427 44.0002C304.28 43.9764 304.11 43.9643 303.921 43.9643C303.154 43.9643 302.315 44.1621 302.306 44.1639C302.293 44.1671 302.279 44.1689 302.264 44.1689Z" fill="#EBA37C"/>
<path d="M286.678 56.5533L295.517 47.7445C295.727 47.5352 296.068 47.5286 296.287 47.729C297.475 48.8167 300.907 52.1877 300.799 54.7602L297.995 57.3229" fill="#243286"/>
<path d="M298.084 57.3816H297.881C297.881 57.3816 297.814 57.2654 297.881 57.2045L300.635 54.688C300.679 52.1711 297.237 48.8215 296.173 47.8481C296.018 47.7066 295.781 47.7113 295.633 47.8588L286.794 56.6677C286.73 56.7315 286.626 56.7323 286.561 56.6693C286.496 56.6065 286.495 56.5037 286.559 56.4399L295.398 47.631C295.673 47.3576 296.112 47.3487 296.398 47.6106C297.807 48.8997 301.071 52.1773 300.962 54.7673C300.96 54.8099 300.942 54.8502 300.91 54.8793L298.269 57.3188C298.269 57.3188 298.124 57.3816 298.084 57.3816Z" fill="#182360"/>
<path d="M314.605 33.7093C314.596 32.5771 322.932 32.2208 322.943 33.6439C322.955 35.0669 316.614 35.3431 316.614 35.3431L314.605 33.709V33.7093Z" fill="#182360"/>
<path d="M315.463 36.1387V35.0476C315.463 35.0476 315.604 35.0508 315.604 35.0518L315.533 31.9756L315.463 29.3903V29.3866L315.607 28.8514C315.607 28.8514 315.825 27.7251 316.476 27.1163C317.126 26.5076 318.426 25.9246 318.684 25.6156C318.941 25.3067 319.686 23.8894 320.048 23.6817C320.411 23.4743 321.085 23.3971 321.186 24.2964C321.287 25.1958 320.545 26.6745 320.545 26.6745C320.545 26.6745 322.619 25.686 322.908 25.387C323.197 25.088 323.619 23.2334 324.409 23.1452C325.199 23.0571 325.406 24.0406 325.263 24.4372C325.252 24.4694 325.306 24.5188 325.306 24.5188C325.306 24.5188 325.589 24.7108 325.75 25.3744C325.912 26.0378 325.601 27.4007 325.601 27.4007C325.601 27.4007 325.505 28.373 325.416 28.8546C325.416 28.8546 325.343 31.3815 324.101 32.1587C323.486 32.5437 322.613 32.8937 321.808 33.1459L321.656 35.6545L315.463 36.139V36.1387Z" fill="#FFBF9D"/>
<path d="M325.371 29.0564C325.375 29.0498 325.375 29.0423 325.373 29.0349C325.163 28.3114 324.785 27.9703 324.309 28.0739C323.867 28.1701 323.592 28.8636 323.547 29.4987C323.505 30.1103 323.551 30.2202 323.556 30.2306C323.564 30.2458 323.583 30.2518 323.598 30.244C323.614 30.2361 323.62 30.2178 323.612 30.2026C323.611 30.1995 323.568 30.0912 323.609 29.5029C323.651 28.9054 323.915 28.2224 324.322 28.1338C324.761 28.038 325.113 28.364 325.313 29.0517C325.318 29.0679 325.335 29.0773 325.351 29.0729C325.36 29.0702 325.367 29.0642 325.371 29.0564H325.371Z" fill="#333333"/>
<path d="M323.585 30.3279C323.542 30.3279 323.503 30.3046 323.484 30.2672C323.46 30.2204 323.426 30.0585 323.465 29.4924C323.51 28.8476 323.788 28.1036 324.292 27.9938C324.353 27.9804 324.414 27.9736 324.473 27.9736C324.91 27.9736 325.259 28.3422 325.453 29.0116C325.461 29.0375 325.458 29.0655 325.446 29.0901C325.433 29.1191 325.406 29.1408 325.375 29.1497C325.365 29.1526 325.354 29.1539 325.344 29.1539C325.293 29.1539 325.248 29.1204 325.234 29.0726C325.07 28.5083 324.799 28.1973 324.47 28.1973C324.428 28.1973 324.385 28.2023 324.341 28.2117C323.986 28.2888 323.732 28.931 323.692 29.507C323.656 30.0205 323.685 30.155 323.69 30.1725C323.712 30.2256 323.69 30.2879 323.637 30.3148C323.62 30.3229 323.603 30.3274 323.585 30.3274V30.3279Z" fill="#333333"/>
<path d="M323.583 30.2986C323.596 30.2986 323.609 30.2955 323.62 30.2897C323.661 30.2688 323.677 30.2196 323.656 30.1796C323.656 30.1796 323.62 30.0632 323.659 29.5066C323.7 28.9196 323.963 28.2643 324.331 28.184C324.738 28.0958 325.071 28.4131 325.261 29.0658C325.271 29.1008 325.304 29.1254 325.341 29.1252C325.346 29.1252 325.359 29.1233 325.363 29.122C325.387 29.1155 325.406 29.0995 325.416 29.0781C325.424 29.0603 325.426 29.0399 325.421 29.0208C325.204 28.2768 324.794 27.9151 324.295 28.0239C323.828 28.1257 323.538 28.8411 323.493 29.4953C323.451 30.0923 323.493 30.227 323.507 30.2539C323.522 30.2816 323.551 30.2989 323.582 30.2986H323.583Z" fill="#333333"/>
<path d="M323.584 30.3796C323.521 30.3796 323.465 30.3456 323.436 30.2907C323.378 30.179 323.391 29.7936 323.413 29.4897C323.459 28.8266 323.75 28.0601 324.279 27.9448C324.343 27.9309 324.407 27.9238 324.468 27.9238C324.934 27.9238 325.3 28.3055 325.502 28.9987C325.513 29.0369 325.509 29.0774 325.492 29.113C325.472 29.1551 325.434 29.187 325.388 29.2001C325.376 29.2035 325.356 29.2061 325.345 29.2064C325.269 29.2064 325.203 29.1577 325.183 29.0881C325.007 28.4834 324.71 28.1852 324.351 28.2631C324.024 28.3343 323.781 28.9668 323.743 29.5122C323.71 29.9802 323.731 30.1264 323.736 30.1536C323.77 30.231 323.737 30.3226 323.659 30.3621C323.636 30.3738 323.611 30.3799 323.585 30.3799H323.584L323.584 30.3796ZM323.582 30.2117C323.583 30.2153 323.583 30.2171 323.584 30.2177V30.2985L323.584 30.2174L323.581 30.2117H323.582ZM324.469 28.086C324.419 28.086 324.367 28.0918 324.315 28.103C323.893 28.1951 323.62 28.892 323.577 29.5007C323.556 29.8078 323.557 29.987 323.564 30.0892C323.558 29.9901 323.557 29.8122 323.579 29.5007C323.621 28.8922 323.894 28.1961 324.315 28.1043C324.365 28.0936 324.415 28.0878 324.464 28.0878C324.851 28.0878 325.163 28.4271 325.342 29.0432C325.164 28.4255 324.853 28.0857 324.468 28.0857L324.469 28.086Z" fill="#EBA37C"/>
<path d="M323.51 29.9362C323.51 29.9362 323.51 29.9352 323.511 29.9344C323.517 29.9187 323.509 29.9006 323.493 29.8944C323.334 29.8318 322.308 30.1719 322.191 30.2111C322.175 30.2166 322.166 30.2342 322.172 30.2501C322.177 30.2661 322.195 30.2747 322.211 30.2692C322.643 30.1248 323.366 29.9108 323.47 29.9514C323.486 29.9574 323.503 29.9506 323.51 29.936L323.51 29.9362Z" fill="#333333"/>
<path d="M322.201 30.3521C322.153 30.3521 322.11 30.3218 322.094 30.2765C322.074 30.2182 322.105 30.1546 322.165 30.1345C322.329 30.0795 323.161 29.8057 323.436 29.8057C323.473 29.8057 323.501 29.8098 323.524 29.819C323.552 29.83 323.575 29.8512 323.586 29.8786C323.598 29.9061 323.599 29.9367 323.588 29.9644C323.566 30.0094 323.526 30.0346 323.482 30.0346C323.468 30.0346 323.453 30.0319 323.44 30.0267C323.441 30.0275 323.436 30.0267 323.432 30.0272C323.28 30.0272 322.706 30.1891 322.238 30.3456C322.227 30.3495 322.214 30.3516 322.202 30.3516L322.201 30.3521Z" fill="#333333"/>
<path d="M322.197 30.3242C322.203 30.3242 322.218 30.3216 322.223 30.3197C322.684 30.1654 323.261 30.0009 323.425 29.9996C323.441 29.9996 323.446 30.0011 323.447 30.0011C323.484 30.0155 323.534 29.9977 323.552 29.9598C323.563 29.9352 323.562 29.913 323.553 29.8928C323.545 29.8727 323.528 29.8573 323.508 29.8492C323.488 29.8413 323.462 29.8376 323.428 29.8379C323.155 29.84 322.332 30.1107 322.17 30.1649C322.126 30.1795 322.103 30.2264 322.118 30.2687C322.13 30.3022 322.161 30.3245 322.197 30.3242H322.197Z" fill="#333333"/>
<path d="M322.197 30.4046C322.126 30.4046 322.063 30.3601 322.04 30.2942C322.011 30.2092 322.057 30.1166 322.143 30.0873C322.374 30.0101 323.149 29.758 323.428 29.7559C323.475 29.7559 323.509 29.7614 323.539 29.7729C323.58 29.7891 323.612 29.8199 323.63 29.8602C323.648 29.901 323.647 29.9458 323.629 29.9897C323.594 30.0643 323.505 30.1025 323.429 30.0802C323.285 30.0831 322.772 30.2212 322.25 30.396C322.238 30.4001 322.214 30.4046 322.198 30.4046H322.197ZM323.288 29.9345C323.021 29.9811 322.56 30.1197 322.197 30.2408V30.2414C322.52 30.1339 323.016 29.984 323.288 29.9343V29.9345ZM323.442 29.9186C323.455 29.9194 323.465 29.9212 323.473 29.9238C323.472 29.9222 323.463 29.9194 323.442 29.9186Z" fill="#EBA37C"/>
<path d="M325.559 27.414C325.561 27.4093 325.562 27.4038 325.562 27.398C325.558 27.3593 325.463 26.4448 325.047 26.1176C324.932 26.0271 324.803 25.9899 324.662 26.0069C323.89 26.1008 323.65 26.8505 323.66 27.1781C323.669 27.4998 323.38 28.3735 323.338 28.4985C323.115 28.5668 322.467 28.769 322.412 28.831C322.401 28.8438 322.402 28.8632 322.415 28.8744C322.428 28.8857 322.448 28.8844 322.459 28.8716C322.498 28.8336 322.959 28.6788 323.371 28.5527C323.381 28.5498 323.389 28.5427 323.392 28.5331C323.406 28.4923 323.732 27.5322 323.722 27.1765C323.713 26.8665 323.94 26.1568 324.67 26.0679C324.793 26.053 324.907 26.0857 325.008 26.1655C325.403 26.4767 325.499 27.3946 325.499 27.4038C325.501 27.4208 325.516 27.4331 325.533 27.4313C325.545 27.4302 325.554 27.4232 325.559 27.4137V27.414Z" fill="#333333"/>
<path d="M322.436 28.9631C322.408 28.9631 322.382 28.9532 322.361 28.9354C322.314 28.8951 322.309 28.8248 322.35 28.7782C322.372 28.7528 322.424 28.6948 323.273 28.4337C323.395 28.0646 323.584 27.4245 323.577 27.1804C323.568 26.8299 323.825 26.0274 324.652 25.9267C324.816 25.9065 324.967 25.9502 325.099 26.0543C325.533 26.3962 325.634 27.2893 325.644 27.39C325.646 27.4096 325.643 27.4297 325.635 27.4478C325.617 27.4844 325.582 27.5087 325.542 27.5121L325.531 27.5126C325.472 27.5126 325.424 27.4692 325.418 27.4117C325.393 27.164 325.262 26.4692 324.957 26.2285C324.874 26.1629 324.78 26.1364 324.681 26.1482C324.006 26.2304 323.797 26.8869 323.805 27.1739C323.816 27.5469 323.485 28.5174 323.471 28.5587C323.46 28.592 323.432 28.6192 323.397 28.6299C322.916 28.7766 322.569 28.8998 322.514 28.9323C322.493 28.9519 322.465 28.9629 322.436 28.9629L322.436 28.9631Z" fill="#333333"/>
<path d="M322.437 28.9337C322.461 28.9337 322.483 28.9232 322.499 28.9057C322.534 28.8814 322.886 28.7553 323.388 28.602C323.414 28.5944 323.434 28.5745 323.442 28.5492C323.456 28.5089 323.785 27.5415 323.775 27.1756C323.767 26.88 323.982 26.2038 324.677 26.1193C324.785 26.1054 324.887 26.135 324.977 26.2059C325.352 26.5015 325.448 27.4005 325.449 27.4094C325.453 27.4518 325.489 27.4835 325.532 27.4832C325.569 27.4801 325.594 27.4623 325.607 27.4364C325.613 27.4228 325.616 27.4079 325.614 27.3932C325.61 27.354 325.514 26.4193 325.081 26.078C324.955 25.9791 324.812 25.9377 324.657 25.9566C323.85 26.0547 323.599 26.8379 323.608 27.18C323.617 27.4774 323.356 28.2823 323.297 28.4581C322.442 28.721 322.391 28.7788 322.374 28.7979C322.344 28.8322 322.348 28.884 322.382 28.9135C322.397 28.9266 322.417 28.9339 322.437 28.9337Z" fill="#333333"/>
<path d="M322.437 29.0149C322.397 29.0149 322.358 29.0005 322.328 28.9746C322.26 28.916 322.252 28.813 322.311 28.7452C322.343 28.7099 322.394 28.6523 323.232 28.3934C323.374 27.9594 323.532 27.397 323.526 27.1822C323.516 26.8171 323.784 25.9813 324.647 25.8761C324.826 25.8547 324.989 25.9018 325.132 26.0148C325.593 26.3773 325.693 27.3444 325.697 27.3855C325.7 27.4143 325.695 27.4441 325.681 27.471C325.656 27.5249 325.604 27.5587 325.539 27.5642H325.539C325.446 27.5642 325.375 27.5011 325.367 27.4174C325.342 27.1752 325.214 26.4969 324.925 26.2693C324.853 26.212 324.774 26.1887 324.688 26.1997C324.048 26.2777 323.85 26.901 323.858 27.1733C323.868 27.5471 323.556 28.4708 323.521 28.5749C323.505 28.6246 323.464 28.6641 323.412 28.6796C322.926 28.8279 322.608 28.9422 322.55 28.9704C322.52 28.9984 322.48 29.0144 322.438 29.0149H322.437ZM322.443 28.8462C322.44 28.8483 322.438 28.8496 322.437 28.8506V28.9336V28.8525C322.437 28.8525 322.437 28.8525 322.437 28.8522L322.443 28.8462ZM324.729 26.0336C324.709 26.0336 324.688 26.0349 324.667 26.0373C323.915 26.1288 323.682 26.8589 323.691 27.1778C323.7 27.482 323.452 28.254 323.376 28.4831L323.363 28.5229L323.322 28.5354C322.942 28.6523 322.724 28.7277 322.6 28.7756C322.78 28.7089 323.085 28.6092 323.363 28.5244C323.481 28.181 323.7 27.4593 323.692 27.1778C323.683 26.8592 323.916 26.1301 324.667 26.0388C324.795 26.0224 324.92 26.0577 325.028 26.143C325.434 26.4626 325.53 27.3926 325.531 27.402C325.531 27.402 325.533 27.4012 325.533 27.4007C325.531 27.3918 325.436 26.4616 325.029 26.1414C324.938 26.0697 324.837 26.0334 324.729 26.0334L324.729 26.0336Z" fill="#EBA37C"/>
<path d="M325.222 24.5163C325.222 24.5163 325.223 24.5145 325.224 24.5134C325.229 24.4975 325.221 24.4799 325.205 24.4742C324.993 24.4009 324.697 24.4488 324.433 24.599C324.105 24.7855 323.879 25.0955 323.812 25.4496C323.688 26.1047 323.527 26.4269 323.497 26.4834L322.449 26.8902C322.433 26.8965 322.426 26.9143 322.432 26.93C322.438 26.9457 322.456 26.9535 322.472 26.9472L323.53 26.5363C323.537 26.5337 323.542 26.5289 323.546 26.5229C323.553 26.5098 323.735 26.1949 323.873 25.4606C323.937 25.1242 324.152 24.8294 324.465 24.6518C324.713 24.5106 324.988 24.4645 325.184 24.532C325.199 24.5372 325.215 24.5302 325.222 24.516L325.222 24.5163Z" fill="#333333"/>
<path d="M322.464 27.0303C322.416 27.0303 322.375 27.0026 322.358 26.9597C322.346 26.9317 322.347 26.9014 322.359 26.8739C322.371 26.8464 322.393 26.8252 322.422 26.8145L323.44 26.4193C323.489 26.3191 323.625 26.0062 323.733 25.4347C323.805 25.0572 324.046 24.7271 324.395 24.5288C324.676 24.369 325.002 24.3174 325.234 24.3977C325.263 24.4077 325.286 24.4281 325.299 24.455C325.312 24.482 325.314 24.5123 325.304 24.5406L325.299 24.5529C325.281 24.5903 325.24 24.6154 325.197 24.6154C325.184 24.6154 325.171 24.6133 325.159 24.6091C324.989 24.5505 324.732 24.595 324.508 24.7226C324.217 24.8885 324.016 25.1629 323.957 25.476C323.818 26.209 323.64 26.5297 323.62 26.5639C323.607 26.5862 323.586 26.6032 323.562 26.6123L322.505 27.023C322.491 27.0282 322.478 27.0309 322.463 27.0309L322.464 27.0303Z" fill="#333333"/>
<path d="M322.458 27.0021C322.469 27.0021 322.479 27.0001 322.488 26.9964L323.546 26.5854C323.563 26.5786 323.578 26.5661 323.587 26.5504C323.607 26.5156 323.785 26.1941 323.921 25.4716C323.982 25.1501 324.189 24.8679 324.488 24.6978C324.719 24.566 324.985 24.5207 325.163 24.582C325.202 24.595 325.249 24.5767 325.266 24.5396C325.285 24.4894 325.262 24.4425 325.219 24.4274C324.995 24.3499 324.677 24.4007 324.404 24.5561C324.063 24.7502 323.828 25.073 323.758 25.4415C323.645 26.0382 323.501 26.3555 323.456 26.4444L322.428 26.8441C322.407 26.8523 322.391 26.8677 322.382 26.8878C322.373 26.908 322.373 26.9302 322.381 26.9506C322.394 26.9817 322.425 27.0024 322.459 27.0021H322.458Z" fill="#333333"/>
<path d="M322.459 27.0833C322.391 27.0833 322.33 27.0419 322.305 26.9805C322.288 26.9402 322.289 26.8957 322.307 26.8557C322.324 26.8157 322.356 26.7848 322.398 26.7688L323.396 26.3809C323.449 26.269 323.576 25.9634 323.677 25.4269C323.752 25.0348 324.002 24.6919 324.364 24.486C324.655 24.3204 325.003 24.2665 325.247 24.351C325.288 24.3654 325.321 24.3947 325.34 24.4334C325.36 24.4742 325.362 24.5218 325.345 24.5671C325.306 24.6487 325.214 24.6853 325.137 24.6584C324.986 24.6066 324.736 24.651 324.53 24.768C324.251 24.9262 324.06 25.1881 324.003 25.4866C323.864 26.2224 323.68 26.5551 323.66 26.5904C323.641 26.6226 323.612 26.6475 323.577 26.6608L322.519 27.0718C322.5 27.0793 322.48 27.083 322.46 27.0833H322.458H322.459ZM324.988 24.4729C324.815 24.4729 324.618 24.5289 324.446 24.6265C324.126 24.8085 323.905 25.1112 323.84 25.4565C323.724 26.0668 323.574 26.3948 323.531 26.4806L323.517 26.5086L322.459 26.9195V27.0022L322.459 26.9211C322.459 26.9211 322.459 26.9211 322.46 26.9211L323.517 26.5104C323.536 26.4777 323.707 26.1672 323.841 25.4573C323.906 25.1122 324.127 24.8101 324.447 24.628C324.694 24.4873 324.993 24.4376 325.192 24.5059C325.192 24.5051 325.191 24.5038 325.191 24.5033C325.133 24.4839 325.064 24.4734 324.988 24.4734V24.4729Z" fill="#EBA37C"/>
<path d="M321.307 30.5956C321.308 30.5935 321.308 30.5915 321.309 30.5891C321.312 30.5726 321.302 30.5561 321.285 30.5525C320.463 30.3736 319.621 30.7662 319.059 31.1269C318.452 31.5164 318.032 31.9538 318.028 31.9582C318.016 31.9708 318.017 31.9902 318.029 32.0017C318.042 32.0132 318.062 32.0127 318.074 32.0004C318.09 31.9831 319.737 30.2786 321.271 30.6126C321.286 30.6158 321.3 30.6085 321.306 30.5956H321.307Z" fill="#333333"/>
<path d="M318.051 32.0912C318.022 32.0912 317.995 32.0805 317.973 32.0609C317.951 32.0407 317.939 32.013 317.938 31.9832C317.937 31.9534 317.948 31.9249 317.968 31.9029C317.972 31.899 318.398 31.4545 319.014 31.0593C319.463 30.7707 320.149 30.4268 320.861 30.4268C321.012 30.4268 321.161 30.4425 321.303 30.4733C321.365 30.4869 321.403 30.5466 321.39 30.6065L321.382 30.6295C321.363 30.669 321.322 30.6941 321.279 30.6941L321.254 30.6915C321.127 30.664 320.995 30.6499 320.859 30.6499C319.495 30.6499 318.147 32.0415 318.134 32.0557C318.113 32.0779 318.083 32.0907 318.051 32.0907L318.051 32.0912Z" fill="#333333"/>
<path d="M318.047 32.0597C318.07 32.0597 318.092 32.05 318.107 32.0338C318.12 32.02 319.463 30.6296 320.839 30.6189C320.982 30.6179 321.122 30.632 321.256 30.661C321.26 30.6618 321.27 30.6631 321.274 30.6629C321.306 30.6629 321.335 30.6443 321.349 30.616C321.351 30.6126 321.354 30.6027 321.355 30.599C321.365 30.5546 321.336 30.5109 321.291 30.5009C321.146 30.4693 320.994 30.4538 320.838 30.4552C320.139 30.4606 319.466 30.7994 319.025 31.0824C318.412 31.4761 317.989 31.9177 317.985 31.9221C317.97 31.9378 317.962 31.9585 317.963 31.9805C317.964 32.0022 317.973 32.0223 317.989 32.0375C318.005 32.0519 318.025 32.0597 318.047 32.0597H318.047Z" fill="#333333"/>
<path d="M318.048 32.1405C318.006 32.1405 317.966 32.1251 317.935 32.0968C317.903 32.0667 317.884 32.0265 317.883 31.983C317.881 31.9396 317.897 31.8983 317.927 31.8666C317.931 31.8632 318.363 31.4123 318.983 31.0146C319.433 30.7256 320.121 30.3795 320.84 30.374H320.858C321.013 30.374 321.166 30.39 321.312 30.4216C321.401 30.441 321.457 30.5284 321.438 30.6163C321.435 30.6262 321.43 30.6416 321.426 30.6508C321.398 30.7068 321.34 30.7434 321.277 30.7439C321.267 30.7439 321.25 30.7423 321.239 30.74C321.118 30.7136 320.988 30.7 320.857 30.7H320.842C319.504 30.7104 318.183 32.0756 318.17 32.0895C318.139 32.1219 318.095 32.1408 318.05 32.141H318.049L318.048 32.1405ZM320.858 30.5362H320.841C320.163 30.5417 319.505 30.8731 319.073 31.1504C318.473 31.5355 318.052 31.9728 318.048 31.9773L318.049 32.0597V31.9786H318.049C318.063 31.9642 319.429 30.549 320.841 30.538H320.857C321 30.538 321.141 30.5529 321.276 30.582C321.142 30.5514 321.002 30.5367 320.859 30.5367L320.858 30.5362Z" fill="#EBA37C"/>
<path d="M322.898 43.8971L322.85 33.6455C322.85 33.6455 319.575 35.5475 314.689 33.7093V43.9614C314.689 43.9614 323.095 43.8955 322.898 43.8971H322.898Z" fill="#243286"/>
<path d="M314.688 44.1237C314.645 44.1237 314.603 44.107 314.572 44.0766C314.541 44.046 314.523 44.0047 314.523 43.9615V33.7094C314.523 33.6561 314.55 33.6061 314.595 33.5758C314.64 33.5454 314.697 33.5389 314.747 33.558C316.14 34.0822 317.535 34.348 318.892 34.348C321.287 34.348 322.75 33.5143 322.764 33.5059C322.816 33.4764 322.878 33.4759 322.93 33.5046C322.981 33.5334 323.013 33.5868 323.013 33.6448L323.061 43.865C323.064 43.8755 323.065 43.8859 323.065 43.8966C323.065 44.0136 322.984 44.0465 322.901 44.0559V44.0593C322.894 44.0596 322.886 44.0588 322.878 44.058C322.854 44.0596 322.83 44.0599 322.809 44.0601L314.69 44.1237H314.688ZM314.853 33.943V43.798C315.909 43.7897 321.67 43.7447 322.73 43.7363L322.684 33.9111C322.159 34.1568 320.825 34.6721 318.892 34.6723C317.567 34.6723 316.21 34.4272 314.853 33.943H314.853Z" fill="#182360"/>
<path d="M310.262 39.377H324.965C325.018 39.377 325.061 39.4191 325.061 39.4711V59.2331C325.061 59.2852 325.018 59.3273 324.965 59.3273H310.262C310.209 59.3273 310.166 59.2852 310.166 59.2331V39.4711C310.166 39.4191 310.209 39.377 310.262 39.377Z" fill="#A0ADFF"/>
<path d="M324.625 39.8438H310.6V58.7569H324.625V39.8438Z" fill="#E0E4FF"/>
<path d="M321.298 38.9183H318.694C318.784 38.7512 318.835 38.561 318.835 38.3591C318.835 37.6975 318.288 37.1592 317.615 37.1592C316.942 37.1592 316.394 37.6975 316.394 38.3591C316.394 38.561 316.446 38.7512 316.536 38.9183H313.931C313.789 38.9183 313.674 39.0316 313.674 39.1716V39.8946H321.556V39.1716C321.556 39.0316 321.44 38.9183 321.298 38.9183H321.298ZM317.615 37.8914C317.877 37.8914 318.09 38.1011 318.09 38.3591C318.09 38.617 317.877 38.8268 317.615 38.8268C317.352 38.8268 317.139 38.617 317.139 38.3591C317.139 38.1011 317.352 37.8914 317.615 37.8914Z" fill="#5464C4"/>
<path d="M323.178 42.2764H316.621C316.569 42.2764 316.527 42.3175 316.527 42.3682V42.5238C316.527 42.5745 316.569 42.6156 316.621 42.6156H323.178C323.23 42.6156 323.271 42.5745 323.271 42.5238V42.3682C323.271 42.3175 323.23 42.2764 323.178 42.2764Z" fill="#5464C4"/>
<path d="M316.621 43.2227H318.846C318.898 43.2227 318.94 43.2637 318.94 43.3145V43.4701C318.94 43.5209 318.898 43.5619 318.846 43.5619H316.621C316.569 43.5619 316.527 43.5209 316.527 43.4701V43.3145C316.527 43.2637 316.569 43.2227 316.621 43.2227Z" fill="#5464C4"/>
<path d="M319.525 43.2227H321.751C321.802 43.2227 321.844 43.2637 321.844 43.3145V43.4701C321.844 43.5209 321.802 43.5619 321.751 43.5619H319.525C319.473 43.5619 319.432 43.5209 319.432 43.4701V43.3145C319.432 43.2637 319.473 43.2227 319.525 43.2227Z" fill="#5464C4"/>
<path d="M316.621 44.1973H323.178C323.23 44.1973 323.271 44.2383 323.271 44.2891V44.4447C323.271 44.4955 323.23 44.5365 323.178 44.5365H316.621C316.569 44.5365 316.527 44.4955 316.527 44.4447V44.2891C316.527 44.2383 316.569 44.1973 316.621 44.1973Z" fill="#5464C4"/>
<path d="M318.846 45.1426H316.621C316.569 45.1426 316.527 45.1837 316.527 45.2344V45.39C316.527 45.4407 316.569 45.4819 316.621 45.4819H318.846C318.898 45.4819 318.94 45.4407 318.94 45.39V45.2344C318.94 45.1837 318.898 45.1426 318.846 45.1426Z" fill="#5464C4"/>
<path d="M321.751 45.1426H319.525C319.473 45.1426 319.432 45.1837 319.432 45.2344V45.39C319.432 45.4407 319.473 45.4819 319.525 45.4819H321.751C321.802 45.4819 321.844 45.4407 321.844 45.39V45.2344C321.844 45.1837 321.802 45.1426 321.751 45.1426Z" fill="#5464C4"/>
<path d="M323.178 48.2881H316.621C316.569 48.2881 316.527 48.3292 316.527 48.3799V48.5355C316.527 48.5863 316.569 48.6274 316.621 48.6274H323.178C323.23 48.6274 323.271 48.5863 323.271 48.5355V48.3799C323.271 48.3292 323.23 48.2881 323.178 48.2881Z" fill="#5464C4"/>
<path d="M316.621 49.2334H318.846C318.898 49.2334 318.94 49.2745 318.94 49.3252V49.4809C318.94 49.5316 318.898 49.5727 318.846 49.5727H316.621C316.569 49.5727 316.527 49.5316 316.527 49.4809V49.3252C316.527 49.2745 316.569 49.2334 316.621 49.2334Z" fill="#5464C4"/>
<path d="M319.525 49.2334H321.751C321.802 49.2334 321.844 49.2745 321.844 49.3252V49.4809C321.844 49.5316 321.802 49.5727 321.751 49.5727H319.525C319.473 49.5727 319.432 49.5316 319.432 49.4809V49.3252C319.432 49.2745 319.473 49.2334 319.525 49.2334Z" fill="#5464C4"/>
<path d="M316.621 50.21H323.178C323.23 50.21 323.271 50.251 323.271 50.3018V50.4574C323.271 50.5082 323.23 50.5492 323.178 50.5492H316.621C316.569 50.5492 316.527 50.5082 316.527 50.4574V50.3018C316.527 50.251 316.569 50.21 316.621 50.21Z" fill="#5464C4"/>
<path d="M316.621 51.1562H318.846C318.898 51.1562 318.94 51.1973 318.94 51.2481V51.4037C318.94 51.4545 318.898 51.4955 318.846 51.4955H316.621C316.569 51.4955 316.527 51.4545 316.527 51.4037V51.2481C316.527 51.1973 316.569 51.1562 316.621 51.1562Z" fill="#5464C4"/>
<path d="M319.525 51.1562H321.751C321.802 51.1562 321.844 51.1973 321.844 51.2481V51.4037C321.844 51.4545 321.802 51.4955 321.751 51.4955H319.525C319.473 51.4955 319.432 51.4545 319.432 51.4037V51.2481C319.432 51.1973 319.473 51.1562 319.525 51.1562Z" fill="#5464C4"/>
<path d="M323.178 53.9541H316.621C316.569 53.9541 316.527 53.9952 316.527 54.0459V54.2016C316.527 54.2523 316.569 54.2934 316.621 54.2934H323.178C323.23 54.2934 323.271 54.2523 323.271 54.2016V54.0459C323.271 53.9952 323.23 53.9541 323.178 53.9541Z" fill="#5464C4"/>
<path d="M316.621 54.8994H318.846C318.898 54.8994 318.94 54.9405 318.94 54.9912V55.1469C318.94 55.1976 318.898 55.2387 318.846 55.2387H316.621C316.569 55.2387 316.527 55.1976 316.527 55.1469V54.9912C316.527 54.9405 316.569 54.8994 316.621 54.8994Z" fill="#5464C4"/>
<path d="M319.525 54.8994H321.751C321.802 54.8994 321.844 54.9405 321.844 54.9912V55.1469C321.844 55.1976 321.802 55.2387 321.751 55.2387H319.525C319.473 55.2387 319.432 55.1976 319.432 55.1469V54.9912C319.432 54.9405 319.473 54.8994 319.525 54.8994Z" fill="#5464C4"/>
<path d="M323.178 55.875H316.621C316.569 55.875 316.527 55.9161 316.527 55.9668V56.1225C316.527 56.1732 316.569 56.2143 316.621 56.2143H323.178C323.23 56.2143 323.271 56.1732 323.271 56.1225V55.9668C323.271 55.9161 323.23 55.875 323.178 55.875Z" fill="#5464C4"/>
<path d="M318.846 56.8213H316.621C316.569 56.8213 316.527 56.8624 316.527 56.9131V57.0687C316.527 57.1195 316.569 57.1606 316.621 57.1606H318.846C318.898 57.1606 318.94 57.1195 318.94 57.0687V56.9131C318.94 56.8624 318.898 56.8213 318.846 56.8213Z" fill="#5464C4"/>
<path d="M321.751 56.8213H319.525C319.473 56.8213 319.432 56.8624 319.432 56.9131V57.0687C319.432 57.1195 319.473 57.1606 319.525 57.1606H321.751C321.802 57.1606 321.844 57.1195 321.844 57.0687V56.9131C321.844 56.8624 321.802 56.8213 321.751 56.8213Z" fill="#5464C4"/>
<path d="M315.554 41.7207H311.753C311.586 41.7207 311.451 41.8534 311.451 42.0171V45.7538C311.451 45.9175 311.586 46.0502 311.753 46.0502H315.554C315.72 46.0502 315.855 45.9175 315.855 45.7538V42.0171C315.855 41.8534 315.72 41.7207 315.554 41.7207Z" fill="#5464C4"/>
<path d="M314.145 45.6619H312.99C312.922 45.6619 312.773 45.5008 312.773 45.4336V44.7464H311.918C311.85 44.7464 311.709 44.6896 311.709 44.6226V43.4874C311.709 43.4201 311.85 43.4126 311.918 43.4126H312.773V42.4332C312.773 42.366 312.922 42.3662 312.99 42.3662H314.145C314.214 42.3662 314.263 42.3662 314.263 42.4332V43.4126H315.135C315.204 43.4126 315.194 43.4201 315.194 43.4874V44.6226C315.194 44.6899 315.204 44.7464 315.135 44.7464H314.263V45.4336C314.263 45.5008 314.213 45.6619 314.145 45.6619ZM313.039 45.4003H313.997V44.6226C313.997 44.5554 314.077 44.6156 314.145 44.6156H314.928V43.6739H314.145C314.077 43.6739 313.997 43.5543 313.997 43.4871V42.6275H313.039V43.4871C313.039 43.5543 313.059 43.6739 312.99 43.6739H311.975V44.6156H312.99C313.059 44.6156 313.039 44.5554 313.039 44.6226V45.4003Z" fill="#1A2771"/>
<path d="M315.759 47.7266H311.547C311.494 47.7266 311.451 47.769 311.451 47.8213V51.9614C311.451 52.0137 311.494 52.0561 311.547 52.0561H315.759C315.812 52.0561 315.855 52.0137 315.855 51.9614V47.8213C315.855 47.769 315.812 47.7266 315.759 47.7266Z" fill="#5464C4"/>
<path d="M315.455 53.3926H311.851C311.63 53.3926 311.451 53.5687 311.451 53.786V57.3287C311.451 57.5459 311.63 57.7221 311.851 57.7221H315.455C315.676 57.7221 315.855 57.5459 315.855 57.3287V53.786C315.855 53.5687 315.676 53.3926 315.455 53.3926Z" fill="#5464C4"/>
<path d="M314.778 51.4716C314.514 51.4719 314.064 50.7127 313.885 50.3907L312.462 51.0858C312.43 51.1017 312.389 51.0926 312.367 51.063L311.876 50.4083C311.861 50.3876 311.857 50.3606 311.866 50.3363C311.876 50.3125 311.897 50.2947 311.923 50.2895L312.191 50.2351C312.214 50.2314 312.237 50.2364 312.254 50.25L312.409 50.3719L313.293 49.523C312.942 49.4059 312.249 49.1385 312.232 48.8584C312.229 48.8189 312.242 48.783 312.269 48.7542C312.317 48.7043 312.406 48.681 312.549 48.681C312.976 48.681 313.797 48.8887 313.978 48.9355C314.12 48.8419 314.724 48.46 315.14 48.46C315.19 48.46 315.237 48.4652 315.279 48.4759C315.385 48.5034 315.423 48.5688 315.437 48.6187C315.508 48.8887 314.97 49.4383 314.797 49.6062C314.869 49.9408 315.108 51.153 314.903 51.4099C314.871 51.4499 314.828 51.4711 314.779 51.4711L314.778 51.4716ZM313.917 50.2155C313.944 50.2155 313.971 50.2298 313.985 50.2552C314.265 50.77 314.65 51.3209 314.778 51.3209V51.3963L314.779 51.3209C314.907 51.1608 314.773 50.2176 314.638 49.5979C314.632 49.5722 314.641 49.5458 314.66 49.5278C314.945 49.257 315.327 48.8081 315.287 48.6577C315.285 48.6499 315.281 48.6334 315.239 48.6227C315.21 48.6151 315.177 48.6114 315.14 48.6114C314.724 48.6114 314.042 49.0752 314.035 49.0799C314.017 49.0925 313.993 49.0967 313.971 49.0909C313.962 49.0883 312.999 48.8325 312.549 48.8325C312.408 48.8325 312.381 48.8581 312.381 48.8581C312.394 48.9975 312.949 49.2601 313.459 49.4189C313.485 49.4268 313.504 49.4474 313.511 49.4733C313.517 49.499 313.509 49.5262 313.49 49.5448L312.468 50.5267C312.44 50.5529 312.396 50.5553 312.366 50.5317L312.186 50.3902L312.07 50.4137L312.452 50.9225L313.883 50.2233C313.894 50.2181 313.906 50.2155 313.917 50.2155H313.917Z" fill="#1A2771"/>
<path d="M314.778 51.5119C314.524 51.5119 314.147 50.9393 313.868 50.4441L312.481 51.1218C312.432 51.1459 312.366 51.1305 312.334 51.0868L311.844 50.4323C311.82 50.4009 311.814 50.3596 311.828 50.3219C311.842 50.285 311.875 50.2581 311.914 50.2497L312.182 50.1953C312.191 50.194 312.198 50.1932 312.205 50.1932C312.234 50.1932 312.259 50.2018 312.28 50.2183L312.407 50.318L313.216 49.5403C312.743 49.3771 312.207 49.133 312.19 48.8612C312.187 48.8107 312.204 48.7642 312.239 48.727C312.295 48.6682 312.394 48.641 312.549 48.641C312.958 48.641 313.718 48.8272 313.97 48.8921C314.159 48.7686 314.73 48.4199 315.14 48.4199C315.193 48.4199 315.243 48.4257 315.289 48.4372C315.421 48.4712 315.463 48.5593 315.476 48.609C315.55 48.885 315.07 49.3967 314.842 49.6201C314.943 50.0972 315.141 51.1778 314.935 51.4355C314.896 51.4852 314.84 51.5124 314.778 51.5124L314.778 51.5119ZM313.902 50.3368L313.921 50.3711C314.285 51.0248 314.613 51.431 314.778 51.431C314.815 51.431 314.846 51.4156 314.871 51.3853C315.024 51.1935 314.913 50.3452 314.757 49.6151L314.753 49.5934L314.769 49.578C315.107 49.2489 315.45 48.8269 315.397 48.6295C315.381 48.5719 315.338 48.5335 315.268 48.5154C315.23 48.5057 315.187 48.5008 315.141 48.5008C314.732 48.5008 314.119 48.891 314.001 48.9693L313.985 48.9795L313.967 48.9747C313.738 48.9154 312.959 48.7215 312.549 48.7215C312.42 48.7215 312.339 48.7414 312.3 48.7822C312.28 48.8026 312.271 48.8275 312.273 48.8557C312.284 49.037 312.671 49.2722 313.306 49.4848L313.37 49.506L312.412 50.426L312.229 50.2816C312.221 50.2756 312.212 50.2743 312.205 50.2743L311.931 50.329C311.919 50.3313 311.909 50.3397 311.905 50.3507C311.901 50.3619 311.902 50.3745 311.909 50.3839L312.4 51.0387C312.409 51.0515 312.43 51.0562 312.444 51.0491L313.902 50.3368H313.902ZM314.82 51.3965L314.737 51.396V51.3512C314.544 51.2668 314.161 50.6643 313.949 50.274C313.941 50.2581 313.92 50.251 313.902 50.2597L312.44 50.9738L312 50.3868L312.197 50.3465L312.392 50.4998C312.405 50.51 312.427 50.5092 312.44 50.4972L313.462 49.5154C313.47 49.5068 313.474 49.4943 313.471 49.4827C313.469 49.4704 313.459 49.461 313.448 49.4574C313.029 49.3268 312.358 49.0496 312.341 48.8612L312.339 48.8419L312.353 48.8285C312.368 48.8147 312.413 48.7916 312.55 48.7916C313.01 48.7916 313.974 49.0488 313.983 49.0514C313.992 49.0537 314.004 49.0522 314.012 49.0464C314.041 49.0268 314.714 48.5706 315.141 48.5706C315.183 48.5706 315.219 48.5748 315.251 48.5832C315.295 48.5944 315.319 48.6145 315.328 48.6472C315.381 48.845 314.885 49.3708 314.689 49.5565C314.68 49.5649 314.676 49.5772 314.679 49.5887C314.769 50.0015 314.966 51.1022 314.821 51.3335L314.82 51.3965ZM313.918 50.1746C313.962 50.1746 314.001 50.1982 314.022 50.2358C314.317 50.7784 314.649 51.2218 314.76 51.2749C314.842 51.0933 314.747 50.2871 314.598 49.606C314.59 49.5667 314.602 49.5264 314.632 49.4984C314.987 49.1602 315.275 48.7728 315.248 48.6682C315.247 48.6679 315.242 48.6648 315.229 48.6616C315.204 48.6551 315.175 48.6517 315.141 48.6517C314.74 48.6517 314.066 49.1082 314.059 49.1129C314.031 49.1322 313.995 49.1385 313.961 49.1296C313.951 49.127 312.994 48.8727 312.549 48.8727C312.492 48.8727 312.456 48.8772 312.434 48.8816C312.511 48.991 312.941 49.2146 313.472 49.3802C313.511 49.3922 313.542 49.4244 313.552 49.4639C313.561 49.5031 313.549 49.545 313.519 49.5735L312.497 50.5555C312.455 50.595 312.386 50.5984 312.341 50.5634L312.176 50.4336L312.142 50.4404L312.465 50.871L313.865 50.1869C313.881 50.1791 313.9 50.1749 313.917 50.1749L313.918 50.1746Z" fill="#1A2771"/>
<path d="M313.775 53.9937L313.777 54.2281C314.09 54.2351 314.353 54.3207 314.564 54.4847C314.451 54.6144 314.338 54.7405 314.227 54.8629C314.17 54.8083 314.1 54.7643 314.017 54.7316C313.934 54.6989 313.855 54.6817 313.78 54.6798L313.784 55.2318C313.899 55.2655 313.993 55.2969 314.067 55.3265C314.141 55.3558 314.223 55.3989 314.312 55.4557C314.401 55.5125 314.469 55.5844 314.515 55.6715C314.562 55.7586 314.585 55.8606 314.586 55.9781C314.588 56.2151 314.51 56.399 314.353 56.5298C314.196 56.6608 314.006 56.7307 313.781 56.739L313.783 56.9907L313.523 56.9925L313.521 56.7409C313.362 56.7372 313.206 56.7092 313.052 56.6561C312.899 56.6033 312.765 56.5277 312.652 56.4296C312.817 56.2582 312.939 56.1308 313.018 56.0477C313.082 56.1138 313.162 56.169 313.258 56.2132C313.354 56.2574 313.441 56.2805 313.518 56.282L313.513 55.6786C313.396 55.6495 313.298 55.6184 313.218 55.5857C313.138 55.553 313.059 55.5098 312.982 55.4562C312.904 55.4029 312.846 55.3348 312.805 55.2522C312.765 55.1698 312.744 55.0733 312.743 54.9629C312.742 54.7512 312.821 54.5794 312.98 54.4473C313.139 54.3152 313.319 54.2438 313.521 54.233L313.519 53.995L313.775 53.9932V53.9937ZM313.527 55.175L313.524 54.6749C313.456 54.6822 313.398 54.7073 313.35 54.7502C313.303 54.7931 313.279 54.8501 313.28 54.9215C313.281 55.0502 313.363 55.1347 313.527 55.175H313.527ZM313.774 55.739L313.778 56.2839C313.857 56.281 313.919 56.2551 313.965 56.2067C314.01 56.158 314.032 56.0937 314.032 56.0131C314.031 55.8821 313.945 55.7908 313.774 55.739Z" fill="#1A2771"/>
<path d="M320.415 27.0112C322.167 25.2888 322.167 22.4963 320.415 20.774C318.663 19.0517 315.823 19.0517 314.071 20.774C312.319 22.4963 312.319 25.2888 314.071 27.0112C315.823 28.7335 318.663 28.7335 320.415 27.0112Z" fill="#FFE98D"/>
<path d="M319.929 26.4735C321.388 25.0389 321.388 22.713 319.929 21.2785C318.469 19.8439 316.103 19.8439 314.644 21.2785C313.185 22.713 313.185 25.0389 314.644 26.4735C316.103 27.9081 318.469 27.9081 319.929 26.4735Z" fill="#F7C22C"/>
<path d="M316.412 21.2373L316.562 21.6108C317.067 21.4324 317.54 21.41 317.981 21.5439C317.88 21.8196 317.78 22.0893 317.679 22.3524C317.554 22.2993 317.415 22.2716 317.262 22.2698C317.108 22.268 316.971 22.2881 316.85 22.3307L317.202 23.2097C317.407 23.194 317.577 23.1872 317.714 23.1893C317.85 23.1916 318.007 23.211 318.186 23.2476C318.364 23.2842 318.517 23.3582 318.645 23.4692C318.774 23.5803 318.876 23.7292 318.95 23.9159C319.102 24.2931 319.093 24.634 318.924 24.938C318.756 25.2422 318.495 25.469 318.141 25.6183L318.302 26.0194L317.888 26.1794L317.728 25.7784C317.471 25.8692 317.204 25.9186 316.926 25.9273C316.647 25.9356 316.387 25.8956 316.145 25.8075C316.301 25.4342 316.416 25.1569 316.49 24.9761C316.633 25.0434 316.795 25.0834 316.977 25.0954C317.158 25.1077 317.311 25.092 317.435 25.0481L317.05 24.0868C316.845 24.1113 316.668 24.1215 316.52 24.1174C316.372 24.1134 316.22 24.092 316.062 24.0535C315.905 24.0151 315.768 23.9421 315.652 23.8349C315.536 23.7276 315.443 23.5858 315.372 23.41C315.237 23.0731 315.256 22.7511 315.427 22.4435C315.598 22.1359 315.842 21.913 316.156 21.7743L316.004 21.3953L316.412 21.2376V21.2373ZM316.757 23.2737L316.438 22.4772C316.334 22.5301 316.258 22.6051 316.208 22.7024C316.159 22.7998 316.157 22.9052 316.203 23.0187C316.285 23.2238 316.47 23.3088 316.757 23.2737ZM317.503 24.0255L317.851 24.8935C317.976 24.8409 318.059 24.7619 318.101 24.657C318.143 24.5521 318.138 24.4355 318.087 24.3073C318.003 24.0985 317.809 24.0049 317.503 24.0258V24.0255Z" fill="#DFA80F"/>
<path d="M321.481 19.1236C321.45 19.1236 321.419 19.1149 321.391 19.0969C321.314 19.0474 321.293 18.947 321.344 18.8722L321.872 18.0845C321.923 18.0097 322.025 17.9893 322.101 18.0385C322.177 18.0879 322.198 18.1884 322.148 18.2632L321.619 19.0508C321.588 19.0982 321.535 19.1238 321.481 19.1238V19.1236Z" fill="#243286"/>
<path d="M322.513 20.6846C322.454 20.6846 322.397 20.6535 322.367 20.5988C322.324 20.5198 322.354 20.4215 322.435 20.3794L323.195 19.9791C323.275 19.937 323.376 19.9666 323.418 20.0456C323.461 20.1246 323.431 20.2229 323.351 20.265L322.59 20.6653C322.566 20.6783 322.539 20.6844 322.513 20.6844V20.6846Z" fill="#243286"/>
<path d="M323.116 22.3927C323.03 22.3927 322.958 22.3278 322.952 22.2425C322.945 22.1531 323.013 22.0754 323.104 22.0688L323.798 22.0181C323.89 22.011 323.968 22.0785 323.975 22.1677C323.982 22.2572 323.914 22.3349 323.823 22.3414L323.128 22.3922C323.124 22.3924 323.12 22.3927 323.116 22.3927H323.116Z" fill="#243286"/>
<path d="M311.767 28.6199C311.717 28.6199 311.668 28.5982 311.636 28.5566C311.58 28.4855 311.594 28.3837 311.666 28.329L312.455 27.7329C312.527 27.6782 312.631 27.6915 312.687 27.7627C312.742 27.8338 312.729 27.9356 312.657 27.9903L311.867 28.5864C311.837 28.6092 311.802 28.6199 311.767 28.6199Z" fill="#243286"/>
<path d="M313.469 29.5707C313.445 29.5707 313.42 29.5652 313.396 29.5537C313.315 29.5136 313.281 29.4163 313.322 29.336L313.682 28.6279C313.722 28.5479 313.821 28.5152 313.903 28.5552C313.984 28.5952 314.018 28.6925 313.977 28.7728L313.617 29.4809C313.589 29.5377 313.53 29.5707 313.47 29.5707H313.469Z" fill="#243286"/>
<path d="M310.731 26.6697C310.661 26.6697 310.595 26.6245 310.574 26.5546C310.547 26.4688 310.596 26.3783 310.683 26.3522L311.503 26.1076C311.589 26.0817 311.682 26.1298 311.709 26.2156C311.735 26.3014 311.686 26.3919 311.599 26.4181L310.779 26.6627C310.764 26.6674 310.747 26.6697 310.732 26.6697H310.731Z" fill="#243286"/>
<path d="M295.294 32.1298L295.453 38.8421C295.516 41.498 294.19 43.9663 292.017 45.258L288.819 47.1579C288.57 47.3065 288.291 47.3873 288.009 47.3994C287.962 47.4017 287.916 47.4025 287.87 47.4007C287.604 47.3936 287.34 47.3246 287.099 47.1953L283.83 45.4474C281.605 44.2543 280.168 41.8517 280.105 39.2005L279.946 32.4526C279.929 31.7597 280.615 31.2397 281.288 31.4458C281.781 31.5954 282.31 31.6715 282.854 31.659C284.565 31.62 286.053 30.718 286.893 29.3868C287.021 29.1836 287.221 29.0593 287.435 29.017C287.48 29.0078 287.526 29.0023 287.571 29.0007C287.844 28.9895 288.124 29.1064 288.297 29.3549C289.199 30.6466 290.725 31.4795 292.438 31.4403C292.953 31.4285 293.455 31.338 293.917 31.1813C294.579 30.9574 295.278 31.4408 295.294 32.1298Z" fill="#5464C4"/>
<path d="M295.296 32.1298L295.455 38.8421C295.518 41.498 294.192 43.9663 292.019 45.258L288.821 47.1579C288.572 47.3065 288.293 47.3873 288.011 47.3994C287.964 47.4017 287.918 47.4025 287.872 47.4007L287.438 29.017C287.482 29.0078 287.528 29.0023 287.573 29.0007C287.846 28.9895 288.126 29.1064 288.299 29.3549C289.201 30.6466 290.727 31.4795 292.44 31.4403C292.955 31.4285 293.457 31.338 293.919 31.1813C294.581 30.9574 295.28 31.4408 295.296 32.1298Z" fill="#A0ADFF"/>
<path d="M287.974 48.0784C287.555 48.0881 287.137 47.9882 286.767 47.7899L283.499 46.0422C281.054 44.7309 279.484 42.1153 279.416 39.2159L279.256 32.468C279.234 31.5274 279.997 30.7442 280.947 30.7227C281.131 30.7185 281.319 30.7439 281.497 30.7983C281.93 30.9299 282.384 30.9916 282.84 30.9812C284.26 30.9487 285.558 30.2192 286.308 29.0295C286.575 28.606 287.039 28.3418 287.547 28.3235C287.552 28.3232 287.563 28.3229 287.573 28.3227C288.092 28.3109 288.575 28.5537 288.867 28.9719C289.672 30.1255 291.001 30.7949 292.422 30.7625C292.854 30.7525 293.28 30.678 293.687 30.5407C293.855 30.4839 294.036 30.4528 294.212 30.4488C295.163 30.4271 295.962 31.174 295.984 32.1141L296.143 38.8266C296.211 41.7316 294.763 44.4183 292.375 45.8382L289.177 47.7378C288.834 47.9421 288.44 48.0593 288.042 48.0766C288.02 48.0776 287.996 48.0784 287.974 48.0789L287.974 48.0784ZM280.979 32.0777C280.812 32.0817 280.63 32.2266 280.635 32.4364L280.794 39.1842C280.851 41.6005 282.146 43.7722 284.16 44.852L287.424 46.5999C287.591 46.6894 287.782 46.7315 287.969 46.7223H287.977C288.145 46.715 288.312 46.6651 288.458 46.578L291.661 44.6778C293.628 43.5085 294.821 41.2782 294.764 38.8578L294.605 32.1452C294.6 31.9362 294.411 31.7999 294.244 31.8039C294.21 31.8046 294.172 31.8109 294.138 31.8224C293.597 32.0053 293.03 32.1047 292.456 32.1178C290.567 32.1609 288.8 31.2713 287.73 29.7384C287.693 29.684 287.636 29.6772 287.606 29.678H287.598C287.569 29.6793 287.516 29.6892 287.482 29.7439C286.484 31.3244 284.762 32.2935 282.874 32.3364C282.269 32.3503 281.666 32.2684 281.089 32.0932C281.052 32.0822 281.013 32.0772 280.979 32.078L280.979 32.0777Z" fill="#E0E4FF"/>
<path d="M287.488 41.0897C287.195 41.0965 286.911 40.9898 286.697 40.7915L283.694 38.009C283.246 37.5936 283.225 36.8999 283.647 36.4594C284.07 36.0189 284.776 35.9982 285.224 36.4136L287.351 38.3847L290.607 34.4248C290.994 33.9539 291.696 33.8807 292.175 34.2613C292.654 34.6419 292.729 35.3322 292.341 35.8031L288.33 40.6829C288.134 40.9205 287.847 41.067 287.538 41.0876C287.521 41.0887 287.505 41.0895 287.488 41.0897H287.488Z" fill="#333333"/>
<path d="M287.461 41.2523C287.133 41.2523 286.821 41.1307 286.583 40.9096L283.58 38.1272C283.331 37.8967 283.188 37.5846 283.178 37.2485C283.168 36.9124 283.292 36.5927 283.526 36.3481C283.767 36.097 284.107 35.9529 284.458 35.9529C284.785 35.9529 285.097 36.0745 285.336 36.2955L287.334 38.1465L290.477 34.3229C290.721 34.0258 291.085 33.8555 291.474 33.8555C291.765 33.8555 292.051 33.9549 292.277 34.1351C292.544 34.3465 292.71 34.6468 292.746 34.9811C292.782 35.3154 292.683 35.6434 292.469 35.9047L288.457 40.7846C288.233 41.0561 287.902 41.2256 287.547 41.2492C287.529 41.2505 287.51 41.2513 287.491 41.2518L287.461 41.2523ZM284.458 36.2772C284.193 36.2772 283.948 36.3813 283.766 36.5707C283.592 36.7523 283.501 36.9895 283.508 37.2391C283.515 37.4884 283.621 37.7201 283.806 37.8912L286.809 40.6737C286.986 40.8377 287.218 40.928 287.461 40.928H287.483C287.497 40.9274 287.511 40.9267 287.525 40.9259C287.788 40.9083 288.034 40.7825 288.2 40.5808L292.212 35.701C292.371 35.5069 292.444 35.2633 292.418 35.0153C292.391 34.7674 292.267 34.5442 292.07 34.3873C291.899 34.2515 291.693 34.1796 291.474 34.1796C291.185 34.1796 290.915 34.3059 290.734 34.5264L287.479 38.4863C287.45 38.5214 287.407 38.5431 287.361 38.5462C287.316 38.5499 287.27 38.5334 287.237 38.5025L285.11 36.5315C284.933 36.3675 284.701 36.2772 284.458 36.2772H284.458Z" fill="#0C123A"/>
<path d="M287.783 41.0096C287.49 41.0164 287.206 40.9097 286.992 40.7114L283.989 37.9289C283.541 37.5138 283.52 36.8198 283.942 36.3793C284.365 35.9388 285.071 35.9181 285.519 36.3335L287.646 38.3046L290.902 34.3447C291.289 33.8738 291.991 33.8006 292.47 34.1812C292.949 34.5618 293.023 35.2521 292.636 35.723L288.624 40.6029C288.429 40.8404 288.142 40.9869 287.833 41.0075C287.816 41.0086 287.8 41.0094 287.783 41.0096H287.783Z" fill="#243286"/>
</svg>
