<svg width="31" height="31" viewBox="0 0 31 31" fill="none" xmlns="http://www.w3.org/2000/svg">
<path fill-rule="evenodd" clip-rule="evenodd" d="M3.89487 12.5911H0.413911C0.185102 12.5911 0 12.4081 0 12.1818V2.33389C0 1.69193 0.266087 1.10721 0.692868 0.685175C1.12093 0.261867 1.71096 0 2.36009 0C2.37295 0 2.38452 0.0012711 2.39737 0.0012711L21.543 0.0203388C22.2988 0.0216099 22.984 0.311438 23.4814 0.779221C23.9853 1.25336 24.2977 1.90804 24.2977 2.63006V8.95788H28.2453C28.9986 8.95788 29.685 9.24897 30.1837 9.71803C30.6876 10.1922 31 10.8481 31 11.5701V30.5907C31 30.817 30.8149 31 30.5861 31H12.0986C11.8698 31 11.6847 30.8169 11.6847 30.5907V29.9729L7.56866 29.6678C7.54423 29.6666 7.52624 29.664 7.4594 29.6577C7.33214 29.6462 7.21644 29.636 7.13675 29.6691L6.63543 29.8814V30.053C6.63543 30.3085 6.53003 30.5398 6.36035 30.7076C6.19067 30.8754 5.9567 30.9797 5.69835 30.9797H3.69563C3.43854 30.9797 3.2033 30.8754 3.03363 30.7076C2.86395 30.5398 2.75854 30.3085 2.75854 30.053L2.75982 24.2907C2.75982 24.0365 2.86523 23.8039 3.03491 23.6361C3.20459 23.4683 3.43856 23.3641 3.69691 23.3641H5.69963C5.95801 23.3641 6.19196 23.4683 6.36163 23.6361C6.43362 23.7073 6.49403 23.7899 6.53902 23.8802L8.78727 23.0374C8.88624 23.0005 8.98394 22.9764 9.0842 22.9662C9.18447 22.9548 9.28345 22.9573 9.38757 22.9726L10.1164 23.0768C9.99557 22.8785 9.88888 22.6688 9.7989 22.4514C9.68964 22.1882 9.6048 21.9124 9.54696 21.6289H6.2562C5.61092 21.6289 5.02345 21.3798 4.59668 20.9768C4.16348 20.5688 3.89482 20.0069 3.89482 19.3866L3.89487 12.5911ZM2.39475 0.816059C2.38446 0.81733 2.37289 0.81733 2.36133 0.81733C1.93971 0.81733 1.55664 0.987669 1.27768 1.26352C1.00002 1.53809 0.826486 1.91817 0.826486 2.33386V11.7737H3.89485V2.24242C3.89485 1.86105 3.74702 1.48226 3.46037 1.21275C3.21228 0.977581 2.85496 0.823707 2.39475 0.816059ZM10.151 8.95908H23.471V2.63126C23.471 2.14059 23.2576 1.6944 22.9131 1.37025C22.5622 1.03975 22.0776 0.835096 21.5428 0.835096L4.21374 0.8173C4.54923 1.22281 4.72279 1.73255 4.72279 2.24229V19.3868C4.72279 19.7745 4.89247 20.1291 5.16628 20.3859C5.44523 20.6478 5.83085 20.8118 6.25763 20.8118C6.68441 20.8118 7.07005 20.6491 7.34897 20.3859C7.62149 20.1292 7.79247 19.7745 7.79247 19.3868L7.7899 11.2018C7.7899 10.5815 8.05856 10.0183 8.49175 9.61155C8.91853 9.20985 9.50596 8.95944 10.1513 8.95944L10.151 8.95908ZM10.151 9.77644C9.72427 9.77644 9.33863 9.93915 9.0597 10.201C8.78719 10.4578 8.61621 10.8125 8.61621 11.2002V19.3852C8.61621 19.9254 8.41311 20.4212 8.07376 20.8101H9.45562C9.45562 20.7873 9.45433 20.7631 9.45433 20.7402C9.45433 19.4919 9.96594 18.3606 10.7938 17.542C11.0599 17.2788 11.3581 17.0487 11.682 16.8568L11.6846 11.2013C11.6846 10.8136 11.5149 10.4589 11.2411 10.2021C10.9634 9.93901 10.5778 9.77644 10.151 9.77644ZM10.3066 21.1561C10.3079 21.1675 10.3092 21.179 10.3104 21.1904C10.3503 21.526 10.4364 21.8463 10.5598 22.1463C10.7282 22.5519 10.9673 22.923 11.2642 23.2421L11.5612 23.2853L13.6912 23.5904C13.6449 23.5243 13.6179 23.4442 13.6179 23.3578V23.2243C13.3274 23.1646 13.0664 23.0425 12.8569 22.8785C12.5253 22.618 12.3196 22.2519 12.3196 21.8387C12.3196 21.6125 12.5047 21.4294 12.7335 21.4294C12.9623 21.4294 13.1474 21.6125 13.1474 21.8387C13.1474 21.9887 13.2336 22.1311 13.3711 22.2392C13.5356 22.3688 13.7696 22.4476 14.0318 22.4476C14.2953 22.4476 14.5293 22.3675 14.6925 22.2392C14.8314 22.1311 14.9162 21.9887 14.9162 21.8387C14.9162 21.6887 14.8301 21.5464 14.6925 21.4383C14.528 21.3099 14.2941 21.2298 14.0318 21.2298C13.5781 21.2298 13.1629 21.0824 12.8569 20.8421C12.5253 20.5815 12.3196 20.2154 12.3196 19.8023C12.3196 19.3904 12.524 19.0231 12.8569 18.7625C13.0665 18.5985 13.3287 18.4765 13.6179 18.4167V18.1256C13.6179 17.8994 13.803 17.7163 14.0318 17.7163C14.2606 17.7163 14.4457 17.8994 14.4457 18.1256V18.4167C14.7362 18.4765 14.9972 18.5985 15.2067 18.7625C15.5384 19.0231 15.744 19.3892 15.744 19.8023C15.744 20.0286 15.5589 20.2116 15.3301 20.2116C15.1013 20.2116 14.9162 20.0286 14.9162 19.8023C14.9162 19.6523 14.8301 19.5099 14.6925 19.4019C14.528 19.2735 14.2941 19.1934 14.0318 19.1934C13.7683 19.1934 13.5356 19.2735 13.3711 19.4019C13.2323 19.5099 13.1474 19.6523 13.1474 19.8023C13.1474 19.9523 13.2323 20.0947 13.3711 20.2027C13.5356 20.3311 13.7696 20.4112 14.0318 20.4112C14.4856 20.4112 14.9008 20.5587 15.2067 20.7989C15.5384 21.0595 15.744 21.4256 15.744 21.8387C15.744 22.2506 15.5396 22.618 15.2067 22.8785C14.9972 23.0425 14.735 23.1646 14.4457 23.2243V23.3578C14.4457 23.4862 14.3853 23.6018 14.2915 23.6768L15.3031 23.8218C15.37 23.8319 15.3481 23.8281 15.3545 23.8294C15.5178 23.851 15.7003 23.8764 15.879 23.9679C16.4228 23.6629 16.8804 23.2294 17.2108 22.7095C17.4987 22.2544 17.6902 21.7319 17.7545 21.1688C17.7558 21.1612 17.7558 21.1535 17.7571 21.1472C17.7712 21.015 17.7789 20.879 17.7789 20.743C17.7789 19.7197 17.3599 18.7942 16.6811 18.1231C16.0037 17.4531 15.0666 17.0375 14.0318 17.0375C12.9971 17.0375 12.0612 17.4519 11.3825 18.1231C10.7051 18.793 10.2847 19.7196 10.2847 20.743C10.2835 20.8815 10.2912 21.0201 10.3066 21.1561ZM6.39224 4.37021H16.6693C16.8981 4.37021 17.0832 4.18716 17.0832 3.9609C17.0832 3.73463 16.8981 3.55158 16.6693 3.55158L6.39224 3.55286C6.16343 3.55286 5.97833 3.7359 5.97833 3.96217C5.97833 4.18717 6.16343 4.37021 6.39224 4.37021ZM18.2775 4.37021H21.6429C21.8717 4.37021 22.0568 4.18716 22.0568 3.9609C22.0568 3.73463 21.8717 3.55158 21.6429 3.55158L18.2775 3.55286C18.0486 3.55286 17.8635 3.7359 17.8635 3.96217C17.8648 4.18717 18.0499 4.37021 18.2775 4.37021ZM6.39224 7.40832H16.6693C16.8981 7.40832 17.0832 7.22527 17.0832 6.999C17.0832 6.77274 16.8981 6.58969 16.6693 6.58969L6.39224 6.59096C6.16343 6.59096 5.97833 6.77401 5.97833 7.00027C5.97833 7.22527 6.16343 7.40832 6.39224 7.40832ZM18.2775 7.40832H21.6429C21.8717 7.40832 22.0568 7.22527 22.0568 6.999C22.0568 6.77274 21.8717 6.58969 21.6429 6.58969L18.2775 6.59096C18.0486 6.59096 17.8635 6.77401 17.8635 7.00027C17.8648 7.22527 18.0499 7.40832 18.2775 7.40832ZM25.629 12.9864H28.9211C29.1499 12.9864 29.335 12.8033 29.335 12.577C29.335 12.3508 29.1499 12.1677 28.9211 12.1677L25.629 12.169C25.4002 12.169 25.2151 12.3521 25.2151 12.5783C25.2151 12.8033 25.4002 12.9864 25.629 12.9864ZM25.629 15.8618H28.9211C29.1499 15.8618 29.335 15.6787 29.335 15.4524C29.335 15.2262 29.1499 15.0431 28.9211 15.0431L25.629 15.0444C25.4002 15.0444 25.2151 15.2274 25.2151 15.4537C25.2151 15.6787 25.4002 15.8618 25.629 15.8618ZM17.6038 17.9198H24.0544C24.2832 17.9198 24.4683 18.1028 24.4683 18.3291C24.4683 18.5554 24.2832 18.7384 24.0544 18.7384L18.1297 18.7371C18.4331 19.341 18.6027 20.0223 18.6027 20.7418V20.7939H24.0542C24.283 20.7939 24.4681 20.977 24.4681 21.2032C24.4681 21.4295 24.283 21.6126 24.0542 21.6126L18.5178 21.6113C18.4086 22.1617 18.1978 22.6778 17.906 23.1392C17.8623 23.2066 17.8186 23.274 17.7723 23.3388C17.9574 23.2536 18.1823 23.1596 18.4253 23.11C18.7261 23.049 19.0359 23.0617 19.3097 23.2371L19.4215 23.3096C19.6375 23.2498 19.8547 23.246 20.0591 23.288C20.2738 23.3325 20.473 23.4265 20.6401 23.5575C20.6851 23.593 20.7275 23.6299 20.7674 23.6706H24.0543C24.2831 23.6706 24.4682 23.8536 24.4682 24.0799C24.4682 24.3062 24.2831 24.4892 24.0543 24.4892H21.162C21.1761 24.624 21.1697 24.7638 21.1401 24.9061C21.1016 25.0905 21.0322 25.2544 20.9319 25.4006C20.8316 25.5468 20.7018 25.6714 20.545 25.7731L19.3495 26.5472H24.0543C24.2831 26.5472 24.4682 26.7303 24.4682 26.9565C24.4682 27.1828 24.2831 27.3658 24.0543 27.3658L18.0859 27.362L14.1498 29.9095C13.804 30.1332 13.4929 30.109 13.1497 30.0836L13.1278 30.0823L12.5095 30.0366V30.184H30.1704L30.1729 11.5716C30.1729 11.0809 29.9595 10.6334 29.615 10.3106C29.2654 9.98132 28.7808 9.77667 28.246 9.77667H11.9696C12.3077 10.1644 12.5121 10.6614 12.5121 11.2017V16.4745C12.9877 16.3092 13.498 16.2189 14.0302 16.2189C15.2938 16.2189 16.4366 16.7249 17.2644 17.5435C17.3839 17.663 17.4972 17.7876 17.6038 17.9198ZM25.629 18.7371H28.9211C29.1499 18.7371 29.335 18.5541 29.335 18.3278C29.335 18.1016 29.1499 17.9185 28.9211 17.9185L25.629 17.9198C25.4002 17.9198 25.2151 18.1028 25.2151 18.3291C25.2151 18.5541 25.4002 18.7371 25.629 18.7371ZM25.629 21.6113H28.9211C29.1499 21.6113 29.335 21.4282 29.335 21.202C29.335 20.9757 29.1499 20.7926 28.9211 20.7926L25.629 20.7939C25.4002 20.7939 25.2151 20.977 25.2151 21.2032C25.2151 21.4295 25.4002 21.6113 25.629 21.6113ZM20.248 24.3265C20.2415 24.3189 20.2364 24.3113 20.2312 24.3036C20.2004 24.2642 20.1657 24.2274 20.1258 24.1969C20.0564 24.1435 19.978 24.1041 19.8932 24.0875C19.7916 24.0672 19.6785 24.0761 19.5654 24.1257C19.3828 24.2426 19.1245 24.4193 18.8121 24.6329C17.312 25.6613 14.6549 27.4816 13.7295 27.2096C13.1948 27.0532 12.8786 26.8168 12.5071 26.5384C12.4287 26.4799 12.3464 26.4189 12.2718 26.3642L9.8822 26.3757C9.65467 26.3769 9.46957 26.1952 9.46829 25.9702C9.467 25.7452 9.65082 25.5621 9.87835 25.5608L15.5421 25.5329C15.5472 25.5329 15.5858 25.5189 15.6346 25.4986C15.6642 25.4871 15.6603 25.5075 15.6706 25.496C15.7027 25.4604 15.7285 25.4299 15.7452 25.4058C15.7554 25.3892 15.7657 25.3702 15.776 25.3435C15.7837 25.3206 15.7914 25.2888 15.7966 25.2532C15.803 25.2125 15.8056 25.1744 15.8043 25.1477C15.8004 25.0867 15.794 25.0435 15.7786 25.0053C15.767 24.9774 15.7503 24.9469 15.7259 24.9113C15.7105 24.8986 15.6963 24.8846 15.6835 24.8693L15.5549 24.7409C15.5485 24.7346 15.5408 24.7282 15.5343 24.7206C15.4791 24.6672 15.3492 24.6494 15.2387 24.6354C15.195 24.6291 15.213 24.6329 15.1808 24.6278C13.934 24.4486 12.6871 24.2706 11.4416 24.0914L9.26786 23.7787C9.23187 23.7736 9.19845 23.7723 9.1676 23.7761C9.13803 23.7799 9.10718 23.7876 9.07376 23.8003L6.63268 24.7155V28.9955L6.81135 28.9192C7.07873 28.8061 7.29598 28.8251 7.53121 28.8467L7.62762 28.8544L12.106 29.1861C12.1201 29.1861 12.1343 29.1874 12.1471 29.1887L13.1884 29.2662L13.2102 29.2675C13.4069 29.2827 13.5856 29.2954 13.6961 29.2243L17.7197 26.6196C17.73 26.612 17.7416 26.6044 17.7532 26.598L20.0901 25.0853C20.1557 25.0421 20.2084 24.9925 20.2482 24.9366C20.2868 24.8794 20.3151 24.8133 20.3305 24.7396C20.3562 24.6163 20.3382 24.4993 20.2881 24.3963C20.2778 24.3735 20.2634 24.3494 20.248 24.3265ZM25.629 24.4867H28.9211C29.1499 24.4867 29.335 24.3036 29.335 24.0774C29.335 23.8511 29.1499 23.6681 28.9211 23.6681L25.629 23.6693C25.4002 23.6693 25.2151 23.8524 25.2151 24.0786C25.2151 24.3036 25.4002 24.4867 25.629 24.4867ZM25.629 27.3621H28.9211C29.1499 27.3621 29.335 27.179 29.335 26.9528C29.335 26.7265 29.1499 26.5434 28.9211 26.5434L25.629 26.5447C25.4002 26.5447 25.2151 26.7278 25.2151 26.954C25.2151 27.179 25.4002 27.3621 25.629 27.3621ZM5.69954 24.1829H3.69682C3.66725 24.1829 3.64026 24.1956 3.61969 24.2147C3.59913 24.235 3.58756 24.2617 3.58756 24.2909V30.0571C3.58756 30.0863 3.60041 30.113 3.61969 30.1333C3.64026 30.1537 3.66725 30.1651 3.69682 30.1651H5.69954C5.7291 30.1651 5.7561 30.1524 5.77667 30.1333C5.79723 30.113 5.8088 30.0863 5.8088 30.0571V24.2909C5.8088 24.2617 5.79595 24.235 5.77667 24.2147C5.7561 24.1956 5.7291 24.1829 5.69954 24.1829ZM16.5784 24.7918C16.6093 24.8896 16.6234 24.9901 16.6299 25.1083V25.1147C17.2134 24.7358 17.7945 24.3392 18.265 24.0176C18.2071 24.0418 18.1518 24.0672 18.0991 24.0914L16.5784 24.7918ZM14.4163 26.3541L13.7646 26.3579C13.8276 26.3833 13.8931 26.4062 13.9638 26.4278C14.0602 26.4545 14.2171 26.4252 14.4163 26.3541ZM13.9998 15.8618H24.0547C24.2835 15.8618 24.4686 15.6788 24.4686 15.4525C24.4686 15.2262 24.2835 15.0432 24.0547 15.0432L13.9998 15.0445C13.771 15.0445 13.5859 15.2275 13.5859 15.4538C13.5859 15.6788 13.771 15.8618 13.9998 15.8618ZM13.9998 12.9864H24.0547C24.2835 12.9864 24.4686 12.8034 24.4686 12.5771C24.4686 12.3508 24.2835 12.1678 24.0547 12.1678L13.9998 12.1691C13.771 12.1691 13.5859 12.3521 13.5859 12.5784C13.5859 12.8034 13.771 12.9864 13.9998 12.9864Z" fill="#003781"/>
</svg>
