<svg width="45" height="43" viewBox="0 0 45 43" fill="none" xmlns="http://www.w3.org/2000/svg">
<path d="M41.7257 18.5638C41.2286 18.5638 40.7436 18.4137 40.3257 18.1252L22.1023 5.48682L3.87972 18.1246C2.75655 18.9 1.21353 18.6174 0.438704 17.4953C0.0633437 16.9517 -0.0778808 16.2945 0.0411455 15.6448C0.160071 14.9953 0.524684 14.4309 1.06799 14.0555L20.6288 0.48972C20.6474 0.471841 20.6677 0.455268 20.6895 0.440101C21.5912 -0.185365 22.8098 -0.139763 23.6612 0.548882L43.1369 14.0558C43.6796 14.4306 44.0445 14.9951 44.1634 15.6448C44.2825 16.2946 44.1413 16.9518 43.7659 17.4953C43.3906 18.0389 42.8261 18.4037 42.1764 18.5228C42.0259 18.5503 41.8752 18.5638 41.7257 18.5638ZM22.1023 4.37339C22.2024 4.37339 22.3025 4.40323 22.3885 4.46299L40.8973 17.2993C41.2192 17.5215 41.6093 17.6054 41.9955 17.5347C42.3813 17.464 42.7166 17.2474 42.9393 16.9246C43.1622 16.6018 43.2461 16.2115 43.1755 15.8256C43.1049 15.4398 42.8882 15.1045 42.5654 14.8817L23.0727 1.36318C23.0613 1.35525 23.0502 1.34691 23.0395 1.33807C22.5503 0.935089 21.852 0.893405 21.3184 1.22819C21.302 1.24335 21.2843 1.25752 21.2655 1.27057L1.64022 14.8812C1.63992 14.8814 1.63961 14.8816 1.63931 14.8818C0.972966 15.3419 0.805124 16.2584 1.26526 16.9247C1.72539 17.591 2.64185 17.7586 3.30819 17.2987L21.8161 4.46299C21.9022 4.40333 22.0023 4.37339 22.1023 4.37339Z" fill="#003781"/>
<path d="M39.3011 42.7455H4.90261C4.62529 42.7455 4.40039 42.5207 4.40039 42.2433V16.803C4.40039 16.5257 4.62529 16.3008 4.90261 16.3008C5.17994 16.3008 5.40483 16.5257 5.40483 16.803V41.7411H38.7989V16.803C38.7989 16.5257 39.0237 16.3008 39.3011 16.3008C39.5785 16.3008 39.8033 16.5257 39.8033 16.803V42.2433C39.8033 42.5207 39.5785 42.7455 39.3011 42.7455Z" fill="#003781"/>
<path d="M22.0996 38.6289C15.4257 38.6289 9.99609 33.1993 9.99609 26.5254C9.99609 19.8515 15.4257 14.4219 22.0996 14.4219C28.7735 14.4219 34.2031 19.8515 34.2031 26.5254C34.2032 33.1993 28.7735 38.6289 22.0996 38.6289ZM22.0996 15.4263C15.9796 15.4263 11.0005 20.4053 11.0005 26.5254C11.0005 32.6455 15.9796 37.6245 22.0996 37.6245C28.2197 37.6245 33.1987 32.6455 33.1987 26.5254C33.1987 20.4053 28.2198 15.4263 22.0996 15.4263Z" fill="#003781"/>
<path d="M22.1022 36.603C16.5468 36.603 12.0273 32.0834 12.0273 26.5281C12.0273 20.9727 16.5469 16.4531 22.1022 16.4531C27.6575 16.4531 32.177 20.9727 32.177 26.5281C32.177 32.0834 27.6575 36.603 22.1022 36.603ZM22.1022 17.4576C17.1008 17.4576 13.0318 21.5266 13.0318 26.5281C13.0318 31.5296 17.1008 35.5986 22.1022 35.5986C27.1036 35.5986 31.1726 31.5296 31.1726 26.5281C31.1726 21.5266 27.1037 17.4576 22.1022 17.4576Z" fill="#003781"/>
<path d="M25.8446 27.8359C25.7556 27.5785 25.6207 27.3509 25.4433 27.1595C25.0801 26.7674 24.6373 26.4741 24.1273 26.2877C23.606 26.0973 22.9217 25.9085 22.0942 25.7266C21.1304 25.5105 20.4931 25.2971 20.1461 25.0744C19.7816 24.8408 19.5969 24.4821 19.5969 24.0088C19.5969 23.4791 19.8326 23.07 20.2972 22.7931C20.7441 22.527 21.3285 22.392 22.0341 22.392C22.8181 22.392 23.4319 22.5632 23.8585 22.9011C24.1677 23.1461 24.384 23.4809 24.5012 23.8963C24.5696 24.1386 24.8082 24.3029 25.0627 24.2823L25.0795 24.2809C25.2393 24.268 25.3843 24.1858 25.4774 24.0553C25.569 23.9272 25.5995 23.7666 25.5608 23.6147C25.4854 23.3191 25.3679 23.0481 25.2119 22.8094C25.056 22.5709 24.8566 22.3571 24.619 22.1739C24.2903 21.9204 23.9024 21.7272 23.4662 21.6C23.1988 21.5219 22.9082 21.4676 22.5982 21.4368V20.7117C22.5982 20.4377 22.3753 20.2148 22.1013 20.2148C21.8273 20.2148 21.6044 20.4377 21.6044 20.7117V21.4184C21.2175 21.4421 20.8613 21.5028 20.542 21.6005C20.1257 21.7278 19.7602 21.921 19.4557 22.1748C19.1522 22.4278 18.9216 22.7175 18.7705 23.0362C18.6196 23.3546 18.5431 23.7119 18.5431 24.0983C18.5431 24.4382 18.6033 24.7497 18.7221 25.0243C18.8405 25.298 19.021 25.544 19.2584 25.7553C19.743 26.1866 20.5535 26.5273 21.6673 26.768C22.8246 27.0182 23.6282 27.2661 24.1242 27.5258C24.6426 27.7974 24.9055 28.2352 24.9055 28.8271C24.9055 29.3912 24.6564 29.8433 24.1649 30.1709C23.6874 30.4893 23.0563 30.6507 22.2891 30.6507C21.4719 30.6507 20.7634 30.4581 20.1831 30.0783C19.7303 29.7821 19.4282 29.3465 19.2851 28.7838C19.2205 28.5293 18.9829 28.3555 18.7152 28.3793C18.5577 28.3931 18.4197 28.4711 18.3267 28.5989C18.234 28.7264 18.2012 28.8879 18.2366 29.0423C18.3877 29.6993 18.7213 30.2634 19.2279 30.7189C19.567 31.0236 19.9994 31.2561 20.513 31.4092C20.8397 31.5068 21.205 31.5739 21.6045 31.6102V32.3378C21.6045 32.6117 21.8274 32.8346 22.1014 32.8346C22.3754 32.8346 22.5983 32.6117 22.5983 32.3378V31.6367C23.0425 31.6179 23.4535 31.5498 23.8223 31.4323C24.2578 31.2936 24.6479 31.0829 24.9814 30.8058C25.3138 30.5298 25.566 30.2149 25.7314 29.87V29.8699C25.8966 29.5253 25.9803 29.1397 25.9803 28.7239C25.9801 28.3949 25.9345 28.0962 25.8446 27.8359Z" fill="#003781"/>
</svg>
