<svg width="48" height="48" viewBox="0 0 48 48" fill="none" xmlns="http://www.w3.org/2000/svg">
<path d="M46.4451 26.047C46.434 25.9828 46.4207 25.9186 46.4096 25.8543C45.9976 23.5972 45.5325 21.041 45.6344 19.8668C45.7385 18.6618 45.7141 17.6296 45.559 16.7148C45.3663 15.5785 44.9809 14.606 44.3762 13.7422C44.2012 13.4897 44.0041 13.2593 43.787 13.0555C43.8003 12.0698 44.0595 11.7022 44.9277 10.6145C45.4372 9.97882 45.6786 9.22571 45.6277 8.43938C45.5856 7.77927 45.3287 7.1148 44.9233 6.62305L44.9211 6.62084C44.3651 5.94967 44.1192 5.11905 43.9044 3.20082C43.8468 2.67585 43.6186 2.18631 43.2266 1.74111C42.9054 1.37563 42.4823 1.04999 41.964 0.76646C40.9982 0.241493 39.9616 0.00445363 39.3613 0.00445363H36.2602C35.6621 0.00445363 34.6255 0.239248 33.6576 0.764192C33.1414 1.0455 32.7161 1.37332 32.395 1.73658C32.0029 2.1818 31.7747 2.67131 31.7172 3.19407C31.5045 5.11451 31.2564 5.9474 30.7004 6.61636C30.2929 7.1081 30.0359 7.77042 29.9938 8.4349C29.9429 9.22344 30.1865 9.9766 30.696 10.6123C31.6042 11.7464 31.8257 12.1074 31.8367 13.0555C31.5266 13.3191 31.3251 13.5384 31.2675 13.6004C31.1058 13.7554 29.728 15.0756 28.3879 16.8233C28.3724 16.841 28.3591 16.8587 28.3458 16.8787C28.111 17.1888 27.8984 17.4812 27.6991 17.7713C27.5374 18.0061 27.3513 18.2786 27.1519 18.5754C26.8994 18.4824 26.6646 18.4159 26.4365 18.3827C26.1485 18.2786 26.0378 17.8777 26.0865 17.1245C26.2106 17.016 26.3368 16.8964 26.4697 16.7635C26.9681 16.2629 27.2937 15.8486 27.5219 15.4189C27.7966 14.9028 27.9317 14.3579 27.9317 13.751V11.2435C27.9361 11.1793 27.9427 10.9445 27.9073 10.6189C27.9051 10.5967 27.9029 10.5768 27.9007 10.5546C27.8276 9.93887 27.5972 9.03289 26.9238 8.31301C26.2349 7.57539 25.247 7.20108 23.9911 7.20108C22.7351 7.20108 21.7494 7.57542 21.0583 8.31301C19.9907 9.45375 20.0394 11.0552 20.0505 11.2435V13.751C20.0505 14.3557 20.1834 14.9006 20.4603 15.4189C20.6884 15.8486 21.014 16.2629 21.5124 16.7635C21.6431 16.8964 21.7716 17.016 21.8934 17.1223C21.9111 17.3726 21.9156 17.6761 21.8602 17.9286C21.7915 18.2476 21.6608 18.3428 21.5501 18.3827C21.364 18.4115 21.1735 18.458 20.9764 18.5222C20.9343 18.4425 20.89 18.3605 20.8457 18.2741C20.6973 17.9884 20.5533 17.6871 20.4005 17.3704C19.8202 16.1676 19.1623 14.8054 18.1168 13.7377C17.5343 13.1441 16.8985 12.7033 16.1742 12.3932C15.3856 12.0543 14.4863 11.8793 13.5028 11.8704C13.1617 11.7442 12.9292 11.3964 12.8095 10.8382C12.7364 10.4949 12.7276 10.1626 12.7298 9.98542C13.1506 9.50475 13.4319 9.09719 13.6357 8.67632C13.8949 8.13585 14.0234 7.56439 14.0234 6.93309L14.03 4.65824C14.1031 4.64052 14.1696 4.60286 14.225 4.54749C14.4221 4.35034 14.5749 4.1222 14.679 3.86526C14.7854 3.60832 14.8385 3.33808 14.8385 3.06339C14.8385 2.24383 14.5196 1.47519 13.9414 0.897079C13.3633 0.318968 12.5925 0 11.7751 0H8.68956C7.87 0 7.10136 0.318968 6.52325 0.897079C5.94513 1.47519 5.62617 2.24604 5.62617 3.06339C5.62617 3.34027 5.67933 3.61051 5.78565 3.86526C5.89197 4.12221 6.04481 4.35036 6.23974 4.54749C6.29511 4.60286 6.36156 4.63831 6.43466 4.65824V6.93087C6.43466 7.56218 6.56092 8.13365 6.82229 8.67411C7.02607 9.09497 7.30739 9.50252 7.72827 9.98321C7.73049 10.1604 7.72163 10.4927 7.64854 10.836C7.52671 11.4075 7.28527 11.7575 6.93308 11.8771C6.3328 11.9479 5.74136 12.0321 5.17652 12.1296C4.05789 12.3156 3.02126 12.8783 2.2571 13.7134C1.87611 14.1276 1.57267 14.5972 1.3556 15.1088C1.12966 15.6382 1.00119 16.1942 0.972398 16.7679C0.965752 16.8764 0.963537 16.9916 0.963537 17.1068V26.2415C0.392061 26.5449 0 27.1452 0 27.8363V46.1969C0 47.1915 0.808505 48 1.80306 48H46.1949C47.1894 48 47.9979 47.1915 47.9979 46.1969V27.8363C47.9957 26.9215 47.32 26.1688 46.4451 26.047ZM30.9997 26.0293C31.0218 25.2319 30.982 24.4544 30.8756 23.7146C30.7782 23.0346 30.6275 22.4077 30.4393 21.8827C30.4481 21.8694 30.457 21.8562 30.4658 21.8429C30.4969 21.7964 30.5257 21.7543 30.5522 21.7166C30.8247 21.3157 31.2765 20.7066 31.7594 20.0885C32.2999 19.3997 32.7961 18.806 33.1616 18.414C33.2524 18.5712 33.3587 18.7152 33.4828 18.8503C33.485 18.8526 33.4872 18.8548 33.4894 18.857C33.5138 18.8814 33.5381 18.9079 33.5625 18.9323C33.5869 19.1006 33.6223 19.4329 33.6267 19.8582C33.6312 20.4297 33.5714 21.298 33.2701 22.184C33.0375 22.8729 32.7629 24.7867 32.7031 26.0293L30.9997 26.0293ZM28.0691 26.0293C28.0758 24.9196 28.0603 23.8276 28.0536 23.3757C28.0492 23.1453 27.8609 22.9637 27.6306 22.9659C27.4002 22.9703 27.2186 23.1586 27.2208 23.389C27.2274 23.8386 27.2429 24.9262 27.2363 26.0293H20.7571C20.7527 25.2186 20.7593 24.2639 20.7726 23.389C20.7771 23.1586 20.5932 22.9703 20.3628 22.9659C20.1325 22.9615 19.9442 23.1453 19.9398 23.3757C19.9265 24.2529 19.9198 25.2142 19.9243 26.0293H17.8133C17.7646 24.4921 17.9883 22.988 18.4268 21.9426V21.9404C18.4291 21.9359 18.4313 21.9315 18.4335 21.9271C18.4335 21.9248 18.4357 21.9226 18.4357 21.9226C18.4379 21.9182 18.4424 21.9071 18.4468 21.896C18.4534 21.885 18.4579 21.8717 18.4645 21.8562C18.799 21.1031 19.2796 20.4806 19.86 20.0531C19.8622 20.0509 19.8644 20.0509 19.8666 20.0487C19.9353 19.9977 19.9951 19.9534 20.0527 19.9158C20.3805 19.7009 20.6795 19.5392 20.9609 19.4196C20.9631 19.4196 20.9631 19.4174 20.9653 19.4174C21.127 19.3465 21.2843 19.2911 21.4349 19.2513C21.5545 19.4506 21.7383 19.712 21.9975 19.9645C22.5535 20.505 23.2468 20.7907 24.0022 20.7907C24.7597 20.7907 25.453 20.5027 26.0112 19.9601C26.2682 19.7098 26.452 19.4484 26.5694 19.2535C26.7466 19.3022 26.9393 19.3709 27.1431 19.4639H27.1453C27.1475 19.4639 27.1475 19.4661 27.1498 19.4661C27.4045 19.5813 27.6747 19.7319 27.9561 19.9158C28.0136 19.9534 28.0757 19.9977 28.1421 20.0487C28.1443 20.0509 28.1465 20.0509 28.1488 20.0531C28.7291 20.4806 29.2142 21.1053 29.5464 21.8606C29.5641 21.9005 29.5797 21.9381 29.5929 21.9736C29.5952 21.9758 29.5952 21.978 29.5952 21.9802C29.5974 21.9824 29.5974 21.9846 29.5974 21.9869C30.0116 23.008 30.222 24.4965 30.1777 26.0293L28.0691 26.0293ZM15.9461 26.0293C15.935 24.9971 15.9793 23.6304 16.0214 22.4099C16.0591 21.3024 16.0923 20.2569 16.079 19.6323L16.0746 19.3266C16.2252 19.5769 16.3869 19.8604 16.5552 20.1528C16.8698 20.7021 17.1954 21.2714 17.4922 21.7078C17.5188 21.7454 17.5476 21.7875 17.5764 21.8318C17.3748 22.3634 17.2175 22.9947 17.1156 23.6725C17.0004 24.4256 16.9561 25.2164 16.9827 26.0271L15.9461 26.0293ZM28.749 17.7384L30.8777 19.8671C30.5565 20.2857 30.2619 20.68 30.0338 21.0034C29.6661 20.3478 29.1876 19.7962 28.6338 19.3886C28.5519 19.3266 28.4743 19.2712 28.4012 19.2225C28.2395 19.1162 28.08 19.0187 27.9206 18.9323C28.0911 18.6798 28.2506 18.4472 28.3901 18.2412C28.5053 18.0751 28.6228 17.909 28.749 17.7384ZM34.0541 22.4521C34.4351 21.3334 34.4794 20.2525 34.4484 19.5326C34.7496 19.6545 35.0708 19.7187 35.3964 19.7187H40.2341C40.5597 19.7187 40.8809 19.6545 41.1821 19.5326C41.1799 19.5947 41.1777 19.6589 41.1755 19.7254C41.1733 19.7409 41.1711 19.7586 41.1711 19.7763C41.1711 19.7896 41.1733 19.8007 41.1733 19.8117C41.1622 20.4652 41.2264 21.442 41.5698 22.4543C41.7581 23.0125 42.0305 24.8266 42.0925 26.0338H33.5312C33.5954 24.8222 33.8658 23.0081 34.0541 22.4521ZM42.9274 26.0294C42.8675 24.7867 42.5907 22.8729 42.3581 22.1841C42.11 21.4553 42.0258 20.7443 42.0081 20.1883H44.7858C44.7747 21.5483 45.1889 23.8099 45.5876 26.0052C45.5899 26.014 45.5921 26.0229 45.5921 26.0295L42.9274 26.0294ZM31.3447 7.15046C32.1 6.23785 32.3437 5.13476 32.5475 3.28741C32.6427 2.4324 33.4225 1.84097 34.0582 1.49541C34.8534 1.06347 35.7682 0.83751 36.2622 0.83751L39.3655 0.835295C39.8594 0.835295 40.7743 1.06123 41.5694 1.49319C42.2074 1.84095 42.9849 2.43234 43.0801 3.28741C43.2861 5.13254 43.5276 6.23563 44.2829 7.14603C44.7636 7.72857 45.1579 8.99338 44.2785 10.0898C43.8067 10.6813 43.4567 11.1354 43.244 11.6005C43.1222 11.8663 43.0425 12.1366 42.9982 12.4489C42.7479 12.3005 42.4843 12.1787 42.2074 12.0834C41.6847 11.9062 41.2594 11.873 41.0888 11.8663C40.7499 11.7379 40.5195 11.3901 40.3999 10.8363C40.3268 10.4908 40.318 10.1585 40.3202 9.98134C40.7388 9.50288 41.0224 9.09531 41.224 8.67224C41.4831 8.13177 41.6094 7.5603 41.6094 6.929V4.25988C41.6094 3.7482 41.3857 3.45359 41.1974 3.29634C40.6946 2.87548 39.9481 2.99288 39.8639 3.00617C39.7332 3.02832 39.6225 3.11249 39.5627 3.22989C39.4165 3.52227 39.1241 3.78365 38.7542 3.94976C38.289 4.16019 37.7308 4.20449 37.1416 4.08045H37.1394C35.498 3.73712 34.2465 4.5589 34.1956 4.59434C34.0804 4.67187 34.0117 4.80034 34.0117 4.9399V6.93122C34.0117 7.56473 34.138 8.134 34.3993 8.67445C34.6031 9.09531 34.8844 9.50286 35.3053 9.98134C35.3075 10.1585 35.2987 10.4908 35.2256 10.8363C35.106 11.3968 34.8712 11.7445 34.53 11.8708C33.8168 11.8885 33.1633 12.1587 32.6317 12.4777C32.5896 12.1543 32.5099 11.8774 32.3858 11.6071C32.171 11.1331 31.8188 10.679 31.3448 10.0876C30.4676 8.99115 30.8641 7.73084 31.3447 7.15046ZM39.5982 9.54496C38.8185 10.411 38.3866 10.5683 37.8129 10.5683C37.2392 10.5683 36.8051 10.4088 36.0276 9.54275C35.2988 8.73424 34.847 8.01658 34.847 6.93339V5.18573C34.9644 5.12593 35.1327 5.05283 35.3409 4.98638C35.888 4.81582 36.4374 4.78481 36.9734 4.89778C37.7354 5.05726 38.4708 4.99303 39.0976 4.71172C39.5539 4.50572 39.9394 4.18675 40.1853 3.81464C40.3425 3.81242 40.5441 3.83679 40.6637 3.93646C40.7124 3.97633 40.7767 4.05608 40.7767 4.26208V6.93562C40.7767 8.02102 40.3269 8.73866 39.5982 9.54496ZM36.0453 10.9958C36.0608 10.9183 36.0741 10.8408 36.0851 10.7655C36.2513 10.9006 36.4085 11.0113 36.5702 11.0999C36.9446 11.3059 37.3411 11.4034 37.8129 11.4034C38.2847 11.4034 38.6789 11.3059 39.0555 11.0999C39.215 11.0113 39.3745 10.9028 39.5406 10.7677C39.5517 10.843 39.565 10.9205 39.5805 10.998C39.74 11.7556 40.0611 12.1898 40.3978 12.4378C40.0213 12.8742 39.2017 13.5631 37.8129 13.5631C36.9755 13.5631 36.2446 13.3172 35.6443 12.8343C35.4716 12.697 35.3342 12.5574 35.2301 12.4356C35.5646 12.1875 35.888 11.7512 36.0453 10.9958ZM31.8566 14.1943C31.8677 14.1855 31.8765 14.1744 31.8854 14.1655C31.8876 14.1633 32.1291 13.8909 32.5167 13.5785C32.9708 13.2153 33.6486 12.79 34.3929 12.7169C34.528 12.903 34.7561 13.1821 35.0884 13.4545C35.4229 13.727 35.7928 13.9463 36.1959 14.1013C36.6943 14.2962 37.2392 14.3937 37.8129 14.3937C38.3867 14.3937 38.9315 14.294 39.4299 14.1013C39.8309 13.944 40.2052 13.727 40.5374 13.4545C40.8719 13.1821 41.0979 12.903 41.233 12.7169C41.4035 12.7368 41.6649 12.7811 41.9662 12.8875C42.6662 13.1355 43.2465 13.583 43.6917 14.2187C44.6132 15.5345 44.972 17.1337 44.8347 19.3554H42.0216C42.0349 19.1716 42.0504 19.0276 42.0637 18.9324C42.0903 18.9058 42.1191 18.877 42.1434 18.8482C42.4801 18.4783 42.706 18.0153 42.7946 17.5081C42.881 17.0185 42.8389 16.5069 42.6728 16.0306C42.6706 16.0284 42.6706 16.0262 42.6706 16.024L42.613 15.8623C42.5355 15.6452 42.2962 15.5344 42.0792 15.612C41.8621 15.6895 41.7513 15.9287 41.8289 16.1458L41.8864 16.3031C42.1323 17.0141 41.9928 17.7739 41.5254 18.2855C41.5232 18.2878 41.5232 18.2878 41.5232 18.2878C41.4833 18.3321 41.439 18.3764 41.3925 18.4184L41.3903 18.4207L41.3881 18.4229C41.058 18.7241 40.6571 18.8836 40.2274 18.8836L35.3963 18.8858C34.9688 18.8858 34.5657 18.7263 34.2334 18.4251C34.2312 18.4229 34.229 18.4229 34.229 18.4207C34.1869 18.383 34.1426 18.3365 34.0961 18.2878C33.9145 18.0884 33.7838 17.8492 33.7062 17.5767C33.7062 17.5745 33.7062 17.5745 33.704 17.5745C33.7018 17.5701 33.7018 17.5679 33.7018 17.5657C33.5822 17.1669 33.5955 16.7173 33.7395 16.3031L33.7949 16.1414C33.8702 15.9243 33.755 15.6873 33.5379 15.612C33.3208 15.5366 33.0838 15.6518 33.0085 15.8689L32.9531 16.0284C32.7826 16.5223 32.7449 17.0517 32.8424 17.5479C32.4038 17.9732 31.8058 18.6953 31.3959 19.207L29.2584 17.0695C30.5476 15.4326 31.8433 14.2054 31.8566 14.1943ZM21.6763 8.87601C22.2035 8.31781 22.9832 8.03427 23.9954 8.03427C25.0077 8.03427 25.7896 8.3178 26.3146 8.87601C26.6955 9.28136 26.8949 9.77751 26.9968 10.2073C26.1927 10.1741 25.701 10.0655 25.4086 9.96362C25.4994 9.89052 25.5902 9.813 25.681 9.73104C25.8516 9.57598 25.8649 9.3146 25.712 9.14402C25.557 8.97346 25.2956 8.96017 25.125 9.11301C24.9301 9.288 24.713 9.46077 24.4738 9.61583C24.4539 9.6269 24.434 9.64019 24.414 9.65349C23.548 10.194 22.4094 10.493 21.0958 9.85506C21.2177 9.51837 21.3972 9.17286 21.6763 8.87601ZM20.89 13.7514V11.2329C20.89 11.2218 20.89 11.2151 20.8877 11.2063C20.8877 11.1996 20.8767 10.9936 20.9121 10.6879C21.4659 10.9338 22.0263 11.0556 22.5867 11.0556C22.8968 11.0556 23.2069 11.018 23.5148 10.9427C23.8913 10.8519 24.259 10.7035 24.6201 10.5041C24.7131 10.5683 24.8349 10.6326 24.9856 10.6968C25.4884 10.905 26.2016 11.0224 27.1076 11.049C27.1098 11.142 27.1054 11.2018 27.1054 11.2085C27.1032 11.2196 27.1032 11.2262 27.1032 11.2351V13.7536C27.1032 14.7548 26.638 15.4237 25.8849 16.179C25.7276 16.3363 25.5836 16.4692 25.4507 16.58C25.433 16.5932 25.4175 16.6043 25.402 16.6198C24.8615 17.0584 24.4739 17.1514 23.9954 17.1514C23.5148 17.1514 23.1272 17.0584 22.5867 16.6198C22.5711 16.6043 22.5534 16.591 22.5357 16.5777C22.4028 16.467 22.261 16.3341 22.106 16.179C21.3551 15.4193 20.89 14.7503 20.89 13.7514ZM23.9977 17.9777C24.4673 17.9777 24.8638 17.8979 25.2581 17.703C25.2669 17.8359 25.2847 17.971 25.3135 18.1017C25.4021 18.5115 25.5815 18.7751 25.7786 18.9434C25.6944 19.0697 25.577 19.2203 25.4264 19.3665C25.0211 19.7608 24.5426 19.9624 23.9977 19.9624C23.0519 19.9624 22.487 19.3466 22.2168 18.9434C22.414 18.7751 22.5912 18.5115 22.6798 18.1017C22.7086 17.971 22.7241 17.8359 22.7352 17.7008C23.1272 17.8979 23.5258 17.9777 23.9977 17.9777ZM8.68951 0.831102H11.7751C13.0067 0.831102 14.0079 1.83229 14.0079 3.06388C14.0079 3.34076 13.9215 3.60213 13.7576 3.8214C13.474 3.79482 12.938 3.74166 12.3731 3.66857C11.1128 3.50465 10.7008 3.37396 10.5789 3.3208C10.5036 3.20783 10.3774 3.13474 10.2312 3.13474H10.229C10.0828 3.13474 9.9565 3.20784 9.88119 3.3208C9.75936 3.37175 9.34736 3.50465 8.09146 3.66635C7.52883 3.73945 6.99058 3.79261 6.70484 3.82141C6.54314 3.60433 6.45454 3.34074 6.45454 3.06388C6.45675 1.8323 7.45793 0.831102 8.68951 0.831102ZM7.26525 4.6011C7.60193 4.56566 8.02056 4.51915 8.43701 4.46156C8.98634 4.38624 9.42935 4.3065 9.74832 4.23119C9.9521 4.18024 10.1094 4.13151 10.229 4.07835C10.3486 4.13151 10.5059 4.18025 10.7097 4.23119C11.0286 4.30872 11.4717 4.38624 12.021 4.46156C12.4374 4.51915 12.8583 4.56788 13.1927 4.6011L13.1949 6.92914C13.1949 8.01006 12.7431 8.72999 12.0165 9.5385C11.2368 10.4046 10.8049 10.5619 10.2312 10.5619C9.65976 10.5619 9.22562 10.4046 8.45035 9.54292C8.44813 9.5407 8.44592 9.53849 8.44592 9.53627C7.71941 8.72777 7.26752 8.0101 7.26752 6.92692L7.26525 4.6011ZM8.4636 10.9918C8.4791 10.9143 8.4924 10.8367 8.50347 10.7614C9.06167 11.2199 9.57112 11.3972 10.229 11.3972C10.8869 11.3972 11.3963 11.2199 11.9546 10.7614C11.9656 10.8367 11.9789 10.9143 11.9944 10.9918C12.1539 11.7493 12.4751 12.1835 12.8118 12.4316C12.7077 12.5512 12.5703 12.6908 12.3976 12.8303C11.7951 13.3132 11.0641 13.5591 10.229 13.5591C9.39173 13.5591 8.6608 13.3132 8.06051 12.8303C7.88774 12.693 7.7504 12.5534 7.6463 12.4316C7.98298 12.1813 8.30414 11.7472 8.4636 10.9918ZM1.79392 17.1052C1.79392 17.0055 1.79613 16.9058 1.80278 16.8106V16.8084C1.89359 14.8968 3.37102 13.2754 5.31142 12.952H5.31363C5.80095 12.8678 6.30598 12.7947 6.82211 12.7305C6.95723 12.9165 7.18317 13.1868 7.50654 13.4525C7.84102 13.725 8.21094 13.9443 8.61406 14.0993C9.11245 14.2943 9.65732 14.3917 10.2311 14.3917C10.8048 14.3917 11.3497 14.292 11.8481 14.0993C12.249 13.9421 12.6234 13.725 12.9556 13.4525C13.2945 13.1757 13.5249 12.8944 13.6578 12.7061C17.2794 12.8102 18.542 15.4218 19.6561 17.7343C19.8133 18.0577 19.9595 18.3656 20.1124 18.6601C20.1124 18.6624 20.1146 18.6624 20.1146 18.6624C20.15 18.7288 20.1832 18.793 20.2187 18.8573C20.0193 18.9614 19.8133 19.0832 19.5962 19.225C19.5231 19.2737 19.4456 19.3269 19.3637 19.3889C18.8232 19.7876 18.358 20.3192 17.9947 20.9527C17.7666 20.5895 17.5185 20.1597 17.2793 19.7411C17.0046 19.2604 16.7432 18.8064 16.5128 18.4542C16.3423 18.195 16.0277 18.0798 15.7309 18.1684C15.4319 18.2592 15.2348 18.5295 15.2392 18.8396V18.8418L15.2503 19.6459V19.6503C15.2636 20.2506 15.2281 21.2872 15.1927 22.3837C15.1528 23.6086 15.1063 24.9797 15.1174 26.0319H5.32889C5.33332 24.6741 5.27351 23.1766 5.21813 21.7258C5.17162 20.5164 5.12732 19.3734 5.12732 18.4674C5.12732 18.2371 4.94125 18.051 4.71088 18.051C4.48051 18.051 4.29445 18.2371 4.29445 18.4674C4.29445 19.3889 4.33875 20.5385 4.38527 21.7568C4.44065 23.1988 4.49824 24.6873 4.49381 26.0297L1.80252 26.0252H1.79366L1.79392 17.1052ZM47.165 46.1934C47.165 46.7294 46.7286 47.1635 46.1948 47.1635L1.80304 47.1657C1.267 47.1657 0.832872 46.7294 0.832872 46.1956V27.8349C0.832872 27.2989 1.26924 26.8648 1.80304 26.8648H33.1016H33.1038H42.522H42.5242H46.0882H46.0927H46.0971H46.1946C46.7306 26.8648 47.1647 27.3011 47.1647 27.8349L47.165 46.1934Z" fill="#003781"/>
<path d="M44.668 34.7539C44.4377 34.7539 44.2516 34.94 44.2516 35.1703V44.1213C44.2516 44.1966 44.1874 44.2586 44.1143 44.2586H32.184C31.9536 44.2586 31.7676 44.4447 31.7676 44.675C31.7676 44.9054 31.9536 45.0915 32.184 45.0915H44.112C44.648 45.0915 45.0822 44.6551 45.0822 44.1213V35.1704C45.0844 34.94 44.8962 34.7539 44.668 34.7539Z" fill="#003781"/>
<path d="M44.1181 28.9414H34.9653C34.7349 28.9414 34.5488 29.1275 34.5488 29.3578C34.5488 29.5882 34.7349 29.7743 34.9653 29.7743H44.1181C44.1934 29.7743 44.2554 29.8385 44.2554 29.9116V31.471C44.2554 31.7014 44.4415 31.8874 44.6718 31.8874C44.9022 31.8874 45.0883 31.7014 45.0883 31.471V29.9116C45.0905 29.3756 44.6541 28.9414 44.1181 28.9414Z" fill="#003781"/>
<path d="M16.229 29.3578C16.229 29.1275 16.0429 28.9414 15.8125 28.9414H3.88228C3.34624 28.9414 2.91211 29.3778 2.91211 29.9116V38.8625C2.91211 39.0929 3.09817 39.2789 3.32854 39.2789C3.55891 39.2789 3.74497 39.0929 3.74497 38.8625V29.9116C3.74497 29.8363 3.80921 29.7742 3.88231 29.7742H15.8126C16.0429 29.7742 16.229 29.5882 16.229 29.3578Z" fill="#003781"/>
<path d="M13.0374 44.2557H3.88231C3.807 44.2557 3.74498 44.1915 3.74498 44.1184V42.559C3.74498 42.3286 3.55891 42.1426 3.32854 42.1426C3.09817 42.1426 2.91211 42.3286 2.91211 42.559V44.1184C2.91211 44.6545 3.34847 45.0886 3.88228 45.0886H13.0374C13.2677 45.0886 13.4538 44.9025 13.4538 44.6721C13.4538 44.4418 13.2678 44.2557 13.0374 44.2557Z" fill="#003781"/>
<path d="M31.4325 33.8743C31.0249 32.913 30.4446 32.0491 29.7025 31.3071C28.9605 30.5651 28.0988 29.9825 27.1353 29.5771C26.1385 29.1563 25.0819 28.9414 23.9921 28.9414C22.9023 28.9414 21.8457 29.1541 20.8489 29.5771C19.8876 29.9847 19.0237 30.5651 18.2817 31.3071C17.5397 32.0491 16.9571 32.9108 16.5517 33.8743C16.1309 34.8711 15.916 35.9277 15.916 37.0175C15.916 38.1073 16.1287 39.1639 16.5517 40.1607C16.9593 41.122 17.5397 41.9859 18.2817 42.7279C19.0238 43.4699 19.8854 44.0525 20.8489 44.4579C21.8457 44.8787 22.9023 45.0936 23.9921 45.0936C25.0819 45.0936 26.1385 44.8809 27.1353 44.4579C28.0966 44.0503 28.9605 43.4699 29.7025 42.7279C30.4446 41.9859 31.0271 41.1242 31.4325 40.1607C31.8533 39.1639 32.0682 38.1073 32.0682 37.0175C32.066 35.9277 31.8533 34.8689 31.4325 33.8743ZM23.9922 44.2582C19.9984 44.2582 16.7509 41.0109 16.7509 37.0169C16.7509 33.0229 19.9982 29.7757 23.9922 29.7757C27.9861 29.7757 31.2334 33.0229 31.2334 37.0169C31.2334 41.0085 27.9861 44.2582 23.9922 44.2582Z" fill="#003781"/>
<path d="M24.3981 36.4369C23.3194 35.9895 22.8586 35.6661 22.8586 35.0215C22.8586 34.5253 23.2175 33.9539 24.1744 33.9539C24.9695 33.9539 25.479 34.2263 25.7404 34.3747L26.0505 33.5552C25.6917 33.3447 25.18 33.1454 24.4357 33.121V31.916H23.6649V33.1697C22.5219 33.3558 21.7887 34.1377 21.7887 35.1699C21.7887 36.2508 22.5706 36.8201 23.8376 37.3185C24.7569 37.6906 25.2398 38.1137 25.2398 38.796C25.2398 39.5026 24.6439 40.012 23.7623 40.012C23.0668 40.012 22.42 39.7772 21.9748 39.4782L21.6758 40.3111C22.1099 40.6212 22.8542 40.8449 23.5763 40.8582V42.1119H24.3582V40.8205C25.6385 40.6101 26.3207 39.6909 26.3207 38.7096C26.323 37.6043 25.6762 36.9597 24.3981 36.4369Z" fill="#003781"/>
</svg>
