<svg width="40" height="40" viewBox="0 0 40 40" fill="none" xmlns="http://www.w3.org/2000/svg">
<path d="M14.1939 30.971V32.2613H15.4842V30.971C16.9075 30.971 18.0649 29.8136 18.0649 28.3904C18.0649 26.9671 16.9075 25.8097 15.4842 25.8097H14.1939C13.4823 25.8097 12.9036 25.231 12.9036 24.5194C12.9036 23.8078 13.4823 23.2291 14.1939 23.2291H15.4842C16.1959 23.2291 16.7746 23.8078 16.7746 24.5194H18.0649C18.0649 23.0962 16.9075 21.9388 15.4842 21.9388V20.6484H14.1939V21.9388C12.7707 21.9388 11.6133 23.0962 11.6133 24.5194C11.6133 25.9426 12.7707 27.1001 14.1939 27.1001H15.4842C16.1959 27.1001 16.7746 27.6788 16.7746 28.3904C16.7746 29.102 16.1959 29.6807 15.4842 29.6807H14.1939C13.4823 29.6807 12.9036 29.102 12.9036 28.3904V27.7452H11.6133V28.3904C11.6133 29.8136 12.7707 30.971 14.1939 30.971Z" fill="#003781"/>
<path d="M38.0645 14.8387H37.4194V1.29032H36.129L28.289 2.20968C27.9684 0.943871 26.829 0 25.4652 0H2.92194C1.31097 0 0 1.31097 0 2.92194V37.0774C0 38.689 1.31097 40 2.92194 40H25.4645C26.8277 40 27.9671 39.0568 28.2877 37.7916L36.0529 38.7052L37.4194 38.7097V25.1613H38.0645C39.1316 25.1613 40 24.2929 40 23.2258V16.7742C40 15.7071 39.1316 14.8387 38.0645 14.8387ZM25.4652 38.7097H2.92194C2.02258 38.7097 1.29032 37.9774 1.29032 37.0781V2.92194C1.29032 2.02258 2.02258 1.29032 2.92194 1.29032H25.4645C26.1665 1.29032 26.7613 1.73871 26.991 2.36194L25.1232 2.58065H3.87097C3.15935 2.58065 2.58065 3.15935 2.58065 3.87097V36.129C2.58065 36.8406 3.15935 37.4194 3.87097 37.4194H25.1213L26.991 37.6394C26.7613 38.2619 26.1665 38.7097 25.4652 38.7097ZM24.5161 36.129H3.87097V21.9355H5.80645C6.48774 21.9355 7.08516 21.58 7.42968 21.0465L8.57032 21.8871L8.38516 22.0955C7.13806 23.4981 6.45161 25.3045 6.45161 27.1819C6.45161 31.4039 9.88645 34.8387 14.1084 34.8387H15.569C19.791 34.8387 23.2258 31.4039 23.2258 27.1819C23.2258 25.7194 22.8013 24.2994 22.0258 23.0787C22.729 22.789 23.2258 22.0974 23.2258 21.2903C23.2258 20.7929 23.0316 20.3432 22.7226 20C23.0323 19.6568 23.2258 19.2071 23.2258 18.7097C23.2258 18.2123 23.0316 17.7626 22.7226 17.4194C23.0323 17.0761 23.2258 16.6265 23.2258 16.129C23.2258 15.6316 23.0316 15.1819 22.7226 14.8387C23.0323 14.4955 23.2258 14.0458 23.2258 13.5484C23.2258 12.4813 22.3574 11.6129 21.2903 11.6129H20.6452C20.6452 10.9013 20.0665 10.3226 19.3548 10.3226H19.3252L20.6303 6.86194L20.2297 6.57355C18.9497 5.64968 17.4387 5.16129 15.86 5.16129H15.0471L14.1277 7.45871L13.3019 5.80645H12.3626C10.8639 5.80645 9.53871 6.76129 9.06516 8.18387L8.98129 8.43677L10.1516 10.789C9.97484 10.8761 9.80064 10.971 9.63484 11.0819L7.44968 12.5387C7.10839 11.9852 6.50258 11.6129 5.80645 11.6129H3.87097V3.87097H24.5161V36.129ZM3.87097 12.9032H5.80645C6.16258 12.9032 6.45161 13.1923 6.45161 13.5484V20C6.45161 20.3561 6.16258 20.6452 5.80645 20.6452H3.87097V12.9032ZM10.3832 8.35613C10.7387 7.59419 11.5052 7.09677 12.3626 7.09677H12.5045L14.1174 10.3226H12.14C11.8884 10.3226 11.64 10.3484 11.3948 10.3897L10.3832 8.35613ZM17.9465 10.3226H14.3723L15.92 6.45161C17.0406 6.46258 18.1181 6.77097 19.0671 7.34903L17.9465 10.3226ZM12.1394 11.6129H19.3548C19.3548 12.3245 18.7761 12.9032 18.0645 12.9032H14.5716L13.5813 13.8935C12.9716 14.5026 12.1619 14.8387 11.3 14.8387H9.67742V16.129H11.1742L11.571 18.5116L9.43097 20.9194L7.74194 19.6742V13.8935L10.3503 12.1548C10.8819 11.8 11.5006 11.6129 12.1394 11.6129ZM20.2865 12.9032H21.2903C21.6465 12.9032 21.9355 13.1923 21.9355 13.5484C21.9355 13.9045 21.6465 14.1935 21.2903 14.1935H18.0645C19.0155 14.1935 19.8387 13.671 20.2865 12.9032ZM21.9355 21.2903C21.9355 21.6465 21.6465 21.9355 21.2903 21.9355H19.3548C18.9987 21.9355 18.7097 21.6465 18.7097 21.2903C18.7097 20.9342 18.9987 20.6452 19.3548 20.6452H21.2903C21.6465 20.6452 21.9355 20.9342 21.9355 21.2903ZM9.34968 22.9523L12.5477 19.3548H16.2477C16.4594 19.9477 16.9484 20.4045 17.5613 20.5703C17.4716 20.7935 17.4194 21.0355 17.4194 21.2903C17.4194 22.3574 18.2877 23.2258 19.3548 23.2258H20.5484C21.4413 24.3497 21.9355 25.7413 21.9355 27.1819C21.9355 30.6923 19.0794 33.5484 15.569 33.5484H14.1084C10.5981 33.5484 7.74194 30.6923 7.74194 27.1819C7.74194 25.6213 8.3129 24.1194 9.34968 22.9523ZM21.9355 16.129C21.9355 16.4852 21.6465 16.7742 21.2903 16.7742H18.0645C17.7084 16.7742 17.4194 16.4852 17.4194 16.129C17.4194 15.7729 17.7084 15.4839 18.0645 15.4839H21.2903C21.6465 15.4839 21.9355 15.7729 21.9355 16.129ZM21.9355 18.7097C21.9355 19.0658 21.6465 19.3548 21.2903 19.3548H19.3548H18.0645C17.7084 19.3548 17.4194 19.0658 17.4194 18.7097C17.4194 18.3535 17.7084 18.0645 18.0645 18.0645H21.2903C21.6465 18.0645 21.9355 18.3535 21.9355 18.7097ZM16.2477 14.1935C16.3335 14.4348 16.4639 14.6523 16.6323 14.8387C16.3226 15.1819 16.129 15.6316 16.129 16.129C16.129 16.6265 16.3232 17.0761 16.6323 17.4194C16.4639 17.6058 16.3335 17.8232 16.2477 18.0645H12.8045L12.4568 15.9748C13.22 15.7735 13.9206 15.3787 14.4935 14.8058L15.1058 14.1935H16.2477ZM36.129 37.4148L25.8064 36.2V3.8L36.129 2.58516V37.4148ZM38.7097 23.2258C38.7097 23.5819 38.4206 23.871 38.0645 23.871H37.4194V16.129H38.0645C38.4206 16.129 38.7097 16.4181 38.7097 16.7742V23.2258Z" fill="#003781"/>
<path d="M34.8392 29.6777H33.5488V30.9681H34.8392V29.6777Z" fill="#003781"/>
<path d="M34.8392 32.2559H33.5488V33.5462H34.8392V32.2559Z" fill="#003781"/>
<path d="M34.8392 27.0996H33.5488V28.3899H34.8392V27.0996Z" fill="#003781"/>
<path d="M34.8392 34.8379H33.5488V36.1282H34.8392V34.8379Z" fill="#003781"/>
</svg>
