<svg width="46" height="46" viewBox="0 0 46 46" fill="none" xmlns="http://www.w3.org/2000/svg">
<path d="M43.9104 19.0898H36.0365V7.05067C36.0365 6.90545 35.9859 6.76748 35.8774 6.65856L29.4062 0.159747C29.2977 0.0508287 29.1603 0 29.0157 0H2.58126C1.15687 0 0 1.1618 0 2.59227V40.4742C0 41.9047 1.1641 43.0737 2.58849 43.0737H25.4728V43.9088C25.4728 45.0633 26.4055 46 27.5552 46H43.9176C45.0673 46 46 45.0633 46 43.9088V21.1738C45.9928 20.0265 45.06 19.0898 43.9104 19.0898ZM29.5652 1.85162L34.1927 6.49156H31.2644C30.3317 6.49156 29.5652 5.72912 29.5652 4.78516V1.85162ZM2.58126 41.9845C1.74976 41.9845 1.07733 41.3092 1.07733 40.4742V2.59227C1.07733 1.76448 1.74976 1.08919 2.57403 1.08919H28.4734V4.79242C28.4734 6.33181 29.7243 7.588 31.2572 7.588H34.9447V19.0898H27.5479C26.3983 19.0898 25.4656 20.0265 25.4656 21.1811V41.9918H2.58126V41.9845ZM44.9082 43.9088C44.9082 44.4606 44.4599 44.9108 43.9104 44.9108H27.5479C26.9984 44.9108 26.5501 44.4606 26.5501 43.9088V21.1738C26.5501 20.6219 26.9984 20.1717 27.5479 20.1717H43.9104C44.4599 20.1717 44.9082 20.6219 44.9082 21.1738V43.9088Z" fill="#003781"/>
<path d="M42.4528 22H29.5472C29.248 22 29 22.2677 29 22.5906V28.4094C29 28.7323 29.248 29 29.5472 29H42.4528C42.752 29 43 28.7323 43 28.4094V22.5906C43 22.2598 42.7592 22 42.4528 22ZM41.9057 27.8189H30.0943V23.1811H41.9057V27.8189Z" fill="#003781"/>
<path d="M31.4016 31H29.5984C29.2713 31 29 31.2267 29 31.5C29 31.7733 29.2713 32 29.5984 32H31.4016C31.7287 32 32 31.7733 32 31.5C32 31.2267 31.7287 31 31.4016 31Z" fill="#003781"/>
<path d="M36.4016 31H34.5984C34.2713 31 34 31.2267 34 31.5C34 31.7733 34.2713 32 34.5984 32H36.4016C36.7287 32 37 31.7733 37 31.5C37 31.2267 36.7287 31 36.4016 31Z" fill="#003781"/>
<path d="M42.4016 31H40.5984C40.2713 31 40 31.2267 40 31.5C40 31.7733 40.2713 32 40.5984 32H42.4016C42.7287 32 43 31.7733 43 31.5C43 31.2267 42.7367 31 42.4016 31Z" fill="#003781"/>
<path d="M31.4016 35H29.5984C29.2713 35 29 35.2267 29 35.5C29 35.7733 29.2713 36 29.5984 36H31.4016C31.7287 36 32 35.7733 32 35.5C32 35.2267 31.7287 35 31.4016 35Z" fill="#003781"/>
<path d="M36.4016 35H34.5984C34.2713 35 34 35.2267 34 35.5C34 35.7733 34.2713 36 34.5984 36H36.4016C36.7287 36 37 35.7733 37 35.5C37 35.2267 36.7287 35 36.4016 35Z" fill="#003781"/>
<path d="M42.4016 35H40.5984C40.2713 35 40 35.2267 40 35.5C40 35.7733 40.2713 36 40.5984 36H42.4016C42.7287 36 43 35.7733 43 35.5C43 35.2267 42.7367 35 42.4016 35Z" fill="#003781"/>
<path d="M31.4016 38H29.5984C29.2713 38 29 38.2267 29 38.5C29 38.7733 29.2713 39 29.5984 39H31.4016C31.7287 39 32 38.7733 32 38.5C32 38.2267 31.7287 38 31.4016 38Z" fill="#003781"/>
<path d="M36.4016 38H34.5984C34.2713 38 34 38.2267 34 38.5C34 38.7733 34.2713 39 34.5984 39H36.4016C36.7287 39 37 38.7733 37 38.5C37 38.2267 36.7287 38 36.4016 38Z" fill="#003781"/>
<path d="M42.4016 38H40.5984C40.2713 38 40 38.2267 40 38.5C40 38.7733 40.2713 39 40.5984 39H42.4016C42.7287 39 43 38.7733 43 38.5C43 38.2267 42.7367 38 42.4016 38Z" fill="#003781"/>
<path d="M31.4016 41H29.5984C29.2713 41 29 41.4533 29 42C29 42.5467 29.2713 43 29.5984 43H31.4016C31.7287 43 32 42.5467 32 42C32 41.4533 31.7287 41 31.4016 41Z" fill="#003781"/>
<path d="M36.4016 41H34.5984C34.2713 41 34 41.4533 34 42C34 42.5467 34.2713 43 34.5984 43H36.4016C36.7287 43 37 42.5467 37 42C37 41.4533 36.7287 41 36.4016 41Z" fill="#003781"/>
<path d="M42.4016 41H40.5984C40.2713 41 40 41.4533 40 42C40 42.5467 40.2713 43 40.5984 43H42.4016C42.7287 43 43 42.5467 43 42C43 41.4533 42.7367 41 42.4016 41Z" fill="#003781"/>
<path d="M12.5 20C17.1849 20 21 16.4077 21 11.9966C21 7.58538 17.1922 4 12.5 4C7.81513 4 4 7.59226 4 12.0034C4 16.4146 7.81513 20 12.5 20ZM12.5 5.03226C16.5782 5.03226 19.9037 8.15656 19.9037 12.0034C19.9037 15.8503 16.5856 18.9746 12.5 18.9746C8.42175 18.9746 5.0963 15.8503 5.0963 12.0034C5.0963 8.15656 8.42175 5.03226 12.5 5.03226Z" fill="#003781"/>
<path d="M12 15.8656C11.0301 15.8656 10.2329 15.1286 10.2329 14.215C10.2329 13.9002 9.95342 13.6392 9.61644 13.6392C9.27945 13.6392 9 13.9002 9 14.215C9 15.5585 10.0192 16.6871 11.3836 16.9559V17.4242C11.3836 17.739 11.663 18 12 18C12.337 18 12.6164 17.739 12.6164 17.4242V16.9559C13.9726 16.6871 15 15.5662 15 14.215C15 12.6718 13.6521 11.4127 12 11.4127C11.0301 11.4127 10.2329 10.6756 10.2329 9.762C10.2329 8.84837 11.0219 8.11132 12 8.11132C12.9699 8.11132 13.7671 8.84837 13.7671 9.762C13.7671 10.0768 14.0466 10.3378 14.3836 10.3378C14.7205 10.3378 15 10.0768 15 9.762C15 8.41843 13.9808 7.28983 12.6164 7.02111V6.57582C12.6164 6.26104 12.337 6 12 6C11.663 6 11.3836 6.26104 11.3836 6.57582V7.02111C10.0274 7.28983 9 8.41075 9 9.762C9 11.3052 10.3479 12.5643 12 12.5643C12.9699 12.5643 13.7671 13.3013 13.7671 14.215C13.7671 15.1286 12.9781 15.8656 12 15.8656Z" fill="#003781"/>
<path d="M21.437 24H4.55556C4.25185 24 4 24.2267 4 24.5C4 24.7733 4.25185 25 4.55556 25H21.4444C21.7481 25 22 24.7733 22 24.5C22 24.2267 21.7481 24 21.437 24Z" fill="#003781"/>
<path d="M21.437 28H4.55556C4.25185 28 4 28.2267 4 28.5C4 28.7733 4.25185 29 4.55556 29H21.4444C21.7481 29 22 28.7733 22 28.5C22 28.2267 21.7481 28 21.437 28Z" fill="#003781"/>
<path d="M21.437 32H4.55556C4.25185 32 4 32.2267 4 32.5C4 32.7733 4.25185 33 4.55556 33H21.4444C21.7481 33 22 32.7733 22 32.5C22 32.2267 21.7481 32 21.437 32Z" fill="#003781"/>
</svg>
