<svg width="34" height="46" viewBox="0 0 34 46" fill="none" xmlns="http://www.w3.org/2000/svg">
<path d="M15.1388 12.7151C18.6444 12.7151 21.4964 9.8632 21.4964 6.35756C21.4964 2.85191 18.6444 0 15.1388 0C11.6332 0 8.78125 2.85191 8.78125 6.35756C8.78125 9.8632 11.6332 12.7151 15.1388 12.7151ZM15.1388 1.09544C18.0404 1.09544 20.4009 3.45594 20.4009 6.35756C20.4009 9.25917 18.0404 11.6197 15.1388 11.6197C12.2372 11.6197 9.87669 9.25917 9.87669 6.35756C9.87669 3.45594 12.2372 1.09544 15.1388 1.09544Z" fill="#003781"/>
<path d="M30.382 25.4823C30.2742 25.4823 30.1678 25.4874 30.0625 25.4966C30.3309 24.7466 30.2734 23.8868 29.8311 23.1533L29.8221 23.1384C29.8204 23.1353 29.8182 23.1328 29.8162 23.1297L24.0882 14.2589C23.0745 12.4563 21.1083 12.5423 20.4601 12.5706C20.4593 12.5706 20.4587 12.5709 20.4579 12.5709C20.4321 12.5712 20.4065 12.5718 20.3812 12.5726C20.3661 12.5712 20.3509 12.5704 20.3352 12.5704C19.5967 12.5704 19.0659 12.8149 18.5043 13.0741C17.7388 13.4274 16.8708 13.8275 15.0548 13.8275C13.2385 13.8275 12.3708 13.4274 11.6053 13.0741C11.0496 12.8178 10.5239 12.576 9.7972 12.5709C9.16088 12.5431 7.26008 12.4614 6.23118 14.1553C6.20338 14.1828 6.17811 14.2134 6.15593 14.2474L0.477372 23.0412C0.450414 23.069 0.425984 23.0999 0.404642 23.1342L0.393691 23.1524C-0.388086 24.4489 0.0308836 26.1397 1.32767 26.9215C1.76096 27.1826 2.24704 27.3166 2.74071 27.3166C2.95693 27.3166 3.17484 27.2907 3.39022 27.2388C4.06052 27.0768 4.6345 26.6772 5.01864 26.1091C5.03325 26.0939 5.04729 26.0779 5.06048 26.0608L8.76382 21.2567L6.45078 33.0667C6.44348 33.0867 6.43702 33.1072 6.43196 33.1282C6.40444 33.2434 6.39069 33.3616 6.39069 33.4798C6.39069 34.3177 7.07249 34.9993 7.91015 34.9993C7.91156 34.9993 7.91296 34.999 7.91465 34.999C7.91605 34.999 7.91745 34.9993 7.91914 34.9993H8.99605V41.6829C8.99605 41.6834 8.99605 41.6837 8.99605 41.6843V41.707C8.99605 43.5502 10.4956 45.0501 12.3391 45.0501C13.2248 45.0501 14.0593 44.7072 14.6892 44.0843C14.858 43.9175 15.0065 43.7359 15.1343 43.5421C15.2621 43.7359 15.4106 43.9175 15.5791 44.0843C16.209 44.7069 17.0435 45.0501 17.9292 45.0501C19.7724 45.0501 21.2723 43.5502 21.2723 41.707C21.2723 41.7 21.2723 41.693 21.2723 41.6857C21.2723 41.6848 21.2723 41.6837 21.2723 41.6829V34.9993H22.3489C23.1868 34.9993 23.8683 34.3175 23.8683 33.4798C23.8683 33.4593 23.8675 33.4391 23.8667 33.4186C23.8698 33.372 23.8678 33.3242 23.8582 33.2759L21.5149 21.3109L25.1643 26.0451C25.5476 26.6471 26.139 27.0706 26.8343 27.2388C26.9693 27.2714 27.1055 27.2938 27.2414 27.3059C26.95 27.8142 26.7784 28.3997 26.7652 29.0231C26.7652 29.0236 26.7652 29.0239 26.7652 29.0245V29.0284C26.7646 29.0523 26.7643 29.0761 26.7643 29.1C26.7643 29.1062 26.7652 29.1121 26.7652 29.118V44.5019C26.7652 44.8043 27.0103 45.0495 27.3131 45.0495C27.6158 45.0495 27.8606 44.8043 27.8606 44.5019V29.0326C27.8963 27.6726 29.0136 26.5772 30.382 26.5772C31.7729 26.5772 32.9046 27.7089 32.9046 29.0997C32.9046 29.4022 33.1497 29.6476 33.4524 29.6476C33.7551 29.6476 34 29.4024 34 29.0997C34 27.1054 32.3769 25.4823 30.382 25.4823ZM12.3388 43.9546C11.0996 43.9546 10.0912 42.9462 10.0912 41.707V41.6924C10.0912 41.6907 10.0909 41.6888 10.0909 41.6871C10.0909 41.6857 10.0912 41.6843 10.0912 41.6831V34.9993H14.5861V41.7C14.5861 41.7062 14.587 41.7123 14.587 41.7185C14.5867 41.7233 14.5861 41.7281 14.5861 41.7331C14.5721 42.958 13.5637 43.9546 12.3388 43.9546ZM20.1768 41.6882C20.1768 41.6913 20.1765 41.6941 20.1765 41.6969V41.7067C20.1765 42.9459 19.1681 43.9543 17.9289 43.9543C16.7037 43.9543 15.6956 42.9577 15.6816 41.7328C15.6816 41.7278 15.6807 41.7233 15.6807 41.7182C15.681 41.7121 15.6816 41.7059 15.6816 41.6997V34.9993H20.1765V41.6829C20.1765 41.6848 20.1768 41.6865 20.1768 41.6882ZM26.0758 25.4385C26.0719 25.4321 26.0671 25.4259 26.0626 25.4197C26.0561 25.4102 26.05 25.4003 26.0429 25.3913L21.0105 18.863C20.9151 18.6842 20.7255 18.5707 20.5194 18.5741C20.402 18.5738 20.2838 18.6103 20.1835 18.6875C19.9859 18.84 19.9213 19.1006 20.0086 19.3219L22.7507 33.3217C22.7532 33.3419 22.7566 33.3624 22.7614 33.3826C22.769 33.4141 22.7726 33.447 22.7726 33.4798C22.7726 33.7137 22.5822 33.9038 22.3486 33.9038H7.91886C7.91745 33.9038 7.91605 33.9041 7.91437 33.9041C7.91296 33.9041 7.91156 33.9038 7.90987 33.9038C7.67596 33.9038 7.48585 33.7134 7.48585 33.4798C7.48585 33.4649 7.48697 33.4503 7.48838 33.4357C7.4968 33.4113 7.5041 33.3866 7.50916 33.3605L10.2774 19.2267C10.3355 18.9299 10.142 18.642 9.84522 18.5839C9.80422 18.5758 9.76378 18.5732 9.72363 18.5744C9.55767 18.5727 9.39311 18.6457 9.28416 18.7869L4.25007 25.3175C4.21131 25.3517 4.17705 25.3922 4.14841 25.4382C3.67525 26.2032 2.66348 26.4477 1.89294 25.9833C1.1384 25.5284 0.87837 24.5615 1.28835 23.7944C1.30492 23.775 1.32065 23.7545 1.33497 23.7326L7.00622 14.9499C7.04947 14.9106 7.0871 14.864 7.11686 14.8101C7.72117 13.7197 8.8416 13.6256 9.75031 13.6652C9.75424 13.6655 9.75817 13.665 9.7621 13.6652C9.76603 13.6652 9.76996 13.6658 9.77417 13.6658C10.2723 13.6658 10.6388 13.8348 11.1462 14.0688C11.9712 14.4493 12.9979 14.923 15.0545 14.923C15.1014 14.923 15.1472 14.9224 15.193 14.9219C15.1997 14.9221 15.2062 14.923 15.2129 14.923C17.2696 14.923 18.2962 14.4495 19.1212 14.0688C19.6287 13.8348 19.9951 13.6658 20.4933 13.6658C20.4969 13.6658 20.5006 13.6652 20.5042 13.6652C20.5054 13.6652 20.5068 13.6652 20.5079 13.6652C21.4166 13.6256 22.537 13.7197 23.1413 14.8101C23.1469 14.8205 23.1531 14.8306 23.1596 14.8404C23.1599 14.841 23.1601 14.8413 23.1604 14.8418L23.161 14.8427C23.1613 14.843 23.1615 14.8432 23.1615 14.8438L28.8949 23.7228C29.3613 24.5014 29.1091 25.5149 28.3313 25.9838C27.5607 26.4477 26.5492 26.2034 26.0758 25.4385Z" fill="#003781"/>
</svg>
