<svg width="39" height="41" viewBox="0 0 39 41" fill="none" xmlns="http://www.w3.org/2000/svg">
<path d="M27.4129 19.0061C27.1295 18.7788 27.0814 18.3638 27.3082 18.0779C27.5349 17.7938 27.9489 17.7456 28.2341 17.9729L28.3114 18.0349C28.5948 18.2622 28.6429 18.6772 28.4162 18.9631C28.1894 19.2472 27.7754 19.2954 27.4902 19.0681L27.4129 19.0061ZM37.5156 21.1966L37.4813 21.0967C37.282 20.5422 36.9247 20.0652 36.4162 19.6708C36.1293 19.4487 36.0761 19.0337 36.2977 18.7461C36.5193 18.4585 36.9333 18.4051 37.2202 18.6273C37.9314 19.18 38.4312 19.8551 38.7181 20.6524C38.993 21.4153 39.0668 22.278 38.9397 23.2389V23.2423C38.938 23.6264 38.9036 23.9931 38.8383 24.341C38.6253 25.4758 38.0842 26.3489 37.2545 26.9395C36.4523 27.5113 35.401 27.804 34.1367 27.804C33.7742 27.804 33.3894 27.7782 32.9857 27.7299C32.8998 29.8291 32.4601 31.3118 31.7729 32.4416C31.06 33.6161 30.1015 34.3806 29.0055 35.0505L28.6585 39.5449C28.6276 39.9461 28.4455 40.3008 28.1706 40.5557L28.1569 40.5678C27.8837 40.814 27.523 40.9639 27.1313 40.9639H25.0064C24.6113 40.9639 24.2471 40.8106 23.974 40.5592C23.6991 40.3078 23.5153 39.9565 23.481 39.5604L23.3556 38.1122C21.6807 38.7648 19.9182 39.433 17.7881 39.433C16.5651 39.433 15.2921 39.2969 14.0502 39.0369C13.1363 38.8458 12.2396 38.5875 11.3909 38.2654L11.2741 39.6172C11.2346 40.003 11.0525 40.3456 10.7828 40.5936C10.508 40.845 10.1455 41 9.7504 41H7.62546C7.23036 41 6.86616 40.845 6.59131 40.5902C6.31818 40.3387 6.13783 39.9874 6.10172 39.5914L5.62933 34.4613C4.96454 33.7381 4.39249 32.9511 3.93039 32.1125C3.52498 31.3789 3.20377 30.6074 2.97698 29.8084H1.57352C1.14062 29.8084 0.745531 29.631 0.460389 29.3469C0.176948 29.0627 0 28.6667 0 28.2327V24.5063C0 24.0723 0.176935 23.678 0.462104 23.3921C0.745545 23.108 1.14066 22.9306 1.57352 22.9306H3.39097C3.70362 22.1833 4.10216 21.4635 4.57798 20.7815C5.09163 20.0445 5.6963 19.3522 6.37653 18.722V15.9616C6.37653 15.6774 6.4504 15.4088 6.5861 15.1711L6.61531 15.1246C6.7493 14.9111 6.93482 14.7303 7.16501 14.5977C7.4141 14.4548 7.68209 14.3807 7.94832 14.3807C8.21458 14.3807 8.48254 14.453 8.73163 14.5977L10.903 15.8531C13.1069 15.0058 15.7215 14.639 18.2277 14.6804C21.0054 14.7269 23.675 15.2762 25.5286 16.2336C25.7382 16.3387 25.9461 16.4592 26.1522 16.5729C26.4683 16.7502 26.5834 17.1515 26.4064 17.4683C26.2295 17.7851 25.8293 17.9005 25.5132 17.7231L24.9222 17.4011C23.2439 16.535 20.7892 16.0373 18.2088 15.9942C15.7523 15.9529 13.1964 16.3283 11.1022 17.1893C10.9201 17.2633 10.7088 17.2547 10.525 17.1497L8.07713 15.7342C8.03591 15.7118 7.99124 15.698 7.9483 15.698C7.90535 15.698 7.85897 15.7101 7.81946 15.7342C7.78338 15.7531 7.7559 15.7807 7.73528 15.8082L7.72498 15.8272C7.70608 15.8599 7.69577 15.903 7.69577 15.9563V19.0061C7.69234 19.1886 7.61847 19.3694 7.47074 19.5003C6.77503 20.1185 6.16517 20.8004 5.655 21.5323C5.16541 22.2349 4.76346 22.9909 4.4697 23.7865C4.38553 24.0551 4.13473 24.2497 3.84097 24.2497H1.57518C1.50474 24.2497 1.44119 24.279 1.39652 24.3255C1.35014 24.372 1.32094 24.4357 1.32094 24.5046V28.231C1.32094 28.2999 1.35014 28.3636 1.39652 28.4101C1.44291 28.4566 1.50646 28.4859 1.5769 28.4859H3.48886C3.78948 28.4876 4.0609 28.6943 4.12959 28.9991C4.32886 29.8635 4.65181 30.6918 5.083 31.4719C5.5262 32.2727 6.08619 33.0269 6.74412 33.7192C6.84204 33.8242 6.90903 33.9603 6.92106 34.1135L7.41407 39.4706C7.41923 39.5292 7.44671 39.5843 7.48794 39.6222C7.5223 39.6549 7.57212 39.6755 7.6288 39.6755H9.75374C9.81215 39.6755 9.86368 39.6549 9.89975 39.6204C9.93411 39.5894 9.95816 39.5429 9.96331 39.4896L10.1557 37.2561C10.1643 37.1855 10.1815 37.1132 10.2124 37.0443C10.3601 36.7119 10.7501 36.5639 11.0816 36.7102C12.0797 37.1579 13.1842 37.5075 14.3197 37.7434C15.4638 37.9828 16.6457 38.1085 17.7897 38.1085C19.7309 38.1085 21.4006 37.4576 22.993 36.8394L23.6664 36.5794C23.7334 36.5484 23.8055 36.5294 23.8828 36.5225C24.2453 36.4915 24.5648 36.7602 24.5957 37.1252L24.7967 39.4483C24.8019 39.5034 24.8277 39.5533 24.8637 39.5877C24.8981 39.6205 24.9496 39.6411 25.008 39.6411H27.133C27.1879 39.6411 27.2377 39.6222 27.2738 39.5895L27.2807 39.5843C27.3168 39.5516 27.3408 39.5016 27.346 39.4465L27.7187 34.6092C27.7359 34.3991 27.851 34.2011 28.0451 34.0874C29.0981 33.4727 30.0155 32.7976 30.6494 31.754C31.2953 30.6933 31.6818 29.2106 31.6818 26.9617C31.6818 25.7872 31.4499 24.6886 31.0445 23.6778C30.5962 22.5584 29.9348 21.539 29.1394 20.6367C28.8989 20.3646 28.9247 19.9479 29.1961 19.7068C29.4675 19.4657 29.8833 19.4915 30.1238 19.7636C31.017 20.7779 31.7609 21.9247 32.2659 23.187C32.6662 24.1892 32.9204 25.2637 32.9839 26.3986C33.3876 26.4537 33.7724 26.4812 34.1349 26.4812C35.1226 26.4812 35.918 26.2729 36.49 25.8648C36.7013 25.7132 36.8869 25.5307 37.0415 25.3189C36.9676 25.3275 36.8937 25.3309 36.8181 25.3309C36.2324 25.3309 35.7015 25.0933 35.3185 24.7075C34.9354 24.3235 34.6966 23.7914 34.6966 23.2042C34.6966 22.6169 34.9337 22.0849 35.3185 21.7008C35.7015 21.3168 36.2323 21.0774 36.8181 21.0774C37.0621 21.0774 37.2957 21.1188 37.5156 21.1945L37.5156 21.1966ZM11.3651 6.49896C11.3651 4.70805 12.0917 3.08245 13.265 1.90629L13.2684 1.90284C14.4434 0.7284 16.0633 0 17.8499 0C19.6364 0 21.2581 0.7284 22.4313 1.90456L22.4348 1.90801C23.6064 3.08589 24.333 4.70805 24.333 6.50068C24.333 8.29159 23.6064 9.91719 22.4331 11.0951L22.4296 11.0986C21.2546 12.273 19.6364 13.0014 17.8482 13.0014C16.0616 13.0014 14.44 12.273 13.265 11.0968L13.2615 11.0934C12.0899 9.91552 11.3633 8.29164 11.3633 6.50072L11.3651 6.49896ZM14.1961 2.8362C13.2616 3.77126 12.6844 5.06623 12.6844 6.49896C12.6844 7.92997 13.2616 9.22494 14.1943 10.16C15.1288 11.0985 16.4224 11.6771 17.8499 11.6771C19.2774 11.6771 20.5692 11.0985 21.502 10.1634C22.4382 9.22666 23.0154 7.92997 23.0154 6.49896C23.0154 5.06795 22.4382 3.77298 21.5054 2.83791C20.5709 1.89941 19.2774 1.32081 17.8516 1.32081C16.4241 1.32081 15.1323 1.89941 14.1978 2.8362H14.1961ZM20.1808 4.74592C20.1808 5.11098 19.8853 5.40718 19.5212 5.40718C19.157 5.40718 18.8615 5.11098 18.8615 4.74592C18.8615 4.60471 18.7739 4.46522 18.6313 4.35674C18.4389 4.21037 18.1624 4.1191 17.848 4.1191C17.5337 4.1191 17.2571 4.21037 17.0664 4.35674C16.9256 4.46695 16.8362 4.60643 16.8362 4.74764C16.8362 4.90262 16.9462 5.07138 17.1214 5.24187C17.3722 5.48467 17.7364 5.70854 18.1418 5.91172C18.6589 6.17175 19.133 6.46965 19.4868 6.80892C19.9146 7.22048 20.1808 7.69748 20.1808 8.25368C20.1808 8.82197 19.894 9.32995 19.4302 9.68642C19.1725 9.88789 18.8564 10.0377 18.5077 10.1238V10.5802C18.5077 10.9452 18.2122 11.2414 17.848 11.2414C17.4838 11.2414 17.1884 10.9452 17.1884 10.5802V10.1238C16.8397 10.0377 16.5236 9.88789 16.2659 9.68986L16.2401 9.6692C15.7935 9.31446 15.5169 8.81507 15.5169 8.2537C15.5169 7.88863 15.8124 7.59244 16.1766 7.59244C16.5407 7.59244 16.8362 7.88863 16.8362 8.2537C16.8362 8.38974 16.9187 8.52406 17.0527 8.63255L17.0647 8.64116C17.2571 8.78926 17.5337 8.88052 17.848 8.88052C18.1624 8.88052 18.4389 8.78753 18.6313 8.64116C18.7739 8.53439 18.8615 8.39491 18.8615 8.2537C18.8615 8.09872 18.7515 7.92996 18.5746 7.75948C18.3238 7.51839 17.9614 7.2928 17.5542 7.08962C17.0372 6.82959 16.563 6.53341 16.2092 6.19242C15.7814 5.78086 15.5169 5.30214 15.5169 4.74765C15.5169 4.17593 15.8038 3.66967 16.2641 3.31492C16.5252 3.11517 16.8413 2.96363 17.1883 2.87753V2.42117C17.1883 2.0561 17.4838 1.75991 17.848 1.75991C18.2122 1.75991 18.5076 2.0561 18.5076 2.42117V2.87753C18.8564 2.96363 19.1741 3.11517 19.4318 3.31492C19.8922 3.67311 20.1791 4.17765 20.1791 4.74765L20.1808 4.74592ZM36.2529 22.6379C36.1086 22.7825 36.0175 22.984 36.0175 23.2061C36.0175 23.4283 36.1086 23.6298 36.2529 23.7744C36.3972 23.9191 36.5981 24.0104 36.8198 24.0104C37.0414 24.0104 37.2423 23.9191 37.3867 23.7744C37.5275 23.6332 37.6168 23.4369 37.622 23.2217V23.1889C37.6168 22.9737 37.5275 22.7791 37.3867 22.6379C37.2424 22.4932 37.0414 22.402 36.8198 22.402C36.5981 22.402 36.3972 22.4932 36.2529 22.6379ZM7.03451 23.888C7.03451 23.2681 7.28531 22.7033 7.69073 22.2969C8.09614 21.8905 8.65785 21.639 9.27801 21.639C9.89469 21.639 10.4564 21.8922 10.8636 22.2986C11.2707 22.7033 11.5215 23.2664 11.5215 23.888C11.5215 24.5062 11.2707 25.0676 10.8653 25.4758L10.8619 25.4792C10.4565 25.8856 9.89473 26.137 9.27972 26.137C8.65956 26.137 8.09785 25.8856 7.69244 25.4792L7.65293 25.4362C7.26985 25.0332 7.03451 24.4856 7.03451 23.888ZM8.62522 23.2319C8.45859 23.399 8.35381 23.6314 8.35381 23.888C8.35381 24.1308 8.44657 24.353 8.59602 24.5166L8.6235 24.5424C8.79014 24.7095 9.02204 24.8145 9.278 24.8145C9.53397 24.8145 9.76759 24.7112 9.93079 24.5459C10.0991 24.3788 10.2022 24.1446 10.2022 23.888C10.2022 23.6315 10.0991 23.399 9.93079 23.2319C9.76588 23.0632 9.53397 22.9599 9.278 22.9599C9.02204 22.9599 8.79013 23.0632 8.6235 23.2319L8.62522 23.2319ZM24.3208 18.5912C24.6438 18.7582 24.7709 19.156 24.6043 19.4798C24.4376 19.8035 24.0408 19.9309 23.7179 19.7639C22.2887 19.0251 20.2702 18.6738 18.2107 18.6498C15.9827 18.6239 13.7256 18.9821 12.1125 19.6468C11.7775 19.7846 11.3928 19.6244 11.2536 19.2869C11.1162 18.9511 11.2759 18.5654 11.6126 18.4259C13.3837 17.6958 15.8299 17.3048 18.2227 17.3307C20.4748 17.3565 22.703 17.7543 24.3192 18.5895L24.3208 18.5912Z" fill="#003781"/>
</svg>
