<svg width="48" height="48" viewBox="0 0 48 48" fill="none" xmlns="http://www.w3.org/2000/svg">
<path d="M23.9348 29.5064C23.6887 29.5058 23.4527 29.4083 23.2776 29.2351L20.0596 26.0099C20.0435 25.9937 20.0273 25.9764 20.0117 25.9585L18.319 24.2629C16.7331 22.6743 17.1397 20.5524 18.3276 19.363C18.915 18.7747 19.6629 18.427 20.4339 18.3853C21.0489 18.3518 21.9672 18.4964 22.8456 19.3763L23.9348 20.4674L25.0241 19.3763C25.9025 18.4958 26.8207 18.3512 27.4358 18.3853C28.2068 18.427 28.9547 18.7747 29.542 19.363C30.73 20.5524 31.1366 22.6743 29.5507 24.2629L27.8574 25.9585C27.8424 25.9764 27.8262 25.9937 27.81 26.0099L24.5903 29.2351C24.5043 29.3213 24.4021 29.3897 24.2896 29.4362C24.1771 29.4828 24.0566 29.5066 23.9348 29.5064ZM21.4168 24.7534L23.9348 27.274L26.4534 24.7534C26.4685 24.7355 26.4846 24.7182 26.5014 24.7014L28.2438 22.9561C29.1412 22.0571 28.6307 21.0702 28.2357 20.6739C27.9706 20.4089 27.6506 20.2533 27.3353 20.236C26.9888 20.2174 26.6492 20.369 26.331 20.6872L25.1142 21.9061C24.8011 22.2189 24.377 22.3946 23.9348 22.3946C23.4927 22.3946 23.0685 22.2189 22.7555 21.9061L21.5387 20.6878C21.2205 20.369 20.8832 20.2169 20.5344 20.236C20.219 20.2533 19.8991 20.4095 19.634 20.6739C19.239 21.0702 18.7284 22.0571 19.6259 22.9561L21.3683 24.7014C21.3853 24.7168 21.4014 24.7342 21.4168 24.7534Z" fill="#003781"/>
<path d="M23.9352 48.0084C17.9948 48.0012 12.2688 45.7843 7.86791 41.7875C3.467 37.7908 0.704934 32.2991 0.117507 26.3779C-0.46992 20.4567 1.15916 14.528 4.68875 9.74179C8.21833 4.95564 13.3968 1.65323 19.2196 0.475186C25.0425 -0.702858 31.0946 0.327436 36.2019 3.36621C41.3093 6.40499 45.1079 11.2356 46.8608 16.9211C48.6137 22.6065 48.1959 28.7414 45.6886 34.1358C43.1813 39.5302 38.7631 43.7995 33.2912 46.1155C30.3315 47.3707 27.1493 48.0145 23.9352 48.0084ZM23.9352 1.72859C18.4534 1.7351 13.1693 3.78089 9.10802 7.46913C5.04677 11.1574 2.49787 16.2251 1.95577 21.6893C1.41367 27.1535 2.91702 32.6246 6.17418 37.0413C9.43135 41.4581 14.2101 44.5056 19.5835 45.5926C24.9569 46.6797 30.5419 45.7289 35.255 42.9246C39.9681 40.1203 43.4734 35.6625 45.0909 30.4158C46.7085 25.1692 46.3228 19.5078 44.0089 14.5298C41.695 9.55184 37.6178 5.61219 32.5681 3.47508C29.8371 2.31721 26.9009 1.72319 23.9352 1.72859Z" fill="#003781"/>
<path d="M23.936 44.6006C18.8383 44.5959 13.9239 42.6947 10.1464 39.2658C6.36886 35.837 3.99738 31.1249 3.49198 26.0437C2.98659 20.9625 4.38331 15.8744 7.41121 11.7664C10.4391 7.65837 14.8823 4.82329 19.879 3.81112C24.8756 2.79895 30.0695 3.68184 34.453 6.28853C38.8365 8.89521 42.0973 13.0399 43.6027 17.9185C45.1081 22.7971 44.7508 28.0619 42.6002 32.6916C40.4496 37.3214 36.659 40.9859 31.9637 42.9745C29.4243 44.0521 26.6939 44.6052 23.936 44.6006ZM23.936 5.13441C13.5827 5.13441 5.16008 13.5712 5.16008 23.9419C5.16008 34.3126 13.5827 42.7495 23.936 42.7495C34.2894 42.7495 42.712 34.3126 42.712 23.9419C42.712 13.5712 34.2894 5.13441 23.936 5.13441Z" fill="#003781"/>
<path d="M23.9358 11.3901C23.6907 11.3901 23.4557 11.2925 23.2824 11.119C23.1091 10.9454 23.0117 10.7099 23.0117 10.4645V6.66778C23.0117 6.4223 23.1091 6.18687 23.2824 6.01329C23.4557 5.83971 23.6907 5.74219 23.9358 5.74219C24.1808 5.74219 24.4159 5.83971 24.5892 6.01329C24.7625 6.18687 24.8598 6.4223 24.8598 6.66778V10.4645C24.8598 10.7099 24.7625 10.9454 24.5892 11.119C24.4159 11.2925 24.1808 11.3901 23.9358 11.3901Z" fill="#003781"/>
<path d="M33.449 15.336C33.2663 15.3359 33.0877 15.2816 32.9359 15.1799C32.784 15.0782 32.6656 14.9337 32.5957 14.7646C32.5258 14.5955 32.5075 14.4095 32.5431 14.23C32.5787 14.0505 32.6667 13.8856 32.7958 13.7561L35.475 11.0719C35.6483 10.8983 35.8833 10.8008 36.1284 10.8008C36.3735 10.8008 36.6086 10.8983 36.7819 11.0719C36.9552 11.2455 37.0526 11.481 37.0526 11.7265C37.0526 11.972 36.9552 12.2074 36.7819 12.3811L34.1022 15.0647C34.0166 15.1509 33.9148 15.2192 33.8027 15.2658C33.6906 15.3123 33.5704 15.3362 33.449 15.336Z" fill="#003781"/>
<path d="M41.1811 24.8707H37.3908C37.1458 24.8707 36.9107 24.7732 36.7374 24.5996C36.5642 24.426 36.4668 24.1906 36.4668 23.9451C36.4668 23.6996 36.5642 23.4642 36.7374 23.2906C36.9107 23.117 37.1458 23.0195 37.3908 23.0195H41.18C41.4251 23.0195 41.6601 23.117 41.8334 23.2906C42.0067 23.4642 42.104 23.6996 42.104 23.9451C42.104 24.1906 42.0067 24.426 41.8334 24.5996C41.6601 24.7732 41.4251 24.8707 41.18 24.8707H41.1811Z" fill="#003781"/>
<path d="M36.1322 37.0854C36.0108 37.0854 35.8906 37.0614 35.7784 37.0149C35.6662 36.9683 35.5643 36.9001 35.4785 36.8141L32.7993 34.1298C32.7099 34.0447 32.6384 33.9426 32.589 33.8294C32.5396 33.7162 32.5134 33.5942 32.5118 33.4706C32.5102 33.3471 32.5333 33.2245 32.5798 33.1101C32.6263 32.9956 32.6952 32.8917 32.7824 32.8043C32.8696 32.7169 32.9734 32.648 33.0876 32.6014C33.2019 32.5549 33.3243 32.5317 33.4476 32.5333C33.5709 32.5349 33.6927 32.5612 33.8057 32.6106C33.9187 32.6601 34.0207 32.7317 34.1057 32.8213L36.7854 35.5049C36.9147 35.6343 37.0028 35.7993 37.0386 35.9789C37.0743 36.1585 37.0561 36.3446 36.9861 36.5138C36.9162 36.683 36.7978 36.8276 36.6457 36.9294C36.4937 37.0311 36.315 37.0854 36.1322 37.0854Z" fill="#003781"/>
<path d="M23.9358 42.142C23.6907 42.142 23.4557 42.0445 23.2824 41.8709C23.1091 41.6973 23.0117 41.4619 23.0117 41.2164V37.4197C23.0117 37.1743 23.1091 36.9388 23.2824 36.7652C23.4557 36.5917 23.6907 36.4941 23.9358 36.4941C24.1808 36.4941 24.4159 36.5917 24.5892 36.7652C24.7625 36.9388 24.8598 37.1743 24.8598 37.4197V41.2153C24.86 41.3369 24.8362 41.4574 24.7898 41.5698C24.7434 41.6823 24.6754 41.7844 24.5896 41.8705C24.5037 41.9566 24.4018 42.0249 24.2896 42.0714C24.1775 42.118 24.0572 42.142 23.9358 42.142Z" fill="#003781"/>
<path d="M11.7406 37.0854C11.5578 37.0854 11.3791 37.0311 11.2271 36.9294C11.0751 36.8276 10.9566 36.683 10.8867 36.5138C10.8167 36.3446 10.7985 36.1585 10.8342 35.9789C10.87 35.7993 10.9581 35.6343 11.0874 35.5049L13.7671 32.8213C13.8521 32.7317 13.9541 32.6601 14.0671 32.6106C14.1801 32.5612 14.3019 32.5349 14.4252 32.5333C14.5485 32.5317 14.6709 32.5549 14.7852 32.6014C14.8994 32.648 15.0032 32.7169 15.0904 32.8043C15.1777 32.8917 15.2465 32.9956 15.293 33.1101C15.3395 33.2245 15.3626 33.3471 15.361 33.4706C15.3594 33.5942 15.3332 33.7162 15.2838 33.8294C15.2344 33.9426 15.1629 34.0447 15.0735 34.1298L12.3944 36.8141C12.3085 36.9001 12.2066 36.9683 12.0944 37.0149C11.9823 37.0614 11.862 37.0854 11.7406 37.0854Z" fill="#003781"/>
<path d="M10.48 24.8707H6.68967C6.4446 24.8707 6.20956 24.7732 6.03627 24.5996C5.86298 24.426 5.76562 24.1906 5.76562 23.9451C5.76562 23.6996 5.86298 23.4642 6.03627 23.2906C6.20956 23.117 6.4446 23.0195 6.68967 23.0195H10.48C10.725 23.0195 10.9601 23.117 11.1334 23.2906C11.3067 23.4642 11.404 23.6996 11.404 23.9451C11.404 24.1906 11.3067 24.426 11.1334 24.5996C10.9601 24.7732 10.725 24.8707 10.48 24.8707Z" fill="#003781"/>
<path d="M14.42 15.336C14.2986 15.3362 14.1784 15.3123 14.0663 15.2658C13.9542 15.2192 13.8524 15.1509 13.7668 15.0647L11.0871 12.3811C10.9138 12.2074 10.8164 11.972 10.8164 11.7265C10.8164 11.481 10.9138 11.2455 11.0871 11.0719C11.2604 10.8983 11.4955 10.8008 11.7406 10.8008C11.9857 10.8008 12.2207 10.8983 12.394 11.0719L15.0732 13.7561C15.2023 13.8856 15.2903 14.0505 15.3259 14.23C15.3615 14.4095 15.3432 14.5955 15.2733 14.7646C15.2034 14.9337 15.085 15.0782 14.9331 15.1799C14.7813 15.2816 14.6027 15.3359 14.42 15.336Z" fill="#003781"/>
<path d="M37.9243 31.0024C37.797 31.0024 37.6711 30.9758 37.5547 30.9243L26.7832 26.2037C26.67 26.1564 26.5673 26.087 26.4811 25.9995C26.3949 25.912 26.327 25.8082 26.2813 25.6941C26.2356 25.58 26.2131 25.458 26.215 25.3351C26.2169 25.2122 26.2432 25.0909 26.2924 24.9783C26.3416 24.8657 26.4127 24.764 26.5016 24.6792C26.5904 24.5944 26.6952 24.5282 26.8099 24.4845C26.9246 24.4407 27.0468 24.4203 27.1694 24.4243C27.2921 24.4284 27.4127 24.4569 27.5242 24.5081L38.2951 29.2281C38.4899 29.3131 38.6496 29.4627 38.7472 29.6519C38.8447 29.841 38.8742 30.058 38.8307 30.2664C38.7871 30.4748 38.6732 30.6617 38.5081 30.7958C38.343 30.9298 38.1368 31.0028 37.9243 31.0024Z" fill="#003781"/>
<path d="M23.9358 22.3923C23.6907 22.3923 23.4557 22.2947 23.2824 22.1212C23.1091 21.9476 23.0117 21.7121 23.0117 21.4667V13.285C23.0117 13.0395 23.1091 12.8041 23.2824 12.6305C23.4557 12.4569 23.6907 12.3594 23.9358 12.3594C24.1808 12.3594 24.4159 12.4569 24.5892 12.6305C24.7625 12.8041 24.8598 13.0395 24.8598 13.285V21.4667C24.8598 21.7121 24.7625 21.9476 24.5892 22.1212C24.4159 22.2947 24.1808 22.3923 23.9358 22.3923Z" fill="#003781"/>
</svg>
