<svg width="35" height="37" viewBox="0 0 35 37" fill="none" xmlns="http://www.w3.org/2000/svg">
<path d="M12.8939 31.3939H2.80303C2.35713 31.3934 1.92964 31.2161 1.61434 30.9008C1.29905 30.5855 1.1217 30.158 1.12121 29.7121V2.80303C1.1217 2.35713 1.29905 1.92964 1.61434 1.61434C1.92964 1.29905 2.35713 1.1217 2.80303 1.12121H25.7879C26.2338 1.1217 26.6613 1.29905 26.9766 1.61434C27.2919 1.92964 27.4692 2.35713 27.4697 2.80303V15.1364C27.4697 15.285 27.5288 15.4276 27.6339 15.5328C27.739 15.6379 27.8816 15.697 28.0303 15.697C28.179 15.697 28.3216 15.6379 28.4267 15.5328C28.5318 15.4276 28.5909 15.285 28.5909 15.1364V2.80303C28.59 2.05989 28.2944 1.34743 27.7689 0.821952C27.2435 0.296471 26.531 0.000872397 25.7879 0H2.80303C2.05989 0.000872397 1.34743 0.296471 0.821952 0.821952C0.296471 1.34743 0.000872397 2.05989 0 2.80303V29.7121C0.000872397 30.4553 0.296471 31.1677 0.821952 31.6932C1.34743 32.2187 2.05989 32.5143 2.80303 32.5151H12.8939C13.0426 32.5151 13.1852 32.4561 13.2903 32.351C13.3955 32.2458 13.4545 32.1032 13.4545 31.9545C13.4545 31.8059 13.3955 31.6633 13.2903 31.5581C13.1852 31.453 13.0426 31.3939 12.8939 31.3939Z" fill="#003781"/>
<path d="M31.144 28.1232C31.0827 28.0824 31.0139 28.0541 30.9416 28.0399C30.8694 28.0257 30.795 28.0259 30.7228 28.0405C30.6507 28.055 30.582 28.0836 30.5209 28.1247C30.4598 28.1657 30.4073 28.2184 30.3666 28.2798C29.7467 29.2279 28.9543 30.0511 28.0305 30.7067V23.5973C28.0292 23.1209 28.1224 22.6489 28.3047 22.2087C28.487 21.7686 28.7548 21.3689 29.0926 21.0329L29.5481 20.5775C29.6521 20.4721 29.7103 20.3299 29.7098 20.1818C29.7093 20.0338 29.6503 19.8919 29.5456 19.7872C29.4409 19.6825 29.2991 19.6235 29.151 19.623C29.003 19.6226 28.8607 19.6807 28.7554 19.7847L28.2999 20.2402C27.8577 20.6801 27.507 21.2032 27.2683 21.7795C27.0296 22.3557 26.9076 22.9736 26.9093 23.5973V24.6659H19.6214C19.4728 24.6659 19.3302 24.725 19.225 24.8301C19.1199 24.9353 19.0608 25.0779 19.0608 25.2265C19.0608 25.3752 19.1199 25.5178 19.225 25.623C19.3302 25.7281 19.4728 25.7871 19.6214 25.7871H20.7828C20.8664 27.2785 20.7912 30.0359 19.784 31.1295C19.0445 30.8224 18.3612 30.3943 17.7622 29.8628C17.6537 29.7611 17.5092 29.7068 17.3606 29.7116C17.212 29.7165 17.0714 29.7802 16.9698 29.8888C16.8681 29.9973 16.8138 30.1418 16.8187 30.2904C16.8235 30.439 16.8873 30.5796 16.9958 30.6812C17.781 31.3813 18.6869 31.9328 19.6693 32.3089C20.8979 32.8187 22.2156 33.0791 23.5457 33.075C24.9727 33.0824 26.3845 32.7808 27.6839 32.1909L27.691 32.1881L27.7034 32.1832C29.1721 31.427 30.4135 30.2942 31.3005 28.9006C31.3828 28.7767 31.4126 28.6253 31.3832 28.4795C31.3538 28.3337 31.2678 28.2056 31.144 28.1232ZM26.9093 25.7871V28.0296H21.8832C21.9396 27.2834 21.9473 26.5343 21.9064 25.7871H26.9093ZM20.8721 31.5508C21.3287 30.8212 21.6258 30.0033 21.7438 29.1508H26.9093V31.2922C24.9875 32.0746 22.8538 32.166 20.8721 31.5508Z" fill="#003781"/>
<path d="M24.1066 15.6973C21.9999 15.6973 19.9406 16.322 18.1889 17.4924C16.4373 18.6628 15.0721 20.3263 14.2659 22.2726C13.4597 24.2189 13.2488 26.3606 13.6597 28.4268C14.0707 30.493 15.0852 32.3909 16.5748 33.8805C18.0645 35.3702 19.9624 36.3846 22.0286 36.7956C24.0948 37.2066 26.2364 36.9957 28.1828 36.1895C30.1291 35.3833 31.7926 34.0181 32.963 32.2664C34.1334 30.5148 34.7581 28.4555 34.7581 26.3488C34.7549 23.5248 33.6317 20.8174 31.6348 18.8206C29.638 16.8237 26.9306 15.7005 24.1066 15.6973ZM24.1066 35.8791C22.2217 35.8791 20.3791 35.3201 18.8118 34.2729C17.2446 33.2257 16.0231 31.7373 15.3017 29.9959C14.5804 28.2544 14.3917 26.3382 14.7594 24.4895C15.1271 22.6408 16.0348 20.9427 17.3677 19.6098C18.7005 18.277 20.3986 17.3693 22.2473 17.0016C24.096 16.6339 26.0123 16.8226 27.7537 17.5439C29.4951 18.2653 30.9835 19.4868 32.0308 21.054C33.078 22.6213 33.6369 24.4639 33.6369 26.3488C33.6341 28.8755 32.6291 31.2979 30.8424 33.0846C29.0558 34.8713 26.6333 35.8763 24.1066 35.8791Z" fill="#003781"/>
<path d="M6.16632 5.60571H8.40874C8.70601 5.606 8.99103 5.72422 9.20123 5.93443C9.41143 6.14463 9.52965 6.42964 9.52995 6.72692C9.52995 6.8756 9.58902 7.01819 9.69415 7.12333C9.79928 7.22846 9.94188 7.28752 10.0906 7.28752C10.2392 7.28752 10.3818 7.22846 10.487 7.12333C10.5921 7.01819 10.6512 6.8756 10.6512 6.72692C10.6497 6.23113 10.4837 5.74984 10.1794 5.35846C9.87506 4.96707 9.44948 4.6877 8.96935 4.5641V3.92389C8.96935 3.77521 8.91028 3.63261 8.80515 3.52748C8.70001 3.42235 8.55742 3.36328 8.40874 3.36328C8.26006 3.36328 8.11747 3.42235 8.01233 3.52748C7.9072 3.63261 7.84813 3.77521 7.84813 3.92389V4.48449H6.72692V3.92389C6.72692 3.77521 6.66786 3.63261 6.56272 3.52748C6.45759 3.42235 6.315 3.36328 6.16632 3.36328C6.01763 3.36328 5.87504 3.42235 5.76991 3.52748C5.66477 3.63261 5.60571 3.77521 5.60571 3.92389V4.5641C5.07743 4.69956 4.6168 5.02329 4.31039 5.47445C4.00399 5.92561 3.87289 6.47314 3.94174 7.01415C4.01058 7.55516 4.27464 8.0524 4.68428 8.41243C5.09392 8.77247 5.62094 8.97051 6.16632 8.96934H8.40874C8.7061 8.96934 8.99129 9.08747 9.20156 9.29774C9.41182 9.50801 9.52995 9.79319 9.52995 10.0906C9.52995 10.3879 9.41182 10.6731 9.20156 10.8834C8.99129 11.0936 8.7061 11.2118 8.40874 11.2118H6.16632C5.86904 11.2115 5.58403 11.0932 5.37383 10.883C5.16362 10.6728 5.0454 10.3878 5.0451 10.0906C5.0451 9.94187 4.98604 9.79928 4.88091 9.69414C4.77577 9.58901 4.63318 9.52995 4.4845 9.52995C4.33582 9.52995 4.19322 9.58901 4.08809 9.69414C3.98296 9.79928 3.92389 9.94187 3.92389 10.0906C3.92539 10.5863 4.09131 11.0676 4.39565 11.459C4.7 11.8504 5.12557 12.1298 5.60571 12.2534V12.8936C5.60571 13.0423 5.66477 13.1849 5.76991 13.29C5.87504 13.3951 6.01763 13.4542 6.16632 13.4542C6.315 13.4542 6.45759 13.3951 6.56272 13.29C6.66786 13.1849 6.72692 13.0423 6.72692 12.8936V12.333H7.84813V12.8936C7.84813 13.0423 7.9072 13.1849 8.01233 13.29C8.11747 13.3951 8.26006 13.4542 8.40874 13.4542C8.55742 13.4542 8.70001 13.3951 8.80515 13.29C8.91028 13.1849 8.96935 13.0423 8.96935 12.8936V12.2534C9.49763 12.1179 9.95825 11.7942 10.2647 11.343C10.5711 10.8919 10.7022 10.3443 10.6333 9.80332C10.5645 9.26231 10.3004 8.76507 9.89078 8.40504C9.48114 8.045 8.95411 7.84696 8.40874 7.84813H6.16632C5.86895 7.84813 5.58377 7.73 5.3735 7.51973C5.16323 7.30947 5.0451 7.02428 5.0451 6.72692C5.0451 6.42955 5.16323 6.14437 5.3735 5.9341C5.58377 5.72383 5.86895 5.60571 6.16632 5.60571Z" fill="#003781"/>
<path d="M22.9854 5.04492H14.0157C13.867 5.04492 13.7244 5.10399 13.6193 5.20912C13.5141 5.31425 13.4551 5.45685 13.4551 5.60553C13.4551 5.75421 13.5141 5.8968 13.6193 6.00194C13.7244 6.10707 13.867 6.16613 14.0157 6.16613H22.9854C23.1341 6.16613 23.2767 6.10707 23.3818 6.00194C23.4869 5.8968 23.546 5.75421 23.546 5.60553C23.546 5.45685 23.4869 5.31425 23.3818 5.20912C23.2767 5.10399 23.1341 5.04492 22.9854 5.04492Z" fill="#003781"/>
<path d="M14.0157 8.41027H17.3793C17.528 8.41027 17.6706 8.35121 17.7757 8.24608C17.8809 8.14094 17.9399 7.99835 17.9399 7.84967C17.9399 7.70099 17.8809 7.55839 17.7757 7.45326C17.6706 7.34813 17.528 7.28906 17.3793 7.28906H14.0157C13.867 7.28906 13.7244 7.34813 13.6193 7.45326C13.5141 7.55839 13.4551 7.70099 13.4551 7.84967C13.4551 7.99835 13.5141 8.14094 13.6193 8.24608C13.7244 8.35121 13.867 8.41027 14.0157 8.41027Z" fill="#003781"/>
<path d="M23.546 10.0919C23.546 9.94317 23.4869 9.80058 23.3818 9.69545C23.2767 9.59031 23.1341 9.53125 22.9854 9.53125H14.0157C13.867 9.53125 13.7244 9.59031 13.6193 9.69545C13.5141 9.80058 13.4551 9.94317 13.4551 10.0919C13.4551 10.2405 13.5141 10.3831 13.6193 10.4883C13.7244 10.5934 13.867 10.6525 14.0157 10.6525H22.9854C23.1341 10.6525 23.2767 10.5934 23.3818 10.4883C23.4869 10.3831 23.546 10.2405 23.546 10.0919Z" fill="#003781"/>
<path d="M14.0157 11.7715C13.867 11.7715 13.7244 11.8305 13.6193 11.9357C13.5141 12.0408 13.4551 12.1834 13.4551 12.3321C13.4551 12.4808 13.5141 12.6234 13.6193 12.7285C13.7244 12.8336 13.867 12.8927 14.0157 12.8927H17.3793C17.528 12.8927 17.6706 12.8336 17.7757 12.7285C17.8809 12.6234 17.9399 12.4808 17.9399 12.3321C17.9399 12.1834 17.8809 12.0408 17.7757 11.9357C17.6706 11.8305 17.528 11.7715 17.3793 11.7715H14.0157Z" fill="#003781"/>
<path d="M10.0924 20.1816H5.04693C4.89825 20.1816 4.75566 20.2407 4.65053 20.3458C4.54539 20.451 4.48633 20.5936 4.48633 20.7422C4.48633 20.8909 4.54539 21.0335 4.65053 21.1387C4.75566 21.2438 4.89825 21.3029 5.04693 21.3029H10.0924C10.2411 21.3029 10.3837 21.2438 10.4888 21.1387C10.5939 21.0335 10.653 20.8909 10.653 20.7422C10.653 20.5936 10.5939 20.451 10.4888 20.3458C10.3837 20.2407 10.2411 20.1816 10.0924 20.1816Z" fill="#003781"/>
<path d="M10.0924 22.4238H5.04693C4.89825 22.4238 4.75566 22.4829 4.65053 22.588C4.54539 22.6932 4.48633 22.8358 4.48633 22.9844C4.48633 23.1331 4.54539 23.2757 4.65053 23.3808C4.75566 23.486 4.89825 23.545 5.04693 23.545H10.0924C10.2411 23.545 10.3837 23.486 10.4888 23.3808C10.5939 23.2757 10.653 23.1331 10.653 22.9844C10.653 22.8358 10.5939 22.6932 10.4888 22.588C10.3837 22.4829 10.2411 22.4238 10.0924 22.4238Z" fill="#003781"/>
<path d="M10.0924 24.666H5.04693C4.89825 24.666 4.75566 24.7251 4.65053 24.8302C4.54539 24.9353 4.48633 25.0779 4.48633 25.2266C4.48633 25.3753 4.54539 25.5179 4.65053 25.623C4.75566 25.7282 4.89825 25.7872 5.04693 25.7872H10.0924C10.2411 25.7872 10.3837 25.7282 10.4888 25.623C10.5939 25.5179 10.653 25.3753 10.653 25.2266C10.653 25.0779 10.5939 24.9353 10.4888 24.8302C10.3837 24.7251 10.2411 24.666 10.0924 24.666Z" fill="#003781"/>
<path d="M10.0924 26.9082H5.04693C4.89825 26.9082 4.75566 26.9673 4.65053 27.0724C4.54539 27.1775 4.48633 27.3201 4.48633 27.4688C4.48633 27.6175 4.54539 27.7601 4.65053 27.8652C4.75566 27.9704 4.89825 28.0294 5.04693 28.0294H10.0924C10.2411 28.0294 10.3837 27.9704 10.4888 27.8652C10.5939 27.7601 10.653 27.6175 10.653 27.4688C10.653 27.3201 10.5939 27.1775 10.4888 27.0724C10.3837 26.9673 10.2411 26.9082 10.0924 26.9082Z" fill="#003781"/>
</svg>
