<svg width="46" height="50" viewBox="0 0 46 50" fill="none" xmlns="http://www.w3.org/2000/svg">
<path d="M17.8324 5.30158C17.8324 6.30775 18.7547 6.45448 19.2299 7.25802H25.7001V21.8475C26.798 21.3109 27.7843 20.5711 28.6068 19.6675V4.29541C28.6068 3.73946 28.386 3.20629 27.9929 2.81318C27.5998 2.42007 27.0666 2.19922 26.5106 2.19922H17.7695C17.8883 2.96083 17.8324 2.66038 17.8324 5.30158ZM26.4757 2.95385C26.8309 2.95568 27.1711 3.09761 27.4223 3.34881C27.6735 3.6 27.8154 3.94017 27.8173 4.29541V19.367C27.395 19.7992 26.9264 20.1835 26.4198 20.5129V6.49641H19.6701C18.2726 4.77753 18.7128 6.70602 18.629 2.96083L26.4757 2.95385Z" fill="#003781"/>
<path d="M9.78336 6.97237C9.68326 7.05508 9.60993 7.1656 9.57262 7.28996C9.53531 7.41433 9.5357 7.54696 9.57374 7.6711C9.84624 8.42573 10.4332 8.13226 18.3358 8.13226C18.4728 8.12899 18.6058 8.0855 18.7183 8.0072C18.8308 7.92891 18.9177 7.81927 18.9684 7.69193C19.019 7.56458 19.0311 7.42516 19.0031 7.29101C18.9751 7.15686 18.9083 7.0339 18.8109 6.93744C17.5113 5.87537 17.672 5.83344 17.672 4.07963C17.7166 3.54128 17.6978 2.99955 17.6161 2.46557C16.9174 -1.1259 10.9223 -0.664741 10.9223 3.01058C10.9223 6.02909 11.1249 5.86139 9.78336 6.97237ZM16.8685 2.66121C16.9342 3.14513 16.9483 3.63467 16.9104 4.12156C16.9104 5.74261 16.7497 6.28762 18.1262 7.40559L10.4402 7.4545C11.9215 6.21076 11.7188 6.05704 11.7188 3.04551C11.6909 0.299505 16.3165 -0.0428716 16.8685 2.66121Z" fill="#003781"/>
<path d="M16.0933 3.64711C16.0933 1.34829 14.06 0.6845 13.0399 1.9492C12.6959 2.4499 12.5117 3.04312 12.5117 3.65061C12.5117 4.2581 12.6959 4.85131 13.0399 5.35201C14.06 6.60973 16.0933 5.94593 16.0933 3.64711ZM14.9754 2.43132C15.6182 3.22089 15.3946 5.22624 14.2766 5.22624C13.7875 5.22624 13.2565 4.73713 13.2565 3.66808C13.2774 2.09593 14.3954 1.72561 14.9684 2.43132H14.9754Z" fill="#003781"/>
<path d="M2.09661 41.3563H18.4678C17.9483 40.4235 17.5021 39.4517 17.1333 38.4496H2.88617V7.26531H9.35641C9.48055 7.00001 9.67664 6.77487 9.92238 6.61549C11.3198 5.46259 10.3905 5.26694 10.8307 2.18555H2.09661C1.54066 2.18555 1.00749 2.40639 0.614379 2.79951C0.221267 3.19262 0.000419312 3.72579 0.000419312 4.28174V39.2182C-0.00515747 39.497 0.0449426 39.7741 0.147786 40.0333C0.25063 40.2925 0.40415 40.5285 0.599357 40.7276C0.794565 40.9267 1.02754 41.0849 1.28463 41.1929C1.54172 41.3008 1.81777 41.3564 2.09661 41.3563ZM0.755047 4.32366C0.756883 3.96842 0.898815 3.62826 1.15001 3.37706C1.4012 3.12587 1.74137 2.98393 2.09661 2.9821H9.97129C9.88744 6.75524 10.2997 4.81277 8.93018 6.51767H2.11757V39.2182H16.6302C16.8747 39.8401 17.0634 40.2593 17.2171 40.6157H2.09661C1.74137 40.6138 1.4012 40.4719 1.15001 40.2207C0.898815 39.9695 0.756883 39.6294 0.755047 39.2741V4.32366Z" fill="#003781"/>
<path d="M5.84292 14.357H17.6445C17.9567 14.2897 18.2364 14.1173 18.4371 13.8688C18.6377 13.6202 18.7471 13.3104 18.7471 12.991C18.7471 12.6716 18.6377 12.3618 18.4371 12.1132C18.2364 11.8647 17.9567 11.6924 17.6445 11.625H5.84292C5.53068 11.6924 5.25094 11.8647 5.05031 12.1132C4.84967 12.3618 4.74023 12.6716 4.74023 12.991C4.74023 13.3104 4.84967 13.6202 5.05031 13.8688C5.25094 14.1173 5.53068 14.2897 5.84292 14.357ZM17.6445 12.3936C17.7918 12.4096 17.928 12.4794 18.027 12.5896C18.1259 12.6999 18.1807 12.8428 18.1807 12.991C18.1807 13.1392 18.1259 13.2821 18.027 13.3924C17.928 13.5027 17.7918 13.5725 17.6445 13.5884C5.06733 13.5884 5.25599 13.826 5.25599 12.9875C5.25599 12.149 5.09528 12.3936 17.6445 12.3936Z" fill="#003781"/>
<path d="M5.84292 18.0328H17.6445C17.9567 17.9654 18.2364 17.7931 18.4371 17.5446C18.6377 17.296 18.7471 16.9862 18.7471 16.6668C18.7471 16.3474 18.6377 16.0376 18.4371 15.789C18.2364 15.5405 17.9567 15.3682 17.6445 15.3008H5.84292C5.53068 15.3682 5.25094 15.5405 5.05031 15.789C4.84967 16.0376 4.74023 16.3474 4.74023 16.6668C4.74023 16.9862 4.84967 17.296 5.05031 17.5446C5.25094 17.7931 5.53068 17.9654 5.84292 18.0328ZM17.6445 16.0694C17.7918 16.0853 17.928 16.1552 18.027 16.2654C18.1259 16.3757 18.1807 16.5186 18.1807 16.6668C18.1807 16.815 18.1259 16.9579 18.027 17.0682C17.928 17.1784 17.7918 17.2483 17.6445 17.2642C5.06733 17.2642 5.25599 17.5018 5.25599 16.6633C5.25599 15.8248 5.09528 16.0344 17.6445 16.0344V16.0694Z" fill="#003781"/>
<path d="M5.84292 21.6383H17.6445C17.9567 21.5709 18.2364 21.3986 18.4371 21.15C18.6377 20.9015 18.7471 20.5917 18.7471 20.2723C18.7471 19.9528 18.6377 19.6431 18.4371 19.3945C18.2364 19.1459 17.9567 18.9736 17.6445 18.9062H5.84292C5.53068 18.9736 5.25094 19.1459 5.05031 19.3945C4.84967 19.6431 4.74023 19.9528 4.74023 20.2723C4.74023 20.5917 4.84967 20.9015 5.05031 21.15C5.25094 21.3986 5.53068 21.5709 5.84292 21.6383ZM17.6445 19.6749C17.7918 19.6908 17.928 19.7606 18.027 19.8709C18.1259 19.9812 18.1807 20.1241 18.1807 20.2723C18.1807 20.4204 18.1259 20.5634 18.027 20.6736C17.928 20.7839 17.7918 20.8537 17.6445 20.8697C5.06733 20.8697 5.25599 21.1072 5.25599 20.2688C5.25599 19.4303 5.09528 19.6749 17.6445 19.6749Z" fill="#003781"/>
<path d="M17.735 22.5332H5.85659C5.54435 22.6006 5.26462 22.7729 5.06398 23.0215C4.86334 23.27 4.75391 23.5798 4.75391 23.8992C4.75391 24.2186 4.86334 24.5284 5.06398 24.777C5.26462 25.0255 5.54435 25.1979 5.85659 25.2652H16.7358C17.0164 24.3362 17.35 23.424 17.735 22.5332ZM16.1698 24.5106C5.25568 24.5106 5.25568 24.7412 5.25568 23.9097C5.25568 23.0782 5.01812 23.3158 16.6031 23.3018C16.4773 23.6232 16.3375 23.9866 16.1698 24.5106Z" fill="#003781"/>
<path d="M16.4846 26.1797H5.84292C5.53068 26.2471 5.25094 26.4194 5.05031 26.6679C4.84967 26.9165 4.74023 27.2263 4.74023 27.5457C4.74023 27.8651 4.84967 28.1749 5.05031 28.4235C5.25094 28.672 5.53068 28.8443 5.84292 28.9117H15.9955C16.1028 27.9919 16.2661 27.0796 16.4846 26.1797ZM15.3247 28.1431C5.29791 28.1431 5.25599 28.3667 5.25599 27.5422C5.25599 26.7177 5.25599 26.9413 15.5343 26.9413C15.4505 27.3466 15.3806 27.7448 15.3247 28.1501V28.1431Z" fill="#003781"/>
<path d="M15.9186 29.8203H5.84292C5.53068 29.8877 5.25094 30.06 5.05031 30.3086C4.84967 30.5571 4.74023 30.8669 4.74023 31.1863C4.74023 31.5058 4.84967 31.8155 5.05031 32.0641C5.25094 32.3127 5.53068 32.485 5.84292 32.5523H15.9116C15.8589 31.6424 15.8612 30.73 15.9186 29.8203ZM15.1151 31.7837C5.1372 31.7907 5.25599 32.0073 5.25599 31.1898C5.25599 30.3723 5.1372 30.6099 15.1151 30.6099C15.1081 30.9942 15.1011 31.3925 15.1151 31.7907V31.7837Z" fill="#003781"/>
<path d="M18.8325 23.6227C17.762 26.1665 17.2418 28.908 17.3061 31.6671C17.3704 34.4263 18.0177 37.1406 19.2056 39.6318C20.3934 42.123 22.0949 44.3347 24.1983 46.1216C26.3016 47.9084 28.7592 49.2301 31.4096 49.9997C34.0563 49.2255 36.5094 47.9005 38.6081 46.1116C40.7068 44.3228 42.4036 42.1105 43.5872 39.6198C44.7709 37.1291 45.4146 34.4164 45.4762 31.6595C45.5379 28.9025 45.016 26.1637 43.9448 23.6227C39.0537 25.0201 34.3024 23.3781 31.3677 18.0957C28.5099 23.3292 23.7865 25.0201 18.8325 23.6227ZM31.4096 19.6469C32.6538 21.6319 34.4929 23.1735 36.6648 24.0518C38.8366 24.9301 41.2304 25.1002 43.5046 24.538C44.4203 26.9471 44.8307 29.5187 44.7104 32.0931C44.5901 34.6675 43.9417 37.1897 42.8054 39.5029C41.6691 41.8161 40.0693 43.8709 38.1053 45.5396C36.1412 47.2084 33.855 48.4554 31.3887 49.2031C28.927 48.4511 26.6459 47.2019 24.6866 45.5328C22.7272 43.8637 21.1312 41.8102 19.9974 39.4994C18.8637 37.1887 18.2162 34.6698 18.0952 32.0987C17.9741 29.5276 18.382 26.959 19.2936 24.552C21.5686 25.1135 23.9629 24.9423 26.1348 24.0627C28.3068 23.1832 30.1455 21.6402 31.3887 19.6539L31.4096 19.6469Z" fill="#003781"/>
<path d="M28.2164 42.6367H34.5539V37.3543H39.5917V31.0657H34.5609V25.8672H28.2164V31.1007H23.1855V37.3892H28.2164V42.6367ZM23.9541 36.5857V31.8693H29.013V26.6358H33.8202V31.8693H38.7952V36.5857H33.7923V41.8681H29.013V36.5857H23.9541Z" fill="#003781"/>
</svg>
